<svg width="103" height="103" viewBox="0 0 103 103" fill="none" xmlns="http://www.w3.org/2000/svg">
<path d="M19.1688 17.7061H40.2764V51.23H19.1688V17.7061Z" fill="#00C09E"/>
<path d="M19.1688 68.6128H40.2764V84.7539H19.1688V68.6128Z" fill="#00C09E"/>
<path d="M61.3841 18.9478H82.4917V35.0889H61.3841V18.9478Z" fill="#00C09E"/>
<path d="M89.6311 55.8963C89.2069 55.8963 88.3584 56.3205 87.9342 56.7447L83.692 60.9869L92.6007 69.8956L96.8429 65.6534C97.6913 64.8049 97.6913 63.1081 96.8429 62.2596L91.328 56.7447C90.9038 56.3205 90.4795 55.8963 89.6311 55.8963ZM81.5709 63.5323L55.6933 88.9856V97.8943H64.602L90.4796 72.0167L81.5709 63.5323ZM89.6311 13.0498H55.6933V38.5032H89.6311V13.0498ZM81.1467 30.0187H64.1777V21.5343H81.1467V30.0187ZM55.6933 76.9377V46.9876H89.6311V47.4118C86.407 47.4118 83.5647 49.1087 81.9527 50.7632L77.2014 55.4721H64.1777V68.4957L55.6933 76.9377ZM47.2088 13.0498H13.271V55.4721H47.2088V13.0498ZM38.7244 46.9876H21.7555V21.5343H38.7244V46.9876ZM47.2088 85.4222V63.9565H13.271V89.4099H47.2088V85.4222ZM38.7244 80.9254H21.7555V72.441H38.7244V80.9254Z" fill="black"/>
</svg>
