<svg width="72" height="66" viewBox="0 0 72 66" fill="none" xmlns="http://www.w3.org/2000/svg">
<path d="M28.3558 26.4405C34.4244 26.4405 39.3439 21.521 39.3439 15.4524C39.3439 9.38389 34.4244 4.46436 28.3558 4.46436C22.2872 4.46436 17.3677 9.38389 17.3677 15.4524C17.3677 21.521 22.2872 26.4405 28.3558 26.4405Z" fill="#00C09E"/>
<path fill-rule="evenodd" clip-rule="evenodd" d="M13.022 15.4524C13.022 6.98383 19.8872 0.118652 28.3558 0.118652C36.8244 0.118652 43.6896 6.98383 43.6896 15.4524C43.6896 23.9211 36.8244 30.7862 28.3558 30.7862C19.8872 30.7862 13.022 23.9211 13.022 15.4524ZM28.3558 8.81004C24.6873 8.81004 21.7134 11.7839 21.7134 15.4524C21.7134 19.1209 24.6873 22.0948 28.3558 22.0948C32.0243 22.0948 34.9982 19.1209 34.9982 15.4524C34.9982 11.7839 32.0243 8.81004 28.3558 8.81004Z" fill="black"/>
<path d="M48.7623 20.1619L58.1807 29.5802L67.599 20.1619" fill="#00C09E"/>
<path fill-rule="evenodd" clip-rule="evenodd" d="M45.6894 17.089C47.3865 15.3919 50.1381 15.3919 51.8352 17.089L58.1807 23.4345L64.5261 17.089C66.2232 15.3919 68.9748 15.3919 70.6719 17.089C72.369 18.7861 72.369 21.5376 70.6719 23.2347L61.2535 32.6531C59.5564 34.3502 56.8049 34.3502 55.1078 32.6531L45.6894 23.2347C43.9923 21.5376 43.9923 18.7861 45.6894 17.089Z" fill="black"/>
<path d="M4.80994 59.0913V60.975H51.9017V59.0913C51.9017 52.0583 51.9017 48.5418 50.5331 45.8555C49.3291 43.4926 47.4079 41.5714 45.045 40.3674C42.3587 38.9988 38.8422 38.9988 31.8092 38.9988H24.9024C17.8694 38.9988 14.3529 38.9988 11.6666 40.3674C9.30372 41.5714 7.38261 43.4926 6.17866 45.8555C4.80994 48.5418 4.80994 52.0583 4.80994 59.0913Z" fill="#00C09E"/>
<path fill-rule="evenodd" clip-rule="evenodd" d="M24.7239 34.6531H31.9877C35.3524 34.653 38.139 34.653 40.411 34.8386C42.7738 35.0316 44.96 35.4469 47.0178 36.4953C50.1984 38.1159 52.7845 40.702 54.4051 43.8826C55.4536 45.9404 55.8689 48.1267 56.0619 50.4895C56.2475 52.7615 56.2475 55.5481 56.2474 58.9129V60.975C56.2474 63.375 54.3018 65.3206 51.9017 65.3206H4.80993C2.40987 65.3206 0.464237 63.375 0.464237 60.975L0.464235 58.9128C0.464178 55.5481 0.46413 52.7615 0.64976 50.4895C0.842808 48.1267 1.25808 45.9405 2.30661 43.8826C3.92717 40.702 6.51306 38.116 9.6937 36.4954C11.7515 35.4469 13.9379 35.0316 16.3007 34.8386C18.5726 34.653 21.3592 34.653 24.7239 34.6531ZM13.6394 44.2395C12.0943 45.0268 10.838 46.2832 10.0507 47.8284C9.73051 48.4568 9.46142 49.372 9.31228 51.1972C9.19697 52.6086 9.16649 54.3335 9.15847 56.6293H47.5532C47.5452 54.3335 47.5147 52.6086 47.3994 51.1972C47.2503 49.3719 46.9812 48.4567 46.661 47.8283C45.8737 46.2832 44.6173 45.0268 43.0722 44.2395M13.6394 44.2395C14.2679 43.9194 15.1832 43.6502 17.0084 43.5011C18.8844 43.3478 21.3142 43.3445 24.9024 43.3445H31.8092C35.3974 43.3445 37.8273 43.3478 39.7033 43.5011C41.5285 43.6502 42.4438 43.9193 43.0722 44.2395" fill="black"/>
</svg>
