<svg xmlns="http://www.w3.org/2000/svg" xmlns:xlink="http://www.w3.org/1999/xlink" width="88" zoomAndPan="magnify" viewBox="0 0 66 57.749997" height="77" preserveAspectRatio="xMidYMid meet" version="1.0"><defs><clipPath id="id1"><path d="M 0.140625 0 L 65.855469 0 L 65.855469 57.5 L 0.140625 57.5 Z M 0.140625 0 " clip-rule="nonzero"/></clipPath><clipPath id="id2"><path d="M 39.429688 3.835938 L 43.910156 3.835938 L 43.910156 7.570312 L 39.429688 7.570312 Z M 39.429688 3.835938 " clip-rule="nonzero"/></clipPath></defs><g clip-path="url(#id1)"><path fill="#00c09e" d="M 42.445312 3.136719 L 55.5 11.660156 C 57.757812 13.316406 58.238281 16.472656 56.578125 18.71875 C 54.917969 20.964844 51.75 21.445312 49.492188 19.792969 L 38.375 12.582031 L 25 12.582031 C 24 12.582031 22.972656 13.605469 22.972656 14.601562 C 22.972656 15.816406 24 16.625 25 16.625 L 33 16.625 C 35.027344 16.625 36.789062 18.113281 37.234375 20.09375 C 37.640625 22.621094 35.699219 24.703125 33.113281 24.703125 L 18.914062 24.703125 C 15.492188 24.703125 12.292969 23.644531 9.632812 21.496094 L 3.738281 16.625 L 2.691406 16.738281 C 1.695312 16.738281 0.777344 15.816406 0.777344 14.601562 L 0.777344 2.597656 C 0.777344 1.492188 1.695312 0.578125 2.691406 0.578125 L 34.507812 0.578125 C 37.410156 0.578125 40.1875 1.484375 42.445312 3.136719 Z M 19.957031 54.574219 L 2.839844 42.011719 C 0.585938 40.359375 0.101562 37.203125 1.765625 34.953125 C 3.429688 32.707031 6.597656 32.226562 8.855469 33.882812 L 24.023438 45.015625 L 39.3125 45.015625 C 40.429688 45.015625 41.339844 44.109375 41.339844 42.996094 C 41.339844 41.898438 40.429688 40.976562 39.3125 40.976562 L 29.398438 40.976562 C 27.371094 40.976562 25.496094 39.601562 25.164062 37.617188 C 24.761719 35.09375 26.699219 32.898438 29.171875 32.898438 L 45.398438 32.898438 C 48.820312 32.898438 52.128906 34.070312 54.789062 36.21875 L 60.683594 40.976562 L 63.652344 40.976562 C 64.753906 40.976562 65.679688 41.898438 65.679688 42.996094 L 65.679688 55.117188 C 65.679688 56.226562 64.753906 57.136719 63.652344 57.136719 L 27.777344 57.136719 C 24.875 57.136719 22.210938 56.226562 19.957031 54.574219 Z M 19.957031 54.574219 " fill-opacity="1" fill-rule="nonzero"/><path fill="#000000" d="M 49.492188 19.792969 C 51.75 21.445312 54.917969 20.964844 56.578125 18.71875 C 58.238281 16.472656 57.757812 13.316406 55.5 11.660156 L 42.445312 3.136719 C 40.1875 1.484375 37.410156 0.578125 34.507812 0.578125 L 2.691406 0.578125 C 1.695312 0.578125 0.777344 1.492188 0.777344 2.597656 L 0.777344 14.601562 C 0.777344 15.816406 1.695312 16.738281 2.691406 16.738281 L 3.738281 16.625 L 9.632812 21.496094 C 12.292969 23.644531 15.492188 24.703125 18.914062 24.703125 L 33.113281 24.703125 C 35.699219 24.703125 37.640625 22.621094 37.234375 20.09375 C 36.960938 18.871094 36.179688 17.832031 35.148438 17.21875 C 34.511719 16.839844 33.773438 16.625 33 16.625 L 25 16.625 C 24 16.625 22.972656 15.816406 22.972656 14.601562 C 22.972656 13.605469 24 12.582031 25 12.582031 L 38.375 12.582031 Z M 24.023438 45.015625 L 8.855469 33.882812 C 6.597656 32.226562 3.429688 32.707031 1.765625 34.953125 C 0.101562 37.203125 0.585938 40.359375 2.839844 42.011719 L 19.957031 54.574219 C 22.210938 56.226562 24.875 57.136719 27.777344 57.136719 L 63.652344 57.136719 C 64.753906 57.136719 65.679688 56.226562 65.679688 55.117188 L 65.679688 42.996094 C 65.679688 41.898438 64.753906 40.976562 63.652344 40.976562 L 60.683594 40.976562 L 54.789062 36.21875 C 52.128906 34.070312 48.820312 32.898438 45.398438 32.898438 L 29.171875 32.898438 C 26.699219 32.898438 24.761719 35.09375 25.164062 37.617188 C 25.363281 38.816406 26.132812 39.796875 27.152344 40.378906 C 27.820312 40.761719 28.597656 40.976562 29.398438 40.976562 L 39.3125 40.976562 C 40.429688 40.976562 41.339844 41.898438 41.339844 42.996094 C 41.339844 44.109375 40.429688 45.015625 39.3125 45.015625 Z M 43.109375 37.53125 C 44.84375 38.738281 45.976562 40.742188 45.976562 42.996094 C 45.976562 46.6875 42.96875 49.652344 39.3125 49.652344 L 22.503906 49.652344 L 6.113281 37.621094 C 6.113281 37.621094 6.117188 37.621094 6.113281 37.621094 C 5.914062 37.476562 5.636719 37.519531 5.492188 37.710938 C 5.359375 37.890625 5.394531 38.136719 5.582031 38.273438 L 22.695312 50.835938 M 43.109375 37.53125 L 45.398438 37.53125 C 47.753906 37.53125 50.039062 38.339844 51.878906 39.824219 C 51.878906 39.824219 51.878906 39.824219 51.882812 39.828125 L 59.046875 45.613281 L 61.042969 45.613281 L 61.042969 52.5 L 27.777344 52.5 C 25.882812 52.5 24.179688 51.921875 22.699219 50.835938 M 21.21875 20.066406 C 19.554688 18.933594 18.335938 17.042969 18.335938 14.601562 C 18.335938 12.5625 19.328125 10.941406 20.339844 9.933594 C 21.351562 8.925781 22.972656 7.949219 25 7.949219 L 39.746094 7.949219 L 52.125 15.976562 L 52.234375 16.054688 C 52.433594 16.199219 52.710938 16.152344 52.851562 15.964844 C 52.96875 15.800781 52.953125 15.582031 52.804688 15.4375 L 39.910156 7.019531 L 42.445312 3.136719 L 39.703125 6.878906 C 38.257812 5.820312 36.445312 5.214844 34.507812 5.214844 L 5.410156 5.214844 L 5.410156 11.992188 L 12.5625 17.902344 C 14.347656 19.335938 16.496094 20.066406 18.914062 20.066406 Z M 21.21875 20.066406 " fill-opacity="1" fill-rule="evenodd"/></g><g clip-path="url(#id2)"><path fill="#000000" d="M 41.476562 3.835938 L 41.863281 3.835938 C 42.40625 3.835938 42.929688 4.035156 43.3125 4.382812 C 43.695312 4.734375 43.910156 5.207031 43.910156 5.703125 C 43.910156 6.199219 43.695312 6.671875 43.3125 7.023438 C 42.929688 7.375 42.40625 7.570312 41.863281 7.570312 L 41.476562 7.570312 C 40.933594 7.570312 40.414062 7.375 40.03125 7.023438 C 39.644531 6.671875 39.429688 6.199219 39.429688 5.703125 C 39.429688 5.207031 39.644531 4.734375 40.03125 4.382812 C 40.414062 4.035156 40.933594 3.835938 41.476562 3.835938 " fill-opacity="1" fill-rule="nonzero"/></g></svg>