<svg width="55" height="56" viewBox="0 0 55 56" fill="none" xmlns="http://www.w3.org/2000/svg">
<path d="M27.4972 55.4165C13.6971 55.2346 2.55414 44.0916 2.37225 30.2915C2.55414 16.4914 13.6971 5.34836 27.4972 5.16647C41.2974 5.34836 52.4404 16.4914 52.6222 30.2915C52.4404 44.0916 41.2974 55.2346 27.4972 55.4165ZM27.4972 10.7498C16.7638 10.8911 8.09689 19.558 7.95559 30.2915C8.09689 41.025 16.7638 49.6918 27.4972 49.8331C38.2307 49.6918 46.8976 41.025 47.0389 30.2915C46.8976 19.558 38.2307 10.8911 27.4972 10.7498ZM41.4556 33.0831H24.7056V16.3331H30.2889V27.4998H41.4556V33.0831ZM50.6457 12.7263L42.2456 4.3513L46.1791 0.395508L54.582 8.77051L50.6457 12.7235V12.7263ZM4.34596 12.7263L0.395752 8.77051L8.74563 0.395508L12.6958 4.3513L4.35154 12.7263H4.34596Z" fill="white"/>
</svg>
