<svg width="30" height="30" viewBox="0 0 30 30" fill="none" xmlns="http://www.w3.org/2000/svg">
<path d="M15.0002 29.1668C7.17613 29.1668 0.833496 22.8242 0.833496 15.0002C0.833496 7.17613 7.17613 0.833496 15.0002 0.833496C22.8242 0.833496 29.1668 7.17613 29.1668 15.0002C29.1582 22.8206 22.8206 29.1582 15.0002 29.1668ZM15.0002 3.66683C8.74094 3.66683 3.66683 8.74094 3.66683 15.0002C3.66683 21.2594 8.74094 26.3335 15.0002 26.3335C21.2594 26.3335 26.3335 21.2594 26.3335 15.0002C26.3265 8.74385 21.2565 3.67386 15.0002 3.66683ZM14.9293 19.9585L7.91683 12.946L9.92 10.9428L14.9293 15.9507L19.9387 10.9428L21.9418 12.946L14.9293 19.9585Z" fill="white"/>
<path d="M15.0002 29.1668C7.17613 29.1668 0.833496 22.8242 0.833496 15.0002C0.833496 7.17613 7.17613 0.833496 15.0002 0.833496C22.8242 0.833496 29.1668 7.17613 29.1668 15.0002C29.1582 22.8206 22.8206 29.1582 15.0002 29.1668ZM15.0002 3.66683C8.74094 3.66683 3.66683 8.74094 3.66683 15.0002C3.66683 21.2594 8.74094 26.3335 15.0002 26.3335C21.2594 26.3335 26.3335 21.2594 26.3335 15.0002C26.3265 8.74385 21.2565 3.67386 15.0002 3.66683ZM14.9293 19.9585L7.91683 12.946L9.92 10.9428L14.9293 15.9507L19.9387 10.9428L21.9418 12.946L14.9293 19.9585Z" fill="url(#paint0_linear)"/>
<defs>
<linearGradient id="paint0_linear" x1="0.833496" y1="0.833496" x2="29.1668" y2="29.1668" gradientUnits="userSpaceOnUse">
<stop stop-color="#008FE5"/>
<stop offset="1" stop-color="#00C09E"/>
</linearGradient>
</defs>
</svg>
