<svg width="92" height="93" viewBox="0 0 92 93" fill="none" xmlns="http://www.w3.org/2000/svg">
<g filter="url(#filter0_d_10011_28815)">
<g clip-path="url(#clip0_10011_28815)">
<rect x="33.5" y="30.6287" width="26" height="32" rx="8" fill="white"/>
</g>
</g>
<path d="M8.50004 84.6286L12.91 64.7874C10.0058 59.3551 8.49077 53.2886 8.50004 47.1286C8.50004 26.4174 25.2888 9.62866 46 9.62866C66.7113 9.62866 83.5 26.4174 83.5 47.1286C83.5 67.8399 66.7113 84.6286 46 84.6286C39.8401 84.6379 33.7736 83.1229 28.3413 80.2186L8.50004 84.6286Z" fill="white"/>
<path d="M8.50004 84.6286L12.91 64.7874C10.0058 59.3551 8.49077 53.2886 8.50004 47.1286C8.50004 26.4174 25.2888 9.62866 46 9.62866C66.7113 9.62866 83.5 26.4174 83.5 47.1286C83.5 67.8399 66.7113 84.6286 46 84.6286C39.8401 84.6379 33.7736 83.1229 28.3413 80.2186L8.50004 84.6286Z" fill="#FA7C49"/>
<path fill-rule="evenodd" clip-rule="evenodd" d="M61.3798 41.6541C61.3798 41.6541 58.6467 32.8464 48.7271 31.3293C38.8075 29.8121 33.3532 37.3978 33.3532 37.3978C33.3532 37.3978 39.0398 32.3407 46.7524 35.6497C46.7524 35.6497 50.5719 37.3354 53.1069 41.6558L61.3798 41.6541ZM49.229 46.3152H61.3795C61.3795 46.3152 61.1745 54.7436 53.7165 56.9671C46.2584 59.1905 42.9821 54.9914 42.9821 54.9914C42.9821 54.9914 49.5929 58.0999 53.7763 51.5257L49.2034 51.5021L49.229 46.3152ZM32.1873 40.5225C40.368 31.499 49.0337 38.8014 49.0337 38.8014C49.0337 38.8014 41.9959 36.6555 38.5658 42.4779C35.1357 48.3003 39.6488 53.9406 39.6488 53.9406C45.1834 60.294 50.7778 58.9876 50.7778 58.9876C59.7425 58.2728 62.1493 49.8444 62.1493 49.8444C60.1644 60.4086 51.1997 62.4315 51.1997 62.4315C51.1997 62.4315 40.4892 66.054 33.3558 56.7911C26.2223 47.5282 32.1873 40.5225 32.1873 40.5225Z" fill="white"/>
<defs>
<filter id="filter0_d_10011_28815" x="-6.5" y="-5.37134" width="106" height="112" filterUnits="userSpaceOnUse" color-interpolation-filters="sRGB">
<feFlood flood-opacity="0" result="BackgroundImageFix"/>
<feColorMatrix in="SourceAlpha" type="matrix" values="0 0 0 0 0 0 0 0 0 0 0 0 0 0 0 0 0 0 127 0" result="hardAlpha"/>
<feOffset dy="4"/>
<feGaussianBlur stdDeviation="20"/>
<feColorMatrix type="matrix" values="0 0 0 0 0 0 0 0 0 0 0 0 0 0 0 0 0 0 0.16 0"/>
<feBlend mode="normal" in2="BackgroundImageFix" result="effect1_dropShadow_10011_28815"/>
<feBlend mode="normal" in="SourceGraphic" in2="effect1_dropShadow_10011_28815" result="shape"/>
</filter>
<clipPath id="clip0_10011_28815">
<rect x="33.5" y="30.6287" width="26" height="32" rx="8" fill="white"/>
</clipPath>
</defs>
</svg>
