<svg width="73" height="73" viewBox="0 0 73 73" fill="none" xmlns="http://www.w3.org/2000/svg">
<path d="M24.8211 53.9854L26.7816 55.0335C29.8198 56.6578 33.2128 57.5052 36.658 57.5L36.667 57.5C48.2654 57.5 57.667 48.0984 57.667 36.5C57.667 24.9016 48.2654 15.5 36.667 15.5C25.0686 15.5 15.667 24.9016 15.667 36.5V36.509C15.6618 39.9542 16.5092 43.3472 18.1335 46.3854L19.1816 48.3459L17.57 55.597L24.8211 53.9854ZM9.66702 63.5L12.8422 49.2143C10.7512 45.303 9.66035 40.9351 9.66702 36.5C9.66702 21.5879 21.7549 9.5 36.667 9.5C51.5791 9.5 63.667 21.5879 63.667 36.5C63.667 51.4121 51.5791 63.5 36.667 63.5C32.2319 63.5066 27.864 62.4158 23.9527 60.3248L9.66702 63.5Z" fill="white"/>
<path d="M24.8211 53.9854L26.7816 55.0335C29.8198 56.6578 33.2128 57.5052 36.658 57.5L36.667 57.5C48.2654 57.5 57.667 48.0984 57.667 36.5C57.667 24.9016 48.2654 15.5 36.667 15.5C25.0686 15.5 15.667 24.9016 15.667 36.5V36.509C15.6618 39.9542 16.5092 43.3472 18.1335 46.3854L19.1816 48.3459L17.57 55.597L24.8211 53.9854ZM9.66702 63.5L12.8422 49.2143C10.7512 45.303 9.66035 40.9351 9.66702 36.5C9.66702 21.5879 21.7549 9.5 36.667 9.5C51.5791 9.5 63.667 21.5879 63.667 36.5C63.667 51.4121 51.5791 63.5 36.667 63.5C32.2319 63.5066 27.864 62.4158 23.9527 60.3248L9.66702 63.5Z" fill="black" fill-opacity="0.4"/>
</svg>
