<svg width="60" height="60" viewBox="0 0 60 60" fill="none" xmlns="http://www.w3.org/2000/svg">
<g clip-path="url(#clip0_17691_143166)">
<path d="M7 37.5701L12.68 35.5101C13.71 35.1401 14.85 35.6701 15.23 36.7101L19.59 47.6101C19.97 48.6601 19.44 49.8301 18.39 50.2101L10.69 53.0001" stroke="white" stroke-width="3" stroke-miterlimit="10" stroke-linecap="round" stroke-linejoin="round"/>
<path d="M7 37.5701L12.68 35.5101C13.71 35.1401 14.85 35.6701 15.23 36.7101L19.59 47.6101C19.97 48.6601 19.44 49.8301 18.39 50.2101L10.69 53.0001" stroke="#008FE5" stroke-width="3" stroke-miterlimit="10" stroke-linecap="round" stroke-linejoin="round"/>
<path d="M22.72 48.2999L30.7 50.4199C32.47 50.8899 34.35 50.7499 36.03 50.0099L51.26 43.3699C52.82 42.6899 53.46 40.8199 52.63 39.3399C51.92 38.0499 50.34 37.5099 48.98 38.0699L41.27 40.8399" stroke="white" stroke-width="3" stroke-miterlimit="10" stroke-linecap="round"/>
<path d="M22.72 48.2999L30.7 50.4199C32.47 50.8899 34.35 50.7499 36.03 50.0099L51.26 43.3699C52.82 42.6899 53.46 40.8199 52.63 39.3399C51.92 38.0499 50.34 37.5099 48.98 38.0699L41.27 40.8399" stroke="#008FE5" stroke-width="3" stroke-miterlimit="10" stroke-linecap="round"/>
<path d="M18.36 35.52L19.08 35.15C21.63 33.83 24.62 33.64 27.31 34.65L36.32 38C37.96 38.61 38.82 40.4 38.27 42.05C37.7 43.75 35.86 44.66 34.15 44.1L28.14 42.11" stroke="white" stroke-width="3" stroke-miterlimit="10" stroke-linecap="round"/>
<path d="M18.36 35.52L19.08 35.15C21.63 33.83 24.62 33.64 27.31 34.65L36.32 38C37.96 38.61 38.82 40.4 38.27 42.05C37.7 43.75 35.86 44.66 34.15 44.1L28.14 42.11" stroke="#008FE5" stroke-width="3" stroke-miterlimit="10" stroke-linecap="round"/>
<path d="M22.32 30.9999C22.25 30.9099 22.18 30.8299 22.1 30.7599L17.76 26.4999C16.26 25.0299 17.09 22.4599 19.16 22.1599L25.15 21.2799C25.97 21.1599 26.68 20.6399 27.05 19.8899L29.73 14.4199C30.66 12.5299 33.33 12.5299 34.26 14.4199L36.94 19.8899C37.31 20.6399 38.02 21.1599 38.84 21.2799L44.83 22.1599C46.9 22.4599 47.73 25.0299 46.23 26.4999L41.89 30.7599C41.29 31.3399 41.02 32.1899 41.16 33.0099L41.85 36.9999" stroke="white" stroke-width="3" stroke-miterlimit="10" stroke-linecap="round" stroke-linejoin="round"/>
<path d="M22.32 30.9999C22.25 30.9099 22.18 30.8299 22.1 30.7599L17.76 26.4999C16.26 25.0299 17.09 22.4599 19.16 22.1599L25.15 21.2799C25.97 21.1599 26.68 20.6399 27.05 19.8899L29.73 14.4199C30.66 12.5299 33.33 12.5299 34.26 14.4199L36.94 19.8899C37.31 20.6399 38.02 21.1599 38.84 21.2799L44.83 22.1599C46.9 22.4599 47.73 25.0299 46.23 26.4999L41.89 30.7599C41.29 31.3399 41.02 32.1899 41.16 33.0099L41.85 36.9999" stroke="#008FE5" stroke-width="3" stroke-miterlimit="10" stroke-linecap="round" stroke-linejoin="round"/>
<path d="M32 7V9" stroke="white" stroke-width="3" stroke-miterlimit="10" stroke-linecap="round" stroke-linejoin="round"/>
<path d="M32 7V9" stroke="#008FE5" stroke-width="3" stroke-miterlimit="10" stroke-linecap="round" stroke-linejoin="round"/>
<path d="M46.85 13.15L45.44 14.56" stroke="white" stroke-width="3" stroke-miterlimit="10" stroke-linecap="round" stroke-linejoin="round"/>
<path d="M46.85 13.15L45.44 14.56" stroke="#008FE5" stroke-width="3" stroke-miterlimit="10" stroke-linecap="round" stroke-linejoin="round"/>
<path d="M53 28H51" stroke="white" stroke-width="3" stroke-miterlimit="10" stroke-linecap="round" stroke-linejoin="round"/>
<path d="M53 28H51" stroke="#008FE5" stroke-width="3" stroke-miterlimit="10" stroke-linecap="round" stroke-linejoin="round"/>
<path d="M11 28H13" stroke="white" stroke-width="3" stroke-miterlimit="10" stroke-linecap="round" stroke-linejoin="round"/>
<path d="M11 28H13" stroke="#008FE5" stroke-width="3" stroke-miterlimit="10" stroke-linecap="round" stroke-linejoin="round"/>
<path d="M17.15 13.15L18.56 14.56" stroke="white" stroke-width="3" stroke-miterlimit="10" stroke-linecap="round" stroke-linejoin="round"/>
<path d="M17.15 13.15L18.56 14.56" stroke="#008FE5" stroke-width="3" stroke-miterlimit="10" stroke-linecap="round" stroke-linejoin="round"/>
</g>
<defs>
<clipPath id="clip0_17691_143166">
<rect width="48" height="48" fill="white" transform="translate(6 6)"/>
</clipPath>
</defs>
</svg>
