<?xml version="1.0" encoding="UTF-8"?>
<svg xmlns="http://www.w3.org/2000/svg" xmlns:xlink="http://www.w3.org/1999/xlink" width="32pt" height="32pt" viewBox="0 0 32 32" version="1.1">
<g id="surface1">
<path style=" stroke:none;fill-rule:nonzero;fill:rgb(94.901961%,47.058824%,4.705882%);fill-opacity:1;" d="M 32 16 C 32 24.835938 24.835938 32 16 32 C 7.164062 32 0 24.835938 0 16 C 0 7.164062 7.164062 0 16 0 C 24.835938 0 32 7.164062 32 16 Z M 32 16 "/>
<path style=" stroke:none;fill-rule:nonzero;fill:rgb(94.509804%,94.901961%,94.901961%);fill-opacity:1;" d="M 23.199219 13.949219 L 22.300781 13.949219 C 21.75 13.949219 21.25 13.449219 21.199219 12.898438 C 21.199219 9.949219 18.800781 7.75 15.851562 7.75 L 13.148438 7.75 C 10.199219 7.75 7.800781 10.148438 7.800781 13.101562 L 7.800781 18.949219 C 7.800781 21.898438 10.199219 24.300781 13.148438 24.300781 L 18.949219 24.300781 C 21.898438 24.300781 24.300781 21.898438 24.300781 18.949219 L 24.300781 15.148438 C 24.25 14.550781 23.800781 13.949219 23.199219 13.949219 Z M 13.25 11.851562 L 16 11.851562 C 16.75 11.898438 17.351562 12.550781 17.300781 13.300781 C 17.25 14 16.699219 14.601562 16 14.601562 L 13.25 14.601562 C 12.5 14.648438 11.851562 14.050781 11.800781 13.300781 C 11.75 12.550781 12.351562 11.898438 13.101562 11.851562 C 13.148438 11.851562 13.199219 11.851562 13.25 11.851562 Z M 18.75 20.148438 L 13.25 20.148438 C 12.5 20.101562 11.898438 19.449219 11.949219 18.699219 C 12 18 12.550781 17.398438 13.25 17.398438 L 18.75 17.398438 C 19.5 17.351562 20.148438 17.949219 20.199219 18.699219 C 20.25 19.449219 19.648438 20.101562 18.898438 20.148438 C 18.851562 20.148438 18.800781 20.148438 18.75 20.148438 Z M 18.75 20.148438 "/>
</g>
</svg>
