<svg width="36" height="36" viewBox="0 0 36 36" fill="none" xmlns="http://www.w3.org/2000/svg">
<path fill-rule="evenodd" clip-rule="evenodd" d="M33.1701 21.3071C33.1701 21.3048 33.1725 21.3024 33.1749 21.2976C33.1773 21.288 33.1773 21.2784 33.1797 21.2664C33.2205 21.0696 33.2541 20.868 33.2877 20.6664C33.2973 20.6112 33.3093 20.556 33.3165 20.5007C33.4365 19.7232 33.5013 18.924 33.5013 18.1128C33.5013 17.3016 33.4389 16.5048 33.3165 15.7247C33.3093 15.6743 33.2973 15.6216 33.2901 15.5711C33.2565 15.3672 33.2205 15.1608 33.1797 14.9592C33.1773 14.9496 33.1749 14.94 33.1749 14.928C33.1749 14.9256 33.1725 14.9208 33.1701 14.9184C33.1557 14.8512 33.1389 14.7864 33.1245 14.7192C34.219 13.2504 34.8023 11.5128 34.8023 9.67195C34.7999 5.00155 30.9978 1.19995 26.3219 1.19995C24.4737 1.19995 22.6687 1.81675 21.1997 2.93275C21.1901 2.93035 21.1805 2.92795 21.1709 2.92555C21.1685 2.92555 21.1637 2.92315 21.1613 2.92075C21.1517 2.91835 21.1397 2.91595 21.1301 2.91595C20.926 2.87275 20.7172 2.83675 20.5084 2.80315C20.4604 2.79595 20.4148 2.78395 20.3668 2.77675C19.5866 2.65675 18.7897 2.59195 17.976 2.59195C17.1623 2.59195 16.3654 2.65435 15.5853 2.77675C15.5421 2.78395 15.4989 2.79355 15.4533 2.80075C15.2421 2.83435 15.0308 2.87275 14.822 2.91595C14.8124 2.91835 14.8004 2.91835 14.7908 2.92075C14.7884 2.92075 14.7884 2.92315 14.786 2.92315C13.3218 1.81435 11.5216 1.19995 9.67813 1.19995C5.0023 1.19995 1.2002 5.00155 1.2002 9.67675C1.2002 11.496 1.77147 13.2192 2.84201 14.6784C2.82281 14.76 2.80121 14.8416 2.78441 14.9232C2.78441 14.9256 2.78201 14.928 2.77961 14.9328C2.77721 14.9424 2.77481 14.9544 2.77481 14.964C2.7364 15.144 2.7076 15.3288 2.67639 15.5112C2.66439 15.5856 2.64759 15.6576 2.63799 15.732C2.51797 16.5096 2.45316 17.3064 2.45316 18.1175C2.45316 18.6576 2.48197 19.1928 2.53477 19.7184C2.53477 19.7232 2.53717 19.7304 2.53717 19.7352C2.56358 19.992 2.59718 20.2488 2.63559 20.5032C2.64759 20.58 2.66439 20.6544 2.67639 20.7311C2.7076 20.9111 2.7364 21.0912 2.77481 21.2712C2.77721 21.2808 2.77721 21.2928 2.77961 21.3024C2.77961 21.3048 2.78201 21.3096 2.78441 21.312C2.78921 21.336 2.79641 21.3575 2.80121 21.3815C1.75707 22.8239 1.2002 24.528 1.2002 26.3232C1.2002 30.996 5.0023 34.7999 9.67813 34.7999C11.4424 34.7999 13.1226 34.2623 14.5532 33.2495C14.63 33.2663 14.7068 33.2855 14.7836 33.3023C14.786 33.3023 14.7884 33.3047 14.7932 33.3072C14.8028 33.3096 14.8124 33.3096 14.822 33.312C15.0236 33.3528 15.2301 33.3887 15.4341 33.4223C15.4845 33.4296 15.5373 33.4415 15.5877 33.4487C16.3654 33.5687 17.1647 33.6335 17.976 33.6335C18.7873 33.6335 19.5842 33.5711 20.3644 33.4487C20.4196 33.4391 20.4748 33.4272 20.53 33.4199C20.7316 33.3863 20.9308 33.3528 21.1301 33.312C21.1397 33.3096 21.1493 33.3072 21.1613 33.3072C21.1637 33.3072 21.1685 33.3047 21.1709 33.3023C21.2597 33.2831 21.3485 33.2616 21.4373 33.2423C22.8727 34.2575 24.5553 34.7999 26.3243 34.7999C31.0002 34.7999 34.8023 30.996 34.8023 26.3232C34.8023 24.5064 34.2334 22.788 33.1653 21.3312C33.1653 21.3216 33.1677 21.3144 33.1701 21.3071ZM23.2855 31.608C23.0119 31.716 22.7335 31.8168 22.4502 31.9104C22.4262 31.9176 22.4046 31.9272 22.3806 31.9343C22.1118 32.0208 21.8405 32.0952 21.5669 32.1648V25.86C23.3936 25.0104 24.8722 23.532 25.7219 21.7056H32.0227C31.8859 22.236 31.7299 22.7616 31.5354 23.268C31.5354 23.2703 31.533 23.2728 31.533 23.2752C30.0977 27.024 27.1213 30.0552 23.4008 31.5648C23.3624 31.5768 23.3239 31.5912 23.2855 31.608ZM20.3596 32.4192C20.2515 32.436 20.1459 32.4527 20.0379 32.4695C19.9251 32.4863 19.8123 32.4984 19.6971 32.5128C19.5794 32.5272 19.4594 32.5415 19.3418 32.5536C19.2362 32.5632 19.1306 32.5704 19.025 32.5776C18.9002 32.5872 18.7753 32.5968 18.6505 32.6015C18.5425 32.6063 18.4345 32.6063 18.3265 32.6087C18.0984 32.6136 17.8704 32.6136 17.6424 32.6087C17.5296 32.6063 17.4192 32.6064 17.3063 32.5992C17.1863 32.5944 17.0639 32.5847 16.9415 32.5751C16.8311 32.5679 16.7207 32.5608 16.6103 32.5512C16.495 32.5392 16.3774 32.5272 16.2622 32.5128C16.1446 32.4984 16.0294 32.4839 15.9142 32.4671C15.8085 32.4527 15.7005 32.436 15.5949 32.4168C15.5325 32.4072 15.4677 32.3951 15.4053 32.3831V26.256C15.4125 26.2584 15.4221 26.2607 15.4293 26.2632C15.6069 26.3183 15.7869 26.3664 15.9694 26.412C16.015 26.4216 16.0582 26.4335 16.1038 26.4432C16.4902 26.5296 16.8863 26.5896 17.2895 26.6231C17.3135 26.6256 17.3375 26.628 17.3592 26.628C17.5632 26.6423 17.7696 26.652 17.976 26.652C18.1849 26.652 18.3889 26.6423 18.5929 26.628C18.6169 26.6255 18.6409 26.6231 18.6673 26.6231C19.0682 26.592 19.4618 26.532 19.8459 26.4456C19.8915 26.436 19.9395 26.424 19.9851 26.4144C20.1675 26.3712 20.3476 26.3232 20.5228 26.268C20.53 26.2656 20.5396 26.2631 20.5468 26.2607V32.3879C20.4844 32.3976 20.422 32.4072 20.3596 32.4192ZM12.5969 31.5792C8.87642 30.084 5.89522 27.0672 4.44543 23.3256L4.43343 23.2968C4.2342 22.7784 4.07098 22.2456 3.93176 21.7032H10.2326C11.0823 23.5296 12.5609 25.0079 14.3876 25.8575V32.16C13.8067 32.0112 13.2378 31.8312 12.6857 31.6128C12.6569 31.6032 12.6257 31.5912 12.5969 31.5792ZM4.16939 13.68C4.263 13.3848 4.36862 13.0968 4.48383 12.8112C4.49824 12.7752 4.51024 12.7416 4.52464 12.7056C6.03444 8.97115 9.07325 5.99035 12.8393 4.55755H12.8417C13.1562 4.43755 13.4754 4.32955 13.7995 4.23115C13.8019 4.23115 13.8043 4.22875 13.8067 4.22875C13.9987 4.17115 14.1955 4.12555 14.39 4.07515V10.3752C12.5633 11.2248 11.0847 12.7032 10.235 14.5296H3.92936C3.99897 14.256 4.07338 13.9848 4.15739 13.716C4.16219 13.7016 4.16459 13.6896 4.16939 13.68ZM15.5997 3.80875C15.7029 3.79195 15.8061 3.77515 15.9094 3.76075C16.0318 3.74395 16.1566 3.72715 16.279 3.71275C16.387 3.70075 16.495 3.68635 16.6007 3.67675C16.7255 3.66475 16.8503 3.65755 16.9775 3.64795C17.0831 3.64075 17.1887 3.63115 17.2943 3.62635C17.4528 3.61915 17.616 3.61675 17.7768 3.61435C17.9088 3.61195 18.0408 3.61195 18.1705 3.61435C18.3337 3.61675 18.4993 3.61915 18.6601 3.62635C18.7633 3.63115 18.8666 3.64075 18.9698 3.64555C19.097 3.65515 19.2266 3.66235 19.3538 3.67435C19.4594 3.68395 19.565 3.69595 19.6707 3.71035C19.7955 3.72475 19.9227 3.74155 20.0451 3.75835C20.1483 3.77275 20.2491 3.78955 20.3524 3.80635C20.4172 3.81595 20.482 3.82795 20.5468 3.83995V9.96715C20.5396 9.96475 20.53 9.96235 20.5228 9.95995C20.3451 9.90475 20.1651 9.85675 19.9827 9.81115C19.9371 9.79915 19.8939 9.78955 19.8483 9.77995C19.4618 9.69355 19.0658 9.63355 18.6625 9.59995C18.6409 9.59755 18.6193 9.59755 18.5953 9.59515C18.3889 9.58075 18.1825 9.57115 17.9736 9.57115C17.7648 9.57115 17.5584 9.58075 17.3544 9.59515C17.3327 9.59755 17.3111 9.59755 17.2895 9.59995C16.8863 9.63355 16.4878 9.69355 16.1014 9.77995C16.0558 9.78955 16.0126 9.79915 15.9694 9.81115C15.7869 9.85435 15.6069 9.90235 15.4269 9.95995C15.4197 9.96235 15.4101 9.96475 15.4029 9.96715V3.84475C15.4701 3.83275 15.5349 3.82075 15.5997 3.80875ZM23.1679 4.57435C26.9244 6.02155 29.9512 9.00955 31.449 12.7464C31.461 12.7776 31.473 12.8064 31.485 12.8376C31.7011 13.3848 31.8787 13.9488 32.0251 14.5248H25.7219C24.8722 12.6984 23.3936 11.22 21.5669 10.3704V4.07275C22.1022 4.20955 22.6303 4.36795 23.1391 4.56475C23.1487 4.56715 23.1583 4.57195 23.1679 4.57435ZM26.1275 20.6616C26.1803 20.4888 26.2283 20.3136 26.2715 20.136C26.2859 20.0808 26.2979 20.0256 26.3099 19.9704C26.3484 19.8024 26.3796 19.6343 26.4084 19.464C26.4132 19.4424 26.4156 19.4184 26.4204 19.3968C26.4468 19.2168 26.4684 19.0319 26.4828 18.8472C26.4876 18.7968 26.4924 18.7464 26.4948 18.6936C26.5068 18.5016 26.5164 18.3096 26.5164 18.1128C26.5164 17.9184 26.5068 17.724 26.4948 17.532C26.4924 17.4816 26.4876 17.4312 26.4828 17.3784C26.466 17.1936 26.4468 17.0088 26.4204 16.8264C26.418 16.8048 26.4132 16.7856 26.4108 16.764C26.3844 16.5912 26.3508 16.4208 26.3123 16.2528C26.3003 16.1976 26.2883 16.1448 26.2739 16.0896C26.2307 15.912 26.1827 15.7368 26.1299 15.564C26.1275 15.5568 26.1251 15.5472 26.1227 15.54H32.2507C32.2627 15.6048 32.2747 15.6672 32.2843 15.732C32.3011 15.8376 32.3179 15.9408 32.3323 16.0464C32.3492 16.1664 32.3636 16.2888 32.378 16.4111C32.39 16.5191 32.4044 16.6248 32.414 16.7328C32.426 16.8696 32.4356 17.0064 32.4452 17.1432C32.4524 17.2344 32.4596 17.3256 32.4644 17.4167C32.4764 17.6472 32.4812 17.8776 32.4812 18.1103C32.4812 18.3432 32.474 18.5736 32.4644 18.804C32.4596 18.8952 32.4524 18.9864 32.4452 19.0752C32.4356 19.2144 32.426 19.3512 32.414 19.4879C32.4044 19.5935 32.39 19.7015 32.378 19.8071C32.3636 19.9296 32.3492 20.052 32.33 20.1744C32.3155 20.28 32.2987 20.3832 32.2819 20.4888C32.2723 20.5536 32.2603 20.6159 32.2483 20.6807H26.1203C26.1227 20.676 26.1251 20.6688 26.1275 20.6616ZM25.4626 18.8256C25.4602 18.84 25.4602 18.8544 25.4602 18.8688C25.4386 19.0944 25.4026 19.3152 25.3618 19.536C25.357 19.56 25.3546 19.584 25.3498 19.608C25.3066 19.8239 25.2514 20.0352 25.189 20.2464C25.1818 20.2728 25.1746 20.2992 25.1674 20.3256C25.1026 20.532 25.0282 20.7383 24.9466 20.94C24.1833 22.8144 22.6855 24.312 20.8108 25.0776C20.602 25.1616 20.3932 25.2383 20.1795 25.3032C20.1675 25.308 20.1555 25.3104 20.1435 25.3128C18.7393 25.7328 17.2223 25.7328 15.8181 25.3128C15.8061 25.3104 15.7965 25.308 15.7845 25.3032C15.5709 25.2383 15.3597 25.1616 15.1533 25.0776C13.2786 24.3144 11.7784 22.8144 11.0151 20.94C10.9335 20.736 10.8591 20.532 10.7943 20.3256C10.7871 20.2992 10.7799 20.2728 10.7727 20.2464C10.7103 20.0352 10.6551 19.8239 10.6119 19.608C10.6071 19.584 10.6047 19.56 10.5998 19.536C10.5566 19.3152 10.523 19.092 10.5014 18.8688C10.5014 18.8544 10.499 18.84 10.499 18.8256C10.4774 18.5904 10.463 18.3528 10.463 18.1128C10.463 17.8728 10.475 17.6352 10.499 17.4C10.5014 17.3856 10.5014 17.3712 10.5014 17.3592C10.523 17.1336 10.559 16.9104 10.5998 16.6896C10.6047 16.6656 10.6071 16.6416 10.6119 16.62C10.6551 16.404 10.7103 16.1927 10.7727 15.9816C10.7799 15.9551 10.7871 15.9288 10.7943 15.9024C10.8591 15.696 10.9335 15.492 11.0151 15.288C11.7784 13.4136 13.2786 11.9136 15.1533 11.148C15.3621 11.064 15.5709 10.9872 15.7845 10.9224C15.7965 10.92 15.8061 10.9176 15.8181 10.9128C17.2247 10.4928 18.7417 10.4928 20.1459 10.9128C20.1579 10.9152 20.1675 10.9176 20.1795 10.9224C20.3932 10.9872 20.6044 11.064 20.8132 11.148C22.6879 11.9112 24.1857 13.4112 24.949 15.2856C25.0306 15.4872 25.105 15.6912 25.1698 15.9C25.177 15.9264 25.1842 15.9528 25.1914 15.9792C25.2538 16.1904 25.309 16.4016 25.3522 16.6175C25.357 16.6416 25.3594 16.6656 25.3642 16.6872C25.4074 16.908 25.441 17.1312 25.4626 17.3568C25.465 17.3712 25.465 17.3855 25.465 17.3976C25.4866 17.6327 25.501 17.8703 25.501 18.1103C25.4962 18.3552 25.4842 18.5904 25.4626 18.8256ZM9.68293 16.0943C9.67093 16.1472 9.65652 16.2024 9.64452 16.2576C9.60612 16.4256 9.57251 16.596 9.54611 16.7688C9.54371 16.7904 9.53891 16.8096 9.53651 16.8312C9.5101 17.0135 9.4885 17.196 9.4741 17.3832C9.4693 17.4336 9.4669 17.484 9.4621 17.5368C9.4477 17.7288 9.4405 17.9232 9.4405 18.1175C9.4405 18.312 9.4501 18.5064 9.4621 18.6984C9.4645 18.7488 9.4693 18.8016 9.4741 18.852C9.4909 19.0368 9.5101 19.2192 9.53651 19.4016C9.53891 19.4231 9.54371 19.4472 9.54851 19.4688C9.57491 19.6392 9.60852 19.8096 9.64692 19.9752C9.65892 20.0304 9.67093 20.0856 9.68533 20.1384C9.72853 20.316 9.77654 20.4911 9.82935 20.6639C9.83175 20.6712 9.83415 20.6807 9.83655 20.688H3.70613C3.69413 20.6231 3.68213 20.5584 3.67013 20.4936C3.65332 20.3927 3.63652 20.292 3.62212 20.1888C3.60292 20.0616 3.58851 19.932 3.57171 19.8024C3.55971 19.7016 3.54771 19.6007 3.53811 19.5C3.52371 19.356 3.5141 19.212 3.5045 19.0679C3.4997 18.9816 3.4901 18.8951 3.4877 18.8111C3.4757 18.5807 3.4709 18.348 3.4709 18.1152C3.4709 17.8824 3.4781 17.6496 3.4877 17.4192C3.4925 17.3328 3.4997 17.2464 3.5045 17.16C3.5141 17.016 3.52371 16.872 3.53811 16.7304C3.54771 16.6296 3.55971 16.5288 3.57171 16.4279C3.58611 16.2984 3.60292 16.1712 3.61972 16.044C3.63412 15.9432 3.65092 15.84 3.66772 15.7392C3.67973 15.6744 3.69173 15.6096 3.70373 15.5448H9.83175C9.82935 15.552 9.82695 15.5616 9.82455 15.5688C9.77414 15.7416 9.72613 15.9167 9.68293 16.0943ZM26.3219 2.21755C30.4361 2.21755 33.7821 5.56315 33.7821 9.67675C33.7821 11.0136 33.4365 12.2904 32.774 13.4232C32.6828 13.1328 32.5796 12.8472 32.4716 12.564C32.4596 12.5352 32.4476 12.5064 32.438 12.4752C32.3323 12.2064 32.2219 11.9424 32.1019 11.6832C32.0947 11.6688 32.0899 11.6568 32.0851 11.6424C30.5081 8.21995 27.7237 5.46715 24.2793 3.93355C24.2769 3.93355 24.2745 3.93115 24.2745 3.93115C23.7032 3.67675 23.1127 3.45355 22.5078 3.26875C23.6528 2.57755 24.9538 2.21755 26.3219 2.21755ZM3.19726 13.3704C2.55398 12.2496 2.21793 10.992 2.21793 9.67435C2.21793 5.56075 5.56398 2.21515 9.67813 2.21515C11.0391 2.21515 12.3377 2.57275 13.4826 3.25675C9.22927 4.54555 5.7464 7.61515 3.89575 11.592C3.88855 11.6088 3.87895 11.628 3.87175 11.6472C3.75654 11.8968 3.64852 12.1488 3.54771 12.4056C3.53091 12.4488 3.5117 12.4944 3.4949 12.5376C3.39649 12.7944 3.30288 13.0536 3.21646 13.3176C3.20926 13.3368 3.20206 13.3536 3.19726 13.3704ZM13.221 32.8895C12.1385 33.4751 10.9311 33.7823 9.67573 33.7823C5.56158 33.7823 2.21553 30.4368 2.21553 26.3232C2.21553 25.0416 2.53477 23.8127 3.14685 22.7136C4.45503 26.9256 7.51784 30.372 11.4736 32.2056C11.476 32.2056 11.4784 32.208 11.4808 32.208C11.7424 32.3279 12.0088 32.4431 12.2777 32.5487C12.3137 32.5631 12.3497 32.5776 12.3857 32.592C12.6449 32.6928 12.9066 32.7864 13.1706 32.8728C13.1898 32.8776 13.2066 32.8823 13.221 32.8895ZM33.7821 26.3232C33.7821 30.4368 30.4361 33.7823 26.3219 33.7823C25.0618 33.7823 23.8472 33.4728 22.7623 32.8799C22.7935 32.8703 22.8247 32.856 22.8559 32.8463C23.0983 32.7648 23.3384 32.6784 23.576 32.5872C23.624 32.5679 23.672 32.5512 23.72 32.532C23.9816 32.4264 24.2385 32.316 24.4929 32.1984C24.5001 32.1936 24.5073 32.1911 24.5145 32.1887C28.4702 30.3455 31.5258 26.8848 32.822 22.6584C33.4533 23.7696 33.7821 25.02 33.7821 26.3232Z" fill="white"/>
<path fill-rule="evenodd" clip-rule="evenodd" d="M33.1701 21.3071C33.1701 21.3048 33.1725 21.3024 33.1749 21.2976C33.1773 21.288 33.1773 21.2784 33.1797 21.2664C33.2205 21.0696 33.2541 20.868 33.2877 20.6664C33.2973 20.6112 33.3093 20.556 33.3165 20.5007C33.4365 19.7232 33.5013 18.924 33.5013 18.1128C33.5013 17.3016 33.4389 16.5048 33.3165 15.7247C33.3093 15.6743 33.2973 15.6216 33.2901 15.5711C33.2565 15.3672 33.2205 15.1608 33.1797 14.9592C33.1773 14.9496 33.1749 14.94 33.1749 14.928C33.1749 14.9256 33.1725 14.9208 33.1701 14.9184C33.1557 14.8512 33.1389 14.7864 33.1245 14.7192C34.219 13.2504 34.8023 11.5128 34.8023 9.67195C34.7999 5.00155 30.9978 1.19995 26.3219 1.19995C24.4737 1.19995 22.6687 1.81675 21.1997 2.93275C21.1901 2.93035 21.1805 2.92795 21.1709 2.92555C21.1685 2.92555 21.1637 2.92315 21.1613 2.92075C21.1517 2.91835 21.1397 2.91595 21.1301 2.91595C20.926 2.87275 20.7172 2.83675 20.5084 2.80315C20.4604 2.79595 20.4148 2.78395 20.3668 2.77675C19.5866 2.65675 18.7897 2.59195 17.976 2.59195C17.1623 2.59195 16.3654 2.65435 15.5853 2.77675C15.5421 2.78395 15.4989 2.79355 15.4533 2.80075C15.2421 2.83435 15.0308 2.87275 14.822 2.91595C14.8124 2.91835 14.8004 2.91835 14.7908 2.92075C14.7884 2.92075 14.7884 2.92315 14.786 2.92315C13.3218 1.81435 11.5216 1.19995 9.67813 1.19995C5.0023 1.19995 1.2002 5.00155 1.2002 9.67675C1.2002 11.496 1.77147 13.2192 2.84201 14.6784C2.82281 14.76 2.80121 14.8416 2.78441 14.9232C2.78441 14.9256 2.78201 14.928 2.77961 14.9328C2.77721 14.9424 2.77481 14.9544 2.77481 14.964C2.7364 15.144 2.7076 15.3288 2.67639 15.5112C2.66439 15.5856 2.64759 15.6576 2.63799 15.732C2.51797 16.5096 2.45316 17.3064 2.45316 18.1175C2.45316 18.6576 2.48197 19.1928 2.53477 19.7184C2.53477 19.7232 2.53717 19.7304 2.53717 19.7352C2.56358 19.992 2.59718 20.2488 2.63559 20.5032C2.64759 20.58 2.66439 20.6544 2.67639 20.7311C2.7076 20.9111 2.7364 21.0912 2.77481 21.2712C2.77721 21.2808 2.77721 21.2928 2.77961 21.3024C2.77961 21.3048 2.78201 21.3096 2.78441 21.312C2.78921 21.336 2.79641 21.3575 2.80121 21.3815C1.75707 22.8239 1.2002 24.528 1.2002 26.3232C1.2002 30.996 5.0023 34.7999 9.67813 34.7999C11.4424 34.7999 13.1226 34.2623 14.5532 33.2495C14.63 33.2663 14.7068 33.2855 14.7836 33.3023C14.786 33.3023 14.7884 33.3047 14.7932 33.3072C14.8028 33.3096 14.8124 33.3096 14.822 33.312C15.0236 33.3528 15.2301 33.3887 15.4341 33.4223C15.4845 33.4296 15.5373 33.4415 15.5877 33.4487C16.3654 33.5687 17.1647 33.6335 17.976 33.6335C18.7873 33.6335 19.5842 33.5711 20.3644 33.4487C20.4196 33.4391 20.4748 33.4272 20.53 33.4199C20.7316 33.3863 20.9308 33.3528 21.1301 33.312C21.1397 33.3096 21.1493 33.3072 21.1613 33.3072C21.1637 33.3072 21.1685 33.3047 21.1709 33.3023C21.2597 33.2831 21.3485 33.2616 21.4373 33.2423C22.8727 34.2575 24.5553 34.7999 26.3243 34.7999C31.0002 34.7999 34.8023 30.996 34.8023 26.3232C34.8023 24.5064 34.2334 22.788 33.1653 21.3312C33.1653 21.3216 33.1677 21.3144 33.1701 21.3071ZM23.2855 31.608C23.0119 31.716 22.7335 31.8168 22.4502 31.9104C22.4262 31.9176 22.4046 31.9272 22.3806 31.9343C22.1118 32.0208 21.8405 32.0952 21.5669 32.1648V25.86C23.3936 25.0104 24.8722 23.532 25.7219 21.7056H32.0227C31.8859 22.236 31.7299 22.7616 31.5354 23.268C31.5354 23.2703 31.533 23.2728 31.533 23.2752C30.0977 27.024 27.1213 30.0552 23.4008 31.5648C23.3624 31.5768 23.3239 31.5912 23.2855 31.608ZM20.3596 32.4192C20.2515 32.436 20.1459 32.4527 20.0379 32.4695C19.9251 32.4863 19.8123 32.4984 19.6971 32.5128C19.5794 32.5272 19.4594 32.5415 19.3418 32.5536C19.2362 32.5632 19.1306 32.5704 19.025 32.5776C18.9002 32.5872 18.7753 32.5968 18.6505 32.6015C18.5425 32.6063 18.4345 32.6063 18.3265 32.6087C18.0984 32.6136 17.8704 32.6136 17.6424 32.6087C17.5296 32.6063 17.4192 32.6064 17.3063 32.5992C17.1863 32.5944 17.0639 32.5847 16.9415 32.5751C16.8311 32.5679 16.7207 32.5608 16.6103 32.5512C16.495 32.5392 16.3774 32.5272 16.2622 32.5128C16.1446 32.4984 16.0294 32.4839 15.9142 32.4671C15.8085 32.4527 15.7005 32.436 15.5949 32.4168C15.5325 32.4072 15.4677 32.3951 15.4053 32.3831V26.256C15.4125 26.2584 15.4221 26.2607 15.4293 26.2632C15.6069 26.3183 15.7869 26.3664 15.9694 26.412C16.015 26.4216 16.0582 26.4335 16.1038 26.4432C16.4902 26.5296 16.8863 26.5896 17.2895 26.6231C17.3135 26.6256 17.3375 26.628 17.3592 26.628C17.5632 26.6423 17.7696 26.652 17.976 26.652C18.1849 26.652 18.3889 26.6423 18.5929 26.628C18.6169 26.6255 18.6409 26.6231 18.6673 26.6231C19.0682 26.592 19.4618 26.532 19.8459 26.4456C19.8915 26.436 19.9395 26.424 19.9851 26.4144C20.1675 26.3712 20.3476 26.3232 20.5228 26.268C20.53 26.2656 20.5396 26.2631 20.5468 26.2607V32.3879C20.4844 32.3976 20.422 32.4072 20.3596 32.4192ZM12.5969 31.5792C8.87642 30.084 5.89522 27.0672 4.44543 23.3256L4.43343 23.2968C4.2342 22.7784 4.07098 22.2456 3.93176 21.7032H10.2326C11.0823 23.5296 12.5609 25.0079 14.3876 25.8575V32.16C13.8067 32.0112 13.2378 31.8312 12.6857 31.6128C12.6569 31.6032 12.6257 31.5912 12.5969 31.5792ZM4.16939 13.68C4.263 13.3848 4.36862 13.0968 4.48383 12.8112C4.49824 12.7752 4.51024 12.7416 4.52464 12.7056C6.03444 8.97115 9.07325 5.99035 12.8393 4.55755H12.8417C13.1562 4.43755 13.4754 4.32955 13.7995 4.23115C13.8019 4.23115 13.8043 4.22875 13.8067 4.22875C13.9987 4.17115 14.1955 4.12555 14.39 4.07515V10.3752C12.5633 11.2248 11.0847 12.7032 10.235 14.5296H3.92936C3.99897 14.256 4.07338 13.9848 4.15739 13.716C4.16219 13.7016 4.16459 13.6896 4.16939 13.68ZM15.5997 3.80875C15.7029 3.79195 15.8061 3.77515 15.9094 3.76075C16.0318 3.74395 16.1566 3.72715 16.279 3.71275C16.387 3.70075 16.495 3.68635 16.6007 3.67675C16.7255 3.66475 16.8503 3.65755 16.9775 3.64795C17.0831 3.64075 17.1887 3.63115 17.2943 3.62635C17.4528 3.61915 17.616 3.61675 17.7768 3.61435C17.9088 3.61195 18.0408 3.61195 18.1705 3.61435C18.3337 3.61675 18.4993 3.61915 18.6601 3.62635C18.7633 3.63115 18.8666 3.64075 18.9698 3.64555C19.097 3.65515 19.2266 3.66235 19.3538 3.67435C19.4594 3.68395 19.565 3.69595 19.6707 3.71035C19.7955 3.72475 19.9227 3.74155 20.0451 3.75835C20.1483 3.77275 20.2491 3.78955 20.3524 3.80635C20.4172 3.81595 20.482 3.82795 20.5468 3.83995V9.96715C20.5396 9.96475 20.53 9.96235 20.5228 9.95995C20.3451 9.90475 20.1651 9.85675 19.9827 9.81115C19.9371 9.79915 19.8939 9.78955 19.8483 9.77995C19.4618 9.69355 19.0658 9.63355 18.6625 9.59995C18.6409 9.59755 18.6193 9.59755 18.5953 9.59515C18.3889 9.58075 18.1825 9.57115 17.9736 9.57115C17.7648 9.57115 17.5584 9.58075 17.3544 9.59515C17.3327 9.59755 17.3111 9.59755 17.2895 9.59995C16.8863 9.63355 16.4878 9.69355 16.1014 9.77995C16.0558 9.78955 16.0126 9.79915 15.9694 9.81115C15.7869 9.85435 15.6069 9.90235 15.4269 9.95995C15.4197 9.96235 15.4101 9.96475 15.4029 9.96715V3.84475C15.4701 3.83275 15.5349 3.82075 15.5997 3.80875ZM23.1679 4.57435C26.9244 6.02155 29.9512 9.00955 31.449 12.7464C31.461 12.7776 31.473 12.8064 31.485 12.8376C31.7011 13.3848 31.8787 13.9488 32.0251 14.5248H25.7219C24.8722 12.6984 23.3936 11.22 21.5669 10.3704V4.07275C22.1022 4.20955 22.6303 4.36795 23.1391 4.56475C23.1487 4.56715 23.1583 4.57195 23.1679 4.57435ZM26.1275 20.6616C26.1803 20.4888 26.2283 20.3136 26.2715 20.136C26.2859 20.0808 26.2979 20.0256 26.3099 19.9704C26.3484 19.8024 26.3796 19.6343 26.4084 19.464C26.4132 19.4424 26.4156 19.4184 26.4204 19.3968C26.4468 19.2168 26.4684 19.0319 26.4828 18.8472C26.4876 18.7968 26.4924 18.7464 26.4948 18.6936C26.5068 18.5016 26.5164 18.3096 26.5164 18.1128C26.5164 17.9184 26.5068 17.724 26.4948 17.532C26.4924 17.4816 26.4876 17.4312 26.4828 17.3784C26.466 17.1936 26.4468 17.0088 26.4204 16.8264C26.418 16.8048 26.4132 16.7856 26.4108 16.764C26.3844 16.5912 26.3508 16.4208 26.3123 16.2528C26.3003 16.1976 26.2883 16.1448 26.2739 16.0896C26.2307 15.912 26.1827 15.7368 26.1299 15.564C26.1275 15.5568 26.1251 15.5472 26.1227 15.54H32.2507C32.2627 15.6048 32.2747 15.6672 32.2843 15.732C32.3011 15.8376 32.3179 15.9408 32.3323 16.0464C32.3492 16.1664 32.3636 16.2888 32.378 16.4111C32.39 16.5191 32.4044 16.6248 32.414 16.7328C32.426 16.8696 32.4356 17.0064 32.4452 17.1432C32.4524 17.2344 32.4596 17.3256 32.4644 17.4167C32.4764 17.6472 32.4812 17.8776 32.4812 18.1103C32.4812 18.3432 32.474 18.5736 32.4644 18.804C32.4596 18.8952 32.4524 18.9864 32.4452 19.0752C32.4356 19.2144 32.426 19.3512 32.414 19.4879C32.4044 19.5935 32.39 19.7015 32.378 19.8071C32.3636 19.9296 32.3492 20.052 32.33 20.1744C32.3155 20.28 32.2987 20.3832 32.2819 20.4888C32.2723 20.5536 32.2603 20.6159 32.2483 20.6807H26.1203C26.1227 20.676 26.1251 20.6688 26.1275 20.6616ZM25.4626 18.8256C25.4602 18.84 25.4602 18.8544 25.4602 18.8688C25.4386 19.0944 25.4026 19.3152 25.3618 19.536C25.357 19.56 25.3546 19.584 25.3498 19.608C25.3066 19.8239 25.2514 20.0352 25.189 20.2464C25.1818 20.2728 25.1746 20.2992 25.1674 20.3256C25.1026 20.532 25.0282 20.7383 24.9466 20.94C24.1833 22.8144 22.6855 24.312 20.8108 25.0776C20.602 25.1616 20.3932 25.2383 20.1795 25.3032C20.1675 25.308 20.1555 25.3104 20.1435 25.3128C18.7393 25.7328 17.2223 25.7328 15.8181 25.3128C15.8061 25.3104 15.7965 25.308 15.7845 25.3032C15.5709 25.2383 15.3597 25.1616 15.1533 25.0776C13.2786 24.3144 11.7784 22.8144 11.0151 20.94C10.9335 20.736 10.8591 20.532 10.7943 20.3256C10.7871 20.2992 10.7799 20.2728 10.7727 20.2464C10.7103 20.0352 10.6551 19.8239 10.6119 19.608C10.6071 19.584 10.6047 19.56 10.5998 19.536C10.5566 19.3152 10.523 19.092 10.5014 18.8688C10.5014 18.8544 10.499 18.84 10.499 18.8256C10.4774 18.5904 10.463 18.3528 10.463 18.1128C10.463 17.8728 10.475 17.6352 10.499 17.4C10.5014 17.3856 10.5014 17.3712 10.5014 17.3592C10.523 17.1336 10.559 16.9104 10.5998 16.6896C10.6047 16.6656 10.6071 16.6416 10.6119 16.62C10.6551 16.404 10.7103 16.1927 10.7727 15.9816C10.7799 15.9551 10.7871 15.9288 10.7943 15.9024C10.8591 15.696 10.9335 15.492 11.0151 15.288C11.7784 13.4136 13.2786 11.9136 15.1533 11.148C15.3621 11.064 15.5709 10.9872 15.7845 10.9224C15.7965 10.92 15.8061 10.9176 15.8181 10.9128C17.2247 10.4928 18.7417 10.4928 20.1459 10.9128C20.1579 10.9152 20.1675 10.9176 20.1795 10.9224C20.3932 10.9872 20.6044 11.064 20.8132 11.148C22.6879 11.9112 24.1857 13.4112 24.949 15.2856C25.0306 15.4872 25.105 15.6912 25.1698 15.9C25.177 15.9264 25.1842 15.9528 25.1914 15.9792C25.2538 16.1904 25.309 16.4016 25.3522 16.6175C25.357 16.6416 25.3594 16.6656 25.3642 16.6872C25.4074 16.908 25.441 17.1312 25.4626 17.3568C25.465 17.3712 25.465 17.3855 25.465 17.3976C25.4866 17.6327 25.501 17.8703 25.501 18.1103C25.4962 18.3552 25.4842 18.5904 25.4626 18.8256ZM9.68293 16.0943C9.67093 16.1472 9.65652 16.2024 9.64452 16.2576C9.60612 16.4256 9.57251 16.596 9.54611 16.7688C9.54371 16.7904 9.53891 16.8096 9.53651 16.8312C9.5101 17.0135 9.4885 17.196 9.4741 17.3832C9.4693 17.4336 9.4669 17.484 9.4621 17.5368C9.4477 17.7288 9.4405 17.9232 9.4405 18.1175C9.4405 18.312 9.4501 18.5064 9.4621 18.6984C9.4645 18.7488 9.4693 18.8016 9.4741 18.852C9.4909 19.0368 9.5101 19.2192 9.53651 19.4016C9.53891 19.4231 9.54371 19.4472 9.54851 19.4688C9.57491 19.6392 9.60852 19.8096 9.64692 19.9752C9.65892 20.0304 9.67093 20.0856 9.68533 20.1384C9.72853 20.316 9.77654 20.4911 9.82935 20.6639C9.83175 20.6712 9.83415 20.6807 9.83655 20.688H3.70613C3.69413 20.6231 3.68213 20.5584 3.67013 20.4936C3.65332 20.3927 3.63652 20.292 3.62212 20.1888C3.60292 20.0616 3.58851 19.932 3.57171 19.8024C3.55971 19.7016 3.54771 19.6007 3.53811 19.5C3.52371 19.356 3.5141 19.212 3.5045 19.0679C3.4997 18.9816 3.4901 18.8951 3.4877 18.8111C3.4757 18.5807 3.4709 18.348 3.4709 18.1152C3.4709 17.8824 3.4781 17.6496 3.4877 17.4192C3.4925 17.3328 3.4997 17.2464 3.5045 17.16C3.5141 17.016 3.52371 16.872 3.53811 16.7304C3.54771 16.6296 3.55971 16.5288 3.57171 16.4279C3.58611 16.2984 3.60292 16.1712 3.61972 16.044C3.63412 15.9432 3.65092 15.84 3.66772 15.7392C3.67973 15.6744 3.69173 15.6096 3.70373 15.5448H9.83175C9.82935 15.552 9.82695 15.5616 9.82455 15.5688C9.77414 15.7416 9.72613 15.9167 9.68293 16.0943ZM26.3219 2.21755C30.4361 2.21755 33.7821 5.56315 33.7821 9.67675C33.7821 11.0136 33.4365 12.2904 32.774 13.4232C32.6828 13.1328 32.5796 12.8472 32.4716 12.564C32.4596 12.5352 32.4476 12.5064 32.438 12.4752C32.3323 12.2064 32.2219 11.9424 32.1019 11.6832C32.0947 11.6688 32.0899 11.6568 32.0851 11.6424C30.5081 8.21995 27.7237 5.46715 24.2793 3.93355C24.2769 3.93355 24.2745 3.93115 24.2745 3.93115C23.7032 3.67675 23.1127 3.45355 22.5078 3.26875C23.6528 2.57755 24.9538 2.21755 26.3219 2.21755ZM3.19726 13.3704C2.55398 12.2496 2.21793 10.992 2.21793 9.67435C2.21793 5.56075 5.56398 2.21515 9.67813 2.21515C11.0391 2.21515 12.3377 2.57275 13.4826 3.25675C9.22927 4.54555 5.7464 7.61515 3.89575 11.592C3.88855 11.6088 3.87895 11.628 3.87175 11.6472C3.75654 11.8968 3.64852 12.1488 3.54771 12.4056C3.53091 12.4488 3.5117 12.4944 3.4949 12.5376C3.39649 12.7944 3.30288 13.0536 3.21646 13.3176C3.20926 13.3368 3.20206 13.3536 3.19726 13.3704ZM13.221 32.8895C12.1385 33.4751 10.9311 33.7823 9.67573 33.7823C5.56158 33.7823 2.21553 30.4368 2.21553 26.3232C2.21553 25.0416 2.53477 23.8127 3.14685 22.7136C4.45503 26.9256 7.51784 30.372 11.4736 32.2056C11.476 32.2056 11.4784 32.208 11.4808 32.208C11.7424 32.3279 12.0088 32.4431 12.2777 32.5487C12.3137 32.5631 12.3497 32.5776 12.3857 32.592C12.6449 32.6928 12.9066 32.7864 13.1706 32.8728C13.1898 32.8776 13.2066 32.8823 13.221 32.8895ZM33.7821 26.3232C33.7821 30.4368 30.4361 33.7823 26.3219 33.7823C25.0618 33.7823 23.8472 33.4728 22.7623 32.8799C22.7935 32.8703 22.8247 32.856 22.8559 32.8463C23.0983 32.7648 23.3384 32.6784 23.576 32.5872C23.624 32.5679 23.672 32.5512 23.72 32.532C23.9816 32.4264 24.2385 32.316 24.4929 32.1984C24.5001 32.1936 24.5073 32.1911 24.5145 32.1887C28.4702 30.3455 31.5258 26.8848 32.822 22.6584C33.4533 23.7696 33.7821 25.02 33.7821 26.3232Z" fill="#FA7C49"/>
</svg>
