<svg width="1164" height="492" viewBox="0 0 1164 492" fill="none" xmlns="http://www.w3.org/2000/svg">
<path fill-rule="evenodd" clip-rule="evenodd" d="M792 4C775.431 4 762 17.4315 762 34V458C762 474.569 775.431 488 792 488H1109L1160 254.067L1109 4H792Z" fill="#008FE5"/>
<path d="M1109 488V491.5H1111.82L1112.42 488.746L1109 488ZM1160 254.067L1163.42 254.812L1163.58 254.091L1163.43 253.367L1160 254.067ZM1109 4L1112.43 3.30059L1111.86 0.5H1109V4ZM765.5 34C765.5 19.3645 777.364 7.5 792 7.5V0.5C773.498 0.5 758.5 15.4985 758.5 34H765.5ZM765.5 458V34H758.5V458H765.5ZM792 484.5C777.364 484.5 765.5 472.636 765.5 458H758.5C758.5 476.502 773.498 491.5 792 491.5V484.5ZM1109 484.5H792V491.5H1109V484.5ZM1112.42 488.746L1163.42 254.812L1156.58 253.321L1105.58 487.254L1112.42 488.746ZM1163.43 253.367L1112.43 3.30059L1105.57 4.69941L1156.57 254.766L1163.43 253.367ZM792 7.5H1109V0.5H792V7.5Z" fill="white"/>
<path d="M836.833 76.4167C844.887 76.4167 851.417 69.8875 851.417 61.8333C851.417 53.7792 844.887 47.25 836.833 47.25C828.779 47.25 822.25 53.7792 822.25 61.8333C822.25 69.8875 828.779 76.4167 836.833 76.4167Z" stroke="white" stroke-width="2" stroke-linecap="round" stroke-linejoin="round"/>
<path d="M847.25 72.25L859.75 84.75" stroke="white" stroke-width="2" stroke-linecap="round" stroke-linejoin="round"/>
<path fill-rule="evenodd" clip-rule="evenodd" d="M413 4C396.431 4 383 17.4315 383 34V458C383 474.569 396.431 488 413 488H730L781 254.067L730 4H413Z" fill="#008FE5"/>
<path d="M730 488V491.5H732.819L733.42 488.746L730 488ZM781 254.067L784.42 254.812L784.577 254.091L784.429 253.367L781 254.067ZM730 4L733.429 3.30059L732.858 0.5H730V4ZM386.5 34C386.5 19.3645 398.364 7.5 413 7.5V0.5C394.498 0.5 379.5 15.4985 379.5 34H386.5ZM386.5 458V34H379.5V458H386.5ZM413 484.5C398.364 484.5 386.5 472.636 386.5 458H379.5C379.5 476.502 394.498 491.5 413 491.5V484.5ZM730 484.5H413V491.5H730V484.5ZM733.42 488.746L784.42 254.812L777.58 253.321L726.58 487.254L733.42 488.746ZM784.429 253.367L733.429 3.30059L726.571 4.69941L777.571 254.766L784.429 253.367ZM413 7.5H730V0.5H413V7.5Z" fill="white"/>
<path d="M462 84.75C472.355 84.75 480.75 76.3553 480.75 66C480.75 55.6447 472.355 47.25 462 47.25C451.645 47.25 443.25 55.6447 443.25 66C443.25 76.3553 451.645 84.75 462 84.75Z" stroke="white" stroke-width="2" stroke-linecap="round" stroke-linejoin="round"/>
<path d="M472.868 81.2757C470.198 78.2934 466.318 76.4167 462 76.4167C457.682 76.4167 453.802 78.2934 451.132 81.2757" stroke="white" stroke-width="2" stroke-linecap="round" stroke-linejoin="round"/>
<path d="M462 70.1667C465.452 70.1667 468.25 67.3685 468.25 63.9167C468.25 60.465 465.452 57.6667 462 57.6667C458.548 57.6667 455.75 60.465 455.75 63.9167C455.75 67.3685 458.548 70.1667 462 70.1667Z" stroke="white" stroke-width="2" stroke-linecap="round" stroke-linejoin="round"/>
<path fill-rule="evenodd" clip-rule="evenodd" d="M34 4C17.4315 4 4 17.4315 4 34V458C4 474.569 17.4315 488 34 488H351L402 254.067L351 4H34Z" fill="#008FE5"/>
<path d="M351 488V491.5H353.819L354.42 488.746L351 488ZM402 254.067L405.42 254.812L405.577 254.091L405.429 253.367L402 254.067ZM351 4L354.429 3.30059L353.858 0.5H351V4ZM7.5 34C7.5 19.3645 19.3645 7.5 34 7.5V0.5C15.4985 0.5 0.5 15.4985 0.5 34H7.5ZM7.5 458V34H0.5V458H7.5ZM34 484.5C19.3645 484.5 7.5 472.636 7.5 458H0.5C0.5 476.502 15.4985 491.5 34 491.5V484.5ZM351 484.5H34V491.5H351V484.5ZM354.42 488.746L405.42 254.812L398.58 253.321L347.58 487.254L354.42 488.746ZM405.429 253.367L354.429 3.30059L347.571 4.69941L398.571 254.766L405.429 253.367ZM34 7.5H351V0.5H34V7.5Z" fill="white"/>
<path d="M75.333 84.6667H104.5" stroke="white" stroke-width="2" stroke-linecap="round" stroke-linejoin="round"/>
<path d="M104.5 72.1667L103.5 72.1667C103.5 72.719 103.948 73.1667 104.5 73.1667V72.1667ZM104.5 59.6667L104.5 58.6667C103.948 58.6667 103.5 59.1145 103.5 59.6667L104.5 59.6667ZM106.583 59.6667L106.583 58.6667L106.583 59.6667ZM106.583 72.1667L106.583 73.1667H106.583L106.583 72.1667ZM105.5 72.1667L105.5 59.6667L103.5 59.6667L103.5 72.1667L105.5 72.1667ZM104.5 60.6667L106.583 60.6667L106.583 58.6667L104.5 58.6667L104.5 60.6667ZM106.583 71.1667H104.5V73.1667H106.583V71.1667ZM111.833 65.9167C111.833 68.8162 109.483 71.1667 106.583 71.1667L106.583 73.1667C110.587 73.1667 113.833 69.9208 113.833 65.9167L111.833 65.9167ZM106.583 60.6667C109.483 60.6667 111.833 63.0173 111.833 65.9167L113.833 65.9167C113.833 61.9127 110.587 58.6667 106.583 58.6667L106.583 60.6667Z" fill="white"/>
<path d="M75.333 59.6667V58.6667C74.7807 58.6667 74.333 59.1145 74.333 59.6667H75.333ZM104.5 59.6667H105.5C105.5 59.1145 105.052 58.6667 104.5 58.6667V59.6667ZM75.333 60.6667H104.5V58.6667H75.333V60.6667ZM103.5 59.6667V70.0834H105.5V59.6667H103.5ZM76.333 70.0834V59.6667H74.333V70.0834H76.333ZM89.9163 83.6667C82.4145 83.6667 76.333 77.5853 76.333 70.0834H74.333C74.333 78.6898 81.3099 85.6667 89.9163 85.6667V83.6667ZM103.5 70.0834C103.5 77.5853 97.4182 83.6667 89.9163 83.6667V85.6667C98.5228 85.6667 105.5 78.6898 105.5 70.0834H103.5Z" fill="white"/>
<path d="M98.2503 49.25L96.167 53.4167" stroke="white" stroke-width="2" stroke-linecap="round" stroke-linejoin="round"/>
<path d="M92.0003 49.25L89.917 53.4167" stroke="white" stroke-width="2" stroke-linecap="round" stroke-linejoin="round"/>
<path d="M85.7503 49.25L83.667 53.4167" stroke="white" stroke-width="2" stroke-linecap="round" stroke-linejoin="round"/>
</svg>
