<svg width="75" height="21" viewBox="0 0 75 21" fill="none" xmlns="http://www.w3.org/2000/svg">
<g clip-path="url(#clip0_21677_65301)">
<rect x="0.308594" y="1" width="24" height="5" rx="2" fill="white"/>
<rect x="0.308594" y="1" width="24" height="5" rx="2" fill="#008FE5"/>
<rect x="0.308594" y="8" width="24" height="5" rx="2" fill="white"/>
<rect x="0.308594" y="8" width="24" height="5" rx="2" fill="#008FE5"/>
<rect x="0.308594" y="15" width="24" height="5" rx="2" fill="white"/>
<rect x="0.308594" y="15" width="24" height="5" rx="2" fill="#008FE5"/>
<path d="M28.3086 4C28.3086 1.79086 30.0995 0 32.3086 0H45.3086C47.5177 0 49.3086 1.79086 49.3086 4V17C49.3086 19.2091 47.5177 21 45.3086 21H32.3086C30.0995 21 28.3086 19.2091 28.3086 17V4Z" fill="white"/>
<path d="M28.3086 4C28.3086 1.79086 30.0995 0 32.3086 0H45.3086C47.5177 0 49.3086 1.79086 49.3086 4V17C49.3086 19.2091 47.5177 21 45.3086 21H32.3086C30.0995 21 28.3086 19.2091 28.3086 17V4Z" fill="#008FE5"/>
<path d="M53.3086 4C53.3086 1.79086 55.0995 0 57.3086 0H70.3086C72.5177 0 74.3086 1.79086 74.3086 4V17C74.3086 19.2091 72.5177 21 70.3086 21H57.3086C55.0995 21 53.3086 19.2091 53.3086 17V4Z" fill="white"/>
<path d="M53.3086 4C53.3086 1.79086 55.0995 0 57.3086 0H70.3086C72.5177 0 74.3086 1.79086 74.3086 4V17C74.3086 19.2091 72.5177 21 70.3086 21H57.3086C55.0995 21 53.3086 19.2091 53.3086 17V4Z" fill="#008FE5"/>
</g>
<defs>
<clipPath id="clip0_21677_65301">
<rect width="74" height="21" fill="white" transform="translate(0.308594)"/>
</clipPath>
</defs>
</svg>
