<svg width="81" height="55" viewBox="0 0 81 55" fill="none" xmlns="http://www.w3.org/2000/svg">
<g clip-path="url(#clip0_9575_58072)">
<rect x="0.308594" y="0.5" width="24" height="7" rx="2" fill="white"/>
<rect x="0.308594" y="0.5" width="24" height="7" rx="2" fill="#FA7C49"/>
<rect x="0.308594" y="9.5" width="24" height="7" rx="2" fill="white"/>
<rect x="0.308594" y="9.5" width="24" height="7" rx="2" fill="#FA7C49"/>
<rect x="0.308594" y="18.5" width="24" height="7" rx="2" fill="white"/>
<rect x="0.308594" y="18.5" width="24" height="7" rx="2" fill="#FA7C49"/>
<path d="M28.3086 5C28.3086 2.79086 30.0995 1 32.3086 1H48.3086C50.5177 1 52.3086 2.79086 52.3086 5V25H32.3086C30.0995 25 28.3086 23.2091 28.3086 21V5Z" fill="white"/>
<path d="M28.3086 5C28.3086 2.79086 30.0995 1 32.3086 1H48.3086C50.5177 1 52.3086 2.79086 52.3086 5V25H32.3086C30.0995 25 28.3086 23.2091 28.3086 21V5Z" fill="#FA7C49"/>
<path d="M56.3086 5C56.3086 2.79086 58.0995 1 60.3086 1H76.3086C78.5177 1 80.3086 2.79086 80.3086 5V21C80.3086 23.2091 78.5177 25 76.3086 25H56.3086V5Z" fill="white"/>
<path d="M56.3086 5C56.3086 2.79086 58.0995 1 60.3086 1H76.3086C78.5177 1 80.3086 2.79086 80.3086 5V21C80.3086 23.2091 78.5177 25 76.3086 25H56.3086V5Z" fill="#FA7C49"/>
</g>
<g clip-path="url(#clip1_9575_58072)">
<rect x="0.308594" y="29.5" width="24" height="7" rx="2" fill="white"/>
<rect x="0.308594" y="29.5" width="24" height="7" rx="2" fill="#008FE5"/>
<rect x="0.308594" y="38.5" width="24" height="7" rx="2" fill="white"/>
<rect x="0.308594" y="38.5" width="24" height="7" rx="2" fill="#008FE5"/>
<rect x="0.308594" y="47.5" width="24" height="7" rx="2" fill="white"/>
<rect x="0.308594" y="47.5" width="24" height="7" rx="2" fill="#008FE5"/>
<path d="M28.3086 34C28.3086 31.7909 30.0995 30 32.3086 30H52.3086V50C52.3086 52.2091 50.5177 54 48.3086 54H32.3086C30.0995 54 28.3086 52.2091 28.3086 50V34Z" fill="white"/>
<path d="M28.3086 34C28.3086 31.7909 30.0995 30 32.3086 30H52.3086V50C52.3086 52.2091 50.5177 54 48.3086 54H32.3086C30.0995 54 28.3086 52.2091 28.3086 50V34Z" fill="#008FE5"/>
<path d="M56.3086 30H76.3086C78.5177 30 80.3086 31.7909 80.3086 34V50C80.3086 52.2091 78.5177 54 76.3086 54H60.3086C58.0995 54 56.3086 52.2091 56.3086 50V30Z" fill="white"/>
<path d="M56.3086 30H76.3086C78.5177 30 80.3086 31.7909 80.3086 34V50C80.3086 52.2091 78.5177 54 76.3086 54H60.3086C58.0995 54 56.3086 52.2091 56.3086 50V30Z" fill="#008FE5"/>
</g>
<defs>
<clipPath id="clip0_9575_58072">
<rect width="80" height="25" fill="white" transform="translate(0.308594 0.5)"/>
</clipPath>
<clipPath id="clip1_9575_58072">
<rect width="80" height="25" fill="white" transform="translate(0.308594 29.5)"/>
</clipPath>
</defs>
</svg>
