<svg width="36" height="37" viewBox="0 0 36 37" fill="none" xmlns="http://www.w3.org/2000/svg">
<path d="M20.4303 7.75375V7.75248C20.4303 6.43908 19.3171 5.41517 18.0025 5.41517C16.6844 5.41517 15.5747 6.44238 15.5747 7.75248C15.5747 9.06589 16.6879 10.0898 18.0025 10.0898C19.3188 10.0898 20.427 9.06216 20.4303 7.75375ZM15.4922 7.75494C15.4922 6.47162 16.5959 5.38599 18.0025 5.38599C19.4097 5.38599 20.5128 6.4697 20.5128 7.75248C20.5128 9.0358 19.4091 10.1214 18.0025 10.1214C16.5953 10.1214 15.4922 9.03771 15.4922 7.75494Z" stroke="white"/>
<path d="M20.4303 7.75375V7.75248C20.4303 6.43908 19.3171 5.41517 18.0025 5.41517C16.6844 5.41517 15.5747 6.44238 15.5747 7.75248C15.5747 9.06589 16.6879 10.0898 18.0025 10.0898C19.3188 10.0898 20.427 9.06216 20.4303 7.75375ZM15.4922 7.75494C15.4922 6.47162 16.5959 5.38599 18.0025 5.38599C19.4097 5.38599 20.5128 6.4697 20.5128 7.75248C20.5128 9.0358 19.4091 10.1214 18.0025 10.1214C16.5953 10.1214 15.4922 9.03771 15.4922 7.75494Z" stroke="#FA7C49"/>
<path d="M15.0232 20.4713V20.1176L14.6896 19.9998C10.9598 18.6832 8.5 15.3193 8.5 11.5329C8.5 6.57494 12.7403 2.5 18.0026 2.5C23.2623 2.5 27.5024 6.57494 27.5 11.5302V11.5304C27.5 15.3171 25.0401 18.6831 21.3106 19.9973L20.9768 20.1149V20.4689V23.5117C20.9759 23.5133 20.9737 23.5165 20.9692 23.5201C20.969 23.5202 20.9689 23.5203 20.9687 23.5204L19.4167 24.715L18.9019 25.1113L19.4167 25.5075L20.9708 26.7037L20.9736 26.7058C20.9741 26.7062 20.9746 26.7067 20.9751 26.7073C20.9739 26.709 20.972 26.711 20.9692 26.7133C20.969 26.7134 20.9689 26.7135 20.9687 26.7136L19.4167 27.9082L18.9019 28.3044L19.4167 28.7007L20.9708 29.8969L20.9736 29.899C20.9741 29.8994 20.9746 29.8999 20.9751 29.9005C20.9739 29.9021 20.972 29.9042 20.9692 29.9064C20.9691 29.9065 20.9689 29.9066 20.9687 29.9068L19.4167 31.1014L18.9019 31.4976L19.4167 31.8938L20.9664 33.0866C20.972 33.0913 20.9748 33.0952 20.9761 33.0973C20.9758 33.0975 20.9755 33.0978 20.9751 33.0981L20.9751 33.0981L20.9706 33.1018L18.0366 35.488C18.0365 35.4881 18.0363 35.4882 18.0361 35.4884C18.0275 35.4952 18.0156 35.5 18 35.5C17.994 35.5 17.9866 35.4989 17.9792 35.4963C17.9768 35.4955 17.9746 35.4946 17.9726 35.4937C17.9689 35.4919 17.966 35.49 17.9638 35.4883C17.9636 35.4882 17.9635 35.4881 17.9634 35.488L15.0294 33.1018L15.0289 33.1013C15.0264 33.0993 15.0248 33.0976 15.024 33.0966C15.0236 33.0961 15.0234 33.0958 15.0232 33.0955V20.4713ZM20.9188 20.0892L20.9192 20.089C24.7932 18.8833 27.4199 15.4519 27.4227 11.5332V11.5329C27.4227 6.54528 23.1759 2.53164 18.0026 2.53164C12.8293 2.53164 8.58247 6.54528 8.58247 11.5329C8.58247 15.4508 11.2079 18.8814 15.0827 20.088C15.0969 20.0928 15.1043 20.1 15.1073 20.1038C15.1077 20.1043 15.108 20.1048 15.1082 20.1052V32.851V33.0888L15.2927 33.2389L17.687 35.1867L18.0025 35.4434L18.318 35.1868L20.4056 33.4895L20.896 33.0908L20.3952 32.7053L18.8302 31.5009C18.8301 31.5008 18.8299 31.5006 18.8297 31.5005C18.8272 31.4985 18.8254 31.4966 18.8242 31.4952C18.8254 31.4937 18.8272 31.4918 18.8297 31.4898C18.8299 31.4897 18.8301 31.4895 18.8302 31.4894L20.3823 30.2948L20.8971 29.8986L20.3823 29.5023L18.8282 28.3061L18.8254 28.304C18.8247 28.3035 18.8242 28.303 18.8237 28.3026C18.8249 28.301 18.8268 28.2989 18.8297 28.2966C18.8299 28.2965 18.8301 28.2964 18.8302 28.2962L20.3823 27.1016L20.8971 26.7054L20.3823 26.3092L18.8282 25.1129L18.8254 25.1108C18.825 25.1105 18.8246 25.1101 18.8241 25.1097C18.824 25.1096 18.8239 25.1094 18.8238 25.1093C18.825 25.1077 18.8269 25.1057 18.8297 25.1034C18.8299 25.1033 18.8301 25.1032 18.8302 25.1031L20.7018 23.6628L20.8969 23.5127V23.2666V20.1044C20.8972 20.1039 20.8976 20.1032 20.8984 20.1022C20.9014 20.0983 20.9077 20.0926 20.9188 20.0892Z" stroke="white"/>
<path d="M15.0232 20.4713V20.1176L14.6896 19.9998C10.9598 18.6832 8.5 15.3193 8.5 11.5329C8.5 6.57494 12.7403 2.5 18.0026 2.5C23.2623 2.5 27.5024 6.57494 27.5 11.5302V11.5304C27.5 15.3171 25.0401 18.6831 21.3106 19.9973L20.9768 20.1149V20.4689V23.5117C20.9759 23.5133 20.9737 23.5165 20.9692 23.5201C20.969 23.5202 20.9689 23.5203 20.9687 23.5204L19.4167 24.715L18.9019 25.1113L19.4167 25.5075L20.9708 26.7037L20.9736 26.7058C20.9741 26.7062 20.9746 26.7067 20.9751 26.7073C20.9739 26.709 20.972 26.711 20.9692 26.7133C20.969 26.7134 20.9689 26.7135 20.9687 26.7136L19.4167 27.9082L18.9019 28.3044L19.4167 28.7007L20.9708 29.8969L20.9736 29.899C20.9741 29.8994 20.9746 29.8999 20.9751 29.9005C20.9739 29.9021 20.972 29.9042 20.9692 29.9064C20.9691 29.9065 20.9689 29.9066 20.9687 29.9068L19.4167 31.1014L18.9019 31.4976L19.4167 31.8938L20.9664 33.0866C20.972 33.0913 20.9748 33.0952 20.9761 33.0973C20.9758 33.0975 20.9755 33.0978 20.9751 33.0981L20.9751 33.0981L20.9706 33.1018L18.0366 35.488C18.0365 35.4881 18.0363 35.4882 18.0361 35.4884C18.0275 35.4952 18.0156 35.5 18 35.5C17.994 35.5 17.9866 35.4989 17.9792 35.4963C17.9768 35.4955 17.9746 35.4946 17.9726 35.4937C17.9689 35.4919 17.966 35.49 17.9638 35.4883C17.9636 35.4882 17.9635 35.4881 17.9634 35.488L15.0294 33.1018L15.0289 33.1013C15.0264 33.0993 15.0248 33.0976 15.024 33.0966C15.0236 33.0961 15.0234 33.0958 15.0232 33.0955V20.4713ZM20.9188 20.0892L20.9192 20.089C24.7932 18.8833 27.4199 15.4519 27.4227 11.5332V11.5329C27.4227 6.54528 23.1759 2.53164 18.0026 2.53164C12.8293 2.53164 8.58247 6.54528 8.58247 11.5329C8.58247 15.4508 11.2079 18.8814 15.0827 20.088C15.0969 20.0928 15.1043 20.1 15.1073 20.1038C15.1077 20.1043 15.108 20.1048 15.1082 20.1052V32.851V33.0888L15.2927 33.2389L17.687 35.1867L18.0025 35.4434L18.318 35.1868L20.4056 33.4895L20.896 33.0908L20.3952 32.7053L18.8302 31.5009C18.8301 31.5008 18.8299 31.5006 18.8297 31.5005C18.8272 31.4985 18.8254 31.4966 18.8242 31.4952C18.8254 31.4937 18.8272 31.4918 18.8297 31.4898C18.8299 31.4897 18.8301 31.4895 18.8302 31.4894L20.3823 30.2948L20.8971 29.8986L20.3823 29.5023L18.8282 28.3061L18.8254 28.304C18.8247 28.3035 18.8242 28.303 18.8237 28.3026C18.8249 28.301 18.8268 28.2989 18.8297 28.2966C18.8299 28.2965 18.8301 28.2964 18.8302 28.2962L20.3823 27.1016L20.8971 26.7054L20.3823 26.3092L18.8282 25.1129L18.8254 25.1108C18.825 25.1105 18.8246 25.1101 18.8241 25.1097C18.824 25.1096 18.8239 25.1094 18.8238 25.1093C18.825 25.1077 18.8269 25.1057 18.8297 25.1034C18.8299 25.1033 18.8301 25.1032 18.8302 25.1031L20.7018 23.6628L20.8969 23.5127V23.2666V20.1044C20.8972 20.1039 20.8976 20.1032 20.8984 20.1022C20.9014 20.0983 20.9077 20.0926 20.9188 20.0892Z" stroke="#FA7C49"/>
</svg>
