<svg width="73" height="73" viewBox="0 0 73 73" fill="none" xmlns="http://www.w3.org/2000/svg">
<path d="M36.333 66.5C19.7645 66.5 6.33301 53.0685 6.33301 36.5C6.33301 19.9315 19.7645 6.5 36.333 6.5C52.9016 6.5 66.333 19.9315 66.333 36.5C66.3148 53.061 52.894 66.4818 36.333 66.5ZM36.285 60.5H36.333C49.5831 60.4867 60.3156 49.7382 60.309 36.488C60.3024 23.2379 49.5592 12.5 36.309 12.5C23.0589 12.5 12.3156 23.2379 12.309 36.488C12.3024 49.7382 23.0349 60.4867 36.285 60.5ZM30.333 51.5L18.333 39.5L22.563 35.27L30.333 43.01L50.103 23.24L54.333 27.5L30.333 51.5Z" fill="white"/>
<path d="M36.333 66.5C19.7645 66.5 6.33301 53.0685 6.33301 36.5C6.33301 19.9315 19.7645 6.5 36.333 6.5C52.9016 6.5 66.333 19.9315 66.333 36.5C66.3148 53.061 52.894 66.4818 36.333 66.5ZM36.285 60.5H36.333C49.5831 60.4867 60.3156 49.7382 60.309 36.488C60.3024 23.2379 49.5592 12.5 36.309 12.5C23.0589 12.5 12.3156 23.2379 12.309 36.488C12.3024 49.7382 23.0349 60.4867 36.285 60.5ZM30.333 51.5L18.333 39.5L22.563 35.27L30.333 43.01L50.103 23.24L54.333 27.5L30.333 51.5Z" fill="black" fill-opacity="0.4"/>
</svg>
