<svg width="49" height="49" viewBox="0 0 49 49" fill="none" xmlns="http://www.w3.org/2000/svg">
<path d="M24.5 48.25C11.3892 48.2356 0.764398 37.6108 0.75 24.5V24.025C1.01109 10.9733 11.7571 0.578939 24.8103 0.752133C37.8635 0.925328 48.33 11.6011 48.2447 24.6552C48.1594 37.7093 37.5544 48.2474 24.5 48.25ZM13.5987 23.5263L10.25 26.875L19.75 36.375L38.75 17.375L35.4012 14.0025L19.75 29.6538L13.5987 23.5263Z" fill="white"/>
<path d="M24.5 48.25C11.3892 48.2356 0.764398 37.6108 0.75 24.5V24.025C1.01109 10.9733 11.7571 0.578939 24.8103 0.752133C37.8635 0.925328 48.33 11.6011 48.2447 24.6552C48.1594 37.7093 37.5544 48.2474 24.5 48.25ZM13.5987 23.5263L10.25 26.875L19.75 36.375L38.75 17.375L35.4012 14.0025L19.75 29.6538L13.5987 23.5263Z" fill="url(#paint0_linear)"/>
<defs>
<linearGradient id="paint0_linear" x1="0.75" y1="0.75" x2="48.25" y2="48.2453" gradientUnits="userSpaceOnUse">
<stop stop-color="#008FE5"/>
<stop offset="1" stop-color="#00C09E"/>
</linearGradient>
</defs>
</svg>
