<svg width="140" height="140" viewBox="0 0 140 140" fill="none" xmlns="http://www.w3.org/2000/svg">
<path d="M0 70C0 31.3401 31.3401 0 70 0C108.66 0 140 31.3401 140 70C140 108.66 108.66 140 70 140C31.3401 140 0 108.66 0 70Z" fill="white"/>
<path d="M0 70C0 31.3401 31.3401 0 70 0C108.66 0 140 31.3401 140 70C140 108.66 108.66 140 70 140C31.3401 140 0 108.66 0 70Z" fill="#F6F8F7"/>
<mask id="mask0" mask-type="alpha" maskUnits="userSpaceOnUse" x="0" y="0" width="140" height="140">
<circle cx="70" cy="70" r="70" fill="white"/>
</mask>
<g mask="url(#mask0)">
<g opacity="0.1">
<path d="M-22.6519 252.872C-17.6839 326.603 74.7797 356.483 120.486 298.585C129.814 286.759 132.062 258.247 129.631 243.21C119.888 182.566 88.9797 176.396 112.055 138.046C135.129 99.6963 137.281 30.0885 73.5642 30.6318C9.8478 31.1751 50.9234 133.593 7.00203 162.241C-13.0438 175.338 -25.2469 214.474 -22.6519 252.872Z" fill="white"/>
<path d="M-22.6519 252.872C-17.6839 326.603 74.7797 356.483 120.486 298.585C129.814 286.759 132.062 258.247 129.631 243.21C119.888 182.566 88.9797 176.396 112.055 138.046C135.129 99.6963 137.281 30.0885 73.5642 30.6318C9.8478 31.1751 50.9234 133.593 7.00203 162.241C-13.0438 175.338 -25.2469 214.474 -22.6519 252.872Z" fill="#F6F8F7"/>
</g>
<g opacity="0.1">
<path d="M1.49391 145.7C3.38014 146.354 5.42066 146.407 7.33815 145.853C9.25564 145.3 10.9571 144.166 12.2114 142.606C16.3595 137.551 22.9771 127.345 20.9995 115.442C18.1923 98.4835 -3.17509 112.017 -4.86326 131.08C-5.70253 140.607 -2.21042 144.333 1.49391 145.7Z" fill="white"/>
<path d="M1.49391 145.7C3.38014 146.354 5.42066 146.407 7.33815 145.853C9.25564 145.3 10.9571 144.166 12.2114 142.606C16.3595 137.551 22.9771 127.345 20.9995 115.442C18.1923 98.4835 -3.17509 112.017 -4.86326 131.08C-5.70253 140.607 -2.21042 144.333 1.49391 145.7Z" fill="#F6F8F7"/>
</g>
<g opacity="0.1">
<path d="M24.2702 101.074C25.2569 100.738 26.1164 100.104 26.7312 99.2585C27.3459 98.4128 27.6858 97.3968 27.7044 96.3494C27.8105 92.9345 27.2993 86.648 22.7171 82.3405C16.1766 76.248 11.662 88.695 17.0255 97.0964C19.6784 101.287 22.3409 101.705 24.2702 101.074Z" fill="white"/>
<path d="M24.2702 101.074C25.2569 100.738 26.1164 100.104 26.7312 99.2585C27.3459 98.4128 27.6858 97.3968 27.7044 96.3494C27.8105 92.9345 27.2993 86.648 22.7171 82.3405C16.1766 76.248 11.662 88.695 17.0255 97.0964C19.6784 101.287 22.3409 101.705 24.2702 101.074Z" fill="#F6F8F7"/>
</g>
<path d="M38.0744 126.55C42.782 85.7455 51.657 70.4949 51.657 70.4949C59.9628 104.654 53.7889 122.155 50.9913 131.061C48.1938 139.967 22.5336 172.088 22.5336 172.088C20.738 169.708 18.2174 167.984 15.3564 167.179C15.3564 167.179 23.4886 152.753 26.373 147.35C29.2573 141.946 38.0744 126.55 38.0744 126.55Z" fill="#FB6B60"/>
<path d="M83.9536 94.1471C87.76 106.756 93.2094 118.804 100.16 129.974C100.334 132.633 101.221 145.215 102.803 157.138C103.67 163.898 104.191 170.698 104.366 177.511C105.839 178.188 107.44 178.537 109.059 178.537C110.679 178.537 112.279 178.188 113.752 177.511C115.112 157.362 114.071 140.927 111.263 128.713C111.427 112.793 94.864 73.8711 94.864 73.8711C86.973 79.7308 83.9536 94.1471 83.9536 94.1471Z" fill="#FB6B60"/>
<path d="M44.5762 40.7117C43.872 42.8072 43.1388 44.9803 42.4346 47.2795C40.2062 54.6235 47.258 55.5452 47.258 55.5452C47.258 55.5452 45.0103 60.5414 48.5506 64.5481C49.5204 65.6757 50.8221 66.4632 52.2671 66.7964C53.712 67.1296 55.2249 66.9911 56.5863 66.4011C56.5863 66.4011 58.2166 68.5742 62.4901 68.8458C68.6833 69.2436 70.9406 66.7406 70.9406 66.7406L77.4232 65.5667C78.2721 66.0518 78.9377 69.2339 85.7869 70.0391C92.0186 70.7764 95.2213 67.0123 95.2213 67.0123C96.8709 70.2622 104.617 69.6898 105.505 64.5481C106.325 59.6974 104.096 57.7571 103.817 57.5243C107.839 60.4347 114.553 52.6735 107.444 45.2907C104.55 42.293 102.948 40.9057 101.868 39.4117C105.09 40.1781 108.457 36.4042 107.019 33.1154C105.157 28.8662 101.762 30.5543 98.4433 24.4521C94.0251 16.3611 90.6488 13.5962 90.4559 13.4312C84.7161 7.98874 76.3042 5.50517 67.0819 6.07756C59.2488 6.57233 54.6859 9.79321 52.0331 13.1014C49.7943 15.9895 48.5637 19.5387 48.5313 23.2006C48.5313 23.967 48.4638 24.7237 48.3963 25.4707C47.3062 28.1483 45.0585 32.902 42.4057 34.3475C41.6769 34.7167 41.1057 35.3389 40.7979 36.0989C40.49 36.8589 40.4662 37.7053 40.731 38.4816C40.9957 39.2579 41.5311 39.9114 42.238 40.3214C42.9449 40.7314 43.7755 40.87 44.5762 40.7117Z" fill="#32324C"/>
<path d="M55.6498 35.4632C55.6498 35.4632 51.5885 30.7968 48.2797 34.852C45.3857 38.4124 47.18 47.8422 54.28 47.5803L55.6498 35.4632Z" fill="#F88968"/>
<path d="M49.3511 46.9982C49.3511 47.3378 49.4512 47.6698 49.6388 47.9522C49.8265 48.2345 50.0931 48.4546 50.4051 48.5846C50.7171 48.7146 51.0604 48.7486 51.3916 48.6823C51.7229 48.6161 52.0271 48.4525 52.2659 48.2124C52.5047 47.9722 52.6673 47.6663 52.7332 47.3332C52.7991 47.0001 52.7653 46.6548 52.636 46.341C52.5068 46.0273 52.2879 45.7591 52.0071 45.5704C51.7264 45.3817 51.3962 45.281 51.0585 45.281C50.6057 45.281 50.1714 45.4619 49.8512 45.7839C49.531 46.106 49.3511 46.5427 49.3511 46.9982Z" fill="white"/>
<path d="M62.9625 71.0965C63.3291 75.3652 72.1172 77.8875 77.1045 70.6309L77.6351 61.2496L78.021 54.3616L61.9785 57.4951L62.7696 68.351L62.9625 71.0965Z" fill="#FFAF82"/>
<path d="M62.8564 69.6608C68.3357 69.7384 74.4324 65.9451 77.5097 63.3257L78.0113 54.3616L61.9785 57.4951L62.8564 69.6608Z" fill="#F88968"/>
<path d="M69.079 62.5301C86.009 58.6495 89.0863 36.3362 89.0863 36.3362C89.1046 35.11 89.0304 33.8841 88.8644 32.6691C88.687 31.2923 88.4097 29.9305 88.0348 28.5945C86.8193 24.3064 84.1761 19.4169 78.6485 17.2826L78.118 17.0886C68.8861 13.761 55.3807 15.3035 51.2809 27.5952C51.0262 28.3779 50.8169 29.1748 50.6538 29.9818C50.5574 30.4668 50.4705 30.9519 50.403 31.4855C48.5508 44.1847 53.8565 66.0323 69.079 62.5301Z" fill="#FFAF82"/>
<path d="M72.4454 39.722C72.83 39.7759 73.2218 39.7255 73.5806 39.5761C73.9393 39.4267 74.2518 39.1837 74.4859 38.8722C74.7199 38.5606 74.867 38.1919 74.9119 37.804C74.9568 37.4162 74.8979 37.0233 74.7413 36.666C76.5163 36.4623 76.4777 35.3757 76.4777 35.3757C76.2076 35.8414 74.1239 35.5698 73.2654 35.4339H73.0146H72.8892C72.3342 35.4064 71.7899 35.594 71.3683 35.958C70.9468 36.3221 70.6801 36.8348 70.6232 37.3907C70.5663 37.9465 70.7236 38.5031 71.0626 38.9459C71.4016 39.3886 71.8965 39.6837 72.4454 39.7705V39.722Z" fill="#32324C"/>
<path d="M86.173 36.7631C86.173 36.7631 92.2505 33.4161 94.1991 38.975C95.9066 43.8258 90.3404 53.1294 82.98 50.0929L86.173 36.7631Z" fill="#FFAF82"/>
<path d="M58.8914 53.0518C59.1598 53.6518 59.5213 54.2052 59.9622 54.6913C60.5618 55.2923 61.2807 55.7593 62.0719 56.0618C62.8631 56.3644 63.7089 56.4958 64.554 56.4473C65.4023 56.409 66.2322 56.1862 66.9866 55.7943C67.741 55.4024 68.402 54.8507 68.924 54.1772C69.577 53.3883 70.131 52.5216 70.5736 51.5966C70.8443 51.0764 71.0795 50.5384 71.2778 49.9862C71.2778 49.9862 62.4125 49.7048 58.1679 49.0742C58.1325 49.661 58.1616 50.2499 58.2547 50.8302C58.3606 51.5974 58.575 52.3455 58.8914 53.0518Z" fill="#920E08"/>
<path d="M58.2839 50.8496C62.3259 51.5966 68.8663 51.5966 70.5738 51.5966C70.8445 51.0764 71.0798 50.5384 71.278 49.9862C71.278 49.9862 62.4127 49.7048 58.1681 49.0742C58.1408 49.6685 58.1797 50.264 58.2839 50.8496Z" fill="white"/>
<path d="M85.7962 46.057C86.2338 44.6276 86.9794 43.3127 87.9798 42.206C88.9802 41.0993 90.2109 40.228 91.5842 39.6541C91.5842 39.6541 87.6194 43.4182 87.3107 46.3286C87.2984 46.5122 87.2165 46.684 87.0818 46.8086C86.9472 46.9331 86.7701 47.0009 86.5872 46.998H86.4908C86.3759 47.0029 86.2616 46.9795 86.1579 46.9297C86.0542 46.8799 85.9641 46.8054 85.8956 46.7126C85.8271 46.6198 85.7822 46.5115 85.7649 46.3972C85.7476 46.2829 85.7583 46.1661 85.7962 46.057Z" fill="#F88968"/>
<path d="M59.9624 54.6915C60.562 55.2924 61.2809 55.7594 62.0721 56.062C62.8633 56.3646 63.7091 56.4959 64.5542 56.4474C65.4025 56.4091 66.2324 56.1863 66.9868 55.7944C67.7412 55.4025 68.4022 54.8508 68.9242 54.1773C68.2292 53.8108 67.4647 53.5971 66.6814 53.5503C65.8981 53.5034 65.1138 53.6246 64.3806 53.9057C63.6796 53.5543 62.889 53.4257 62.1136 53.537C61.6931 53.5604 61.2828 53.6759 60.9112 53.8753C60.5396 54.0747 60.2158 54.3532 59.9624 54.6915Z" fill="#F85C66"/>
<path d="M65.451 59.0182C66.4594 58.8241 67.4219 58.4389 68.2872 57.8831C68.3946 57.8085 68.4682 57.694 68.4917 57.5648C68.5152 57.4356 68.4868 57.3023 68.4126 57.1943C68.3384 57.0862 68.2245 57.0122 68.0961 56.9886C67.9676 56.9649 67.8351 56.9935 67.7277 57.0682C66.7859 57.6823 65.7029 58.0423 64.5828 58.1137C63.4627 58.185 62.3431 57.9653 61.3319 57.4756C61.2749 57.4451 61.2125 57.4261 61.1482 57.4198C61.0839 57.4134 61.0189 57.4199 60.9571 57.4389C60.8953 57.4578 60.8378 57.4887 60.7879 57.53C60.738 57.5713 60.6967 57.622 60.6663 57.6794C60.6359 57.7367 60.617 57.7995 60.6107 57.8641C60.6045 57.9288 60.6109 57.9941 60.6297 58.0563C60.6485 58.1184 60.6793 58.1762 60.7204 58.2264C60.7614 58.2766 60.8119 58.3182 60.8689 58.3488C62.2719 59.1024 63.8928 59.3392 65.451 59.0182Z" fill="#F88968"/>
<path d="M63.2515 47.066H65.8272C65.9544 47.0486 66.071 46.9855 66.1554 46.8882C66.2399 46.791 66.2864 46.6663 66.2864 46.5372C66.2864 46.4082 66.2399 46.2834 66.1554 46.1862C66.071 46.089 65.9544 46.0259 65.8272 46.0085H63.2515C63.233 46.0075 63.2149 46.0027 63.1983 45.9944C63.1817 45.986 63.167 45.9743 63.1551 45.96C63.144 45.9253 63.144 45.888 63.1551 45.8533L65.2966 38.4996C65.3258 38.43 65.3399 38.355 65.3381 38.2796C65.3363 38.2041 65.3186 38.1299 65.2862 38.0618C65.2537 37.9937 65.2073 37.9334 65.15 37.8847C65.0926 37.836 65.0256 37.8001 64.9535 37.7793C64.8813 37.7586 64.8056 37.7535 64.7313 37.7644C64.657 37.7752 64.5859 37.8018 64.5226 37.8424C64.4593 37.883 64.4052 37.9366 64.3641 37.9997C64.3229 38.0628 64.2955 38.134 64.2837 38.2085L62.1422 45.5525C62.0934 45.7286 62.0855 45.9137 62.1191 46.0933C62.1527 46.273 62.2269 46.4425 62.3359 46.5887C62.445 46.735 62.586 46.8541 62.7481 46.9368C62.9102 47.0196 63.0891 47.0637 63.2708 47.066H63.2515Z" fill="#F88968"/>
<path d="M69.7443 30.758C69.71 30.8969 69.7066 31.0418 69.7345 31.1822C69.7625 31.3227 69.8209 31.4551 69.9058 31.5701C69.9906 31.6851 70.0997 31.7798 70.2252 31.8474C70.3508 31.9149 70.4896 31.9537 70.6318 31.961C72.5612 32.155 76.7092 32.8244 78.571 35.0945C78.571 35.0945 78.1659 31.3692 70.9309 29.9431C70.7992 29.9105 70.6622 29.9063 70.5288 29.9306C70.3954 29.9548 70.2686 30.0071 70.1566 30.084C70.0447 30.1609 69.9501 30.2607 69.879 30.3768C69.808 30.4929 69.7621 30.6228 69.7443 30.758Z" fill="#32324C"/>
<path d="M61.5833 30.6901C61.5929 30.8328 61.571 30.9757 61.5193 31.1089C61.4675 31.242 61.3871 31.362 61.2839 31.4602C61.1807 31.5585 61.0571 31.6326 60.9221 31.6772C60.7871 31.7219 60.6439 31.736 60.5029 31.7185C58.5735 31.5633 54.3579 31.5051 52.1392 33.4162C52.1392 33.4162 53.1907 29.817 60.5511 29.6909C60.6858 29.6813 60.821 29.7003 60.948 29.7466C61.075 29.7929 61.1908 29.8655 61.2881 29.9597C61.3854 30.0539 61.462 30.1676 61.5128 30.2934C61.5637 30.4192 61.5877 30.5544 61.5833 30.6901Z" fill="#32324C"/>
<path d="M58.1007 39.4504C57.5291 39.5307 56.949 39.3797 56.4879 39.0305C56.0268 38.6813 55.7221 38.1625 55.6408 37.5878C55.577 37.1824 55.6341 36.7672 55.8048 36.3945C54.0298 36.181 54.0684 35.0945 54.0684 35.0945C54.3385 35.5602 56.4222 35.2885 57.2808 35.1624H57.5316H57.6473C58.2204 35.1032 58.7934 35.2754 59.2403 35.6411C59.6871 36.0068 59.9712 36.536 60.0301 37.1124C60.0889 37.6887 59.9177 38.265 59.5541 38.7144C59.1904 39.1638 58.6642 39.4495 58.0911 39.5086L58.1007 39.4504Z" fill="#32324C"/>
<path d="M77.1721 18.2432C77.1721 18.2432 78.0211 33.1931 84.9474 39.2274C84.9474 39.2274 85.5455 35.2692 90.938 35.861C90.938 35.861 91.4493 34.8908 92.2403 30.4379C93.0313 25.9849 90.1952 7.37755 69.7249 8.57083C69.7249 8.57083 63.2134 7.24173 54.0972 15.0805C44.9811 22.9192 50.3929 31.4856 50.3929 31.4856C50.3929 31.4856 65.5865 29.3707 77.1721 18.2432Z" fill="#32324C"/>
<path d="M87.3876 52.5281C88.3306 52.5281 89.0951 51.7593 89.0951 50.8109C89.0951 49.8625 88.3306 49.0938 87.3876 49.0938C86.4446 49.0938 85.6802 49.8625 85.6802 50.8109C85.6802 51.7593 86.4446 52.5281 87.3876 52.5281Z" fill="white"/>
<path d="M39.9648 174.068C65.5672 187.174 91.1406 176.26 91.1406 176.26C87.6195 153.869 83.3653 124.299 83.3653 124.299C90.4074 110.717 94.8932 73.8518 94.8932 73.8518C90.7547 71.2712 88.8254 71.9115 84.1081 70.6503C82.7769 70.2914 81.5421 70.0003 80.5003 69.7578C78.3587 69.263 76.9696 69.0108 76.9696 69.0108C70.9649 68.316 64.8968 68.391 58.911 69.2339H58.8049C54.5217 69.8063 51.6566 70.4951 51.6566 70.4951C51.6566 70.4951 49.7273 85.4256 45.4538 92.9733C41.1803 100.521 44.4891 105.1 45.4538 108.389C45.6631 109.198 45.786 110.027 45.8204 110.863C46.1001 114.986 46.4571 134.398 46.4571 134.398L39.9648 174.068Z" fill="#FB6B60"/>
<path d="M63.8696 83.4658C70.8924 83.6793 77.182 75.7532 80.5005 69.748C78.3589 69.2532 76.9698 69.001 76.9698 69.001C70.9651 68.3062 64.897 68.3812 58.9112 69.2241H58.8051C57.9562 75.2778 56.4706 83.233 63.8696 83.4658Z" fill="#FFAF82"/>
<path d="M45.4922 108.389C45.7015 109.198 45.8244 110.027 45.8588 110.863C58.2644 117.275 71.1235 113.618 71.1235 113.618C54.3864 113.327 45.4922 108.389 45.4922 108.389Z" fill="#FB6B60"/>
</g>
</svg>
