<svg width="140" height="140" viewBox="0 0 140 140" fill="none" xmlns="http://www.w3.org/2000/svg">
<path d="M0 70C0 31.3401 31.3401 0 70 0C108.66 0 140 31.3401 140 70C140 108.66 108.66 140 70 140C31.3401 140 0 108.66 0 70Z" fill="white"/>
<path d="M0 70C0 31.3401 31.3401 0 70 0C108.66 0 140 31.3401 140 70C140 108.66 108.66 140 70 140C31.3401 140 0 108.66 0 70Z" fill="#F6F8F7"/>
<g filter="url(#filter0_d)">
<path d="M60 68C60 63.5817 63.5817 60 68 60H72C76.4183 60 80 63.5817 80 68V80H68C63.5817 80 60 76.4183 60 72V68Z" fill="white"/>
</g>
<path d="M0 70C0 31.3401 31.3401 0 70 0C108.66 0 140 31.3401 140 70C140 108.66 108.66 140 70 140C31.3401 140 0 108.66 0 70Z" fill="white"/>
<path d="M0 70C0 31.3401 31.3401 0 70 0C108.66 0 140 31.3401 140 70C140 108.66 108.66 140 70 140C31.3401 140 0 108.66 0 70Z" fill="#F6F8F7"/>
<mask id="mask0" mask-type="alpha" maskUnits="userSpaceOnUse" x="0" y="0" width="140" height="140">
<circle cx="70" cy="70" r="70" fill="white"/>
</mask>
<g mask="url(#mask0)">
<g opacity="0.1">
<path d="M-8.64972 212.453C-3.65002 279.859 89.4025 307.182 135.4 254.242C144.787 243.438 147.049 217.366 144.603 203.607C134.798 148.187 103.693 142.567 126.915 107.464C150.137 72.3615 152.302 8.75385 88.1793 9.24798C24.057 9.74211 65.3943 103.395 21.1931 129.584C1.01959 141.56 -11.2612 177.341 -8.64972 212.453Z" fill="white"/>
<path d="M-8.64972 212.453C-3.65002 279.859 89.4025 307.182 135.4 254.242C144.787 243.438 147.049 217.366 144.603 203.607C134.798 148.187 103.693 142.567 126.915 107.464C150.137 72.3615 152.302 8.75385 88.1793 9.24798C24.057 9.74211 65.3943 103.395 21.1931 129.584C1.01959 141.56 -11.2612 177.341 -8.64972 212.453Z" fill="#F6F8F7"/>
</g>
<g opacity="0.1">
<path d="M15.6504 114.431C17.5278 115.04 19.5404 115.1 21.4513 114.606C23.3621 114.112 25.0916 113.083 26.4362 111.64C30.6107 107.019 37.2705 97.698 35.2803 86.8368C32.4552 71.3345 10.9517 83.7169 9.25277 101.147C8.40817 109.809 11.9225 113.21 15.6504 114.431Z" fill="white"/>
<path d="M15.6504 114.431C17.5278 115.04 19.5404 115.1 21.4513 114.606C23.3621 114.112 25.0916 113.083 26.4362 111.64C30.6107 107.019 37.2705 97.698 35.2803 86.8368C32.4552 71.3345 10.9517 83.7169 9.25277 101.147C8.40817 109.809 11.9225 113.21 15.6504 114.431Z" fill="#F6F8F7"/>
</g>
<g opacity="0.1">
<path d="M38.5707 73.65C39.529 73.3841 40.3789 72.8233 40.9994 72.0475C41.6199 71.2717 41.9794 70.3203 42.0268 69.3288C42.1336 66.2089 41.6191 60.4247 37.0077 56.52C30.4256 50.9586 25.8822 62.3334 31.2799 70.0167C33.9496 73.8535 36.6291 74.2313 38.5707 73.65Z" fill="white"/>
<path d="M38.5707 73.65C39.529 73.3841 40.3789 72.8233 40.9994 72.0475C41.6199 71.2717 41.9794 70.3203 42.0268 69.3288C42.1336 66.2089 41.6191 60.4247 37.0077 56.52C30.4256 50.9586 25.8822 62.3334 31.2799 70.0167C33.9496 73.8535 36.6291 74.2313 38.5707 73.65Z" fill="#F6F8F7"/>
</g>
<path opacity="0.1" d="M144.195 149.427C145.195 149.321 146.138 148.913 146.898 148.256C147.658 147.6 148.199 146.727 148.447 145.755C149.175 142.703 149.816 136.928 146.049 132.326C140.681 125.767 133.953 136.201 137.739 144.65C139.622 148.865 142.147 149.669 144.195 149.427Z" fill="#32324C"/>
<path d="M57.5406 84.5792C57.5406 84.5792 53.5894 106.011 48.58 118.49C43.5706 130.97 31.2412 160.598 31.2412 160.598C29.7947 158.099 27.1929 156.403 22.999 156.723C22.999 156.723 31.2801 128.887 34.7944 116.901C36.3671 111.563 41.8328 82.0698 45.2307 77.1091C45.2307 77.0703 57.0164 82.7383 57.5406 84.5792Z" fill="#FB9064"/>
<path d="M80.1508 69.009L102.363 79.8606L94.7713 122.201L99.3632 171.547C99.3632 171.547 61.9869 179.54 43.522 171.053L45.2306 77.0702L63.6761 69.8423L80.1508 69.009Z" fill="#FBA27E"/>
<path d="M56.8024 46.3467C50.1232 43.0428 49.0359 41.7929 47.3855 41.2407C44.3274 40.204 41.4732 40.2718 41.5606 36.1249C41.5347 34.352 42.1558 32.6301 43.3081 31.2805C42.046 30.3116 40.2985 29.2264 40.0267 26.4942C39.4442 20.4871 42.7838 19.5957 42.7838 19.5957C42.7838 19.5957 40.9781 15.9914 42.9877 13.2398C45.4924 9.83895 49.065 10.2459 50.8222 11.9414C50.8222 11.9414 51.5309 8.62783 56.2199 7.44579C57.4854 7.09104 58.8366 7.20333 60.0259 7.76209C61.2152 8.32085 62.1628 9.28865 62.6952 10.4881C63.6305 9.0706 65.006 7.99863 66.6107 7.43679C68.2154 6.87494 69.9606 6.85428 71.5782 7.37796C72.9071 7.7433 74.0933 8.50333 74.9793 9.55719C75.8654 10.6111 76.4093 11.9089 76.539 13.2785C77.7243 12.1242 79.274 11.4161 80.924 11.2747C82.574 11.1334 84.222 11.5676 85.587 12.5034C89.9654 15.1388 88.6742 21.0103 88.6742 21.0103C88.6742 21.0103 93.9069 19.3728 95.8485 24.2463C97.7901 29.1199 93.4021 32.9664 93.4021 32.9664C94.5068 33.548 95.3898 34.4751 95.9159 35.6057C96.442 36.7362 96.582 38.0078 96.3145 39.2254C95.6058 43.8567 93.1497 44.6415 93.1497 44.6415C93.1497 44.6415 95.0039 50.0091 90.7226 52.3926C90.7226 52.3926 88.616 61.287 82.0435 56.9658L56.8024 46.3467Z" fill="#2C2C2C"/>
<path d="M65.8022 60.4343L66.5304 70.1232L66.8604 74.5607C72.5494 78.5913 79.3451 73.0104 79.3451 73.0104L82.0634 57.5082C79.4422 55.8127 72.9863 58.1961 68.9962 59.3879C67.0934 59.9595 65.8022 60.4343 65.8022 60.4343Z" fill="#D37157"/>
<path d="M65.8022 60.4343L66.5304 70.1232C73.0737 68.4858 78.3743 59.3201 78.3743 59.3201L68.938 59.4363C67.0934 59.9595 65.8022 60.4343 65.8022 60.4343Z" fill="#B55441"/>
<path d="M44.7547 34.5554C44.7547 34.9042 44.7547 35.2627 44.7547 35.6212V35.6696C44.7547 36.1831 44.7547 36.7063 44.7547 37.2392C44.7547 37.7721 44.813 38.6054 44.8518 39.2933V39.6518C44.9683 41.5895 45.1528 43.6727 45.3664 45.7267C45.4246 46.1724 45.4634 46.6181 45.5217 47.0541C45.677 48.488 45.8615 49.9026 46.0556 51.2978C46.0556 51.5788 46.1333 51.8501 46.1721 52.1311C46.2401 52.693 46.3275 53.2356 46.4051 53.7782C46.5799 54.9699 46.7546 56.1326 46.9391 57.2565C47.2072 58.9434 47.8131 60.5591 48.7208 62.0071C49.6285 63.455 50.8192 64.7056 52.2219 65.6841C53.6246 66.6626 55.2105 67.349 56.8849 67.7022C58.5593 68.0554 60.2878 68.0682 61.9673 67.7399C68.6094 66.5945 75.1158 64.7699 81.3835 62.2947C81.3835 62.2947 81.4612 62.1397 81.5971 61.8394C82.975 58.7164 84.0605 55.473 84.8396 52.1505C85.9055 47.7436 86.4432 43.226 86.4415 38.6926C86.437 36.5869 86.3009 34.4835 86.0337 32.3948C83.9465 16.0205 49.2496 14.5478 45.2013 28.0445C45.2013 28.1995 45.1431 28.3545 45.1236 28.5192C44.8547 30.5197 44.7314 32.5371 44.7547 34.5554Z" fill="#D37157"/>
<path opacity="0.5" d="M68.3164 49.4084C68.3164 51.4527 70.6075 53.1192 73.4326 53.1192C76.2577 53.1192 78.5488 51.4527 78.5488 49.4084C78.5488 47.364 76.2577 45.6975 73.4326 45.6975C70.6075 45.6975 68.3164 47.3543 68.3164 49.4084Z" fill="#B55441"/>
<path opacity="0.5" d="M45.4536 45.7556C45.4536 46.2013 45.5604 46.647 45.6089 47.083C45.7643 48.5169 45.9487 49.9315 46.1429 51.3267C46.1429 51.6077 46.2108 51.879 46.2594 52.16C46.3079 52.4409 46.3565 52.8188 46.3953 53.1289C49.1233 53.0417 51.2494 51.4139 51.2494 49.4277C51.2494 47.4415 48.9583 45.7168 46.1332 45.7168C45.9293 45.6975 45.6866 45.7556 45.4536 45.7556Z" fill="#B55441"/>
<path d="M64.2393 43.663C64.2393 45.0873 64.8412 46.2402 65.6178 46.2499C66.3945 46.2596 67.0449 45.1163 67.0643 43.7017C67.0837 42.2872 66.4624 41.1245 65.6858 41.1148C64.9091 41.1051 64.249 42.2484 64.2393 43.663Z" fill="#2C2C2C"/>
<path d="M49.541 43.663C49.541 45.0873 50.1429 46.2402 50.9196 46.2499C51.6962 46.2596 52.3564 45.1163 52.3661 43.7017C52.3758 42.2872 51.7642 41.1245 50.9875 41.1148C50.2109 41.1051 49.5604 42.2484 49.541 43.663Z" fill="#2C2C2C"/>
<path d="M80.9175 41.4634C80.9175 41.4634 84.9269 36.7158 88.2083 39.5256C91.8294 42.6164 88.9073 52.9545 81.4903 52.625L80.9175 41.4634Z" fill="#D37157"/>
<path d="M81.3839 50.387C81.5353 50.3768 81.6783 50.314 81.7882 50.2096C81.8981 50.1052 81.968 49.9658 81.9858 49.8154C82.6654 44.5253 85.869 43.7889 85.869 43.7889C86.037 43.7495 86.1833 43.6469 86.2773 43.5025C86.3714 43.3581 86.406 43.183 86.3739 43.0138C86.3566 42.9295 86.3227 42.8495 86.2741 42.7784C86.2256 42.7074 86.1634 42.6466 86.0911 42.5997C86.0189 42.5529 85.938 42.5208 85.8532 42.5054C85.7684 42.49 85.6814 42.4915 85.5972 42.51C85.4322 42.51 81.4421 43.4789 80.6558 49.6507C80.6336 49.8227 80.6803 49.9964 80.7858 50.1343C80.8912 50.2721 81.0468 50.363 81.2188 50.387H81.3839Z" fill="#B55441"/>
<path d="M85.5871 47.1122C85.732 47.105 85.8697 47.0466 85.9754 46.9474C86.1047 46.8352 86.1843 46.6765 86.197 46.506C86.2098 46.3355 86.1545 46.1668 86.0434 46.0367C85.6031 45.5788 85.0519 45.242 84.4431 45.0587C83.8343 44.8754 83.1884 44.8518 82.5679 44.9903C82.3979 45.025 82.2488 45.1256 82.1532 45.2701C82.0576 45.4145 82.0234 45.591 82.0582 45.7606C82.0929 45.9302 82.1938 46.079 82.3385 46.1744C82.4833 46.2698 82.6601 46.3039 82.83 46.2692C83.2237 46.1788 83.6339 46.1891 84.0226 46.2992C84.4113 46.4093 84.7658 46.6156 85.0532 46.899C85.1211 46.9713 85.2042 47.0279 85.2964 47.0647C85.3887 47.1016 85.4879 47.1177 85.5871 47.1122Z" fill="#B55441"/>
<path d="M56.5017 58.6032C58.257 58.5324 59.9802 58.1109 61.5693 57.3637C63.1585 56.6164 64.5813 55.5586 65.7536 54.2529C65.841 54.1006 65.8726 53.9227 65.8429 53.7498C65.8132 53.5768 65.7241 53.4195 65.5909 53.3049C65.4577 53.1903 65.2888 53.1256 65.113 53.1218C64.9372 53.1179 64.7655 53.1753 64.6274 53.284C59.6472 58.8745 52.0069 56.7623 51.9195 56.743C51.8222 56.7072 51.7185 56.6924 51.615 56.6993C51.5116 56.7063 51.4108 56.735 51.3192 56.7834C51.2276 56.8318 51.1473 56.899 51.0834 56.9805C51.0196 57.062 50.9737 57.1561 50.9487 57.2565C50.9159 57.3537 50.9033 57.4566 50.9117 57.5589C50.9201 57.6611 50.9492 57.7606 50.9973 57.8513C51.0455 57.9419 51.1116 58.0218 51.1917 58.0861C51.2718 58.1505 51.3642 58.1978 51.4632 58.2254C53.112 58.617 54.8128 58.7446 56.5017 58.6032Z" fill="#B55441"/>
<path d="M58.6763 61.9555C59.7269 61.9148 60.7581 61.66 61.7064 61.2067C62.6547 60.7535 63.5001 60.1115 64.1905 59.3201C64.3157 59.151 64.3696 58.9396 64.3406 58.7314C64.3115 58.5231 64.2019 58.3345 64.0352 58.2059C63.9525 58.143 63.8582 58.0972 63.7576 58.0709C63.6571 58.0447 63.5523 58.0386 63.4494 58.053C63.3465 58.0674 63.2475 58.1021 63.1581 58.1549C63.0686 58.2078 62.9906 58.2778 62.9285 58.3609C62.1448 59.2241 61.142 59.8598 60.0261 60.201C58.9102 60.5421 57.7226 60.5758 56.589 60.2987C56.3903 60.2812 56.1922 60.3389 56.034 60.4602C55.8759 60.5816 55.7691 60.7578 55.7349 60.954C55.7007 61.1502 55.7416 61.352 55.8494 61.5195C55.9573 61.687 56.1242 61.8081 56.3172 61.8586C57.0965 61.988 57.8889 62.0206 58.6763 61.9555Z" fill="#B55441"/>
<path d="M57.4241 51.4916C57.5296 51.4863 57.6327 51.4585 57.7265 51.41C57.8203 51.3616 57.9026 51.2935 57.9678 51.2106C58.088 51.0526 58.142 50.8541 58.1185 50.6571C58.0949 50.4601 57.9956 50.2799 57.8416 50.1545L55.8999 48.614L57.6377 48.1877C57.7773 48.1498 57.9033 48.0733 58.0013 47.967C58.0992 47.8607 58.165 47.729 58.191 47.587L58.958 42.8491C58.9746 42.7524 58.9719 42.6534 58.9501 42.5577C58.9284 42.462 58.8879 42.3716 58.8311 42.2915C58.7743 42.2114 58.7023 42.1433 58.6191 42.091C58.5359 42.0387 58.4433 42.0033 58.3464 41.9868C58.2495 41.9702 58.1503 41.9729 58.0544 41.9946C57.9586 42.0163 57.8679 42.0567 57.7877 42.1134C57.7075 42.1701 57.6392 42.242 57.5868 42.325C57.5344 42.408 57.4989 42.5005 57.4824 42.5972L56.7445 46.87L53.9874 47.5482C53.8501 47.5807 53.7249 47.6518 53.6268 47.7531C53.5287 47.8544 53.4618 47.9817 53.4341 48.1198C53.402 48.2571 53.4106 48.4007 53.4589 48.5332C53.5071 48.6657 53.593 48.7812 53.7059 48.8659L56.8999 51.3559C57.0515 51.465 57.2385 51.5134 57.4241 51.4916Z" fill="#B55441"/>
<path d="M44.7547 34.5554C44.7547 34.9042 44.7547 35.2627 44.7547 35.6212V35.6696C44.7547 36.1831 44.7547 36.7063 44.7547 37.2392C48.0167 34.662 48.3176 26.2714 48.3176 26.2714C48.3176 26.2714 49.3467 27.9766 53.3756 28.3448C54.45 28.5186 55.552 28.3734 56.5445 27.9272C57.5369 27.4811 58.3761 26.7536 58.9577 25.8354C59.7153 26.5921 60.6285 27.1755 61.6343 27.5452C62.64 27.915 63.7143 28.0622 64.7826 27.9766C68.6659 27.8313 69.7435 26.0388 69.7435 26.0388C70.2677 29.8078 74.3451 29.9144 74.3451 29.9144C74.344 31.1431 74.6485 32.3529 75.2314 33.4352C75.8143 34.5175 76.6573 35.4384 77.6848 36.1153C75.6849 38.6247 78.4905 41.9286 78.4905 41.9286H80.6263C81.0507 40.7828 81.8698 39.8251 82.9371 39.2269C84.0043 38.6287 85.2499 38.4289 86.4512 38.6635C86.4468 36.5578 86.3106 34.4544 86.0435 32.3657C83.9465 16.0205 49.2496 14.5478 45.2013 28.0444C45.2013 28.1995 45.1431 28.3545 45.1236 28.5192C44.8547 30.5197 44.7314 32.5371 44.7547 34.5554Z" fill="#2C2C2C"/>
<path d="M63.5112 35.8633V38.6925C63.5112 38.6925 68.7051 37.7236 72.2486 39.9423L72.6563 37.5783C72.6563 37.5783 69.6371 34.6231 63.5112 35.8633Z" fill="#2C2C2C"/>
<path d="M54.5796 35.8633V38.6925C54.5796 38.6925 49.3858 37.7236 45.8423 39.9423L45.4346 37.5783C45.4346 37.5783 48.4247 34.6231 54.5796 35.8633Z" fill="#2C2C2C"/>
<path d="M102.363 79.8606C102.363 79.8606 113.323 100.45 115.77 113.685C118.216 126.92 117.08 162.914 117.08 162.914C114.107 163.804 110.928 163.726 108.003 162.691C108.003 162.691 107.032 129.012 104.751 121.998C102.469 114.983 91.5574 96.8065 91.5574 96.8065C91.5574 96.8065 89.1692 85.9355 102.363 79.8606Z" fill="#FB9064"/>
</g>
<defs>
<filter id="filter0_d" x="20" y="24" width="100" height="100" filterUnits="userSpaceOnUse" color-interpolation-filters="sRGB">
<feFlood flood-opacity="0" result="BackgroundImageFix"/>
<feColorMatrix in="SourceAlpha" type="matrix" values="0 0 0 0 0 0 0 0 0 0 0 0 0 0 0 0 0 0 127 0"/>
<feOffset dy="4"/>
<feGaussianBlur stdDeviation="20"/>
<feColorMatrix type="matrix" values="0 0 0 0 0 0 0 0 0 0 0 0 0 0 0 0 0 0 0.16 0"/>
<feBlend mode="normal" in2="BackgroundImageFix" result="effect1_dropShadow"/>
<feBlend mode="normal" in="SourceGraphic" in2="effect1_dropShadow" result="shape"/>
</filter>
</defs>
</svg>
