<svg width="50" height="50" viewBox="0 0 50 50" fill="none" xmlns="http://www.w3.org/2000/svg">
<path d="M29.5488 37.5H25L15.625 32.3329L4.17578 36.5435L7.30275 42.7351L14.6701 39.6592C21.5625 43.7753 25.7575 45.8333 27.2553 45.8333C28.7531 45.8333 34.9457 43.0556 45.8333 37.5" stroke="#595959" stroke-width="2" stroke-linecap="round" stroke-linejoin="round"/>
<path fill-rule="evenodd" clip-rule="evenodd" d="M30.2 28.1123C30.2 25.1011 30.2 23.4794 30.2 23.247C31.3458 22.7719 32.8486 22.0761 33.7122 21.2125C35.4086 19.516 36.458 17.1722 36.458 14.5834C36.458 9.40571 32.2607 5.20837 27.083 5.20837C21.9053 5.20837 17.708 9.40571 17.708 14.5834C17.708 17.1722 18.7574 19.516 20.4538 21.2125C21.3174 22.0761 22.8122 22.7719 23.958 23.247C23.9638 23.5964 23.9638 25.2182 23.958 28.1123H30.2Z" fill="#595959" stroke="#595959" stroke-width="2" stroke-linejoin="round"/>
<path d="M12.5 21.875L13.5417 20.8334" stroke="#595959" stroke-width="2" stroke-linecap="round"/>
<path d="M41.6667 21.875L40.625 20.8334" stroke="#595959" stroke-width="2" stroke-linecap="round"/>
<path d="M15.6247 5.20829L14.583 4.16663" stroke="#595959" stroke-width="2" stroke-linecap="round"/>
<path d="M38.542 5.20829L39.5837 4.16663" stroke="#595959" stroke-width="2" stroke-linecap="round"/>
<path d="M42.7087 12.5H41.667" stroke="#595959" stroke-width="2" stroke-linecap="round"/>
<path d="M12.4997 12.5H11.458" stroke="#595959" stroke-width="2" stroke-linecap="round"/>
</svg>
