<svg width="140" height="140" viewBox="0 0 140 140" fill="none" xmlns="http://www.w3.org/2000/svg">
<path d="M0 70C0 31.3401 31.3401 0 70 0C108.66 0 140 31.3401 140 70C140 108.66 108.66 140 70 140C31.3401 140 0 108.66 0 70Z" fill="white"/>
<path d="M0 70C0 31.3401 31.3401 0 70 0C108.66 0 140 31.3401 140 70C140 108.66 108.66 140 70 140C31.3401 140 0 108.66 0 70Z" fill="#F6F8F7"/>
<g filter="url(#filter0_d)">
<path d="M60 68C60 63.5817 63.5817 60 68 60H72C76.4183 60 80 63.5817 80 68V80H68C63.5817 80 60 76.4183 60 72V68Z" fill="white"/>
</g>
<path d="M0 70C0 31.3401 31.3401 0 70 0C108.66 0 140 31.3401 140 70C140 108.66 108.66 140 70 140C31.3401 140 0 108.66 0 70Z" fill="white"/>
<path d="M0 70C0 31.3401 31.3401 0 70 0C108.66 0 140 31.3401 140 70C140 108.66 108.66 140 70 140C31.3401 140 0 108.66 0 70Z" fill="#F6F8F7"/>
<mask id="mask0" mask-type="alpha" maskUnits="userSpaceOnUse" x="0" y="0" width="140" height="140">
<circle cx="70" cy="70" r="70" fill="white"/>
</mask>
<g mask="url(#mask0)">
<g opacity="0.1">
<path d="M-12.6578 245.967C-7.70878 318.991 84.2055 348.593 129.578 291.239C138.848 279.533 141.061 251.287 138.664 236.394C128.998 176.316 98.2695 170.211 121.207 132.227C144.144 94.2425 146.261 25.2987 82.9585 25.8413C19.6557 26.384 60.4657 127.818 16.8429 156.19C-3.10775 169.175 -15.229 207.934 -12.6578 245.967Z" fill="white"/>
<path d="M-12.6578 245.967C-7.70878 318.991 84.2055 348.593 129.578 291.239C138.848 279.533 141.061 251.287 138.664 236.394C128.998 176.316 98.2695 170.211 121.207 132.227C144.144 94.2425 146.261 25.2987 82.9585 25.8413C19.6557 26.384 60.4657 127.818 16.8429 156.19C-3.10775 169.175 -15.229 207.934 -12.6578 245.967Z" fill="#F6F8F7"/>
</g>
<g opacity="0.1">
<path d="M11.3424 139.814C13.2153 140.455 15.2391 140.504 17.1406 139.954C19.0421 139.405 20.7295 138.284 21.9751 136.742C26.0928 131.742 32.6657 121.636 30.6745 109.882C27.881 93.0796 6.64475 106.49 4.98219 125.386C4.18958 134.775 7.65968 138.458 11.3424 139.814Z" fill="white"/>
<path d="M11.3424 139.814C13.2153 140.455 15.2391 140.504 17.1406 139.954C19.0421 139.405 20.7295 138.284 21.9751 136.742C26.0928 131.742 32.6657 121.636 30.6745 109.882C27.881 93.0796 6.64475 106.49 4.98219 125.386C4.18958 134.775 7.65968 138.458 11.3424 139.814Z" fill="#F6F8F7"/>
</g>
<g opacity="0.1">
<path d="M33.9515 95.5991C34.9305 95.2658 35.7837 94.6391 36.3957 93.8038C37.0077 92.9684 37.3489 91.9647 37.3733 90.9286C37.4796 87.5468 36.9673 81.2386 32.4146 77.0429C25.9094 71.0158 21.4243 83.3414 26.7503 91.665C29.4181 95.822 32.0183 96.2096 33.9515 95.5991Z" fill="white"/>
<path d="M33.9515 95.5991C34.9305 95.2658 35.7837 94.6391 36.3957 93.8038C37.0077 92.9684 37.3489 91.9647 37.3733 90.9286C37.4796 87.5468 36.9673 81.2386 32.4146 77.0429C25.9094 71.0158 21.4243 83.3414 26.7503 91.665C29.4181 95.822 32.0183 96.2096 33.9515 95.5991Z" fill="#F6F8F7"/>
</g>
<path d="M61.1907 86.5197C61.1907 86.5197 55.2847 126.481 50.5581 137.053C50.5581 137.053 42.5256 163.874 33.3139 176.142C31.8468 176.19 30.388 175.903 29.0482 175.302C27.7083 174.701 26.5226 173.802 25.5811 172.673C25.5811 172.673 33.0626 143.69 38.2339 131.83C38.2339 131.83 49.4368 81.8492 53.6029 76.0449C53.6125 76.0449 59.9534 77.2077 61.1907 86.5197Z" fill="#008FE5"/>
<path d="M99.5357 179.63C81.6149 188.593 61.8382 187.741 44.333 178.526C50.1326 148.942 52.6748 113.894 53.6124 76.0449L71.6492 71.1999C76.5174 69.8892 81.6522 69.9529 86.4865 71.3841L106.273 77.198L96.8002 136.888L99.5357 179.63Z" fill="#008FE5"/>
<path d="M90.6334 52.1882H94.4998C94.8284 52.9247 96.433 57.1689 91.4646 58.2347C91.3359 58.8443 91.0692 59.4161 90.6852 59.906C90.3012 60.3959 89.8101 60.7909 89.2498 61.0606C88.6894 61.3302 88.0748 61.4672 87.4533 61.4611C86.8318 61.4551 86.22 61.306 85.665 61.0254C86.97 58.0119 89.0385 55.0468 90.6334 52.1882Z" fill="#A5A5A5"/>
<path d="M85.3071 58.6611L85.0847 64.1359L85.0171 65.9673L84.7464 72.5565C84.7464 72.5565 78.6472 76.2774 71.8713 73.7193L71.6876 71.9848L71.5136 70.3084L70.8467 63.9421L85.3071 58.6611Z" fill="#F9BB9C"/>
<path d="M85.3071 58.6611L85.0847 64.1359L85.0171 65.9673C81.3876 69.437 76.6849 71.56 71.6876 71.9848L71.5136 70.3084L70.8467 63.9421L85.3071 58.6611Z" fill="#F99C80"/>
<path d="M59.6532 39.572C59.6532 39.572 57.6523 34.1941 52.655 36.5585C47.6576 38.9228 49.5522 53.8841 58.2613 52.6534C60.0384 48.5355 60.5239 43.9731 59.6532 39.572Z" fill="#F99C80"/>
<path d="M55.8942 47.7598C55.9856 47.7561 56.0754 47.7343 56.1585 47.6958C56.2415 47.6572 56.3161 47.6026 56.378 47.5351C56.44 47.4676 56.488 47.3885 56.5195 47.3024C56.5509 47.2162 56.5651 47.1247 56.5612 47.0331C56.3521 44.3916 55.211 41.9112 53.3424 40.037C53.2127 39.9115 53.0394 39.8413 52.8591 39.8413C52.6788 39.8413 52.5055 39.9115 52.3758 40.037C52.2483 40.1658 52.1768 40.34 52.1768 40.5215C52.1768 40.703 52.2483 40.8771 52.3758 41.006C53.9742 42.6336 54.9583 44.7677 55.1596 47.0428C55.1568 47.1394 55.174 47.2355 55.2102 47.3251C55.2463 47.4147 55.3007 47.4957 55.3698 47.5631C55.4388 47.6305 55.5211 47.6828 55.6114 47.7167C55.7017 47.7506 55.798 47.7653 55.8942 47.7598Z" fill="#DC795F"/>
<path d="M53.2253 46.1126C53.3912 46.1122 53.5515 46.0525 53.6773 45.9441C53.8032 45.8357 53.8862 45.6859 53.9116 45.5215C53.9722 45.182 54.1114 44.8614 54.3178 44.5854C54.5243 44.3095 54.7923 44.0858 55.1005 43.9324C55.1855 43.8986 55.2631 43.8484 55.3288 43.7847C55.3945 43.7209 55.4471 43.6448 55.4834 43.5606C55.5198 43.4765 55.5392 43.386 55.5407 43.2943C55.5422 43.2027 55.5256 43.1116 55.492 43.0263C55.4583 42.9411 55.4083 42.8633 55.3447 42.7974C55.281 42.7316 55.2051 42.6789 55.1212 42.6425C55.0372 42.606 54.947 42.5865 54.8555 42.5851C54.7641 42.5836 54.6732 42.6002 54.5882 42.6339C54.054 42.877 53.5877 43.2481 53.2304 43.7145C52.873 44.1809 52.6356 44.7283 52.539 45.3083C52.5253 45.3994 52.5298 45.4922 52.552 45.5815C52.5743 45.6708 52.614 45.7548 52.6688 45.8287C52.7236 45.9025 52.7925 45.9648 52.8714 46.0119C52.9503 46.0589 53.0377 46.0899 53.1286 46.1029L53.2253 46.1126Z" fill="#DC795F"/>
<path d="M90.8365 52.8085C90.611 53.4545 90.3693 54.0843 90.1116 54.698C89.8699 55.26 89.6186 55.8124 89.3383 56.3647C82.8911 69.136 60.0309 69.0779 57.0054 55.7736C54.0283 42.6631 54.9272 26.5585 54.9272 26.5585L91.5712 26.0449C91.5712 26.0449 95.0606 40.5701 90.8365 52.8085Z" fill="#F9BB9C"/>
<path d="M90.8367 52.8084C90.6112 53.4544 90.3695 54.0842 90.1118 54.6979C88.9615 53.603 89.0775 51.0642 89.0775 51.0642C89.4131 51.8543 90.0449 52.4807 90.8367 52.8084Z" fill="#F99C80"/>
<path d="M77.749 41.7523C78.6939 41.7523 79.4599 40.9844 79.4599 40.0371C79.4599 39.0899 78.6939 38.322 77.749 38.322C76.8041 38.322 76.0381 39.0899 76.0381 40.0371C76.0381 40.9844 76.8041 41.7523 77.749 41.7523Z" fill="#32324C"/>
<path d="M62.1963 40.0081C62.1963 40.3473 62.2966 40.6789 62.4846 40.961C62.6726 41.243 62.9398 41.4628 63.2524 41.5927C63.5651 41.7225 63.9091 41.7564 64.241 41.6903C64.5728 41.6241 64.8777 41.4607 65.1169 41.2209C65.3562 40.981 65.5192 40.6754 65.5852 40.3427C65.6512 40.01 65.6173 39.6651 65.4878 39.3517C65.3583 39.0383 65.139 38.7705 64.8577 38.582C64.5763 38.3936 64.2456 38.293 63.9072 38.293C63.4534 38.293 63.0182 38.4737 62.6974 38.7953C62.3765 39.117 62.1963 39.5532 62.1963 40.0081Z" fill="#32324C"/>
<path d="M65.8493 32.353C65.8493 32.353 67.3958 34.0585 66.8159 34.9693C66.8159 34.9693 61.0163 36.4906 57.9908 38.6418C57.7915 37.8857 57.8463 37.0848 58.1469 36.3631C58.4474 35.6414 58.9769 35.0391 59.6534 34.6495C61.6293 33.6605 63.7068 32.8905 65.8493 32.353Z" fill="#A5A5A5"/>
<path d="M75.506 32.353C75.506 32.353 74.1141 34.1747 74.7327 35.0371C74.7327 35.0371 80.629 36.0546 83.7994 37.9441C83.9395 37.1833 83.8261 36.3974 83.4768 35.7075C83.1275 35.0176 82.5616 34.462 81.8662 34.1263C79.8176 33.3028 77.6846 32.7081 75.506 32.353Z" fill="#A5A5A5"/>
<path d="M71.2247 49.9597C71.9582 49.953 72.6859 49.8287 73.3802 49.5914C73.4671 49.5631 73.5475 49.5175 73.6166 49.4576C73.6857 49.3976 73.7422 49.3244 73.7827 49.2423C73.8232 49.1602 73.847 49.0707 73.8526 48.9793C73.8581 48.8878 73.8454 48.7961 73.8152 48.7097C73.7557 48.5352 73.6299 48.3915 73.4651 48.3098C73.3003 48.2281 73.1099 48.2151 72.9356 48.2736C72.9356 48.2736 70.0358 49.1845 69.4751 47.6825C68.9145 46.1806 69.9101 42.0914 70.6544 39.7949C70.6864 39.7067 70.7004 39.6129 70.6955 39.5192C70.6905 39.4254 70.6667 39.3336 70.6255 39.2493C70.5844 39.165 70.5266 39.0898 70.4558 39.0284C70.3849 38.967 70.3025 38.9205 70.2133 38.8918C70.1241 38.8631 70.0301 38.8527 69.9368 38.8613C69.8435 38.8699 69.753 38.8973 69.6705 38.9418C69.588 38.9863 69.5154 39.0471 69.4569 39.1204C69.3984 39.1937 69.3553 39.2781 69.3301 39.3686C69.1658 40.0081 67.2809 45.8221 68.1992 48.1864C68.4516 48.7648 68.8805 49.248 69.4241 49.5666C69.9677 49.8852 70.5981 50.0228 71.2247 49.9597Z" fill="#F99C80"/>
<path d="M87.869 39.3199C87.869 39.3199 91.2038 34.3005 96.2011 36.6455C101.198 38.9905 99.3039 53.9614 90.5852 52.7405C90.5852 52.7405 86.3708 46.5001 87.869 39.3199Z" fill="#F9BB9C"/>
<path d="M92.6145 47.76C92.7941 47.7601 92.9669 47.6906 93.0966 47.566C93.2263 47.4414 93.3029 47.2713 93.3104 47.0914C93.5149 44.8171 94.4985 42.684 96.0942 41.0545C96.2194 40.9245 96.2894 40.7508 96.2894 40.57C96.2894 40.3893 96.2194 40.2156 96.0942 40.0855C95.9634 39.9622 95.7905 39.8936 95.6109 39.8936C95.4313 39.8936 95.2585 39.9622 95.1276 40.0855C93.2633 41.9627 92.1228 44.4414 91.9088 47.0817C91.9049 47.1733 91.9191 47.2648 91.9505 47.351C91.982 47.4371 92.03 47.5162 92.092 47.5837C92.1539 47.6512 92.2285 47.7058 92.3116 47.7443C92.3946 47.7829 92.4844 47.8047 92.5758 47.8084L92.6145 47.76Z" fill="#F99C80"/>
<path d="M95.2637 46.1127H95.3604C95.4513 46.0996 95.5387 46.0687 95.6177 46.0216C95.6966 45.9746 95.7654 45.9123 95.8202 45.8384C95.875 45.7646 95.9147 45.6806 95.937 45.5913C95.9593 45.502 95.9637 45.4091 95.95 45.3181C95.8559 44.7371 95.6194 44.1887 95.2618 43.7219C94.9041 43.2551 94.4365 42.8846 93.9008 42.6437C93.7291 42.5756 93.5374 42.5786 93.3679 42.6522C93.1984 42.7258 93.065 42.8639 92.9971 43.0361C92.9291 43.2083 92.9322 43.4005 93.0056 43.5704C93.079 43.7403 93.2168 43.874 93.3885 43.9421C93.6965 44.0934 93.9645 44.3152 94.1711 44.5896C94.3776 44.864 94.5168 45.1832 94.5775 45.5216C94.6028 45.6859 94.6859 45.8358 94.8117 45.9442C94.9375 46.0525 95.0978 46.1123 95.2637 46.1127Z" fill="#F99C80"/>
<path d="M71.8039 62.3626C73.089 62.37 74.3496 62.0104 75.4383 61.3258C75.4904 61.294 75.5357 61.2522 75.5716 61.2029C75.6076 61.1535 75.6335 61.0975 75.6479 61.0381C75.6622 60.9787 75.6648 60.9171 75.6553 60.8567C75.6459 60.7963 75.6247 60.7384 75.593 60.6862C75.5271 60.5802 75.4222 60.5044 75.3009 60.4754C75.1797 60.4464 75.0519 60.4664 74.9454 60.5312C74.0104 61.0905 72.9476 61.3994 71.8592 61.4282C70.7708 61.4571 69.6933 61.2049 68.7301 60.6959C68.6235 60.6363 68.4978 60.6212 68.3802 60.6539C68.2627 60.6865 68.1626 60.7643 68.1018 60.8703C68.0693 60.922 68.0477 60.9797 68.0384 61.04C68.0291 61.1004 68.0323 61.162 68.0477 61.221C68.0631 61.2801 68.0904 61.3353 68.128 61.3833C68.1656 61.4314 68.2126 61.4711 68.2661 61.5002C69.3586 62.0698 70.5725 62.3657 71.8039 62.3626Z" fill="#F99C80"/>
<path d="M88.5934 27.1107C88.5934 27.1107 87.0469 28.4479 87.5398 31.5099C88.0328 34.5719 88.6611 35.444 88.6611 35.444C88.0774 37.0875 87.9472 38.8584 88.2841 40.57L88.3421 40.4537C88.7437 39.4585 89.3408 38.5544 90.0981 37.7953C90.8553 37.0362 91.7571 36.4376 92.7498 36.0351L92.9238 35.9672C92.9238 35.9672 98.5881 35.7056 98.9168 29.3103C99.2454 22.9149 95.0503 22.1397 95.0503 22.1397C95.0503 22.1397 95.495 14.3878 90.4977 13.0215C89.1247 12.5924 87.6671 12.5112 86.2552 12.7851C84.8434 13.0591 83.5212 13.6796 82.4072 14.5913C82.1337 13.3262 81.451 12.1872 80.4651 11.3513C79.4792 10.5154 78.2454 10.0295 76.9555 9.96918C72.3255 9.5622 71.2816 12.9634 71.2816 12.9634C71.2816 12.9634 70.75 9.40716 64.1481 9.00019C60.2816 8.76763 58.2711 12.3238 58.2711 12.3238C58.2711 12.3238 57.3045 9.81414 51.4082 10.5893C46.1016 11.287 44.642 20.6959 50.4416 22.5273C49.9226 22.7252 49.4521 23.0329 49.0623 23.4294C48.6724 23.8259 48.3724 24.3019 48.1825 24.8251C47.9927 25.3482 47.9175 25.9063 47.962 26.4612C48.0066 27.0161 48.1699 27.5549 48.4408 28.0409C50.2773 32.1397 54.569 30.8897 54.569 30.8897C54.569 30.8897 59.1121 31.132 60.8616 27.9827C60.8616 27.9827 62.9398 30.9866 67.8598 30.0661C72.7798 29.1455 74.2877 27.2172 74.2877 27.2172C74.2877 27.2172 77.5452 30.2211 81.2086 29.1552C84.872 28.0893 84.7367 25.6572 88.5934 27.1107Z" fill="#A5A5A5"/>
<path d="M53.3222 29.0003C53.3222 29.0003 53.2256 37.5856 55.0041 41.665L55.8837 37.1011L55.6324 34.1359C55.6324 34.1359 57.6623 31.1127 56.8406 29.5042C56.019 27.8956 53.3222 29.0003 53.3222 29.0003Z" fill="#A5A5A5"/>
<path d="M71.5525 50.599H71.8811H72.0648H72.3064H72.7994L73.2924 50.5215C73.9444 50.4208 74.5899 50.2817 75.2256 50.1049C76.544 49.7384 77.8358 49.282 79.092 48.7386L81.1219 47.9052L81.2572 47.8471L81.4892 47.7696C81.6507 47.7174 81.8154 47.6753 81.9821 47.6436C82.3289 47.5749 82.6835 47.5554 83.0357 47.5855C83.8104 47.6393 84.5481 47.9378 85.1429 48.4382C85.7257 48.9319 86.1523 49.5851 86.3705 50.318C86.4183 50.4837 86.4571 50.652 86.4865 50.8219V51.1417C86.4865 51.3549 86.5542 51.568 86.5735 51.7715C86.6632 52.5919 86.6955 53.4176 86.6702 54.2425C86.6417 55.0603 86.5643 55.8758 86.4382 56.6843C86.3139 57.493 86.1362 58.2926 85.9065 59.0777C85.6881 59.8671 85.4168 60.6408 85.0946 61.3936C85.0173 61.5777 84.9399 61.7715 84.8433 61.9556L84.7176 62.2366L84.65 62.3723V62.4401C84.3865 62.9346 84.0617 63.3937 83.6834 63.8064C83.0304 64.5432 82.2673 65.1741 81.4215 65.6766C80.6709 66.1363 79.8779 66.5225 79.0533 66.8297C77.4987 67.416 75.8737 67.7939 74.2203 67.9537C72.6121 68.1078 70.9921 68.0915 69.3873 67.9052C68.567 67.8117 67.7534 67.666 66.9515 67.4692C66.1026 67.2689 65.2743 66.9899 64.477 66.6359C64.0425 66.4401 63.6226 66.2134 63.2204 65.9576C62.7808 65.6794 62.3725 65.3545 62.0025 64.9886C61.3777 64.2942 60.8598 63.5104 60.4656 62.663C60.0688 61.9009 59.7451 61.1028 59.499 60.2793C59.2622 59.4992 59.0845 58.7024 58.9673 57.8956C58.8389 57.1066 58.7582 56.3106 58.7257 55.5118C58.6957 54.6966 58.728 53.8803 58.8223 53.07C58.8699 52.6426 58.9441 52.2186 59.0447 51.8006C59.1617 51.2994 59.3471 50.8169 59.5956 50.3665C59.7851 50.0414 60.0344 49.7553 60.3302 49.5235C60.5385 49.3624 60.7743 49.2409 61.0262 49.1649C61.1591 49.1256 61.2948 49.0965 61.4322 49.0777H61.7801C62.0701 49.0777 62.2538 49.0777 62.4568 49.0777L63.0271 49.1456C64.5156 49.349 65.9269 49.5913 67.3864 49.8335L69.542 50.2114L70.6149 50.4052L71.1465 50.5021L71.4172 50.5506H71.5235L71.5525 50.599ZM82.5234 52.0138C82.5234 51.8587 82.5234 51.7037 82.5234 51.5583V51.4421C82.4364 51.4421 81.1895 51.9169 80.4936 52.1591C79.0582 52.6901 77.5889 53.1239 76.0955 53.4576C75.3267 53.6275 74.549 53.7536 73.766 53.8355L73.1764 53.8936H72.5868H72.2871H71.1755C67.9471 53.8936 62.2731 51.9556 62.0895 51.9556V52.4014C62.0496 52.6936 62.0302 52.9882 62.0315 53.2832C62.0385 53.9323 62.0934 54.5801 62.1958 55.2211C62.2926 55.8762 62.4347 56.5238 62.6211 57.1591C62.9377 58.3638 63.4469 59.5092 64.129 60.5506C64.4101 60.9736 64.7559 61.3497 65.1536 61.6649C65.3168 61.7883 65.4916 61.8954 65.6756 61.9847C65.9023 62.0909 66.1346 62.1847 66.3715 62.2657C66.9213 62.4432 67.4834 62.5792 68.0534 62.6727C68.6624 62.7599 69.2906 62.818 69.9189 62.8568C71.2095 62.911 72.5024 62.8624 73.7853 62.7114C75.0335 62.5835 76.2687 62.3501 77.4778 62.0138C78.0101 61.8324 78.5246 61.6021 79.0147 61.3258C79.4395 61.1207 79.8332 60.8564 80.1843 60.5409C80.3033 60.4192 80.4101 60.2862 80.5032 60.1436V60.0952V59.9886L80.6192 59.7851C80.6966 59.6397 80.7642 59.5041 80.8319 59.3587C81.1203 58.7934 81.3659 58.2071 81.5665 57.6049C81.7799 57.0064 81.9542 56.3946 82.0885 55.7735C82.2234 55.1534 82.3203 54.5256 82.3784 53.8936C82.4702 53.2711 82.5187 52.643 82.5234 52.0138Z" fill="#A5A5A5"/>
<path d="M79.2077 53.8936C79.0652 54.5632 78.8446 55.2136 78.5504 55.8315C78.3582 56.2612 78.1285 56.673 77.8641 57.0622C77.239 58.062 76.3646 58.881 75.3271 59.4384C74.2897 59.9958 73.1251 60.2722 71.9485 60.2404C70.7082 60.3177 69.4698 60.061 68.3617 59.4971C67.2536 58.9331 66.3161 58.0824 65.6462 57.0331C65.3958 56.6335 65.1822 56.2119 65.0083 55.7734C64.7539 55.1721 64.5785 54.5402 64.4863 53.8936C69.3 55.2511 74.394 55.2511 79.2077 53.8936Z" fill="white"/>
<path d="M69.6775 57.2269C68.3311 57.3322 66.9769 57.2671 65.6467 57.0331C65.3963 56.6336 65.1828 56.2119 65.0088 55.7734C66.4813 56.4956 68.056 56.9858 69.6775 57.2269Z" fill="#E2E2E2"/>
<path d="M78.5507 55.822C78.359 56.255 78.1294 56.6701 77.8644 57.0623C76.5868 57.272 75.2888 57.3273 73.998 57.2271C75.5784 56.995 77.1138 56.5211 78.5507 55.822Z" fill="#E2E2E2"/>
<path d="M95.96 91.3063C95.96 91.3063 99.7104 118.564 103.838 129.407C103.838 129.407 105.075 144.126 111.097 180.609C111.097 180.609 116.172 183.361 119.796 179.64C119.796 179.64 120.995 141.142 117.941 127.527C117.941 127.527 110.121 83.2346 106.341 77.1396C106.274 77.2172 97.7578 82.1009 95.96 91.3063Z" fill="#008FE5"/>
</g>
<defs>
<filter id="filter0_d" x="20" y="24" width="100" height="100" filterUnits="userSpaceOnUse" color-interpolation-filters="sRGB">
<feFlood flood-opacity="0" result="BackgroundImageFix"/>
<feColorMatrix in="SourceAlpha" type="matrix" values="0 0 0 0 0 0 0 0 0 0 0 0 0 0 0 0 0 0 127 0"/>
<feOffset dy="4"/>
<feGaussianBlur stdDeviation="20"/>
<feColorMatrix type="matrix" values="0 0 0 0 0 0 0 0 0 0 0 0 0 0 0 0 0 0 0.16 0"/>
<feBlend mode="normal" in2="BackgroundImageFix" result="effect1_dropShadow"/>
<feBlend mode="normal" in="SourceGraphic" in2="effect1_dropShadow" result="shape"/>
</filter>
</defs>
</svg>
