<svg width="30" height="30" viewBox="0 0 30 30" fill="none" xmlns="http://www.w3.org/2000/svg">
<path d="M14.9999 29.1673C7.17588 29.1673 0.833252 22.8247 0.833252 15.0007C0.833252 7.17662 7.17588 0.833984 14.9999 0.833984C22.824 0.833984 29.1666 7.17662 29.1666 15.0007C29.158 22.8211 22.8204 29.1587 14.9999 29.1673ZM14.9999 3.66732C8.74069 3.66732 3.66659 8.74142 3.66659 15.0007C3.66659 21.2599 8.74069 26.334 14.9999 26.334C21.2591 26.334 26.3333 21.2599 26.3333 15.0007C26.3262 8.74434 21.2562 3.67434 14.9999 3.66732ZM14.9291 19.959L7.91659 12.9465L9.91975 10.9433L14.9291 15.9512L19.9384 10.9433L21.9416 12.9465L14.9291 19.959Z" fill="white"/>
<path d="M14.9999 29.1673C7.17588 29.1673 0.833252 22.8247 0.833252 15.0007C0.833252 7.17662 7.17588 0.833984 14.9999 0.833984C22.824 0.833984 29.1666 7.17662 29.1666 15.0007C29.158 22.8211 22.8204 29.1587 14.9999 29.1673ZM14.9999 3.66732C8.74069 3.66732 3.66659 8.74142 3.66659 15.0007C3.66659 21.2599 8.74069 26.334 14.9999 26.334C21.2591 26.334 26.3333 21.2599 26.3333 15.0007C26.3262 8.74434 21.2562 3.67434 14.9999 3.66732ZM14.9291 19.959L7.91659 12.9465L9.91975 10.9433L14.9291 15.9512L19.9384 10.9433L21.9416 12.9465L14.9291 19.959Z" fill="url(#paint0_linear)"/>
<defs>
<linearGradient id="paint0_linear" x1="0.833252" y1="0.833984" x2="29.1666" y2="29.1673" gradientUnits="userSpaceOnUse">
<stop stop-color="#008FE5"/>
<stop offset="1" stop-color="#00C09E"/>
</linearGradient>
</defs>
</svg>
