<svg width="32" height="37" viewBox="0 0 32 37" fill="none" xmlns="http://www.w3.org/2000/svg">
<path fill-rule="evenodd" clip-rule="evenodd" d="M18.2948 14.2304L14.5052 17.9432L13.0868 16.5656C12.2684 15.7688 10.9532 15.788 10.1564 16.6088C9.77002 17.0048 9.56362 17.5304 9.57082 18.0824C9.57802 18.6368 9.80122 19.1528 10.1972 19.5392L13.0652 22.328C13.454 22.7048 13.9676 22.9136 14.51 22.9136C15.0548 22.9136 15.5708 22.7024 15.9596 22.3208L21.1916 17.1944C21.5876 16.808 21.8084 16.2896 21.8132 15.7352C21.818 15.1808 21.6092 14.66 21.2204 14.264C20.426 13.4456 19.1108 13.4312 18.2948 14.2304ZM20.4836 16.4648L15.2516 21.5912C14.8556 21.9776 14.1764 21.98 13.7804 21.5936L10.9076 18.8048C10.706 18.608 10.5932 18.3464 10.5884 18.0656C10.5836 17.7848 10.6892 17.5184 10.886 17.3168C11.0924 17.1032 11.3684 16.9976 11.642 16.9976C11.906 16.9976 12.1724 17.096 12.3764 17.2952L14.15 19.0208C14.3468 19.2128 14.6636 19.2128 14.8604 19.0184L19.0076 14.9576C19.4228 14.552 20.0924 14.5592 20.498 14.972C20.6948 15.1736 20.8028 15.44 20.798 15.7208C20.7956 16.004 20.6828 16.2656 20.4836 16.4648ZM25.8596 10.0736C20.1524 9.58637 15.9716 5.97197 15.9308 5.93597C15.7388 5.76797 15.4508 5.76797 15.2588 5.93597C15.218 5.97197 11.0348 9.58637 5.32762 10.0736C5.09242 10.0928 4.90282 10.2704 4.86682 10.5032C4.84282 10.6544 2.70922 25.6544 15.3908 31.148C15.4556 31.1768 15.5252 31.1912 15.5924 31.1912C15.662 31.1912 15.7292 31.1768 15.794 31.148C28.4732 25.6544 26.3396 10.6544 26.318 10.5032C26.2844 10.2728 26.0948 10.0952 25.8596 10.0736ZM15.5948 30.1256C4.96762 25.3664 5.60122 13.3664 5.82922 11.048C10.7852 10.5008 14.486 7.85357 15.5948 6.97757C16.7012 7.85357 20.4044 10.5008 25.3604 11.048C25.5908 13.364 26.234 25.3616 15.5948 30.1256ZM29.7692 7.83197C29.7332 7.59917 29.5436 7.42157 29.3084 7.40237C21.6164 6.74717 15.986 1.87517 15.9308 1.82717C15.7388 1.65917 15.4508 1.65917 15.2588 1.82717C15.2036 1.87517 9.57082 6.74717 1.87882 7.40477C1.64362 7.42397 1.45402 7.60157 1.41802 7.83437C1.38682 8.03837 0.669217 12.9128 2.00842 18.7568C3.25162 24.1784 6.58282 31.4432 15.3908 35.2592C15.4556 35.288 15.5252 35.3024 15.5924 35.3024C15.662 35.3024 15.7292 35.288 15.794 35.2592C24.602 31.4432 27.9332 24.1784 29.1764 18.7568C30.518 12.9104 29.8004 8.03837 29.7692 7.83197ZM28.178 18.56C26.4572 26.0216 22.226 31.2944 15.5948 34.2344C8.96362 31.292 4.73002 26.0216 3.01162 18.56C1.91962 13.8248 2.23882 9.64637 2.37802 8.37917C9.20602 7.66877 14.2676 3.94157 15.5948 2.87117C16.922 3.94157 21.9836 7.66637 28.8116 8.37917C28.9484 9.64637 29.27 13.8248 28.178 18.56Z" fill="white"/>
<path fill-rule="evenodd" clip-rule="evenodd" d="M18.2948 14.2304L14.5052 17.9432L13.0868 16.5656C12.2684 15.7688 10.9532 15.788 10.1564 16.6088C9.77002 17.0048 9.56362 17.5304 9.57082 18.0824C9.57802 18.6368 9.80122 19.1528 10.1972 19.5392L13.0652 22.328C13.454 22.7048 13.9676 22.9136 14.51 22.9136C15.0548 22.9136 15.5708 22.7024 15.9596 22.3208L21.1916 17.1944C21.5876 16.808 21.8084 16.2896 21.8132 15.7352C21.818 15.1808 21.6092 14.66 21.2204 14.264C20.426 13.4456 19.1108 13.4312 18.2948 14.2304ZM20.4836 16.4648L15.2516 21.5912C14.8556 21.9776 14.1764 21.98 13.7804 21.5936L10.9076 18.8048C10.706 18.608 10.5932 18.3464 10.5884 18.0656C10.5836 17.7848 10.6892 17.5184 10.886 17.3168C11.0924 17.1032 11.3684 16.9976 11.642 16.9976C11.906 16.9976 12.1724 17.096 12.3764 17.2952L14.15 19.0208C14.3468 19.2128 14.6636 19.2128 14.8604 19.0184L19.0076 14.9576C19.4228 14.552 20.0924 14.5592 20.498 14.972C20.6948 15.1736 20.8028 15.44 20.798 15.7208C20.7956 16.004 20.6828 16.2656 20.4836 16.4648ZM25.8596 10.0736C20.1524 9.58637 15.9716 5.97197 15.9308 5.93597C15.7388 5.76797 15.4508 5.76797 15.2588 5.93597C15.218 5.97197 11.0348 9.58637 5.32762 10.0736C5.09242 10.0928 4.90282 10.2704 4.86682 10.5032C4.84282 10.6544 2.70922 25.6544 15.3908 31.148C15.4556 31.1768 15.5252 31.1912 15.5924 31.1912C15.662 31.1912 15.7292 31.1768 15.794 31.148C28.4732 25.6544 26.3396 10.6544 26.318 10.5032C26.2844 10.2728 26.0948 10.0952 25.8596 10.0736ZM15.5948 30.1256C4.96762 25.3664 5.60122 13.3664 5.82922 11.048C10.7852 10.5008 14.486 7.85357 15.5948 6.97757C16.7012 7.85357 20.4044 10.5008 25.3604 11.048C25.5908 13.364 26.234 25.3616 15.5948 30.1256ZM29.7692 7.83197C29.7332 7.59917 29.5436 7.42157 29.3084 7.40237C21.6164 6.74717 15.986 1.87517 15.9308 1.82717C15.7388 1.65917 15.4508 1.65917 15.2588 1.82717C15.2036 1.87517 9.57082 6.74717 1.87882 7.40477C1.64362 7.42397 1.45402 7.60157 1.41802 7.83437C1.38682 8.03837 0.669217 12.9128 2.00842 18.7568C3.25162 24.1784 6.58282 31.4432 15.3908 35.2592C15.4556 35.288 15.5252 35.3024 15.5924 35.3024C15.662 35.3024 15.7292 35.288 15.794 35.2592C24.602 31.4432 27.9332 24.1784 29.1764 18.7568C30.518 12.9104 29.8004 8.03837 29.7692 7.83197ZM28.178 18.56C26.4572 26.0216 22.226 31.2944 15.5948 34.2344C8.96362 31.292 4.73002 26.0216 3.01162 18.56C1.91962 13.8248 2.23882 9.64637 2.37802 8.37917C9.20602 7.66877 14.2676 3.94157 15.5948 2.87117C16.922 3.94157 21.9836 7.66637 28.8116 8.37917C28.9484 9.64637 29.27 13.8248 28.178 18.56Z" fill="#FA7C49"/>
</svg>
