<svg width="140" height="140" viewBox="0 0 140 140" fill="none" xmlns="http://www.w3.org/2000/svg">
<path d="M0 70C0 31.3401 31.3401 0 70 0C108.66 0 140 31.3401 140 70C140 108.66 108.66 140 70 140C31.3401 140 0 108.66 0 70Z" fill="white"/>
<path d="M0 70C0 31.3401 31.3401 0 70 0C108.66 0 140 31.3401 140 70C140 108.66 108.66 140 70 140C31.3401 140 0 108.66 0 70Z" fill="#F6F8F7"/>
<g filter="url(#filter0_d)">
<path d="M60 68C60 63.5817 63.5817 60 68 60H72C76.4183 60 80 63.5817 80 68V80H68C63.5817 80 60 76.4183 60 72V68Z" fill="white"/>
</g>
<path d="M0 70C0 31.3401 31.3401 0 70 0C108.66 0 140 31.3401 140 70C140 108.66 108.66 140 70 140C31.3401 140 0 108.66 0 70Z" fill="white"/>
<path d="M0 70C0 31.3401 31.3401 0 70 0C108.66 0 140 31.3401 140 70C140 108.66 108.66 140 70 140C31.3401 140 0 108.66 0 70Z" fill="#F6F8F7"/>
<mask id="mask0" mask-type="alpha" maskUnits="userSpaceOnUse" x="0" y="0" width="140" height="140">
<circle cx="70" cy="70" r="70" fill="white"/>
</mask>
<g mask="url(#mask0)">
<g opacity="0.1">
<path d="M-19.6517 251.033C-14.652 324.666 78.4006 354.507 124.398 296.686C133.786 284.875 136.048 256.4 133.601 241.373C123.796 180.839 92.6909 174.648 115.913 136.359C139.135 98.0692 141.3 28.5438 77.1773 29.0864C13.055 29.629 54.3923 131.912 10.1912 160.512C-9.98236 173.602 -22.2632 212.685 -19.6517 251.033Z" fill="white"/>
<path d="M-19.6517 251.033C-14.652 324.666 78.4006 354.507 124.398 296.686C133.786 284.875 136.048 256.4 133.601 241.373C123.796 180.839 92.6909 174.648 115.913 136.359C139.135 98.0692 141.3 28.5438 77.1773 29.0864C13.055 29.629 54.3923 131.912 10.1912 160.512C-9.98236 173.602 -22.2632 212.685 -19.6517 251.033Z" fill="#F6F8F7"/>
</g>
<g opacity="0.1">
<path d="M4.64849 143.964C6.54716 144.612 8.59941 144.664 10.5282 144.111C12.4569 143.558 14.1694 142.428 15.4342 140.873C19.6087 135.826 26.2685 125.633 24.2783 113.745C21.4533 96.8097 -0.050254 110.325 -1.74918 129.363C-2.59379 138.916 0.92056 142.627 4.64849 143.964Z" fill="white"/>
<path d="M4.64849 143.964C6.54716 144.612 8.59941 144.664 10.5282 144.111C12.4569 143.558 14.1694 142.428 15.4342 140.873C19.6087 135.826 26.2685 125.633 24.2783 113.745C21.4533 96.8097 -0.050254 110.325 -1.74918 129.363C-2.59379 138.916 0.92056 142.627 4.64849 143.964Z" fill="#F6F8F7"/>
</g>
<g opacity="0.1">
<path d="M27.5688 99.4257C28.561 99.0893 29.4252 98.4557 30.0437 97.6114C30.6621 96.7671 31.0047 95.753 31.0249 94.7074C31.1317 91.297 30.6171 84.9703 26.0058 80.717C19.4236 74.6326 14.8802 87.0631 20.278 95.4534C22.9477 99.6486 25.6271 100.104 27.5688 99.4257Z" fill="white"/>
<path d="M27.5688 99.4257C28.561 99.0893 29.4252 98.4557 30.0437 97.6114C30.6621 96.7671 31.0047 95.753 31.0249 94.7074C31.1317 91.297 30.6171 84.9703 26.0058 80.717C19.4236 74.6326 14.8802 87.0631 20.278 95.4534C22.9477 99.6486 25.6271 100.104 27.5688 99.4257Z" fill="#F6F8F7"/>
</g>
<path d="M84.158 62.2504C84.158 62.2504 110.516 60.5646 122.428 75.485C134.339 90.4055 124.194 153.837 110.632 159.446C97.0699 165.056 77.0905 162.295 72.0908 151.24C67.0911 140.186 69.9842 82.6061 84.158 62.2504Z" fill="#162D47"/>
<path d="M85.1089 70.1467C85.1089 70.1467 109.117 71.2609 115.913 83.2263C122.709 95.1918 118.437 142.908 106.855 150.213C95.2733 157.519 83.0993 153.246 74.7018 139.42C73.5951 113.9 75.925 90.2118 85.1089 70.1467Z" fill="#151A31"/>
<path d="M34.2477 123.608C35.4709 90.9288 49.4603 71.2222 49.4603 71.2222C57.1395 102.574 48.0235 119.84 45.4412 128.017C42.8588 136.194 19.8796 165.395 19.8796 165.395C18.2166 163.212 15.8851 161.63 13.2393 160.89C13.2393 160.89 20.7728 147.656 23.4328 142.734C26.0928 137.812 34.2477 123.608 34.2477 123.608Z" fill="#00C09E"/>
<path d="M79.6236 53.2693C79.6236 53.2693 93.8752 53.3952 100.351 59.2762C106.826 65.1572 100.584 77.0451 93.5548 78.5468C86.5261 80.0486 64.4595 77.3648 62.2072 73.596C59.9549 69.8271 61.4403 53.4921 79.6236 53.2693Z" fill="#12C4A5"/>
<path d="M101.525 176.905C80.0996 190.15 59.1592 188.822 38.0439 175.936L49.4607 71.222L61.9842 69.5459L62.955 69.4102L65.8092 69.0324L83.2839 66.6877L86.1963 67.6566L89.9146 68.9258L90.8077 69.2358L107.312 74.8843L94.9822 146.851L101.525 176.905Z" fill="#12C4A5"/>
<path d="M78.3421 78.6629C81.7963 78.7711 85.1899 77.7401 87.9979 75.7295C90.8058 73.7188 92.8714 70.8407 93.8751 67.5404C93.8882 67.4289 93.8604 67.3165 93.797 67.2239C93.7336 67.1312 93.6387 67.0646 93.5299 67.0363C93.4211 67.008 93.3057 67.0199 93.205 67.0698C93.1043 67.1197 93.0251 67.2042 92.982 67.3078C92.8752 67.7341 90.1666 77.7425 78.4197 77.7425C78.3521 77.7328 78.2835 77.7328 78.2159 77.7425C78.0871 77.7425 77.9637 77.7935 77.8726 77.8844C77.7816 77.9752 77.7305 78.0984 77.7305 78.2269C77.7305 78.3554 77.7816 78.4786 77.8726 78.5694C77.9637 78.6603 78.0871 78.7113 78.2159 78.7113L78.3421 78.6629Z" fill="#00C09E"/>
<path d="M66.5756 76.8513C66.7044 76.8513 66.8279 76.8002 66.9189 76.7094C67.0099 76.6185 67.0611 76.4953 67.0611 76.3668C67.0611 76.2384 67.0099 76.1151 66.9189 76.0243C66.8279 75.9334 66.7044 75.8824 66.5756 75.8824C66.4009 75.8824 62.7603 75.7177 61.8381 70.7959C61.8145 70.6753 61.7442 70.5689 61.6423 70.4999C61.5404 70.4309 61.4154 70.405 61.2944 70.4277C61.1748 70.4534 61.0697 70.5242 61.001 70.6252C60.9323 70.7263 60.9053 70.8498 60.9255 70.9703C61.9934 76.6575 66.5077 76.7834 66.5562 76.7834L66.5756 76.8513Z" fill="#00C09E"/>
<path d="M75.6329 122.882C75.6987 122.888 75.7651 122.88 75.8271 122.857C75.8891 122.834 75.9451 122.798 75.9909 122.75C76.0367 122.702 76.0711 122.645 76.0915 122.582C76.1119 122.52 76.1177 122.453 76.1086 122.388C75.1378 110.878 79.5453 81.8603 79.5841 81.5697C79.5937 81.5111 79.5915 81.4511 79.5776 81.3934C79.5637 81.3356 79.5384 81.2812 79.5031 81.2334C79.4678 81.1855 79.4233 81.1452 79.3722 81.1148C79.3211 81.0844 79.2644 81.0644 79.2055 81.0562C79.1468 81.0466 79.0867 81.0488 79.0288 81.0626C78.971 81.0765 78.9165 81.1018 78.8685 81.137C78.8206 81.1722 78.7802 81.2166 78.7497 81.2676C78.7192 81.3186 78.6992 81.3752 78.691 81.434C78.691 81.7247 74.2058 110.849 75.2154 122.465C75.2223 122.573 75.2685 122.676 75.3453 122.752C75.4222 122.829 75.5244 122.875 75.6329 122.882Z" fill="white"/>
<path d="M60.3916 120.576C60.4516 120.571 60.5101 120.554 60.5636 120.527C60.6171 120.499 60.6646 120.461 60.7034 120.416C60.7422 120.37 60.7716 120.316 60.7897 120.259C60.8078 120.202 60.8144 120.142 60.8091 120.082C59.848 108.581 64.4593 79.3315 64.4593 79.0409C64.4761 78.9228 64.4459 78.803 64.3751 78.707C64.3043 78.6109 64.1986 78.5465 64.0807 78.5274C64.022 78.5177 63.9619 78.5199 63.9041 78.5338C63.8462 78.5477 63.7917 78.573 63.7438 78.6082C63.6958 78.6434 63.6554 78.6878 63.6249 78.7388C63.5944 78.7898 63.5745 78.8464 63.5662 78.9052C63.5662 79.1959 58.9354 108.552 59.9354 120.159C59.9428 120.274 59.9945 120.382 60.0796 120.459C60.1646 120.537 60.2764 120.579 60.3916 120.576Z" fill="white"/>
<path d="M101.147 72.2977C101.147 72.2977 82.905 117.543 95.8168 142.734C97.7584 145.388 97.4478 152.316 96.9721 155.164C96.9721 155.164 80.2546 142.821 83.7107 112.844C87.1668 82.868 93.8752 70.2146 93.8752 70.2146C93.8752 70.2146 97.2439 66.9883 101.147 72.2977Z" fill="#162D47"/>
<path d="M57.3532 70.1662C57.3532 70.1662 45.9559 97.4686 42.0532 139.13C42.0532 139.13 34.2867 102.642 49.5479 72.5786C49.5479 72.5786 52.1594 67.279 57.3532 70.1662Z" fill="#162D47"/>
<path d="M110.574 122.513C110.574 122.513 105.118 116.7 99.749 100.046C99.749 100.046 98.2345 76.8899 107.448 74.9231C107.448 74.9231 120.291 94.465 124.495 118.522C124.495 118.522 125.466 147.588 111.214 168.563C111.214 168.563 106.894 168.815 104.04 166.626C104.04 166.626 111.641 135.467 110.574 122.513Z" fill="#12C4A5"/>
<path d="M68.1484 57.0865L68.993 66.7751L69.3717 71.2124C75.0995 75.1848 84.0407 69.2166 84.0407 69.2166L84.3708 53.9861C81.7204 52.3197 75.2936 54.7806 71.3133 56.0207C69.4396 56.602 68.1484 57.0865 68.1484 57.0865Z" fill="#FFAF82"/>
<path d="M68.1484 57.0864L68.993 66.775C75.5266 65.0602 80.7593 55.7979 80.7593 55.7979L71.3133 56.0207C69.4396 56.602 68.1484 57.0864 68.1484 57.0864Z" fill="#F88968"/>
<path d="M49.5482 31.9833V32.8553C49.5482 32.9037 49.5482 32.9619 49.5482 33.0103C49.5482 33.2913 49.5482 33.5722 49.5482 33.8629C49.6355 36.8761 49.9365 40.1992 50.3442 43.5515C50.4316 44.2491 50.519 44.9467 50.6161 45.6346C50.7131 46.3224 50.8102 46.8166 50.8685 47.3979C51.0432 48.6283 51.2374 49.8394 51.4218 51.0214C51.5577 51.8353 51.684 52.6394 51.8199 53.4145C51.9172 53.9515 52.0468 54.4821 52.2082 55.0034C52.7438 56.5767 53.6112 58.0172 54.7517 59.2277C56.0912 60.704 57.793 61.8066 59.6894 62.4267C61.5858 63.0468 63.6114 63.1631 65.5666 62.764C68.9547 62.0858 72.6827 61.2526 76.1679 60.2837L76.6824 60.1384C79.2552 59.4481 81.7759 58.5772 84.2256 57.5322C84.4975 57.1446 84.7693 56.7377 85.0217 56.3308C87.177 52.7569 88.6485 48.8146 89.3612 44.7044C89.6719 43.0477 89.9049 41.3813 90.0699 39.7051C90.0823 39.5744 90.105 39.4448 90.1379 39.3176C90.1379 37.7771 90.1379 36.2463 90.0894 34.7639C90.0356 32.1692 89.4601 29.6116 88.397 27.2431C87.334 24.8745 85.8049 22.7432 83.9007 20.9756C81.9965 19.2081 79.7559 17.8403 77.3119 16.9535C74.8678 16.0666 72.2702 15.6788 69.6731 15.813C61.0232 16.2103 54.7517 14.7685 50.7034 24.0096C49.4409 26.8916 49.5482 28.6117 49.5482 31.9833Z" fill="#FFAF82"/>
<path d="M84.9728 56.3307C87.1271 52.7563 88.5985 48.8142 89.3123 44.7043C87.5953 44.8116 85.9192 45.2735 84.3903 46.0608C84.3903 46.0608 83.9243 52.0967 84.9728 56.3307Z" fill="#162D47"/>
<path d="M65.1777 38.3778C65.1777 39.6663 65.7602 40.7127 66.4689 40.7127C67.1776 40.7127 67.7504 39.6663 67.7504 38.3778C67.7504 37.0892 67.1679 36.0525 66.4689 36.0525C65.7699 36.0525 65.1777 37.1279 65.1777 38.3778Z" fill="#162D47"/>
<path d="M51.9268 38.3778C51.9268 39.6663 52.4995 40.7127 53.2082 40.7127C53.9169 40.7127 54.4897 39.6663 54.4897 38.3778C54.4897 37.0892 53.9169 36.0525 53.2082 36.0525C52.4995 36.0525 51.9268 37.1279 51.9268 38.3778Z" fill="#162D47"/>
<path d="M71.6528 34.512C70.9109 33.0222 69.6202 31.8765 68.0511 31.3148C66.5389 30.8466 64.9027 30.9928 63.4979 31.7217C63.3309 31.8125 63.2031 31.9613 63.1387 32.1399C63.0743 32.3184 63.0777 32.5144 63.1485 32.6906C63.1853 32.7939 63.2435 32.8884 63.3193 32.9679C63.395 33.0474 63.4866 33.1101 63.5881 33.1521C63.6897 33.1941 63.7989 33.2144 63.9088 33.2117C64.0187 33.2089 64.1267 33.1833 64.2261 33.1363C65.5464 32.5453 68.4685 31.7508 71.6528 34.512Z" fill="#162D47"/>
<path d="M49.5479 31.9834V32.8554C49.5479 32.9038 49.5479 32.962 49.5479 33.0104C50.3971 32.5895 51.3307 32.3657 52.2789 32.3556C53.227 32.3456 54.1652 32.5495 55.0232 32.9523C55.1301 33.0009 55.2457 33.0273 55.363 33.0298C55.5239 33.0298 55.6808 32.9805 55.8128 32.8887C55.9447 32.7969 56.0452 32.6669 56.1008 32.5163C56.1674 32.3397 56.1687 32.1452 56.1047 31.9677C56.0406 31.7902 55.9154 31.6412 55.7514 31.5474C54.3437 30.8286 52.7115 30.6827 51.1982 31.1405C50.5983 31.3114 50.0377 31.5978 49.5479 31.9834Z" fill="#162D47"/>
<path d="M82.4883 37.8837C82.4883 37.8837 86.6045 32.9038 90.0606 35.791C93.8662 38.9786 90.9538 49.762 83.2164 49.5197L82.4883 37.8837Z" fill="#FFAF82"/>
<path d="M83.031 47.1848C83.1969 47.1835 83.3566 47.1218 83.48 47.0111C83.6034 46.9005 83.682 46.7486 83.7009 46.5841C84.3319 41.1198 87.5842 40.2768 87.7201 40.2478C87.8937 40.2041 88.0434 40.0947 88.1376 39.9429C88.2318 39.791 88.2631 39.6085 88.2249 39.4339C88.1855 39.2597 88.0787 39.108 87.9278 39.0119C87.7769 38.9157 87.5942 38.8829 87.4191 38.9204C87.2347 38.9204 83.099 39.9571 82.3515 46.4291C82.3324 46.6076 82.3851 46.7864 82.4979 46.9263C82.6108 47.0661 82.7745 47.1556 82.9534 47.1751L83.031 47.1848Z" fill="#F88968"/>
<path d="M87.3705 43.7259C87.5362 43.7266 87.6959 43.6643 87.8171 43.5515C87.8856 43.4923 87.9416 43.42 87.9817 43.3389C88.0218 43.2579 88.0453 43.1696 88.0507 43.0793C88.0561 42.989 88.0434 42.8986 88.0133 42.8133C87.9832 42.728 87.9363 42.6496 87.8753 42.5826C87.4095 42.1141 86.8315 41.772 86.1961 41.5889C85.5607 41.4058 84.8889 41.3877 84.2445 41.5363C84.1574 41.5546 84.0749 41.5901 84.0017 41.6406C83.9285 41.6911 83.8661 41.7557 83.8182 41.8306C83.7703 41.9055 83.7378 41.9891 83.7227 42.0766C83.7075 42.1642 83.71 42.2538 83.73 42.3404C83.7484 42.4276 83.7839 42.5103 83.8344 42.5837C83.8849 42.6572 83.9494 42.72 84.0243 42.7686C84.0991 42.8172 84.1828 42.8506 84.2705 42.8669C84.3583 42.8832 84.4484 42.8821 84.5358 42.8636C84.945 42.7629 85.3731 42.767 85.7804 42.8754C86.1877 42.9838 86.561 43.193 86.8657 43.4837C86.9265 43.559 87.0033 43.6199 87.0906 43.6618C87.178 43.7037 87.2736 43.7256 87.3705 43.7259Z" fill="#F88968"/>
<path d="M61.897 57.9971C63.4926 58.0186 65.0417 57.4608 66.256 56.4276C66.3197 56.364 66.3703 56.2884 66.4048 56.2053C66.4393 56.1222 66.4571 56.0331 66.4571 55.9431C66.4571 55.8532 66.4393 55.7641 66.4048 55.681C66.3703 55.5979 66.3197 55.5223 66.256 55.4587C66.1923 55.3951 66.1166 55.3446 66.0333 55.3102C65.95 55.2758 65.8607 55.2581 65.7706 55.2581C65.6804 55.2581 65.5912 55.2758 65.5079 55.3102C65.4246 55.3446 65.3489 55.3951 65.2852 55.4587C64.5041 56.0823 63.5699 56.4857 62.5797 56.6271C61.5895 56.7685 60.5795 56.6428 59.6545 56.2629C59.4875 56.215 59.3085 56.2327 59.1542 56.3124C59 56.3921 58.8821 56.5278 58.825 56.6915C58.7678 56.8552 58.7756 57.0346 58.8468 57.1927C58.9181 57.3508 59.0473 57.4757 59.2079 57.5418C60.0718 57.8451 60.9812 57.9991 61.897 57.9971Z" fill="#F88968"/>
<path d="M67.1 43.9099C68.1876 43.9023 69.2488 43.5737 70.1498 42.9657C71.0509 42.3577 71.7516 41.4972 72.1639 40.4927C72.5761 39.4882 72.6815 38.3844 72.4667 37.3203C72.2519 36.2561 71.7266 35.2791 70.9568 34.5122C70.187 33.7453 69.2071 33.2228 68.1405 33.0103C67.0738 32.7978 65.968 32.9049 64.9622 33.3181C63.9563 33.7312 63.0954 34.4321 62.4877 35.3324C61.88 36.2327 61.5527 37.2922 61.5469 38.3777C61.5443 39.1058 61.6863 39.8271 61.9646 40.5001C62.2428 41.1731 62.6519 41.7844 63.1682 42.2987C63.6845 42.8131 64.2978 43.2203 64.9726 43.4968C65.6474 43.7734 66.3705 43.9138 67.1 43.9099ZM67.1 33.8241C68.0126 33.8203 68.9057 34.0874 69.6658 34.5914C70.4259 35.0954 71.0187 35.8136 71.3688 36.6546C71.7189 37.4957 71.8105 38.4217 71.632 39.3148C71.4534 40.208 71.0128 41.028 70.3662 41.6707C69.7195 42.3133 68.896 42.7495 68.0003 42.9239C67.1045 43.0983 66.1771 43.0029 65.3358 42.6499C64.4946 42.297 63.7774 41.7023 63.2756 40.9416C62.7738 40.1809 62.51 39.2885 62.5177 38.3777C62.5177 37.164 63.0002 35.9998 63.8592 35.1407C64.7183 34.2815 65.8838 33.7976 67.1 33.795V33.8241Z" fill="#162D47"/>
<path d="M52.8101 43.9101C53.9007 43.9101 54.9668 43.5873 55.8736 42.9826C56.7805 42.3779 57.4872 41.5185 57.9046 40.5129C58.3219 39.5073 58.4311 38.4008 58.2184 37.3333C58.0056 36.2658 57.4804 35.2853 56.7093 34.5156C55.9381 33.746 54.9555 33.2219 53.8859 33.0096C52.8162 32.7972 51.7075 32.9062 50.6999 33.3227C49.6923 33.7392 48.8311 34.4446 48.2252 35.3496C47.6193 36.2545 47.2959 37.3185 47.2959 38.4069C47.2985 39.8657 47.8803 41.2639 48.9138 42.2954C49.9474 43.3269 51.3484 43.9075 52.8101 43.9101ZM52.8101 33.8242C53.7206 33.8242 54.6107 34.0938 55.3677 34.5989C56.1246 35.1039 56.7144 35.8217 57.0624 36.6614C57.4104 37.5012 57.501 38.425 57.3226 39.3161C57.1443 40.2072 56.7051 41.0255 56.0605 41.6674C55.416 42.3092 54.5952 42.7459 53.7019 42.922C52.8086 43.0981 51.8831 43.0057 51.0424 42.6567C50.2017 42.3076 49.4837 41.7175 48.9793 40.961C48.4748 40.2045 48.2065 39.3156 48.2085 38.4069C48.2046 37.8019 48.3209 37.202 48.5505 36.642C48.7802 36.082 49.1187 35.573 49.5465 35.1442C49.9743 34.7155 50.483 34.3755 51.0431 34.144C51.6033 33.9124 52.2038 33.7939 52.8101 33.7952V33.8242Z" fill="#162D47"/>
<path d="M82.3027 35.7483L71.917 36.5513L71.9867 37.4496L82.3724 36.6466L82.3027 35.7483Z" fill="#162D47"/>
<path d="M61.8387 37.9708L62.3726 37.2345C61.6628 36.7336 60.8149 36.4646 59.9456 36.4646C59.0763 36.4646 58.2283 36.7336 57.5186 37.2345L58.0719 37.9514C58.6278 37.5735 59.2857 37.373 59.9583 37.3764C60.631 37.3799 61.2867 37.5872 61.8387 37.9708Z" fill="#162D47"/>
<path d="M58.6353 45.8477C58.7763 45.8471 58.9137 45.8027 59.0283 45.7208C59.1429 45.6388 59.2291 45.5232 59.275 45.3901C59.3209 45.2571 59.3241 45.113 59.2843 44.978C59.2445 44.843 59.1635 44.7237 59.0527 44.6366L57.2373 43.2512L58.81 42.8443C58.9385 42.8124 59.0545 42.7427 59.1428 42.6442C59.2311 42.5457 59.2876 42.423 59.3052 42.292L60.0041 37.9806C60.0194 37.8921 60.0169 37.8015 59.9968 37.7139C59.9766 37.6264 59.9393 37.5438 59.8869 37.4708C59.8345 37.3978 59.7682 37.3359 59.6916 37.2887C59.6151 37.2415 59.5299 37.2099 59.4411 37.1958C59.2627 37.1702 59.0813 37.2144 58.9348 37.3191C58.7883 37.4238 58.6879 37.581 58.6547 37.7577L58.0334 41.6332L55.5384 42.2823C55.4141 42.3126 55.301 42.3778 55.2126 42.4702C55.1243 42.5626 55.0643 42.6784 55.0397 42.8037C55.0152 42.9291 55.0272 43.0589 55.0743 43.1777C55.1214 43.2965 55.2016 43.3993 55.3054 43.474L58.2178 45.7024C58.3349 45.7995 58.4831 45.8511 58.6353 45.8477Z" fill="#F88968"/>
<path d="M59.6927 54.8096C61.2703 54.8398 62.8381 54.5564 64.3048 53.9758C65.7715 53.3953 67.1078 52.5293 68.2359 51.4283C68.2996 51.3647 68.3502 51.2892 68.3847 51.206C68.4192 51.1229 68.437 51.0338 68.437 50.9439C68.437 50.8539 68.4192 50.7648 68.3847 50.6817C68.3502 50.5986 68.2996 50.5231 68.2359 50.4594C68.1721 50.3958 68.0965 50.3454 68.0132 50.3109C67.9299 50.2765 67.8406 50.2588 67.7505 50.2588C67.6603 50.2588 67.5711 50.2765 67.4878 50.3109C67.4045 50.3454 67.3288 50.3958 67.2651 50.4594C62.411 55.1875 55.693 52.8525 55.6153 52.8332C55.5321 52.7996 55.4428 52.7836 55.3531 52.7862C55.2634 52.7887 55.1752 52.8098 55.0941 52.848C55.0129 52.8862 54.9406 52.9408 54.8816 53.0082C54.8226 53.0757 54.7782 53.1547 54.7513 53.2401C54.7205 53.3234 54.7067 53.4119 54.7106 53.5006C54.7145 53.5892 54.7361 53.6763 54.774 53.7565C54.812 53.8368 54.8656 53.9087 54.9317 53.9681C54.9978 54.0275 55.075 54.0731 55.159 54.1024C56.6233 54.5758 58.1535 54.8145 59.6927 54.8096Z" fill="#F88968"/>
</g>
<defs>
<filter id="filter0_d" x="20" y="24" width="100" height="100" filterUnits="userSpaceOnUse" color-interpolation-filters="sRGB">
<feFlood flood-opacity="0" result="BackgroundImageFix"/>
<feColorMatrix in="SourceAlpha" type="matrix" values="0 0 0 0 0 0 0 0 0 0 0 0 0 0 0 0 0 0 127 0"/>
<feOffset dy="4"/>
<feGaussianBlur stdDeviation="20"/>
<feColorMatrix type="matrix" values="0 0 0 0 0 0 0 0 0 0 0 0 0 0 0 0 0 0 0.16 0"/>
<feBlend mode="normal" in2="BackgroundImageFix" result="effect1_dropShadow"/>
<feBlend mode="normal" in="SourceGraphic" in2="effect1_dropShadow" result="shape"/>
</filter>
</defs>
</svg>
