<svg width="18" height="17" viewBox="0 0 18 17" fill="none" xmlns="http://www.w3.org/2000/svg">
<path d="M8.11555 0.676341C8.49076 -0.0348058 9.50924 -0.0348076 9.88445 0.676339L11.827 4.35822C11.9717 4.63247 12.2355 4.82408 12.541 4.87694L16.643 5.58669C17.4352 5.72377 17.75 6.69241 17.1896 7.26901L14.2882 10.2543C14.0721 10.4766 13.9713 10.7867 14.0155 11.0936L14.6081 15.2141C14.7225 16.01 13.8985 16.6086 13.177 16.2538L9.44125 14.417C9.16299 14.2801 8.83701 14.2801 8.55875 14.417L4.82301 16.2538C4.10146 16.6086 3.27749 16.01 3.39194 15.2141L3.98451 11.0936C4.02865 10.7867 3.92792 10.4766 3.71181 10.2543L0.81042 7.26901C0.250025 6.69241 0.564752 5.72377 1.35704 5.58669L5.45901 4.87694C5.76455 4.82408 6.02827 4.63247 6.17297 4.35822L8.11555 0.676341Z" fill="white"/>
<path d="M8.11555 0.676341C8.49076 -0.0348058 9.50924 -0.0348076 9.88445 0.676339L11.827 4.35822C11.9717 4.63247 12.2355 4.82408 12.541 4.87694L16.643 5.58669C17.4352 5.72377 17.75 6.69241 17.1896 7.26901L14.2882 10.2543C14.0721 10.4766 13.9713 10.7867 14.0155 11.0936L14.6081 15.2141C14.7225 16.01 13.8985 16.6086 13.177 16.2538L9.44125 14.417C9.16299 14.2801 8.83701 14.2801 8.55875 14.417L4.82301 16.2538C4.10146 16.6086 3.27749 16.01 3.39194 15.2141L3.98451 11.0936C4.02865 10.7867 3.92792 10.4766 3.71181 10.2543L0.81042 7.26901C0.250025 6.69241 0.564752 5.72377 1.35704 5.58669L5.45901 4.87694C5.76455 4.82408 6.02827 4.63247 6.17297 4.35822L8.11555 0.676341Z" fill="#FA7C49"/>
</svg>
