<svg width="16" height="16" viewBox="0 0 16 16" fill="none" xmlns="http://www.w3.org/2000/svg">
<path d="M2.86465 14.6711C2.78665 15.1151 3.22465 15.4621 3.61065 15.2641L8.00065 13.0081L12.3897 15.2641C12.7757 15.4621 13.2137 15.1151 13.1357 14.6721L12.3057 9.94209L15.8277 6.58609C16.1577 6.27209 15.9877 5.69809 15.5457 5.63609L10.6477 4.94009L8.46365 0.61309C8.42205 0.525379 8.35641 0.451273 8.27436 0.399382C8.19232 0.347492 8.09723 0.319946 8.00015 0.319946C7.90308 0.319946 7.80799 0.347492 7.72594 0.399382C7.6439 0.451273 7.57826 0.525379 7.53665 0.61309L5.35265 4.94109L0.454653 5.63709C0.0136534 5.69909 -0.157347 6.27309 0.171653 6.58709L3.69465 9.94309L2.86465 14.6731V14.6711ZM7.76965 11.9041L4.08365 13.7981L4.77765 9.84109C4.79391 9.75 4.78755 9.65632 4.75913 9.56826C4.73071 9.48021 4.6811 9.40048 4.61465 9.33609L1.70865 6.56609L5.76065 5.99009C5.84456 5.97742 5.92414 5.9446 5.99259 5.89444C6.06103 5.84428 6.1163 5.77828 6.15365 5.70209L7.99865 2.04409L9.84565 5.70209C9.88301 5.77828 9.93828 5.84428 10.0067 5.89444C10.0752 5.9446 10.1547 5.97742 10.2387 5.99009L14.2907 6.56509L11.3847 9.33509C11.3181 9.39959 11.2684 9.47948 11.2399 9.56772C11.2115 9.65596 11.2052 9.74985 11.2217 9.84109L11.9157 13.7981L8.22965 11.9041C8.15838 11.8673 8.07935 11.8482 7.99915 11.8482C7.91896 11.8482 7.83993 11.8673 7.76865 11.9041H7.76965Z" fill="white"/>
<path d="M2.86465 14.6711C2.78665 15.1151 3.22465 15.4621 3.61065 15.2641L8.00065 13.0081L12.3897 15.2641C12.7757 15.4621 13.2137 15.1151 13.1357 14.6721L12.3057 9.94209L15.8277 6.58609C16.1577 6.27209 15.9877 5.69809 15.5457 5.63609L10.6477 4.94009L8.46365 0.61309C8.42205 0.525379 8.35641 0.451273 8.27436 0.399382C8.19232 0.347492 8.09723 0.319946 8.00015 0.319946C7.90308 0.319946 7.80799 0.347492 7.72594 0.399382C7.6439 0.451273 7.57826 0.525379 7.53665 0.61309L5.35265 4.94109L0.454653 5.63709C0.0136534 5.69909 -0.157347 6.27309 0.171653 6.58709L3.69465 9.94309L2.86465 14.6731V14.6711ZM7.76965 11.9041L4.08365 13.7981L4.77765 9.84109C4.79391 9.75 4.78755 9.65632 4.75913 9.56826C4.73071 9.48021 4.6811 9.40048 4.61465 9.33609L1.70865 6.56609L5.76065 5.99009C5.84456 5.97742 5.92414 5.9446 5.99259 5.89444C6.06103 5.84428 6.1163 5.77828 6.15365 5.70209L7.99865 2.04409L9.84565 5.70209C9.88301 5.77828 9.93828 5.84428 10.0067 5.89444C10.0752 5.9446 10.1547 5.97742 10.2387 5.99009L14.2907 6.56509L11.3847 9.33509C11.3181 9.39959 11.2684 9.47948 11.2399 9.56772C11.2115 9.65596 11.2052 9.74985 11.2217 9.84109L11.9157 13.7981L8.22965 11.9041C8.15838 11.8673 8.07935 11.8482 7.99915 11.8482C7.91896 11.8482 7.83993 11.8673 7.76865 11.9041H7.76965Z" fill="#FA7C49"/>
</svg>
