<svg width="32" height="33" viewBox="0 0 32 33" fill="none" xmlns="http://www.w3.org/2000/svg">
<path fill-rule="evenodd" clip-rule="evenodd" d="M15.9998 29.4264C23.3636 29.4264 29.3332 23.4569 29.3332 16.0931C29.3332 8.7293 23.3636 2.75977 15.9998 2.75977C8.63604 2.75977 2.6665 8.7293 2.6665 16.0931C2.6665 23.4569 8.63604 29.4264 15.9998 29.4264ZM18.2134 11.2531C18.5664 11.2531 19.1276 11.3152 19.5432 11.3983L19.9167 9.05066C19.1066 8.88443 18.4833 8.75977 17.6316 8.75977C15.1804 8.75977 14.2041 9.92332 14.2041 12.0006V13.5171H12.6665V15.9689H14.2041V23.4264H17.1956V15.9689H19.3765L19.5847 13.5171H17.1956V12.3335C17.1956 11.6687 17.2576 11.2531 18.2134 11.2531Z" fill="white"/>
<path fill-rule="evenodd" clip-rule="evenodd" d="M15.9998 29.4264C23.3636 29.4264 29.3332 23.4569 29.3332 16.0931C29.3332 8.7293 23.3636 2.75977 15.9998 2.75977C8.63604 2.75977 2.6665 8.7293 2.6665 16.0931C2.6665 23.4569 8.63604 29.4264 15.9998 29.4264ZM18.2134 11.2531C18.5664 11.2531 19.1276 11.3152 19.5432 11.3983L19.9167 9.05066C19.1066 8.88443 18.4833 8.75977 17.6316 8.75977C15.1804 8.75977 14.2041 9.92332 14.2041 12.0006V13.5171H12.6665V15.9689H14.2041V23.4264H17.1956V15.9689H19.3765L19.5847 13.5171H17.1956V12.3335C17.1956 11.6687 17.2576 11.2531 18.2134 11.2531Z" fill="#3B5998"/>
</svg>
