<svg width="140" height="140" viewBox="0 0 140 140" fill="none" xmlns="http://www.w3.org/2000/svg">
<path d="M0 70C0 31.3401 31.3401 0 70 0C108.66 0 140 31.3401 140 70C140 108.66 108.66 140 70 140C31.3401 140 0 108.66 0 70Z" fill="white"/>
<path d="M0 70C0 31.3401 31.3401 0 70 0C108.66 0 140 31.3401 140 70C140 108.66 108.66 140 70 140C31.3401 140 0 108.66 0 70Z" fill="#F6F8F7"/>
<mask id="mask0" mask-type="alpha" maskUnits="userSpaceOnUse" x="0" y="0" width="140" height="140">
<circle cx="70" cy="70" r="70" fill="white"/>
</mask>
<g mask="url(#mask0)">
<g opacity="0.1">
<path d="M-19.6539 249.26C-14.6858 322.74 77.7778 352.529 123.484 294.818C132.812 283.042 135.06 254.617 132.629 239.631C122.886 179.222 91.9777 173.044 115.053 134.834C138.128 96.6249 140.279 27.2442 76.5623 27.7856C12.8458 28.3271 53.9215 130.387 10.0001 158.938C-10.0458 172 -22.2488 210.993 -19.6539 249.26Z" fill="white"/>
<path d="M-19.6539 249.26C-14.6858 322.74 77.7778 352.529 123.484 294.818C132.812 283.042 135.06 254.617 132.629 239.631C122.886 179.222 91.9777 173.044 115.053 134.834C138.128 96.6249 140.279 27.2442 76.5623 27.7856C12.8458 28.3271 53.9215 130.387 10.0001 158.938C-10.0458 172 -22.2488 210.993 -19.6539 249.26Z" fill="#F6F8F7"/>
</g>
<g opacity="0.1">
<path d="M4.49196 142.424C6.37943 143.072 8.41973 143.122 10.3367 142.569C12.2536 142.015 13.9546 140.885 15.2094 139.33C19.3575 134.303 25.9752 124.132 23.9976 112.259C21.1904 95.3971 -0.177044 108.894 -1.86522 127.922C-2.70448 137.387 0.787626 141.09 4.49196 142.424Z" fill="white"/>
<path d="M4.49196 142.424C6.37943 143.072 8.41973 143.122 10.3367 142.569C12.2536 142.015 13.9546 140.885 15.2094 139.33C19.3575 134.303 25.9752 124.132 23.9976 112.259C21.1904 95.3971 -0.177044 108.894 -1.86522 127.922C-2.70448 137.387 0.787626 141.09 4.49196 142.424Z" fill="#F6F8F7"/>
</g>
<g opacity="0.1">
<path d="M27.2682 97.9494C28.2542 97.6167 29.1134 96.9865 29.7282 96.1454C30.343 95.3042 30.6833 94.2931 30.7025 93.2506C30.8086 89.8473 30.2973 83.5821 25.7151 79.2894C19.1747 73.2176 14.66 85.6222 20.0236 93.9951C22.6764 98.2008 25.3389 98.6069 27.2682 97.9494Z" fill="white"/>
<path d="M27.2682 97.9494C28.2542 97.6167 29.1134 96.9865 29.7282 96.1454C30.343 95.3042 30.6833 94.2931 30.7025 93.2506C30.8086 89.8473 30.2973 83.5821 25.7151 79.2894C19.1747 73.2176 14.66 85.6222 20.0236 93.9951C22.6764 98.2008 25.3389 98.6069 27.2682 97.9494Z" fill="#F6F8F7"/>
</g>
<path d="M34.6085 126.036C39.2485 86.0187 48.2778 69.9595 48.2778 69.9595C56.4582 103.48 50.0721 121.695 47.3132 130.436C44.5542 139.176 19.3377 170.676 19.3377 170.676C17.5744 168.334 15.0941 166.636 12.2764 165.841C12.2764 165.841 20.2831 151.687 23.1193 146.388C25.9554 141.09 34.6085 126.036 34.6085 126.036Z" fill="#FA7C49"/>
<path d="M78.1543 52.1501C78.1543 52.1501 92.2578 52.2758 98.6728 58.1349C105.088 63.994 98.8947 75.7991 91.9202 77.2881C84.9456 78.777 63.1633 76.1085 60.9157 72.3572C58.668 68.6058 60.1536 52.3725 78.1543 52.1501Z" fill="#FA804E"/>
<path d="M101.354 177.231C80.2083 190.312 55.6864 185.99 36.5088 176.999L48.2778 69.9884L60.6834 68.335L61.6481 68.1997L64.4649 67.8226L81.829 65.5022L84.723 66.469L88.3984 67.7356L89.2762 68.0353L105.676 73.6624L94.7169 137.783L101.354 177.231Z" fill="#FA804E"/>
<path d="M76.8805 77.4042C80.298 77.506 83.654 76.4783 86.431 74.4794C89.2081 72.4806 91.252 69.6217 92.2477 66.3435C92.2768 66.2243 92.2577 66.0983 92.1944 65.9932C92.1311 65.8881 92.0289 65.8125 91.91 65.7827C91.7936 65.7534 91.6704 65.7716 91.5673 65.8332C91.4642 65.8948 91.3897 65.9949 91.3602 66.1115C91.2444 66.5369 88.5626 76.4857 76.8901 76.4857C76.8262 76.476 76.7611 76.476 76.6972 76.4857C76.5693 76.4857 76.4466 76.5366 76.3561 76.6273C76.2657 76.7179 76.2148 76.8409 76.2148 76.9691C76.2148 77.0973 76.2657 77.2203 76.3561 77.3109C76.4466 77.4016 76.5693 77.4525 76.6972 77.4525L76.8805 77.4042Z" fill="#FA7C49"/>
<path d="M65.2274 75.6349C65.346 75.6349 65.4598 75.5884 65.5446 75.5052C65.6294 75.4221 65.6782 75.309 65.6808 75.1902C65.6834 75.0687 65.6384 74.951 65.5554 74.8624C65.4724 74.7739 65.3581 74.7214 65.237 74.7164C65.073 74.7164 61.4651 74.552 60.5487 69.6598C60.5231 69.5426 60.4541 69.4395 60.3556 69.3713C60.2572 69.3031 60.1365 69.2749 60.0181 69.2924C59.8981 69.3158 59.7921 69.3859 59.7234 69.4874C59.6548 69.5888 59.6289 69.7134 59.6516 69.8338C60.703 75.4899 65.1695 75.6349 65.2177 75.6349H65.2274Z" fill="#FA7C49"/>
<path d="M74.1897 121.386C74.2493 121.381 74.3073 121.364 74.3605 121.337C74.4137 121.309 74.4609 121.272 74.4995 121.226C74.538 121.18 74.5672 121.127 74.5852 121.07C74.6032 121.013 74.6098 120.952 74.6045 120.893C73.6398 109.455 78.0098 80.6043 78.058 80.2853C78.0612 80.1727 78.0233 80.0627 77.9516 79.976C77.8799 79.8893 77.7791 79.8317 77.6681 79.8139C77.5571 79.7962 77.4434 79.8195 77.3483 79.8795C77.2532 79.9396 77.1832 80.0322 77.1512 80.1402C77.1512 80.4303 72.7041 109.397 73.688 120.941C73.6917 121.003 73.7076 121.064 73.7349 121.12C73.7621 121.176 73.8001 121.226 73.8467 121.268C73.8933 121.309 73.9476 121.341 74.0064 121.361C74.0653 121.381 74.1276 121.39 74.1897 121.386Z" fill="white"/>
<path d="M59.1014 119.085C59.2216 119.07 59.3317 119.01 59.4089 118.916C59.4861 118.823 59.5245 118.703 59.5162 118.582C58.5515 107.144 63.0662 78.0713 63.1144 77.7716C63.1151 77.6599 63.0756 77.5517 63.003 77.4668C62.9305 77.382 62.8299 77.3262 62.7196 77.3098C62.6094 77.2933 62.4969 77.3172 62.4028 77.3772C62.3088 77.4372 62.2395 77.5292 62.2077 77.6362C62.1594 77.9263 57.6062 107.115 58.5998 118.659C58.6046 118.72 58.6215 118.78 58.6494 118.834C58.6773 118.889 58.7156 118.937 58.7622 118.977C58.8089 119.016 58.8628 119.046 58.921 119.065C58.9793 119.083 59.0406 119.09 59.1014 119.085Z" fill="white"/>
<path d="M50.217 19.6353C50.217 19.6353 45.9628 22.4488 47.5256 30.0868C49.0884 37.7249 51.992 38.537 51.992 38.537C51.992 38.537 56.4199 21.627 50.217 19.6353Z" fill="#32324C"/>
<path d="M66.8193 55.9402L67.649 65.6086L68.0348 70.0271C73.6974 73.9718 82.5049 68.0354 82.5049 68.0354L82.8328 52.8946C80.2186 51.2317 73.8421 53.6874 69.9063 54.9057C68.0638 55.4568 66.8193 55.9402 66.8193 55.9402Z" fill="#FFAF82"/>
<path d="M66.8193 55.9401L67.649 65.6085C74.1219 63.8972 79.3022 54.6929 79.3022 54.6929L69.9545 54.9056C68.0638 55.4567 66.8193 55.9401 66.8193 55.9401Z" fill="#F88968"/>
<path d="M48.375 31.1213C48.375 31.3534 48.375 31.5951 48.375 31.8464V32.2042C48.375 32.4266 48.375 32.6586 48.375 32.8906C48.4618 35.8782 48.7705 39.1848 49.166 42.4914C49.2528 43.1778 49.3397 43.874 49.4361 44.5604C49.5326 45.2469 49.5905 45.7497 49.6773 46.3394C49.8606 47.5673 50.0439 48.7759 50.2272 49.9458C50.3622 50.7579 50.4876 51.5604 50.6227 52.3242C50.7194 52.86 50.8482 53.3895 51.0086 53.9098C51.5099 55.4689 52.3426 56.9005 53.4492 58.1059C54.777 59.5721 56.4617 60.668 58.3385 61.2865C60.2153 61.905 62.2201 62.0251 64.157 61.6349C67.5044 60.9484 71.2087 60.1169 74.6622 59.1598L75.1639 59.0244C77.7207 58.3168 80.2253 57.4316 82.6594 56.3753C82.9295 55.9789 83.1899 55.5824 83.4504 55.1764C85.5891 51.6094 87.048 47.6753 87.7528 43.5743C88.0615 41.9403 88.293 40.2773 88.457 38.6143C88.457 38.479 88.457 38.3533 88.5149 38.2276C88.5149 36.6903 88.5149 35.1627 88.5149 33.6931C88.4641 31.1139 87.8964 28.5713 86.8454 26.2165C85.7944 23.8617 84.2817 21.7427 82.3972 19.9856C80.5126 18.2285 78.2948 16.8692 75.8756 15.9885C73.4563 15.1078 70.8851 14.7237 68.3147 14.859C59.7485 15.2941 51.5874 18.62 49.523 23.0482C48.6933 24.8272 48.375 27.6987 48.375 31.1213Z" fill="#FFAF82"/>
<path d="M83.45 55.1956C85.5857 51.6282 87.0413 47.694 87.7427 43.5935C86.0595 43.702 84.417 44.1596 82.9194 44.9374C82.9194 44.9374 82.4081 50.9899 83.45 55.1956Z" fill="#32324C"/>
<path d="M63.4912 37.3478C63.4912 38.624 64.0604 39.6585 64.7549 39.6585C65.4495 39.6585 66.0283 38.624 66.0283 37.3478C66.0283 36.0715 65.4591 35.0273 64.7549 35.0273C64.0507 35.0273 63.4912 36.0715 63.4912 37.3478Z" fill="#32324C"/>
<path d="M50.7959 37.3381C50.7959 38.624 51.3651 39.6585 52.0693 39.6585C52.7735 39.6585 53.3137 38.624 53.3137 37.3381C53.3137 36.0522 52.7445 35.0273 52.0403 35.0273C51.3361 35.0273 50.7959 36.0715 50.7959 37.3381Z" fill="#32324C"/>
<path d="M71.0348 33.4997C70.2967 32.0294 69.0219 30.9006 67.4752 30.3478C65.9752 29.8863 64.3545 30.0321 62.9605 30.7538C62.7958 30.8459 62.6693 30.9939 62.6038 31.1712C62.5384 31.3485 62.5383 31.5433 62.6036 31.7207C62.6424 31.822 62.7016 31.9143 62.7775 31.9918C62.8534 32.0692 62.9444 32.1303 63.0448 32.1711C63.1452 32.2119 63.2529 32.2315 63.3612 32.2289C63.4695 32.2263 63.5761 32.2014 63.6744 32.1558C64.996 31.537 67.89 30.7442 71.0348 33.4997Z" fill="#32324C"/>
<path d="M48.375 31.1212C48.375 31.3532 48.375 31.5949 48.375 31.8463V32.2041C49.2123 31.8086 50.1264 31.6036 51.052 31.6036C51.9775 31.6036 52.8917 31.8086 53.7289 32.2041C53.9122 32.2905 54.1217 32.3022 54.3134 32.2368C54.5051 32.1714 54.664 32.0339 54.7566 31.8534C54.8491 31.6729 54.8681 31.4634 54.8096 31.2691C54.7511 31.0748 54.6195 30.9108 54.4428 30.8118C53.0509 30.0946 51.435 29.949 49.9378 30.4057C49.3787 30.5497 48.8496 30.792 48.375 31.1212Z" fill="#32324C"/>
<path d="M80.9902 36.8547C80.9902 36.8547 85.0708 31.8948 88.4857 34.776C92.2576 37.9375 89.3636 48.6695 81.733 48.4278L80.9902 36.8547Z" fill="#FFAF82"/>
<path d="M81.5306 46.0978C81.6961 46.0987 81.8559 46.0377 81.9789 45.9269C82.102 45.8161 82.1795 45.6633 82.1963 45.4984C82.8233 40.0744 86.0549 39.2332 86.1707 39.2042C86.3445 39.1629 86.4948 39.0542 86.5888 38.902C86.6829 38.7498 86.7129 38.5664 86.6723 38.3921C86.653 38.3062 86.6169 38.225 86.5661 38.1532C86.5153 38.0814 86.4508 38.0203 86.3764 37.9736C86.302 37.9269 86.2191 37.8954 86.1324 37.8809C86.0458 37.8664 85.9572 37.8693 85.8716 37.8893C85.698 37.8893 81.5982 38.9142 80.8554 45.3437C80.8364 45.5218 80.8888 45.7003 81.0009 45.8398C81.113 45.9794 81.2757 46.0687 81.4535 46.0881L81.5306 46.0978Z" fill="#F88968"/>
<path d="M85.8238 42.6557C85.9899 42.6587 86.1514 42.6001 86.2772 42.4913C86.4124 42.3706 86.4944 42.2011 86.5053 42.0199C86.5161 41.8387 86.4549 41.6606 86.3351 41.5245C85.8731 41.0585 85.3004 40.7181 84.6708 40.5354C84.0413 40.3527 83.3757 40.3337 82.7368 40.4803C82.6501 40.4993 82.5679 40.5353 82.495 40.5862C82.4221 40.6371 82.3599 40.7018 82.312 40.7768C82.264 40.8518 82.2313 40.9355 82.2157 41.0231C82.2 41.1107 82.2017 41.2006 82.2207 41.2876C82.2397 41.3746 82.2756 41.4569 82.3264 41.53C82.3772 41.6031 82.4418 41.6654 82.5166 41.7134C82.5914 41.7615 82.6749 41.7943 82.7623 41.8099C82.8498 41.8256 82.9395 41.8239 83.0262 41.8049C83.4299 41.7042 83.8524 41.7082 84.2541 41.8165C84.6558 41.9247 85.0233 42.1337 85.3221 42.4236C85.3851 42.4951 85.4622 42.5526 85.5486 42.5926C85.6349 42.6325 85.7287 42.654 85.8238 42.6557Z" fill="#F88968"/>
<path d="M60.5972 56.8491C62.1705 56.8673 63.6966 56.3105 64.89 55.2828C64.9534 55.2193 65.0036 55.144 65.0379 55.061C65.0722 54.9781 65.0898 54.8892 65.0898 54.7994C65.0898 54.7096 65.0722 54.6207 65.0379 54.5378C65.0036 54.4548 64.9534 54.3794 64.89 54.316C64.8267 54.2525 64.7515 54.2021 64.6687 54.1678C64.586 54.1334 64.4973 54.1157 64.4077 54.1157C64.3181 54.1157 64.2294 54.1334 64.1466 54.1678C64.0639 54.2021 63.9887 54.2525 63.9253 54.316C63.1517 54.9359 62.2262 55.3364 61.2455 55.4759C60.2648 55.6153 59.2647 55.4885 58.3496 55.1088C58.1794 55.0532 57.9942 55.0666 57.8338 55.1461C57.6733 55.2256 57.5503 55.3649 57.491 55.5342C57.4624 55.618 57.4507 55.7066 57.4566 55.7949C57.4625 55.8833 57.4858 55.9695 57.5253 56.0487C57.5649 56.1279 57.6197 56.1985 57.6867 56.2562C57.7537 56.3139 57.8314 56.3577 57.9155 56.385C58.7758 56.6942 59.6832 56.8512 60.5972 56.8491Z" fill="#F88968"/>
<path d="M52.6872 45.8752C56.2565 46.5907 59.6617 46.7067 63.0188 45.3048C64.3888 44.6906 65.8689 44.3617 67.3695 44.338C69.9824 44.462 72.5228 45.2397 74.7588 46.6004C76.4936 43.5663 77.6975 40.257 78.3185 36.8159H80.9906C80.9906 36.8159 80.6819 46.1943 78.1738 53.0686C77.3782 55.2644 76.199 57.3007 74.6913 59.0823C72.8225 61.3223 70.4573 63.0937 67.7843 64.2549C66.2421 64.9865 64.5509 65.3473 62.8452 65.3088C58.6971 64.9897 50.6614 57.2937 50.6614 52.2854C52.2434 55.534 54.6647 58.3862 58.1954 58.7149C63.0188 59.1597 67.0029 56.4042 70.3117 52.6915C72.1832 50.6031 70.4564 47.4512 67.4756 47.6252H67.3984C65.1025 47.7896 62.6522 48.9208 60.7325 49.5589C58.5138 50.3227 57.443 49.5589 55.6005 49.0368C52.118 48.07 50.8929 49.1722 50.2562 49.878C49.7872 49.3556 49.4557 48.7242 49.2915 48.041C49.1515 47.3747 49.1515 46.6865 49.2915 46.0203C49.7835 45.2855 51.0376 45.5465 52.6872 45.8752Z" fill="#32324C"/>
<path d="M65.7482 42.8394C66.8258 42.8394 67.8792 42.5193 68.7753 41.9194C69.6714 41.3196 70.37 40.467 70.7828 39.4694C71.1956 38.4718 71.3041 37.374 71.0946 36.3146C70.8851 35.2552 70.3669 34.2818 69.6056 33.5175C68.8444 32.7531 67.8741 32.2321 66.8175 32.0202C65.7608 31.8083 64.6652 31.9151 63.6691 32.3271C62.673 32.7391 61.8211 33.4377 61.2211 34.3348C60.621 35.2319 60.2998 36.2871 60.2979 37.3671C60.3004 38.816 60.8751 40.2049 61.8965 41.2304C62.9178 42.2558 64.3026 42.8343 65.7482 42.8394ZM65.7482 32.8132C66.6484 32.8151 67.5277 33.0844 68.2753 33.587C69.0228 34.0896 69.6049 34.803 69.948 35.637C70.2912 36.4711 70.3799 37.3883 70.2032 38.2729C70.0264 39.1575 69.592 39.9698 68.9548 40.607C68.3177 41.2443 67.5063 41.6779 66.6233 41.8532C65.7404 42.0285 64.8254 41.9376 63.9939 41.5919C63.1625 41.2462 62.4519 40.6613 61.952 39.9111C61.4522 39.1608 61.1854 38.2789 61.1854 37.3767C61.1815 36.7734 61.2971 36.1752 61.5254 35.617C61.7537 35.0587 62.0902 34.5513 62.5155 34.1242C62.9407 33.6971 63.4462 33.3588 64.0028 33.1288C64.5593 32.8988 65.1559 32.7817 65.7579 32.7842L65.7482 32.8132Z" fill="#32324C"/>
<path d="M51.5578 42.8394C52.6358 42.8394 53.6896 42.519 54.5859 41.9188C55.4822 41.3185 56.1808 40.4654 56.5933 39.4672C57.0058 38.469 57.1138 37.3707 56.9035 36.311C56.6932 35.2514 56.1741 34.278 55.4118 33.514C54.6496 32.7501 53.6784 32.2298 52.6211 32.019C51.5639 31.8083 50.468 31.9164 49.472 32.3299C48.4761 32.7433 47.6249 33.4435 47.026 34.3418C46.4271 35.2402 46.1074 36.2963 46.1074 37.3767C46.11 38.8247 46.685 40.2127 47.7066 41.2366C48.7282 42.2605 50.1131 42.8368 51.5578 42.8394ZM51.5578 32.8132C52.4584 32.8132 53.3387 33.0809 54.0875 33.5823C54.8362 34.0838 55.4198 34.7965 55.7645 35.6304C56.1091 36.4642 56.1993 37.3818 56.0236 38.267C55.8479 39.1523 55.4142 39.9654 54.7774 40.6036C54.1407 41.2418 53.3294 41.6765 52.4461 41.8525C51.5629 42.0286 50.6474 41.9383 49.8154 41.5929C48.9834 41.2475 48.2722 40.6625 47.7719 39.9121C47.2716 39.1616 47.0046 38.2793 47.0046 37.3767C47.0008 36.7746 47.1156 36.1775 47.3426 35.62C47.5696 35.0624 47.9043 34.5553 48.3273 34.1277C48.7504 33.7001 49.2536 33.3604 49.8079 33.1282C50.3623 32.896 50.957 32.7758 51.5578 32.7746V32.8132Z" fill="#32324C"/>
<path d="M80.808 34.7203L70.5264 35.5168L70.5955 36.4133L80.8772 35.6168L80.808 34.7203Z" fill="#32324C"/>
<path d="M60.5485 36.932L61.0695 36.1972C60.3647 35.696 59.5219 35.4268 58.6578 35.4268C57.7936 35.4268 56.9508 35.696 56.2461 36.1972L56.796 36.9127C57.3493 36.5334 58.0049 36.3321 58.6753 36.3355C59.3456 36.339 59.9991 36.5471 60.5485 36.932Z" fill="#32324C"/>
<path d="M57.3655 44.7731C57.47 44.7717 57.5729 44.7466 57.6665 44.6997C57.76 44.6528 57.8418 44.5854 57.9057 44.5024C57.9619 44.4307 58.0031 44.3484 58.0269 44.2604C58.0506 44.1724 58.0563 44.0804 58.0437 43.9901C58.0311 43.8998 58.0004 43.813 57.9535 43.7349C57.9065 43.6568 57.8444 43.589 57.7706 43.5356L55.9763 42.1626L57.5391 41.7566C57.6643 41.7231 57.7772 41.6543 57.8645 41.5583C57.9517 41.4623 58.0096 41.3432 58.0311 41.2151L58.716 36.9223C58.7438 36.7455 58.7005 36.5647 58.5957 36.4198C58.4908 36.2748 58.3329 36.1774 58.1565 36.1489C58.069 36.1337 57.9793 36.1363 57.8928 36.1565C57.8062 36.1766 57.7246 36.2139 57.6527 36.2662C57.5807 36.3184 57.52 36.3846 57.474 36.4608C57.428 36.5369 57.3976 36.6215 57.3848 36.7096L56.7674 40.577L54.2785 41.2441C54.1582 41.2787 54.0496 41.3456 53.9646 41.4377C53.8796 41.5297 53.8213 41.6433 53.7962 41.7662C53.7683 41.8898 53.7772 42.0189 53.8218 42.1375C53.8664 42.2561 53.9447 42.3589 54.047 42.4333L56.941 44.6474C57.063 44.7388 57.2135 44.7834 57.3655 44.7731Z" fill="#F88968"/>
<path d="M58.4163 53.6777C59.9789 53.709 61.532 53.4275 62.9847 52.8498C64.4374 52.2721 65.7604 51.4097 66.8765 50.3131C67.0044 50.1849 67.0763 50.011 67.0763 49.8297C67.0763 49.6483 67.0044 49.4744 66.8765 49.3462C66.7485 49.218 66.575 49.146 66.3941 49.146C66.2132 49.146 66.0397 49.218 65.9118 49.3462C61.0885 54.0548 54.4515 51.7343 54.3358 51.7053C54.1681 51.6462 53.984 51.6556 53.8233 51.7316C53.6625 51.8077 53.5382 51.9441 53.4772 52.1114C53.4207 52.2795 53.4314 52.463 53.5069 52.6234C53.5824 52.7838 53.717 52.9087 53.8824 52.9719C55.3482 53.4406 56.8777 53.6787 58.4163 53.6777Z" fill="#F88968"/>
<path d="M50.3231 24.1405C55.5323 31.7786 70.012 21.9554 70.012 21.9554C70.7741 25.4747 75.8772 25.3974 77.1699 28.3753C78.4625 31.3532 78.3178 36.8448 78.3178 36.8448H80.9803C84.4049 32.1073 88.4854 34.7661 88.4854 34.7661C90.4148 25.4167 87.7426 18.9195 78.4529 13.7083C76.8933 12.8668 75.2197 12.2577 73.4848 11.9003C70.5908 10.6724 58.3106 6.30224 50.8054 11.6296C43.6669 16.6088 50.053 23.8214 50.3231 24.1405Z" fill="#32324C"/>
<path d="M102.059 149.531C99.2417 162.1 96.9265 172.735 96.9265 172.735C98.5954 175.577 101.653 176.409 104.721 177.221C112.339 161.373 117.352 144.396 119.567 126.945C119.876 111.717 105.676 73.6914 105.676 73.6914C96.0293 72.5505 93.2607 86.067 93.2607 86.067C99.9266 108.217 106.612 128.386 106.708 128.695C106.236 130.822 104.441 138.779 102.059 149.531Z" fill="#FA804E"/>
</g>
</svg>
