<svg width="55" height="69" viewBox="0 0 55 69" fill="none" xmlns="http://www.w3.org/2000/svg">
<g clip-path="url(#clip0)">
<path d="M49.1532 15.1176C49.1532 15.1176 45.2791 2.46716 31.2185 0.288135C17.158 -1.89089 9.42676 9.00423 9.42676 9.00423C9.42676 9.00423 17.4873 1.74082 28.4195 6.49351C28.4195 6.49351 33.8311 8.91465 37.4268 15.12L49.1532 15.1176Z" fill="url(#paint0_linear)"/>
<path d="M31.9299 21.8123H49.1527C49.1527 21.8123 48.8621 33.9179 38.2907 37.1114C27.7193 40.3049 23.0752 34.2738 23.0752 34.2738C23.0752 34.2738 32.4457 38.7384 38.3754 29.296L31.8912 29.2621L31.9299 21.8123Z" fill="url(#paint1_linear)"/>
<path d="M31.6532 11.0208C31.6532 11.0208 19.3699 0.532445 7.77423 13.4928C7.77423 13.4928 -0.680972 23.555 9.43041 36.8592C19.5418 50.1633 34.7234 44.9603 34.7234 44.9603C34.7234 44.9603 47.4304 42.055 50.244 26.8817C50.244 26.8817 46.8323 38.9874 34.1253 40.0139C34.1253 40.0139 26.1955 41.8903 18.3481 32.7651C18.3481 32.7651 11.9534 24.6639 16.8154 16.3013C21.6774 7.93871 31.6532 11.0208 31.6532 11.0208Z" fill="url(#paint2_linear)"/>
<path d="M6.75787 63.2619V61.7801H12.7724C12.7724 63.6686 12.2139 65.2666 11.0969 66.574C9.97982 67.8814 8.47135 68.5359 6.57143 68.5375C4.68281 68.5375 3.11542 67.908 1.86925 66.649C0.623083 65.39 0 63.7977 0 61.8721C0 59.9465 0.623083 58.355 1.86925 57.0977C3.11542 55.8403 4.68281 55.2084 6.57143 55.2019C9.02663 55.2019 10.8224 56.1211 11.9588 57.9596L10.8475 58.9789C9.97094 57.5101 8.5456 56.7756 6.57143 56.7756C5.9214 56.7591 5.27497 56.8772 4.67283 57.1226C4.07069 57.3681 3.52586 57.7355 3.07264 58.2017C2.1364 59.1508 1.66747 60.3718 1.66586 61.8649C1.66425 63.3579 2.13317 64.5798 3.07264 65.5305C3.52586 65.9967 4.07069 66.3641 4.67283 66.6095C5.27497 66.8549 5.9214 66.9731 6.57143 66.9565C7.79338 66.9565 8.79338 66.6079 9.57143 65.9106C10.3496 65.2112 10.8763 64.2754 11.0702 63.2473L6.75787 63.2619Z" fill="#00C09E"/>
<path d="M24.363 55.3931H26.1209L21.8061 62.7606V68.351H20.2347V62.7824L15.9199 55.3931H17.6754L21.0095 61.3926L24.363 55.3931Z" fill="#00C09E"/>
<path d="M30.6373 64.465L28.9908 68.3509H27.2305L33.2474 54.7466L39.2644 68.3509H37.5065L35.8576 64.465H30.6373ZM31.2668 62.9833H35.2281L33.2474 58.3178L31.2668 62.9833Z" fill="#00C09E"/>
<path d="M53.4264 55.393H55.0002V69.0022L45.1891 58.71V68.3534H43.6152V54.7466L53.4264 65.0388V55.393Z" fill="#00C09E"/>
</g>
<defs>
<linearGradient id="paint0_linear" x1="9.4316" y1="7.55881" x2="49.1532" y2="7.55881" gradientUnits="userSpaceOnUse">
<stop stop-color="#008FE5"/>
<stop offset="0.41" stop-color="#00A1CB"/>
<stop offset="1" stop-color="#00C09E"/>
</linearGradient>
<linearGradient id="paint1_linear" x1="2508.26" y1="2028.08" x2="5316.8" y2="2028.08" gradientUnits="userSpaceOnUse">
<stop stop-color="#008FE5"/>
<stop offset="0.41" stop-color="#00A1CB"/>
<stop offset="1" stop-color="#00C09E"/>
</linearGradient>
<linearGradient id="paint2_linear" x1="848.666" y1="4268.02" x2="9504.49" y2="4268.02" gradientUnits="userSpaceOnUse">
<stop stop-color="#008FE5"/>
<stop offset="0.41" stop-color="#00A1CB"/>
<stop offset="1" stop-color="#00C09E"/>
</linearGradient>
<clipPath id="clip0">
<rect width="55" height="69" fill="white"/>
</clipPath>
</defs>
</svg>
