<svg width="16" height="15" viewBox="0 0 16 15" fill="none" xmlns="http://www.w3.org/2000/svg">
<path d="M13.5156 6.3986H13.0625V6.37525H8.00001V8.62526H11.179C10.7152 9.93504 9.46898 10.8753 8.00001 10.8753C6.13616 10.8753 4.625 9.3641 4.625 7.50026C4.625 5.63641 6.13616 4.12525 8.00001 4.12525C8.86036 4.12525 9.64308 4.44981 10.239 4.97997L11.8301 3.38893C10.8255 2.45265 9.48164 1.87524 8.00001 1.87524C4.8936 1.87524 2.375 4.39384 2.375 7.50026C2.375 10.6067 4.8936 13.1253 8.00001 13.1253C11.1064 13.1253 13.625 10.6067 13.625 7.50026C13.625 7.1231 13.5862 6.75494 13.5156 6.3986Z" fill="#FBC02D"/>
<path d="M3.02344 4.88185L4.87154 6.2372C5.3716 4.99913 6.58266 4.125 7.99989 4.125C8.86023 4.125 9.64295 4.44957 10.2389 4.97973L11.83 3.38869C10.8253 2.45241 9.48151 1.875 7.99989 1.875C5.83932 1.875 3.96563 3.09478 3.02344 4.88185Z" fill="#E53935"/>
<path d="M7.99985 13.125C9.45279 13.125 10.773 12.5689 11.7711 11.6647L10.0302 10.1915C9.46545 10.6193 8.76345 10.875 7.99985 10.875C6.53679 10.875 5.2945 9.94205 4.8265 8.64014L2.99219 10.0534C3.92313 11.8751 5.81369 13.125 7.99985 13.125Z" fill="#4CAF50"/>
<path d="M13.5156 6.39834L13.5111 6.375H13.0625H8V8.625H11.179C10.9562 9.25416 10.5515 9.79669 10.0295 10.1919C10.0298 10.1916 10.0301 10.1916 10.0303 10.1913L11.7713 11.6645C11.6481 11.7764 13.625 10.3125 13.625 7.5C13.625 7.12285 13.5862 6.75469 13.5156 6.39834Z" fill="#1565C0"/>
</svg>
