<svg width="36" height="36" viewBox="0 0 36 36" fill="none" xmlns="http://www.w3.org/2000/svg">
<path fill-rule="evenodd" clip-rule="evenodd" d="M18.6101 2.718V0.545143C18.6101 0.244286 18.3367 0 18 0C17.6633 0 17.3899 0.244286 17.3899 0.545143V2.718C7.74676 3.00857 0 10.1031 0 18.7894C0 19.0054 0.143885 19.2009 0.365468 19.2883C0.443165 19.3191 0.526619 19.3346 0.610072 19.3346C0.759712 19.3346 0.909353 19.2831 1.02446 19.188C1.21727 19.0286 5.81007 15.3206 11.1655 19.2137C11.1799 19.224 11.1942 19.2291 11.2086 19.2369C11.2259 19.2471 11.2374 19.26 11.2576 19.2677C11.2691 19.2729 11.2777 19.2754 11.2892 19.278C11.3151 19.2883 11.3381 19.296 11.3669 19.3037C11.3957 19.3114 11.4216 19.3191 11.4504 19.3217C11.4763 19.3269 11.5022 19.3269 11.5309 19.3294C11.5597 19.3294 11.5914 19.3294 11.6201 19.3269C11.646 19.3243 11.6719 19.3217 11.695 19.3166C11.7266 19.3089 11.7554 19.2986 11.787 19.2883C11.8014 19.2831 11.8187 19.2806 11.8331 19.2729C11.8417 19.2703 11.8475 19.2626 11.8532 19.26C11.8619 19.2549 11.8705 19.2549 11.8791 19.2497C12.0259 19.1649 14.236 17.9383 17.3899 17.7763V31.5694C17.3899 34.0123 19.6144 36 22.3482 36C25.082 36 27.3065 34.0123 27.3065 31.5694C27.3065 31.2686 27.0331 31.0243 26.6964 31.0243C26.3597 31.0243 26.0863 31.2686 26.0863 31.5694C26.0863 33.4106 24.4086 34.9097 22.3482 34.9097C20.2878 34.9097 18.6101 33.4106 18.6101 31.5694V17.7686C20.2993 17.838 22.1899 18.2417 24.1439 19.26C24.1496 19.2626 24.1554 19.2626 24.1583 19.2651C24.1611 19.2677 24.164 19.2703 24.1698 19.2729C24.1842 19.2806 24.2014 19.2806 24.2158 19.2883C24.2504 19.3011 24.282 19.314 24.3194 19.3217C24.3424 19.3269 24.3655 19.3269 24.3885 19.3294C24.4086 19.332 24.4317 19.3371 24.4518 19.3371C24.4633 19.3371 24.4719 19.3346 24.4835 19.332C24.5094 19.332 24.5324 19.3269 24.5554 19.3243C24.587 19.3191 24.6158 19.3114 24.6446 19.3037C24.6676 19.296 24.6906 19.2883 24.7137 19.278C24.7281 19.2729 24.7424 19.2703 24.754 19.2626C24.7712 19.2549 24.7827 19.242 24.8 19.2317C24.8115 19.224 24.8259 19.2214 24.8374 19.2137C30.1698 15.3386 34.7827 19.0337 34.9755 19.1906C35.0906 19.2857 35.2403 19.3371 35.3899 19.3371C35.4734 19.3371 35.5568 19.3217 35.6345 19.2909C35.8561 19.2034 36 19.008 36 18.792C36 10.1031 28.2532 3.00857 18.6101 2.718ZM6.1554 16.3697C4.04604 16.3697 2.31079 17.1077 1.26619 17.6914C1.85899 10.4066 8.29928 4.55143 16.4029 3.86486C16.3597 3.90343 16.3223 3.94457 16.2791 3.98571C16.2216 4.03971 16.164 4.09629 16.1094 4.15286C16.0144 4.248 15.9194 4.34314 15.8273 4.44086C15.7899 4.47943 15.7554 4.518 15.718 4.55657C15.6086 4.67229 15.5022 4.79057 15.3986 4.90886C15.387 4.92429 15.3727 4.93714 15.3612 4.95257C11.3928 9.49886 10.9122 15.2743 10.9065 17.694C9.21727 16.7169 7.6 16.3697 6.1554 16.3697ZM18.0835 16.6654C15.4475 16.6654 13.318 17.3829 12.1611 17.8766V16.9354C12.282 14.4283 12.9554 9.78686 16.0115 6.00686C16.0806 5.91943 16.1525 5.83457 16.2245 5.74971C16.3309 5.62371 16.4403 5.50029 16.5525 5.37686C16.7022 5.21229 16.8576 5.04771 17.0187 4.88829C17.0878 4.82143 17.154 4.752 17.223 4.68257C17.4417 4.47171 17.6719 4.26857 17.9108 4.06543C17.9396 4.03971 17.9712 4.01657 18.0029 3.99086C18.0317 4.01657 18.0633 4.03971 18.095 4.06543C18.3338 4.266 18.564 4.47171 18.7827 4.68257C18.8518 4.74943 18.9151 4.81629 18.9842 4.88314C19.1453 5.04514 19.3036 5.20714 19.4532 5.37429C19.5655 5.49771 19.6748 5.62114 19.7813 5.74714C19.8532 5.832 19.9223 5.91943 19.9942 6.00429C23.0446 9.77657 23.7209 14.4077 23.8446 16.9174V17.8766C21.7899 16.9791 19.8273 16.6654 18.0835 16.6654ZM25.0964 17.694C25.0878 15.2717 24.6101 9.49629 20.6417 4.95257C20.6302 4.93714 20.6158 4.92429 20.6043 4.90886C20.5007 4.79057 20.3914 4.67229 20.282 4.554C20.2475 4.51543 20.2101 4.47686 20.1755 4.44086C20.0835 4.34314 19.9856 4.24543 19.8906 4.14771C19.836 4.09371 19.7813 4.03714 19.7237 3.98314C19.6806 3.942 19.6432 3.90086 19.6 3.85971C27.7036 4.54629 34.1439 10.404 34.7367 17.6889C32.9755 16.7091 29.2489 15.2871 25.0964 17.694Z" fill="white"/>
<path fill-rule="evenodd" clip-rule="evenodd" d="M18.6101 2.718V0.545143C18.6101 0.244286 18.3367 0 18 0C17.6633 0 17.3899 0.244286 17.3899 0.545143V2.718C7.74676 3.00857 0 10.1031 0 18.7894C0 19.0054 0.143885 19.2009 0.365468 19.2883C0.443165 19.3191 0.526619 19.3346 0.610072 19.3346C0.759712 19.3346 0.909353 19.2831 1.02446 19.188C1.21727 19.0286 5.81007 15.3206 11.1655 19.2137C11.1799 19.224 11.1942 19.2291 11.2086 19.2369C11.2259 19.2471 11.2374 19.26 11.2576 19.2677C11.2691 19.2729 11.2777 19.2754 11.2892 19.278C11.3151 19.2883 11.3381 19.296 11.3669 19.3037C11.3957 19.3114 11.4216 19.3191 11.4504 19.3217C11.4763 19.3269 11.5022 19.3269 11.5309 19.3294C11.5597 19.3294 11.5914 19.3294 11.6201 19.3269C11.646 19.3243 11.6719 19.3217 11.695 19.3166C11.7266 19.3089 11.7554 19.2986 11.787 19.2883C11.8014 19.2831 11.8187 19.2806 11.8331 19.2729C11.8417 19.2703 11.8475 19.2626 11.8532 19.26C11.8619 19.2549 11.8705 19.2549 11.8791 19.2497C12.0259 19.1649 14.236 17.9383 17.3899 17.7763V31.5694C17.3899 34.0123 19.6144 36 22.3482 36C25.082 36 27.3065 34.0123 27.3065 31.5694C27.3065 31.2686 27.0331 31.0243 26.6964 31.0243C26.3597 31.0243 26.0863 31.2686 26.0863 31.5694C26.0863 33.4106 24.4086 34.9097 22.3482 34.9097C20.2878 34.9097 18.6101 33.4106 18.6101 31.5694V17.7686C20.2993 17.838 22.1899 18.2417 24.1439 19.26C24.1496 19.2626 24.1554 19.2626 24.1583 19.2651C24.1611 19.2677 24.164 19.2703 24.1698 19.2729C24.1842 19.2806 24.2014 19.2806 24.2158 19.2883C24.2504 19.3011 24.282 19.314 24.3194 19.3217C24.3424 19.3269 24.3655 19.3269 24.3885 19.3294C24.4086 19.332 24.4317 19.3371 24.4518 19.3371C24.4633 19.3371 24.4719 19.3346 24.4835 19.332C24.5094 19.332 24.5324 19.3269 24.5554 19.3243C24.587 19.3191 24.6158 19.3114 24.6446 19.3037C24.6676 19.296 24.6906 19.2883 24.7137 19.278C24.7281 19.2729 24.7424 19.2703 24.754 19.2626C24.7712 19.2549 24.7827 19.242 24.8 19.2317C24.8115 19.224 24.8259 19.2214 24.8374 19.2137C30.1698 15.3386 34.7827 19.0337 34.9755 19.1906C35.0906 19.2857 35.2403 19.3371 35.3899 19.3371C35.4734 19.3371 35.5568 19.3217 35.6345 19.2909C35.8561 19.2034 36 19.008 36 18.792C36 10.1031 28.2532 3.00857 18.6101 2.718ZM6.1554 16.3697C4.04604 16.3697 2.31079 17.1077 1.26619 17.6914C1.85899 10.4066 8.29928 4.55143 16.4029 3.86486C16.3597 3.90343 16.3223 3.94457 16.2791 3.98571C16.2216 4.03971 16.164 4.09629 16.1094 4.15286C16.0144 4.248 15.9194 4.34314 15.8273 4.44086C15.7899 4.47943 15.7554 4.518 15.718 4.55657C15.6086 4.67229 15.5022 4.79057 15.3986 4.90886C15.387 4.92429 15.3727 4.93714 15.3612 4.95257C11.3928 9.49886 10.9122 15.2743 10.9065 17.694C9.21727 16.7169 7.6 16.3697 6.1554 16.3697ZM18.0835 16.6654C15.4475 16.6654 13.318 17.3829 12.1611 17.8766V16.9354C12.282 14.4283 12.9554 9.78686 16.0115 6.00686C16.0806 5.91943 16.1525 5.83457 16.2245 5.74971C16.3309 5.62371 16.4403 5.50029 16.5525 5.37686C16.7022 5.21229 16.8576 5.04771 17.0187 4.88829C17.0878 4.82143 17.154 4.752 17.223 4.68257C17.4417 4.47171 17.6719 4.26857 17.9108 4.06543C17.9396 4.03971 17.9712 4.01657 18.0029 3.99086C18.0317 4.01657 18.0633 4.03971 18.095 4.06543C18.3338 4.266 18.564 4.47171 18.7827 4.68257C18.8518 4.74943 18.9151 4.81629 18.9842 4.88314C19.1453 5.04514 19.3036 5.20714 19.4532 5.37429C19.5655 5.49771 19.6748 5.62114 19.7813 5.74714C19.8532 5.832 19.9223 5.91943 19.9942 6.00429C23.0446 9.77657 23.7209 14.4077 23.8446 16.9174V17.8766C21.7899 16.9791 19.8273 16.6654 18.0835 16.6654ZM25.0964 17.694C25.0878 15.2717 24.6101 9.49629 20.6417 4.95257C20.6302 4.93714 20.6158 4.92429 20.6043 4.90886C20.5007 4.79057 20.3914 4.67229 20.282 4.554C20.2475 4.51543 20.2101 4.47686 20.1755 4.44086C20.0835 4.34314 19.9856 4.24543 19.8906 4.14771C19.836 4.09371 19.7813 4.03714 19.7237 3.98314C19.6806 3.942 19.6432 3.90086 19.6 3.85971C27.7036 4.54629 34.1439 10.404 34.7367 17.6889C32.9755 16.7091 29.2489 15.2871 25.0964 17.694Z" fill="#FA7C49"/>
</svg>
