<svg width="136" height="172" viewBox="0 0 136 172" fill="none" xmlns="http://www.w3.org/2000/svg">
<path d="M121.541 37.4751C121.541 37.4751 111.961 6.12403 77.1935 0.72384C42.4256 -4.67635 23.3084 22.3246 23.3084 22.3246C23.3084 22.3246 43.2399 4.32397 70.2723 16.1024C70.2723 16.1024 83.6597 22.1026 92.5448 37.4811L121.541 37.4751Z" fill="#008FE5"/>
<path d="M78.9538 54.0654H121.541C121.541 54.0654 120.822 84.0665 94.6822 91.9808C68.542 99.895 57.0585 84.9485 57.0585 84.9485C57.0585 84.9485 80.2291 96.0129 94.8918 72.6121L78.858 72.5281L78.9538 54.0654Z" fill="#008FE5"/>
<path d="M78.2709 27.3228C78.2709 27.3228 47.8977 1.32992 19.2249 33.449C19.2249 33.449 -1.68256 58.3859 23.3201 91.3571C48.3228 124.328 85.8628 111.434 85.8628 111.434C85.8628 111.434 117.284 104.234 124.241 66.6302C124.241 66.6302 115.805 96.6313 84.3839 99.1754C84.3839 99.1754 64.7757 103.826 45.3771 81.2107C45.3771 81.2107 29.5588 61.134 41.5812 40.4093C53.6035 19.6846 78.2709 27.3228 78.2709 27.3228Z" fill="#008FE5"/>
<path d="M16.7104 156.789V153.117H31.5827C31.5827 157.797 30.2016 161.757 27.4395 164.997C24.6774 168.238 20.9473 169.86 16.2493 169.864C11.5793 169.864 7.70357 168.304 4.62214 165.183C1.54071 162.063 0 158.117 0 153.345C0 148.573 1.54071 144.629 4.62214 141.513C7.70357 138.397 11.5793 136.83 16.2493 136.814C22.3204 136.814 26.7609 139.093 29.5709 143.649L26.8228 146.175C24.6554 142.535 21.1309 140.715 16.2493 140.715C14.642 140.674 13.0436 140.966 11.5546 141.575C10.0657 142.183 8.71849 143.093 7.5978 144.249C5.28273 146.601 4.12321 149.627 4.11922 153.327C4.11522 157.027 5.27475 160.055 7.5978 162.411C8.71849 163.567 10.0657 164.477 11.5546 165.086C13.0436 165.694 14.642 165.987 16.2493 165.945C19.2709 165.945 21.7436 165.081 23.6675 163.353C25.5918 161.62 26.894 159.301 27.3736 156.753L16.7104 156.789Z" fill="#008FE5"/>
<path d="M60.2436 137.289H64.5903L53.9211 155.547V169.402H50.0353V155.601L39.3661 137.289H43.7068L51.9513 152.157L60.2436 137.289Z" fill="#008FE5"/>
<path d="M75.7564 159.771L71.6851 169.402H67.3324L82.2107 135.687L97.089 169.402H92.7422L88.6649 159.771H75.7564ZM77.3131 156.099H87.1082L82.2107 144.537L77.3131 156.099Z" fill="#008FE5"/>
<path d="M132.108 137.289H136V171.016L111.74 145.509V169.408H107.848V135.687L132.108 161.193V137.289Z" fill="#008FE5"/>
</svg>
