<svg width="136" height="171" viewBox="0 0 136 171" fill="none" xmlns="http://www.w3.org/2000/svg">
<path d="M121.541 37.464C121.541 37.464 111.962 6.11405 77.1937 0.714049C42.4258 -4.68595 23.3086 22.314 23.3086 22.314C23.3086 22.314 43.2401 4.31405 70.2725 16.092C70.2725 16.092 83.6599 22.092 92.545 37.47L121.541 37.464Z" fill="#00C09E"/>
<path d="M78.9539 54.0537H121.541C121.541 54.0537 120.823 84.0537 94.6824 91.9677C68.5421 99.8817 57.0586 84.9357 57.0586 84.9357C57.0586 84.9357 80.2292 95.9997 94.8919 72.5997L78.8641 72.5157L78.9539 54.0537Z" fill="#00C09E"/>
<path d="M78.2713 27.3117C78.2713 27.3117 47.898 1.31975 19.2252 33.4377C19.2252 33.4377 -1.68226 58.3737 23.3204 91.3437C48.3231 124.314 85.8631 111.42 85.8631 111.42C85.8631 111.42 117.284 104.22 124.241 66.6177C124.241 66.6177 115.805 96.6177 84.3842 99.1617C84.3842 99.1617 64.776 103.812 45.3774 81.1977C45.3774 81.1977 29.5591 61.1217 41.5815 40.3977C53.6039 19.6737 78.2713 27.3117 78.2713 27.3117Z" fill="#00C09E"/>
<path d="M16.7104 156.774V153.102H31.5827C31.5827 157.782 30.2016 161.742 27.4395 164.982C24.6774 168.222 20.9473 169.844 16.2493 169.848C11.5793 169.848 7.70357 168.288 4.62214 165.168C1.54071 162.048 0 158.102 0 153.33C0 148.558 1.54071 144.614 4.62214 141.498C7.70357 138.382 11.5793 136.816 16.2493 136.8C22.3204 136.8 26.7609 139.078 29.5709 143.634L26.8228 146.16C24.6554 142.52 21.1309 140.7 16.2493 140.7C14.642 140.659 13.0436 140.952 11.5546 141.56C10.0657 142.168 8.71849 143.078 7.5978 144.234C5.28273 146.586 4.12321 149.612 4.11922 153.312C4.11522 157.012 5.27475 160.04 7.5978 162.396C8.71849 163.551 10.0657 164.462 11.5546 165.07C13.0436 165.678 14.642 165.971 16.2493 165.93C19.2709 165.93 21.7436 165.066 23.6675 163.338C25.5918 161.605 26.894 159.286 27.3736 156.738L16.7104 156.774Z" fill="#00C09E"/>
<path d="M60.2437 137.274H64.5904L53.9212 155.532V169.386H50.0355V155.586L39.3662 137.274H43.707L51.9514 152.142L60.2437 137.274Z" fill="#00C09E"/>
<path d="M75.7561 159.756L71.6848 169.386H67.332L82.2103 135.672L97.0886 169.386H92.7418L88.6645 159.756H75.7561ZM77.3128 156.084H87.1079L82.2103 144.522L77.3128 156.084Z" fill="#00C09E"/>
<path d="M132.108 137.274H136V171L111.739 145.494V169.392H107.848V135.672L132.108 161.178V137.274Z" fill="#00C09E"/>
</svg>
