<svg width="1440" height="1024" viewBox="0 0 1440 1024" fill="none" xmlns="http://www.w3.org/2000/svg">
<g clip-path="url(#clip0)">
<rect width="1440" height="1024" fill="white"/>
<path d="M2216.69 -436.988C2434.65 -106.225 1215.49 893.18 797.063 707.734C657.611 645.929 651.469 529.215 658.789 406.935C666.108 284.654 664.759 198.42 395.694 141.24C-28.4514 80.79 389.927 -527.204 500.486 -630.377C611.045 -733.55 1927.3 -876.167 2216.69 -436.988Z" fill="white"/>
<path d="M2216.69 -436.988C2434.65 -106.225 1215.49 893.18 797.063 707.734C657.611 645.929 651.469 529.215 658.789 406.935C666.108 284.654 664.759 198.42 395.694 141.24C-28.4514 80.79 389.927 -527.204 500.486 -630.377C611.045 -733.55 1927.3 -876.167 2216.69 -436.988Z" fill="url(#paint0_linear)"/>
<path d="M1363.26 802.573C1600.59 1119.72 443.321 2190.19 14.5616 2030.07C-128.333 1976.71 -141.438 1860.57 -141.438 1738.07C-141.438 1615.57 -176.938 1529.07 -448.938 1488.07C-875.938 1453.07 -886.635 912.168 -782.438 802.573C-678.241 692.979 1048.14 381.47 1363.26 802.573Z" fill="white" fill-opacity="0.5"/>
<path d="M2260.26 802.573C2497.59 1119.72 1340.32 2190.19 911.562 2030.07C768.667 1976.71 755.562 1860.57 755.562 1738.07C755.562 1615.57 720.062 1529.07 448.062 1488.07C21.0623 1453.07 10.3652 912.168 114.562 802.573C218.759 692.979 1945.14 381.47 2260.26 802.573Z" fill="white" fill-opacity="0.5"/>
<path d="M1049.26 802.573C1286.59 1119.72 129.321 2190.19 -299.438 2030.07C-442.333 1976.71 -455.438 1860.57 -455.438 1738.07C-455.438 1615.57 -490.938 1529.07 -762.938 1488.07C-1189.94 1453.07 -1200.63 912.168 -1096.44 802.573C-992.241 692.979 734.14 381.47 1049.26 802.573Z" fill="white" fill-opacity="0.5"/>
</g>
<defs>
<linearGradient id="paint0_linear" x1="84.4021" y1="-80.7554" x2="995.156" y2="883.768" gradientUnits="userSpaceOnUse">
<stop stop-color="#008FE5"/>
<stop offset="1" stop-color="#00C09E"/>
</linearGradient>
<clipPath id="clip0">
<rect width="1440" height="1024" fill="white"/>
</clipPath>
</defs>
</svg>
