<svg width="88" height="88" viewBox="0 0 88 88" fill="none" xmlns="http://www.w3.org/2000/svg">
<path d="M43.7852 0C19.8854 0 0.441406 19.6008 0.441406 43.6934C0.441406 67.7859 19.8854 87.3867 43.7852 87.3867C67.685 87.3867 87.129 67.7859 87.129 43.6934C87.129 19.6008 67.685 0 43.7852 0ZM58.0583 64.2598L39.4508 45.5023V17.4773H48.1196V41.8845L64.1872 58.0816L58.0583 64.2598Z" fill="white"/>
<path d="M43.7852 0C19.8854 0 0.441406 19.6008 0.441406 43.6934C0.441406 67.7859 19.8854 87.3867 43.7852 87.3867C67.685 87.3867 87.129 67.7859 87.129 43.6934C87.129 19.6008 67.685 0 43.7852 0ZM58.0583 64.2598L39.4508 45.5023V17.4773H48.1196V41.8845L64.1872 58.0816L58.0583 64.2598Z" fill="#494949" fill-opacity="0.8"/>
</svg>
