<svg width="36" height="36" viewBox="0 0 36 36" fill="none" xmlns="http://www.w3.org/2000/svg">
<path fill-rule="evenodd" clip-rule="evenodd" d="M4.5 30.375V15.75H6.75V30.375C6.75 30.6734 6.86853 30.9595 7.0795 31.1705C7.29048 31.3815 7.57663 31.5 7.875 31.5H28.125C28.4234 31.5 28.7095 31.3815 28.9205 31.1705C29.1315 30.9595 29.25 30.6734 29.25 30.375V15.75H31.5V30.375C31.5 31.2701 31.1444 32.1286 30.5115 32.7615C29.8786 33.3944 29.0201 33.75 28.125 33.75H7.875C6.97989 33.75 6.12145 33.3944 5.48851 32.7615C4.85558 32.1286 4.5 31.2701 4.5 30.375ZM29.25 5.625V13.5L24.75 9V5.625C24.75 5.32663 24.8685 5.04048 25.0795 4.82951C25.2905 4.61853 25.5766 4.5 25.875 4.5H28.125C28.4234 4.5 28.7095 4.61853 28.9205 4.82951C29.1315 5.04048 29.25 5.32663 29.25 5.625Z" fill="white"/>
<path fill-rule="evenodd" clip-rule="evenodd" d="M16.4092 3.37508C16.8311 2.95327 17.4033 2.71631 18 2.71631C18.5966 2.71631 19.1688 2.95327 19.5907 3.37508L34.5465 18.3286C34.7577 18.5398 34.8764 18.8263 34.8764 19.1251C34.8764 19.4238 34.7577 19.7103 34.5465 19.9216C34.3352 20.1328 34.0487 20.2515 33.75 20.2515C33.4512 20.2515 33.1647 20.1328 32.9535 19.9216L18 4.96583L3.04646 19.9216C2.83521 20.1328 2.5487 20.2515 2.24996 20.2515C1.95121 20.2515 1.6647 20.1328 1.45346 19.9216C1.24221 19.7103 1.12354 19.4238 1.12354 19.1251C1.12354 18.8263 1.24221 18.5398 1.45346 18.3286L16.4092 3.37508Z" fill="white"/>
</svg>
