<svg width="77" height="62" viewBox="0 0 77 62" fill="none" xmlns="http://www.w3.org/2000/svg">
<g clip-path="url(#clip0_8796:40918)">
<path d="M51.53 22.2501H48.96H48.3C48.24 22.2501 48.1 22.2701 48.05 22.3101C47.48 22.7201 47.37 23.3101 47.75 24.0101C47.77 24.0401 47.79 24.0701 47.82 24.1001C48.36 24.5501 48.68 25.2101 48.68 25.9201C48.68 27.2201 47.63 28.2701 46.33 28.2701C45.03 28.2701 43.98 27.2201 43.98 25.9201C43.98 25.2801 44.24 24.6701 44.7 24.2301C44.71 24.2201 44.72 24.2001 44.73 24.1901C44.98 23.9001 45.12 23.5701 45.12 23.2501C45.12 22.9901 45.03 22.6201 44.61 22.3201C44.56 22.2801 44.37 22.2601 44.31 22.2601H43.75H38.93C38.77 22.2601 38.63 22.1301 38.63 21.9601V16.2601C38.63 16.2101 38.64 16.1501 38.67 16.1101C38.9 15.7301 39.24 15.5201 39.64 15.5201C39.96 15.5201 40.31 15.6601 40.59 15.9101C40.6 15.9201 40.62 15.9301 40.63 15.9501C41.08 16.4201 41.68 16.6701 42.32 16.6701C43.62 16.6701 44.67 15.6201 44.67 14.3201C44.67 13.0201 43.62 11.9701 42.32 11.9701C41.62 11.9701 40.95 12.2801 40.5 12.8301C40.48 12.8601 40.45 12.8801 40.41 12.9001C40.14 13.0501 39.88 13.1201 39.64 13.1201C39.36 13.1201 38.95 13.0101 38.65 12.5101C38.62 12.4601 38.61 12.4101 38.61 12.3601V6.92012C38.61 6.75012 38.74 6.62012 38.91 6.62012H54.04C54.21 6.62012 54.34 6.75012 54.34 6.92012V18.1101" stroke="white" stroke-width="1.8" stroke-miterlimit="10" stroke-linecap="round" stroke-linejoin="round"/>
<path d="M51.53 22.2501H48.96H48.3C48.24 22.2501 48.1 22.2701 48.05 22.3101C47.48 22.7201 47.37 23.3101 47.75 24.0101C47.77 24.0401 47.79 24.0701 47.82 24.1001C48.36 24.5501 48.68 25.2101 48.68 25.9201C48.68 27.2201 47.63 28.2701 46.33 28.2701C45.03 28.2701 43.98 27.2201 43.98 25.9201C43.98 25.2801 44.24 24.6701 44.7 24.2301C44.71 24.2201 44.72 24.2001 44.73 24.1901C44.98 23.9001 45.12 23.5701 45.12 23.2501C45.12 22.9901 45.03 22.6201 44.61 22.3201C44.56 22.2801 44.37 22.2601 44.31 22.2601H43.75H38.93C38.77 22.2601 38.63 22.1301 38.63 21.9601V16.2601C38.63 16.2101 38.64 16.1501 38.67 16.1101C38.9 15.7301 39.24 15.5201 39.64 15.5201C39.96 15.5201 40.31 15.6601 40.59 15.9101C40.6 15.9201 40.62 15.9301 40.63 15.9501C41.08 16.4201 41.68 16.6701 42.32 16.6701C43.62 16.6701 44.67 15.6201 44.67 14.3201C44.67 13.0201 43.62 11.9701 42.32 11.9701C41.62 11.9701 40.95 12.2801 40.5 12.8301C40.48 12.8601 40.45 12.8801 40.41 12.9001C40.14 13.0501 39.88 13.1201 39.64 13.1201C39.36 13.1201 38.95 13.0101 38.65 12.5101C38.62 12.4601 38.61 12.4101 38.61 12.3601V6.92012C38.61 6.75012 38.74 6.62012 38.91 6.62012H54.04C54.21 6.62012 54.34 6.75012 54.34 6.92012V18.1101" stroke="#008FE5" stroke-width="1.8" stroke-miterlimit="10" stroke-linecap="round" stroke-linejoin="round"/>
<path d="M65.85 14.8297L58.22 19.7997L52.38 17.3197C51.15 16.8397 49.76 17.2797 49.21 18.4697C48.8 19.3397 48.97 20.3297 49.55 21.0197C49.77 21.2797 50.04 21.4897 50.37 21.6397L57.6 24.7097C58.11 24.9297 58.69 24.9297 59.21 24.6997C61.06 23.8797 64.31 21.8397 64.31 21.8397L64.26 32.9597C64.45 33.1797 60.82 43.7797 60.76 44.1397L59.3 53.8997C59.06 55.1997 59.92 56.4397 61.21 56.6797C61.42 56.7197 61.62 56.7297 61.82 56.7097C62.88 56.6297 63.79 55.8497 64 54.7597L65.36 45.5397L68.67 36.2997C68.67 36.2997 69.13 44.8297 69.17 45.0797L70.73 54.7497C70.9 55.8297 71.78 56.6297 72.82 56.7397C73.27 56.7897 73.76 56.7097 74.22 56.4797C75.15 55.9997 75.6 54.9197 75.44 53.8797L73.96 44.6797L74.05 34.5897C74.13 33.8697 72.22 16.8597 72.22 16.8597C71.95 15.0597 69.92 14.4697 69.92 14.4697" stroke="white" stroke-width="1.8" stroke-miterlimit="10" stroke-linecap="round" stroke-linejoin="round"/>
<path d="M65.85 14.8297L58.22 19.7997L52.38 17.3197C51.15 16.8397 49.76 17.2797 49.21 18.4697C48.8 19.3397 48.97 20.3297 49.55 21.0197C49.77 21.2797 50.04 21.4897 50.37 21.6397L57.6 24.7097C58.11 24.9297 58.69 24.9297 59.21 24.6997C61.06 23.8797 64.31 21.8397 64.31 21.8397L64.26 32.9597C64.45 33.1797 60.82 43.7797 60.76 44.1397L59.3 53.8997C59.06 55.1997 59.92 56.4397 61.21 56.6797C61.42 56.7197 61.62 56.7297 61.82 56.7097C62.88 56.6297 63.79 55.8497 64 54.7597L65.36 45.5397L68.67 36.2997C68.67 36.2997 69.13 44.8297 69.17 45.0797L70.73 54.7497C70.9 55.8297 71.78 56.6297 72.82 56.7397C73.27 56.7897 73.76 56.7097 74.22 56.4797C75.15 55.9997 75.6 54.9197 75.44 53.8797L73.96 44.6797L74.05 34.5897C74.13 33.8697 72.22 16.8597 72.22 16.8597C71.95 15.0597 69.92 14.4697 69.92 14.4697" stroke="#008FE5" stroke-width="1.8" stroke-miterlimit="10" stroke-linecap="round" stroke-linejoin="round"/>
<path d="M72.25 10.4899C72.25 13.0199 70.19 15.0799 67.66 15.0799C65.12 15.0799 63.07 13.0199 63.07 10.4899C63.07 7.9499 65.13 5.8999 67.66 5.8999C70.19 5.8999 72.25 7.9599 72.25 10.4899Z" stroke="white" stroke-width="1.8" stroke-miterlimit="10" stroke-linecap="round" stroke-linejoin="round"/>
<path d="M72.25 10.4899C72.25 13.0199 70.19 15.0799 67.66 15.0799C65.12 15.0799 63.07 13.0199 63.07 10.4899C63.07 7.9499 65.13 5.8999 67.66 5.8999C70.19 5.8999 72.25 7.9599 72.25 10.4899Z" stroke="#008FE5" stroke-width="1.8" stroke-miterlimit="10" stroke-linecap="round" stroke-linejoin="round"/>
<path d="M63.07 16.5601L58.96 16.2101L54.86 14.1401" stroke="white" stroke-width="1.8" stroke-miterlimit="10" stroke-linecap="round" stroke-linejoin="round"/>
<path d="M63.07 16.5601L58.96 16.2101L54.86 14.1401" stroke="#008FE5" stroke-width="1.8" stroke-miterlimit="10" stroke-linecap="round" stroke-linejoin="round"/>
<path d="M13.52 15.75C13.27 15.71 13.02 15.65 12.78 15.57C11.65 15.19 10.74 14.4 10.21 13.33C9.68004 12.27 9.60004 11.06 9.98004 9.92997C10.76 7.60997 13.29 6.34997 15.61 7.12997C16.74 7.50997 17.65 8.29997 18.18 9.36997C18.71 10.43 18.79 11.64 18.41 12.77C17.71 14.84 15.62 16.07 13.52 15.75Z" stroke="white" stroke-width="1.8" stroke-miterlimit="10" stroke-linecap="round" stroke-linejoin="round"/>
<path d="M13.52 15.75C13.27 15.71 13.02 15.65 12.78 15.57C11.65 15.19 10.74 14.4 10.21 13.33C9.68004 12.27 9.60004 11.06 9.98004 9.92997C10.76 7.60997 13.29 6.34997 15.61 7.12997C16.74 7.50997 17.65 8.29997 18.18 9.36997C18.71 10.43 18.79 11.64 18.41 12.77C17.71 14.84 15.62 16.07 13.52 15.75Z" stroke="#008FE5" stroke-width="1.8" stroke-miterlimit="10" stroke-linecap="round" stroke-linejoin="round"/>
<path d="M9.41003 21.94L10.04 26.11C10.19 26.82 10.64 27.43 11.28 27.78L18.93 32.34C19.18 32.47 19.44 32.56 19.71 32.6C20.71 32.76 21.74 32.28 22.25 31.34C22.89 30.15 22.45 28.66 21.26 28.02L14.62 24.01L13.85 19.96" stroke="white" stroke-width="1.8" stroke-miterlimit="10" stroke-linecap="round" stroke-linejoin="round"/>
<path d="M9.41003 21.94L10.04 26.11C10.19 26.82 10.64 27.43 11.28 27.78L18.93 32.34C19.18 32.47 19.44 32.56 19.71 32.6C20.71 32.76 21.74 32.28 22.25 31.34C22.89 30.15 22.45 28.66 21.26 28.02L14.62 24.01L13.85 19.96" stroke="#008FE5" stroke-width="1.8" stroke-miterlimit="10" stroke-linecap="round" stroke-linejoin="round"/>
<path d="M18.94 23.1498L16.9 21.1398L16.05 18.4098C15.62 17.3298 14.73 16.2098 13.68 15.7598" stroke="white" stroke-width="1.8" stroke-miterlimit="10" stroke-linecap="round" stroke-linejoin="round"/>
<path d="M18.94 23.1498L16.9 21.1398L16.05 18.4098C15.62 17.3298 14.73 16.2098 13.68 15.7598" stroke="#008FE5" stroke-width="1.8" stroke-miterlimit="10" stroke-linecap="round" stroke-linejoin="round"/>
<path d="M51.87 39.0999H46H45.28C45.21 39.0999 45.06 39.1199 45.01 39.1599C44.4 39.6099 44.27 40.2399 44.69 40.9999C44.71 41.0399 44.74 41.0699 44.77 41.0999C45.36 41.5899 45.7 42.3099 45.7 43.0699C45.7 44.4799 44.55 45.6199 43.15 45.6199C41.74 45.6199 40.6 44.4699 40.6 43.0699C40.6 42.3699 40.88 41.7199 41.39 41.2299C41.4 41.2199 41.42 41.1999 41.43 41.1899C41.7 40.8799 41.86 40.5199 41.86 40.1699C41.86 39.8899 41.76 39.4899 41.31 39.1599C41.26 39.1199 41.05 39.0999 40.98 39.0999H40.37H35.14C34.96 39.0999 34.82 38.9499 34.82 38.7799V32.5899C34.82 32.5299 34.84 32.4699 34.87 32.4199C35.12 32.0099 35.49 31.7799 35.93 31.7799C36.28 31.7799 36.66 31.9299 36.96 32.2099C36.98 32.2199 36.99 32.2299 37 32.2499C37.49 32.7599 38.14 33.0399 38.84 33.0399C40.25 33.0399 41.39 31.8899 41.39 30.4899C41.39 29.0799 40.24 27.9399 38.84 27.9399C38.08 27.9399 37.36 28.2799 36.87 28.8699C36.84 28.8999 36.81 28.9299 36.77 28.9499C36.48 29.1099 36.2 29.1899 35.94 29.1899C35.63 29.1899 35.2 29.0799 34.87 28.5299C34.84 28.4799 34.82 28.4199 34.82 28.3599V22.1499" stroke="white" stroke-width="1.8" stroke-miterlimit="10" stroke-linecap="round" stroke-linejoin="round"/>
<path d="M51.87 39.0999H46H45.28C45.21 39.0999 45.06 39.1199 45.01 39.1599C44.4 39.6099 44.27 40.2399 44.69 40.9999C44.71 41.0399 44.74 41.0699 44.77 41.0999C45.36 41.5899 45.7 42.3099 45.7 43.0699C45.7 44.4799 44.55 45.6199 43.15 45.6199C41.74 45.6199 40.6 44.4699 40.6 43.0699C40.6 42.3699 40.88 41.7199 41.39 41.2299C41.4 41.2199 41.42 41.1999 41.43 41.1899C41.7 40.8799 41.86 40.5199 41.86 40.1699C41.86 39.8899 41.76 39.4899 41.31 39.1599C41.26 39.1199 41.05 39.0999 40.98 39.0999H40.37H35.14C34.96 39.0999 34.82 38.9499 34.82 38.7799V32.5899C34.82 32.5299 34.84 32.4699 34.87 32.4199C35.12 32.0099 35.49 31.7799 35.93 31.7799C36.28 31.7799 36.66 31.9299 36.96 32.2099C36.98 32.2199 36.99 32.2299 37 32.2499C37.49 32.7599 38.14 33.0399 38.84 33.0399C40.25 33.0399 41.39 31.8899 41.39 30.4899C41.39 29.0799 40.24 27.9399 38.84 27.9399C38.08 27.9399 37.36 28.2799 36.87 28.8699C36.84 28.8999 36.81 28.9299 36.77 28.9499C36.48 29.1099 36.2 29.1899 35.94 29.1899C35.63 29.1899 35.2 29.0799 34.87 28.5299C34.84 28.4799 34.82 28.4199 34.82 28.3599V22.1499" stroke="#008FE5" stroke-width="1.8" stroke-miterlimit="10" stroke-linecap="round" stroke-linejoin="round"/>
<path d="M19.05 32.5801V56.7701H51.87V39.0801" stroke="white" stroke-width="1.8" stroke-miterlimit="10" stroke-linecap="round" stroke-linejoin="round"/>
<path d="M19.05 32.5801V56.7701H51.87V39.0801" stroke="#008FE5" stroke-width="1.8" stroke-miterlimit="10" stroke-linecap="round" stroke-linejoin="round"/>
<path d="M34.79 22.1299H19.05V25.8499" stroke="white" stroke-width="1.8" stroke-miterlimit="10" stroke-linecap="round" stroke-linejoin="round"/>
<path d="M34.79 22.1299H19.05V25.8499" stroke="#008FE5" stroke-width="1.8" stroke-miterlimit="10" stroke-linecap="round" stroke-linejoin="round"/>
<path d="M34.79 56.7697V52.4697" stroke="white" stroke-width="1.8" stroke-miterlimit="10" stroke-linecap="round" stroke-linejoin="round"/>
<path d="M34.79 56.7697V52.4697" stroke="#008FE5" stroke-width="1.8" stroke-miterlimit="10" stroke-linecap="round" stroke-linejoin="round"/>
<path d="M35.46 39.1001H28.98" stroke="white" stroke-width="1.8" stroke-miterlimit="10" stroke-linecap="round" stroke-linejoin="round"/>
<path d="M35.46 39.1001H28.98" stroke="#008FE5" stroke-width="1.8" stroke-miterlimit="10" stroke-linecap="round" stroke-linejoin="round"/>
<path d="M25.06 39.1001H19.05" stroke="white" stroke-width="1.8" stroke-miterlimit="10" stroke-linecap="round" stroke-linejoin="round"/>
<path d="M25.06 39.1001H19.05" stroke="#008FE5" stroke-width="1.8" stroke-miterlimit="10" stroke-linecap="round" stroke-linejoin="round"/>
<path d="M28.98 39.1001C28.57 38.8501 28.34 38.4801 28.34 38.0401C28.34 37.6901 28.49 37.3101 28.77 37.0101C28.78 36.9901 28.79 36.9801 28.81 36.9701C29.32 36.4801 29.6 35.8301 29.6 35.1301C29.6 33.7201 28.45 32.5801 27.05 32.5801C25.64 32.5801 24.5 33.7301 24.5 35.1301C24.5 35.9001 24.84 36.6101 25.43 37.1001C25.46 37.1301 25.49 37.1601 25.51 37.1901C25.67 37.4801 25.75 37.7601 25.75 38.0201C25.75 38.3301 25.64 38.7601 25.09 39.0901" stroke="white" stroke-width="1.8" stroke-miterlimit="10" stroke-linecap="round" stroke-linejoin="round"/>
<path d="M28.98 39.1001C28.57 38.8501 28.34 38.4801 28.34 38.0401C28.34 37.6901 28.49 37.3101 28.77 37.0101C28.78 36.9901 28.79 36.9801 28.81 36.9701C29.32 36.4801 29.6 35.8301 29.6 35.1301C29.6 33.7201 28.45 32.5801 27.05 32.5801C25.64 32.5801 24.5 33.7301 24.5 35.1301C24.5 35.9001 24.84 36.6101 25.43 37.1001C25.46 37.1301 25.49 37.1601 25.51 37.1901C25.67 37.4801 25.75 37.7601 25.75 38.0201C25.75 38.3301 25.64 38.7601 25.09 39.0901" stroke="#008FE5" stroke-width="1.8" stroke-miterlimit="10" stroke-linecap="round" stroke-linejoin="round"/>
<path d="M10.46 14.0498C10.46 14.0498 8.13001 14.8098 7.36001 16.7798C7.36001 16.7798 3.10001 33.2298 3.13001 33.9498L2.65001 44.0498L0.920014 53.8898C0.720014 55.2298 1.65001 56.4698 2.99001 56.6698C3.11001 56.6898 3.23001 56.6998 3.35001 56.6998C4.54001 56.6998 5.59001 55.8298 5.77001 54.6098L7.52001 44.6398C7.53001 44.5498 7.54001 44.4698 7.54001 44.3798L7.88001 36.2198C7.99001 36.2598 10.29 44.6198 10.29 44.6198L10.72 54.3398C10.77 55.6598 11.86 56.6998 13.17 56.6998C13.2 56.6998 13.23 56.6998 13.26 56.6998C14.61 56.6498 15.67 55.5098 15.62 54.1598L15.18 44.1898C15.17 44.0198 15.15 43.8598 15.11 43.6998L12.4 32.8098C12.38 32.7098 12.34 32.6298 12.3 32.5398L13.1 28.9798" stroke="white" stroke-width="1.8" stroke-miterlimit="10" stroke-linecap="round" stroke-linejoin="round"/>
<path d="M10.46 14.0498C10.46 14.0498 8.13001 14.8098 7.36001 16.7798C7.36001 16.7798 3.10001 33.2298 3.13001 33.9498L2.65001 44.0498L0.920014 53.8898C0.720014 55.2298 1.65001 56.4698 2.99001 56.6698C3.11001 56.6898 3.23001 56.6998 3.35001 56.6998C4.54001 56.6998 5.59001 55.8298 5.77001 54.6098L7.52001 44.6398C7.53001 44.5498 7.54001 44.4698 7.54001 44.3798L7.88001 36.2198C7.99001 36.2598 10.29 44.6198 10.29 44.6198L10.72 54.3398C10.77 55.6598 11.86 56.6998 13.17 56.6998C13.2 56.6998 13.23 56.6998 13.26 56.6998C14.61 56.6498 15.67 55.5098 15.62 54.1598L15.18 44.1898C15.17 44.0198 15.15 43.8598 15.11 43.6998L12.4 32.8098C12.38 32.7098 12.34 32.6298 12.3 32.5398L13.1 28.9798" stroke="#008FE5" stroke-width="1.8" stroke-miterlimit="10" stroke-linecap="round" stroke-linejoin="round"/>
<path d="M64.3 21.8501C65.25 21.2901 65.92 20.8701 65.92 20.8701" stroke="white" stroke-width="1.8" stroke-miterlimit="10" stroke-linecap="round" stroke-linejoin="round"/>
<path d="M64.3 21.8501C65.25 21.2901 65.92 20.8701 65.92 20.8701" stroke="#008FE5" stroke-width="1.8" stroke-miterlimit="10" stroke-linecap="round" stroke-linejoin="round"/>
</g>
<defs>
<clipPath id="clip0_8796:40918">
<rect width="76.35" height="52.67" fill="white" transform="translate(0 5)"/>
</clipPath>
</defs>
</svg>
