<svg width="24" height="22" viewBox="0 0 24 22" fill="none" xmlns="http://www.w3.org/2000/svg">
<path fill-rule="evenodd" clip-rule="evenodd" d="M5.46888 12.0901C5.53854 12.0286 5.62131 11.9797 5.71243 11.9464C5.80354 11.9131 5.90122 11.896 5.99988 11.896C6.09853 11.896 6.19621 11.9131 6.28733 11.9464C6.37844 11.9797 6.46121 12.0286 6.53088 12.0901L11.9999 16.9111L17.4689 12.0901C17.6097 11.966 17.8007 11.8963 17.9999 11.8963C18.199 11.8963 18.39 11.966 18.5309 12.0901C18.6717 12.2142 18.7508 12.3826 18.7508 12.5581C18.7508 12.7336 18.6717 12.9019 18.5309 13.026L12.5309 18.3137C12.4612 18.3752 12.3784 18.4241 12.2873 18.4574C12.1962 18.4907 12.0985 18.5079 11.9999 18.5079C11.9012 18.5079 11.8035 18.4907 11.7124 18.4574C11.6213 18.4241 11.5385 18.3752 11.4689 18.3137L5.46888 13.026C5.39903 12.9647 5.34362 12.8917 5.30581 12.8114C5.268 12.7311 5.24854 12.645 5.24854 12.5581C5.24854 12.4712 5.268 12.3851 5.30581 12.3048C5.34362 12.2245 5.39903 12.1515 5.46888 12.0901ZM5.46888 9.06031C5.53854 9.12187 5.62131 9.1707 5.71243 9.20402C5.80354 9.23734 5.90122 9.2545 5.99988 9.2545C6.09853 9.2545 6.19621 9.23734 6.28733 9.20402C6.37844 9.1707 6.46121 9.12187 6.53088 9.06031L11.9999 4.23931L17.4689 9.06031C17.6097 9.18442 17.8007 9.25415 17.9999 9.25415C18.199 9.25415 18.39 9.18442 18.5309 9.06031C18.6717 8.9362 18.7508 8.76788 18.7508 8.59236C18.7508 8.41684 18.6717 8.24851 18.5309 8.1244L12.5309 2.83676C12.4612 2.77521 12.3784 2.72637 12.2873 2.69305C12.1962 2.65973 12.0985 2.64258 11.9999 2.64258C11.9012 2.64258 11.8035 2.65973 11.7124 2.69305C11.6213 2.72637 11.5385 2.77521 11.4689 2.83676L5.46888 8.1244C5.39903 8.1858 5.34362 8.25874 5.30581 8.33904C5.268 8.41934 5.24854 8.50542 5.24854 8.59236C5.24854 8.6793 5.268 8.76538 5.30581 8.84568C5.34362 8.92598 5.39903 8.99892 5.46888 9.06031Z" fill="white"/>
<path fill-rule="evenodd" clip-rule="evenodd" d="M5.46888 12.0901C5.53854 12.0286 5.62131 11.9797 5.71243 11.9464C5.80354 11.9131 5.90122 11.896 5.99988 11.896C6.09853 11.896 6.19621 11.9131 6.28733 11.9464C6.37844 11.9797 6.46121 12.0286 6.53088 12.0901L11.9999 16.9111L17.4689 12.0901C17.6097 11.966 17.8007 11.8963 17.9999 11.8963C18.199 11.8963 18.39 11.966 18.5309 12.0901C18.6717 12.2142 18.7508 12.3826 18.7508 12.5581C18.7508 12.7336 18.6717 12.9019 18.5309 13.026L12.5309 18.3137C12.4612 18.3752 12.3784 18.4241 12.2873 18.4574C12.1962 18.4907 12.0985 18.5079 11.9999 18.5079C11.9012 18.5079 11.8035 18.4907 11.7124 18.4574C11.6213 18.4241 11.5385 18.3752 11.4689 18.3137L5.46888 13.026C5.39903 12.9647 5.34362 12.8917 5.30581 12.8114C5.268 12.7311 5.24854 12.645 5.24854 12.5581C5.24854 12.4712 5.268 12.3851 5.30581 12.3048C5.34362 12.2245 5.39903 12.1515 5.46888 12.0901ZM5.46888 9.06031C5.53854 9.12187 5.62131 9.1707 5.71243 9.20402C5.80354 9.23734 5.90122 9.2545 5.99988 9.2545C6.09853 9.2545 6.19621 9.23734 6.28733 9.20402C6.37844 9.1707 6.46121 9.12187 6.53088 9.06031L11.9999 4.23931L17.4689 9.06031C17.6097 9.18442 17.8007 9.25415 17.9999 9.25415C18.199 9.25415 18.39 9.18442 18.5309 9.06031C18.6717 8.9362 18.7508 8.76788 18.7508 8.59236C18.7508 8.41684 18.6717 8.24851 18.5309 8.1244L12.5309 2.83676C12.4612 2.77521 12.3784 2.72637 12.2873 2.69305C12.1962 2.65973 12.0985 2.64258 11.9999 2.64258C11.9012 2.64258 11.8035 2.65973 11.7124 2.69305C11.6213 2.72637 11.5385 2.77521 11.4689 2.83676L5.46888 8.1244C5.39903 8.1858 5.34362 8.25874 5.30581 8.33904C5.268 8.41934 5.24854 8.50542 5.24854 8.59236C5.24854 8.6793 5.268 8.76538 5.30581 8.84568C5.34362 8.92598 5.39903 8.99892 5.46888 9.06031Z" fill="#404040" fill-opacity="0.8"/>
</svg>
