<svg width="24" height="24" viewBox="0 0 24 24" fill="none" xmlns="http://www.w3.org/2000/svg">
<g clip-path="url(#clip0_3782_40378)">
<path d="M6.60214 11.1802C6.60214 11.1802 6.70698 11.3968 6.87887 11.7543C7.66698 13.3908 9.87441 17.9998 9.9978 18.5216C10.1462 19.157 10.1832 23.638 10.1832 23.638C10.1832 23.638 12.9491 25.607 13.9968 20.3626C15.0474 15.116 13.6816 14.4594 13.6816 14.4594L14.6252 14.4738L21.2767 15.194C22.087 15.2818 22.8187 14.5563 22.9129 13.5741C23.0077 12.5918 22.4272 11.7247 21.6184 11.6369L19.6306 11.4225L19.6399 11.3445L22.1454 11.6164C23.0705 11.7156 23.8978 11 23.9913 10.0192C24.0847 9.03701 23.4121 8.15853 22.4871 8.05781L22.2738 8.03509C22.9507 7.92149 23.5141 7.30352 23.5968 6.46064C23.6903 5.4784 23.099 4.61128 22.2781 4.52191L21.756 4.46512C22.2724 4.26367 22.6868 3.66312 22.7588 2.90581C22.8522 1.92357 22.3466 1.06478 21.6269 0.986778L17.4795 0.537692C15.8962 0.260516 14.0154 0 12.5098 0C10.2503 0 8.82169 0.432426 7.69836 0.801994C7.0907 1.00192 6.57218 1.18368 6.06009 1.26926C5.86466 1.26774 5.78906 1.45253 5.78906 1.58127V10.8394C5.78835 11.287 6.60214 11.05 6.60214 11.1802Z" fill="#008FE5"/>
<path d="M4.39988 0.611816C4.88701 0.611816 5.28143 1.03061 5.28143 1.54785V11.3694C5.28143 11.8867 4.88701 12.3055 4.39988 12.3055H0.881545C0.395126 12.3062 0 11.8867 0 11.3702V1.54861C0 1.03137 0.395126 0.611816 0.881545 0.611816H4.39988Z" fill="#008FE5"/>
</g>
<defs>
<clipPath id="clip0_3782_40378">
<rect width="24.0008" height="24.0002" fill="white"/>
</clipPath>
</defs>
</svg>
