<svg width="77" height="62" viewBox="0 0 77 62" fill="none" xmlns="http://www.w3.org/2000/svg">
<g clip-path="url(#clip0_9678_77575)">
<path d="M51.5303 22.2499H48.9604H48.3004C48.2404 22.2499 48.1004 22.2699 48.0504 22.3099C47.4804 22.7199 47.3704 23.3099 47.7504 24.0099C47.7704 24.0399 47.7904 24.0699 47.8204 24.0999C48.3604 24.5499 48.6804 25.2099 48.6804 25.9199C48.6804 27.2199 47.6304 28.2699 46.3304 28.2699C45.0304 28.2699 43.9804 27.2199 43.9804 25.9199C43.9804 25.2799 44.2404 24.6699 44.7004 24.2299C44.7104 24.2199 44.7204 24.1999 44.7304 24.1899C44.9804 23.8999 45.1203 23.5699 45.1203 23.2499C45.1203 22.9899 45.0304 22.6199 44.6104 22.3199C44.5604 22.2799 44.3704 22.2599 44.3104 22.2599H43.7504H38.9304C38.7704 22.2599 38.6304 22.1299 38.6304 21.9599V16.2599C38.6304 16.2099 38.6403 16.1499 38.6703 16.1099C38.9003 15.7299 39.2404 15.5199 39.6404 15.5199C39.9604 15.5199 40.3104 15.6599 40.5904 15.9099C40.6004 15.9199 40.6204 15.9299 40.6304 15.9499C41.0804 16.4199 41.6804 16.6699 42.3204 16.6699C43.6204 16.6699 44.6703 15.6199 44.6703 14.3199C44.6703 13.0199 43.6204 11.9699 42.3204 11.9699C41.6204 11.9699 40.9504 12.2799 40.5004 12.8299C40.4804 12.8599 40.4504 12.8799 40.4104 12.8999C40.1404 13.0499 39.8804 13.1199 39.6404 13.1199C39.3604 13.1199 38.9504 13.0099 38.6504 12.5099C38.6204 12.4599 38.6104 12.4099 38.6104 12.3599V6.91987C38.6104 6.74987 38.7404 6.61987 38.9104 6.61987H54.0404C54.2104 6.61987 54.3404 6.74987 54.3404 6.91987V18.1099" stroke="white" stroke-width="1.8" stroke-miterlimit="10" stroke-linecap="round" stroke-linejoin="round"/>
<path d="M51.5303 22.2499H48.9604H48.3004C48.2404 22.2499 48.1004 22.2699 48.0504 22.3099C47.4804 22.7199 47.3704 23.3099 47.7504 24.0099C47.7704 24.0399 47.7904 24.0699 47.8204 24.0999C48.3604 24.5499 48.6804 25.2099 48.6804 25.9199C48.6804 27.2199 47.6304 28.2699 46.3304 28.2699C45.0304 28.2699 43.9804 27.2199 43.9804 25.9199C43.9804 25.2799 44.2404 24.6699 44.7004 24.2299C44.7104 24.2199 44.7204 24.1999 44.7304 24.1899C44.9804 23.8999 45.1203 23.5699 45.1203 23.2499C45.1203 22.9899 45.0304 22.6199 44.6104 22.3199C44.5604 22.2799 44.3704 22.2599 44.3104 22.2599H43.7504H38.9304C38.7704 22.2599 38.6304 22.1299 38.6304 21.9599V16.2599C38.6304 16.2099 38.6403 16.1499 38.6703 16.1099C38.9003 15.7299 39.2404 15.5199 39.6404 15.5199C39.9604 15.5199 40.3104 15.6599 40.5904 15.9099C40.6004 15.9199 40.6204 15.9299 40.6304 15.9499C41.0804 16.4199 41.6804 16.6699 42.3204 16.6699C43.6204 16.6699 44.6703 15.6199 44.6703 14.3199C44.6703 13.0199 43.6204 11.9699 42.3204 11.9699C41.6204 11.9699 40.9504 12.2799 40.5004 12.8299C40.4804 12.8599 40.4504 12.8799 40.4104 12.8999C40.1404 13.0499 39.8804 13.1199 39.6404 13.1199C39.3604 13.1199 38.9504 13.0099 38.6504 12.5099C38.6204 12.4599 38.6104 12.4099 38.6104 12.3599V6.91987C38.6104 6.74987 38.7404 6.61987 38.9104 6.61987H54.0404C54.2104 6.61987 54.3404 6.74987 54.3404 6.91987V18.1099" stroke="#00C09E" stroke-width="1.8" stroke-miterlimit="10" stroke-linecap="round" stroke-linejoin="round"/>
<path d="M65.8499 14.83L58.2199 19.8L52.3799 17.32C51.1499 16.84 49.7599 17.28 49.2099 18.47C48.7999 19.34 48.9699 20.33 49.5499 21.02C49.7699 21.28 50.0399 21.49 50.3699 21.64L57.5999 24.71C58.1099 24.93 58.6899 24.93 59.2099 24.7C61.0599 23.88 64.3099 21.84 64.3099 21.84L64.2599 32.96C64.4499 33.18 60.8199 43.78 60.7599 44.14L59.2999 53.9C59.0599 55.2 59.9199 56.44 61.2099 56.68C61.4199 56.72 61.6199 56.73 61.8199 56.71C62.8799 56.63 63.7899 55.85 63.9999 54.76L65.3599 45.54L68.6699 36.3C68.6699 36.3 69.1299 44.83 69.1699 45.08L70.7299 54.75C70.8999 55.83 71.7799 56.63 72.8199 56.74C73.2699 56.79 73.7599 56.71 74.2199 56.48C75.1499 56 75.5999 54.92 75.4399 53.88L73.9599 44.68L74.0499 34.59C74.1299 33.87 72.2199 16.86 72.2199 16.86C71.9499 15.06 69.9199 14.47 69.9199 14.47" stroke="white" stroke-width="1.8" stroke-miterlimit="10" stroke-linecap="round" stroke-linejoin="round"/>
<path d="M65.8499 14.83L58.2199 19.8L52.3799 17.32C51.1499 16.84 49.7599 17.28 49.2099 18.47C48.7999 19.34 48.9699 20.33 49.5499 21.02C49.7699 21.28 50.0399 21.49 50.3699 21.64L57.5999 24.71C58.1099 24.93 58.6899 24.93 59.2099 24.7C61.0599 23.88 64.3099 21.84 64.3099 21.84L64.2599 32.96C64.4499 33.18 60.8199 43.78 60.7599 44.14L59.2999 53.9C59.0599 55.2 59.9199 56.44 61.2099 56.68C61.4199 56.72 61.6199 56.73 61.8199 56.71C62.8799 56.63 63.7899 55.85 63.9999 54.76L65.3599 45.54L68.6699 36.3C68.6699 36.3 69.1299 44.83 69.1699 45.08L70.7299 54.75C70.8999 55.83 71.7799 56.63 72.8199 56.74C73.2699 56.79 73.7599 56.71 74.2199 56.48C75.1499 56 75.5999 54.92 75.4399 53.88L73.9599 44.68L74.0499 34.59C74.1299 33.87 72.2199 16.86 72.2199 16.86C71.9499 15.06 69.9199 14.47 69.9199 14.47" stroke="#00C09E" stroke-width="1.8" stroke-miterlimit="10" stroke-linecap="round" stroke-linejoin="round"/>
<path d="M72.2503 10.4899C72.2503 13.0199 70.1903 15.0799 67.6603 15.0799C65.1203 15.0799 63.0703 13.0199 63.0703 10.4899C63.0703 7.9499 65.1303 5.8999 67.6603 5.8999C70.1903 5.8999 72.2503 7.9599 72.2503 10.4899Z" stroke="white" stroke-width="1.8" stroke-miterlimit="10" stroke-linecap="round" stroke-linejoin="round"/>
<path d="M72.2503 10.4899C72.2503 13.0199 70.1903 15.0799 67.6603 15.0799C65.1203 15.0799 63.0703 13.0199 63.0703 10.4899C63.0703 7.9499 65.1303 5.8999 67.6603 5.8999C70.1903 5.8999 72.2503 7.9599 72.2503 10.4899Z" stroke="#00C09E" stroke-width="1.8" stroke-miterlimit="10" stroke-linecap="round" stroke-linejoin="round"/>
<path d="M63.0704 16.5599L58.9604 16.2099L54.8604 14.1399" stroke="white" stroke-width="1.8" stroke-miterlimit="10" stroke-linecap="round" stroke-linejoin="round"/>
<path d="M63.0704 16.5599L58.9604 16.2099L54.8604 14.1399" stroke="#00C09E" stroke-width="1.8" stroke-miterlimit="10" stroke-linecap="round" stroke-linejoin="round"/>
<path d="M13.5203 15.75C13.2703 15.71 13.0203 15.65 12.7803 15.57C11.6503 15.19 10.7403 14.4 10.2103 13.33C9.68029 12.27 9.60028 11.06 9.98028 9.92997C10.7603 7.60997 13.2903 6.34997 15.6103 7.12997C16.7403 7.50997 17.6503 8.29997 18.1803 9.36997C18.7103 10.43 18.7903 11.64 18.4103 12.77C17.7103 14.84 15.6203 16.07 13.5203 15.75Z" stroke="white" stroke-width="1.8" stroke-miterlimit="10" stroke-linecap="round" stroke-linejoin="round"/>
<path d="M13.5203 15.75C13.2703 15.71 13.0203 15.65 12.7803 15.57C11.6503 15.19 10.7403 14.4 10.2103 13.33C9.68029 12.27 9.60028 11.06 9.98028 9.92997C10.7603 7.60997 13.2903 6.34997 15.6103 7.12997C16.7403 7.50997 17.6503 8.29997 18.1803 9.36997C18.7103 10.43 18.7903 11.64 18.4103 12.77C17.7103 14.84 15.6203 16.07 13.5203 15.75Z" stroke="#00C09E" stroke-width="1.8" stroke-miterlimit="10" stroke-linecap="round" stroke-linejoin="round"/>
<path d="M9.41016 21.94L10.0402 26.11C10.1902 26.82 10.6402 27.43 11.2802 27.78L18.9302 32.34C19.1802 32.47 19.4402 32.56 19.7102 32.6C20.7102 32.76 21.7402 32.28 22.2502 31.34C22.8902 30.15 22.4502 28.66 21.2602 28.02L14.6202 24.01L13.8502 19.96" stroke="white" stroke-width="1.8" stroke-miterlimit="10" stroke-linecap="round" stroke-linejoin="round"/>
<path d="M9.41016 21.94L10.0402 26.11C10.1902 26.82 10.6402 27.43 11.2802 27.78L18.9302 32.34C19.1802 32.47 19.4402 32.56 19.7102 32.6C20.7102 32.76 21.7402 32.28 22.2502 31.34C22.8902 30.15 22.4502 28.66 21.2602 28.02L14.6202 24.01L13.8502 19.96" stroke="#00C09E" stroke-width="1.8" stroke-miterlimit="10" stroke-linecap="round" stroke-linejoin="round"/>
<path d="M18.9402 23.15L16.9002 21.14L16.0502 18.41C15.6202 17.33 14.7302 16.21 13.6802 15.76" stroke="white" stroke-width="1.8" stroke-miterlimit="10" stroke-linecap="round" stroke-linejoin="round"/>
<path d="M18.9402 23.15L16.9002 21.14L16.0502 18.41C15.6202 17.33 14.7302 16.21 13.6802 15.76" stroke="#00C09E" stroke-width="1.8" stroke-miterlimit="10" stroke-linecap="round" stroke-linejoin="round"/>
<path d="M51.8703 39.0999H46.0003H45.2803C45.2103 39.0999 45.0603 39.1199 45.0103 39.1599C44.4003 39.6099 44.2703 40.2399 44.6903 40.9999C44.7103 41.0399 44.7403 41.0699 44.7703 41.0999C45.3603 41.5899 45.7003 42.3099 45.7003 43.0699C45.7003 44.4799 44.5503 45.6199 43.1503 45.6199C41.7403 45.6199 40.6003 44.4699 40.6003 43.0699C40.6003 42.3699 40.8803 41.7199 41.3903 41.2299C41.4003 41.2199 41.4203 41.1999 41.4303 41.1899C41.7003 40.8799 41.8603 40.5199 41.8603 40.1699C41.8603 39.8899 41.7603 39.4899 41.3103 39.1599C41.2603 39.1199 41.0503 39.0999 40.9803 39.0999H40.3703H35.1403C34.9603 39.0999 34.8203 38.9499 34.8203 38.7799V32.5899C34.8203 32.5299 34.8403 32.4699 34.8703 32.4199C35.1203 32.0099 35.4903 31.7799 35.9303 31.7799C36.2803 31.7799 36.6603 31.9299 36.9603 32.2099C36.9803 32.2199 36.9903 32.2299 37.0003 32.2499C37.4903 32.7599 38.1403 33.0399 38.8403 33.0399C40.2503 33.0399 41.3903 31.8899 41.3903 30.4899C41.3903 29.0799 40.2403 27.9399 38.8403 27.9399C38.0803 27.9399 37.3603 28.2799 36.8703 28.8699C36.8403 28.8999 36.8103 28.9299 36.7703 28.9499C36.4803 29.1099 36.2003 29.1899 35.9403 29.1899C35.6303 29.1899 35.2003 29.0799 34.8703 28.5299C34.8403 28.4799 34.8203 28.4199 34.8203 28.3599V22.1499" stroke="white" stroke-width="1.8" stroke-miterlimit="10" stroke-linecap="round" stroke-linejoin="round"/>
<path d="M51.8703 39.0999H46.0003H45.2803C45.2103 39.0999 45.0603 39.1199 45.0103 39.1599C44.4003 39.6099 44.2703 40.2399 44.6903 40.9999C44.7103 41.0399 44.7403 41.0699 44.7703 41.0999C45.3603 41.5899 45.7003 42.3099 45.7003 43.0699C45.7003 44.4799 44.5503 45.6199 43.1503 45.6199C41.7403 45.6199 40.6003 44.4699 40.6003 43.0699C40.6003 42.3699 40.8803 41.7199 41.3903 41.2299C41.4003 41.2199 41.4203 41.1999 41.4303 41.1899C41.7003 40.8799 41.8603 40.5199 41.8603 40.1699C41.8603 39.8899 41.7603 39.4899 41.3103 39.1599C41.2603 39.1199 41.0503 39.0999 40.9803 39.0999H40.3703H35.1403C34.9603 39.0999 34.8203 38.9499 34.8203 38.7799V32.5899C34.8203 32.5299 34.8403 32.4699 34.8703 32.4199C35.1203 32.0099 35.4903 31.7799 35.9303 31.7799C36.2803 31.7799 36.6603 31.9299 36.9603 32.2099C36.9803 32.2199 36.9903 32.2299 37.0003 32.2499C37.4903 32.7599 38.1403 33.0399 38.8403 33.0399C40.2503 33.0399 41.3903 31.8899 41.3903 30.4899C41.3903 29.0799 40.2403 27.9399 38.8403 27.9399C38.0803 27.9399 37.3603 28.2799 36.8703 28.8699C36.8403 28.8999 36.8103 28.9299 36.7703 28.9499C36.4803 29.1099 36.2003 29.1899 35.9403 29.1899C35.6303 29.1899 35.2003 29.0799 34.8703 28.5299C34.8403 28.4799 34.8203 28.4199 34.8203 28.3599V22.1499" stroke="#00C09E" stroke-width="1.8" stroke-miterlimit="10" stroke-linecap="round" stroke-linejoin="round"/>
<path d="M19.0503 32.5798V56.7698H51.8703V39.0798" stroke="white" stroke-width="1.8" stroke-miterlimit="10" stroke-linecap="round" stroke-linejoin="round"/>
<path d="M19.0503 32.5798V56.7698H51.8703V39.0798" stroke="#00C09E" stroke-width="1.8" stroke-miterlimit="10" stroke-linecap="round" stroke-linejoin="round"/>
<path d="M34.7903 22.1299H19.0503V25.8499" stroke="white" stroke-width="1.8" stroke-miterlimit="10" stroke-linecap="round" stroke-linejoin="round"/>
<path d="M34.7903 22.1299H19.0503V25.8499" stroke="#00C09E" stroke-width="1.8" stroke-miterlimit="10" stroke-linecap="round" stroke-linejoin="round"/>
<path d="M34.79 56.77V52.47" stroke="white" stroke-width="1.8" stroke-miterlimit="10" stroke-linecap="round" stroke-linejoin="round"/>
<path d="M34.79 56.77V52.47" stroke="#00C09E" stroke-width="1.8" stroke-miterlimit="10" stroke-linecap="round" stroke-linejoin="round"/>
<path d="M35.46 39.0999H28.98" stroke="white" stroke-width="1.8" stroke-miterlimit="10" stroke-linecap="round" stroke-linejoin="round"/>
<path d="M35.46 39.0999H28.98" stroke="#00C09E" stroke-width="1.8" stroke-miterlimit="10" stroke-linecap="round" stroke-linejoin="round"/>
<path d="M25.0603 39.0999H19.0503" stroke="white" stroke-width="1.8" stroke-miterlimit="10" stroke-linecap="round" stroke-linejoin="round"/>
<path d="M25.0603 39.0999H19.0503" stroke="#00C09E" stroke-width="1.8" stroke-miterlimit="10" stroke-linecap="round" stroke-linejoin="round"/>
<path d="M28.98 39.0998C28.57 38.8498 28.34 38.4798 28.34 38.0398C28.34 37.6898 28.49 37.3098 28.77 37.0098C28.78 36.9898 28.79 36.9798 28.81 36.9698C29.32 36.4798 29.6 35.8298 29.6 35.1298C29.6 33.7198 28.45 32.5798 27.05 32.5798C25.64 32.5798 24.5 33.7298 24.5 35.1298C24.5 35.8998 24.84 36.6098 25.43 37.0998C25.46 37.1298 25.49 37.1598 25.51 37.1898C25.67 37.4798 25.75 37.7598 25.75 38.0198C25.75 38.3298 25.64 38.7598 25.09 39.0898" stroke="white" stroke-width="1.8" stroke-miterlimit="10" stroke-linecap="round" stroke-linejoin="round"/>
<path d="M28.98 39.0998C28.57 38.8498 28.34 38.4798 28.34 38.0398C28.34 37.6898 28.49 37.3098 28.77 37.0098C28.78 36.9898 28.79 36.9798 28.81 36.9698C29.32 36.4798 29.6 35.8298 29.6 35.1298C29.6 33.7198 28.45 32.5798 27.05 32.5798C25.64 32.5798 24.5 33.7298 24.5 35.1298C24.5 35.8998 24.84 36.6098 25.43 37.0998C25.46 37.1298 25.49 37.1598 25.51 37.1898C25.67 37.4798 25.75 37.7598 25.75 38.0198C25.75 38.3298 25.64 38.7598 25.09 39.0898" stroke="#00C09E" stroke-width="1.8" stroke-miterlimit="10" stroke-linecap="round" stroke-linejoin="round"/>
<path d="M10.4601 14.0498C10.4601 14.0498 8.13014 14.8098 7.36014 16.7798C7.36014 16.7798 3.10014 33.2298 3.13014 33.9498L2.65014 44.0498L0.920136 53.8898C0.720136 55.2298 1.65014 56.4698 2.99014 56.6698C3.11014 56.6898 3.23014 56.6998 3.35014 56.6998C4.54014 56.6998 5.59014 55.8298 5.77014 54.6098L7.52014 44.6398C7.53014 44.5498 7.54014 44.4698 7.54014 44.3798L7.88014 36.2198C7.99014 36.2598 10.2901 44.6198 10.2901 44.6198L10.7201 54.3398C10.7701 55.6598 11.8601 56.6998 13.1701 56.6998C13.2001 56.6998 13.2301 56.6998 13.2601 56.6998C14.6101 56.6498 15.6701 55.5098 15.6201 54.1598L15.1801 44.1898C15.1701 44.0198 15.1501 43.8598 15.1101 43.6998L12.4001 32.8098C12.3801 32.7098 12.3401 32.6298 12.3001 32.5398L13.1001 28.9798" stroke="white" stroke-width="1.8" stroke-miterlimit="10" stroke-linecap="round" stroke-linejoin="round"/>
<path d="M10.4601 14.0498C10.4601 14.0498 8.13014 14.8098 7.36014 16.7798C7.36014 16.7798 3.10014 33.2298 3.13014 33.9498L2.65014 44.0498L0.920136 53.8898C0.720136 55.2298 1.65014 56.4698 2.99014 56.6698C3.11014 56.6898 3.23014 56.6998 3.35014 56.6998C4.54014 56.6998 5.59014 55.8298 5.77014 54.6098L7.52014 44.6398C7.53014 44.5498 7.54014 44.4698 7.54014 44.3798L7.88014 36.2198C7.99014 36.2598 10.2901 44.6198 10.2901 44.6198L10.7201 54.3398C10.7701 55.6598 11.8601 56.6998 13.1701 56.6998C13.2001 56.6998 13.2301 56.6998 13.2601 56.6998C14.6101 56.6498 15.6701 55.5098 15.6201 54.1598L15.1801 44.1898C15.1701 44.0198 15.1501 43.8598 15.1101 43.6998L12.4001 32.8098C12.3801 32.7098 12.3401 32.6298 12.3001 32.5398L13.1001 28.9798" stroke="#00C09E" stroke-width="1.8" stroke-miterlimit="10" stroke-linecap="round" stroke-linejoin="round"/>
<path d="M64.3003 21.8499C65.2503 21.2899 65.9203 20.8699 65.9203 20.8699" stroke="white" stroke-width="1.8" stroke-miterlimit="10" stroke-linecap="round" stroke-linejoin="round"/>
<path d="M64.3003 21.8499C65.2503 21.2899 65.9203 20.8699 65.9203 20.8699" stroke="#00C09E" stroke-width="1.8" stroke-miterlimit="10" stroke-linecap="round" stroke-linejoin="round"/>
</g>
<defs>
<clipPath id="clip0_9678_77575">
<rect width="76.35" height="52.67" fill="white" transform="translate(0 5)"/>
</clipPath>
</defs>
</svg>
