<svg width="32" height="33" viewBox="0 0 32 33" fill="none" xmlns="http://www.w3.org/2000/svg">
<path fill-rule="evenodd" clip-rule="evenodd" d="M15.9998 29.4264C23.3636 29.4264 29.3332 23.4569 29.3332 16.0931C29.3332 8.7293 23.3636 2.75977 15.9998 2.75977C8.63604 2.75977 2.6665 8.7293 2.6665 16.0931C2.6665 23.4569 8.63604 29.4264 15.9998 29.4264ZM19.2325 9.5812C18.389 9.54271 18.1359 9.53455 15.9999 9.53455C13.8638 9.53455 13.6107 9.54271 12.7672 9.5812C11.9872 9.61676 11.5636 9.74709 11.2817 9.85665C10.9083 10.0018 10.6418 10.1751 10.3618 10.4551C10.0819 10.735 9.90851 11.0015 9.76338 11.3749C9.65382 11.6568 9.5235 12.0804 9.48793 12.8604C9.44944 13.704 9.44128 13.957 9.44128 16.0931C9.44128 18.2292 9.44944 18.4822 9.48793 19.3258C9.5235 20.1057 9.65382 20.5293 9.76338 20.8112C9.90851 21.1847 10.0819 21.4512 10.3618 21.7311C10.6418 22.011 10.9083 22.1844 11.2817 22.3295C11.5636 22.4391 11.9872 22.5694 12.7672 22.605C13.6106 22.6435 13.8636 22.6516 15.9999 22.6516C18.1361 22.6516 18.3891 22.6435 19.2325 22.605C20.0125 22.5694 20.4361 22.4391 20.718 22.3295C21.0914 22.1844 21.3579 22.011 21.6379 21.7311C21.9178 21.4512 22.0912 21.1847 22.2363 20.8112C22.3459 20.5293 22.4762 20.1057 22.5118 19.3258C22.5502 18.4822 22.5584 18.2292 22.5584 16.0931C22.5584 13.957 22.5502 13.704 22.5118 12.8604C22.4762 12.0804 22.3459 11.6568 22.2363 11.3749C22.0912 11.0015 21.9178 10.735 21.6379 10.4551C21.3579 10.1751 21.0914 10.0018 20.718 9.85665C20.4361 9.74709 20.0125 9.61676 19.2325 9.5812ZM12.7015 8.14125C13.5547 8.10232 13.8272 8.09311 15.9999 8.09311C18.1725 8.09311 18.4449 8.10232 19.2982 8.14125C20.1497 8.18009 20.7313 8.31534 21.2401 8.51308C21.7662 8.71753 22.2124 8.99108 22.6571 9.43582C23.1019 9.88059 23.3754 10.3267 23.5799 10.8528C23.7776 11.3617 23.9129 11.9432 23.9517 12.7947C23.9906 13.648 23.9998 13.9204 23.9998 16.0931C23.9998 18.2657 23.9906 18.5382 23.9517 19.3915C23.9129 20.243 23.7776 20.8245 23.5799 21.3334C23.3754 21.8594 23.1019 22.3056 22.6571 22.7504C22.2124 23.1951 21.7662 23.4686 21.2401 23.6731C20.7313 23.8708 20.1497 24.0061 19.2982 24.0449C18.4449 24.0838 18.1725 24.0931 15.9999 24.0931C13.8272 24.0931 13.5547 24.0838 12.7015 24.0449C11.8499 24.0061 11.2684 23.8708 10.7595 23.6731C10.2335 23.4686 9.78733 23.1951 9.34255 22.7504C8.89781 22.3056 8.62426 21.8594 8.41985 21.3334C8.22207 20.8245 8.08682 20.243 8.04798 19.3915C8.00905 18.5382 7.99984 18.2657 7.99984 16.0931C7.99984 13.9204 8.00905 13.648 8.04798 12.7947C8.08682 11.9432 8.22207 11.3617 8.41985 10.8528C8.62426 10.3267 8.89781 9.88059 9.34255 9.43582C9.78733 8.99108 10.2335 8.71753 10.7595 8.51308C11.2684 8.31534 11.8499 8.18009 12.7015 8.14125ZM16.0036 11.9887C13.7347 11.9887 11.8954 13.828 11.8954 16.0968C11.8954 18.3657 13.7347 20.2049 16.0036 20.2049C18.2724 20.2049 20.1116 18.3657 20.1116 16.0968C20.1116 13.828 18.2724 11.9887 16.0036 11.9887ZM16.0036 18.7635C14.5308 18.7635 13.3369 17.5696 13.3369 16.0968C13.3369 14.624 14.5308 13.4301 16.0036 13.4301C17.4763 13.4301 18.6702 14.624 18.6702 16.0968C18.6702 17.5696 17.4763 18.7635 16.0036 18.7635ZM20.2737 12.7839C20.8039 12.7839 21.2337 12.354 21.2337 11.8239C21.2337 11.2937 20.8039 10.8639 20.2737 10.8639C19.7435 10.8639 19.3137 11.2937 19.3137 11.8239C19.3137 12.354 19.7435 12.7839 20.2737 12.7839Z" fill="white"/>
<path fill-rule="evenodd" clip-rule="evenodd" d="M15.9998 29.4264C23.3636 29.4264 29.3332 23.4569 29.3332 16.0931C29.3332 8.7293 23.3636 2.75977 15.9998 2.75977C8.63604 2.75977 2.6665 8.7293 2.6665 16.0931C2.6665 23.4569 8.63604 29.4264 15.9998 29.4264ZM19.2325 9.5812C18.389 9.54271 18.1359 9.53455 15.9999 9.53455C13.8638 9.53455 13.6107 9.54271 12.7672 9.5812C11.9872 9.61676 11.5636 9.74709 11.2817 9.85665C10.9083 10.0018 10.6418 10.1751 10.3618 10.4551C10.0819 10.735 9.90851 11.0015 9.76338 11.3749C9.65382 11.6568 9.5235 12.0804 9.48793 12.8604C9.44944 13.704 9.44128 13.957 9.44128 16.0931C9.44128 18.2292 9.44944 18.4822 9.48793 19.3258C9.5235 20.1057 9.65382 20.5293 9.76338 20.8112C9.90851 21.1847 10.0819 21.4512 10.3618 21.7311C10.6418 22.011 10.9083 22.1844 11.2817 22.3295C11.5636 22.4391 11.9872 22.5694 12.7672 22.605C13.6106 22.6435 13.8636 22.6516 15.9999 22.6516C18.1361 22.6516 18.3891 22.6435 19.2325 22.605C20.0125 22.5694 20.4361 22.4391 20.718 22.3295C21.0914 22.1844 21.3579 22.011 21.6379 21.7311C21.9178 21.4512 22.0912 21.1847 22.2363 20.8112C22.3459 20.5293 22.4762 20.1057 22.5118 19.3258C22.5502 18.4822 22.5584 18.2292 22.5584 16.0931C22.5584 13.957 22.5502 13.704 22.5118 12.8604C22.4762 12.0804 22.3459 11.6568 22.2363 11.3749C22.0912 11.0015 21.9178 10.735 21.6379 10.4551C21.3579 10.1751 21.0914 10.0018 20.718 9.85665C20.4361 9.74709 20.0125 9.61676 19.2325 9.5812ZM12.7015 8.14125C13.5547 8.10232 13.8272 8.09311 15.9999 8.09311C18.1725 8.09311 18.4449 8.10232 19.2982 8.14125C20.1497 8.18009 20.7313 8.31534 21.2401 8.51308C21.7662 8.71753 22.2124 8.99108 22.6571 9.43582C23.1019 9.88059 23.3754 10.3267 23.5799 10.8528C23.7776 11.3617 23.9129 11.9432 23.9517 12.7947C23.9906 13.648 23.9998 13.9204 23.9998 16.0931C23.9998 18.2657 23.9906 18.5382 23.9517 19.3915C23.9129 20.243 23.7776 20.8245 23.5799 21.3334C23.3754 21.8594 23.1019 22.3056 22.6571 22.7504C22.2124 23.1951 21.7662 23.4686 21.2401 23.6731C20.7313 23.8708 20.1497 24.0061 19.2982 24.0449C18.4449 24.0838 18.1725 24.0931 15.9999 24.0931C13.8272 24.0931 13.5547 24.0838 12.7015 24.0449C11.8499 24.0061 11.2684 23.8708 10.7595 23.6731C10.2335 23.4686 9.78733 23.1951 9.34255 22.7504C8.89781 22.3056 8.62426 21.8594 8.41985 21.3334C8.22207 20.8245 8.08682 20.243 8.04798 19.3915C8.00905 18.5382 7.99984 18.2657 7.99984 16.0931C7.99984 13.9204 8.00905 13.648 8.04798 12.7947C8.08682 11.9432 8.22207 11.3617 8.41985 10.8528C8.62426 10.3267 8.89781 9.88059 9.34255 9.43582C9.78733 8.99108 10.2335 8.71753 10.7595 8.51308C11.2684 8.31534 11.8499 8.18009 12.7015 8.14125ZM16.0036 11.9887C13.7347 11.9887 11.8954 13.828 11.8954 16.0968C11.8954 18.3657 13.7347 20.2049 16.0036 20.2049C18.2724 20.2049 20.1116 18.3657 20.1116 16.0968C20.1116 13.828 18.2724 11.9887 16.0036 11.9887ZM16.0036 18.7635C14.5308 18.7635 13.3369 17.5696 13.3369 16.0968C13.3369 14.624 14.5308 13.4301 16.0036 13.4301C17.4763 13.4301 18.6702 14.624 18.6702 16.0968C18.6702 17.5696 17.4763 18.7635 16.0036 18.7635ZM20.2737 12.7839C20.8039 12.7839 21.2337 12.354 21.2337 11.8239C21.2337 11.2937 20.8039 10.8639 20.2737 10.8639C19.7435 10.8639 19.3137 11.2937 19.3137 11.8239C19.3137 12.354 19.7435 12.7839 20.2737 12.7839Z" fill="url(#paint0_linear)"/>
<defs>
<linearGradient id="paint0_linear" x1="15.9998" y1="2.75977" x2="15.9998" y2="29.4264" gradientUnits="userSpaceOnUse">
<stop stop-color="#515BD4"/>
<stop offset="0.25" stop-color="#8134AF"/>
<stop offset="0.53125" stop-color="#DD2A7B"/>
<stop offset="0.791667" stop-color="#F58529"/>
<stop offset="1" stop-color="#FEDA77"/>
</linearGradient>
</defs>
</svg>
