<svg width="91" height="79" viewBox="0 0 91 79" fill="none" xmlns="http://www.w3.org/2000/svg">
<path d="M4.97417 55.4096L4.97423 55.4096L28.5727 72.6435C31.2651 74.6073 34.4216 75.6795 37.883 75.6795H87.3439C87.4112 75.6795 87.4891 75.6522 87.5563 75.5859C87.6217 75.5214 87.6403 75.4572 87.6403 75.4081V58.7796C87.6403 58.7442 87.6254 58.6768 87.5524 58.6045C87.4794 58.5322 87.4011 58.5082 87.3439 58.5082H83.2542H82.3742L81.6883 57.9571L73.5628 51.4281C70.3349 48.8384 66.3248 47.4226 62.1765 47.4226H39.8055C37.9037 47.4226 36.4461 49.0891 36.7496 50.9953C36.974 52.3153 38.3431 53.5082 40.1201 53.5082H53.7874C56.6951 53.5082 59.0838 55.881 59.0838 58.7796C59.0838 61.7057 56.6849 64.0511 53.7874 64.0511H32.7097H31.8938L31.235 63.5698L10.3231 48.2935L4.97417 55.4096ZM4.97417 55.4096C2.98412 53.9564 2.56782 51.202 4.02566 49.2384M4.97417 55.4096L4.02566 49.2384M4.02566 49.2384C5.49812 47.2596 8.31502 46.83 10.3216 48.2924L4.02566 49.2384ZM56.6318 6.11318L56.686 6.1527L56.7423 6.18925L74.6812 17.8438C76.633 19.307 77.0303 22.0332 75.5844 23.9803C74.1169 25.9565 71.3024 26.3875 69.2949 24.9233L69.2372 24.8812L69.1772 24.8425L53.8495 14.952L53.2306 14.5526H52.4941H34.0555C32.5459 14.5526 31.2469 15.29 30.3797 16.1495C29.514 17.0074 28.7591 18.3047 28.7591 19.824C28.7591 23.0569 31.4913 25.0954 34.0555 25.0954H45.0837C46.6268 25.0954 48.0684 26.2335 48.4642 27.8318C48.7037 29.5823 47.4077 31.1811 45.241 31.1811H25.6663C21.4851 31.1811 17.6404 29.9011 14.4437 27.3408L6.32901 20.6648L5.51746 19.9972L4.47262 20.1099L3.3185 20.2343C3.31025 20.2272 3.30079 20.2182 3.29027 20.2069C3.22426 20.1361 3.15625 20.0099 3.15625 19.824V3.34975C3.15625 3.29911 3.17909 3.21689 3.25545 3.1382C3.28603 3.10668 3.31358 3.08868 3.32997 3.08008H47.1635C50.6479 3.08008 53.9576 4.16415 56.6318 6.11318ZM3.35158 20.2579C3.35468 20.2589 3.35614 20.2596 3.3561 20.2597C3.35605 20.2599 3.3545 20.2594 3.35158 20.2579Z" fill="white"/>
<path d="M4.97417 55.4096L4.97423 55.4096L28.5727 72.6435C31.2651 74.6073 34.4216 75.6795 37.883 75.6795H87.3439C87.4112 75.6795 87.4891 75.6522 87.5563 75.5859C87.6217 75.5214 87.6403 75.4572 87.6403 75.4081V58.7796C87.6403 58.7442 87.6254 58.6768 87.5524 58.6045C87.4794 58.5322 87.4011 58.5082 87.3439 58.5082H83.2542H82.3742L81.6883 57.9571L73.5628 51.4281C70.3349 48.8384 66.3248 47.4226 62.1765 47.4226H39.8055C37.9037 47.4226 36.4461 49.0891 36.7496 50.9953C36.974 52.3153 38.3431 53.5082 40.1201 53.5082H53.7874C56.6951 53.5082 59.0838 55.881 59.0838 58.7796C59.0838 61.7057 56.6849 64.0511 53.7874 64.0511H32.7097H31.8938L31.235 63.5698L10.3231 48.2935L4.97417 55.4096ZM4.97417 55.4096C2.98412 53.9564 2.56782 51.202 4.02566 49.2384M4.97417 55.4096L4.02566 49.2384M4.02566 49.2384C5.49812 47.2596 8.31502 46.83 10.3216 48.2924L4.02566 49.2384ZM56.6318 6.11318L56.686 6.1527L56.7423 6.18925L74.6812 17.8438C76.633 19.307 77.0303 22.0332 75.5844 23.9803C74.1169 25.9565 71.3024 26.3875 69.2949 24.9233L69.2372 24.8812L69.1772 24.8425L53.8495 14.952L53.2306 14.5526H52.4941H34.0555C32.5459 14.5526 31.2469 15.29 30.3797 16.1495C29.514 17.0074 28.7591 18.3047 28.7591 19.824C28.7591 23.0569 31.4913 25.0954 34.0555 25.0954H45.0837C46.6268 25.0954 48.0684 26.2335 48.4642 27.8318C48.7037 29.5823 47.4077 31.1811 45.241 31.1811H25.6663C21.4851 31.1811 17.6404 29.9011 14.4437 27.3408L6.32901 20.6648L5.51746 19.9972L4.47262 20.1099L3.3185 20.2343C3.31025 20.2272 3.30079 20.2182 3.29027 20.2069C3.22426 20.1361 3.15625 20.0099 3.15625 19.824V3.34975C3.15625 3.29911 3.17909 3.21689 3.25545 3.1382C3.28603 3.10668 3.31358 3.08868 3.32997 3.08008H47.1635C50.6479 3.08008 53.9576 4.16415 56.6318 6.11318ZM3.35158 20.2579C3.35468 20.2589 3.35614 20.2596 3.3561 20.2597C3.35605 20.2599 3.3545 20.2594 3.35158 20.2579Z" fill="#494949" fill-opacity="0.8"/>
<path d="M4.97417 55.4096L4.97423 55.4096L28.5727 72.6435C31.2651 74.6073 34.4216 75.6795 37.883 75.6795H87.3439C87.4112 75.6795 87.4891 75.6522 87.5563 75.5859C87.6217 75.5214 87.6403 75.4572 87.6403 75.4081V58.7796C87.6403 58.7442 87.6254 58.6768 87.5524 58.6045C87.4794 58.5322 87.4011 58.5082 87.3439 58.5082H83.2542H82.3742L81.6883 57.9571L73.5628 51.4281C70.3349 48.8384 66.3248 47.4226 62.1765 47.4226H39.8055C37.9037 47.4226 36.4461 49.0891 36.7496 50.9953C36.974 52.3153 38.3431 53.5082 40.1201 53.5082H53.7874C56.6951 53.5082 59.0838 55.881 59.0838 58.7796C59.0838 61.7057 56.6849 64.0511 53.7874 64.0511H32.7097H31.8938L31.235 63.5698L10.3231 48.2935L4.97417 55.4096ZM4.97417 55.4096C2.98412 53.9564 2.56782 51.202 4.02566 49.2384M4.97417 55.4096L4.02566 49.2384M4.02566 49.2384C5.49812 47.2596 8.31502 46.83 10.3216 48.2924L4.02566 49.2384ZM56.6318 6.11318L56.686 6.1527L56.7423 6.18925L74.6812 17.8438C76.633 19.307 77.0303 22.0332 75.5844 23.9803C74.1169 25.9565 71.3024 26.3875 69.2949 24.9233L69.2372 24.8812L69.1772 24.8425L53.8495 14.952L53.2306 14.5526H52.4941H34.0555C32.5459 14.5526 31.2469 15.29 30.3797 16.1495C29.514 17.0074 28.7591 18.3047 28.7591 19.824C28.7591 23.0569 31.4913 25.0954 34.0555 25.0954H45.0837C46.6268 25.0954 48.0684 26.2335 48.4642 27.8318C48.7037 29.5823 47.4077 31.1811 45.241 31.1811H25.6663C21.4851 31.1811 17.6404 29.9011 14.4437 27.3408L6.32901 20.6648L5.51746 19.9972L4.47262 20.1099L3.3185 20.2343C3.31025 20.2272 3.30079 20.2182 3.29027 20.2069C3.22426 20.1361 3.15625 20.0099 3.15625 19.824V3.34975C3.15625 3.29911 3.17909 3.21689 3.25545 3.1382C3.28603 3.10668 3.31358 3.08868 3.32997 3.08008H47.1635C50.6479 3.08008 53.9576 4.16415 56.6318 6.11318ZM3.35158 20.2579C3.35468 20.2589 3.35614 20.2596 3.3561 20.2597C3.35605 20.2599 3.3545 20.2594 3.35158 20.2579Z" stroke="white" stroke-width="5"/>
<path d="M4.97417 55.4096L4.97423 55.4096L28.5727 72.6435C31.2651 74.6073 34.4216 75.6795 37.883 75.6795H87.3439C87.4112 75.6795 87.4891 75.6522 87.5563 75.5859C87.6217 75.5214 87.6403 75.4572 87.6403 75.4081V58.7796C87.6403 58.7442 87.6254 58.6768 87.5524 58.6045C87.4794 58.5322 87.4011 58.5082 87.3439 58.5082H83.2542H82.3742L81.6883 57.9571L73.5628 51.4281C70.3349 48.8384 66.3248 47.4226 62.1765 47.4226H39.8055C37.9037 47.4226 36.4461 49.0891 36.7496 50.9953C36.974 52.3153 38.3431 53.5082 40.1201 53.5082H53.7874C56.6951 53.5082 59.0838 55.881 59.0838 58.7796C59.0838 61.7057 56.6849 64.0511 53.7874 64.0511H32.7097H31.8938L31.235 63.5698L10.3231 48.2935L4.97417 55.4096ZM4.97417 55.4096C2.98412 53.9564 2.56782 51.202 4.02566 49.2384M4.97417 55.4096L4.02566 49.2384M4.02566 49.2384C5.49812 47.2596 8.31502 46.83 10.3216 48.2924L4.02566 49.2384ZM56.6318 6.11318L56.686 6.1527L56.7423 6.18925L74.6812 17.8438C76.633 19.307 77.0303 22.0332 75.5844 23.9803C74.1169 25.9565 71.3024 26.3875 69.2949 24.9233L69.2372 24.8812L69.1772 24.8425L53.8495 14.952L53.2306 14.5526H52.4941H34.0555C32.5459 14.5526 31.2469 15.29 30.3797 16.1495C29.514 17.0074 28.7591 18.3047 28.7591 19.824C28.7591 23.0569 31.4913 25.0954 34.0555 25.0954H45.0837C46.6268 25.0954 48.0684 26.2335 48.4642 27.8318C48.7037 29.5823 47.4077 31.1811 45.241 31.1811H25.6663C21.4851 31.1811 17.6404 29.9011 14.4437 27.3408L6.32901 20.6648L5.51746 19.9972L4.47262 20.1099L3.3185 20.2343C3.31025 20.2272 3.30079 20.2182 3.29027 20.2069C3.22426 20.1361 3.15625 20.0099 3.15625 19.824V3.34975C3.15625 3.29911 3.17909 3.21689 3.25545 3.1382C3.28603 3.10668 3.31358 3.08868 3.32997 3.08008H47.1635C50.6479 3.08008 53.9576 4.16415 56.6318 6.11318ZM3.35158 20.2579C3.35468 20.2589 3.35614 20.2596 3.3561 20.2597C3.35605 20.2599 3.3545 20.2594 3.35158 20.2579Z" stroke="#494949" stroke-opacity="0.8" stroke-width="5"/>
</svg>
