<svg width="32" height="33" viewBox="0 0 32 33" fill="none" xmlns="http://www.w3.org/2000/svg">
<path fill-rule="evenodd" clip-rule="evenodd" d="M29.3337 16.0931C29.3337 23.4569 23.3641 29.4264 16.0003 29.4264C8.63653 29.4264 2.66699 23.4569 2.66699 16.0931C2.66699 8.7293 8.63653 2.75977 16.0003 2.75977C23.3641 2.75977 29.3337 8.7293 29.3337 16.0931ZM12.5168 9.61569C12.5168 10.4458 11.8848 11.1175 10.8964 11.1175C9.94656 11.1175 9.31453 10.4458 9.33409 9.61569C9.31453 8.74529 9.94654 8.0931 10.9154 8.0931C11.8848 8.0931 12.4979 8.74529 12.5168 9.61569ZM9.41356 21.9718V12.3039H12.4184V21.9718H9.41356ZM14.7474 12.3052C14.7871 13.1554 14.8268 14.1835 14.8268 15.3895H14.828V21.9737H17.8329V16.398C17.8329 16.1205 17.872 15.8443 17.9515 15.6462C18.1489 15.093 18.6428 14.5197 19.4735 14.5197C20.5609 14.5197 20.9955 15.3693 20.9955 16.6156V21.9737H24.0003V16.2391C24.0003 13.3932 22.5174 12.0882 20.5407 12.0882C18.9392 12.0882 17.9509 13.0167 17.5554 13.6297H17.4961L17.3574 12.3052H14.7474Z" fill="white"/>
<path fill-rule="evenodd" clip-rule="evenodd" d="M29.3337 16.0931C29.3337 23.4569 23.3641 29.4264 16.0003 29.4264C8.63653 29.4264 2.66699 23.4569 2.66699 16.0931C2.66699 8.7293 8.63653 2.75977 16.0003 2.75977C23.3641 2.75977 29.3337 8.7293 29.3337 16.0931ZM12.5168 9.61569C12.5168 10.4458 11.8848 11.1175 10.8964 11.1175C9.94656 11.1175 9.31453 10.4458 9.33409 9.61569C9.31453 8.74529 9.94654 8.0931 10.9154 8.0931C11.8848 8.0931 12.4979 8.74529 12.5168 9.61569ZM9.41356 21.9718V12.3039H12.4184V21.9718H9.41356ZM14.7474 12.3052C14.7871 13.1554 14.8268 14.1835 14.8268 15.3895H14.828V21.9737H17.8329V16.398C17.8329 16.1205 17.872 15.8443 17.9515 15.6462C18.1489 15.093 18.6428 14.5197 19.4735 14.5197C20.5609 14.5197 20.9955 15.3693 20.9955 16.6156V21.9737H24.0003V16.2391C24.0003 13.3932 22.5174 12.0882 20.5407 12.0882C18.9392 12.0882 17.9509 13.0167 17.5554 13.6297H17.4961L17.3574 12.3052H14.7474Z" fill="#0E76A8"/>
</svg>
