<?xml version="1.0" encoding="UTF-8"?>
<svg id="Camada_1" data-name="Camada 1" xmlns="http://www.w3.org/2000/svg" xmlns:xlink="http://www.w3.org/1999/xlink" viewBox="0 0 154.59 61.33">
  <defs>
    <style>
      .cls-1 {
        fill: #fff;
      }

      .cls-2 {
        fill: url(#Gradiente_sem_nome_12);
      }

      .cls-3 {
        fill: #9f9e9e;
      }
    </style>
    <linearGradient id="Gradiente_sem_nome_12" data-name="Gradiente sem nome 12" x1="4.94" y1="53.03" x2="150.29" y2="53.03" gradientUnits="userSpaceOnUse">
      <stop offset="0" stop-color="#c6c6c6" stop-opacity="0"/>
      <stop offset="1" stop-color="#9f9e9e"/>
    </linearGradient>
  </defs>
  <rect class="cls-2" x="4.94" y="46.34" width="145.35" height="13.4"/>
  <g>
    <path class="cls-1" d="M108.23,55.93c.19-.19,.44-.29,.74-.29s.55,.1,.74,.29c.19,.19,.29,.43,.29,.72s-.1,.53-.3,.73c-.2,.2-.44,.3-.74,.3s-.54-.1-.74-.3-.3-.44-.3-.73,.1-.52,.29-.72Z"/>
    <path class="cls-1" d="M111.02,48.6h6.55v1.63h-2.38v7.17h-1.81v-7.17h-2.36v-1.63Z"/>
    <path class="cls-1" d="M118.79,49.72c.88-.86,1.99-1.3,3.33-1.3s2.45,.43,3.33,1.3c.88,.86,1.32,1.96,1.32,3.28s-.44,2.44-1.31,3.31-1.99,1.31-3.34,1.31-2.46-.44-3.34-1.31c-.88-.88-1.31-1.98-1.31-3.31s.44-2.42,1.33-3.28Zm1.35,5.36c.51,.54,1.17,.81,1.97,.81s1.46-.27,1.98-.81c.51-.54,.77-1.23,.77-2.08s-.25-1.54-.76-2.08c-.5-.54-1.17-.81-1.99-.81s-1.46,.27-1.97,.81c-.51,.54-.77,1.24-.77,2.08s.26,1.54,.77,2.08Z"/>
    <path class="cls-1" d="M137.75,48.6h2.11l-3.7,9.31-2.78-5.77-2.78,5.77-3.7-9.31h2.13l1.81,5.6,2.54-6.04,2.54,6.05,1.82-5.61Z"/>
    <path class="cls-1" d="M148.89,48.6v9.24l-6.24-5.76v5.32h-1.76v-9.24l6.25,5.76v-5.32h1.75Z"/>
  </g>
  <rect class="cls-3" x="94.64" y="2.29" width="6.43" height="38.28"/>
  <path class="cls-3" d="M124.5,19.29c-1.82-1.26-4.21-1.89-7.19-1.89-3.14,0-6.41,.88-9.81,2.65l2.36,4.42c2.16-1.37,4.5-2.06,7.02-2.06,1.24,0,2.26,.29,3.04,.86,.79,.57,1.18,1.35,1.18,2.33v2.65c-1.9-.98-3.88-1.47-5.94-1.47-2.91,0-5.26,.67-7.04,2.01-1.78,1.34-2.67,3.19-2.67,5.55,0,2.09,.72,3.74,2.16,4.93,1.44,1.19,3.4,1.79,5.89,1.79,1.7,0,3.23-.33,4.59-.98,1.36-.65,2.36-1.57,3.02-2.75v3.24h6.13v-16c0-2.26-.91-4.02-2.72-5.28Zm-3.41,12.24c0,3.4-1.85,5.1-5.54,5.1-2.49,0-3.73-.93-3.73-2.8,0-1.05,.41-1.87,1.23-2.48,.82-.61,1.95-.91,3.39-.91,1.8,0,3.35,.34,4.66,1.03v.05Z"/>
  <g>
    <path class="cls-3" d="M147.74,30.51c-2.3,.38-4.74,.74-7.31,1.07,.34,.13,.64,.25,.88,.35,.39,.16,.81,.37,1.25,.61s.77,.52,.98,.83c.21,.31,.32,.65,.32,1.01,0,1.28-.9,1.91-2.7,1.91-1.01,0-2.08-.36-3.19-1.08-1.11-.72-2.09-1.72-2.94-2.99l-3.93,3.24c2.36,3.96,5.74,5.94,10.16,5.94,2.78,0,4.98-.59,6.6-1.77,1.62-1.18,2.43-2.99,2.43-5.45,0-1.58-.48-2.87-1.42-3.87-.37,.06-.75,.13-1.12,.19Z"/>
    <path class="cls-3" d="M138.12,30.65c.09,.04,.19,.08,.3,.13,3.24-.38,6.29-.82,9.12-1.29,.11-.02,.22-.04,.33-.06-1-.76-2.25-1.44-3.77-2.03l-1.62-.59c-.72-.26-1.27-.47-1.64-.61-.38-.15-.79-.34-1.23-.56-.44-.23-.76-.47-.96-.74-.2-.26-.29-.56-.29-.88,0-1.15,.8-1.72,2.4-1.72,.92,0,1.91,.29,2.99,.86,1.08,.57,1.98,1.3,2.7,2.18l3.63-3.14c-.88-1.37-2.16-2.5-3.83-3.39s-3.53-1.32-5.59-1.32c-2.36,0-4.32,.56-5.89,1.69-1.57,1.13-2.36,2.69-2.36,4.69,0,1.77,.49,3.13,1.47,4.1s2.39,1.86,4.22,2.67Z"/>
  </g>
  <g>
    <path class="cls-3" d="M78.35,36.05c-1.64,0-2.97-.46-4-1.37-1.03-.92-1.66-2.26-1.89-4.02h10.84c-5.5-.9-11.13-2.07-16.87-3.55-.1,.63-.15,1.35-.15,2.18,0,3.44,1.08,6.26,3.24,8.47,2.16,2.21,5.01,3.31,8.54,3.31,2.94,0,5.3-.52,7.07-1.57,1.77-1.05,3.21-2.57,4.32-4.56l-5.4-1.96c-1.11,2.06-3.01,3.09-5.69,3.09Z"/>
    <path class="cls-3" d="M89.65,30.54c.06-.44,.08-.95,.08-1.56,0-3.5-1.06-6.29-3.16-8.37-2.11-2.08-4.85-3.12-8.22-3.12-3.17,0-5.83,.85-7.97,2.55-1.95,1.55-3.19,3.56-3.75,6.03,7.9,2.05,15.6,3.49,23.02,4.46Zm-15.13-7.15c1.01-.79,2.26-1.18,3.73-1.18,2.98,0,4.73,1.47,5.25,4.42h-10.89c.26-1.37,.9-2.45,1.91-3.24Z"/>
  </g>
  <g>
    <path class="cls-3" d="M58.85,24.97c-1.15-.35-2.29-.68-3.42-1,.53,.69,.89,1.57,1.09,2.66h-10.89c.26-1.37,.9-2.45,1.91-3.24,.59-.46,1.26-.77,2-.97-2.39-.58-4.75-1.09-7.07-1.54-1.59,1.58-2.59,3.56-2.98,5.94-.13,.69-.2,1.5-.2,2.45,0,3.44,1.08,6.26,3.24,8.47,2.16,2.21,5.01,3.31,8.54,3.31,2.94,0,5.3-.52,7.07-1.57,1.77-1.05,3.21-2.57,4.32-4.56l-5.4-1.96c-1.11,2.06-3.01,3.09-5.69,3.09-1.64,0-2.97-.46-4-1.37-1.03-.92-1.66-2.26-1.89-4.02h17.18c.07-.46,.1-1.01,.1-1.67,0-1.05-.11-2.04-.3-2.96-1.2-.34-2.39-.69-3.6-1.05Z"/>
    <path class="cls-3" d="M59.15,23.98c1,.31,2,.6,3,.88-.52-1.64-1.36-3.06-2.57-4.25-2.11-2.08-4.85-3.12-8.22-3.12-3.15,0-5.8,.84-7.93,2.52,5.07,1.01,10.31,2.31,15.72,3.96Z"/>
  </g>
  <g>
    <path class="cls-3" d="M37.85,19.02c-.89-1.01-2.19-1.52-3.91-1.52-.9,0-1.75,.22-2.54,.62,2.11,.25,4.26,.55,6.45,.9Z"/>
    <path class="cls-3" d="M30.1,19.02c-.55,.48-1.07,1.06-1.56,1.77v-1.93c-2.13-.21-4.23-.37-6.28-.48v22.19h6.28v-11.92c0-1.64,.32-2.92,.96-3.85,.64-.93,1.55-1.4,2.72-1.4,1.01,0,2,.43,2.94,1.28l2.48-4.63c-2.57-.41-5.09-.75-7.55-1.02Z"/>
  </g>
  <g>
    <path class="cls-3" d="M13.18,17.17v-6.04c0-2.45,.79-3.68,2.36-3.68,.95,0,1.72,.43,2.31,1.28l2.7-4.81c-1.54-1.54-3.42-2.31-5.64-2.31-2.58,0-4.56,.7-5.91,2.09-1.36,1.39-2.04,3.38-2.04,5.96v7.73c2.02-.12,4.1-.19,6.23-.22Z"/>
    <path class="cls-3" d="M4.3,18.6v4.79h2.65v17.18h6.23V23.39h5.35v-5.15c-5.01-.13-9.77,0-14.23,.36Z"/>
  </g>
</svg>