<svg width="25" height="24" viewBox="0 0 25 24" fill="none" xmlns="http://www.w3.org/2000/svg">
<g clip-path="url(#clip0)">
<path fill-rule="evenodd" clip-rule="evenodd" d="M9.5 5.25C9.5 5.05109 9.57902 4.86032 9.71967 4.71967C9.86032 4.57902 10.0511 4.5 10.25 4.5H22.25C22.4489 4.5 22.6397 4.57902 22.7803 4.71967C22.921 4.86032 23 5.05109 23 5.25V18.75C23 18.9489 22.921 19.1397 22.7803 19.2803C22.6397 19.421 22.4489 19.5 22.25 19.5H10.25C10.0511 19.5 9.86032 19.421 9.71967 19.2803C9.57902 19.1397 9.5 18.9489 9.5 18.75V15.75C9.5 15.5511 9.42098 15.3603 9.28033 15.2197C9.13968 15.079 8.94891 15 8.75 15C8.55109 15 8.36032 15.079 8.21967 15.2197C8.07902 15.3603 8 15.5511 8 15.75V18.75C8 19.3467 8.23705 19.919 8.65901 20.341C9.08097 20.7629 9.65326 21 10.25 21H22.25C22.8467 21 23.419 20.7629 23.841 20.341C24.2629 19.919 24.5 19.3467 24.5 18.75V5.25C24.5 4.65326 24.2629 4.08097 23.841 3.65901C23.419 3.23705 22.8467 3 22.25 3H10.25C9.65326 3 9.08097 3.23705 8.65901 3.65901C8.23705 4.08097 8 4.65326 8 5.25V8.25C8 8.44891 8.07902 8.63968 8.21967 8.78033C8.36032 8.92098 8.55109 9 8.75 9C8.94891 9 9.13968 8.92098 9.28033 8.78033C9.42098 8.63968 9.5 8.44891 9.5 8.25V5.25Z" fill="white"/>
<path fill-rule="evenodd" clip-rule="evenodd" d="M9.5 5.25C9.5 5.05109 9.57902 4.86032 9.71967 4.71967C9.86032 4.57902 10.0511 4.5 10.25 4.5H22.25C22.4489 4.5 22.6397 4.57902 22.7803 4.71967C22.921 4.86032 23 5.05109 23 5.25V18.75C23 18.9489 22.921 19.1397 22.7803 19.2803C22.6397 19.421 22.4489 19.5 22.25 19.5H10.25C10.0511 19.5 9.86032 19.421 9.71967 19.2803C9.57902 19.1397 9.5 18.9489 9.5 18.75V15.75C9.5 15.5511 9.42098 15.3603 9.28033 15.2197C9.13968 15.079 8.94891 15 8.75 15C8.55109 15 8.36032 15.079 8.21967 15.2197C8.07902 15.3603 8 15.5511 8 15.75V18.75C8 19.3467 8.23705 19.919 8.65901 20.341C9.08097 20.7629 9.65326 21 10.25 21H22.25C22.8467 21 23.419 20.7629 23.841 20.341C24.2629 19.919 24.5 19.3467 24.5 18.75V5.25C24.5 4.65326 24.2629 4.08097 23.841 3.65901C23.419 3.23705 22.8467 3 22.25 3H10.25C9.65326 3 9.08097 3.23705 8.65901 3.65901C8.23705 4.08097 8 4.65326 8 5.25V8.25C8 8.44891 8.07902 8.63968 8.21967 8.78033C8.36032 8.92098 8.55109 9 8.75 9C8.94891 9 9.13968 8.92098 9.28033 8.78033C9.42098 8.63968 9.5 8.44891 9.5 8.25V5.25Z" fill="#008FE5"/>
<path fill-rule="evenodd" clip-rule="evenodd" d="M18.281 12.5319C18.3508 12.4623 18.4063 12.3795 18.4441 12.2884C18.4819 12.1973 18.5013 12.0996 18.5013 12.0009C18.5013 11.9023 18.4819 11.8046 18.4441 11.7135C18.4063 11.6224 18.3508 11.5396 18.281 11.4699L13.781 6.96995C13.7113 6.90022 13.6285 6.8449 13.5374 6.80716C13.4463 6.76942 13.3486 6.75 13.25 6.75C13.1514 6.75 13.0537 6.76942 12.9626 6.80716C12.8715 6.8449 12.7887 6.90022 12.719 6.96995C12.6493 7.03968 12.594 7.12246 12.5562 7.21357C12.5185 7.30468 12.4991 7.40233 12.4991 7.50095C12.4991 7.59956 12.5185 7.69721 12.5562 7.78832C12.594 7.87943 12.6493 7.96222 12.719 8.03195L15.9395 11.2509H2.75C2.55109 11.2509 2.36032 11.33 2.21967 11.4706C2.07902 11.6113 2 11.802 2 12.0009C2 12.1999 2.07902 12.3906 2.21967 12.5313C2.36032 12.6719 2.55109 12.7509 2.75 12.7509H15.9395L12.719 15.9699C12.6493 16.0397 12.594 16.1225 12.5562 16.2136C12.5185 16.3047 12.4991 16.4023 12.4991 16.5009C12.4991 16.5996 12.5185 16.6972 12.5562 16.7883C12.594 16.8794 12.6493 16.9622 12.719 17.0319C12.7887 17.1017 12.8715 17.157 12.9626 17.1947C13.0537 17.2325 13.1514 17.2519 13.25 17.2519C13.3486 17.2519 13.4463 17.2325 13.5374 17.1947C13.6285 17.157 13.7113 17.1017 13.781 17.0319L18.281 12.5319Z" fill="white"/>
<path fill-rule="evenodd" clip-rule="evenodd" d="M18.281 12.5319C18.3508 12.4623 18.4063 12.3795 18.4441 12.2884C18.4819 12.1973 18.5013 12.0996 18.5013 12.0009C18.5013 11.9023 18.4819 11.8046 18.4441 11.7135C18.4063 11.6224 18.3508 11.5396 18.281 11.4699L13.781 6.96995C13.7113 6.90022 13.6285 6.8449 13.5374 6.80716C13.4463 6.76942 13.3486 6.75 13.25 6.75C13.1514 6.75 13.0537 6.76942 12.9626 6.80716C12.8715 6.8449 12.7887 6.90022 12.719 6.96995C12.6493 7.03968 12.594 7.12246 12.5562 7.21357C12.5185 7.30468 12.4991 7.40233 12.4991 7.50095C12.4991 7.59956 12.5185 7.69721 12.5562 7.78832C12.594 7.87943 12.6493 7.96222 12.719 8.03195L15.9395 11.2509H2.75C2.55109 11.2509 2.36032 11.33 2.21967 11.4706C2.07902 11.6113 2 11.802 2 12.0009C2 12.1999 2.07902 12.3906 2.21967 12.5313C2.36032 12.6719 2.55109 12.7509 2.75 12.7509H15.9395L12.719 15.9699C12.6493 16.0397 12.594 16.1225 12.5562 16.2136C12.5185 16.3047 12.4991 16.4023 12.4991 16.5009C12.4991 16.5996 12.5185 16.6972 12.5562 16.7883C12.594 16.8794 12.6493 16.9622 12.719 17.0319C12.7887 17.1017 12.8715 17.157 12.9626 17.1947C13.0537 17.2325 13.1514 17.2519 13.25 17.2519C13.3486 17.2519 13.4463 17.2325 13.5374 17.1947C13.6285 17.157 13.7113 17.1017 13.781 17.0319L18.281 12.5319Z" fill="#008FE5"/>
</g>
<defs>
<clipPath id="clip0">
<rect width="24" height="24" fill="white" transform="translate(0.5)"/>
</clipPath>
</defs>
</svg>
