<svg width="168" height="45" viewBox="0 0 168 45" fill="none" xmlns="http://www.w3.org/2000/svg">
<g clip-path="url(#clip0)">
<path d="M23.0146 7.8566C23.0146 7.8566 21.0177 1.33623 13.7793 0.21416C6.54098 -0.907911 2.55273 4.70806 2.55273 4.70806C2.55273 4.70806 6.70938 0.96408 12.3409 3.41045C12.3409 3.41045 15.1279 4.65891 16.9789 7.8566H23.0146Z" fill="white"/>
<path d="M23.0146 7.8566C23.0146 7.8566 21.0177 1.33623 13.7793 0.21416C6.54098 -0.907911 2.55273 4.70806 2.55273 4.70806C2.55273 4.70806 6.70938 0.96408 12.3409 3.41045C12.3409 3.41045 15.1279 4.65891 16.9789 7.8566H23.0146Z" fill="black" fill-opacity="0.6"/>
<path d="M14.1453 11.3071H23.0143C23.0143 11.3071 22.874 17.5579 17.4221 19.1939C11.9702 20.83 9.58594 17.732 9.58594 17.732C9.58594 17.732 14.412 20.0351 17.4656 15.1621L14.1271 15.1438L14.1453 11.3071Z" fill="white"/>
<path d="M14.1453 11.3071H23.0143C23.0143 11.3071 22.874 17.5579 17.4221 19.1939C11.9702 20.83 9.58594 17.732 9.58594 17.732C9.58594 17.732 14.412 20.0351 17.4656 15.1621L14.1271 15.1438L14.1453 11.3071Z" fill="black" fill-opacity="0.6"/>
<path d="M14.0041 5.74563C14.0041 5.74563 7.67936 0.338903 1.70541 7.02499C1.70541 7.02499 -2.6449 12.2112 2.55863 19.0672C7.76216 25.9233 15.5857 23.2438 15.5857 23.2438C15.5857 23.2438 22.1294 21.7495 23.5846 13.9245C23.5846 13.9245 21.8277 20.1668 15.284 20.6935C15.284 20.6935 11.1989 21.6611 7.15732 16.9579C7.15732 16.9579 3.86372 12.7828 6.36725 8.47427C8.87078 4.16574 14.0041 5.74563 14.0041 5.74563Z" fill="white"/>
<path d="M14.0041 5.74563C14.0041 5.74563 7.67936 0.338903 1.70541 7.02499C1.70541 7.02499 -2.6449 12.2112 2.55863 19.0672C7.76216 25.9233 15.5857 23.2438 15.5857 23.2438C15.5857 23.2438 22.1294 21.7495 23.5846 13.9245C23.5846 13.9245 21.8277 20.1668 15.284 20.6935C15.284 20.6935 11.1989 21.6611 7.15732 16.9579C7.15732 16.9579 3.86372 12.7828 6.36725 8.47427C8.87078 4.16574 14.0041 5.74563 14.0041 5.74563Z" fill="black" fill-opacity="0.6"/>
<path d="M27.0215 0.203125C27.0215 0.203125 33.6662 10.4169 39.4886 12.9827L47.1648 0.203125H41.5754L37.103 7.31753L32.7148 0.203125H27.0215Z" fill="white"/>
<path d="M27.0215 0.203125C27.0215 0.203125 33.6662 10.4169 39.4886 12.9827L47.1648 0.203125H41.5754L37.103 7.31753L32.7148 0.203125H27.0215Z" fill="black" fill-opacity="0.6"/>
<path d="M31.4951 7.44629C31.4951 7.44629 34.8266 12.1368 39.3804 14.1661V23.5555H34.7929V12.7491L31.4951 7.44629Z" fill="white"/>
<path d="M31.4951 7.44629C31.4951 7.44629 34.8266 12.1368 39.3804 14.1661V23.5555H34.7929V12.7491L31.4951 7.44629Z" fill="black" fill-opacity="0.6"/>
<path d="M76.5371 24.1838V7.44682C76.5371 7.44682 78.9087 3.88541 83.8344 4.3362L91.3099 16.0316L91.1134 1.24805H95.9998V24.1838H90.4412L81.1274 8.55766V24.1276L76.5371 24.1838Z" fill="white"/>
<path d="M76.5371 24.1838V7.44682C76.5371 7.44682 78.9087 3.88541 83.8344 4.3362L91.3099 16.0316L91.1134 1.24805H95.9998V24.1838H90.4412L81.1274 8.55766V24.1276L76.5371 24.1838Z" fill="black" fill-opacity="0.6"/>
<path d="M83.2662 3.16757C78.6647 3.19004 76.5303 5.71505 76.5303 5.71505V0.846191H81.7352L83.2662 3.16757Z" fill="white"/>
<path d="M83.2662 3.16757C78.6647 3.19004 76.5303 5.71505 76.5303 5.71505V0.846191H81.7352L83.2662 3.16757Z" fill="black" fill-opacity="0.6"/>
<path d="M48.4492 23.7553L52.5806 15.1242C52.5806 15.1242 57.5498 14.5625 59.2225 12.3071L53.9797 23.7553H48.4492Z" fill="white"/>
<path d="M48.4492 23.7553L52.5806 15.1242C52.5806 15.1242 57.5498 14.5625 59.2225 12.3071L53.9797 23.7553H48.4492Z" fill="black" fill-opacity="0.6"/>
<path d="M53.0615 14.0216C53.0615 14.0216 57.729 13.3194 59.5168 10.9208L65.2143 23.7551H70.6424L59.7049 0.00341797L53.0615 14.0216Z" fill="white"/>
<path d="M53.0615 14.0216C53.0615 14.0216 57.729 13.3194 59.5168 10.9208L65.2143 23.7551H70.6424L59.7049 0.00341797L53.0615 14.0216Z" fill="black" fill-opacity="0.6"/>
</g>
<path d="M2.66175 37.58C2.46519 37.7602 2.36691 38.0059 2.36691 38.3171C2.36691 38.6283 2.46519 38.874 2.66175 39.0542C2.85831 39.2344 3.10401 39.3245 3.39885 39.3245C3.81381 39.3245 4.15506 39.1743 4.4226 38.874V39.7749C4.11684 40.0042 3.75648 40.1189 3.34152 40.1189C2.79006 40.1189 2.33688 39.9496 1.98198 39.6111C1.63254 39.2781 1.45782 38.8467 1.45782 38.3171C1.45782 37.7875 1.63254 37.3561 1.98198 37.0231C2.33688 36.6846 2.79006 36.5153 3.34152 36.5153C3.75648 36.5153 4.11684 36.63 4.4226 36.8593V37.7602C4.15506 37.4599 3.81381 37.3097 3.39885 37.3097C3.10401 37.3097 2.85831 37.3998 2.66175 37.58ZM1.49058 36.4989C1.01556 36.9794 0.77805 37.5855 0.77805 38.3171C0.77805 39.0487 1.01556 39.6548 1.49058 40.1353C1.9656 40.6158 2.56074 40.856 3.276 40.856C3.99126 40.856 4.5864 40.6158 5.06142 40.1353C5.53644 39.6548 5.77395 39.0487 5.77395 38.3171C5.77395 37.5855 5.53644 36.9794 5.06142 36.4989C4.5864 36.0184 3.99126 35.7782 3.276 35.7782C2.56074 35.7782 1.9656 36.0184 1.49058 36.4989ZM1.17117 40.4301C0.60879 39.8732 0.3276 39.1689 0.3276 38.3171C0.3276 37.4653 0.60879 36.761 1.17117 36.2041C1.73355 35.6472 2.43516 35.3687 3.276 35.3687C4.11684 35.3687 4.81845 35.6472 5.38083 36.2041C5.94321 36.761 6.2244 37.4653 6.2244 38.3171C6.2244 39.1689 5.94321 39.8732 5.38083 40.4301C4.81845 40.987 4.11684 41.2655 3.276 41.2655C2.43516 41.2655 1.73355 40.987 1.17117 40.4301ZM9.1696 41.1836L11.7249 38.5382C11.9924 38.2434 12.1808 38.0113 12.29 37.8421C12.4047 37.6619 12.462 37.4653 12.462 37.2524C12.462 37.0558 12.3965 36.8866 12.2654 36.7446C12.1344 36.6027 11.9487 36.5317 11.7085 36.5317C11.43 36.5317 11.2116 36.6272 11.0533 36.8183C10.8895 37.0149 10.8076 37.266 10.8076 37.5718H9.44806C9.44806 36.9275 9.65008 36.3952 10.0541 35.9748C10.4636 35.5489 11.026 35.3359 11.7413 35.3359C12.4128 35.3359 12.9425 35.5216 13.3301 35.8929C13.7123 36.2587 13.9034 36.69 13.9034 37.1869C13.9034 37.7329 13.625 38.2461 13.068 38.7266L11.7413 39.9141H14.0345V41.1836H9.1696ZM16.3297 37.0231C16.1386 37.3561 16.0431 37.7875 16.0431 38.3171C16.0431 38.8467 16.1386 39.2781 16.3297 39.6111C16.5153 39.9387 16.7692 40.1025 17.0914 40.1025C17.4081 40.1025 17.6647 39.9387 17.8612 39.6111C18.0523 39.2944 18.1479 38.8631 18.1479 38.3171C18.1479 37.7711 18.0523 37.3398 17.8612 37.0231C17.6647 36.6955 17.4081 36.5317 17.0914 36.5317C16.7692 36.5317 16.5153 36.6955 16.3297 37.0231ZM15.3633 40.4956C14.9265 39.9606 14.7081 39.2344 14.7081 38.3171C14.7081 37.3998 14.9265 36.6736 15.3633 36.1386C15.7946 35.6089 16.3707 35.3441 17.0914 35.3441C17.823 35.3441 18.4045 35.6089 18.8358 36.1386C19.2617 36.6627 19.4747 37.3889 19.4747 38.3171C19.4747 39.2508 19.2617 39.9797 18.8358 40.5038C18.41 41.028 17.8285 41.2901 17.0914 41.2901C16.3707 41.2901 15.7946 41.0253 15.3633 40.4956ZM19.967 41.1836L22.5222 38.5382C22.7898 38.2434 22.9782 38.0113 23.0874 37.8421C23.202 37.6619 23.2593 37.4653 23.2593 37.2524C23.2593 37.0558 23.1938 36.8866 23.0628 36.7446C22.9317 36.6027 22.7461 36.5317 22.5059 36.5317C22.2274 36.5317 22.009 36.6272 21.8507 36.8183C21.6869 37.0149 21.605 37.266 21.605 37.5718H20.2454C20.2454 36.9275 20.4474 36.3952 20.8515 35.9748C21.261 35.5489 21.8234 35.3359 22.5386 35.3359C23.2102 35.3359 23.7398 35.5216 24.1275 35.8929C24.5097 36.2587 24.7008 36.69 24.7008 37.1869C24.7008 37.7329 24.4223 38.2461 23.8654 38.7266L22.5386 39.9141H24.8318V41.1836H19.967ZM25.7348 37.105V35.901L28.4866 35.3441V41.1836H27.1598V36.761L25.7348 37.105ZM35.24 39.1115V38.0468H38.1475C38.1966 38.9859 37.9591 39.7749 37.435 40.4137C36.9163 41.0471 36.1764 41.3638 35.2155 41.3638C34.2982 41.3638 33.5474 41.0826 32.9632 40.5202C32.3735 39.9578 32.0787 39.2235 32.0787 38.3171C32.0787 37.4217 32.379 36.6982 32.9796 36.1467C33.5802 35.5953 34.3419 35.3196 35.2646 35.3196C36.3784 35.3196 37.2411 35.7727 37.8526 36.6791L36.616 37.3179C36.3102 36.7938 35.8597 36.5317 35.2646 36.5317C34.7732 36.5317 34.361 36.6927 34.0279 37.0149C33.6949 37.337 33.5283 37.7711 33.5283 38.3171C33.5283 38.874 33.6894 39.3217 34.0115 39.6603C34.3282 39.9933 34.7459 40.1598 35.2646 40.1598C36.0235 40.1598 36.5231 39.8104 36.7634 39.1115H35.24ZM42.9313 37.4162L40.4743 42.9854H39.2294L40.1467 40.8806L38.5087 37.4162H39.8846L40.7773 39.6357L41.6618 37.4162H42.9313ZM44.303 40.0534C44.303 40.3209 44.4832 40.4547 44.8435 40.4547C45.3786 40.4547 45.6598 40.209 45.6871 39.7176C45.4905 39.6193 45.253 39.5702 44.9746 39.5702C44.7562 39.5702 44.5924 39.6138 44.4832 39.7012C44.363 39.794 44.303 39.9114 44.303 40.0534ZM43.828 38.5792L43.4021 37.7438C44.0245 37.4544 44.5978 37.3097 45.122 37.3097C45.6461 37.3097 46.0693 37.4162 46.3914 37.6291C46.7136 37.8421 46.8746 38.1424 46.8746 38.53V41.1836H45.6871V40.6512C45.5833 40.8423 45.4195 40.9925 45.1957 41.1017C44.9664 41.2109 44.7097 41.2655 44.4258 41.2655C44.0109 41.2655 43.6778 41.1645 43.4266 40.9625C43.1809 40.7659 43.0581 40.4902 43.0581 40.1353C43.0581 39.7585 43.2082 39.4582 43.5085 39.2344C43.8088 39.0105 44.202 38.8986 44.6879 38.8986C45.0537 38.8986 45.3868 38.9723 45.6871 39.1197V38.7757C45.6871 38.6229 45.627 38.4973 45.5069 38.399C45.3868 38.3007 45.2257 38.2516 45.0237 38.2516C44.5924 38.2516 44.1938 38.3608 43.828 38.5792ZM50.2485 38.8904C50.2485 38.6665 50.2048 38.4945 50.1174 38.3744C50.0355 38.2598 49.8963 38.2024 49.6997 38.2024C49.4977 38.2024 49.3394 38.2625 49.2247 38.3826C49.1101 38.5027 49.0527 38.672 49.0527 38.8904V41.1836H47.8078V37.4162H49.0527V37.9813C49.2875 37.55 49.6697 37.3343 50.1993 37.3343C51.0948 37.3343 51.5425 37.8093 51.5425 38.7594V41.1836H50.2485V38.8904ZM54.5236 39.7749V38.702H56.2681V39.7749H54.5236ZM58.7864 36.6955V35.4506H63.3237V36.6955H61.7512V41.1836H60.3589V36.6955H58.7864ZM63.3969 40.725C62.9928 40.3701 62.7908 39.895 62.7908 39.2999C62.7908 38.7048 62.9928 38.2297 63.3969 37.8748C63.8064 37.5145 64.3223 37.3343 64.9448 37.3343C65.5672 37.3343 66.0832 37.5145 66.4927 37.8748C66.8967 38.2297 67.0987 38.7048 67.0987 39.2999C67.0987 39.895 66.8967 40.3701 66.4927 40.725C66.0832 41.0853 65.5672 41.2655 64.9448 41.2655C64.3223 41.2655 63.8064 41.0853 63.3969 40.725ZM64.0684 39.2999C64.0684 39.5838 64.1503 39.8131 64.3141 39.9879C64.4779 40.1571 64.6882 40.2417 64.9448 40.2417C65.2014 40.2417 65.4116 40.1571 65.5754 39.9879C65.7392 39.8131 65.8211 39.5838 65.8211 39.2999C65.8211 39.0105 65.7365 38.7812 65.5672 38.6119C65.3925 38.4372 65.185 38.3499 64.9448 38.3499C64.7045 38.3499 64.4971 38.4372 64.3223 38.6119C64.1531 38.7812 64.0684 39.0105 64.0684 39.2999ZM68.1378 40.7413C67.7883 40.3919 67.6136 39.9114 67.6136 39.2999C67.6136 38.6884 67.7883 38.2079 68.1378 37.8585C68.4872 37.509 68.9076 37.3343 69.399 37.3343C69.956 37.3343 70.3873 37.5636 70.6931 38.0223V34.7954H71.9379V41.1836H70.6931V40.5775C70.3873 41.0362 69.956 41.2655 69.399 41.2655C68.9076 41.2655 68.4872 41.0908 68.1378 40.7413ZM68.9158 39.2999C68.9158 39.5838 69.0032 39.8186 69.1779 40.0042C69.3472 40.179 69.5601 40.2663 69.8167 40.2663C70.0461 40.2663 70.2481 40.179 70.4228 40.0042C70.603 39.8241 70.6931 39.5893 70.6931 39.2999C70.6931 39.016 70.603 38.7839 70.4228 38.6037C70.2426 38.4236 70.0406 38.3335 69.8167 38.3335C69.5601 38.3335 69.3472 38.4236 69.1779 38.6037C69.0032 38.7894 68.9158 39.0214 68.9158 39.2999ZM73.2665 40.725C72.8624 40.3701 72.6604 39.895 72.6604 39.2999C72.6604 38.7048 72.8624 38.2297 73.2665 37.8748C73.676 37.5145 74.1919 37.3343 74.8144 37.3343C75.4368 37.3343 75.9528 37.5145 76.3623 37.8748C76.7663 38.2297 76.9683 38.7048 76.9683 39.2999C76.9683 39.895 76.7663 40.3701 76.3623 40.725C75.9528 41.0853 75.4368 41.2655 74.8144 41.2655C74.1919 41.2655 73.676 41.0853 73.2665 40.725ZM73.938 39.2999C73.938 39.5838 74.0199 39.8131 74.1837 39.9879C74.3475 40.1571 74.5577 40.2417 74.8144 40.2417C75.071 40.2417 75.2812 40.1571 75.445 39.9879C75.6088 39.8131 75.6907 39.5838 75.6907 39.2999C75.6907 39.0105 75.6061 38.7812 75.4368 38.6119C75.2621 38.4372 75.0546 38.3499 74.8144 38.3499C74.5741 38.3499 74.3666 38.4372 74.1919 38.6119C74.0227 38.7812 73.938 39.0105 73.938 39.2999ZM78.1876 39.7585C78.3404 39.9551 78.5042 40.1107 78.679 40.2254C78.8537 40.34 79.0093 40.3974 79.1458 40.3974C79.3915 40.3974 79.5143 40.31 79.5143 40.1353C79.5143 40.0534 79.4707 39.9851 79.3833 39.9305C79.285 39.865 79.1376 39.7995 78.941 39.734C78.7663 39.6739 78.6244 39.6193 78.5152 39.5702C78.2094 39.4227 77.991 39.2753 77.86 39.1279C77.7125 38.9641 77.6388 38.7321 77.6388 38.4318C77.6388 38.0823 77.7726 37.812 78.0401 37.6209C78.3077 37.4298 78.6489 37.3343 79.0639 37.3343C79.7737 37.3343 80.3306 37.6346 80.7346 38.2352L80.0303 38.7757C79.8993 38.601 79.7437 38.4618 79.5635 38.358C79.3778 38.2488 79.2113 38.1942 79.0639 38.1942C78.8564 38.1942 78.7527 38.2761 78.7527 38.4399C78.7527 38.4945 78.7718 38.5464 78.81 38.5956C78.8482 38.6447 78.9001 38.6829 78.9656 38.7102C78.9874 38.7211 79.0584 38.7484 79.1785 38.7921C79.2113 38.803 79.3014 38.8303 79.4488 38.874C79.4925 38.8849 79.5471 38.904 79.6126 38.9313C79.6781 38.9532 79.7164 38.9668 79.7273 38.9723C80.0494 39.0979 80.3006 39.2453 80.4808 39.4146C80.6664 39.5893 80.7592 39.8241 80.7592 40.1189C80.7592 40.5284 80.6118 40.8369 80.317 41.0444C80.0276 41.2464 79.6372 41.3474 79.1458 41.3474C78.8018 41.3474 78.4933 41.271 78.2203 41.1181C77.9364 40.9597 77.6689 40.6949 77.4177 40.3236L78.1876 39.7585ZM84.2798 40.725C83.8757 40.3701 83.6737 39.895 83.6737 39.2999C83.6737 38.7048 83.8757 38.2297 84.2798 37.8748C84.6893 37.5145 85.2052 37.3343 85.8277 37.3343C86.4501 37.3343 86.9661 37.5145 87.3756 37.8748C87.7796 38.2297 87.9816 38.7048 87.9816 39.2999C87.9816 39.895 87.7796 40.3701 87.3756 40.725C86.9661 41.0853 86.4501 41.2655 85.8277 41.2655C85.2052 41.2655 84.6893 41.0853 84.2798 40.725ZM84.9513 39.2999C84.9513 39.5838 85.0332 39.8131 85.197 39.9879C85.3608 40.1571 85.5711 40.2417 85.8277 40.2417C86.0843 40.2417 86.2945 40.1571 86.4583 39.9879C86.6221 39.8131 86.704 39.5838 86.704 39.2999C86.704 39.0105 86.6194 38.7812 86.4501 38.6119C86.2754 38.4372 86.0679 38.3499 85.8277 38.3499C85.5874 38.3499 85.38 38.4372 85.2052 38.6119C85.036 38.7812 84.9513 39.0105 84.9513 39.2999ZM89.2009 39.7585C89.3538 39.9551 89.5176 40.1107 89.6923 40.2254C89.867 40.34 90.0226 40.3974 90.1591 40.3974C90.4048 40.3974 90.5277 40.31 90.5277 40.1353C90.5277 40.0534 90.484 39.9851 90.3966 39.9305C90.2983 39.865 90.1509 39.7995 89.9544 39.734C89.7796 39.6739 89.6377 39.6193 89.5285 39.5702C89.2227 39.4227 89.0043 39.2753 88.8733 39.1279C88.7259 38.9641 88.6521 38.7321 88.6521 38.4318C88.6521 38.0823 88.7859 37.812 89.0535 37.6209C89.321 37.4298 89.6622 37.3343 90.0772 37.3343C90.787 37.3343 91.3439 37.6346 91.748 38.2352L91.0436 38.7757C90.9126 38.601 90.757 38.4618 90.5768 38.358C90.3912 38.2488 90.2246 38.1942 90.0772 38.1942C89.8697 38.1942 89.766 38.2761 89.766 38.4399C89.766 38.4945 89.7851 38.5464 89.8233 38.5956C89.8615 38.6447 89.9134 38.6829 89.9789 38.7102C90.0008 38.7211 90.0717 38.7484 90.1919 38.7921C90.2246 38.803 90.3147 38.8303 90.4621 38.874C90.5058 38.8849 90.5604 38.904 90.6259 38.9313C90.6915 38.9532 90.7297 38.9668 90.7406 38.9723C91.0627 39.0979 91.3139 39.2453 91.4941 39.4146C91.6797 39.5893 91.7725 39.8241 91.7725 40.1189C91.7725 40.5284 91.6251 40.8369 91.3303 41.0444C91.0409 41.2464 90.6505 41.3474 90.1591 41.3474C89.8151 41.3474 89.5066 41.271 89.2336 41.1181C88.9497 40.9597 88.6822 40.6949 88.431 40.3236L89.2009 39.7585ZM95.2112 40.7413C94.8617 40.3919 94.687 39.9114 94.687 39.2999C94.687 38.6884 94.8617 38.2079 95.2112 37.8585C95.5606 37.509 95.981 37.3343 96.4724 37.3343C97.0294 37.3343 97.4607 37.5636 97.7665 38.0223V34.7954H99.0113V41.1836H97.7665V40.5775C97.4607 41.0362 97.0294 41.2655 96.4724 41.2655C95.981 41.2655 95.5606 41.0908 95.2112 40.7413ZM95.9892 39.2999C95.9892 39.5838 96.0766 39.8186 96.2513 40.0042C96.4206 40.179 96.6335 40.2663 96.8901 40.2663C97.1194 40.2663 97.3215 40.179 97.4962 40.0042C97.6764 39.8241 97.7665 39.5893 97.7665 39.2999C97.7665 39.016 97.6764 38.7839 97.4962 38.6037C97.316 38.4236 97.114 38.3335 96.8901 38.3335C96.6335 38.3335 96.4206 38.4236 96.2513 38.6037C96.0766 38.7894 95.9892 39.0214 95.9892 39.2999ZM100.094 36.4907C99.9522 36.3651 99.8812 36.2041 99.8812 36.0075C99.8812 35.811 99.9522 35.6499 100.094 35.5243C100.236 35.3987 100.405 35.3359 100.602 35.3359C100.798 35.3359 100.968 35.3987 101.11 35.5243C101.252 35.6499 101.323 35.811 101.323 36.0075C101.323 36.2041 101.252 36.3651 101.11 36.4907C100.968 36.6163 100.798 36.6791 100.602 36.6791C100.405 36.6791 100.236 36.6163 100.094 36.4907ZM99.9959 37.4162H101.2V41.1836H99.9959V37.4162ZM104.528 38.702C104.381 38.5546 104.219 38.4809 104.045 38.4809C103.859 38.4809 103.712 38.5546 103.602 38.702C103.493 38.8549 103.439 39.0624 103.439 39.3245V41.1836H102.227V37.4162H103.439V37.8912C103.69 37.5145 104.007 37.3261 104.389 37.3261C104.52 37.3261 104.651 37.3561 104.782 37.4162C104.907 37.4763 105.003 37.55 105.068 37.6373L104.528 38.702ZM108.144 38.8331C108.056 38.4399 107.789 38.2434 107.341 38.2434C107.123 38.2434 106.932 38.2953 106.768 38.399C106.615 38.4973 106.514 38.642 106.465 38.8331H108.144ZM105.285 39.2999C105.285 38.7102 105.479 38.2352 105.867 37.8748C106.249 37.5145 106.749 37.3343 107.366 37.3343C107.912 37.3343 108.368 37.509 108.733 37.8585C109.099 38.2079 109.282 38.6693 109.282 39.2426C109.282 39.3354 109.277 39.4419 109.266 39.562H106.44C106.533 40.0698 106.841 40.3236 107.366 40.3236C107.775 40.3236 108.045 40.179 108.176 39.8896L109.208 40.2336C108.864 40.9215 108.231 41.2655 107.308 41.2655C106.708 41.2655 106.222 41.0826 105.851 40.7168C105.474 40.3509 105.285 39.8787 105.285 39.2999ZM110.22 36.4907C110.078 36.3651 110.007 36.2041 110.007 36.0075C110.007 35.811 110.078 35.6499 110.22 35.5243C110.362 35.3987 110.531 35.3359 110.727 35.3359C110.924 35.3359 111.093 35.3987 111.235 35.5243C111.377 35.6499 111.448 35.811 111.448 36.0075C111.448 36.2041 111.377 36.3651 111.235 36.4907C111.093 36.6163 110.924 36.6791 110.727 36.6791C110.531 36.6791 110.362 36.6163 110.22 36.4907ZM110.121 37.4162H111.325V41.1836H110.121V37.4162ZM112.565 36.1058H113.761V37.4162H114.424V38.4399H113.761V41.1836H112.565V38.4399H111.902V37.4162H112.565V36.1058ZM115.336 40.725C114.932 40.3701 114.73 39.895 114.73 39.2999C114.73 38.7048 114.932 38.2297 115.336 37.8748C115.746 37.5145 116.262 37.3343 116.884 37.3343C117.507 37.3343 118.023 37.5145 118.432 37.8748C118.836 38.2297 119.038 38.7048 119.038 39.2999C119.038 39.895 118.836 40.3701 118.432 40.725C118.023 41.0853 117.507 41.2655 116.884 41.2655C116.262 41.2655 115.746 41.0853 115.336 40.725ZM116.008 39.2999C116.008 39.5838 116.09 39.8131 116.253 39.9879C116.417 40.1571 116.627 40.2417 116.884 40.2417C117.141 40.2417 117.351 40.1571 117.515 39.9879C117.679 39.8131 117.76 39.5838 117.76 39.2999C117.76 39.0105 117.676 38.7812 117.507 38.6119C117.332 38.4372 117.124 38.3499 116.884 38.3499C116.644 38.3499 116.436 38.4372 116.262 38.6119C116.092 38.7812 116.008 39.0105 116.008 39.2999ZM120.257 39.7585C120.41 39.9551 120.574 40.1107 120.749 40.2254C120.923 40.34 121.079 40.3974 121.216 40.3974C121.461 40.3974 121.584 40.31 121.584 40.1353C121.584 40.0534 121.54 39.9851 121.453 39.9305C121.355 39.865 121.207 39.7995 121.011 39.734C120.836 39.6739 120.694 39.6193 120.585 39.5702C120.279 39.4227 120.061 39.2753 119.93 39.1279C119.782 38.9641 119.709 38.7321 119.709 38.4318C119.709 38.0823 119.842 37.812 120.11 37.6209C120.377 37.4298 120.719 37.3343 121.134 37.3343C121.843 37.3343 122.4 37.6346 122.804 38.2352L122.1 38.7757C121.969 38.601 121.813 38.4618 121.633 38.358C121.448 38.2488 121.281 38.1942 121.134 38.1942C120.926 38.1942 120.822 38.2761 120.822 38.4399C120.822 38.4945 120.842 38.5464 120.88 38.5956C120.918 38.6447 120.97 38.6829 121.035 38.7102C121.057 38.7211 121.128 38.7484 121.248 38.7921C121.281 38.803 121.371 38.8303 121.519 38.874C121.562 38.8849 121.617 38.904 121.682 38.9313C121.748 38.9532 121.786 38.9668 121.797 38.9723C122.119 39.0979 122.37 39.2453 122.55 39.4146C122.736 39.5893 122.829 39.8241 122.829 40.1189C122.829 40.5284 122.682 40.8369 122.387 41.0444C122.097 41.2464 121.707 41.3474 121.216 41.3474C120.872 41.3474 120.563 41.271 120.29 41.1181C120.006 40.9597 119.739 40.6949 119.487 40.3236L120.257 39.7585ZM128.274 38.702C128.127 38.5546 127.966 38.4809 127.791 38.4809C127.605 38.4809 127.458 38.5546 127.349 38.702C127.239 38.8549 127.185 39.0624 127.185 39.3245V41.1836H125.973V37.4162H127.185V37.8912C127.436 37.5145 127.753 37.3261 128.135 37.3261C128.266 37.3261 128.397 37.3561 128.528 37.4162C128.654 37.4763 128.749 37.55 128.815 37.6373L128.274 38.702ZM131.89 38.8331C131.803 38.4399 131.535 38.2434 131.087 38.2434C130.869 38.2434 130.678 38.2953 130.514 38.399C130.361 38.4973 130.26 38.642 130.211 38.8331H131.89ZM129.032 39.2999C129.032 38.7102 129.225 38.2352 129.613 37.8748C129.995 37.5145 130.495 37.3343 131.112 37.3343C131.658 37.3343 132.114 37.509 132.48 37.8585C132.845 38.2079 133.028 38.6693 133.028 39.2426C133.028 39.3354 133.023 39.4419 133.012 39.562H130.186C130.279 40.0698 130.588 40.3236 131.112 40.3236C131.521 40.3236 131.792 40.179 131.923 39.8896L132.955 40.2336C132.611 40.9215 131.977 41.2655 131.055 41.2655C130.454 41.2655 129.968 41.0826 129.597 40.7168C129.22 40.3509 129.032 39.8787 129.032 39.2999ZM134.31 39.7585C134.463 39.9551 134.627 40.1107 134.801 40.2254C134.976 40.34 135.132 40.3974 135.268 40.3974C135.514 40.3974 135.637 40.31 135.637 40.1353C135.637 40.0534 135.593 39.9851 135.506 39.9305C135.407 39.865 135.26 39.7995 135.063 39.734C134.889 39.6739 134.747 39.6193 134.637 39.5702C134.332 39.4227 134.113 39.2753 133.982 39.1279C133.835 38.9641 133.761 38.7321 133.761 38.4318C133.761 38.0823 133.895 37.812 134.162 37.6209C134.43 37.4298 134.771 37.3343 135.186 37.3343C135.896 37.3343 136.453 37.6346 136.857 38.2352L136.153 38.7757C136.022 38.601 135.866 38.4618 135.686 38.358C135.5 38.2488 135.334 38.1942 135.186 38.1942C134.979 38.1942 134.875 38.2761 134.875 38.4399C134.875 38.4945 134.894 38.5464 134.932 38.5956C134.971 38.6447 135.022 38.6829 135.088 38.7102C135.11 38.7211 135.181 38.7484 135.301 38.7921C135.334 38.803 135.424 38.8303 135.571 38.874C135.615 38.8849 135.669 38.904 135.735 38.9313C135.8 38.9532 135.839 38.9668 135.85 38.9723C136.172 39.0979 136.423 39.2453 136.603 39.4146C136.789 39.5893 136.882 39.8241 136.882 40.1189C136.882 40.5284 136.734 40.8369 136.439 41.0444C136.15 41.2464 135.759 41.3474 135.268 41.3474C134.924 41.3474 134.616 41.271 134.343 41.1181C134.059 40.9597 133.791 40.6949 133.54 40.3236L134.31 39.7585ZM140.24 38.8331C140.153 38.4399 139.885 38.2434 139.437 38.2434C139.219 38.2434 139.028 38.2953 138.864 38.399C138.711 38.4973 138.61 38.642 138.561 38.8331H140.24ZM137.382 39.2999C137.382 38.7102 137.575 38.2352 137.963 37.8748C138.345 37.5145 138.845 37.3343 139.462 37.3343C140.008 37.3343 140.464 37.509 140.83 37.8585C141.195 38.2079 141.378 38.6693 141.378 39.2426C141.378 39.3354 141.373 39.4419 141.362 39.562H138.536C138.629 40.0698 138.938 40.3236 139.462 40.3236C139.871 40.3236 140.142 40.179 140.273 39.8896L141.305 40.2336C140.961 40.9215 140.327 41.2655 139.404 41.2655C138.804 41.2655 138.318 41.0826 137.947 40.7168C137.57 40.3509 137.382 39.8787 137.382 39.2999ZM144.486 38.702C144.339 38.5546 144.178 38.4809 144.003 38.4809C143.817 38.4809 143.67 38.5546 143.561 38.702C143.452 38.8549 143.397 39.0624 143.397 39.3245V41.1836H142.185V37.4162H143.397V37.8912C143.648 37.5145 143.965 37.3261 144.347 37.3261C144.478 37.3261 144.609 37.3561 144.74 37.4162C144.866 37.4763 144.961 37.55 145.027 37.6373L144.486 38.702ZM145.284 37.4162H146.611L147.471 39.5046L148.331 37.4162H149.649L147.471 41.6259L145.284 37.4162ZM151.069 40.0534C151.069 40.3209 151.249 40.4547 151.609 40.4547C152.145 40.4547 152.426 40.209 152.453 39.7176C152.256 39.6193 152.019 39.5702 151.74 39.5702C151.522 39.5702 151.358 39.6138 151.249 39.7012C151.129 39.794 151.069 39.9114 151.069 40.0534ZM150.594 38.5792L150.168 37.7438C150.79 37.4544 151.364 37.3097 151.888 37.3097C152.412 37.3097 152.835 37.4162 153.157 37.6291C153.479 37.8421 153.641 38.1424 153.641 38.53V41.1836H152.453V40.6512C152.349 40.8423 152.185 40.9925 151.962 41.1017C151.732 41.2109 151.476 41.2655 151.192 41.2655C150.777 41.2655 150.444 41.1645 150.193 40.9625C149.947 40.7659 149.824 40.4902 149.824 40.1353C149.824 39.7585 149.974 39.4582 150.274 39.2344C150.575 39.0105 150.968 38.8986 151.454 38.8986C151.82 38.8986 152.153 38.9723 152.453 39.1197V38.7757C152.453 38.6229 152.393 38.4973 152.273 38.399C152.153 38.3007 151.992 38.2516 151.79 38.2516C151.358 38.2516 150.96 38.3608 150.594 38.5792ZM154.869 40.7413C154.519 40.3919 154.344 39.9114 154.344 39.2999C154.344 38.6884 154.519 38.2079 154.869 37.8585C155.218 37.509 155.638 37.3343 156.13 37.3343C156.687 37.3343 157.118 37.5636 157.424 38.0223V34.7954H158.669V41.1836H157.424V40.5775C157.118 41.0362 156.687 41.2655 156.13 41.2655C155.638 41.2655 155.218 41.0908 154.869 40.7413ZM155.647 39.2999C155.647 39.5838 155.734 39.8186 155.909 40.0042C156.078 40.179 156.291 40.2663 156.548 40.2663C156.777 40.2663 156.979 40.179 157.154 40.0042C157.334 39.8241 157.424 39.5893 157.424 39.2999C157.424 39.016 157.334 38.7839 157.154 38.6037C156.973 38.4236 156.771 38.3335 156.548 38.3335C156.291 38.3335 156.078 38.4236 155.909 38.6037C155.734 38.7894 155.647 39.0214 155.647 39.2999ZM159.997 40.725C159.593 40.3701 159.391 39.895 159.391 39.2999C159.391 38.7048 159.593 38.2297 159.997 37.8748C160.407 37.5145 160.923 37.3343 161.545 37.3343C162.168 37.3343 162.684 37.5145 163.093 37.8748C163.497 38.2297 163.699 38.7048 163.699 39.2999C163.699 39.895 163.497 40.3701 163.093 40.725C162.684 41.0853 162.168 41.2655 161.545 41.2655C160.923 41.2655 160.407 41.0853 159.997 40.725ZM160.669 39.2999C160.669 39.5838 160.751 39.8131 160.915 39.9879C161.078 40.1571 161.289 40.2417 161.545 40.2417C161.802 40.2417 162.012 40.1571 162.176 39.9879C162.34 39.8131 162.422 39.5838 162.422 39.2999C162.422 39.0105 162.337 38.7812 162.168 38.6119C161.993 38.4372 161.785 38.3499 161.545 38.3499C161.305 38.3499 161.097 38.4372 160.923 38.6119C160.753 38.7812 160.669 39.0105 160.669 39.2999ZM164.918 39.7585C165.071 39.9551 165.235 40.1107 165.41 40.2254C165.584 40.34 165.74 40.3974 165.877 40.3974C166.122 40.3974 166.245 40.31 166.245 40.1353C166.245 40.0534 166.201 39.9851 166.114 39.9305C166.016 39.865 165.868 39.7995 165.672 39.734C165.497 39.6739 165.355 39.6193 165.246 39.5702C164.94 39.4227 164.722 39.2753 164.591 39.1279C164.443 38.9641 164.37 38.7321 164.37 38.4318C164.37 38.0823 164.503 37.812 164.771 37.6209C165.038 37.4298 165.38 37.3343 165.795 37.3343C166.505 37.3343 167.061 37.6346 167.465 38.2352L166.761 38.7757C166.63 38.601 166.474 38.4618 166.294 38.358C166.109 38.2488 165.942 38.1942 165.795 38.1942C165.587 38.1942 165.483 38.2761 165.483 38.4399C165.483 38.4945 165.503 38.5464 165.541 38.5956C165.579 38.6447 165.631 38.6829 165.696 38.7102C165.718 38.7211 165.789 38.7484 165.909 38.7921C165.942 38.803 166.032 38.8303 166.18 38.874C166.223 38.8849 166.278 38.904 166.343 38.9313C166.409 38.9532 166.447 38.9668 166.458 38.9723C166.78 39.0979 167.031 39.2453 167.212 39.4146C167.397 39.5893 167.49 39.8241 167.49 40.1189C167.49 40.5284 167.343 40.8369 167.048 41.0444C166.758 41.2464 166.368 41.3474 165.877 41.3474C165.533 41.3474 165.224 41.271 164.951 41.1181C164.667 40.9597 164.4 40.6949 164.149 40.3236L164.918 39.7585Z" fill="white"/>
<path d="M2.66175 37.58C2.46519 37.7602 2.36691 38.0059 2.36691 38.3171C2.36691 38.6283 2.46519 38.874 2.66175 39.0542C2.85831 39.2344 3.10401 39.3245 3.39885 39.3245C3.81381 39.3245 4.15506 39.1743 4.4226 38.874V39.7749C4.11684 40.0042 3.75648 40.1189 3.34152 40.1189C2.79006 40.1189 2.33688 39.9496 1.98198 39.6111C1.63254 39.2781 1.45782 38.8467 1.45782 38.3171C1.45782 37.7875 1.63254 37.3561 1.98198 37.0231C2.33688 36.6846 2.79006 36.5153 3.34152 36.5153C3.75648 36.5153 4.11684 36.63 4.4226 36.8593V37.7602C4.15506 37.4599 3.81381 37.3097 3.39885 37.3097C3.10401 37.3097 2.85831 37.3998 2.66175 37.58ZM1.49058 36.4989C1.01556 36.9794 0.77805 37.5855 0.77805 38.3171C0.77805 39.0487 1.01556 39.6548 1.49058 40.1353C1.9656 40.6158 2.56074 40.856 3.276 40.856C3.99126 40.856 4.5864 40.6158 5.06142 40.1353C5.53644 39.6548 5.77395 39.0487 5.77395 38.3171C5.77395 37.5855 5.53644 36.9794 5.06142 36.4989C4.5864 36.0184 3.99126 35.7782 3.276 35.7782C2.56074 35.7782 1.9656 36.0184 1.49058 36.4989ZM1.17117 40.4301C0.60879 39.8732 0.3276 39.1689 0.3276 38.3171C0.3276 37.4653 0.60879 36.761 1.17117 36.2041C1.73355 35.6472 2.43516 35.3687 3.276 35.3687C4.11684 35.3687 4.81845 35.6472 5.38083 36.2041C5.94321 36.761 6.2244 37.4653 6.2244 38.3171C6.2244 39.1689 5.94321 39.8732 5.38083 40.4301C4.81845 40.987 4.11684 41.2655 3.276 41.2655C2.43516 41.2655 1.73355 40.987 1.17117 40.4301ZM9.1696 41.1836L11.7249 38.5382C11.9924 38.2434 12.1808 38.0113 12.29 37.8421C12.4047 37.6619 12.462 37.4653 12.462 37.2524C12.462 37.0558 12.3965 36.8866 12.2654 36.7446C12.1344 36.6027 11.9487 36.5317 11.7085 36.5317C11.43 36.5317 11.2116 36.6272 11.0533 36.8183C10.8895 37.0149 10.8076 37.266 10.8076 37.5718H9.44806C9.44806 36.9275 9.65008 36.3952 10.0541 35.9748C10.4636 35.5489 11.026 35.3359 11.7413 35.3359C12.4128 35.3359 12.9425 35.5216 13.3301 35.8929C13.7123 36.2587 13.9034 36.69 13.9034 37.1869C13.9034 37.7329 13.625 38.2461 13.068 38.7266L11.7413 39.9141H14.0345V41.1836H9.1696ZM16.3297 37.0231C16.1386 37.3561 16.0431 37.7875 16.0431 38.3171C16.0431 38.8467 16.1386 39.2781 16.3297 39.6111C16.5153 39.9387 16.7692 40.1025 17.0914 40.1025C17.4081 40.1025 17.6647 39.9387 17.8612 39.6111C18.0523 39.2944 18.1479 38.8631 18.1479 38.3171C18.1479 37.7711 18.0523 37.3398 17.8612 37.0231C17.6647 36.6955 17.4081 36.5317 17.0914 36.5317C16.7692 36.5317 16.5153 36.6955 16.3297 37.0231ZM15.3633 40.4956C14.9265 39.9606 14.7081 39.2344 14.7081 38.3171C14.7081 37.3998 14.9265 36.6736 15.3633 36.1386C15.7946 35.6089 16.3707 35.3441 17.0914 35.3441C17.823 35.3441 18.4045 35.6089 18.8358 36.1386C19.2617 36.6627 19.4747 37.3889 19.4747 38.3171C19.4747 39.2508 19.2617 39.9797 18.8358 40.5038C18.41 41.028 17.8285 41.2901 17.0914 41.2901C16.3707 41.2901 15.7946 41.0253 15.3633 40.4956ZM19.967 41.1836L22.5222 38.5382C22.7898 38.2434 22.9782 38.0113 23.0874 37.8421C23.202 37.6619 23.2593 37.4653 23.2593 37.2524C23.2593 37.0558 23.1938 36.8866 23.0628 36.7446C22.9317 36.6027 22.7461 36.5317 22.5059 36.5317C22.2274 36.5317 22.009 36.6272 21.8507 36.8183C21.6869 37.0149 21.605 37.266 21.605 37.5718H20.2454C20.2454 36.9275 20.4474 36.3952 20.8515 35.9748C21.261 35.5489 21.8234 35.3359 22.5386 35.3359C23.2102 35.3359 23.7398 35.5216 24.1275 35.8929C24.5097 36.2587 24.7008 36.69 24.7008 37.1869C24.7008 37.7329 24.4223 38.2461 23.8654 38.7266L22.5386 39.9141H24.8318V41.1836H19.967ZM25.7348 37.105V35.901L28.4866 35.3441V41.1836H27.1598V36.761L25.7348 37.105ZM35.24 39.1115V38.0468H38.1475C38.1966 38.9859 37.9591 39.7749 37.435 40.4137C36.9163 41.0471 36.1764 41.3638 35.2155 41.3638C34.2982 41.3638 33.5474 41.0826 32.9632 40.5202C32.3735 39.9578 32.0787 39.2235 32.0787 38.3171C32.0787 37.4217 32.379 36.6982 32.9796 36.1467C33.5802 35.5953 34.3419 35.3196 35.2646 35.3196C36.3784 35.3196 37.2411 35.7727 37.8526 36.6791L36.616 37.3179C36.3102 36.7938 35.8597 36.5317 35.2646 36.5317C34.7732 36.5317 34.361 36.6927 34.0279 37.0149C33.6949 37.337 33.5283 37.7711 33.5283 38.3171C33.5283 38.874 33.6894 39.3217 34.0115 39.6603C34.3282 39.9933 34.7459 40.1598 35.2646 40.1598C36.0235 40.1598 36.5231 39.8104 36.7634 39.1115H35.24ZM42.9313 37.4162L40.4743 42.9854H39.2294L40.1467 40.8806L38.5087 37.4162H39.8846L40.7773 39.6357L41.6618 37.4162H42.9313ZM44.303 40.0534C44.303 40.3209 44.4832 40.4547 44.8435 40.4547C45.3786 40.4547 45.6598 40.209 45.6871 39.7176C45.4905 39.6193 45.253 39.5702 44.9746 39.5702C44.7562 39.5702 44.5924 39.6138 44.4832 39.7012C44.363 39.794 44.303 39.9114 44.303 40.0534ZM43.828 38.5792L43.4021 37.7438C44.0245 37.4544 44.5978 37.3097 45.122 37.3097C45.6461 37.3097 46.0693 37.4162 46.3914 37.6291C46.7136 37.8421 46.8746 38.1424 46.8746 38.53V41.1836H45.6871V40.6512C45.5833 40.8423 45.4195 40.9925 45.1957 41.1017C44.9664 41.2109 44.7097 41.2655 44.4258 41.2655C44.0109 41.2655 43.6778 41.1645 43.4266 40.9625C43.1809 40.7659 43.0581 40.4902 43.0581 40.1353C43.0581 39.7585 43.2082 39.4582 43.5085 39.2344C43.8088 39.0105 44.202 38.8986 44.6879 38.8986C45.0537 38.8986 45.3868 38.9723 45.6871 39.1197V38.7757C45.6871 38.6229 45.627 38.4973 45.5069 38.399C45.3868 38.3007 45.2257 38.2516 45.0237 38.2516C44.5924 38.2516 44.1938 38.3608 43.828 38.5792ZM50.2485 38.8904C50.2485 38.6665 50.2048 38.4945 50.1174 38.3744C50.0355 38.2598 49.8963 38.2024 49.6997 38.2024C49.4977 38.2024 49.3394 38.2625 49.2247 38.3826C49.1101 38.5027 49.0527 38.672 49.0527 38.8904V41.1836H47.8078V37.4162H49.0527V37.9813C49.2875 37.55 49.6697 37.3343 50.1993 37.3343C51.0948 37.3343 51.5425 37.8093 51.5425 38.7594V41.1836H50.2485V38.8904ZM54.5236 39.7749V38.702H56.2681V39.7749H54.5236ZM58.7864 36.6955V35.4506H63.3237V36.6955H61.7512V41.1836H60.3589V36.6955H58.7864ZM63.3969 40.725C62.9928 40.3701 62.7908 39.895 62.7908 39.2999C62.7908 38.7048 62.9928 38.2297 63.3969 37.8748C63.8064 37.5145 64.3223 37.3343 64.9448 37.3343C65.5672 37.3343 66.0832 37.5145 66.4927 37.8748C66.8967 38.2297 67.0987 38.7048 67.0987 39.2999C67.0987 39.895 66.8967 40.3701 66.4927 40.725C66.0832 41.0853 65.5672 41.2655 64.9448 41.2655C64.3223 41.2655 63.8064 41.0853 63.3969 40.725ZM64.0684 39.2999C64.0684 39.5838 64.1503 39.8131 64.3141 39.9879C64.4779 40.1571 64.6882 40.2417 64.9448 40.2417C65.2014 40.2417 65.4116 40.1571 65.5754 39.9879C65.7392 39.8131 65.8211 39.5838 65.8211 39.2999C65.8211 39.0105 65.7365 38.7812 65.5672 38.6119C65.3925 38.4372 65.185 38.3499 64.9448 38.3499C64.7045 38.3499 64.4971 38.4372 64.3223 38.6119C64.1531 38.7812 64.0684 39.0105 64.0684 39.2999ZM68.1378 40.7413C67.7883 40.3919 67.6136 39.9114 67.6136 39.2999C67.6136 38.6884 67.7883 38.2079 68.1378 37.8585C68.4872 37.509 68.9076 37.3343 69.399 37.3343C69.956 37.3343 70.3873 37.5636 70.6931 38.0223V34.7954H71.9379V41.1836H70.6931V40.5775C70.3873 41.0362 69.956 41.2655 69.399 41.2655C68.9076 41.2655 68.4872 41.0908 68.1378 40.7413ZM68.9158 39.2999C68.9158 39.5838 69.0032 39.8186 69.1779 40.0042C69.3472 40.179 69.5601 40.2663 69.8167 40.2663C70.0461 40.2663 70.2481 40.179 70.4228 40.0042C70.603 39.8241 70.6931 39.5893 70.6931 39.2999C70.6931 39.016 70.603 38.7839 70.4228 38.6037C70.2426 38.4236 70.0406 38.3335 69.8167 38.3335C69.5601 38.3335 69.3472 38.4236 69.1779 38.6037C69.0032 38.7894 68.9158 39.0214 68.9158 39.2999ZM73.2665 40.725C72.8624 40.3701 72.6604 39.895 72.6604 39.2999C72.6604 38.7048 72.8624 38.2297 73.2665 37.8748C73.676 37.5145 74.1919 37.3343 74.8144 37.3343C75.4368 37.3343 75.9528 37.5145 76.3623 37.8748C76.7663 38.2297 76.9683 38.7048 76.9683 39.2999C76.9683 39.895 76.7663 40.3701 76.3623 40.725C75.9528 41.0853 75.4368 41.2655 74.8144 41.2655C74.1919 41.2655 73.676 41.0853 73.2665 40.725ZM73.938 39.2999C73.938 39.5838 74.0199 39.8131 74.1837 39.9879C74.3475 40.1571 74.5577 40.2417 74.8144 40.2417C75.071 40.2417 75.2812 40.1571 75.445 39.9879C75.6088 39.8131 75.6907 39.5838 75.6907 39.2999C75.6907 39.0105 75.6061 38.7812 75.4368 38.6119C75.2621 38.4372 75.0546 38.3499 74.8144 38.3499C74.5741 38.3499 74.3666 38.4372 74.1919 38.6119C74.0227 38.7812 73.938 39.0105 73.938 39.2999ZM78.1876 39.7585C78.3404 39.9551 78.5042 40.1107 78.679 40.2254C78.8537 40.34 79.0093 40.3974 79.1458 40.3974C79.3915 40.3974 79.5143 40.31 79.5143 40.1353C79.5143 40.0534 79.4707 39.9851 79.3833 39.9305C79.285 39.865 79.1376 39.7995 78.941 39.734C78.7663 39.6739 78.6244 39.6193 78.5152 39.5702C78.2094 39.4227 77.991 39.2753 77.86 39.1279C77.7125 38.9641 77.6388 38.7321 77.6388 38.4318C77.6388 38.0823 77.7726 37.812 78.0401 37.6209C78.3077 37.4298 78.6489 37.3343 79.0639 37.3343C79.7737 37.3343 80.3306 37.6346 80.7346 38.2352L80.0303 38.7757C79.8993 38.601 79.7437 38.4618 79.5635 38.358C79.3778 38.2488 79.2113 38.1942 79.0639 38.1942C78.8564 38.1942 78.7527 38.2761 78.7527 38.4399C78.7527 38.4945 78.7718 38.5464 78.81 38.5956C78.8482 38.6447 78.9001 38.6829 78.9656 38.7102C78.9874 38.7211 79.0584 38.7484 79.1785 38.7921C79.2113 38.803 79.3014 38.8303 79.4488 38.874C79.4925 38.8849 79.5471 38.904 79.6126 38.9313C79.6781 38.9532 79.7164 38.9668 79.7273 38.9723C80.0494 39.0979 80.3006 39.2453 80.4808 39.4146C80.6664 39.5893 80.7592 39.8241 80.7592 40.1189C80.7592 40.5284 80.6118 40.8369 80.317 41.0444C80.0276 41.2464 79.6372 41.3474 79.1458 41.3474C78.8018 41.3474 78.4933 41.271 78.2203 41.1181C77.9364 40.9597 77.6689 40.6949 77.4177 40.3236L78.1876 39.7585ZM84.2798 40.725C83.8757 40.3701 83.6737 39.895 83.6737 39.2999C83.6737 38.7048 83.8757 38.2297 84.2798 37.8748C84.6893 37.5145 85.2052 37.3343 85.8277 37.3343C86.4501 37.3343 86.9661 37.5145 87.3756 37.8748C87.7796 38.2297 87.9816 38.7048 87.9816 39.2999C87.9816 39.895 87.7796 40.3701 87.3756 40.725C86.9661 41.0853 86.4501 41.2655 85.8277 41.2655C85.2052 41.2655 84.6893 41.0853 84.2798 40.725ZM84.9513 39.2999C84.9513 39.5838 85.0332 39.8131 85.197 39.9879C85.3608 40.1571 85.5711 40.2417 85.8277 40.2417C86.0843 40.2417 86.2945 40.1571 86.4583 39.9879C86.6221 39.8131 86.704 39.5838 86.704 39.2999C86.704 39.0105 86.6194 38.7812 86.4501 38.6119C86.2754 38.4372 86.0679 38.3499 85.8277 38.3499C85.5874 38.3499 85.38 38.4372 85.2052 38.6119C85.036 38.7812 84.9513 39.0105 84.9513 39.2999ZM89.2009 39.7585C89.3538 39.9551 89.5176 40.1107 89.6923 40.2254C89.867 40.34 90.0226 40.3974 90.1591 40.3974C90.4048 40.3974 90.5277 40.31 90.5277 40.1353C90.5277 40.0534 90.484 39.9851 90.3966 39.9305C90.2983 39.865 90.1509 39.7995 89.9544 39.734C89.7796 39.6739 89.6377 39.6193 89.5285 39.5702C89.2227 39.4227 89.0043 39.2753 88.8733 39.1279C88.7259 38.9641 88.6521 38.7321 88.6521 38.4318C88.6521 38.0823 88.7859 37.812 89.0535 37.6209C89.321 37.4298 89.6622 37.3343 90.0772 37.3343C90.787 37.3343 91.3439 37.6346 91.748 38.2352L91.0436 38.7757C90.9126 38.601 90.757 38.4618 90.5768 38.358C90.3912 38.2488 90.2246 38.1942 90.0772 38.1942C89.8697 38.1942 89.766 38.2761 89.766 38.4399C89.766 38.4945 89.7851 38.5464 89.8233 38.5956C89.8615 38.6447 89.9134 38.6829 89.9789 38.7102C90.0008 38.7211 90.0717 38.7484 90.1919 38.7921C90.2246 38.803 90.3147 38.8303 90.4621 38.874C90.5058 38.8849 90.5604 38.904 90.6259 38.9313C90.6915 38.9532 90.7297 38.9668 90.7406 38.9723C91.0627 39.0979 91.3139 39.2453 91.4941 39.4146C91.6797 39.5893 91.7725 39.8241 91.7725 40.1189C91.7725 40.5284 91.6251 40.8369 91.3303 41.0444C91.0409 41.2464 90.6505 41.3474 90.1591 41.3474C89.8151 41.3474 89.5066 41.271 89.2336 41.1181C88.9497 40.9597 88.6822 40.6949 88.431 40.3236L89.2009 39.7585ZM95.2112 40.7413C94.8617 40.3919 94.687 39.9114 94.687 39.2999C94.687 38.6884 94.8617 38.2079 95.2112 37.8585C95.5606 37.509 95.981 37.3343 96.4724 37.3343C97.0294 37.3343 97.4607 37.5636 97.7665 38.0223V34.7954H99.0113V41.1836H97.7665V40.5775C97.4607 41.0362 97.0294 41.2655 96.4724 41.2655C95.981 41.2655 95.5606 41.0908 95.2112 40.7413ZM95.9892 39.2999C95.9892 39.5838 96.0766 39.8186 96.2513 40.0042C96.4206 40.179 96.6335 40.2663 96.8901 40.2663C97.1194 40.2663 97.3215 40.179 97.4962 40.0042C97.6764 39.8241 97.7665 39.5893 97.7665 39.2999C97.7665 39.016 97.6764 38.7839 97.4962 38.6037C97.316 38.4236 97.114 38.3335 96.8901 38.3335C96.6335 38.3335 96.4206 38.4236 96.2513 38.6037C96.0766 38.7894 95.9892 39.0214 95.9892 39.2999ZM100.094 36.4907C99.9522 36.3651 99.8812 36.2041 99.8812 36.0075C99.8812 35.811 99.9522 35.6499 100.094 35.5243C100.236 35.3987 100.405 35.3359 100.602 35.3359C100.798 35.3359 100.968 35.3987 101.11 35.5243C101.252 35.6499 101.323 35.811 101.323 36.0075C101.323 36.2041 101.252 36.3651 101.11 36.4907C100.968 36.6163 100.798 36.6791 100.602 36.6791C100.405 36.6791 100.236 36.6163 100.094 36.4907ZM99.9959 37.4162H101.2V41.1836H99.9959V37.4162ZM104.528 38.702C104.381 38.5546 104.219 38.4809 104.045 38.4809C103.859 38.4809 103.712 38.5546 103.602 38.702C103.493 38.8549 103.439 39.0624 103.439 39.3245V41.1836H102.227V37.4162H103.439V37.8912C103.69 37.5145 104.007 37.3261 104.389 37.3261C104.52 37.3261 104.651 37.3561 104.782 37.4162C104.907 37.4763 105.003 37.55 105.068 37.6373L104.528 38.702ZM108.144 38.8331C108.056 38.4399 107.789 38.2434 107.341 38.2434C107.123 38.2434 106.932 38.2953 106.768 38.399C106.615 38.4973 106.514 38.642 106.465 38.8331H108.144ZM105.285 39.2999C105.285 38.7102 105.479 38.2352 105.867 37.8748C106.249 37.5145 106.749 37.3343 107.366 37.3343C107.912 37.3343 108.368 37.509 108.733 37.8585C109.099 38.2079 109.282 38.6693 109.282 39.2426C109.282 39.3354 109.277 39.4419 109.266 39.562H106.44C106.533 40.0698 106.841 40.3236 107.366 40.3236C107.775 40.3236 108.045 40.179 108.176 39.8896L109.208 40.2336C108.864 40.9215 108.231 41.2655 107.308 41.2655C106.708 41.2655 106.222 41.0826 105.851 40.7168C105.474 40.3509 105.285 39.8787 105.285 39.2999ZM110.22 36.4907C110.078 36.3651 110.007 36.2041 110.007 36.0075C110.007 35.811 110.078 35.6499 110.22 35.5243C110.362 35.3987 110.531 35.3359 110.727 35.3359C110.924 35.3359 111.093 35.3987 111.235 35.5243C111.377 35.6499 111.448 35.811 111.448 36.0075C111.448 36.2041 111.377 36.3651 111.235 36.4907C111.093 36.6163 110.924 36.6791 110.727 36.6791C110.531 36.6791 110.362 36.6163 110.22 36.4907ZM110.121 37.4162H111.325V41.1836H110.121V37.4162ZM112.565 36.1058H113.761V37.4162H114.424V38.4399H113.761V41.1836H112.565V38.4399H111.902V37.4162H112.565V36.1058ZM115.336 40.725C114.932 40.3701 114.73 39.895 114.73 39.2999C114.73 38.7048 114.932 38.2297 115.336 37.8748C115.746 37.5145 116.262 37.3343 116.884 37.3343C117.507 37.3343 118.023 37.5145 118.432 37.8748C118.836 38.2297 119.038 38.7048 119.038 39.2999C119.038 39.895 118.836 40.3701 118.432 40.725C118.023 41.0853 117.507 41.2655 116.884 41.2655C116.262 41.2655 115.746 41.0853 115.336 40.725ZM116.008 39.2999C116.008 39.5838 116.09 39.8131 116.253 39.9879C116.417 40.1571 116.627 40.2417 116.884 40.2417C117.141 40.2417 117.351 40.1571 117.515 39.9879C117.679 39.8131 117.76 39.5838 117.76 39.2999C117.76 39.0105 117.676 38.7812 117.507 38.6119C117.332 38.4372 117.124 38.3499 116.884 38.3499C116.644 38.3499 116.436 38.4372 116.262 38.6119C116.092 38.7812 116.008 39.0105 116.008 39.2999ZM120.257 39.7585C120.41 39.9551 120.574 40.1107 120.749 40.2254C120.923 40.34 121.079 40.3974 121.216 40.3974C121.461 40.3974 121.584 40.31 121.584 40.1353C121.584 40.0534 121.54 39.9851 121.453 39.9305C121.355 39.865 121.207 39.7995 121.011 39.734C120.836 39.6739 120.694 39.6193 120.585 39.5702C120.279 39.4227 120.061 39.2753 119.93 39.1279C119.782 38.9641 119.709 38.7321 119.709 38.4318C119.709 38.0823 119.842 37.812 120.11 37.6209C120.377 37.4298 120.719 37.3343 121.134 37.3343C121.843 37.3343 122.4 37.6346 122.804 38.2352L122.1 38.7757C121.969 38.601 121.813 38.4618 121.633 38.358C121.448 38.2488 121.281 38.1942 121.134 38.1942C120.926 38.1942 120.822 38.2761 120.822 38.4399C120.822 38.4945 120.842 38.5464 120.88 38.5956C120.918 38.6447 120.97 38.6829 121.035 38.7102C121.057 38.7211 121.128 38.7484 121.248 38.7921C121.281 38.803 121.371 38.8303 121.519 38.874C121.562 38.8849 121.617 38.904 121.682 38.9313C121.748 38.9532 121.786 38.9668 121.797 38.9723C122.119 39.0979 122.37 39.2453 122.55 39.4146C122.736 39.5893 122.829 39.8241 122.829 40.1189C122.829 40.5284 122.682 40.8369 122.387 41.0444C122.097 41.2464 121.707 41.3474 121.216 41.3474C120.872 41.3474 120.563 41.271 120.29 41.1181C120.006 40.9597 119.739 40.6949 119.487 40.3236L120.257 39.7585ZM128.274 38.702C128.127 38.5546 127.966 38.4809 127.791 38.4809C127.605 38.4809 127.458 38.5546 127.349 38.702C127.239 38.8549 127.185 39.0624 127.185 39.3245V41.1836H125.973V37.4162H127.185V37.8912C127.436 37.5145 127.753 37.3261 128.135 37.3261C128.266 37.3261 128.397 37.3561 128.528 37.4162C128.654 37.4763 128.749 37.55 128.815 37.6373L128.274 38.702ZM131.89 38.8331C131.803 38.4399 131.535 38.2434 131.087 38.2434C130.869 38.2434 130.678 38.2953 130.514 38.399C130.361 38.4973 130.26 38.642 130.211 38.8331H131.89ZM129.032 39.2999C129.032 38.7102 129.225 38.2352 129.613 37.8748C129.995 37.5145 130.495 37.3343 131.112 37.3343C131.658 37.3343 132.114 37.509 132.48 37.8585C132.845 38.2079 133.028 38.6693 133.028 39.2426C133.028 39.3354 133.023 39.4419 133.012 39.562H130.186C130.279 40.0698 130.588 40.3236 131.112 40.3236C131.521 40.3236 131.792 40.179 131.923 39.8896L132.955 40.2336C132.611 40.9215 131.977 41.2655 131.055 41.2655C130.454 41.2655 129.968 41.0826 129.597 40.7168C129.22 40.3509 129.032 39.8787 129.032 39.2999ZM134.31 39.7585C134.463 39.9551 134.627 40.1107 134.801 40.2254C134.976 40.34 135.132 40.3974 135.268 40.3974C135.514 40.3974 135.637 40.31 135.637 40.1353C135.637 40.0534 135.593 39.9851 135.506 39.9305C135.407 39.865 135.26 39.7995 135.063 39.734C134.889 39.6739 134.747 39.6193 134.637 39.5702C134.332 39.4227 134.113 39.2753 133.982 39.1279C133.835 38.9641 133.761 38.7321 133.761 38.4318C133.761 38.0823 133.895 37.812 134.162 37.6209C134.43 37.4298 134.771 37.3343 135.186 37.3343C135.896 37.3343 136.453 37.6346 136.857 38.2352L136.153 38.7757C136.022 38.601 135.866 38.4618 135.686 38.358C135.5 38.2488 135.334 38.1942 135.186 38.1942C134.979 38.1942 134.875 38.2761 134.875 38.4399C134.875 38.4945 134.894 38.5464 134.932 38.5956C134.971 38.6447 135.022 38.6829 135.088 38.7102C135.11 38.7211 135.181 38.7484 135.301 38.7921C135.334 38.803 135.424 38.8303 135.571 38.874C135.615 38.8849 135.669 38.904 135.735 38.9313C135.8 38.9532 135.839 38.9668 135.85 38.9723C136.172 39.0979 136.423 39.2453 136.603 39.4146C136.789 39.5893 136.882 39.8241 136.882 40.1189C136.882 40.5284 136.734 40.8369 136.439 41.0444C136.15 41.2464 135.759 41.3474 135.268 41.3474C134.924 41.3474 134.616 41.271 134.343 41.1181C134.059 40.9597 133.791 40.6949 133.54 40.3236L134.31 39.7585ZM140.24 38.8331C140.153 38.4399 139.885 38.2434 139.437 38.2434C139.219 38.2434 139.028 38.2953 138.864 38.399C138.711 38.4973 138.61 38.642 138.561 38.8331H140.24ZM137.382 39.2999C137.382 38.7102 137.575 38.2352 137.963 37.8748C138.345 37.5145 138.845 37.3343 139.462 37.3343C140.008 37.3343 140.464 37.509 140.83 37.8585C141.195 38.2079 141.378 38.6693 141.378 39.2426C141.378 39.3354 141.373 39.4419 141.362 39.562H138.536C138.629 40.0698 138.938 40.3236 139.462 40.3236C139.871 40.3236 140.142 40.179 140.273 39.8896L141.305 40.2336C140.961 40.9215 140.327 41.2655 139.404 41.2655C138.804 41.2655 138.318 41.0826 137.947 40.7168C137.57 40.3509 137.382 39.8787 137.382 39.2999ZM144.486 38.702C144.339 38.5546 144.178 38.4809 144.003 38.4809C143.817 38.4809 143.67 38.5546 143.561 38.702C143.452 38.8549 143.397 39.0624 143.397 39.3245V41.1836H142.185V37.4162H143.397V37.8912C143.648 37.5145 143.965 37.3261 144.347 37.3261C144.478 37.3261 144.609 37.3561 144.74 37.4162C144.866 37.4763 144.961 37.55 145.027 37.6373L144.486 38.702ZM145.284 37.4162H146.611L147.471 39.5046L148.331 37.4162H149.649L147.471 41.6259L145.284 37.4162ZM151.069 40.0534C151.069 40.3209 151.249 40.4547 151.609 40.4547C152.145 40.4547 152.426 40.209 152.453 39.7176C152.256 39.6193 152.019 39.5702 151.74 39.5702C151.522 39.5702 151.358 39.6138 151.249 39.7012C151.129 39.794 151.069 39.9114 151.069 40.0534ZM150.594 38.5792L150.168 37.7438C150.79 37.4544 151.364 37.3097 151.888 37.3097C152.412 37.3097 152.835 37.4162 153.157 37.6291C153.479 37.8421 153.641 38.1424 153.641 38.53V41.1836H152.453V40.6512C152.349 40.8423 152.185 40.9925 151.962 41.1017C151.732 41.2109 151.476 41.2655 151.192 41.2655C150.777 41.2655 150.444 41.1645 150.193 40.9625C149.947 40.7659 149.824 40.4902 149.824 40.1353C149.824 39.7585 149.974 39.4582 150.274 39.2344C150.575 39.0105 150.968 38.8986 151.454 38.8986C151.82 38.8986 152.153 38.9723 152.453 39.1197V38.7757C152.453 38.6229 152.393 38.4973 152.273 38.399C152.153 38.3007 151.992 38.2516 151.79 38.2516C151.358 38.2516 150.96 38.3608 150.594 38.5792ZM154.869 40.7413C154.519 40.3919 154.344 39.9114 154.344 39.2999C154.344 38.6884 154.519 38.2079 154.869 37.8585C155.218 37.509 155.638 37.3343 156.13 37.3343C156.687 37.3343 157.118 37.5636 157.424 38.0223V34.7954H158.669V41.1836H157.424V40.5775C157.118 41.0362 156.687 41.2655 156.13 41.2655C155.638 41.2655 155.218 41.0908 154.869 40.7413ZM155.647 39.2999C155.647 39.5838 155.734 39.8186 155.909 40.0042C156.078 40.179 156.291 40.2663 156.548 40.2663C156.777 40.2663 156.979 40.179 157.154 40.0042C157.334 39.8241 157.424 39.5893 157.424 39.2999C157.424 39.016 157.334 38.7839 157.154 38.6037C156.973 38.4236 156.771 38.3335 156.548 38.3335C156.291 38.3335 156.078 38.4236 155.909 38.6037C155.734 38.7894 155.647 39.0214 155.647 39.2999ZM159.997 40.725C159.593 40.3701 159.391 39.895 159.391 39.2999C159.391 38.7048 159.593 38.2297 159.997 37.8748C160.407 37.5145 160.923 37.3343 161.545 37.3343C162.168 37.3343 162.684 37.5145 163.093 37.8748C163.497 38.2297 163.699 38.7048 163.699 39.2999C163.699 39.895 163.497 40.3701 163.093 40.725C162.684 41.0853 162.168 41.2655 161.545 41.2655C160.923 41.2655 160.407 41.0853 159.997 40.725ZM160.669 39.2999C160.669 39.5838 160.751 39.8131 160.915 39.9879C161.078 40.1571 161.289 40.2417 161.545 40.2417C161.802 40.2417 162.012 40.1571 162.176 39.9879C162.34 39.8131 162.422 39.5838 162.422 39.2999C162.422 39.0105 162.337 38.7812 162.168 38.6119C161.993 38.4372 161.785 38.3499 161.545 38.3499C161.305 38.3499 161.097 38.4372 160.923 38.6119C160.753 38.7812 160.669 39.0105 160.669 39.2999ZM164.918 39.7585C165.071 39.9551 165.235 40.1107 165.41 40.2254C165.584 40.34 165.74 40.3974 165.877 40.3974C166.122 40.3974 166.245 40.31 166.245 40.1353C166.245 40.0534 166.201 39.9851 166.114 39.9305C166.016 39.865 165.868 39.7995 165.672 39.734C165.497 39.6739 165.355 39.6193 165.246 39.5702C164.94 39.4227 164.722 39.2753 164.591 39.1279C164.443 38.9641 164.37 38.7321 164.37 38.4318C164.37 38.0823 164.503 37.812 164.771 37.6209C165.038 37.4298 165.38 37.3343 165.795 37.3343C166.505 37.3343 167.061 37.6346 167.465 38.2352L166.761 38.7757C166.63 38.601 166.474 38.4618 166.294 38.358C166.109 38.2488 165.942 38.1942 165.795 38.1942C165.587 38.1942 165.483 38.2761 165.483 38.4399C165.483 38.4945 165.503 38.5464 165.541 38.5956C165.579 38.6447 165.631 38.6829 165.696 38.7102C165.718 38.7211 165.789 38.7484 165.909 38.7921C165.942 38.803 166.032 38.8303 166.18 38.874C166.223 38.8849 166.278 38.904 166.343 38.9313C166.409 38.9532 166.447 38.9668 166.458 38.9723C166.78 39.0979 167.031 39.2453 167.212 39.4146C167.397 39.5893 167.49 39.8241 167.49 40.1189C167.49 40.5284 167.343 40.8369 167.048 41.0444C166.758 41.2464 166.368 41.3474 165.877 41.3474C165.533 41.3474 165.224 41.271 164.951 41.1181C164.667 40.9597 164.4 40.6949 164.149 40.3236L164.918 39.7585Z" fill="black" fill-opacity="0.8"/>
<defs>
<clipPath id="clip0">
<rect width="96" height="24.18" fill="white" transform="translate(0 0.00341797)"/>
</clipPath>
</defs>
</svg>
