<svg width="140" height="140" viewBox="0 0 140 140" fill="none" xmlns="http://www.w3.org/2000/svg">
<path d="M0 70C0 31.3401 31.3401 0 70 0C108.66 0 140 31.3401 140 70C140 108.66 108.66 140 70 140C31.3401 140 0 108.66 0 70Z" fill="white"/>
<path d="M0 70C0 31.3401 31.3401 0 70 0C108.66 0 140 31.3401 140 70C140 108.66 108.66 140 70 140C31.3401 140 0 108.66 0 70Z" fill="#F6F8F7"/>
<g filter="url(#filter0_d)">
<path d="M60 68C60 63.5817 63.5817 60 68 60H72C76.4183 60 80 63.5817 80 68V80H68C63.5817 80 60 76.4183 60 72V68Z" fill="white"/>
</g>
<path d="M0 70C0 31.3401 31.3401 0 70 0C108.66 0 140 31.3401 140 70C140 108.66 108.66 140 70 140C31.3401 140 0 108.66 0 70Z" fill="white"/>
<path d="M0 70C0 31.3401 31.3401 0 70 0C108.66 0 140 31.3401 140 70C140 108.66 108.66 140 70 140C31.3401 140 0 108.66 0 70Z" fill="#F6F8F7"/>
<mask id="mask0" mask-type="alpha" maskUnits="userSpaceOnUse" x="0" y="0" width="140" height="140">
<circle cx="70" cy="70" r="70" fill="white"/>
</mask>
<g mask="url(#mask0)">
<g opacity="0.1">
<path d="M-24.6517 258.121C-19.652 331.691 73.4006 361.507 119.398 303.734C128.786 291.934 131.048 263.484 128.601 248.479C118.796 187.987 87.6909 181.811 110.913 143.545C134.135 105.279 136.3 35.8224 72.1773 36.3645C8.05505 36.9066 49.3923 139.102 5.19115 167.687C-14.9824 180.756 -27.2632 219.806 -24.6517 258.121Z" fill="white"/>
<path d="M-24.6517 258.121C-19.652 331.691 73.4006 361.507 119.398 303.734C128.786 291.934 131.048 263.484 128.601 248.479C118.796 187.987 87.6909 181.811 110.913 143.545C134.135 105.279 136.3 35.8224 72.1773 36.3645C8.05505 36.9066 49.3923 139.102 5.19115 167.687C-14.9824 180.756 -27.2632 219.806 -24.6517 258.121Z" fill="#F6F8F7"/>
</g>
<g opacity="0.1">
<path d="M-0.351514 151.144C1.54673 151.796 3.60024 151.849 5.52995 151.297C7.45966 150.744 9.17198 149.613 10.4342 148.056C14.6087 143.013 21.2685 132.829 19.2783 120.951C16.4533 104.059 -5.05025 117.611 -6.74918 136.595C-7.59379 146.11 -4.07944 149.818 -0.351514 151.144Z" fill="white"/>
<path d="M-0.351514 151.144C1.54673 151.796 3.60024 151.849 5.52995 151.297C7.45966 150.744 9.17198 149.613 10.4342 148.056C14.6087 143.013 21.2685 132.829 19.2783 120.951C16.4533 104.059 -5.05025 117.611 -6.74918 136.595C-7.59379 146.11 -4.07944 149.818 -0.351514 151.144Z" fill="#F6F8F7"/>
</g>
<g opacity="0.1">
<path d="M22.5688 106.643C23.5618 106.308 24.4268 105.676 25.0454 104.832C25.664 103.988 26.0061 102.974 26.0249 101.929C26.1317 98.5217 25.6171 92.2488 21.0058 87.9508C14.4236 81.8715 9.88023 94.2914 15.278 102.675C17.9477 106.866 20.6271 107.282 22.5688 106.643Z" fill="white"/>
<path d="M22.5688 106.643C23.5618 106.308 24.4268 105.676 25.0454 104.832C25.664 103.988 26.0061 102.974 26.0249 101.929C26.1317 98.5217 25.6171 92.2488 21.0058 87.9508C14.4236 81.8715 9.88023 94.2914 15.278 102.675C17.9477 106.866 20.6271 107.282 22.5688 106.643Z" fill="#F6F8F7"/>
</g>
<path d="M37.0437 132.2C38.267 99.3639 49.907 80.1873 49.907 80.1873C57.6735 111.687 50.8778 128.415 48.2955 136.633C45.7131 144.852 22.5689 174.193 22.5689 174.193C20.9029 171.995 18.5599 170.404 15.8994 169.662C15.8994 169.662 23.4815 156.333 26.1609 151.386C28.8404 146.439 37.0437 132.2 37.0437 132.2Z" fill="#FFAF82"/>
<path d="M38.2666 182.469C63.7602 195.412 89.2343 184.638 89.2343 184.638C85.7394 162.518 81.4678 133.332 81.4678 133.332C88.4868 119.944 92.9526 83.4978 92.9526 83.4978C88.846 82.1523 86.9044 81.5618 82.2056 80.3324C80.8756 79.9839 79.6524 79.6838 78.6136 79.4515C76.4778 78.9578 75.0993 78.7157 75.0993 78.7157C69.1146 78.0268 63.0661 78.1017 57.1004 78.9384H57.0033C52.7317 79.4999 49.8775 80.1775 49.8775 80.1775C49.8775 80.1775 47.9359 94.9303 43.6935 102.384C39.451 109.838 42.7226 114.359 43.6935 117.611C43.9082 118.408 44.0351 119.226 44.0721 120.051C44.3439 124.126 44.6934 143.283 44.6934 143.283L38.2666 182.469Z" fill="#00C09E"/>
<path d="M62.0712 93.0039C69.0708 93.2169 75.3325 85.3855 78.643 79.4515C76.5072 78.9578 75.1287 78.7157 75.1287 78.7157C69.1439 78.0268 63.0955 78.1017 57.1298 78.9384H57.0327C56.1784 84.9208 54.7027 92.7716 62.0712 93.0039Z" fill="#FFAF82"/>
<path d="M43.7227 117.611C43.9374 118.408 44.0643 119.226 44.1013 120.051C56.4597 126.382 69.2648 122.771 69.2648 122.771C52.6639 122.5 43.7227 117.611 43.7227 117.611Z" fill="#007054"/>
<path d="M54.7224 76.5765C52.033 76.2622 49.5743 74.9094 47.8737 72.8083C46.1731 70.7073 45.3661 68.0252 45.6259 65.3377C46.8297 52.9566 45.1113 42.9375 46.5967 35.3287C47.6646 29.7529 49.9557 20.9148 59.3241 17.0136C72.9155 11.3603 84.6623 18.2817 89.5746 30.1691C91.3512 34.4769 92.1764 37.1777 93.2831 45.5705C94.0889 51.6207 93.2831 56.4318 93.4288 60.4879C93.5266 64.2964 92.2134 68.0073 89.74 70.9111C87.2667 73.8149 83.8068 75.7078 80.0218 76.228C71.6299 77.31 63.1411 77.4269 54.7224 76.5765Z" fill="#C47A0B"/>
<path d="M53.4607 45.0671C53.4607 45.0671 49.4707 40.5174 46.2087 44.467C43.3448 47.9131 45.1311 57.1385 52.1113 56.8868L53.4607 45.0671Z" fill="#F88968"/>
<path d="M46.4795 56.3156C46.4795 56.6644 46.5834 57.0054 46.778 57.2954C46.9726 57.5853 47.2491 57.8111 47.5725 57.9442C47.8959 58.0772 48.2517 58.1116 48.5947 58.0428C48.9377 57.974 49.2525 57.8053 49.4992 57.5579C49.7459 57.3105 49.9134 56.9957 49.9805 56.6533C50.0476 56.3109 50.0112 55.9564 49.876 55.6346C49.7408 55.3128 49.5128 55.0384 49.2209 54.8459C48.9291 54.6535 48.5866 54.5518 48.2367 54.5537C48.0051 54.5537 47.7758 54.5994 47.562 54.688C47.3482 54.7767 47.154 54.9066 46.9907 55.0703C46.8274 55.2341 46.6982 55.4284 46.6105 55.6421C46.5228 55.8558 46.4782 56.0846 46.4795 56.3156Z" fill="white"/>
<path d="M59.2557 80.0711C59.5761 84.2433 68.8473 86.5763 74.2451 79.4032L74.944 70.2359L75.4489 63.4597L58.4014 66.7897L59.0809 77.4381L59.2557 80.0711Z" fill="#FFAF82"/>
<path d="M59.1683 78.6772C64.9932 78.6772 71.5074 74.8631 74.7887 72.2591L75.4489 63.4888L58.4014 66.7898L59.1683 78.6772Z" fill="#F88968"/>
<path d="M66.6538 71.4557C83.313 67.6513 86.3322 45.89 86.3322 45.89C86.3445 44.6923 86.2699 43.4953 86.109 42.3083C85.9359 40.967 85.6634 39.6404 85.2935 38.3394C84.0994 34.1575 81.5364 29.3948 76.0707 27.3135L75.5465 27.1199C66.4694 23.9157 53.2178 25.4161 49.1501 37.4004C48.9047 38.1633 48.7006 38.9389 48.5384 39.7236C48.4414 40.1883 48.354 40.6917 48.286 41.1854C46.4706 53.5665 51.6936 74.8728 66.6538 71.4557Z" fill="#FFAF82"/>
<path d="M69.9736 49.2199C70.351 49.2733 70.7359 49.225 71.0882 49.08C71.4406 48.935 71.7476 48.6986 71.9774 48.3954C72.2072 48.0921 72.3515 47.7331 72.3952 47.3555C72.4389 46.9779 72.3804 46.5956 72.2259 46.2481C73.9734 46.0351 73.9345 44.98 73.9345 44.98C73.6627 45.435 71.624 45.1736 70.7697 45.0381H70.5173H70.4008C69.8569 45.0161 69.3252 45.2021 68.9142 45.5579C68.5032 45.9138 68.244 46.4126 68.1895 46.9526C68.1349 47.4926 68.2892 48.033 68.6208 48.4634C68.9524 48.8938 69.4363 49.1817 69.9736 49.2684V49.2199Z" fill="#32324C"/>
<path d="M83.4677 46.3353C83.4677 46.3353 89.4382 43.073 91.3507 48.494C93.0399 53.2664 87.6034 62.2884 80.3223 59.3359L83.4677 46.3353Z" fill="#FFAF82"/>
<path d="M82.8076 59.7135C82.8076 60.062 82.9113 60.4026 83.1054 60.6923C83.2996 60.982 83.5755 61.2079 83.8984 61.3412C84.2212 61.4746 84.5765 61.5094 84.9192 61.4415C85.262 61.3735 85.5768 61.2057 85.8239 60.9593C86.071 60.7129 86.2393 60.399 86.3074 60.0572C86.3756 59.7155 86.3406 59.3612 86.2069 59.0393C86.0732 58.7174 85.8467 58.4422 85.5561 58.2486C85.2656 58.055 84.924 57.9517 84.5745 57.9517C84.3421 57.9504 84.1118 57.9951 83.8968 58.0832C83.6819 58.1713 83.4866 58.301 83.3223 58.4648C83.1579 58.6287 83.0279 58.8234 82.9395 59.0378C82.8512 59.2521 82.8064 59.4818 82.8076 59.7135Z" fill="white"/>
<path d="M56.644 62.2109C56.9019 62.8001 57.2599 63.3404 57.7022 63.8082C58.2907 64.3913 58.9964 64.8437 59.7727 65.1357C60.5491 65.4276 61.3785 65.5526 62.2067 65.5022C63.042 65.4663 63.8594 65.2494 64.6021 64.8665C65.3448 64.4837 65.995 63.9442 66.5074 63.2854C67.1681 62.5334 67.7353 61.7046 68.1967 60.817C68.462 60.3072 68.6923 59.78 68.8859 59.2391C68.8859 59.2391 60.1486 58.968 55.9935 58.3582C55.9694 58.9275 55.9987 59.4979 56.0809 60.0619C56.1679 60.8008 56.3574 61.524 56.644 62.2109Z" fill="#920E08"/>
<path d="M56.0418 60.0619C60.0222 60.8363 66.449 60.7782 68.1576 60.8169C68.423 60.3072 68.6532 59.78 68.8469 59.2391C68.8469 59.2391 60.1095 58.968 55.9545 58.3582C55.9304 58.9275 55.9596 59.4979 56.0418 60.0619Z" fill="white"/>
<path d="M83.0895 55.3865C83.5201 54.0002 84.2487 52.7243 85.2245 51.6476C86.2003 50.5709 87.3999 49.7194 88.7396 49.1523C88.7396 49.1523 84.8563 52.8212 84.5457 55.6672C84.5285 55.846 84.4437 56.0116 84.3084 56.1303C84.1732 56.249 83.9976 56.3118 83.8176 56.3061H83.7302C83.6211 56.3027 83.5143 56.2739 83.4183 56.222C83.3224 56.1701 83.24 56.0965 83.1777 56.0071C83.1154 55.9177 83.075 55.815 83.0596 55.7072C83.0443 55.5994 83.0545 55.4896 83.0895 55.3865Z" fill="#F88968"/>
<path d="M57.7031 63.8082C58.2917 64.3914 58.9973 64.8438 59.7737 65.1358C60.55 65.4277 61.3795 65.5526 62.2077 65.5023C63.043 65.4664 63.8604 65.2494 64.6031 64.8666C65.3458 64.4838 65.996 63.9442 66.5084 63.2855C65.8247 62.9295 65.0728 62.723 64.3027 62.6796C63.5327 62.6362 62.7622 62.7569 62.0427 63.0338C61.3504 62.6967 60.5703 62.5817 59.8098 62.7047C59.399 62.7235 58.9974 62.832 58.6333 63.0227C58.2693 63.2134 57.9517 63.4816 57.7031 63.8082Z" fill="#F85C66"/>
<path d="M63.101 68.0287C64.0884 67.8401 65.0308 67.4656 65.8775 66.9252C65.9844 66.8533 66.0582 66.742 66.0828 66.6159C66.1074 66.4897 66.0807 66.3589 66.0086 66.2524C65.9365 66.1458 65.8249 66.0722 65.6984 66.0477C65.5719 66.0232 65.4407 66.0498 65.3339 66.1217C64.4089 66.7238 63.3433 67.0768 62.2409 67.1463C61.1384 67.2159 60.0367 66.9996 59.043 66.5186C58.9281 66.46 58.7948 66.4485 58.6715 66.4864C58.5482 66.5244 58.4446 66.6089 58.3829 66.7219C58.3525 66.7784 58.3336 66.8403 58.3274 66.9041C58.3213 66.9679 58.3278 67.0323 58.3468 67.0935C58.3658 67.1547 58.3968 67.2116 58.4379 67.2608C58.4791 67.31 58.5297 67.3506 58.5867 67.3802C59.9686 68.1178 61.5665 68.3474 63.101 68.0287Z" fill="#F88968"/>
<path d="M60.9352 56.3737H63.4593C63.5277 56.3749 63.5957 56.3626 63.6592 56.3374C63.7228 56.3122 63.7806 56.2746 63.8294 56.2268C63.8783 56.1791 63.917 56.1221 63.9435 56.0592C63.9699 55.9963 63.9836 55.9288 63.9836 55.8606C63.9836 55.722 63.9283 55.589 63.83 55.491C63.7317 55.3929 63.5984 55.3379 63.4593 55.3379H60.9352C60.9198 55.3442 60.9033 55.3475 60.8867 55.3475C60.87 55.3475 60.8535 55.3442 60.8381 55.3379C60.8303 55.3212 60.8263 55.303 60.8263 55.2846C60.8263 55.2662 60.8303 55.248 60.8381 55.2314L62.9351 48.0679C62.9688 48.001 62.9874 47.9275 62.9895 47.8527C62.9917 47.7778 62.9775 47.7034 62.9477 47.6346C62.918 47.5659 62.8735 47.5044 62.8174 47.4546C62.7614 47.4048 62.695 47.3679 62.6231 47.3463C62.5512 47.3248 62.4754 47.3193 62.401 47.3301C62.3267 47.3409 62.2557 47.3678 62.1929 47.4088C62.1301 47.4499 62.0771 47.5042 62.0376 47.5679C61.9981 47.6316 61.9731 47.7032 61.9643 47.7775L59.8576 54.941C59.8098 55.1133 59.8016 55.2942 59.8335 55.4702C59.8655 55.6461 59.9367 55.8127 60.0421 55.9574C60.1514 56.0877 60.288 56.1925 60.4423 56.2644C60.5966 56.3363 60.7649 56.3736 60.9352 56.3737Z" fill="#F88968"/>
<path d="M67.3143 40.4787C67.2847 40.6138 67.2846 40.7537 67.3138 40.8889C67.3431 41.0242 67.4011 41.1516 67.4838 41.2626C67.5666 41.3735 67.6723 41.4656 67.7938 41.5324C67.9153 41.5992 68.0497 41.6393 68.188 41.65C70.1296 41.8436 74.1682 42.4922 75.9545 44.709C75.9545 44.709 75.5662 41.0692 68.4501 39.6849C68.3231 39.6613 68.1927 39.6631 68.0665 39.6904C67.9402 39.7177 67.8207 39.7698 67.7149 39.8438C67.6091 39.9177 67.5192 40.0119 67.4504 40.1209C67.3816 40.23 67.3353 40.3516 67.3143 40.4787Z" fill="#C37A0B"/>
<path d="M59.2946 40.411C59.2953 40.5467 59.2673 40.681 59.2126 40.8053C59.1579 40.9295 59.0775 41.0409 58.9768 41.1322C58.8761 41.2234 58.7573 41.2926 58.6281 41.3351C58.4989 41.3777 58.3621 41.3926 58.2267 41.379C56.2851 41.2242 52.1882 41.1758 50.0039 43.0344C50.0039 43.0344 51.033 39.5204 58.2752 39.3946C58.4109 39.3876 58.5466 39.4092 58.6734 39.4578C58.8003 39.5064 58.9154 39.581 59.0115 39.6768C59.1076 39.7726 59.1825 39.8875 59.2312 40.014C59.28 40.1404 59.3016 40.2757 59.2946 40.411Z" fill="#C37A0B"/>
<path d="M55.8586 48.949C55.2976 49.0264 54.7287 48.8796 54.2759 48.5405C53.823 48.2014 53.523 47.6975 53.4412 47.1387C53.3908 46.7409 53.4583 46.3371 53.6354 45.9771C51.8782 45.7641 51.9171 44.709 51.9171 44.709C52.1889 45.164 54.2373 44.9026 55.0819 44.7671H55.3343H55.4508C55.9947 44.7451 56.5264 44.9311 56.9374 45.2869C57.3484 45.6428 57.6076 46.1416 57.6621 46.6816C57.7167 47.2216 57.5624 47.762 57.2308 48.1924C56.8992 48.6228 56.4153 48.9107 55.878 48.9974L55.8586 48.949Z" fill="#32324C"/>
<path d="M74.6143 28.2815C74.6143 28.2815 75.4492 42.86 82.2643 48.7359C82.2643 48.7359 82.8468 44.8638 88.1572 45.4543C88.1572 45.4543 88.6523 44.5541 89.429 40.1689C90.2056 35.7837 87.4194 17.6912 67.2944 18.8722C67.2944 18.8722 60.887 17.575 51.9361 25.2128C42.9852 32.8506 48.2859 41.2047 48.2859 41.2047C48.2859 41.2047 63.2267 39.1331 74.6143 28.2815Z" fill="#C47A0B"/>
<path d="M92.8752 173.835C95.5643 177.445 96.8749 177.61 100.642 178.055C108.68 161.231 112.534 145.704 112.437 134.726C110.612 120.419 92.7587 83.3721 92.7587 83.3721C85.0893 89.4029 84.8271 103.546 84.8271 103.546C90.1666 116.392 96.9041 129.799 100.234 137.911L92.8752 173.835Z" fill="#FFAF82"/>
</g>
<defs>
<filter id="filter0_d" x="20" y="24" width="100" height="100" filterUnits="userSpaceOnUse" color-interpolation-filters="sRGB">
<feFlood flood-opacity="0" result="BackgroundImageFix"/>
<feColorMatrix in="SourceAlpha" type="matrix" values="0 0 0 0 0 0 0 0 0 0 0 0 0 0 0 0 0 0 127 0"/>
<feOffset dy="4"/>
<feGaussianBlur stdDeviation="20"/>
<feColorMatrix type="matrix" values="0 0 0 0 0 0 0 0 0 0 0 0 0 0 0 0 0 0 0.16 0"/>
<feBlend mode="normal" in2="BackgroundImageFix" result="effect1_dropShadow"/>
<feBlend mode="normal" in="SourceGraphic" in2="effect1_dropShadow" result="shape"/>
</filter>
</defs>
</svg>
