<svg width="53" height="58" viewBox="0 0 53 58" fill="none" xmlns="http://www.w3.org/2000/svg">
<g clip-path="url(#clip0)">
<path d="M0.602539 45.8391C0.602539 50.0093 1.58143 52.9862 3.60768 54.941C6.22263 57.4651 10.282 57.9933 15.1148 57.9933C16.7851 57.9933 18.5581 57.9315 20.3858 57.8629C22.4326 57.7875 24.5478 57.712 26.7383 57.712C28.436 57.712 30.0994 57.7463 31.7081 57.7738C39.375 57.9247 45.9945 58.055 49.7458 54.3717C51.8473 52.3071 52.8673 49.2343 52.8673 44.968C52.8673 34.796 46.5627 21.3111 36.3699 17.2506C36.2535 17.2026 36.1234 17.182 35.9934 17.182H17.4697C17.3396 17.182 17.2164 17.2094 17.0932 17.2506C7.2289 21.1945 0.602539 35.2144 0.602539 45.8391ZM17.6682 19.226H35.8017C44.112 22.6555 50.8411 34.1581 50.8411 44.9817C50.8411 48.6718 50.0196 51.2714 48.3288 52.9382C45.1868 56.0247 38.9574 55.9013 31.7492 55.7641C30.1268 55.7298 28.4565 55.6955 26.7383 55.6955C24.5136 55.6955 22.3778 55.7709 20.3105 55.8464C13.6568 56.0865 7.91345 56.2922 5.01099 53.4869C3.40232 51.9367 2.62194 49.4332 2.62194 45.8391C2.62878 33.5957 10.371 22.2577 17.6682 19.226Z" fill="white"/>
<path d="M0.602539 45.8391C0.602539 50.0093 1.58143 52.9862 3.60768 54.941C6.22263 57.4651 10.282 57.9933 15.1148 57.9933C16.7851 57.9933 18.5581 57.9315 20.3858 57.8629C22.4326 57.7875 24.5478 57.712 26.7383 57.712C28.436 57.712 30.0994 57.7463 31.7081 57.7738C39.375 57.9247 45.9945 58.055 49.7458 54.3717C51.8473 52.3071 52.8673 49.2343 52.8673 44.968C52.8673 34.796 46.5627 21.3111 36.3699 17.2506C36.2535 17.2026 36.1234 17.182 35.9934 17.182H17.4697C17.3396 17.182 17.2164 17.2094 17.0932 17.2506C7.2289 21.1945 0.602539 35.2144 0.602539 45.8391ZM17.6682 19.226H35.8017C44.112 22.6555 50.8411 34.1581 50.8411 44.9817C50.8411 48.6718 50.0196 51.2714 48.3288 52.9382C45.1868 56.0247 38.9574 55.9013 31.7492 55.7641C30.1268 55.7298 28.4565 55.6955 26.7383 55.6955C24.5136 55.6955 22.3778 55.7709 20.3105 55.8464C13.6568 56.0865 7.91345 56.2922 5.01099 53.4869C3.40232 51.9367 2.62194 49.4332 2.62194 45.8391C2.62878 33.5957 10.371 22.2577 17.6682 19.226Z" fill="#00C09E"/>
<path d="M18.6951 15.3574H34.5696C34.8502 15.3574 35.1172 15.2408 35.3089 15.035C38.2593 11.873 40.0254 5.4255 40.0254 1.01514C40.0254 0.452696 39.5736 0 39.0123 0H14.2524C13.6911 0 13.2393 0.452696 13.2393 1.01514C13.2393 5.4255 15.0054 11.873 17.9558 15.035C18.1474 15.2408 18.4144 15.3574 18.6951 15.3574ZM37.9649 2.03027C37.739 5.74787 36.3152 10.7001 34.1109 13.3271H19.1469C16.9426 10.7001 15.5188 5.74787 15.2929 2.03027H37.9649Z" fill="white"/>
<path d="M18.6951 15.3574H34.5696C34.8502 15.3574 35.1172 15.2408 35.3089 15.035C38.2593 11.873 40.0254 5.4255 40.0254 1.01514C40.0254 0.452696 39.5736 0 39.0123 0H14.2524C13.6911 0 13.2393 0.452696 13.2393 1.01514C13.2393 5.4255 15.0054 11.873 17.9558 15.035C18.1474 15.2408 18.4144 15.3574 18.6951 15.3574ZM37.9649 2.03027C37.739 5.74787 36.3152 10.7001 34.1109 13.3271H19.1469C16.9426 10.7001 15.5188 5.74787 15.2929 2.03027H37.9649Z" fill="#00C09E"/>
<path d="M19.2974 45.8184C20.8308 46.7718 23.0761 47.1559 24.3493 47.3068V49.3439C24.3493 49.9064 24.8011 50.3591 25.3624 50.3591H28.4634C28.7304 50.3591 28.9905 50.2493 29.1822 50.0573C29.3739 49.8652 29.4765 49.6046 29.4765 49.3371L29.4629 46.9844C31.893 46.3945 34.3231 44.3162 34.6243 41.1199C35.0008 37.1143 32.3379 35.4887 31.804 35.2074C31.4823 35.036 31.0031 34.8439 30.3938 34.6039C29.3259 34.1786 27.861 33.5956 26.8 32.9165C26.3961 32.6559 26.2455 32.2718 26.314 32.0249C26.3961 31.7162 26.8137 31.6407 27.0601 31.6202C28.881 31.4898 31.7013 32.4227 31.7287 32.4295C32.0025 32.5187 32.2969 32.4913 32.5433 32.3472C32.7897 32.2032 32.9677 31.9631 33.0362 31.6888L33.7823 28.3484C33.8782 27.93 33.7002 27.5047 33.3374 27.2715C32.3722 26.6474 30.5718 26.3387 29.4286 26.2015V24.3907C29.4286 23.8283 28.9768 23.3756 28.4155 23.3756H25.3145C24.7532 23.3756 24.3014 23.8283 24.3014 24.3907V26.7022C20.687 27.7311 18.9346 30.1866 19.3453 33.6847C19.7971 37.5327 24.8764 39.172 25.8964 39.4669C28.0048 40.0705 27.9295 40.4203 27.82 40.9073C27.7036 41.4286 25.9375 41.7715 24.233 41.4217C22.7886 41.1268 21.5016 40.4409 21.4879 40.434C21.221 40.29 20.9061 40.2694 20.6323 40.386C20.3516 40.4958 20.1394 40.729 20.0436 41.017L18.873 44.6523C18.7224 45.0845 18.9004 45.5714 19.2974 45.8184ZM21.6112 42.7181C22.1999 42.9582 22.9802 43.2325 23.8154 43.404C25.9306 43.843 29.2712 43.6578 29.7846 41.3531C30.3938 38.6507 27.8268 37.9099 26.444 37.5189C24.7943 37.0457 21.5975 35.5847 21.351 33.4515C21.0293 30.7354 22.3573 29.1646 25.5199 28.4925C25.9854 28.3964 26.3208 27.978 26.3208 27.4979V25.4059H27.3955V27.1138C27.3955 27.6419 27.7994 28.0809 28.3265 28.1221C29.2712 28.1975 30.7087 28.4101 31.6123 28.7051L31.2837 30.1798C30.1542 29.878 28.3471 29.487 26.9095 29.583C25.602 29.6722 24.6231 30.413 24.3425 31.5104C24.0481 32.6559 24.5958 33.9042 25.7047 34.6107C26.9232 35.3926 28.4908 36.0168 29.6408 36.4764C30.1474 36.6821 30.6266 36.8673 30.8525 36.9908C31.1879 37.1691 32.865 38.2048 32.6117 40.921C32.379 43.4314 30.2501 44.9473 28.3676 45.105C27.8405 45.1462 27.4366 45.592 27.4366 46.1202L27.4503 48.3219H26.3756V46.374C26.3756 45.8321 25.9512 45.3863 25.4172 45.3588C24.6368 45.3177 22.5627 45.0776 21.0635 44.4397L21.6112 42.7181Z" fill="white"/>
<path d="M19.2974 45.8184C20.8308 46.7718 23.0761 47.1559 24.3493 47.3068V49.3439C24.3493 49.9064 24.8011 50.3591 25.3624 50.3591H28.4634C28.7304 50.3591 28.9905 50.2493 29.1822 50.0573C29.3739 49.8652 29.4765 49.6046 29.4765 49.3371L29.4629 46.9844C31.893 46.3945 34.3231 44.3162 34.6243 41.1199C35.0008 37.1143 32.3379 35.4887 31.804 35.2074C31.4823 35.036 31.0031 34.8439 30.3938 34.6039C29.3259 34.1786 27.861 33.5956 26.8 32.9165C26.3961 32.6559 26.2455 32.2718 26.314 32.0249C26.3961 31.7162 26.8137 31.6407 27.0601 31.6202C28.881 31.4898 31.7013 32.4227 31.7287 32.4295C32.0025 32.5187 32.2969 32.4913 32.5433 32.3472C32.7897 32.2032 32.9677 31.9631 33.0362 31.6888L33.7823 28.3484C33.8782 27.93 33.7002 27.5047 33.3374 27.2715C32.3722 26.6474 30.5718 26.3387 29.4286 26.2015V24.3907C29.4286 23.8283 28.9768 23.3756 28.4155 23.3756H25.3145C24.7532 23.3756 24.3014 23.8283 24.3014 24.3907V26.7022C20.687 27.7311 18.9346 30.1866 19.3453 33.6847C19.7971 37.5327 24.8764 39.172 25.8964 39.4669C28.0048 40.0705 27.9295 40.4203 27.82 40.9073C27.7036 41.4286 25.9375 41.7715 24.233 41.4217C22.7886 41.1268 21.5016 40.4409 21.4879 40.434C21.221 40.29 20.9061 40.2694 20.6323 40.386C20.3516 40.4958 20.1394 40.729 20.0436 41.017L18.873 44.6523C18.7224 45.0845 18.9004 45.5714 19.2974 45.8184ZM21.6112 42.7181C22.1999 42.9582 22.9802 43.2325 23.8154 43.404C25.9306 43.843 29.2712 43.6578 29.7846 41.3531C30.3938 38.6507 27.8268 37.9099 26.444 37.5189C24.7943 37.0457 21.5975 35.5847 21.351 33.4515C21.0293 30.7354 22.3573 29.1646 25.5199 28.4925C25.9854 28.3964 26.3208 27.978 26.3208 27.4979V25.4059H27.3955V27.1138C27.3955 27.6419 27.7994 28.0809 28.3265 28.1221C29.2712 28.1975 30.7087 28.4101 31.6123 28.7051L31.2837 30.1798C30.1542 29.878 28.3471 29.487 26.9095 29.583C25.602 29.6722 24.6231 30.413 24.3425 31.5104C24.0481 32.6559 24.5958 33.9042 25.7047 34.6107C26.9232 35.3926 28.4908 36.0168 29.6408 36.4764C30.1474 36.6821 30.6266 36.8673 30.8525 36.9908C31.1879 37.1691 32.865 38.2048 32.6117 40.921C32.379 43.4314 30.2501 44.9473 28.3676 45.105C27.8405 45.1462 27.4366 45.592 27.4366 46.1202L27.4503 48.3219H26.3756V46.374C26.3756 45.8321 25.9512 45.3863 25.4172 45.3588C24.6368 45.3177 22.5627 45.0776 21.0635 44.4397L21.6112 42.7181Z" fill="#00C09E"/>
</g>
<defs>
<clipPath id="clip0">
<rect width="52.2648" height="58" fill="white" transform="translate(0.602539)"/>
</clipPath>
</defs>
</svg>
