<svg width="51" height="50" viewBox="0 0 51 50" fill="none" xmlns="http://www.w3.org/2000/svg">
<path d="M38 29.1666H36.5C36.5 29.9951 37.1716 30.6666 38 30.6666V29.1666ZM38 16.6666L38 15.1666C37.1716 15.1666 36.5 15.8382 36.5 16.6666L38 16.6666ZM40.0833 16.6666V15.1666V16.6666ZM40.0833 29.1666V30.6666V29.1666ZM39.5 29.1666L39.5 16.6666L36.5 16.6666L36.5 29.1666H39.5ZM38 18.1666L40.0833 18.1666V15.1666L38 15.1666L38 18.1666ZM40.0833 27.6666H38V30.6666H40.0833V27.6666ZM44.8333 22.9166C44.8333 25.54 42.7067 27.6666 40.0833 27.6666V30.6666C44.3635 30.6666 47.8333 27.1968 47.8333 22.9166H44.8333ZM40.0833 18.1666C42.7067 18.1666 44.8333 20.2933 44.8333 22.9166H47.8333C47.8333 18.6364 44.3635 15.1666 40.0833 15.1666V18.1666Z" fill="white"/>
<path d="M38 29.1666H36.5C36.5 29.9951 37.1716 30.6666 38 30.6666V29.1666ZM38 16.6666L38 15.1666C37.1716 15.1666 36.5 15.8382 36.5 16.6666L38 16.6666ZM40.0833 16.6666V15.1666V16.6666ZM40.0833 29.1666V30.6666V29.1666ZM39.5 29.1666L39.5 16.6666L36.5 16.6666L36.5 29.1666H39.5ZM38 18.1666L40.0833 18.1666V15.1666L38 15.1666L38 18.1666ZM40.0833 27.6666H38V30.6666H40.0833V27.6666ZM44.8333 22.9166C44.8333 25.54 42.7067 27.6666 40.0833 27.6666V30.6666C44.3635 30.6666 47.8333 27.1968 47.8333 22.9166H44.8333ZM40.0833 18.1666C42.7067 18.1666 44.8333 20.2933 44.8333 22.9166H47.8333C47.8333 18.6364 44.3635 15.1666 40.0833 15.1666V18.1666Z" fill="#008FE5"/>
<path d="M8.83334 16.6666V15.1666C8.00492 15.1666 7.33334 15.8382 7.33334 16.6666H8.83334ZM38 16.6666H39.5C39.5 15.8382 38.8284 15.1666 38 15.1666V16.6666ZM8.83334 18.1666H38V15.1666H8.83334V18.1666ZM36.5 16.6666V27.0833H39.5V16.6666H36.5ZM10.3333 27.0833V16.6666H7.33334V27.0833H10.3333ZM23.4167 40.1666C16.191 40.1666 10.3333 34.309 10.3333 27.0833H7.33334C7.33334 35.9659 14.5341 43.1666 23.4167 43.1666V40.1666ZM36.5 27.0833C36.5 34.309 30.6424 40.1666 23.4167 40.1666V43.1666C32.2993 43.1666 39.5 35.9659 39.5 27.0833H36.5Z" fill="white"/>
<path d="M8.83334 16.6666V15.1666C8.00492 15.1666 7.33334 15.8382 7.33334 16.6666H8.83334ZM38 16.6666H39.5C39.5 15.8382 38.8284 15.1666 38 15.1666V16.6666ZM8.83334 18.1666H38V15.1666H8.83334V18.1666ZM36.5 16.6666V27.0833H39.5V16.6666H36.5ZM10.3333 27.0833V16.6666H7.33334V27.0833H10.3333ZM23.4167 40.1666C16.191 40.1666 10.3333 34.309 10.3333 27.0833H7.33334C7.33334 35.9659 14.5341 43.1666 23.4167 43.1666V40.1666ZM36.5 27.0833C36.5 34.309 30.6424 40.1666 23.4167 40.1666V43.1666C32.2993 43.1666 39.5 35.9659 39.5 27.0833H36.5Z" fill="#008FE5"/>
<path d="M31.75 6.25L29.6667 10.4167" stroke="white" stroke-width="3" stroke-linecap="round" stroke-linejoin="round"/>
<path d="M31.75 6.25L29.6667 10.4167" stroke="#008FE5" stroke-width="3" stroke-linecap="round" stroke-linejoin="round"/>
<path d="M25.5 6.25L23.4167 10.4167" stroke="white" stroke-width="3" stroke-linecap="round" stroke-linejoin="round"/>
<path d="M25.5 6.25L23.4167 10.4167" stroke="#008FE5" stroke-width="3" stroke-linecap="round" stroke-linejoin="round"/>
<path d="M19.25 6.25L17.1667 10.4167" stroke="white" stroke-width="3" stroke-linecap="round" stroke-linejoin="round"/>
<path d="M19.25 6.25L17.1667 10.4167" stroke="#008FE5" stroke-width="3" stroke-linecap="round" stroke-linejoin="round"/>
</svg>
