<svg width="1069" height="763" viewBox="0 0 1069 763" fill="none" xmlns="http://www.w3.org/2000/svg">
<path d="M1068.01 514.378C1085.4 728.112 246.571 885.263 96.2026 688.341C46.0885 622.711 73.5463 565.708 108.843 509.566C144.139 453.423 165.94 412.136 53.0944 314.972C-132.518 175.897 224.311 -3.84258 303.644 -24.0477C382.976 -44.2529 1044.92 230.585 1068.01 514.378Z" fill="white"/>
<path d="M1068.01 514.378C1085.4 728.112 246.571 885.263 96.2026 688.341C46.0885 622.711 73.5463 565.708 108.843 509.566C144.139 453.423 165.94 412.136 53.0944 314.972C-132.518 175.897 224.311 -3.84258 303.644 -24.0477C382.976 -44.2529 1044.92 230.585 1068.01 514.378Z" fill="url(#paint0_linear_19958_201794)" fill-opacity="0.5"/>
<defs>
<linearGradient id="paint0_linear_19958_201794" x1="-36.9059" y1="128.58" x2="144.428" y2="823.456" gradientUnits="userSpaceOnUse">
<stop stop-color="#008FE5"/>
<stop offset="1" stop-color="#00C09E"/>
</linearGradient>
</defs>
</svg>
