<svg width="1036" height="761" viewBox="0 0 1036 761" fill="none" xmlns="http://www.w3.org/2000/svg">
<path d="M2007.69 -406.988C2225.65 -76.2247 1006.49 923.18 588.062 737.734C448.611 675.929 442.469 559.215 449.788 436.935C457.108 314.654 455.758 228.42 186.694 171.24C-237.452 110.79 180.927 -497.204 291.486 -600.377C402.045 -703.55 1718.3 -846.167 2007.69 -406.988Z" fill="white"/>
<path d="M2007.69 -406.988C2225.65 -76.2247 1006.49 923.18 588.062 737.734C448.611 675.929 442.469 559.215 449.788 436.935C457.108 314.654 455.758 228.42 186.694 171.24C-237.452 110.79 180.927 -497.204 291.486 -600.377C402.045 -703.55 1718.3 -846.167 2007.69 -406.988Z" fill="url(#paint0_linear)"/>
<defs>
<linearGradient id="paint0_linear" x1="-124.598" y1="-50.7554" x2="786.156" y2="913.768" gradientUnits="userSpaceOnUse">
<stop stop-color="#008FE5"/>
<stop offset="1" stop-color="#00C09E"/>
</linearGradient>
</defs>
</svg>
