<svg width="83" height="84" viewBox="0 0 83 84" fill="none" xmlns="http://www.w3.org/2000/svg">
<path d="M30.029 17.2098C21.3045 26.9984 15.3171 41.0615 14.7611 42.3866L5.09569 38.2404C2.31582 37.0435 1.63154 33.4102 3.7699 31.2729L16.6428 18.4066C18.6529 16.3976 21.5611 15.5 24.3837 16.0557L30.029 17.2098ZM36.4013 60.6388C37.6843 61.9211 39.5661 62.2631 41.1912 61.4937C46.1522 59.1854 56.8013 53.7568 63.6868 46.8749C83.317 27.2549 83.488 11.2682 82.3333 4.429C82.182 3.58891 81.7772 2.81517 81.1733 2.21158C80.5694 1.60799 79.7952 1.20342 78.9547 1.05214C72.1119 -0.101979 56.117 0.0690007 36.4868 19.689C29.6013 26.5709 24.2126 37.2145 21.8604 42.1729C21.0906 43.7972 21.4755 45.7207 22.7158 46.9604L36.4013 60.6388ZM66.2101 53.3721C56.4164 62.0921 42.3459 68.0764 41.0202 68.6321L45.1686 78.2925C46.3661 81.0709 50.0013 81.7548 52.1396 79.6176L65.0126 66.7513C67.0226 64.7423 67.9208 61.8356 67.3648 59.0145L66.2101 53.3721ZM28.9598 64.4858C29.3745 66.556 29.2714 68.6965 28.6596 70.7173C28.0479 72.7381 26.9463 74.5767 25.4529 76.0697C22.1598 79.3611 11.9384 81.7976 5.30952 83.0799C2.35858 83.6356 -0.250217 81.0282 0.305757 78.0788C1.58877 71.4533 3.98374 61.2372 7.31958 57.9458C8.81346 56.4531 10.653 55.3522 12.6748 54.7407C14.6966 54.1293 16.8382 54.0262 18.9095 54.4407C23.9133 55.3811 28.0189 59.4847 28.9598 64.4858ZM46.3233 28.5372C46.3233 23.8353 50.1724 19.9882 54.8767 19.9882C59.5811 19.9882 63.4302 23.8353 63.4302 28.5372C63.4302 33.2392 59.5811 37.0862 54.8767 37.0862C50.1724 37.0862 46.3233 33.2392 46.3233 28.5372Z" fill="white"/>
<path d="M30.029 17.2098C21.3045 26.9984 15.3171 41.0615 14.7611 42.3866L5.09569 38.2404C2.31582 37.0435 1.63154 33.4102 3.7699 31.2729L16.6428 18.4066C18.6529 16.3976 21.5611 15.5 24.3837 16.0557L30.029 17.2098ZM36.4013 60.6388C37.6843 61.9211 39.5661 62.2631 41.1912 61.4937C46.1522 59.1854 56.8013 53.7568 63.6868 46.8749C83.317 27.2549 83.488 11.2682 82.3333 4.429C82.182 3.58891 81.7772 2.81517 81.1733 2.21158C80.5694 1.60799 79.7952 1.20342 78.9547 1.05214C72.1119 -0.101979 56.117 0.0690007 36.4868 19.689C29.6013 26.5709 24.2126 37.2145 21.8604 42.1729C21.0906 43.7972 21.4755 45.7207 22.7158 46.9604L36.4013 60.6388ZM66.2101 53.3721C56.4164 62.0921 42.3459 68.0764 41.0202 68.6321L45.1686 78.2925C46.3661 81.0709 50.0013 81.7548 52.1396 79.6176L65.0126 66.7513C67.0226 64.7423 67.9208 61.8356 67.3648 59.0145L66.2101 53.3721ZM28.9598 64.4858C29.3745 66.556 29.2714 68.6965 28.6596 70.7173C28.0479 72.7381 26.9463 74.5767 25.4529 76.0697C22.1598 79.3611 11.9384 81.7976 5.30952 83.0799C2.35858 83.6356 -0.250217 81.0282 0.305757 78.0788C1.58877 71.4533 3.98374 61.2372 7.31958 57.9458C8.81346 56.4531 10.653 55.3522 12.6748 54.7407C14.6966 54.1293 16.8382 54.0262 18.9095 54.4407C23.9133 55.3811 28.0189 59.4847 28.9598 64.4858ZM46.3233 28.5372C46.3233 23.8353 50.1724 19.9882 54.8767 19.9882C59.5811 19.9882 63.4302 23.8353 63.4302 28.5372C63.4302 33.2392 59.5811 37.0862 54.8767 37.0862C50.1724 37.0862 46.3233 33.2392 46.3233 28.5372Z" fill="#494949" fill-opacity="0.8"/>
</svg>
