<svg width="61" height="49" viewBox="0 0 61 49" fill="none" xmlns="http://www.w3.org/2000/svg">
<g clip-path="url(#clip0_18383_130307)">
<path d="M40.995 17.486H38.9754H38.4567C38.4096 17.486 38.2996 17.5018 38.2603 17.5332C37.8123 17.8554 37.7259 18.319 38.0245 18.8691C38.0402 18.8927 38.0559 18.9163 38.0795 18.9399C38.5039 19.2935 38.7553 19.8122 38.7553 20.3701C38.7553 21.3917 37.9302 22.2169 36.9086 22.2169C35.887 22.2169 35.0618 21.3917 35.0618 20.3701C35.0618 19.8672 35.2662 19.3878 35.6276 19.042C35.6355 19.0342 35.6434 19.0185 35.6512 19.0106C35.8477 18.7827 35.9577 18.5234 35.9577 18.2719C35.9577 18.0676 35.887 17.7768 35.5569 17.541C35.5176 17.5096 35.3683 17.4939 35.3212 17.4939H34.8811H31.0933C30.9675 17.4939 30.8575 17.3917 30.8575 17.2581V12.7788C30.8575 12.7395 30.8654 12.6923 30.8889 12.6609C31.0697 12.3623 31.3369 12.1972 31.6512 12.1972C31.9027 12.1972 32.1777 12.3073 32.3978 12.5037C32.4056 12.5116 32.4214 12.5194 32.4292 12.5351C32.7829 12.9045 33.2544 13.101 33.7573 13.101C34.7789 13.101 35.6041 12.2758 35.6041 11.2542C35.6041 10.2326 34.7789 9.40745 33.7573 9.40745C33.2072 9.40745 32.6807 9.65106 32.3271 10.0833C32.3113 10.1069 32.2878 10.1226 32.2563 10.1383C32.0442 10.2562 31.8398 10.3112 31.6512 10.3112C31.4312 10.3112 31.109 10.2247 30.8732 9.83181C30.8497 9.79252 30.8418 9.75322 30.8418 9.71393V5.43888C30.8418 5.30529 30.944 5.20312 31.0776 5.20312H42.9675C43.1011 5.20312 43.2033 5.30529 43.2033 5.43888V14.2326" stroke="white" stroke-width="1.8" stroke-miterlimit="10" stroke-linecap="round" stroke-linejoin="round"/>
<path d="M52.248 11.654L46.2519 15.5597L41.6625 13.6108C40.6959 13.2336 39.6036 13.5793 39.1714 14.5145C38.8492 15.1982 38.9828 15.9762 39.4386 16.5184C39.6115 16.7228 39.8236 16.8878 40.083 17.0057L45.7647 19.4182C46.1655 19.5911 46.6213 19.5911 47.0299 19.4104C48.4837 18.766 51.0378 17.1628 51.0378 17.1628L50.9985 25.9015C51.1478 26.0744 48.2951 34.4045 48.248 34.6874L47.1006 42.3573C46.912 43.379 47.5879 44.3534 48.6016 44.542C48.7667 44.5735 48.9238 44.5813 49.081 44.5656C49.914 44.5027 50.6291 43.8898 50.7942 43.0332L51.8629 35.7876L54.4641 28.5263C54.4641 28.5263 54.8256 35.2296 54.857 35.4261L56.083 43.0253C56.2166 43.874 56.9081 44.5027 57.7254 44.5892C58.079 44.6285 58.4641 44.5656 58.8256 44.3848C59.5564 44.0076 59.9101 43.1589 59.7843 42.3416L58.6213 35.1118L58.692 27.1825C58.7549 26.6167 57.2539 13.2493 57.2539 13.2493C57.0417 11.8347 55.4464 11.3711 55.4464 11.3711" stroke="white" stroke-width="1.8" stroke-miterlimit="10" stroke-linecap="round" stroke-linejoin="round"/>
<path d="M57.2766 8.24379C57.2766 10.232 55.6578 11.8509 53.6696 11.8509C51.6735 11.8509 50.0625 10.232 50.0625 8.24379C50.0625 6.24772 51.6814 4.63672 53.6696 4.63672C55.6578 4.63672 57.2766 6.25558 57.2766 8.24379Z" stroke="white" stroke-width="1.8" stroke-miterlimit="10" stroke-linecap="round" stroke-linejoin="round"/>
<path d="M50.0632 13.0131L46.8333 12.738L43.6113 11.1113" stroke="white" stroke-width="1.8" stroke-miterlimit="10" stroke-linecap="round" stroke-linejoin="round"/>
<path d="M11.1238 12.3775C10.9273 12.3461 10.7308 12.2989 10.5422 12.2361C9.6542 11.9374 8.93907 11.3166 8.52257 10.4757C8.10607 9.64274 8.0432 8.69185 8.34182 7.80384C8.95479 5.98065 10.943 4.99048 12.7662 5.60344C13.6542 5.90207 14.3693 6.52289 14.7858 7.36376C15.2023 8.19676 15.2652 9.14765 14.9666 10.0357C14.4165 11.6624 12.774 12.629 11.1238 12.3775Z" stroke="white" stroke-width="1.8" stroke-miterlimit="10" stroke-linecap="round" stroke-linejoin="round"/>
<path d="M7.89453 17.2415L8.38962 20.5186C8.5075 21.0765 8.86113 21.5559 9.36408 21.8309L15.3759 25.4144C15.5723 25.5166 15.7767 25.5873 15.9888 25.6188C16.7747 25.7445 17.5841 25.3673 17.9849 24.6286C18.4879 23.6934 18.1421 22.5225 17.2069 22.0195L11.9888 18.8683L11.3837 15.6855" stroke="white" stroke-width="1.8" stroke-miterlimit="10" stroke-linecap="round" stroke-linejoin="round"/>
<path d="M15.3836 18.1922L13.7805 16.6127L13.1125 14.4673C12.7746 13.6186 12.0751 12.7384 11.25 12.3848" stroke="white" stroke-width="1.8" stroke-miterlimit="10" stroke-linecap="round" stroke-linejoin="round"/>
<path d="M41.2621 30.7265H36.6491H36.0833C36.0283 30.7265 35.9104 30.7422 35.8711 30.7736C35.3918 31.1273 35.2896 31.6224 35.6197 32.2196C35.6354 32.251 35.659 32.2746 35.6825 32.2982C36.1462 32.6833 36.4134 33.2491 36.4134 33.8463C36.4134 34.9544 35.5096 35.8503 34.4095 35.8503C33.3014 35.8503 32.4055 34.9465 32.4055 33.8463C32.4055 33.2962 32.6256 32.7854 33.0263 32.4004C33.0342 32.3925 33.0499 32.3768 33.0578 32.3689C33.27 32.1253 33.3957 31.8424 33.3957 31.5674C33.3957 31.3473 33.3171 31.033 32.9635 30.7736C32.9242 30.7422 32.7592 30.7265 32.7041 30.7265H32.2248H28.1148C27.9733 30.7265 27.8633 30.6086 27.8633 30.475V25.6106C27.8633 25.5634 27.879 25.5163 27.9026 25.477C28.099 25.1548 28.3898 24.974 28.7356 24.974C29.0106 24.974 29.3093 25.0919 29.545 25.3119C29.5607 25.3198 29.5686 25.3277 29.5764 25.3434C29.9615 25.7442 30.4723 25.9642 31.0224 25.9642C32.1305 25.9642 33.0263 25.0605 33.0263 23.9603C33.0263 22.8522 32.1226 21.9563 31.0224 21.9563C30.4252 21.9563 29.8594 22.2235 29.4743 22.6872C29.4507 22.7108 29.4271 22.7343 29.3957 22.7501C29.1678 22.8758 28.9478 22.9387 28.7434 22.9387C28.4998 22.9387 28.1619 22.8522 27.9026 22.42C27.879 22.3807 27.8633 22.3336 27.8633 22.2864V17.4062" stroke="white" stroke-width="1.8" stroke-miterlimit="10" stroke-linecap="round" stroke-linejoin="round"/>
<path d="M15.4707 25.6035V44.6133H41.2625V30.7116" stroke="white" stroke-width="1.8" stroke-miterlimit="10" stroke-linecap="round" stroke-linejoin="round"/>
<path d="M27.8401 17.3906H15.4707V20.314" stroke="white" stroke-width="1.8" stroke-miterlimit="10" stroke-linecap="round" stroke-linejoin="round"/>
<path d="M27.8398 44.6135V41.2344" stroke="white" stroke-width="1.8" stroke-miterlimit="10" stroke-linecap="round" stroke-linejoin="round"/>
<path d="M28.3658 30.7266H23.2734" stroke="white" stroke-width="1.8" stroke-miterlimit="10" stroke-linecap="round" stroke-linejoin="round"/>
<path d="M20.1937 30.7266H15.4707" stroke="white" stroke-width="1.8" stroke-miterlimit="10" stroke-linecap="round" stroke-linejoin="round"/>
<path d="M23.2726 30.7273C22.9504 30.5308 22.7696 30.2401 22.7696 29.8943C22.7696 29.6192 22.8875 29.3206 23.1076 29.0849C23.1154 29.0691 23.1233 29.0613 23.139 29.0534C23.5398 28.6683 23.7598 28.1575 23.7598 27.6074C23.7598 26.4994 22.8561 25.6035 21.7559 25.6035C20.6478 25.6035 19.752 26.5072 19.752 27.6074C19.752 28.2126 20.0191 28.7705 20.4828 29.1556C20.5064 29.1792 20.5299 29.2027 20.5457 29.2263C20.6714 29.4542 20.7343 29.6742 20.7343 29.8786C20.7343 30.1222 20.6478 30.4601 20.2156 30.7194" stroke="white" stroke-width="1.8" stroke-miterlimit="10" stroke-linecap="round" stroke-linejoin="round"/>
<path d="M8.7195 11.041C8.7195 11.041 6.88846 11.6383 6.28335 13.1864C6.28335 13.1864 2.93561 26.1137 2.95918 26.6795L2.58197 34.6167L1.22244 42.3495C1.06527 43.4025 1.79612 44.377 2.84916 44.5341C2.94347 44.5499 3.03777 44.5577 3.13207 44.5577C4.06724 44.5577 4.89239 43.874 5.03384 42.9153L6.40909 35.0803C6.41694 35.0096 6.4248 34.9467 6.4248 34.876L6.69199 28.4634C6.77844 28.4948 8.5859 35.0646 8.5859 35.0646L8.92382 42.7031C8.96311 43.7404 9.81969 44.5577 10.8492 44.5577C10.8727 44.5577 10.8963 44.5577 10.9199 44.5577C11.9808 44.5184 12.8138 43.6225 12.7745 42.5616L12.4287 34.7267C12.4209 34.5931 12.4052 34.4673 12.3737 34.3416L10.2441 25.7836C10.2283 25.7051 10.1969 25.6422 10.1655 25.5715L10.7942 22.7738" stroke="white" stroke-width="1.8" stroke-miterlimit="10" stroke-linecap="round" stroke-linejoin="round"/>
<path d="M51.0293 17.1705C51.7759 16.7305 52.3024 16.4004 52.3024 16.4004" stroke="white" stroke-width="1.8" stroke-miterlimit="10" stroke-linecap="round" stroke-linejoin="round"/>
</g>
<defs>
<clipPath id="clip0_18383_130307">
<rect width="60" height="41.391" fill="white" transform="translate(0.5 3.92969)"/>
</clipPath>
</defs>
</svg>
