<svg width="73" height="52" viewBox="0 0 73 52" fill="none" xmlns="http://www.w3.org/2000/svg">
<g clip-path="url(#clip0_9678_77522)">
<path d="M45.2768 43.4399C56.4886 38.4249 61.512 25.2704 56.4969 14.0587C51.4818 2.84693 38.3274 -2.17648 27.1156 2.8386C15.9039 7.85367 10.8805 21.0081 15.8955 32.2199C20.9106 43.4316 34.065 48.455 45.2768 43.4399Z" stroke="white" stroke-width="1.8" stroke-miterlimit="10" stroke-linecap="round" stroke-linejoin="round"/>
<path d="M45.2768 43.4399C56.4886 38.4249 61.512 25.2704 56.4969 14.0587C51.4818 2.84693 38.3274 -2.17648 27.1156 2.8386C15.9039 7.85367 10.8805 21.0081 15.8955 32.2199C20.9106 43.4316 34.065 48.455 45.2768 43.4399Z" stroke="#00C09E" stroke-width="1.8" stroke-miterlimit="10" stroke-linecap="round" stroke-linejoin="round"/>
<path d="M55.0999 35.3701L62.4299 42.7001C64.2699 44.5401 64.2699 47.5301 62.4299 49.3701C61.5099 50.2901 60.2999 50.7501 59.0999 50.7501C57.8899 50.7501 56.6899 50.2901 55.7699 49.3701L48.4399 42.0401" stroke="white" stroke-width="1.8" stroke-miterlimit="10" stroke-linecap="round" stroke-linejoin="round"/>
<path d="M55.0999 35.3701L62.4299 42.7001C64.2699 44.5401 64.2699 47.5301 62.4299 49.3701C61.5099 50.2901 60.2999 50.7501 59.0999 50.7501C57.8899 50.7501 56.6899 50.2901 55.7699 49.3701L48.4399 42.0401" stroke="#00C09E" stroke-width="1.8" stroke-miterlimit="10" stroke-linecap="round" stroke-linejoin="round"/>
<path d="M38.4687 24.4951C42.0285 23.2646 43.9167 19.3812 42.6862 15.8214C41.4556 12.2616 37.5723 10.3734 34.0125 11.6039C30.4527 12.8345 28.5644 16.7178 29.795 20.2776C31.0255 23.8374 34.9089 25.7256 38.4687 24.4951Z" stroke="white" stroke-width="1.8" stroke-miterlimit="10" stroke-linecap="round" stroke-linejoin="round"/>
<path d="M38.4687 24.4951C42.0285 23.2646 43.9167 19.3812 42.6862 15.8214C41.4556 12.2616 37.5723 10.3734 34.0125 11.6039C30.4527 12.8345 28.5644 16.7178 29.795 20.2776C31.0255 23.8374 34.9089 25.7256 38.4687 24.4951Z" stroke="#00C09E" stroke-width="1.8" stroke-miterlimit="10" stroke-linecap="round" stroke-linejoin="round"/>
<path d="M39.6597 24.2102L44.3497 25.5802C47.1797 26.1902 47.8697 29.8002 48.3097 34.6202" stroke="white" stroke-width="1.8" stroke-miterlimit="10" stroke-linecap="round" stroke-linejoin="round"/>
<path d="M39.6597 24.2102L44.3497 25.5802C47.1797 26.1902 47.8697 29.8002 48.3097 34.6202" stroke="#00C09E" stroke-width="1.8" stroke-miterlimit="10" stroke-linecap="round" stroke-linejoin="round"/>
<path d="M32.8297 24.2102L28.1397 25.5802C25.3097 26.1902 24.6197 29.8002 24.1797 34.6202" stroke="white" stroke-width="1.8" stroke-miterlimit="10" stroke-linecap="round" stroke-linejoin="round"/>
<path d="M32.8297 24.2102L28.1397 25.5802C25.3097 26.1902 24.6197 29.8002 24.1797 34.6202" stroke="#00C09E" stroke-width="1.8" stroke-miterlimit="10" stroke-linecap="round" stroke-linejoin="round"/>
<path d="M64.5597 23.27C66.6915 23.27 68.4197 21.5419 68.4197 19.41C68.4197 17.2782 66.6915 15.55 64.5597 15.55C62.4279 15.55 60.6997 17.2782 60.6997 19.41C60.6997 21.5419 62.4279 23.27 64.5597 23.27Z" stroke="white" stroke-width="1.8" stroke-miterlimit="10" stroke-linecap="round" stroke-linejoin="round"/>
<path d="M64.5597 23.27C66.6915 23.27 68.4197 21.5419 68.4197 19.41C68.4197 17.2782 66.6915 15.55 64.5597 15.55C62.4279 15.55 60.6997 17.2782 60.6997 19.41C60.6997 21.5419 62.4279 23.27 64.5597 23.27Z" stroke="#00C09E" stroke-width="1.8" stroke-miterlimit="10" stroke-linecap="round" stroke-linejoin="round"/>
<path d="M66.4897 22.8901L69.1397 23.6701C70.7397 24.0101 71.1297 26.0501 71.3797 28.7801" stroke="white" stroke-width="1.8" stroke-miterlimit="10" stroke-linecap="round" stroke-linejoin="round"/>
<path d="M66.4897 22.8901L69.1397 23.6701C70.7397 24.0101 71.1297 26.0501 71.3797 28.7801" stroke="#00C09E" stroke-width="1.8" stroke-miterlimit="10" stroke-linecap="round" stroke-linejoin="round"/>
<path d="M62.6298 22.8901L59.9798 23.6701C58.9298 23.9001 58.3998 24.8501 58.0898 26.2601" stroke="white" stroke-width="1.8" stroke-miterlimit="10" stroke-linecap="round" stroke-linejoin="round"/>
<path d="M62.6298 22.8901L59.9798 23.6701C58.9298 23.9001 58.3998 24.8501 58.0898 26.2601" stroke="#00C09E" stroke-width="1.8" stroke-miterlimit="10" stroke-linecap="round" stroke-linejoin="round"/>
<path d="M50.65 23.43C48.2 23.43 46.21 21.44 46.21 18.99C46.21 16.54 48.2 14.55 50.65 14.55C53.1 14.55 55.09 16.54 55.09 18.99C55.09 21.44 53.1 23.43 50.65 23.43Z" stroke="white" stroke-width="1.8" stroke-miterlimit="10" stroke-linecap="round" stroke-linejoin="round"/>
<path d="M50.65 23.43C48.2 23.43 46.21 21.44 46.21 18.99C46.21 16.54 48.2 14.55 50.65 14.55C53.1 14.55 55.09 16.54 55.09 18.99C55.09 21.44 53.1 23.43 50.65 23.43Z" stroke="#00C09E" stroke-width="1.8" stroke-miterlimit="10" stroke-linecap="round" stroke-linejoin="round"/>
<path d="M52.8701 23L55.9201 23.89C57.1201 24.15 57.7301 25.24 58.0901 26.84" stroke="white" stroke-width="1.8" stroke-miterlimit="10" stroke-linecap="round" stroke-linejoin="round"/>
<path d="M52.8701 23L55.9201 23.89C57.1201 24.15 57.7301 25.24 58.0901 26.84" stroke="#00C09E" stroke-width="1.8" stroke-miterlimit="10" stroke-linecap="round" stroke-linejoin="round"/>
<path d="M48.4197 23L45.9097 23.74" stroke="white" stroke-width="1.8" stroke-miterlimit="10" stroke-linecap="round" stroke-linejoin="round"/>
<path d="M48.4197 23L45.9097 23.74" stroke="#00C09E" stroke-width="1.8" stroke-miterlimit="10" stroke-linecap="round" stroke-linejoin="round"/>
<path d="M3.85986 19.41C3.85986 17.28 5.58986 15.55 7.71986 15.55C9.84986 15.55 11.5799 17.28 11.5799 19.41C11.5799 21.54 9.84986 23.27 7.71986 23.27C5.58986 23.26 3.85986 21.53 3.85986 19.41Z" stroke="white" stroke-width="1.8" stroke-miterlimit="10" stroke-linecap="round" stroke-linejoin="round"/>
<path d="M3.85986 19.41C3.85986 17.28 5.58986 15.55 7.71986 15.55C9.84986 15.55 11.5799 17.28 11.5799 19.41C11.5799 21.54 9.84986 23.27 7.71986 23.27C5.58986 23.26 3.85986 21.53 3.85986 19.41Z" stroke="#00C09E" stroke-width="1.8" stroke-miterlimit="10" stroke-linecap="round" stroke-linejoin="round"/>
<path d="M5.7899 22.8901L3.1399 23.6701C1.5399 24.0101 1.1499 26.0501 0.899902 28.7801" stroke="white" stroke-width="1.8" stroke-miterlimit="10" stroke-linecap="round" stroke-linejoin="round"/>
<path d="M5.7899 22.8901L3.1399 23.6701C1.5399 24.0101 1.1499 26.0501 0.899902 28.7801" stroke="#00C09E" stroke-width="1.8" stroke-miterlimit="10" stroke-linecap="round" stroke-linejoin="round"/>
<path d="M9.6499 22.8901L12.2999 23.6701C13.3499 23.9001 13.8799 24.8501 14.1899 26.2601" stroke="white" stroke-width="1.8" stroke-miterlimit="10" stroke-linecap="round" stroke-linejoin="round"/>
<path d="M9.6499 22.8901L12.2999 23.6701C13.3499 23.9001 13.8799 24.8501 14.1899 26.2601" stroke="#00C09E" stroke-width="1.8" stroke-miterlimit="10" stroke-linecap="round" stroke-linejoin="round"/>
<path d="M17.3101 18.99C17.3101 16.54 19.3001 14.55 21.7501 14.55C24.2001 14.55 26.1901 16.54 26.1901 18.99C26.1901 21.44 24.2001 23.43 21.7501 23.43C19.3001 23.43 17.3101 21.44 17.3101 18.99Z" stroke="white" stroke-width="1.8" stroke-miterlimit="10" stroke-linecap="round" stroke-linejoin="round"/>
<path d="M17.3101 18.99C17.3101 16.54 19.3001 14.55 21.7501 14.55C24.2001 14.55 26.1901 16.54 26.1901 18.99C26.1901 21.44 24.2001 23.43 21.7501 23.43C19.3001 23.43 17.3101 21.44 17.3101 18.99Z" stroke="#00C09E" stroke-width="1.8" stroke-miterlimit="10" stroke-linecap="round" stroke-linejoin="round"/>
<path d="M19.5198 23L16.4698 23.89C15.2698 24.15 14.6598 25.24 14.2998 26.84" stroke="white" stroke-width="1.8" stroke-miterlimit="10" stroke-linecap="round" stroke-linejoin="round"/>
<path d="M19.5198 23L16.4698 23.89C15.2698 24.15 14.6598 25.24 14.2998 26.84" stroke="#00C09E" stroke-width="1.8" stroke-miterlimit="10" stroke-linecap="round" stroke-linejoin="round"/>
<path d="M23.9697 23L26.4797 23.74" stroke="white" stroke-width="1.8" stroke-miterlimit="10" stroke-linecap="round" stroke-linejoin="round"/>
<path d="M23.9697 23L26.4797 23.74" stroke="#00C09E" stroke-width="1.8" stroke-miterlimit="10" stroke-linecap="round" stroke-linejoin="round"/>
</g>
<defs>
<clipPath id="clip0_9678_77522">
<rect width="72.28" height="51.65" fill="white"/>
</clipPath>
</defs>
</svg>
