<svg width="300" height="300" viewBox="0 0 300 300" fill="none" xmlns="http://www.w3.org/2000/svg">
<rect width="300" height="300" fill="#CACACA"/>
<path d="M106.2 60.45C106.833 61 107.508 61.275 108.225 61.275C108.642 61.275 109.017 61.1083 109.35 60.775C109.683 60.4417 109.85 59.9333 109.85 59.25V41.5H114.425V60.35C114.425 61.9333 113.883 63.1 112.8 63.85C111.733 64.6 110.35 64.975 108.65 64.975C106.95 64.975 105.367 64.5 103.9 63.55L106.2 60.45ZM120.652 55.55C120.652 56.3667 121.202 56.775 122.302 56.775C123.935 56.775 124.794 56.025 124.877 54.525C124.277 54.225 123.552 54.075 122.702 54.075C122.035 54.075 121.535 54.2083 121.202 54.475C120.835 54.7583 120.652 55.1167 120.652 55.55ZM119.202 51.05L117.902 48.5C119.802 47.6167 121.552 47.175 123.152 47.175C124.752 47.175 126.044 47.5 127.027 48.15C128.01 48.8 128.502 49.7167 128.502 50.9V59H124.877V57.375C124.56 57.9583 124.06 58.4167 123.377 58.75C122.677 59.0833 121.894 59.25 121.027 59.25C119.76 59.25 118.744 58.9417 117.977 58.325C117.227 57.725 116.852 56.8833 116.852 55.8C116.852 54.65 117.31 53.7333 118.227 53.05C119.144 52.3667 120.344 52.025 121.827 52.025C122.944 52.025 123.96 52.25 124.877 52.7V51.65C124.877 51.1833 124.694 50.8 124.327 50.5C123.96 50.2 123.469 50.05 122.852 50.05C121.535 50.05 120.319 50.3833 119.202 51.05ZM127.452 41.925L122.952 45.675L120.827 44.6L124.577 40.6L127.452 41.925ZM141.996 53.25C141.996 54.15 142.287 54.875 142.871 55.425C143.454 55.975 144.179 56.25 145.046 56.25C145.746 56.25 146.396 56.1 146.996 55.8C147.612 55.4833 148.096 55.0583 148.446 54.525V58.2C147.579 58.9 146.346 59.25 144.746 59.25C142.796 59.25 141.196 58.7 139.946 57.6C138.712 56.5167 138.096 55.0667 138.096 53.25C138.096 51.4333 138.712 49.9833 139.946 48.9C141.196 47.8 142.796 47.25 144.746 47.25C146.246 47.25 147.479 47.5833 148.446 48.25V51.95C148.112 51.4 147.629 50.9833 146.996 50.7C146.346 50.4 145.696 50.25 145.046 50.25C144.196 50.25 143.479 50.5333 142.896 51.1C142.296 51.6667 141.996 52.3833 141.996 53.25ZM152.325 57.6C151.091 56.5167 150.475 55.0667 150.475 53.25C150.475 51.4333 151.091 49.9833 152.325 48.9C153.575 47.8 155.15 47.25 157.05 47.25C158.95 47.25 160.525 47.8 161.775 48.9C163.008 49.9833 163.625 51.4333 163.625 53.25C163.625 55.0667 163.008 56.5167 161.775 57.6C160.525 58.7 158.95 59.25 157.05 59.25C155.15 59.25 153.575 58.7 152.325 57.6ZM154.375 53.25C154.375 54.1167 154.625 54.8167 155.125 55.35C155.625 55.8667 156.266 56.125 157.05 56.125C157.833 56.125 158.475 55.8667 158.975 55.35C159.475 54.8167 159.725 54.1167 159.725 53.25C159.725 52.3667 159.466 51.6667 158.95 51.15C158.416 50.6167 157.783 50.35 157.05 50.35C156.316 50.35 155.683 50.6167 155.15 51.15C154.633 51.6667 154.375 52.3667 154.375 53.25ZM173.346 52C173.346 51.3167 173.213 50.7917 172.946 50.425C172.696 50.075 172.271 49.9 171.671 49.9C171.055 49.9 170.571 50.0833 170.221 50.45C169.871 50.8167 169.696 51.3333 169.696 52V59H165.896V47.5H169.696V49.225C170.413 47.9083 171.58 47.25 173.196 47.25C175.93 47.25 177.296 48.7 177.296 51.6V59H173.346V52ZM187.726 52C187.726 51.3167 187.593 50.7917 187.326 50.425C187.076 50.075 186.651 49.9 186.051 49.9C185.435 49.9 184.951 50.0833 184.601 50.45C184.251 50.8167 184.076 51.3333 184.076 52V59H180.276V39.5H184.076V49.075C184.81 47.7417 185.976 47.075 187.576 47.075C188.943 47.075 189.943 47.4417 190.576 48.175C191.21 48.9083 191.526 50 191.526 51.45V59H187.726V52ZM202.635 51.825C202.369 50.625 201.552 50.025 200.185 50.025C199.519 50.025 198.935 50.1833 198.435 50.5C197.969 50.8 197.66 51.2417 197.51 51.825H202.635ZM193.91 53.25C193.91 51.45 194.502 50 195.685 48.9C196.852 47.8 198.377 47.25 200.26 47.25C201.927 47.25 203.319 47.7833 204.435 48.85C205.552 49.9167 206.11 51.325 206.11 53.075C206.11 53.3583 206.094 53.6833 206.06 54.05H197.435C197.719 55.6 198.66 56.375 200.26 56.375C201.51 56.375 202.335 55.9333 202.735 55.05L205.885 56.1C204.835 58.2 202.902 59.25 200.085 59.25C198.252 59.25 196.769 58.6917 195.635 57.575C194.485 56.4583 193.91 55.0167 193.91 53.25ZM211.722 53.25C211.722 54.15 212.014 54.875 212.597 55.425C213.181 55.975 213.906 56.25 214.772 56.25C215.472 56.25 216.122 56.1 216.722 55.8C217.339 55.4833 217.822 55.0583 218.172 54.525V58.2C217.306 58.9 216.072 59.25 214.472 59.25C212.522 59.25 210.922 58.7 209.672 57.6C208.439 56.5167 207.822 55.0667 207.822 53.25C207.822 51.4333 208.439 49.9833 209.672 48.9C210.922 47.8 212.522 47.25 214.472 47.25C215.972 47.25 217.206 47.5833 218.172 48.25V51.95C217.839 51.4 217.356 50.9833 216.722 50.7C216.072 50.4 215.422 50.25 214.772 50.25C213.922 50.25 213.206 50.5333 212.622 51.1C212.022 51.6667 211.722 52.3833 211.722 53.25ZM229.051 51.825C228.785 50.625 227.968 50.025 226.601 50.025C225.935 50.025 225.351 50.1833 224.851 50.5C224.385 50.8 224.076 51.2417 223.926 51.825H229.051ZM220.326 53.25C220.326 51.45 220.918 50 222.101 48.9C223.268 47.8 224.793 47.25 226.676 47.25C228.343 47.25 229.735 47.7833 230.851 48.85C231.968 49.9167 232.526 51.325 232.526 53.075C232.526 53.3583 232.51 53.6833 232.476 54.05H223.851C224.135 55.6 225.076 56.375 226.676 56.375C227.926 56.375 228.751 55.9333 229.151 55.05L232.301 56.1C231.251 58.2 229.318 59.25 226.501 59.25C224.668 59.25 223.185 58.6917 222.051 57.575C220.901 56.4583 220.326 55.0167 220.326 53.25ZM127.05 81.6V89H123.25V82C123.25 80.6 122.75 79.9 121.75 79.9C121.233 79.9 120.825 80.0833 120.525 80.45C120.225 80.8167 120.075 81.3333 120.075 82V89H116.275V82C116.275 80.6 115.783 79.9 114.8 79.9C114.283 79.9 113.875 80.0833 113.575 80.45C113.275 80.8167 113.125 81.3333 113.125 82V89H109.5V77.5H113.125V79.2C113.808 77.9 114.917 77.25 116.45 77.25C118.15 77.25 119.242 77.875 119.725 79.125C120.625 77.875 121.85 77.25 123.4 77.25C124.683 77.25 125.617 77.6167 126.2 78.35C126.767 79.0667 127.05 80.15 127.05 81.6ZM138.158 81.825C137.891 80.625 137.074 80.025 135.708 80.025C135.041 80.025 134.458 80.1833 133.958 80.5C133.491 80.8 133.183 81.2417 133.033 81.825H138.158ZM129.433 83.25C129.433 81.45 130.024 80 131.208 78.9C132.374 77.8 133.899 77.25 135.783 77.25C137.449 77.25 138.841 77.7833 139.958 78.85C141.074 79.9167 141.633 81.325 141.633 83.075C141.633 83.3583 141.616 83.6833 141.583 84.05H132.958C133.241 85.6 134.183 86.375 135.783 86.375C137.033 86.375 137.858 85.9333 138.258 85.05L141.408 86.1C140.358 88.2 138.424 89.25 135.608 89.25C133.774 89.25 132.291 88.6917 131.158 87.575C130.008 86.4583 129.433 85.0167 129.433 83.25ZM148.045 84.5C148.045 85.2 148.17 85.725 148.42 86.075C148.67 86.425 149.095 86.6 149.695 86.6C150.328 86.6 150.82 86.4167 151.17 86.05C151.52 85.6833 151.695 85.1667 151.695 84.5V77.5H155.495V89H151.695V87.275C150.978 88.5917 149.811 89.25 148.195 89.25C145.461 89.25 144.095 87.8 144.095 84.9V77.5H148.045V84.5ZM166.62 73.5H170.27V77.5H172.295V80.625H170.27V89H166.62V80.625H164.595V77.5H166.62V73.5ZM180.954 81.425C180.504 80.975 180.012 80.75 179.479 80.75C178.912 80.75 178.462 80.975 178.129 81.425C177.795 81.8917 177.629 82.525 177.629 83.325V89H173.929V77.5H177.629V78.95C178.395 77.8 179.362 77.225 180.529 77.225C180.929 77.225 181.329 77.3167 181.729 77.5C182.112 77.6833 182.404 77.9083 182.604 78.175L180.954 81.425ZM187.107 85.55C187.107 86.3667 187.657 86.775 188.757 86.775C190.39 86.775 191.249 86.025 191.332 84.525C190.732 84.225 190.007 84.075 189.157 84.075C188.49 84.075 187.99 84.2083 187.657 84.475C187.29 84.7583 187.107 85.1167 187.107 85.55ZM185.657 81.05L184.357 78.5C186.257 77.6167 188.007 77.175 189.607 77.175C191.207 77.175 192.499 77.5 193.482 78.15C194.465 78.8 194.957 79.7167 194.957 80.9V89H191.332V87.375C191.015 87.9583 190.515 88.4167 189.832 88.75C189.132 89.0833 188.349 89.25 187.482 89.25C186.215 89.25 185.199 88.9417 184.432 88.325C183.682 87.725 183.307 86.8833 183.307 85.8C183.307 84.65 183.765 83.7333 184.682 83.05C185.599 82.3667 186.799 82.025 188.282 82.025C189.399 82.025 190.415 82.25 191.332 82.7V81.65C191.332 81.1833 191.149 80.8 190.782 80.5C190.415 80.2 189.924 80.05 189.307 80.05C187.99 80.05 186.774 80.3833 185.657 81.05ZM209.306 78.85C210.389 79.9333 210.931 81.4 210.931 83.25C210.931 85.1 210.389 86.5667 209.306 87.65C208.239 88.7167 206.956 89.25 205.456 89.25C203.806 89.25 202.506 88.5667 201.556 87.2V89H197.756V69.5H201.556V79.3C202.506 77.9333 203.806 77.25 205.456 77.25C206.956 77.25 208.239 77.7833 209.306 78.85ZM206.156 85.4C206.689 84.8333 206.956 84.1167 206.956 83.25C206.956 82.3833 206.689 81.6667 206.156 81.1C205.639 80.5667 204.989 80.3 204.206 80.3C203.506 80.3 202.889 80.5667 202.356 81.1C201.822 81.6333 201.556 82.35 201.556 83.25C201.556 84.15 201.822 84.8667 202.356 85.4C202.889 85.9333 203.506 86.2 204.206 86.2C204.989 86.2 205.639 85.9333 206.156 85.4ZM216.111 85.55C216.111 86.3667 216.661 86.775 217.761 86.775C219.394 86.775 220.253 86.025 220.336 84.525C219.736 84.225 219.011 84.075 218.161 84.075C217.494 84.075 216.994 84.2083 216.661 84.475C216.294 84.7583 216.111 85.1167 216.111 85.55ZM214.661 81.05L213.361 78.5C215.261 77.6167 217.011 77.175 218.611 77.175C220.211 77.175 221.503 77.5 222.486 78.15C223.469 78.8 223.961 79.7167 223.961 80.9V89H220.336V87.375C220.019 87.9583 219.519 88.4167 218.836 88.75C218.136 89.0833 217.353 89.25 216.486 89.25C215.219 89.25 214.203 88.9417 213.436 88.325C212.686 87.725 212.311 86.8833 212.311 85.8C212.311 84.65 212.769 83.7333 213.686 83.05C214.603 82.3667 215.803 82.025 217.286 82.025C218.403 82.025 219.419 82.25 220.336 82.7V81.65C220.336 81.1833 220.153 80.8 219.786 80.5C219.419 80.2 218.928 80.05 218.311 80.05C216.994 80.05 215.778 80.3833 214.661 81.05ZM226.81 69.5H230.61V89H226.81V69.5ZM240.998 82C240.998 81.3167 240.865 80.7917 240.598 80.425C240.348 80.075 239.923 79.9 239.323 79.9C238.706 79.9 238.223 80.0833 237.873 80.45C237.523 80.8167 237.348 81.3333 237.348 82V89H233.548V69.5H237.348V79.075C238.081 77.7417 239.248 77.075 240.848 77.075C242.215 77.075 243.215 77.4417 243.848 78.175C244.481 78.9083 244.798 80 244.798 81.45V89H240.998V82ZM248.907 87.6C247.674 86.5167 247.057 85.0667 247.057 83.25C247.057 81.4333 247.674 79.9833 248.907 78.9C250.157 77.8 251.732 77.25 253.632 77.25C255.532 77.25 257.107 77.8 258.357 78.9C259.59 79.9833 260.207 81.4333 260.207 83.25C260.207 85.0667 259.59 86.5167 258.357 87.6C257.107 88.7 255.532 89.25 253.632 89.25C251.732 89.25 250.157 88.7 248.907 87.6ZM250.957 83.25C250.957 84.1167 251.207 84.8167 251.707 85.35C252.207 85.8667 252.849 86.125 253.632 86.125C254.415 86.125 255.057 85.8667 255.557 85.35C256.057 84.8167 256.307 84.1167 256.307 83.25C256.307 82.3667 256.049 81.6667 255.532 81.15C254.999 80.6167 254.365 80.35 253.632 80.35C252.899 80.35 252.265 80.6167 251.732 81.15C251.215 81.6667 250.957 82.3667 250.957 83.25ZM266.654 89C266.204 88.6 265.979 88.1083 265.979 87.525C265.979 86.9417 266.204 86.45 266.654 86.05C267.104 85.65 267.662 85.45 268.329 85.45C268.995 85.45 269.554 85.65 270.004 86.05C270.454 86.45 270.679 86.9417 270.679 87.525C270.679 88.1083 270.454 88.6 270.004 89C269.554 89.4 268.995 89.6 268.329 89.6C267.662 89.6 267.104 89.4 266.654 89ZM271.479 76.5C271.479 75.7667 271.229 75.2 270.729 74.8C270.229 74.4 269.545 74.2 268.679 74.2C267.929 74.2 267.195 74.3917 266.479 74.775C265.795 75.1417 265.212 75.6833 264.729 76.4L262.179 74.25C263.112 73.1667 264.112 72.35 265.179 71.8C266.229 71.2667 267.479 71 268.929 71C270.662 71 272.162 71.5 273.429 72.5C274.695 73.5 275.329 74.8333 275.329 76.5C275.329 77.9167 274.795 79.0917 273.729 80.025C272.662 80.9583 271.404 81.575 269.954 81.875L269.829 83.975H266.779L266.279 79.5H267.079C268.462 79.5 269.545 79.1833 270.329 78.55C271.095 77.9333 271.479 77.25 271.479 76.5Z" fill="black"/>
<path d="M42.86 146H39.11V135.5H42.86C44.59 135.5 45.96 135.97 46.97 136.91C47.99 137.85 48.5 139.13 48.5 140.75C48.5 142.36 47.99 143.64 46.97 144.59C45.96 145.53 44.59 146 42.86 146ZM41.72 143.75H42.77C43.67 143.75 44.41 143.51 44.99 143.03C45.57 142.55 45.86 141.79 45.86 140.75C45.86 139.71 45.57 138.95 44.99 138.47C44.41 137.99 43.67 137.75 42.77 137.75H41.72V143.75ZM51.641 143.93C51.641 144.42 51.971 144.665 52.631 144.665C53.611 144.665 54.126 144.215 54.176 143.315C53.816 143.135 53.381 143.045 52.871 143.045C52.471 143.045 52.171 143.125 51.971 143.285C51.751 143.455 51.641 143.67 51.641 143.93ZM50.771 141.23L49.991 139.7C51.131 139.17 52.181 138.905 53.141 138.905C54.101 138.905 54.876 139.1 55.466 139.49C56.056 139.88 56.351 140.43 56.351 141.14V146H54.176V145.025C53.986 145.375 53.686 145.65 53.276 145.85C52.856 146.05 52.386 146.15 51.866 146.15C51.106 146.15 50.496 145.965 50.036 145.595C49.586 145.235 49.361 144.73 49.361 144.08C49.361 143.39 49.636 142.84 50.186 142.43C50.736 142.02 51.456 141.815 52.346 141.815C53.016 141.815 53.626 141.95 54.176 142.22V141.59C54.176 141.31 54.066 141.08 53.846 140.9C53.626 140.72 53.331 140.63 52.961 140.63C52.171 140.63 51.441 140.83 50.771 141.23ZM64.9272 143.3C64.9272 143.72 65.0022 144.035 65.1522 144.245C65.3022 144.455 65.5572 144.56 65.9172 144.56C66.2972 144.56 66.5922 144.45 66.8022 144.23C67.0122 144.01 67.1172 143.7 67.1172 143.3V139.1H69.3972V146H67.1172V144.965C66.6872 145.755 65.9872 146.15 65.0172 146.15C63.3772 146.15 62.5572 145.28 62.5572 143.54V139.1H64.9272V143.3ZM81.7152 141.56V146H79.4352V141.8C79.4352 140.96 79.1352 140.54 78.5352 140.54C78.2252 140.54 77.9802 140.65 77.8002 140.87C77.6202 141.09 77.5302 141.4 77.5302 141.8V146H75.2502V141.8C75.2502 140.96 74.9552 140.54 74.3652 140.54C74.0552 140.54 73.8102 140.65 73.6302 140.87C73.4502 141.09 73.3602 141.4 73.3602 141.8V146H71.1852V139.1H73.3602V140.12C73.7702 139.34 74.4352 138.95 75.3552 138.95C76.3752 138.95 77.0302 139.325 77.3202 140.075C77.8602 139.325 78.5952 138.95 79.5252 138.95C80.2952 138.95 80.8552 139.17 81.2052 139.61C81.5452 140.04 81.7152 140.69 81.7152 141.56ZM85.2298 143.93C85.2298 144.42 85.5598 144.665 86.2198 144.665C87.1998 144.665 87.7148 144.215 87.7648 143.315C87.4048 143.135 86.9698 143.045 86.4598 143.045C86.0598 143.045 85.7598 143.125 85.5598 143.285C85.3398 143.455 85.2298 143.67 85.2298 143.93ZM84.3598 141.23L83.5798 139.7C84.7198 139.17 85.7698 138.905 86.7298 138.905C87.6898 138.905 88.4648 139.1 89.0548 139.49C89.6448 139.88 89.9398 140.43 89.9398 141.14V146H87.7648V145.025C87.5748 145.375 87.2748 145.65 86.8648 145.85C86.4448 146.05 85.9748 146.15 85.4548 146.15C84.6948 146.15 84.0848 145.965 83.6248 145.595C83.1748 145.235 82.9498 144.73 82.9498 144.08C82.9498 143.39 83.2248 142.84 83.7748 142.43C84.3248 142.02 85.0448 141.815 85.9348 141.815C86.6048 141.815 87.2148 141.95 87.7648 142.22V141.59C87.7648 141.31 87.6548 141.08 87.4348 140.9C87.2148 140.72 86.9198 140.63 86.5498 140.63C85.7598 140.63 85.0298 140.83 84.3598 141.23ZM96.8361 145.16C96.0961 144.51 95.7261 143.64 95.7261 142.55C95.7261 141.46 96.0961 140.59 96.8361 139.94C97.5861 139.28 98.5311 138.95 99.6711 138.95C100.811 138.95 101.756 139.28 102.506 139.94C103.246 140.59 103.616 141.46 103.616 142.55C103.616 143.64 103.246 144.51 102.506 145.16C101.756 145.82 100.811 146.15 99.6711 146.15C98.5311 146.15 97.5861 145.82 96.8361 145.16ZM98.0661 142.55C98.0661 143.07 98.2161 143.49 98.5161 143.81C98.8161 144.12 99.2011 144.275 99.6711 144.275C100.141 144.275 100.526 144.12 100.826 143.81C101.126 143.49 101.276 143.07 101.276 142.55C101.276 142.02 101.121 141.6 100.811 141.29C100.491 140.97 100.111 140.81 99.6711 140.81C99.2311 140.81 98.8511 140.97 98.5311 141.29C98.2211 141.6 98.0661 142.02 98.0661 142.55ZM104.979 134.3H107.259V146H104.979V134.3ZM113.492 141.8C113.492 141.39 113.412 141.075 113.252 140.855C113.102 140.645 112.847 140.54 112.487 140.54C112.117 140.54 111.827 140.65 111.617 140.87C111.407 141.09 111.302 141.4 111.302 141.8V146H109.022V134.3H111.302V140.045C111.742 139.245 112.442 138.845 113.402 138.845C114.222 138.845 114.822 139.065 115.202 139.505C115.582 139.945 115.772 140.6 115.772 141.47V146H113.492V141.8ZM119.287 143.93C119.287 144.42 119.617 144.665 120.277 144.665C121.257 144.665 121.772 144.215 121.822 143.315C121.462 143.135 121.027 143.045 120.517 143.045C120.117 143.045 119.817 143.125 119.617 143.285C119.397 143.455 119.287 143.67 119.287 143.93ZM118.417 141.23L117.637 139.7C118.777 139.17 119.827 138.905 120.787 138.905C121.747 138.905 122.522 139.1 123.112 139.49C123.702 139.88 123.997 140.43 123.997 141.14V146H121.822V145.025C121.632 145.375 121.332 145.65 120.922 145.85C120.502 146.05 120.032 146.15 119.512 146.15C118.752 146.15 118.142 145.965 117.682 145.595C117.232 145.235 117.007 144.73 117.007 144.08C117.007 143.39 117.282 142.84 117.832 142.43C118.382 142.02 119.102 141.815 119.992 141.815C120.662 141.815 121.272 141.95 121.822 142.22V141.59C121.822 141.31 121.712 141.08 121.492 140.9C121.272 140.72 120.977 140.63 120.607 140.63C119.817 140.63 119.087 140.83 118.417 141.23ZM126.247 145.19C125.607 144.55 125.287 143.67 125.287 142.55C125.287 141.43 125.607 140.55 126.247 139.91C126.887 139.27 127.657 138.95 128.557 138.95C129.577 138.95 130.367 139.37 130.927 140.21V134.3H133.207V146H130.927V144.89C130.367 145.73 129.577 146.15 128.557 146.15C127.657 146.15 126.887 145.83 126.247 145.19ZM127.672 142.55C127.672 143.07 127.832 143.5 128.152 143.84C128.462 144.16 128.852 144.32 129.322 144.32C129.742 144.32 130.112 144.16 130.432 143.84C130.762 143.51 130.927 143.08 130.927 142.55C130.927 142.03 130.762 141.605 130.432 141.275C130.102 140.945 129.732 140.78 129.322 140.78C128.852 140.78 128.462 140.945 128.152 141.275C127.832 141.615 127.672 142.04 127.672 142.55ZM135.19 137.405C134.93 137.175 134.8 136.88 134.8 136.52C134.8 136.16 134.93 135.865 135.19 135.635C135.45 135.405 135.76 135.29 136.12 135.29C136.48 135.29 136.79 135.405 137.05 135.635C137.31 135.865 137.44 136.16 137.44 136.52C137.44 136.88 137.31 137.175 137.05 137.405C136.79 137.635 136.48 137.75 136.12 137.75C135.76 137.75 135.45 137.635 135.19 137.405ZM135.01 139.1H137.215V146H135.01V139.1ZM143.565 141.8C143.565 141.39 143.485 141.075 143.325 140.855C143.175 140.645 142.92 140.54 142.56 140.54C142.19 140.54 141.9 140.65 141.69 140.87C141.48 141.09 141.375 141.4 141.375 141.8V146H139.095V139.1H141.375V140.135C141.805 139.345 142.505 138.95 143.475 138.95C145.115 138.95 145.935 139.82 145.935 141.56V146H143.565V141.8ZM152.193 141.8C152.193 141.39 152.113 141.075 151.953 140.855C151.803 140.645 151.548 140.54 151.188 140.54C150.818 140.54 150.528 140.65 150.318 140.87C150.108 141.09 150.003 141.4 150.003 141.8V146H147.723V134.3H150.003V140.045C150.443 139.245 151.143 138.845 152.103 138.845C152.923 138.845 153.523 139.065 153.903 139.505C154.283 139.945 154.473 140.6 154.473 141.47V146H152.193V141.8ZM157.989 143.93C157.989 144.42 158.319 144.665 158.979 144.665C159.959 144.665 160.474 144.215 160.524 143.315C160.164 143.135 159.729 143.045 159.219 143.045C158.819 143.045 158.519 143.125 158.319 143.285C158.099 143.455 157.989 143.67 157.989 143.93ZM157.119 141.23L156.339 139.7C157.479 139.17 158.529 138.905 159.489 138.905C160.449 138.905 161.224 139.1 161.814 139.49C162.404 139.88 162.699 140.43 162.699 141.14V146H160.524V145.025C160.334 145.375 160.034 145.65 159.624 145.85C159.204 146.05 158.734 146.15 158.214 146.15C157.454 146.15 156.844 145.965 156.384 145.595C155.934 145.235 155.709 144.73 155.709 144.08C155.709 143.39 155.984 142.84 156.534 142.43C157.084 142.02 157.804 141.815 158.694 141.815C159.364 141.815 159.974 141.95 160.524 142.22V141.59C160.524 141.31 160.414 141.08 160.194 140.9C159.974 140.72 159.679 140.63 159.309 140.63C158.519 140.63 157.789 140.83 157.119 141.23ZM173.375 141.8C173.375 141.39 173.295 141.075 173.135 140.855C172.985 140.645 172.73 140.54 172.37 140.54C172 140.54 171.71 140.65 171.5 140.87C171.29 141.09 171.185 141.4 171.185 141.8V146H168.905V139.1H171.185V140.135C171.615 139.345 172.315 138.95 173.285 138.95C174.925 138.95 175.745 139.82 175.745 141.56V146H173.375V141.8ZM178.223 145.16C177.483 144.51 177.113 143.64 177.113 142.55C177.113 141.46 177.483 140.59 178.223 139.94C178.973 139.28 179.918 138.95 181.058 138.95C182.198 138.95 183.143 139.28 183.893 139.94C184.633 140.59 185.003 141.46 185.003 142.55C185.003 143.64 184.633 144.51 183.893 145.16C183.143 145.82 182.198 146.15 181.058 146.15C179.918 146.15 178.973 145.82 178.223 145.16ZM179.453 142.55C179.453 143.07 179.603 143.49 179.903 143.81C180.203 144.12 180.588 144.275 181.058 144.275C181.528 144.275 181.913 144.12 182.213 143.81C182.513 143.49 182.663 143.07 182.663 142.55C182.663 142.02 182.508 141.6 182.198 141.29C181.878 140.97 181.498 140.81 181.058 140.81C180.618 140.81 180.238 140.97 179.918 141.29C179.608 141.6 179.453 142.02 179.453 142.55ZM201.393 141.56V146H199.113V141.8C199.113 140.96 198.813 140.54 198.213 140.54C197.903 140.54 197.658 140.65 197.478 140.87C197.298 141.09 197.208 141.4 197.208 141.8V146H194.928V141.8C194.928 140.96 194.633 140.54 194.043 140.54C193.733 140.54 193.488 140.65 193.308 140.87C193.128 141.09 193.038 141.4 193.038 141.8V146H190.863V139.1H193.038V140.12C193.448 139.34 194.113 138.95 195.033 138.95C196.053 138.95 196.708 139.325 196.998 140.075C197.538 139.325 198.273 138.95 199.203 138.95C199.973 138.95 200.533 139.17 200.883 139.61C201.223 140.04 201.393 140.69 201.393 141.56ZM208.058 141.695C207.898 140.975 207.408 140.615 206.588 140.615C206.188 140.615 205.838 140.71 205.538 140.9C205.258 141.08 205.073 141.345 204.983 141.695H208.058ZM202.823 142.55C202.823 141.47 203.178 140.6 203.888 139.94C204.588 139.28 205.503 138.95 206.633 138.95C207.633 138.95 208.468 139.27 209.138 139.91C209.808 140.55 210.143 141.395 210.143 142.445C210.143 142.615 210.133 142.81 210.113 143.03H204.938C205.108 143.96 205.673 144.425 206.633 144.425C207.383 144.425 207.878 144.16 208.118 143.63L210.008 144.26C209.378 145.52 208.218 146.15 206.528 146.15C205.428 146.15 204.538 145.815 203.858 145.145C203.168 144.475 202.823 143.61 202.823 142.55ZM213.99 143.3C213.99 143.72 214.065 144.035 214.215 144.245C214.365 144.455 214.62 144.56 214.98 144.56C215.36 144.56 215.655 144.45 215.865 144.23C216.075 144.01 216.18 143.7 216.18 143.3V139.1H218.46V146H216.18V144.965C215.75 145.755 215.05 146.15 214.08 146.15C212.44 146.15 211.62 145.28 211.62 143.54V139.1H213.99V143.3ZM232.62 142.55C232.62 143.68 232.295 144.58 231.645 145.25C230.995 145.91 230.225 146.24 229.335 146.24C228.285 146.24 227.505 145.795 226.995 144.905V149.3H224.715V139.1H226.995V140.195C227.505 139.305 228.285 138.86 229.335 138.86C230.235 138.86 231.005 139.185 231.645 139.835C232.295 140.505 232.62 141.41 232.62 142.55ZM229.755 143.78C230.075 143.48 230.235 143.07 230.235 142.55C230.235 142.03 230.075 141.62 229.755 141.32C229.435 141.02 229.045 140.87 228.585 140.87C228.145 140.87 227.775 141.015 227.475 141.305C227.155 141.605 226.995 142.02 226.995 142.55C226.995 143.07 227.155 143.48 227.475 143.78C227.795 144.08 228.165 144.23 228.585 144.23C229.045 144.23 229.435 144.08 229.755 143.78ZM238.878 141.695C238.718 140.975 238.228 140.615 237.408 140.615C237.008 140.615 236.658 140.71 236.358 140.9C236.078 141.08 235.893 141.345 235.803 141.695H238.878ZM233.643 142.55C233.643 141.47 233.998 140.6 234.708 139.94C235.408 139.28 236.323 138.95 237.453 138.95C238.453 138.95 239.288 139.27 239.958 139.91C240.628 140.55 240.963 141.395 240.963 142.445C240.963 142.615 240.953 142.81 240.933 143.03H235.758C235.928 143.96 236.493 144.425 237.453 144.425C238.203 144.425 238.698 144.16 238.938 143.63L240.828 144.26C240.198 145.52 239.038 146.15 237.348 146.15C236.248 146.15 235.358 145.815 234.678 145.145C233.988 144.475 233.643 143.61 233.643 142.55ZM246.655 141.455C246.385 141.185 246.09 141.05 245.77 141.05C245.43 141.05 245.16 141.185 244.96 141.455C244.76 141.735 244.66 142.115 244.66 142.595V146H242.44V139.1H244.66V139.97C245.12 139.28 245.7 138.935 246.4 138.935C246.64 138.935 246.88 138.99 247.12 139.1C247.35 139.21 247.525 139.345 247.645 139.505L246.655 141.455ZM252.447 136.49C252.247 136.23 252.017 136.1 251.757 136.1C251.277 136.1 251.037 136.44 251.037 137.12V139.1H252.687V140.975H251.037V146H248.847V140.975H247.977V139.1H248.847V136.55C248.847 135.77 249.067 135.16 249.507 134.72C249.947 134.28 250.592 134.06 251.442 134.06C252.152 134.06 252.787 134.31 253.347 134.81L252.447 136.49ZM254.003 137.405C253.743 137.175 253.613 136.88 253.613 136.52C253.613 136.16 253.743 135.865 254.003 135.635C254.263 135.405 254.573 135.29 254.933 135.29C255.293 135.29 255.603 135.405 255.863 135.635C256.123 135.865 256.253 136.16 256.253 136.52C256.253 136.88 256.123 137.175 255.863 137.405C255.603 137.635 255.293 137.75 254.933 137.75C254.573 137.75 254.263 137.635 254.003 137.405ZM253.823 139.1H256.028V146H253.823V139.1ZM257.909 134.3H260.189V146H257.909V134.3Z" fill="black"/>
<path d="M31.6166 209.625V207.125H45.5228V209.625H39.8978V229H37.2416V209.625H31.6166ZM48.3304 207.125H50.9867V215.875H63.0179V207.125H65.6742V229H63.0179V218.375H50.9867V229H48.3304V207.125ZM70.6693 207.125H73.3256V229H70.6693V207.125ZM81.7355 222.437L78.9542 229H75.9855L86.1417 206.031L96.298 229H93.3292L90.548 222.437H81.7355ZM82.798 219.937H89.4855L86.1417 212.062L82.798 219.937ZM108.169 220.406V217.906H118.326C118.326 221.094 117.378 223.792 115.482 226C113.607 228.208 111.065 229.313 107.857 229.313C104.669 229.313 102.023 228.25 99.9193 226.125C97.8151 224 96.7631 221.312 96.7631 218.062C96.7631 214.812 97.8151 212.125 99.9193 210C102.023 207.875 104.669 206.812 107.857 206.812C112.003 206.812 115.034 208.365 116.951 211.469L115.076 213.187C113.596 210.708 111.19 209.469 107.857 209.469C105.503 209.469 103.534 210.271 101.951 211.875C100.367 213.479 99.5756 215.542 99.5756 218.062C99.5756 220.583 100.367 222.646 101.951 224.25C103.534 225.854 105.503 226.656 107.857 226.656C109.919 226.656 111.607 226.073 112.919 224.906C114.232 223.719 115.076 222.219 115.451 220.406H108.169ZM124.15 226.094C122.046 223.948 120.994 221.271 120.994 218.062C120.994 214.854 122.046 212.177 124.15 210.031C126.254 207.885 128.9 206.812 132.088 206.812C135.275 206.812 137.921 207.885 140.025 210.031C142.129 212.177 143.182 214.854 143.182 218.062C143.182 221.271 142.129 223.948 140.025 226.094C137.921 228.24 135.275 229.313 132.088 229.313C128.9 229.313 126.254 228.24 124.15 226.094ZM126.15 211.906C124.588 213.531 123.807 215.583 123.807 218.062C123.807 220.542 124.588 222.594 126.15 224.219C127.713 225.844 129.692 226.656 132.088 226.656C134.484 226.656 136.463 225.844 138.025 224.219C139.588 222.594 140.369 220.542 140.369 218.062C140.369 215.583 139.588 213.531 138.025 211.906C136.463 210.281 134.484 209.469 132.088 209.469C129.692 209.469 127.713 210.281 126.15 211.906ZM158.958 226.344H162.864C165.343 226.344 167.343 225.594 168.864 224.094C170.385 222.594 171.145 220.583 171.145 218.062C171.145 215.542 170.385 213.531 168.864 212.031C167.343 210.531 165.343 209.781 162.864 209.781H158.958V226.344ZM162.864 229H156.302V207.125H162.864C166.072 207.125 168.697 208.135 170.739 210.156C172.781 212.177 173.802 214.812 173.802 218.062C173.802 221.312 172.781 223.948 170.739 225.969C168.697 227.99 166.072 229 162.864 229ZM180.002 222.437L177.221 229H174.252L184.408 206.031L194.565 229H191.596L188.815 222.437H180.002ZM181.065 219.937H187.752L184.408 212.062L181.065 219.937ZM207.595 221.937C208.282 223.521 209.084 224.729 210.001 225.562C210.918 226.396 212.022 226.812 213.313 226.812C214.543 226.812 215.47 226.5 216.095 225.875C216.74 225.25 217.063 224.385 217.063 223.281C217.063 222.615 216.928 222.021 216.657 221.5C216.386 220.958 215.97 220.5 215.407 220.125C214.845 219.75 214.313 219.448 213.813 219.219C213.334 218.969 212.709 218.708 211.938 218.437C208.272 217.125 206.438 215.073 206.438 212.281C206.438 210.656 207.043 209.344 208.251 208.344C209.459 207.323 210.97 206.812 212.782 206.812C214.407 206.812 215.813 207.281 217.001 208.219C218.188 209.156 219.032 210.25 219.532 211.5L217.376 212.938C216.793 211.833 216.157 210.958 215.47 210.312C214.782 209.667 213.897 209.344 212.813 209.344C211.709 209.344 210.834 209.625 210.188 210.187C209.543 210.75 209.22 211.51 209.22 212.469C209.22 213.427 209.647 214.208 210.501 214.812C211.355 215.396 212.615 216 214.282 216.625C217.97 217.979 219.813 220.125 219.813 223.062C219.813 224.958 219.23 226.479 218.063 227.625C216.918 228.75 215.282 229.313 213.157 229.313C211.407 229.313 209.845 228.771 208.47 227.687C207.095 226.583 206.053 225.115 205.345 223.281L207.595 221.937ZM223.715 207.125H226.371V229H223.715V207.125ZM231.375 207.125H234.031V226.5H242.625V229H231.375V207.125ZM249.502 224.062L256.69 207.125H259.659L249.502 230.094L239.346 207.125H242.315L249.502 224.062ZM261.972 222.437L259.191 229H256.222L266.379 206.031L276.535 229H273.566L270.785 222.437H261.972ZM263.035 219.937H269.722L266.379 212.062L263.035 219.937Z" fill="black"/>
<g clip-path="url(#clip0_3638:41009)">
<path d="M64.1532 39.1176C64.1532 39.1176 60.2791 26.4672 46.2185 24.2881C32.158 22.1091 24.4268 33.0042 24.4268 33.0042C24.4268 33.0042 32.4873 25.7408 43.4195 30.4935C43.4195 30.4935 48.8311 32.9146 52.4268 39.12L64.1532 39.1176Z" fill="url(#paint0_linear_3638:41009)"/>
<path d="M46.9299 45.8125H64.1527C64.1527 45.8125 63.8621 57.9182 53.2907 61.1117C42.7193 64.3051 38.0752 58.2741 38.0752 58.2741C38.0752 58.2741 47.4457 62.7387 53.3754 53.2962L46.8912 53.2623L46.9299 45.8125Z" fill="url(#paint1_linear_3638:41009)"/>
<path d="M46.6532 35.0208C46.6532 35.0208 34.3699 24.5324 22.7742 37.4928C22.7742 37.4928 14.319 47.555 24.4304 60.8592C34.5418 74.1633 49.7234 68.9603 49.7234 68.9603C49.7234 68.9603 62.4304 66.055 65.244 50.8817C65.244 50.8817 61.8323 62.9874 49.1253 64.0139C49.1253 64.0139 41.1955 65.8903 33.3481 56.7651C33.3481 56.7651 26.9534 48.6639 31.8154 40.3013C36.6774 31.9387 46.6532 35.0208 46.6532 35.0208Z" fill="url(#paint2_linear_3638:41009)"/>
<path d="M21.7579 87.2621V85.7804H27.7724C27.7724 87.6689 27.2139 89.2668 26.0969 90.5742C24.9798 91.8816 23.4713 92.5362 21.5714 92.5378C19.6828 92.5378 18.1154 91.9083 16.8692 90.6493C15.6231 89.3903 15 87.798 15 85.8724C15 83.9468 15.6231 82.3553 16.8692 81.0979C18.1154 79.8405 19.6828 79.2086 21.5714 79.2021C24.0266 79.2021 25.8224 80.1214 26.9588 81.9598L25.8475 82.9791C24.9709 81.5103 23.5456 80.7759 21.5714 80.7759C20.9214 80.7593 20.275 80.8775 19.6728 81.1229C19.0707 81.3683 18.5259 81.7357 18.0726 82.2019C17.1364 83.151 16.6675 84.3721 16.6659 85.8651C16.6642 87.3582 17.1332 88.58 18.0726 89.5307C18.5259 89.997 19.0707 90.3643 19.6728 90.6098C20.275 90.8552 20.9214 90.9733 21.5714 90.9568C22.7934 90.9568 23.7934 90.6081 24.5714 89.9108C25.3496 89.2115 25.8763 88.2757 26.0702 87.2476L21.7579 87.2621Z" fill="#00C09E"/>
<path d="M39.363 79.3936H41.1209L36.8061 86.7611V92.3515H35.2347V86.7829L30.9199 79.3936H32.6754L36.0095 85.3931L39.363 79.3936Z" fill="#00C09E"/>
<path d="M45.6373 88.4655L43.9908 92.3514H42.2305L48.2474 78.7471L54.2644 92.3514H52.5065L50.8576 88.4655H45.6373ZM46.2668 86.9838H50.2281L48.2474 82.3182L46.2668 86.9838Z" fill="#00C09E"/>
<path d="M68.4264 79.3935H70.0002V93.0027L60.1891 82.7105V92.3539H58.6152V78.7471L68.4264 89.0393V79.3935Z" fill="#00C09E"/>
</g>
<defs>
<linearGradient id="paint0_linear_3638:41009" x1="24.4316" y1="31.5588" x2="64.1532" y2="31.5588" gradientUnits="userSpaceOnUse">
<stop stop-color="#008FE5"/>
<stop offset="0.41" stop-color="#00A1CB"/>
<stop offset="1" stop-color="#00C09E"/>
</linearGradient>
<linearGradient id="paint1_linear_3638:41009" x1="2523.26" y1="2052.08" x2="5331.8" y2="2052.08" gradientUnits="userSpaceOnUse">
<stop stop-color="#008FE5"/>
<stop offset="0.41" stop-color="#00A1CB"/>
<stop offset="1" stop-color="#00C09E"/>
</linearGradient>
<linearGradient id="paint2_linear_3638:41009" x1="863.666" y1="4292.02" x2="9519.49" y2="4292.02" gradientUnits="userSpaceOnUse">
<stop stop-color="#008FE5"/>
<stop offset="0.41" stop-color="#00A1CB"/>
<stop offset="1" stop-color="#00C09E"/>
</linearGradient>
<clipPath id="clip0_3638:41009">
<rect width="55" height="69" fill="white" transform="translate(15 24)"/>
</clipPath>
</defs>
</svg>
