<svg width="300" height="300" viewBox="0 0 300 300" fill="none" xmlns="http://www.w3.org/2000/svg">
<rect width="300" height="300" fill="#CACACA"/>
<g clip-path="url(#clip0_3638:40997)">
<path d="M267.751 202.881C267.751 202.881 261.623 182.897 239.382 179.455C217.141 176.013 204.911 193.224 204.911 193.224C204.911 193.224 217.661 181.75 234.954 189.258C234.954 189.258 243.518 193.083 249.202 202.885L267.751 202.881Z" fill="white"/>
<path d="M240.508 213.457H267.751C267.751 213.457 267.291 232.581 250.569 237.625C233.847 242.67 226.501 233.143 226.501 233.143C226.501 233.143 241.323 240.195 250.703 225.279L240.45 225.226L240.508 213.457Z" fill="white"/>
<path d="M240.071 196.41C240.071 196.41 220.641 179.842 202.298 200.315C202.298 200.315 188.924 216.211 204.918 237.227C220.913 258.244 244.927 250.025 244.927 250.025C244.927 250.025 265.027 245.435 269.478 221.466C269.478 221.466 264.081 240.589 243.981 242.211C243.981 242.211 231.438 245.175 219.028 230.76C219.028 230.76 208.909 217.962 216.6 204.752C224.291 191.541 240.071 196.41 240.071 196.41Z" fill="white"/>
<path d="M200.69 278.936V276.595H210.204C210.204 279.578 209.32 282.102 207.553 284.168C205.786 286.233 203.4 287.267 200.395 287.27C197.407 287.27 194.928 286.275 192.957 284.286C190.986 282.297 190 279.782 190 276.74C190 273.698 190.986 271.184 192.957 269.198C194.928 267.212 197.407 266.213 200.395 266.203C204.278 266.203 207.119 267.655 208.917 270.559L207.159 272.17C205.772 269.849 203.518 268.689 200.395 268.689C199.367 268.663 198.344 268.85 197.392 269.237C196.439 269.625 195.577 270.205 194.86 270.942C193.379 272.441 192.638 274.37 192.635 276.729C192.633 279.087 193.374 281.017 194.86 282.519C195.577 283.256 196.439 283.836 197.392 284.224C198.344 284.612 199.367 284.798 200.395 284.772C202.328 284.772 203.91 284.221 205.14 283.12C206.371 282.015 207.204 280.537 207.511 278.913L200.69 278.936Z" fill="white"/>
<path d="M228.538 266.505H231.319L224.494 278.143V286.975H222.008V278.178L215.183 266.505H217.959L223.233 275.982L228.538 266.505Z" fill="white"/>
<path d="M238.462 280.837L235.858 286.975H233.073L242.591 265.484L252.109 286.975H249.328L246.72 280.837H238.462ZM239.458 278.496H245.724L242.591 271.126L239.458 278.496Z" fill="white"/>
<path d="M274.511 266.506H277V288.004L261.481 271.745V286.979H258.991V265.484L274.511 281.743V266.506Z" fill="white"/>
</g>
<path d="M66.555 75.5V77.9H71.1V80H64.11V69.5H71.1V71.6H66.555V73.46H70.8V75.5H66.555ZM74.3331 76.235C74.7231 76.915 75.1031 77.395 75.4731 77.675C75.8631 77.975 76.3331 78.125 76.8831 78.125C77.7331 78.125 78.1581 77.785 78.1581 77.105C78.1581 77.045 78.1481 76.955 78.1281 76.835C78.1181 76.755 78.0781 76.675 78.0081 76.595C77.9681 76.545 77.9181 76.48 77.8581 76.4C77.8081 76.33 77.7381 76.27 77.6481 76.22C77.5481 76.16 77.4631 76.105 77.3931 76.055C77.3431 76.025 77.2381 75.975 77.0781 75.905C77.0181 75.885 76.9531 75.86 76.8831 75.83C76.8131 75.8 76.7681 75.78 76.7481 75.77L76.3731 75.62C76.3231 75.6 76.2731 75.58 76.2231 75.56C76.1731 75.54 76.1231 75.525 76.0731 75.515C76.0331 75.495 76.0081 75.48 75.9981 75.47C75.6581 75.33 75.3581 75.195 75.0981 75.065C74.8381 74.925 74.5381 74.725 74.1981 74.465C73.8481 74.195 73.5881 73.875 73.4181 73.505C73.2381 73.115 73.1481 72.68 73.1481 72.2C73.1481 71.32 73.4931 70.61 74.1831 70.07C74.8731 69.53 75.7631 69.26 76.8531 69.26C77.8631 69.26 78.6981 69.49 79.3581 69.95C79.9881 70.39 80.4331 70.93 80.6931 71.57L78.7881 72.665C78.3081 71.835 77.6981 71.42 76.9581 71.42C76.5881 71.42 76.2931 71.5 76.0731 71.66C75.8631 71.81 75.7581 72.02 75.7581 72.29C75.7581 72.73 76.4531 73.195 77.8431 73.685C77.9031 73.705 78.0081 73.745 78.1581 73.805C79.9381 74.415 80.8281 75.5 80.8281 77.06C80.8281 78.11 80.4731 78.92 79.7631 79.49C79.0731 80.05 78.0931 80.33 76.8231 80.33C75.8531 80.33 74.9831 80.07 74.2131 79.55C73.4331 79.03 72.8781 78.34 72.5481 77.48L74.3331 76.235ZM81.4731 71.78V69.5H89.7831V71.78H86.9031V80H84.3531V71.78H81.4731ZM94.1713 76.04H96.4963L95.3413 73.37L94.1713 76.04ZM93.6613 77.975L92.6713 80H89.7913L95.3413 68.84L100.861 80H97.9813L96.9913 77.975H93.6613ZM97.7113 65.69L95.0113 67.94L93.7213 67.295L95.9713 64.895L97.7113 65.69ZM108.994 74.27H110.104C110.624 74.27 111.029 74.155 111.319 73.925C111.599 73.705 111.739 73.375 111.739 72.935C111.739 72.495 111.599 72.165 111.319 71.945C111.029 71.715 110.624 71.6 110.104 71.6H108.994V74.27ZM108.994 76.37V80H106.459V69.5H110.104C111.414 69.5 112.424 69.8 113.134 70.4C113.834 71 114.184 71.845 114.184 72.935C114.184 74.025 113.834 74.87 113.134 75.47C112.424 76.07 111.414 76.37 110.104 76.37H108.994ZM118.339 74.39H119.449C119.969 74.39 120.369 74.27 120.649 74.03C120.939 73.79 121.084 73.455 121.084 73.025C121.084 72.595 120.939 72.26 120.649 72.02C120.359 71.78 119.959 71.66 119.449 71.66H118.339V74.39ZM118.339 76.37V80H115.804V69.5H119.644C120.954 69.5 121.964 69.81 122.674 70.43C123.374 71.04 123.724 71.875 123.724 72.935C123.724 73.665 123.544 74.3 123.184 74.84C122.824 75.38 122.304 75.78 121.624 76.04L124.354 80H121.369L119.119 76.37H118.339ZM127.961 75.5V77.9H132.506V80H125.516V69.5H132.506V71.6H127.961V73.46H132.206V75.5H127.961ZM137.644 72.515C137.034 73.075 136.729 73.82 136.729 74.75C136.729 75.68 137.034 76.425 137.644 76.985C138.254 77.545 138.994 77.825 139.864 77.825C141.104 77.825 142.149 77.36 142.999 76.43V79.19C142.089 79.89 140.994 80.24 139.714 80.24C138.014 80.24 136.629 79.735 135.559 78.725C134.489 77.715 133.954 76.39 133.954 74.75C133.954 73.12 134.489 71.8 135.559 70.79C136.639 69.77 138.024 69.26 139.714 69.26C140.994 69.26 142.089 69.61 142.999 70.31V73.07C142.149 72.14 141.104 71.675 139.864 71.675C138.994 71.675 138.254 71.955 137.644 72.515ZM145.057 69.5H147.637V80H145.057V69.5ZM151.047 76.235C151.437 76.915 151.817 77.395 152.187 77.675C152.577 77.975 153.047 78.125 153.597 78.125C154.447 78.125 154.872 77.785 154.872 77.105C154.872 77.045 154.862 76.955 154.842 76.835C154.832 76.755 154.792 76.675 154.722 76.595C154.682 76.545 154.632 76.48 154.572 76.4C154.522 76.33 154.452 76.27 154.362 76.22C154.262 76.16 154.177 76.105 154.107 76.055C154.057 76.025 153.952 75.975 153.792 75.905C153.732 75.885 153.667 75.86 153.597 75.83C153.527 75.8 153.482 75.78 153.462 75.77L153.087 75.62C153.037 75.6 152.987 75.58 152.937 75.56C152.887 75.54 152.837 75.525 152.787 75.515C152.747 75.495 152.722 75.48 152.712 75.47C152.372 75.33 152.072 75.195 151.812 75.065C151.552 74.925 151.252 74.725 150.912 74.465C150.562 74.195 150.302 73.875 150.132 73.505C149.952 73.115 149.862 72.68 149.862 72.2C149.862 71.32 150.207 70.61 150.897 70.07C151.587 69.53 152.477 69.26 153.567 69.26C154.577 69.26 155.412 69.49 156.072 69.95C156.702 70.39 157.147 70.93 157.407 71.57L155.502 72.665C155.022 71.835 154.412 71.42 153.672 71.42C153.302 71.42 153.007 71.5 152.787 71.66C152.577 71.81 152.472 72.02 152.472 72.29C152.472 72.73 153.167 73.195 154.557 73.685C154.617 73.705 154.722 73.745 154.872 73.805C156.652 74.415 157.542 75.5 157.542 77.06C157.542 78.11 157.187 78.92 156.477 79.49C155.787 80.05 154.807 80.33 153.537 80.33C152.567 80.33 151.697 80.07 150.927 79.55C150.147 79.03 149.592 78.34 149.262 77.48L151.047 76.235ZM162.477 76.04H164.802L163.647 73.37L162.477 76.04ZM161.967 77.975L160.977 80H158.097L163.647 68.84L169.167 80H166.287L165.297 77.975H161.967ZM177.512 69.5H179.957V80.525L172.712 74.21V80H170.267V68.975L177.512 75.29V69.5ZM185.912 80H182.162V69.5H185.912C187.642 69.5 189.012 69.97 190.022 70.91C191.042 71.85 191.552 73.13 191.552 74.75C191.552 76.36 191.042 77.64 190.022 78.59C189.012 79.53 187.642 80 185.912 80ZM184.772 77.75H185.822C186.722 77.75 187.462 77.51 188.042 77.03C188.622 76.55 188.912 75.79 188.912 74.75C188.912 73.71 188.622 72.95 188.042 72.47C187.462 71.99 186.722 71.75 185.822 71.75H184.772V77.75ZM196.073 72.47C195.523 73.07 195.248 73.83 195.248 74.75C195.248 75.67 195.523 76.43 196.073 77.03C196.613 77.61 197.323 77.9 198.203 77.9C199.083 77.9 199.798 77.61 200.348 77.03C200.898 76.45 201.173 75.69 201.173 74.75C201.173 73.8 200.908 73.04 200.378 72.47C199.838 71.89 199.113 71.6 198.203 71.6C197.323 71.6 196.613 71.89 196.073 72.47ZM194.153 78.755C193.093 77.695 192.563 76.36 192.563 74.75C192.563 73.14 193.098 71.825 194.168 70.805C195.248 69.775 196.593 69.26 198.203 69.26C199.813 69.26 201.163 69.775 202.253 70.805C203.333 71.825 203.873 73.14 203.873 74.75C203.873 76.37 203.343 77.705 202.283 78.755C201.223 79.805 199.863 80.33 198.203 80.33C196.553 80.33 195.203 79.805 194.153 78.755Z" fill="black"/>
<path d="M96.555 265.5V267.9H101.1V270H94.11V259.5H101.1V261.6H96.555V263.46H100.8V265.5H96.555ZM104.333 266.235C104.723 266.915 105.103 267.395 105.473 267.675C105.863 267.975 106.333 268.125 106.883 268.125C107.733 268.125 108.158 267.785 108.158 267.105C108.158 267.045 108.148 266.955 108.128 266.835C108.118 266.755 108.078 266.675 108.008 266.595C107.968 266.545 107.918 266.48 107.858 266.4C107.808 266.33 107.738 266.27 107.648 266.22C107.548 266.16 107.463 266.105 107.393 266.055C107.343 266.025 107.238 265.975 107.078 265.905C107.018 265.885 106.953 265.86 106.883 265.83C106.813 265.8 106.768 265.78 106.748 265.77L106.373 265.62C106.323 265.6 106.273 265.58 106.223 265.56C106.173 265.54 106.123 265.525 106.073 265.515C106.033 265.495 106.008 265.48 105.998 265.47C105.658 265.33 105.358 265.195 105.098 265.065C104.838 264.925 104.538 264.725 104.198 264.465C103.848 264.195 103.588 263.875 103.418 263.505C103.238 263.115 103.148 262.68 103.148 262.2C103.148 261.32 103.493 260.61 104.183 260.07C104.873 259.53 105.763 259.26 106.853 259.26C107.863 259.26 108.698 259.49 109.358 259.95C109.988 260.39 110.433 260.93 110.693 261.57L108.788 262.665C108.308 261.835 107.698 261.42 106.958 261.42C106.588 261.42 106.293 261.5 106.073 261.66C105.863 261.81 105.758 262.02 105.758 262.29C105.758 262.73 106.453 263.195 107.843 263.685C107.903 263.705 108.008 263.745 108.158 263.805C109.938 264.415 110.828 265.5 110.828 267.06C110.828 268.11 110.473 268.92 109.763 269.49C109.073 270.05 108.093 270.33 106.823 270.33C105.853 270.33 104.983 270.07 104.213 269.55C103.433 269.03 102.878 268.34 102.548 267.48L104.333 266.235ZM111.473 261.78V259.5H119.783V261.78H116.903V270H114.353V261.78H111.473ZM124.171 266.04H126.496L125.341 263.37L124.171 266.04ZM123.661 267.975L122.671 270H119.791L125.341 258.84L130.861 270H127.981L126.991 267.975H123.661ZM127.711 255.69L125.011 257.94L123.721 257.295L125.971 254.895L127.711 255.69ZM143.704 259.5H146.149V270.525L138.904 264.21V270H136.459V258.975L143.704 265.29V259.5ZM151.593 266.04H153.918L152.763 263.37L151.593 266.04ZM151.083 267.975L150.093 270H147.213L152.763 258.84L158.283 270H155.403L154.413 267.975H151.083Z" fill="black"/>
<path d="M10.7072 148.668V107.988H36.8072V148.668H10.7072ZM35.0072 129.264C35.0072 125.88 33.9632 123.096 31.8752 120.912C29.8112 118.704 26.8712 117.6 23.0552 117.6H13.2992V119.868H16.2512V138.732H13.2992V141H23.1632C26.8592 141 29.7512 139.908 31.8392 137.724C33.9512 135.516 35.0072 132.696 35.0072 129.264ZM32.1992 129.3C32.1992 132.204 31.4072 134.508 29.8232 136.212C28.2632 137.892 25.9952 138.732 23.0192 138.732H18.8792V119.868H23.0192C25.9952 119.868 28.2632 120.732 29.8232 122.46C31.4072 124.188 32.1992 126.468 32.1992 129.3ZM35.9528 148.668V107.988H53.5928V148.668H35.9528ZM51.9728 136.392L49.8488 135.924C49.6088 136.908 49.1288 137.7 48.4088 138.3C47.6888 138.9 46.6928 139.2 45.4208 139.2C42.1808 139.2 40.4888 137.328 40.3448 133.584H51.6128C51.7568 132.936 51.8288 132.3 51.8288 131.676C51.8048 129.78 51.2168 128.136 50.0648 126.744C48.9128 125.352 47.2328 124.656 45.0248 124.656C42.7688 124.656 40.9808 125.46 39.6608 127.068C38.3408 128.676 37.6808 130.728 37.6808 133.224C37.6808 135.816 38.3768 137.82 39.7688 139.236C41.1608 140.652 42.9848 141.36 45.2408 141.36C47.2088 141.36 48.7688 140.88 49.9208 139.92C51.0728 138.936 51.7568 137.76 51.9728 136.392ZM49.1648 131.712H40.3808C40.5488 130.368 40.9808 129.204 41.6768 128.22C42.3728 127.236 43.4648 126.744 44.9528 126.744C46.5128 126.744 47.6288 127.272 48.3008 128.328C48.9968 129.384 49.2848 130.512 49.1648 131.712ZM52.7223 148.668V107.988H69.1743V148.668H52.7223ZM67.4463 136.356C67.4463 135.084 67.1103 134.148 66.4383 133.548C65.7663 132.924 64.9383 132.492 63.9543 132.252C62.9703 132.012 61.9863 131.82 61.0023 131.676C60.0183 131.508 59.1903 131.256 58.5183 130.92C57.8463 130.56 57.5103 129.96 57.5103 129.12C57.5103 128.304 57.8343 127.704 58.4823 127.32C59.1303 126.936 59.9583 126.744 60.9663 126.744C62.1423 126.744 63.2343 127.008 64.2423 127.536L64.6383 130.128L66.7263 129.876L66.3303 126.132C65.6583 125.724 64.8303 125.376 63.8463 125.088C62.8863 124.8 61.8543 124.656 60.7503 124.656C59.2863 124.656 57.9303 125.004 56.6823 125.7C55.4343 126.396 54.8103 127.596 54.8103 129.3C54.8103 130.548 55.1463 131.472 55.8183 132.072C56.4903 132.648 57.3303 133.056 58.3383 133.296C59.3463 133.536 60.3423 133.74 61.3263 133.908C62.3343 134.076 63.1743 134.34 63.8463 134.7C64.5183 135.06 64.8543 135.684 64.8543 136.572C64.8543 137.484 64.4103 138.168 63.5223 138.624C62.6583 139.056 61.6623 139.272 60.5343 139.272C59.2623 139.272 58.0743 139.008 56.9703 138.48L57.0783 136.356L55.0623 136.14L54.5583 139.776C55.2543 140.232 56.1543 140.616 57.2583 140.928C58.3863 141.216 59.5143 141.36 60.6423 141.36C62.5623 141.36 64.1703 140.916 65.4663 140.028C66.7863 139.14 67.4463 137.916 67.4463 136.356ZM68.2965 148.668V107.988H79.1325V148.668H68.2965ZM72.4365 117.564V120.84H75.1725V117.564H72.4365ZM69.8805 141H78.0165V138.948H75.2085V124.98H69.8085V127.032H72.6885V138.948H69.8805V141ZM78.2809 148.668V107.988H98.7649V148.668H87.6409C90.0409 148.572 91.8889 147.78 93.1849 146.292C94.5049 144.828 95.1649 142.872 95.1649 140.424V127.032H97.7569V124.98H92.6089V127.5C91.5289 125.604 89.7169 124.656 87.1729 124.656C84.7009 124.656 82.8889 125.58 81.7369 127.428C80.5849 129.276 80.0089 131.268 80.0089 133.404C80.0089 135.924 80.6809 137.856 82.0249 139.2C83.3689 140.544 84.9889 141.216 86.8849 141.216C88.3969 141.216 89.6089 140.868 90.5209 140.172C91.4329 139.476 92.1289 138.66 92.6089 137.724V140.316C92.6089 142.308 92.1169 143.832 91.1329 144.888C90.1729 145.944 88.9249 146.472 87.3889 146.472C86.3089 146.472 85.2649 146.196 84.2569 145.644C83.2489 145.092 82.5409 144.192 82.1329 142.944L80.1169 143.952C80.5249 145.488 81.3409 146.64 82.5649 147.408C83.8129 148.176 85.2169 148.596 86.7769 148.668H78.2809ZM92.6089 131.316V134.088C92.5609 135.288 92.0569 136.416 91.0969 137.472C90.1609 138.504 88.9369 139.02 87.4249 139.02C86.1049 139.02 84.9889 138.552 84.0769 137.616C83.1649 136.656 82.7089 135.192 82.7089 133.224C82.7089 131.544 83.1049 130.068 83.8969 128.796C84.7129 127.5 86.0329 126.852 87.8569 126.852C89.1529 126.852 90.2689 127.26 91.2049 128.076C92.1409 128.892 92.6089 129.972 92.6089 131.316ZM97.8981 148.668V107.988H119.282V148.668H97.8981ZM110.462 141H118.562V138.948H115.79V130.74C115.79 128.604 115.262 127.056 114.206 126.096C113.15 125.136 111.842 124.656 110.282 124.656C107.69 124.656 105.818 125.712 104.666 127.824V124.98H99.2661V127.032H102.146V138.948H99.3381V141H107.474V138.948H104.666V131.46C104.714 130.236 105.17 129.156 106.034 128.22C106.922 127.26 108.086 126.78 109.526 126.78C110.606 126.78 111.494 127.14 112.19 127.86C112.886 128.556 113.234 129.768 113.234 131.496V138.948H110.462V141ZM118.429 148.668V107.988H136.069V148.668H118.429ZM134.449 136.392L132.325 135.924C132.085 136.908 131.605 137.7 130.885 138.3C130.165 138.9 129.169 139.2 127.897 139.2C124.657 139.2 122.965 137.328 122.821 133.584H134.089C134.233 132.936 134.305 132.3 134.305 131.676C134.281 129.78 133.693 128.136 132.541 126.744C131.389 125.352 129.709 124.656 127.501 124.656C125.245 124.656 123.457 125.46 122.137 127.068C120.817 128.676 120.157 130.728 120.157 133.224C120.157 135.816 120.853 137.82 122.245 139.236C123.637 140.652 125.461 141.36 127.717 141.36C129.685 141.36 131.245 140.88 132.397 139.92C133.549 138.936 134.233 137.76 134.449 136.392ZM131.641 131.712H122.857C123.025 130.368 123.457 129.204 124.153 128.22C124.849 127.236 125.941 126.744 127.429 126.744C128.989 126.744 130.105 127.272 130.777 128.328C131.473 129.384 131.761 130.512 131.641 131.712ZM135.199 148.668V107.988H151.039V148.668H135.199ZM145.783 124.692C144.871 124.692 144.055 125.004 143.335 125.628C142.639 126.228 142.135 126.972 141.823 127.86V124.98H136.567V127.032H139.447V138.948H136.639V141H145.675V138.948H141.967V131.064C141.967 129.816 142.279 128.808 142.903 128.04C143.527 127.248 144.307 126.852 145.243 126.852C145.651 126.852 146.059 126.924 146.467 127.068L147.079 129.804L149.131 129.552L148.519 125.52C147.847 124.968 146.935 124.692 145.783 124.692ZM150.067 148.668V107.988H160.183V148.668H150.067ZM159.14 148.668V107.988H184.772V148.668H159.14ZM181.568 131.28H183.404V128.94H173.36V131.28H178.94V133.368C178.94 134.784 178.352 136.08 177.176 137.256C176 138.408 174.344 138.984 172.208 138.984C169.64 138.984 167.588 138.096 166.052 136.32C164.516 134.544 163.748 132.204 163.748 129.3C163.748 126.444 164.552 124.116 166.16 122.316C167.768 120.516 169.88 119.616 172.496 119.616C173.936 119.616 175.112 119.796 176.024 120.156C176.96 120.492 177.752 120.876 178.4 121.308L179.12 124.62L181.352 124.368L180.704 119.976C179.816 119.184 178.664 118.536 177.248 118.032C175.856 117.504 174.224 117.24 172.352 117.24C170.12 117.24 168.14 117.792 166.412 118.896C164.708 119.976 163.364 121.44 162.38 123.288C161.42 125.112 160.94 127.152 160.94 129.408C160.94 132.768 161.936 135.6 163.928 137.904C165.92 140.208 168.524 141.36 171.74 141.36C173.468 141.36 174.968 141.024 176.24 140.352C177.536 139.656 178.532 138.792 179.228 137.76L179.552 141H181.568V131.28ZM183.925 148.668V107.988H199.765V148.668H183.925ZM194.509 124.692C193.597 124.692 192.781 125.004 192.061 125.628C191.365 126.228 190.861 126.972 190.549 127.86V124.98H185.293V127.032H188.173V138.948H185.365V141H194.401V138.948H190.693V131.064C190.693 129.816 191.005 128.808 191.629 128.04C192.253 127.248 193.033 126.852 193.969 126.852C194.377 126.852 194.785 126.924 195.193 127.068L195.805 129.804L197.857 129.552L197.245 125.52C196.573 124.968 195.661 124.692 194.509 124.692ZM198.902 148.668V107.988H217.01V148.668H198.902ZM206.642 122.28L212.834 118.536L211.394 116.412L205.85 121.164L206.642 122.28ZM202.178 126.204L201.602 129.912L203.69 130.164L204.302 127.392C205.19 126.96 206.222 126.744 207.398 126.744C208.838 126.744 209.798 127.104 210.278 127.824C210.782 128.544 211.034 129.48 211.034 130.632V132.072C210.602 132.024 210.134 131.988 209.63 131.964C209.15 131.94 208.67 131.928 208.19 131.928C206.39 131.928 204.686 132.252 203.078 132.9C201.494 133.524 200.702 134.844 200.702 136.86C200.702 138.564 201.242 139.74 202.322 140.388C203.426 141.036 204.506 141.36 205.562 141.36C206.858 141.36 207.962 141.024 208.874 140.352C209.81 139.68 210.53 138.912 211.034 138.048V138.12C211.082 140.28 212.054 141.36 213.95 141.36C214.694 141.36 215.39 141.18 216.038 140.82L216.002 139.164C215.69 139.308 215.33 139.38 214.922 139.38C214.01 139.38 213.554 138.804 213.554 137.652V130.02C213.554 126.444 211.646 124.656 207.83 124.656C206.774 124.656 205.778 124.776 204.842 125.016C203.906 125.256 203.018 125.652 202.178 126.204ZM211.034 134.988C210.938 136.308 210.398 137.352 209.414 138.12C208.454 138.888 207.422 139.272 206.318 139.272C205.622 139.272 204.95 139.08 204.302 138.696C203.654 138.312 203.33 137.604 203.33 136.572C203.33 135.324 203.81 134.52 204.77 134.16C205.754 133.776 206.846 133.584 208.046 133.584C208.574 133.584 209.09 133.608 209.594 133.656C210.098 133.704 210.578 133.74 211.034 133.764V134.988ZM216.129 148.668V107.988H237.369V148.668H216.129ZM230.889 127.032V138.948H228.117V141H236.217V138.948H233.445V124.98H222.753V122.208C222.753 120.672 223.149 119.58 223.941 118.932C224.733 118.284 225.729 117.96 226.929 117.96C227.721 117.96 228.417 118.056 229.017 118.248C229.617 118.416 230.061 118.584 230.349 118.752L230.997 121.452L233.085 121.2L232.473 117.456C231.849 117 231.069 116.628 230.133 116.34C229.197 116.028 228.201 115.872 227.145 115.872C225.225 115.872 223.581 116.436 222.213 117.564C220.869 118.668 220.197 120.24 220.197 122.28V124.98H217.893V127.032H220.197V138.948H217.425V141H226.389V138.948H222.753V127.032H230.889ZM236.519 148.668V107.988H253.835V148.668H236.519ZM252.287 135.6L250.127 135.132C249.647 137.844 248.207 139.2 245.807 139.2C244.223 139.2 243.011 138.66 242.171 137.58C241.331 136.5 240.911 135 240.911 133.08C240.911 131.352 241.283 129.876 242.027 128.652C242.771 127.428 243.995 126.816 245.699 126.816C247.019 126.816 248.159 127.116 249.119 127.716L249.731 130.416L251.819 130.164L251.207 126.312C250.391 125.688 249.539 125.256 248.651 125.016C247.763 124.776 246.791 124.656 245.735 124.656C243.239 124.656 241.367 125.532 240.119 127.284C238.871 129.036 238.247 131.016 238.247 133.224C238.247 135.792 238.907 137.796 240.227 139.236C241.547 140.652 243.311 141.36 245.519 141.36C247.727 141.36 249.347 140.748 250.379 139.524C251.435 138.3 252.071 136.992 252.287 135.6ZM252.972 148.668V107.988H272.16V148.668H252.972ZM262.584 124.62C259.992 124.62 258.024 125.46 256.68 127.14C255.336 128.796 254.664 130.788 254.664 133.116C254.664 135.54 255.348 137.52 256.716 139.056C258.108 140.592 260.016 141.36 262.44 141.36C264.912 141.36 266.868 140.568 268.308 138.984C269.748 137.4 270.468 135.396 270.468 132.972C270.468 130.692 269.808 128.736 268.488 127.104C267.168 125.448 265.2 124.62 262.584 124.62ZM262.512 139.2C260.808 139.2 259.512 138.6 258.624 137.4C257.736 136.2 257.292 134.724 257.292 132.972C257.292 131.196 257.736 129.72 258.624 128.544C259.536 127.368 260.832 126.78 262.512 126.78C264.192 126.78 265.488 127.356 266.4 128.508C267.336 129.636 267.804 131.112 267.804 132.936C267.804 134.736 267.348 136.236 266.436 137.436C265.524 138.612 264.216 139.2 262.512 139.2ZM271.289 107.988H288.137V148.668H271.289V107.988ZM275.465 124.44L275.933 120.984C277.061 120.048 278.357 119.58 279.821 119.58C281.141 119.58 282.137 119.856 282.809 120.408C283.481 120.96 283.817 121.644 283.817 122.46C283.817 123.444 283.445 124.272 282.701 124.944C281.981 125.592 281.141 126.204 280.181 126.78C279.245 127.356 278.405 128.004 277.661 128.724C276.941 129.444 276.581 130.344 276.581 131.424C276.581 132.336 276.941 133.104 277.661 133.728C278.381 134.328 279.557 134.58 281.189 134.484V132.684C279.917 132.684 279.281 132.192 279.281 131.208C279.281 130.416 279.653 129.72 280.397 129.12C281.141 128.52 281.993 127.92 282.953 127.32C283.913 126.696 284.765 125.976 285.509 125.16C286.253 124.344 286.625 123.324 286.625 122.1C286.625 120.588 285.977 119.4 284.681 118.536C283.385 117.672 281.825 117.24 280.001 117.24C278.777 117.24 277.589 117.504 276.437 118.032C275.309 118.56 274.385 119.196 273.665 119.94L273.377 124.26L275.465 124.44ZM277.661 141H280.865V137.508H277.661V141Z" fill="black"/>
<path d="M38.2772 246.343V233.913H44.7892V246.343H38.2772ZM43.7442 239.083L44.4592 239.028L44.2392 236.85H38.8272L38.6182 239.028L39.3222 239.083L39.5422 237.554H41.1262V243.296H39.8942V244H43.1942V243.296H41.9292V237.554H43.5242L43.7442 239.083ZM44.5291 246.343V233.913H48.2911V246.343H44.5291ZM45.1011 244H47.7081V243.296H46.8171V237.554H47.7081V236.85H45.1011V237.554H46.0031V243.296H45.1011V244ZM48.0311 246.343V233.913H56.5671V246.343H48.0311ZM53.3771 244H55.9841V243.296H55.0821V237.554H55.9841V236.85H53.3771V237.554H54.2791V240.018H50.3081V237.554H51.2101V236.85H48.6031V237.554H49.5051V243.296H48.6031V244H51.2101V243.296H50.3081V240.7H54.2791V243.296H53.3771V244ZM56.3026 233.913H63.4086V243.296H62.5396L60.1966 236.85H58.1506V237.554H59.2946L57.1716 243.296H56.3026V233.913ZM59.9106 238.016L61.0766 241.294H58.6676L59.8556 238.016H59.9106ZM63.4086 246.343H56.3026V244H58.8106V243.296H57.9306L58.4366 241.921H61.2966L61.7806 243.296H60.9336V244H63.4086V246.343ZM63.1453 246.343V233.913H70.9773V246.343H63.1453ZM69.9983 241.03H70.5593V240.315H67.4903V241.03H69.1953V241.668C69.1953 242.101 69.0157 242.497 68.6563 242.856C68.297 243.208 67.791 243.384 67.1383 243.384C66.3537 243.384 65.7267 243.113 65.2573 242.57C64.788 242.027 64.5533 241.312 64.5533 240.425C64.5533 239.552 64.799 238.841 65.2903 238.291C65.7817 237.741 66.427 237.466 67.2263 237.466C67.6663 237.466 68.0257 237.521 68.3043 237.631C68.5903 237.734 68.8323 237.851 69.0303 237.983L69.2503 238.995L69.9323 238.918L69.7343 237.576C69.463 237.334 69.111 237.136 68.6783 236.982C68.253 236.821 67.7543 236.74 67.1823 236.74C66.5003 236.74 65.8953 236.909 65.3673 237.246C64.8467 237.576 64.436 238.023 64.1353 238.588C63.842 239.145 63.6953 239.769 63.6953 240.458C63.6953 241.485 63.9997 242.35 64.6083 243.054C65.217 243.758 66.0127 244.11 66.9953 244.11C67.5233 244.11 67.9817 244.007 68.3703 243.802C68.7663 243.589 69.0707 243.325 69.2833 243.01L69.3823 244H69.9983V241.03ZM70.7186 246.343V233.913H78.9576V246.343H70.7186ZM78.4186 240.425C78.4186 239.406 78.0886 238.537 77.4286 237.818C76.7686 237.099 75.9033 236.74 74.8326 236.74C73.7766 236.74 72.9149 237.099 72.2476 237.818C71.5876 238.529 71.2576 239.398 71.2576 240.425C71.2576 241.437 71.5803 242.306 72.2256 243.032C72.8709 243.751 73.7326 244.11 74.8106 244.11C75.5293 244.11 76.1599 243.945 76.7026 243.615C77.2453 243.278 77.6669 242.83 77.9676 242.273C78.2683 241.716 78.4186 241.1 78.4186 240.425ZM77.5496 240.436C77.5496 241.265 77.3113 241.965 76.8346 242.537C76.3579 243.102 75.6979 243.384 74.8546 243.384C73.9893 243.384 73.3183 243.091 72.8416 242.504C72.3649 241.917 72.1266 241.221 72.1266 240.414C72.1266 239.593 72.3649 238.896 72.8416 238.324C73.3183 237.752 73.9819 237.466 74.8326 237.466C75.6613 237.466 76.3213 237.748 76.8126 238.313C77.3039 238.87 77.5496 239.578 77.5496 240.436ZM78.6563 246.343V233.913H81.7473V246.343H78.6563ZM81.3845 246.343V233.913H89.3595V246.343H81.3845ZM88.8095 240.414C88.8095 239.38 88.4905 238.529 87.8525 237.862C87.2219 237.187 86.3235 236.85 85.1575 236.85H82.1765V237.543H83.0785V243.307H82.1765V244H85.1905C86.3199 244 87.2035 243.666 87.8415 242.999C88.4869 242.324 88.8095 241.463 88.8095 240.414ZM87.9515 240.425C87.9515 241.312 87.7095 242.016 87.2255 242.537C86.7489 243.05 86.0559 243.307 85.1465 243.307H83.8815V237.543H85.1465C86.0559 237.543 86.7489 237.807 87.2255 238.335C87.7095 238.863 87.9515 239.56 87.9515 240.425ZM89.0985 233.913H96.2045V243.296H95.3355L92.9925 236.85H90.9465V237.554H92.0905L89.9675 243.296H89.0985V233.913ZM92.7065 238.016L93.8725 241.294H91.4635L92.6515 238.016H92.7065ZM96.2045 246.343H89.0985V244H91.6065V243.296H90.7265L91.2325 241.921H94.0925L94.5765 243.296H93.7295V244H96.2045V246.343ZM95.9082 246.343V233.913H98.9992V246.343H95.9082ZM98.6805 246.343V233.913H104.764V246.343H98.6805ZM104.181 241.998C104.181 241.455 104.049 241.048 103.785 240.777C103.528 240.498 103.216 240.304 102.85 240.194C102.49 240.077 102.149 239.981 101.827 239.908C101.423 239.813 101.057 239.688 100.727 239.534C100.397 239.38 100.232 239.079 100.232 238.632C100.232 238.251 100.367 237.961 100.639 237.763C100.917 237.558 101.28 237.455 101.728 237.455C101.94 237.455 102.164 237.477 102.399 237.521C102.633 237.558 102.864 237.635 103.092 237.752L103.202 238.819L103.862 238.753L103.796 237.334C103.568 237.158 103.253 237.015 102.85 236.905C102.446 236.795 102.047 236.74 101.651 236.74C101.035 236.74 100.499 236.901 100.045 237.224C99.5972 237.547 99.3735 238.045 99.3735 238.72C99.3735 239.189 99.4835 239.549 99.7035 239.798C99.9235 240.04 100.199 240.22 100.529 240.337C100.859 240.447 101.192 240.539 101.53 240.612C101.97 240.715 102.377 240.85 102.751 241.019C103.125 241.18 103.312 241.532 103.312 242.075C103.312 242.559 103.139 242.904 102.795 243.109C102.457 243.307 102.054 243.406 101.585 243.406C101.321 243.406 101.068 243.384 100.826 243.34C100.584 243.296 100.342 243.212 100.1 243.087L100.144 242.185L99.4835 242.119L99.3295 243.527C99.8648 243.916 100.631 244.11 101.629 244.11C102.355 244.11 102.96 243.93 103.444 243.571C103.935 243.212 104.181 242.687 104.181 241.998ZM104.503 246.343V233.913H108.265V246.343H104.503ZM105.075 244H107.682V243.296H106.791V237.554H107.682V236.85H105.075V237.554H105.977V243.296H105.075V244ZM108.005 246.343V233.913H114.209V246.343H108.005ZM108.577 244H113.626L113.846 241.712L113.131 241.657L112.911 243.296H110.282V237.554H111.481V236.85H108.577V237.554H109.479V243.296H108.577V244ZM116.607 237.554V236.85H113.945V233.913H120.875V236.85H118.257V237.554H119.269L117.487 242.812H117.432L115.606 237.554H116.607ZM120.875 246.343H113.945V237.554H114.726L117.091 244H117.729L120.094 237.554H120.875V246.343ZM120.616 233.913H127.722V243.296H126.853L124.51 236.85H122.464V237.554H123.608L121.485 243.296H120.616V233.913ZM124.224 238.016L125.39 241.294H122.981L124.169 238.016H124.224ZM127.722 246.343H120.616V244H123.124V243.296H122.244L122.75 241.921H125.61L126.094 243.296H125.247V244H127.722V246.343Z" fill="black"/>
<path d="M145.888 95H142.888V86.6H145.888C147.272 86.6 148.368 86.976 149.176 87.728C149.992 88.48 150.4 89.504 150.4 90.8C150.4 92.088 149.992 93.112 149.176 93.872C148.368 94.624 147.272 95 145.888 95ZM144.976 93.2H145.816C146.536 93.2 147.128 93.008 147.592 92.624C148.056 92.24 148.288 91.632 148.288 90.8C148.288 89.968 148.056 89.36 147.592 88.976C147.128 88.592 146.536 88.4 145.816 88.4H144.976V93.2ZM153.645 91.4V93.32H157.281V95H151.689V86.6H157.281V88.28H153.645V89.768H157.041V91.4H153.645Z" fill="black"/>
<defs>
<clipPath id="clip0_3638:40997">
<rect width="87" height="109" fill="white" transform="translate(190 179)"/>
</clipPath>
</defs>
</svg>
