<svg width="24" height="24" viewBox="0 0 24 24" fill="none" xmlns="http://www.w3.org/2000/svg">
<path d="M18.5204 14.4508C18.4511 13.937 18.0036 13.5498 17.4792 13.5498H6.51993C5.99621 13.5498 5.54811 13.937 5.47874 14.4508L4.61567 20.8232C4.57567 21.12 4.66692 21.4197 4.86628 21.6451C5.06564 21.8706 5.35375 22.0001 5.65686 22.0001H18.3423C18.6454 22.0001 18.9335 21.8706 19.1329 21.6451C19.3323 21.4197 19.4235 21.12 19.3835 20.8232L18.5204 14.4508ZM18.606 21.1893C18.5398 21.2643 18.4436 21.3077 18.3423 21.3077H5.65686C5.55561 21.3077 5.45999 21.2643 5.39312 21.1893C5.32688 21.1144 5.29625 21.0143 5.30938 20.9156L6.17245 14.5433C6.19557 14.3717 6.34494 14.2429 6.5193 14.2429H17.4792C17.6536 14.2429 17.803 14.3717 17.8261 14.5433L18.6892 20.9156C18.7029 21.0143 18.6723 21.1137 18.606 21.1893Z" fill="#008FE5"/>
<path d="M20.2482 7.10376H3.75052C2.7837 7.10376 2 7.98169 2 9.06475V15.4364C2 15.8698 2.31373 16.2212 2.70058 16.2212H4.99856L5.15293 14.9295C4.91232 14.8056 4.74483 14.534 4.74483 14.2175V13.6665C4.74483 13.2332 5.05856 12.8817 5.44541 12.8817H18.5546C18.9414 12.8817 19.2552 13.2332 19.2552 13.6665V14.2175C19.2552 14.534 19.0877 14.8056 18.8471 14.9295L19.0014 16.2212H21.2994C21.6863 16.2212 22 15.8698 22 15.4364V9.06475C21.9988 7.98169 21.215 7.10376 20.2482 7.10376ZM4.79795 10.9095C4.25673 10.9095 3.81739 10.4181 3.81739 9.81106C3.81739 9.20407 4.25611 8.7126 4.79795 8.7126C5.33979 8.7126 5.77851 9.20407 5.77851 9.81106C5.77851 10.4181 5.33917 10.9095 4.79795 10.9095Z" fill="#008FE5"/>
<path d="M8.14978 16.3271H15.8493C16.0424 16.3271 16.1993 16.1717 16.1993 15.9806C16.1993 15.7895 16.0424 15.634 15.8493 15.634H8.14978C7.95667 15.634 7.7998 15.7895 7.7998 15.9806C7.7998 16.1717 7.95667 16.3271 8.14978 16.3271Z" fill="#008FE5"/>
<path d="M7.79822 18.197H16.2021C16.3952 18.197 16.552 18.0416 16.552 17.8505C16.552 17.6593 16.3952 17.5039 16.2021 17.5039H7.79822C7.60511 17.5039 7.44824 17.6593 7.44824 17.8505C7.44762 18.0416 7.60511 18.197 7.79822 18.197Z" fill="#008FE5"/>
<path d="M16.5516 19.3745H7.44715C7.25403 19.3745 7.09717 19.5299 7.09717 19.7211C7.09717 19.9122 7.25403 20.0676 7.44715 20.0676H16.551C16.7441 20.0676 16.9009 19.9122 16.9009 19.7211C16.9016 19.5299 16.7447 19.3745 16.5516 19.3745Z" fill="#008FE5"/>
<path d="M6.78798 3.17757C6.78798 2.96124 6.94485 2.78552 7.13796 2.78552H15.1012V4.37755V4.76961C15.1012 4.98594 15.2581 5.16167 15.4512 5.16167H17.2111V6.76631H17.9117V5.16167V5.15607V4.708C17.9117 4.49657 17.8354 4.29354 17.6998 4.14582L15.9374 2.22263C15.8068 2.07981 15.6312 2 15.4487 2H15.1012H7.13796C6.55862 2.0007 6.0874 2.52858 6.0874 3.17757V6.76631H6.78798V3.17757ZM15.8012 3.10966L16.9324 4.37685H15.9412C15.8637 4.37685 15.8012 4.30684 15.8012 4.22003V3.10966Z" fill="#008FE5"/>
</svg>
