<svg width="61" height="57" viewBox="0 0 61 57" fill="none" xmlns="http://www.w3.org/2000/svg">
<g clip-path="url(#clip0)">
<path d="M24.3177 56.9989C37.4011 56.9989 48.0481 46.6665 48.0481 33.9698C48.0481 27.9656 45.6698 22.4975 41.7797 18.3951L46.2455 14.0613C46.4025 14.2757 46.6525 14.4337 46.9433 14.4619L56.2935 15.4607C56.3284 15.4664 56.3691 15.4664 56.404 15.4664C56.9041 15.4664 57.3344 15.0996 57.3925 14.603C57.4507 14.0725 57.0552 13.5929 56.5145 13.5365L47.7457 12.5997L50.3159 10.1055C50.3566 10.1168 50.3973 10.1281 50.4438 10.1337L59.794 11.1325C59.8289 11.1382 59.8696 11.1382 59.9045 11.1382C60.4046 11.1382 60.8349 10.7714 60.893 10.2804C60.9512 9.75 60.5558 9.27034 60.0092 9.21391L52.1068 8.36746L56.9041 3.71198C57.2937 3.3339 57.2937 2.72446 56.9041 2.34638C56.5145 1.9683 55.8865 1.9683 55.4969 2.34638L50.5775 7.12036L47.9783 0.613975C47.7806 0.117391 47.2049 -0.130901 46.6932 0.0609609C46.1815 0.252823 45.9257 0.811481 46.1234 1.30806L49.0017 8.52547C49.0133 8.55368 49.0308 8.57061 49.0424 8.59883L46.9258 10.6529L44.3266 3.93206C44.1347 3.43548 43.559 3.18154 43.0415 3.36776C42.5298 3.55398 42.2681 4.11264 42.46 4.60922L45.3384 12.0523C45.35 12.0862 45.3732 12.1144 45.3907 12.1426L40.3667 17.0182C36.1393 13.243 30.4989 10.9294 24.3177 10.9294C11.2344 10.935 0.587402 21.2674 0.587402 33.9698C0.587402 46.6665 11.2344 56.9989 24.3177 56.9989ZM24.3177 12.8706C29.9523 12.8706 35.0984 14.9641 38.9595 18.3894L34.2611 22.949C31.6037 20.6861 28.1206 19.3093 24.3177 19.3093C15.9851 19.3093 9.2108 25.8834 9.2108 33.9698C9.2108 42.0562 15.9909 48.6303 24.3177 48.6303C32.6504 48.6303 39.4247 42.0562 39.4247 33.9698C39.4247 30.2736 38.0059 26.8991 35.6741 24.3146L40.3725 19.755C43.9021 23.5076 46.0594 28.4961 46.0594 33.9641C46.0594 45.6 36.3079 55.0633 24.3177 55.0633C12.3334 55.0633 2.57608 45.6 2.57608 33.9698C2.57608 22.3339 12.3334 12.8706 24.3177 12.8706ZM23.6141 34.6526C23.806 34.8388 24.0619 34.9347 24.3177 34.9347C24.5736 34.9347 24.8294 34.8388 25.0213 34.6526L28.0857 31.6787C28.516 32.3446 28.7719 33.129 28.7719 33.9698C28.7719 36.3511 26.7716 38.2923 24.3177 38.2923C21.8639 38.2923 19.8636 36.3511 19.8636 33.9698C19.8636 31.5884 21.8639 29.6472 24.3177 29.6472C25.1841 29.6472 25.9924 29.8955 26.6786 30.3131L23.6141 33.287C23.2245 33.6594 23.2245 34.2745 23.6141 34.6526ZM28.109 28.9193C27.0449 28.1631 25.7366 27.7117 24.3177 27.7117C20.7649 27.7117 17.8749 30.5163 17.8749 33.9641C17.8749 37.412 20.7649 40.2222 24.3177 40.2222C27.8706 40.2222 30.7664 37.4177 30.7664 33.9641C30.7664 32.5872 30.3012 31.3176 29.522 30.2849L34.2669 25.6802C36.2381 27.9092 37.436 30.8041 37.436 33.9641C37.436 40.984 31.5514 46.6948 24.3236 46.6948C17.0899 46.6948 11.2053 40.984 11.2053 33.9641C11.2053 26.9442 17.0899 21.2392 24.3236 21.2392C27.5799 21.2392 30.5629 22.4016 32.8597 24.3146L28.109 28.9193Z" fill="white"/>
</g>
<defs>
<clipPath id="clip0">
<rect width="60.3056" height="57" fill="white" transform="translate(0.587402)"/>
</clipPath>
</defs>
</svg>
