<svg width="59" height="47" viewBox="0 0 59 47" fill="none" xmlns="http://www.w3.org/2000/svg">
<g clip-path="url(#clip0)">
<path d="M44.4791 0L39.5131 4.86462C39.263 4.83044 39.013 4.80766 38.7629 4.79057C36.9835 4.08423 33.8202 3.58866 30.1102 6.38553L30.023 6.45958L28.8018 7.6558C24.2138 4.60829 20.5736 6.48806 19.5501 7.14883L14.9795 2.67155L0.587402 16.7812L6.04769 22.13C6.0884 24.5282 6.96065 26.9833 8.647 29.4669C9.3448 30.4922 10.1589 31.4321 11.037 32.3093C12.1593 33.4258 13.3048 34.5308 14.4329 35.6416C13.206 37.3961 13.7293 38.8486 15.0144 40.1531C16.3403 41.5088 17.5672 41.6683 19.3699 41.1556C19.3873 41.1499 19.4048 41.1556 19.4106 41.1727C20.7015 43.0696 21.8936 43.9867 23.1787 44.0892C23.7137 44.5962 24.2428 45.1088 24.7778 45.6158C26.3653 47.1196 28.7902 47.4557 30.7091 46.3791C31.5349 45.9177 31.6802 45.5304 32.0989 44.8753C35.3437 47.5411 37.5011 47.5867 40.048 43.85C40.0597 43.8386 40.0771 43.8272 40.0887 43.8329C41.8914 44.3455 43.1125 44.186 44.4442 42.8303C45.7991 41.4518 46.3108 39.9081 44.7989 38.017C44.7873 38.0056 44.3977 37.5043 44.4151 37.5043C45.4909 37.5385 46.3457 36.8663 46.8167 36.2682C48.0727 34.6789 47.9913 33.0099 46.6481 31.3694C47.2354 30.7884 47.8285 30.2188 48.4158 29.6377C49.2997 28.7605 50.108 27.8206 50.8058 26.7953C52.498 24.3117 53.3644 21.8566 53.4109 19.4585L58.8712 14.1097L44.4791 0ZM11.915 30.2586C10.2578 28.5441 9.01916 26.6529 8.47255 24.5054C8.35044 24.0269 8.26321 23.537 8.21669 23.0301C8.17599 22.6199 8.16436 22.1984 8.17599 21.7655L2.6401 16.3426L14.5434 4.68804L18.3581 8.4248L18.6081 8.66974L18.5907 8.70961L20.434 8.85771L20.5561 8.5672C21.283 8.08302 24.301 6.44249 28.3308 9.45013L33.6632 14.6964C33.9306 14.9584 34.076 15.3116 34.076 15.6876C34.076 16.0635 33.9248 16.4167 33.6573 16.6787L33.3084 17.0205C32.7502 17.5673 31.8431 17.5616 31.2906 17.0148L25.8362 11.6489L24.5103 12.5546L25.9874 14.2464L26.627 14.873C25.999 15.4882 25.3768 16.0977 24.7488 16.7129C24.5917 16.8667 24.5045 17.0319 24.458 17.1971C24.4289 17.2312 24.394 17.2597 24.365 17.2939C20.7015 20.8883 17.0264 24.4712 13.3688 28.077C12.6303 28.8061 12.1476 29.5295 11.915 30.2586ZM29.5868 44.8069C29.1682 45.2 28.732 45.4392 28.0982 45.3936C27.2259 45.3253 26.6212 44.6759 26.2025 44.2715C25.9466 44.0208 25.6908 43.7702 25.4291 43.5196C26.0339 43.2006 26.6735 42.762 27.3597 42.198C27.7842 42.8588 27.9237 43.2405 28.7495 43.7076C29.1216 43.9183 29.5112 44.0721 29.9125 44.1746C29.8543 44.4253 29.7438 44.6645 29.5868 44.8069ZM37.4429 44.0835C36.6288 45.0234 35.6926 45.1088 34.4947 44.0208C34.3086 43.85 34.1284 43.6791 33.9423 43.5082C34.204 43.3373 34.454 43.1493 34.6866 42.9329C35.3728 42.2835 36.0473 41.6284 36.7277 40.979C36.7974 41.0474 36.873 41.1214 36.9428 41.1898C38.0709 42.3006 38.2163 43.1892 37.4429 44.0835ZM43.1416 41.167C42.3159 42.2721 41.054 42.2949 39.9201 41.1898C39.356 40.6429 38.7978 40.0904 38.2338 39.5379C39.1583 38.6493 40.0887 37.772 41.0133 36.8777C41.5367 37.3904 42.06 37.8973 42.5776 38.41C43.5836 39.4069 43.758 40.341 43.1416 41.167ZM45.4444 34.6277C45.0257 35.6587 43.7755 36.1429 42.7869 35.6074C42.688 35.5562 42.595 35.4935 42.5078 35.4309C43.4033 34.565 44.2872 33.6878 45.1711 32.822C45.5548 33.3232 45.7526 33.8758 45.4444 34.6277ZM51.2884 19.0939C51.3001 19.5211 51.2884 19.9427 51.2477 20.3585C51.2012 20.8598 51.114 21.3554 50.9919 21.8338C50.4453 23.987 49.195 25.8896 47.5261 27.6099C45.2641 29.9396 42.8974 32.1726 40.5714 34.4454C38.1349 36.8321 35.71 39.2303 33.2561 41.5942C32.8374 41.9987 32.2327 42.6537 31.3604 42.7164C30.7324 42.7677 30.2963 42.5227 29.8776 42.1297C29.4996 41.7765 29.3775 40.8936 29.5229 40.341C29.6799 39.7429 30.2265 39.1961 30.6975 38.7233C31.8082 37.6068 32.9363 36.5188 34.0586 35.4138C34.6052 34.8783 35.1518 34.3372 35.6868 33.7903C36.2625 33.2093 37.9314 31.9903 36.9952 31.1245C36.1345 30.3327 34.8959 31.8593 34.3784 32.372C33.8318 32.9131 33.2852 33.4486 32.7269 33.9783C30.1509 36.4448 27.6039 38.9455 24.9639 41.3436C23.766 42.4316 22.8356 42.3461 22.0157 41.4063C21.2423 40.5176 21.3877 39.6233 22.5158 38.5182C25.4349 35.653 28.3599 32.7878 31.2848 29.9226C31.6977 29.5181 32.0524 29.2561 32.1222 28.6466C32.1745 28.1909 32.0059 27.7921 31.5291 27.7238C30.7266 27.6042 30.3777 27.9061 29.8601 28.413C26.4177 31.7795 22.9868 35.1574 19.5385 38.5182C18.4104 39.6233 17.1427 39.6005 16.317 38.4898C15.7006 37.6638 15.8692 36.7296 16.8752 35.7385C20.3642 32.3093 23.8591 28.8801 27.3655 25.4624C27.9354 24.9041 28.3831 24.2832 27.6853 23.6396C27.0166 23.0244 26.4409 23.5712 25.9292 24.0725C23.2427 26.7155 20.5445 29.3586 17.8463 31.9903C17.4858 32.3378 17.1078 32.6966 16.6717 32.9359C15.6832 33.4713 14.4329 32.9815 14.0143 31.9561C13.5839 30.9023 14.1364 30.2358 14.8225 29.5637C19.2943 25.2003 23.766 20.8313 28.1971 16.4338L30.0288 18.2338C30.651 18.849 31.4709 19.1566 32.2966 19.1566C33.1107 19.1566 33.9306 18.8547 34.5529 18.2452L34.9076 17.9034C35.5123 17.3167 35.8438 16.5306 35.8438 15.6932C35.8438 14.9072 35.5472 14.1723 35.0122 13.597L30.9534 9.58114L30.1567 8.79505L31.2383 7.72985C32.9188 6.47667 34.4133 6.03806 35.6519 5.9754C37.9139 5.77603 39.9143 6.93237 39.9143 6.93237L41.118 5.75894L44.9326 2.02218L56.8243 13.6711L51.2884 19.0939Z" fill="white"/>
</g>
<defs>
<clipPath id="clip0">
<rect width="58.2954" height="47" fill="white" transform="translate(0.587402)"/>
</clipPath>
</defs>
</svg>
