<svg width="39" height="58" viewBox="0 0 39 58" fill="none" xmlns="http://www.w3.org/2000/svg">
<g clip-path="url(#clip0)">
<path d="M38.8255 54.5371C38.8315 54.2923 38.9864 48.5383 35.2743 45.2154C34.9109 44.8889 34.3567 44.8656 33.9635 45.1571C33.7966 45.2795 29.8998 48.1011 26.2175 45.1687C25.8302 44.8598 25.2761 44.8714 24.9067 45.1921C24.853 45.2387 24.3764 45.6526 23.7805 46.428C23.2145 45.571 22.5292 44.7548 21.7189 44.0261C21.3554 43.6997 20.8013 43.6763 20.408 43.9678C20.1637 44.1485 14.3304 48.3984 8.77718 43.9736C8.38988 43.6647 7.83575 43.6763 7.46037 43.997C7.25182 44.1777 2.28845 48.4917 2.16332 56.9914C2.15736 57.2596 2.26462 57.5161 2.45528 57.7085C2.64595 57.9009 2.90813 58.0058 3.18221 58.0058L25.6276 58C26.1758 58 26.6286 57.5744 26.6465 57.0322C26.6525 56.9506 26.6644 56.3793 26.6048 55.5048H37.7947C38.3608 55.5048 38.8077 55.0793 38.8255 54.5371ZM4.25473 56.0062C4.61224 50.6837 7.10882 47.3432 8.24688 46.0782C13.5499 49.6926 18.9542 47.1858 20.9026 46.0374C23.9116 49.2029 24.4896 53.9775 24.5968 56.0004L4.25473 56.0062ZM26.3903 53.5111C26.152 52.007 25.7051 50.1823 24.8769 48.3984C25.1748 47.9262 25.4608 47.5414 25.6991 47.2674C28.9763 49.3487 32.4739 48.3751 34.4461 47.2441C36.1919 49.2262 36.6388 52.0478 36.752 53.5111H26.3903Z" fill="white"/>
<path d="M38.8255 54.5371C38.8315 54.2923 38.9864 48.5383 35.2743 45.2154C34.9109 44.8889 34.3567 44.8656 33.9635 45.1571C33.7966 45.2795 29.8998 48.1011 26.2175 45.1687C25.8302 44.8598 25.2761 44.8714 24.9067 45.1921C24.853 45.2387 24.3764 45.6526 23.7805 46.428C23.2145 45.571 22.5292 44.7548 21.7189 44.0261C21.3554 43.6997 20.8013 43.6763 20.408 43.9678C20.1637 44.1485 14.3304 48.3984 8.77718 43.9736C8.38988 43.6647 7.83575 43.6763 7.46037 43.997C7.25182 44.1777 2.28845 48.4917 2.16332 56.9914C2.15736 57.2596 2.26462 57.5161 2.45528 57.7085C2.64595 57.9009 2.90813 58.0058 3.18221 58.0058L25.6276 58C26.1758 58 26.6286 57.5744 26.6465 57.0322C26.6525 56.9506 26.6644 56.3793 26.6048 55.5048H37.7947C38.3608 55.5048 38.8077 55.0793 38.8255 54.5371ZM4.25473 56.0062C4.61224 50.6837 7.10882 47.3432 8.24688 46.0782C13.5499 49.6926 18.9542 47.1858 20.9026 46.0374C23.9116 49.2029 24.4896 53.9775 24.5968 56.0004L4.25473 56.0062ZM26.3903 53.5111C26.152 52.007 25.7051 50.1823 24.8769 48.3984C25.1748 47.9262 25.4608 47.5414 25.6991 47.2674C28.9763 49.3487 32.4739 48.3751 34.4461 47.2441C36.1919 49.2262 36.6388 52.0478 36.752 53.5111H26.3903Z" fill="#00C09E"/>
<path d="M28.2616 19.2499H20.3071V21.6984C20.3071 22.9226 21.326 23.9195 22.5773 23.9195H29.6499L31.6579 26.1814C31.8069 26.3505 32.0154 26.4379 32.2359 26.4379C32.3372 26.4379 32.4325 26.4204 32.5279 26.3796C32.8318 26.2572 33.0224 25.9541 32.9926 25.6334L32.8556 23.9195H36.4902C37.7415 23.9195 38.7604 22.9226 38.7604 21.6984V12.9246C38.7604 11.7004 37.7415 10.7035 36.4902 10.7035H31.5388V16.0377C31.5447 17.8099 30.073 19.2499 28.2616 19.2499ZM31.7294 16.0843V12.2076H36.5021C36.9073 12.2076 37.241 12.534 37.241 12.9304V21.7042C37.241 22.1064 36.9073 22.4271 36.5021 22.4271H32.0393C31.8248 22.4271 31.6222 22.5145 31.4792 22.6661C31.3362 22.8177 31.2587 23.0275 31.2766 23.2316L31.2945 23.4881L30.5795 22.6836C30.4365 22.5204 30.222 22.4271 30.0015 22.4271H22.5773C22.1721 22.4271 21.8384 22.1006 21.8384 21.7042V19.3665H28.3748C30.222 19.3665 31.7294 17.8915 31.7294 16.0843Z" fill="white"/>
<path d="M28.2616 19.2499H20.3071V21.6984C20.3071 22.9226 21.326 23.9195 22.5773 23.9195H29.6499L31.6579 26.1814C31.8069 26.3505 32.0154 26.4379 32.2359 26.4379C32.3372 26.4379 32.4325 26.4204 32.5279 26.3796C32.8318 26.2572 33.0224 25.9541 32.9926 25.6334L32.8556 23.9195H36.4902C37.7415 23.9195 38.7604 22.9226 38.7604 21.6984V12.9246C38.7604 11.7004 37.7415 10.7035 36.4902 10.7035H31.5388V16.0377C31.5447 17.8099 30.073 19.2499 28.2616 19.2499ZM31.7294 16.0843V12.2076H36.5021C36.9073 12.2076 37.241 12.534 37.241 12.9304V21.7042C37.241 22.1064 36.9073 22.4271 36.5021 22.4271H32.0393C31.8248 22.4271 31.6222 22.5145 31.4792 22.6661C31.3362 22.8177 31.2587 23.0275 31.2766 23.2316L31.2945 23.4881L30.5795 22.6836C30.4365 22.5204 30.222 22.4271 30.0015 22.4271H22.5773C22.1721 22.4271 21.8384 22.1006 21.8384 21.7042V19.3665H28.3748C30.222 19.3665 31.7294 17.8915 31.7294 16.0843Z" fill="#00C09E"/>
<path d="M0.638184 16.0376C0.638184 17.8098 2.10992 19.2498 3.92128 19.2498H12.7517L12.5014 22.3454C12.4716 22.7126 12.6861 23.0624 13.0377 23.2082C13.1509 23.2548 13.2641 23.2781 13.3773 23.2781C13.6276 23.2781 13.8719 23.1732 14.0447 22.9808L17.3575 19.2498H20.301H28.2555C30.0669 19.2498 31.5386 17.8098 31.5386 16.0376V10.7034V3.21218C31.5446 1.43994 30.0728 0 28.2615 0H3.92128C2.10992 0 0.638184 1.43994 0.638184 3.21218V16.0376ZM2.40188 3.21218C2.40188 2.39019 3.0871 1.71977 3.92128 1.71977H28.2615C29.1016 1.71977 29.7868 2.39019 29.7868 3.21218V16.0376C29.7868 16.8596 29.1016 17.5242 28.2615 17.5242H16.9643C16.7081 17.5242 16.4638 17.6349 16.2969 17.8215L14.4737 19.8736L14.5869 18.4511C14.6047 18.2121 14.5213 17.9731 14.3545 17.7982C14.1877 17.6233 13.9553 17.5242 13.705 17.5242H3.92128C3.08114 17.5242 2.40188 16.8538 2.40188 16.0376V3.21218Z" fill="white"/>
<path d="M0.638184 16.0376C0.638184 17.8098 2.10992 19.2498 3.92128 19.2498H12.7517L12.5014 22.3454C12.4716 22.7126 12.6861 23.0624 13.0377 23.2082C13.1509 23.2548 13.2641 23.2781 13.3773 23.2781C13.6276 23.2781 13.8719 23.1732 14.0447 22.9808L17.3575 19.2498H20.301H28.2555C30.0669 19.2498 31.5386 17.8098 31.5386 16.0376V10.7034V3.21218C31.5446 1.43994 30.0728 0 28.2615 0H3.92128C2.10992 0 0.638184 1.43994 0.638184 3.21218V16.0376ZM2.40188 3.21218C2.40188 2.39019 3.0871 1.71977 3.92128 1.71977H28.2615C29.1016 1.71977 29.7868 2.39019 29.7868 3.21218V16.0376C29.7868 16.8596 29.1016 17.5242 28.2615 17.5242H16.9643C16.7081 17.5242 16.4638 17.6349 16.2969 17.8215L14.4737 19.8736L14.5869 18.4511C14.6047 18.2121 14.5213 17.9731 14.3545 17.7982C14.1877 17.6233 13.9553 17.5242 13.705 17.5242H3.92128C3.08114 17.5242 2.40188 16.8538 2.40188 16.0376V3.21218Z" fill="#00C09E"/>
<path d="M29.9655 45.1513C31.8424 45.1513 33.6001 44.4342 34.9289 43.14C36.2576 41.84 36.9845 40.1144 36.9845 38.2839C36.9845 34.5004 33.8325 31.4164 29.9655 31.4164C28.0945 31.4164 26.3308 32.1335 25.0021 33.4277C24.6029 33.8183 24.2633 34.2555 23.9713 34.7161C24.0011 34.4071 24.019 34.0981 24.019 33.7833C24.019 28.6065 19.7051 24.3916 14.414 24.3916C11.8519 24.3916 9.43868 25.371 7.62732 27.1491C5.81 28.9271 4.81494 31.2882 4.81494 33.795C4.81494 38.9718 9.12289 43.1867 14.4199 43.1867C16.9821 43.1867 19.3893 42.2073 21.2066 40.4292C21.9216 39.7296 22.5055 38.931 22.9584 38.0798C22.9584 38.1498 22.9465 38.2197 22.9465 38.2897C22.9465 42.0732 26.0985 45.1513 29.9655 45.1513ZM26.4441 34.8443C27.3855 33.9232 28.6368 33.416 29.9655 33.416C32.7123 33.416 34.9408 35.6022 34.9467 38.2839C34.9467 39.5839 34.4284 40.8023 33.4869 41.7292C32.5455 42.6503 31.2942 43.1575 29.9714 43.1575C27.2246 43.1575 24.9962 40.9714 24.9902 38.2897C24.9842 36.9897 25.5026 35.7654 26.4441 34.8443ZM19.7646 39.0184C18.3346 40.4175 16.4398 41.1871 14.4199 41.1871C10.249 41.1871 6.85868 37.8699 6.85868 33.7891C6.85868 31.8129 7.6452 29.959 9.07522 28.5599C10.5052 27.1607 12.406 26.3912 14.4199 26.3912C18.5908 26.3912 21.9812 29.7083 21.9812 33.7891C21.9812 35.7596 21.1947 37.6193 19.7646 39.0184Z" fill="white"/>
<path d="M29.9655 45.1513C31.8424 45.1513 33.6001 44.4342 34.9289 43.14C36.2576 41.84 36.9845 40.1144 36.9845 38.2839C36.9845 34.5004 33.8325 31.4164 29.9655 31.4164C28.0945 31.4164 26.3308 32.1335 25.0021 33.4277C24.6029 33.8183 24.2633 34.2555 23.9713 34.7161C24.0011 34.4071 24.019 34.0981 24.019 33.7833C24.019 28.6065 19.7051 24.3916 14.414 24.3916C11.8519 24.3916 9.43868 25.371 7.62732 27.1491C5.81 28.9271 4.81494 31.2882 4.81494 33.795C4.81494 38.9718 9.12289 43.1867 14.4199 43.1867C16.9821 43.1867 19.3893 42.2073 21.2066 40.4292C21.9216 39.7296 22.5055 38.931 22.9584 38.0798C22.9584 38.1498 22.9465 38.2197 22.9465 38.2897C22.9465 42.0732 26.0985 45.1513 29.9655 45.1513ZM26.4441 34.8443C27.3855 33.9232 28.6368 33.416 29.9655 33.416C32.7123 33.416 34.9408 35.6022 34.9467 38.2839C34.9467 39.5839 34.4284 40.8023 33.4869 41.7292C32.5455 42.6503 31.2942 43.1575 29.9714 43.1575C27.2246 43.1575 24.9962 40.9714 24.9902 38.2897C24.9842 36.9897 25.5026 35.7654 26.4441 34.8443ZM19.7646 39.0184C18.3346 40.4175 16.4398 41.1871 14.4199 41.1871C10.249 41.1871 6.85868 37.8699 6.85868 33.7891C6.85868 31.8129 7.6452 29.959 9.07522 28.5599C10.5052 27.1607 12.406 26.3912 14.4199 26.3912C18.5908 26.3912 21.9812 29.7083 21.9812 33.7891C21.9812 35.7596 21.1947 37.6193 19.7646 39.0184Z" fill="#00C09E"/>
</g>
<defs>
<clipPath id="clip0">
<rect width="38.1935" height="58" fill="white" transform="translate(0.638184)"/>
</clipPath>
</defs>
</svg>
