<svg width="56" height="56" viewBox="0 0 56 56" fill="none" xmlns="http://www.w3.org/2000/svg">
<g clip-path="url(#clip0)">
<path d="M42.0026 12.4953L50.4019 12.1055C50.4019 12.1055 51.0896 19.5405 48.7073 23.617C46.3002 27.7358 38.6172 30.4295 38.6172 30.4295L38.8103 27.6218C38.8103 27.6218 45.0966 26.1112 46.9309 22.5615C49.2038 18.1632 48.0766 14.7294 48.0766 14.7294L41.7158 15.532L42.0026 12.4953Z" fill="#F8F8F8"/>
<path d="M13.9045 12.4953L5.50523 12.1055C5.50523 12.1055 4.81748 19.5405 7.19979 23.617C9.60693 27.7358 17.2899 30.4295 17.2899 30.4295L17.0968 27.6218C17.0968 27.6218 10.8105 26.1112 8.97618 22.5615C6.70328 18.1632 7.83054 14.7294 7.83054 14.7294L14.1913 15.532L13.9045 12.4953Z" fill="#F8F8F8"/>
<path d="M38.4128 47.7534C38.0037 47.1815 37.1716 46.9306 36.3864 46.8368C35.6002 46.743 34.7865 46.7623 34.0371 46.5435C32.9834 46.2355 32.1771 45.477 31.7265 44.6192C31.276 43.7615 31.1445 42.8099 31.1179 41.8731C31.0848 40.7036 31.3514 39.3319 32.5798 38.7812C32.9991 38.5937 33.5112 38.5137 33.8128 38.2057C34.3562 37.6513 34.0767 36.3964 33.5039 35.9082C32.7012 35.2251 31.1556 34.8491 30.0789 34.6477C29.6982 34.5769 29.29 34.531 28.8946 34.5429C28.4993 34.5319 28.091 34.5769 27.7104 34.6477C26.6337 34.8491 25.0872 35.2251 24.2854 35.9082C23.7126 36.3954 23.4331 37.6513 23.9765 38.2057C24.278 38.5137 24.7911 38.5937 25.2094 38.7812C26.4378 39.3319 26.7045 40.7036 26.6714 41.8731C26.6447 42.8099 26.5132 43.7624 26.0627 44.6192C25.6122 45.477 24.8058 46.2355 23.7521 46.5435C23.0027 46.7623 22.1881 46.743 21.4029 46.8368C20.6168 46.9306 19.7856 47.1815 19.3764 47.7534C19.0472 48.2131 19.0592 48.7859 19.1254 49.32C20.5441 49.5388 21.9867 49.1821 23.4193 49.0424C25.2333 48.8658 27.0686 49.0368 28.8955 49.0892C30.7225 49.0378 32.5577 48.8658 34.3718 49.0424C35.8043 49.1821 37.247 49.5379 38.6657 49.32C38.73 48.7859 38.742 48.2131 38.4128 47.7534Z" fill="#DDDDDD"/>
<path d="M43.328 7.62109H28.2517H13.1754C13.1754 7.62109 12.5639 25.2685 15.8243 30.8261C19.0838 36.3828 28.2526 37.5035 28.2526 37.5035C28.2526 37.5035 37.4205 36.3828 40.6809 30.8261C43.9394 25.2685 43.328 7.62109 43.328 7.62109Z" fill="#DAD9D7"/>
<path d="M34.6125 7.62201C34.6088 7.69281 34.607 7.76636 34.6097 7.84174C34.6484 8.98177 35.4823 9.89287 36.057 10.803C36.7328 11.8741 37.2513 13.0408 37.6016 14.2571C38.3538 16.8728 38.3354 19.7247 37.4472 22.3044C35.7618 27.2001 31.1425 30.896 26.0257 31.6885C22.2256 32.2769 18.2609 31.3033 15.04 29.1988C15.2607 29.8139 15.5062 30.3627 15.7784 30.8261C19.0378 36.3828 28.2066 37.5035 28.2066 37.5035C28.2066 37.5035 37.3745 36.3828 40.6349 30.8261C43.8944 25.2694 43.2839 7.62109 43.2839 7.62109H34.6125V7.62201Z" fill="#D5D3CD"/>
<g opacity="0.16">
<path opacity="0.16" d="M21.6016 14.5671C22.3132 14.7115 22.9035 15.2346 23.2823 15.8533C23.6621 16.4721 23.8579 17.1836 24.028 17.8888C23.9618 17.1938 23.9977 16.4794 24.2312 15.8211C24.4647 15.1629 24.9088 14.5653 25.523 14.2334C25.2582 14.3768 24.3636 13.1522 24.2524 12.9674C23.9259 12.4268 23.7604 11.8301 23.7172 11.2031C23.5113 11.8651 23.5177 12.4691 23.1371 13.0961C22.7656 13.7093 22.2341 14.2269 21.6016 14.5671Z" fill="white"/>
</g>
<g opacity="0.38">
<path opacity="0.38" d="M22.7197 14.5546C23.0259 14.6162 23.2797 14.8415 23.4433 15.1081C23.607 15.3738 23.6907 15.6799 23.7642 15.9842C23.7357 15.6854 23.7514 15.3775 23.8516 15.0952C23.9518 14.812 24.143 14.5546 24.4069 14.4121C24.2929 14.4737 23.9086 13.9469 23.8599 13.8679C23.7192 13.6353 23.6484 13.3788 23.63 13.1094C23.5417 13.3944 23.5445 13.6536 23.3808 13.9239C23.2199 14.185 22.991 14.4084 22.7197 14.5546Z" fill="white"/>
</g>
<path d="M23.2266 14.4835C23.3489 14.5083 23.45 14.5984 23.5153 14.7042C23.5806 14.8108 23.6137 14.9331 23.6431 15.0535C23.632 14.934 23.6376 14.8117 23.678 14.6986C23.7185 14.5856 23.7948 14.4826 23.8996 14.4256C23.8536 14.4504 23.7001 14.2399 23.6817 14.2077C23.6256 14.1148 23.5971 14.0119 23.5897 13.9043C23.5539 14.0183 23.5557 14.1222 23.4904 14.2298C23.4261 14.3364 23.3351 14.4256 23.2266 14.4835Z" fill="white"/>
<g opacity="0.16">
<path opacity="0.16" d="M30.2949 22.6248C31.1721 22.8022 31.9003 23.4476 32.3674 24.2107C32.8354 24.9738 33.0772 25.8509 33.2859 26.7206C33.205 25.8637 33.2491 24.983 33.536 24.1712C33.8238 23.3603 34.3718 22.622 35.1294 22.2129C34.803 22.3894 33.6997 20.8798 33.5618 20.6518C33.16 19.9853 32.9549 19.2488 32.9016 18.4766C32.6478 19.292 32.6552 20.0377 32.1862 20.8109C31.7293 21.5666 31.0746 22.2055 30.2949 22.6248Z" fill="white"/>
</g>
<g opacity="0.38">
<path opacity="0.38" d="M31.6719 22.6087C32.0489 22.685 32.3624 22.9627 32.5637 23.2909C32.7651 23.6191 32.869 23.997 32.9591 24.3712C32.9242 24.0025 32.9435 23.6237 33.0667 23.2744C33.1908 22.925 33.4262 22.6078 33.7517 22.4322C33.611 22.5085 33.1366 21.8585 33.0777 21.7601C32.9049 21.4733 32.8166 21.157 32.7936 20.8242C32.6842 21.1754 32.6879 21.4954 32.4856 21.8282C32.2888 22.1536 32.0075 22.4285 31.6719 22.6087Z" fill="white"/>
</g>
<path d="M32.2969 22.5231C32.4477 22.5534 32.5727 22.6646 32.6527 22.7952C32.7327 22.9267 32.775 23.0765 32.8108 23.2264C32.7971 23.0793 32.8044 22.9276 32.8541 22.7888C32.9037 22.649 32.9975 22.5231 33.1281 22.4523C33.072 22.4826 32.8826 22.2233 32.8587 22.1838C32.7897 22.0689 32.7548 21.9429 32.7456 21.8105C32.7024 21.9503 32.7033 22.079 32.6224 22.2114C32.5442 22.3419 32.4311 22.4514 32.2969 22.5231Z" fill="white"/>
<g opacity="0.16">
<path opacity="0.16" d="M19.9072 27.7729C20.5371 27.9007 21.0593 28.3631 21.3949 28.9111C21.7305 29.459 21.9043 30.0879 22.0542 30.713C21.9962 30.098 22.0275 29.4655 22.2344 28.8835C22.4403 28.3015 22.8339 27.772 23.3782 27.4787C23.1437 27.6056 22.3521 26.5216 22.2537 26.358C21.965 25.8799 21.8188 25.3513 21.7802 24.7969C21.5981 25.3825 21.6036 25.9176 21.2671 26.472C20.937 27.0144 20.4672 27.4723 19.9072 27.7729Z" fill="white"/>
</g>
<g opacity="0.38">
<path opacity="0.38" d="M20.8955 27.7621C21.1667 27.8172 21.3911 28.0158 21.5354 28.2512C21.6798 28.4865 21.7543 28.7578 21.8196 29.0262C21.7947 28.7614 21.8085 28.4893 21.8968 28.2392C21.986 27.9892 22.1552 27.7612 22.3887 27.6343C22.2876 27.6885 21.9474 27.2224 21.9051 27.1525C21.7809 26.9466 21.7175 26.7195 21.701 26.4805C21.6228 26.7324 21.6246 26.9622 21.4803 27.2013C21.3387 27.4348 21.1364 27.6324 20.8955 27.7621Z" fill="white"/>
</g>
<path d="M21.3447 27.6997C21.4532 27.7218 21.5424 27.8008 21.6003 27.8955C21.6583 27.9893 21.6877 28.0978 21.7134 28.2054C21.7033 28.0996 21.7088 27.9911 21.7447 27.8909C21.7805 27.7907 21.8477 27.6997 21.9415 27.6501C21.901 27.6721 21.7649 27.4855 21.7484 27.4579C21.6987 27.3761 21.6739 27.2851 21.6675 27.1895C21.6362 27.2897 21.6371 27.3816 21.5792 27.4772C21.5213 27.5692 21.4413 27.6482 21.3447 27.6997Z" fill="white"/>
<path d="M43.9553 53.4403H13.833V50.9332C13.833 49.4898 15.0035 48.3203 16.4461 48.3203H41.3422C42.7858 48.3203 43.9553 49.4907 43.9553 50.9332V53.4403Z" fill="#FF4936"/>
<path d="M40.8573 48.3203H35.7295C37.4406 48.3203 38.8281 49.2176 38.8281 50.3236V53.4403H43.9559V50.3236C43.9549 49.2167 42.5684 48.3203 40.8573 48.3203Z" fill="#D33B2F"/>
<path d="M48.0371 55.998H9.75098V55.5208C9.75098 54.3707 10.6833 53.4375 11.8345 53.4375H45.9536C47.1039 53.4375 48.0371 54.3697 48.0371 55.5208V55.998Z" fill="#FF4936"/>
<path d="M44.0991 53.4388H37.5811C39.7556 53.4388 41.5191 53.8875 41.5191 54.441V55.9993H48.0371V54.441C48.0371 53.7661 47.5875 53.2991 44.0991 53.4388Z" fill="#D33B2F"/>
<path d="M43.9636 10.4748H12.5403C11.7523 10.4748 11.1133 9.83586 11.1133 9.04796C11.1133 8.26006 11.7523 7.62109 12.5403 7.62109H43.9636C44.7516 7.62109 45.3906 8.26006 45.3906 9.04796C45.3906 9.83586 44.7516 10.4748 43.9636 10.4748Z" fill="#F8F8F8"/>
<path d="M43.8741 7.62109H43.4291C43.5431 7.82611 43.6084 8.06239 43.6084 8.31338C43.6084 9.10129 42.9693 9.74025 42.1814 9.74025H11.2021C11.4458 10.1788 11.9129 10.4748 12.4498 10.4748H43.8741C44.6621 10.4748 45.3011 9.83586 45.3011 9.04796C45.3011 8.26006 44.6621 7.62109 43.8741 7.62109Z" fill="#BAB6A4"/>
<path d="M13.1748 7.62218C13.1748 7.62218 18.1794 3.73047 28.2511 3.73047C39.3039 3.73047 43.3274 7.62218 43.3274 7.62218H13.1748Z" fill="#F8F8F8"/>
<path d="M30.5605 1.08417C30.4529 0.672292 30.121 0.344995 29.7395 0.156523C29.3156 -0.0521745 27.188 -0.0521745 26.7641 0.156523C26.3825 0.344995 26.0506 0.672292 25.943 1.08417C25.8355 1.49605 25.9954 1.987 26.3706 2.18926C26.6584 2.34463 27.0491 2.33544 27.2468 2.59562C27.3388 2.71698 27.3682 2.87327 27.3866 3.02405C27.4307 3.37158 27.4381 3.72278 27.4096 4.07214C27.3737 4.50608 27.313 5.02461 27.6523 5.29766C27.8169 5.43005 28.0357 5.46223 28.2509 5.46315C28.466 5.46223 28.6848 5.43005 28.8494 5.29766C29.1887 5.02461 29.1289 4.50608 29.0922 4.07214C29.0627 3.7237 29.071 3.37158 29.1151 3.02405C29.1345 2.87327 29.163 2.71698 29.2549 2.59562C29.4526 2.33544 29.8434 2.34463 30.1311 2.18926C30.5072 1.987 30.6681 1.49605 30.5605 1.08417Z" fill="#F8F8F8"/>
<g opacity="0.3">
<path opacity="0.3" d="M27.7716 0.388672C27.5482 0.396946 27.322 0.405221 27.1078 0.468657C26.8936 0.532094 26.6885 0.657129 26.5754 0.850198C26.489 0.998217 26.4798 1.22071 26.6251 1.31172C26.7464 1.38711 26.9028 1.33287 27.0361 1.28414C27.4085 1.14991 27.8011 1.07361 28.1964 1.05982C28.3298 1.05522 28.4695 1.05614 28.589 0.996378C28.7086 0.936619 28.7996 0.793197 28.75 0.669081C28.715 0.58174 28.6249 0.531175 28.5366 0.499916C28.3252 0.426366 28.087 0.433721 27.8792 0.518304L27.7716 0.388672Z" fill="white"/>
</g>
<g opacity="0.44">
<path opacity="0.44" d="M17.0073 6.56759C16.7481 6.6724 16.44 6.89764 16.5697 7.12657C16.6534 7.27367 16.8685 7.30033 17.0506 7.30585C18.8269 7.35641 20.6144 7.04934 22.2473 6.41221C22.9599 6.13456 23.6412 5.79531 24.3409 5.49192C25.5895 4.95041 26.897 4.52106 28.2385 4.21215C26.8308 3.80947 25.3643 4.18917 23.9676 4.47509C22.433 4.7886 20.9205 5.19037 19.4421 5.67671C18.6191 5.94701 17.8073 6.24489 17.0073 6.56759Z" fill="white"/>
</g>
<path d="M30.8069 25.6713L27.0068 23.5154L23.0762 25.4249L23.9515 21.1443L20.9219 17.9964L25.2635 17.5064L27.3213 13.6523L29.1289 17.6296L33.4311 18.3954L30.2065 21.3438L30.8069 25.6713Z" fill="#948D81"/>
<g opacity="0.3">
<path opacity="0.3" d="M16.3178 24.6908C16.5311 25.6194 16.8419 26.6197 17.6372 27.1437C17.7678 27.2301 17.9149 27.3019 18.0712 27.3019C18.3544 27.3009 18.5907 27.0545 18.6707 26.7824C18.7516 26.5103 18.7121 26.2197 18.6679 25.9393C18.1779 22.8079 17.2226 19.5883 18.0777 16.5369C18.3958 15.4015 19.0486 14.1097 18.4556 12.9486C18.0666 12.1855 17.1325 11.7175 16.3537 12.2434C15.4204 12.8741 15.5694 14.5786 15.5188 15.5559C15.4452 16.9754 15.4636 18.4005 15.5731 19.8181C15.6999 21.4583 15.9491 23.0884 16.3178 24.6908Z" fill="white"/>
</g>
</g>
<defs>
<clipPath id="clip0">
<rect width="45.08" height="56" fill="white" transform="translate(5.41309)"/>
</clipPath>
</defs>
</svg>
