<svg width="41" height="50" viewBox="0 0 41 50" fill="none" xmlns="http://www.w3.org/2000/svg">
<rect x="4.66016" width="31.6804" height="31.4809" rx="15.7404" fill="#003397"/>
<path d="M30.8229 12.0653C30.8229 12.0653 28.9882 6.15304 22.3296 5.13466C15.671 4.11628 12.0098 9.20819 12.0098 9.20819C12.0098 9.20819 15.827 5.81358 21.0041 8.03479C21.0041 8.03479 23.5669 9.16632 25.2696 12.0664L30.8229 12.0653Z" fill="url(#paint0_linear_16624_134728)"/>
<path d="M22.6679 15.1943H30.824C30.824 15.1943 30.6864 20.852 25.6802 22.3445C20.6739 23.837 18.4746 21.0183 18.4746 21.0183C18.4746 21.0183 22.9121 23.1049 25.7203 18.6919L22.6496 18.6761L22.6679 15.1943Z" fill="url(#paint1_linear_16624_134728)"/>
<path d="M22.5366 10.1511C22.5366 10.1511 16.7196 5.24927 11.2283 11.3064C11.2283 11.3064 7.22419 16.009 12.0126 22.2268C16.801 28.4446 23.9905 26.013 23.9905 26.013C23.9905 26.013 30.0081 24.6551 31.3405 17.5638C31.3405 17.5638 29.7249 23.2215 23.7073 23.7012C23.7073 23.7012 19.952 24.5782 16.2357 20.3134C16.2357 20.3134 13.2074 16.5273 15.5099 12.619C17.8124 8.71064 22.5366 10.1511 22.5366 10.1511Z" fill="url(#paint2_linear_16624_134728)"/>
<rect y="33.4805" width="41" height="16" rx="8" fill="#003397"/>
<path d="M3.94103 42.1873V44.4805H2.60606V38.7475H6.095V39.9432H3.94103V41.0652H6.0131V42.1873H3.94103ZM8.15235 43.0063C8.15235 43.2356 8.1933 43.4076 8.2752 43.5222C8.3571 43.6369 8.49633 43.6942 8.69289 43.6942C8.90037 43.6942 9.06144 43.6342 9.1761 43.514C9.29076 43.3939 9.34809 43.2247 9.34809 43.0063V40.7131H10.593V44.4805H9.34809V43.9154C9.11331 44.3467 8.73111 44.5624 8.20149 44.5624C7.30605 44.5624 6.85833 44.0873 6.85833 43.1373V40.7131H8.15235V43.0063ZM14.0098 42.1873C14.0098 41.9634 13.9661 41.7914 13.8788 41.6713C13.7969 41.5566 13.6576 41.4993 13.4611 41.4993C13.2591 41.4993 13.1007 41.5594 12.9861 41.6795C12.8714 41.7996 12.8141 41.9689 12.8141 42.1873V44.4805H11.5692V40.7131H12.8141V41.2782C13.0488 40.8468 13.431 40.6312 13.9607 40.6312C14.8561 40.6312 15.3038 41.1062 15.3038 42.0562V44.4805H14.0098V42.1873ZM16.5749 44.0382C16.2254 43.6888 16.0507 43.2083 16.0507 42.5968C16.0507 41.9852 16.2254 41.5048 16.5749 41.1553C16.9243 40.8059 17.3447 40.6312 17.8361 40.6312C18.3931 40.6312 18.8244 40.8605 19.1302 41.3191V38.0923H20.375V44.4805H19.1302V43.8744C18.8244 44.333 18.3931 44.5624 17.8361 44.5624C17.3447 44.5624 16.9243 44.3876 16.5749 44.0382ZM17.3529 42.5968C17.3529 42.8807 17.4403 43.1155 17.615 43.3011C17.7843 43.4758 17.9972 43.5632 18.2538 43.5632C18.4831 43.5632 18.6852 43.4758 18.8599 43.3011C19.0401 43.1209 19.1302 42.8861 19.1302 42.5968C19.1302 42.3128 19.0401 42.0808 18.8599 41.9006C18.6797 41.7204 18.4777 41.6303 18.2538 41.6303C17.9972 41.6303 17.7843 41.7204 17.615 41.9006C17.4403 42.0863 17.3529 42.3183 17.3529 42.5968ZM22.2768 43.3502C22.2768 43.6178 22.457 43.7516 22.8174 43.7516C23.3525 43.7516 23.6336 43.5059 23.6609 43.0145C23.4644 42.9162 23.2269 42.867 22.9484 42.867C22.73 42.867 22.5662 42.9107 22.457 42.9981C22.3369 43.0909 22.2768 43.2083 22.2768 43.3502ZM21.8018 41.876L21.3759 41.0407C21.9984 40.7513 22.5717 40.6066 23.0958 40.6066C23.62 40.6066 24.0431 40.7131 24.3653 40.926C24.6874 41.1389 24.8485 41.4392 24.8485 41.8269V44.4805H23.6609V43.9481C23.5572 44.1392 23.3934 44.2894 23.1695 44.3986C22.9402 44.5078 22.6836 44.5624 22.3997 44.5624C21.9847 44.5624 21.6517 44.4614 21.4005 44.2593C21.1548 44.0628 21.032 43.787 21.032 43.4321C21.032 43.0554 21.1821 42.7551 21.4824 42.5312C21.7827 42.3074 22.1758 42.1955 22.6618 42.1955C23.0276 42.1955 23.3606 42.2692 23.6609 42.4166V42.0726C23.6609 41.9197 23.6009 41.7941 23.4808 41.6959C23.3606 41.5976 23.1996 41.5484 22.9976 41.5484C22.5662 41.5484 22.1676 41.6576 21.8018 41.876ZM26.0765 44.0382C25.7271 43.6888 25.5524 43.2083 25.5524 42.5968C25.5524 41.9852 25.7271 41.5048 26.0765 41.1553C26.426 40.8059 26.8464 40.6312 27.3378 40.6312C27.8947 40.6312 28.3261 40.8605 28.6318 41.3191V38.0923H29.8767V44.4805H28.6318V43.8744C28.3261 44.333 27.8947 44.5624 27.3378 44.5624C26.8464 44.5624 26.426 44.3876 26.0765 44.0382ZM26.8546 42.5968C26.8546 42.8807 26.942 43.1155 27.1167 43.3011C27.2859 43.4758 27.4989 43.5632 27.7555 43.5632C27.9848 43.5632 28.1868 43.4758 28.3616 43.3011C28.5417 43.1209 28.6318 42.8861 28.6318 42.5968C28.6318 42.3128 28.5417 42.0808 28.3616 41.9006C28.1814 41.7204 27.9794 41.6303 27.7555 41.6303C27.4989 41.6303 27.2859 41.7204 27.1167 41.9006C26.942 42.0863 26.8546 42.3183 26.8546 42.5968ZM31.2052 44.0218C30.8012 43.6669 30.5992 43.1919 30.5992 42.5968C30.5992 42.0016 30.8012 41.5266 31.2052 41.1717C31.6147 40.8113 32.1307 40.6312 32.7531 40.6312C33.3756 40.6312 33.8915 40.8113 34.301 41.1717C34.7051 41.5266 34.9071 42.0016 34.9071 42.5968C34.9071 43.1919 34.7051 43.6669 34.301 44.0218C33.8915 44.3822 33.3756 44.5624 32.7531 44.5624C32.1307 44.5624 31.6147 44.3822 31.2052 44.0218ZM31.8768 42.5968C31.8768 42.8807 31.9587 43.11 32.1225 43.2847C32.2863 43.454 32.4965 43.5386 32.7531 43.5386C33.0097 43.5386 33.22 43.454 33.3838 43.2847C33.5476 43.11 33.6295 42.8807 33.6295 42.5968C33.6295 42.3074 33.5448 42.0781 33.3756 41.9088C33.2008 41.7341 32.9934 41.6467 32.7531 41.6467C32.5129 41.6467 32.3054 41.7341 32.1307 41.9088C31.9614 42.0781 31.8768 42.3074 31.8768 42.5968ZM37.9527 41.9989C37.8053 41.8515 37.6442 41.7778 37.4695 41.7778C37.2838 41.7778 37.1364 41.8515 37.0272 41.9989C36.918 42.1518 36.8634 42.3593 36.8634 42.6213V44.4805H35.6513V40.7131H36.8634V41.1881C37.1146 40.8113 37.4313 40.623 37.8135 40.623C37.9445 40.623 38.0755 40.653 38.2066 40.7131C38.3322 40.7731 38.4277 40.8468 38.4932 40.9342L37.9527 41.9989Z" fill="white"/>
<defs>
<linearGradient id="paint0_linear_16624_134728" x1="12.0121" y1="8.53266" x2="30.8229" y2="8.53266" gradientUnits="userSpaceOnUse">
<stop stop-color="white"/>
<stop offset="0.41" stop-color="white"/>
<stop offset="1" stop-color="white"/>
</linearGradient>
<linearGradient id="paint1_linear_16624_134728" x1="1195.38" y1="952.837" x2="2525.41" y2="952.837" gradientUnits="userSpaceOnUse">
<stop stop-color="white"/>
<stop offset="0.41" stop-color="white"/>
<stop offset="1" stop-color="white"/>
</linearGradient>
<linearGradient id="paint2_linear_16624_134728" x1="409.447" y1="1999.69" x2="4508.56" y2="1999.69" gradientUnits="userSpaceOnUse">
<stop stop-color="white"/>
<stop offset="0.41" stop-color="white"/>
<stop offset="1" stop-color="white"/>
</linearGradient>
</defs>
</svg>
