<svg width="56" height="56" viewBox="0 0 56 56" fill="none" xmlns="http://www.w3.org/2000/svg">
<g clip-path="url(#clip0)">
<path d="M0.373047 50.0475C4.06452 49.2018 7.79107 48.5096 11.5406 47.9763C12.3299 50.6508 13.1205 53.3266 13.9098 56.0011C17.5365 49.5533 21.1619 43.1067 24.7886 36.6589C25.4983 35.3957 26.2282 34.0665 26.2538 32.6189C26.2822 31.0769 25.4915 29.6171 24.458 28.4711C22.4315 26.2222 14.3847 22.434 12.995 26.9817C11.4717 31.9657 7.37416 36.2845 4.81603 40.909C3.17673 43.8743 1.69259 46.9259 0.373047 50.0475Z" fill="#E41F1E"/>
<path d="M55.626 45.5366C51.8401 45.6214 48.0569 45.8652 44.2912 46.2678C44.1833 49.0541 44.0767 51.8417 43.9688 54.628C38.8673 49.2669 33.7646 43.9071 28.6632 38.546C27.6634 37.4956 26.6299 36.386 26.2481 34.9895C25.842 33.5014 26.2481 31.8935 26.9672 30.5279C28.3771 27.8507 35.246 22.2055 37.7124 26.2738C40.4163 30.7313 45.4515 33.9135 49.0688 37.769C51.3895 40.2401 53.5793 42.8338 55.626 45.5366Z" fill="#E41F1E"/>
<path d="M37.4641 39.3016C35.2405 38.0923 32.4935 39.4874 32.167 41.9936C31.7029 45.5488 26.8808 46.3097 25.34 43.0709C24.2538 40.7883 21.21 40.3062 19.4695 42.1404C16.9991 44.7448 12.6505 42.5309 13.3116 39.0066C13.7771 36.522 11.5981 34.3458 9.11017 34.8104C5.5779 35.4676 3.36383 31.1259 5.97458 28.6629C7.81491 26.927 7.33324 23.8876 5.04631 22.8022C1.80143 21.2616 2.56644 16.4499 6.12974 15.988C8.64064 15.6621 10.0411 12.9216 8.82953 10.7023C7.10927 7.55244 10.5619 4.109 13.7164 5.82466C15.9399 7.03397 18.6869 5.63882 19.0135 3.13266C19.4776 -0.42255 24.2997 -1.18342 25.8405 2.05533C26.9266 4.33793 29.9705 4.82004 31.711 2.98588C34.1814 0.381413 38.53 2.59534 37.8688 6.11958C37.4034 8.60419 39.5823 10.7804 42.0703 10.3158C45.6026 9.65863 47.8166 14.0003 45.2059 16.4634C43.3656 18.1992 43.8472 21.2387 46.1342 22.3241C49.379 23.8647 48.614 28.6763 45.0507 29.1382C42.5398 29.4641 41.1393 32.2046 42.3509 34.4239C44.0712 37.5738 40.6185 41.0186 37.4641 39.3016Z" fill="#F8F8F8"/>
<path d="M37.8705 6.11942C38.1134 4.82796 37.6816 3.71292 36.918 2.94531C37.0745 3.46513 37.115 4.04554 36.9976 4.66636C36.7669 5.89722 37.1851 7.05132 37.969 7.8472C37.8017 7.31257 37.7572 6.72542 37.8705 6.11942Z" fill="#DDDDDD"/>
<path d="M44.3366 15.0124C42.8133 16.4493 42.8821 18.7791 44.2489 20.154C43.8603 18.9083 44.1464 17.4687 45.2096 16.4641C46.8448 14.9208 46.5871 12.6423 45.2986 11.3145C45.6926 12.5278 45.4659 13.9459 44.3366 15.0124Z" fill="#DDDDDD"/>
<path d="M5.04438 22.8016C5.43835 22.9887 5.77701 23.2338 6.06034 23.5207C5.77701 22.613 5.13478 21.8077 4.17143 21.3498C3.76666 21.1573 3.42396 20.9135 3.14062 20.6348C3.40912 21.5209 4.03246 22.3208 5.04438 22.8016Z" fill="#DDDDDD"/>
<path d="M8.23636 33.3586C6.91682 33.605 5.78078 33.1512 5.01172 32.3594C5.52712 33.9484 7.10706 35.1833 9.10931 34.8103C10.3654 34.576 11.542 35.015 12.3407 35.827C11.8212 34.1679 10.1172 33.0085 8.23636 33.3586Z" fill="#DDDDDD"/>
<path d="M47.169 23.041C47.76 24.995 46.6334 27.3692 44.1818 27.687C41.6709 28.0129 40.2704 30.7534 41.482 32.9727C43.1996 36.1226 39.7469 39.566 36.5924 37.849C34.3689 36.6397 31.6219 38.0349 31.2954 40.541C30.8313 44.0962 26.0092 44.8571 24.4683 41.6184C23.3822 39.3357 20.3384 38.8536 18.5979 40.6878C17.0328 42.3375 14.7148 42.0533 13.3926 40.7269C14.1266 43.1603 17.4348 44.2848 19.4708 42.1395C21.2113 40.304 24.2565 40.7861 25.3413 43.0701C26.8821 46.3088 31.7042 45.5493 32.1683 41.9927C32.4962 39.4866 35.2432 38.0914 37.4654 39.3007C40.6199 41.0177 44.0725 37.573 42.355 34.4244C41.1447 32.2051 42.5439 29.4646 45.0548 29.1387C48.1728 28.7361 49.1483 25.0004 47.169 23.041Z" fill="#DDDDDD"/>
<path d="M37.0104 33.9617C43.3169 27.6672 43.3169 17.4617 37.0104 11.1672C30.704 4.87266 20.4792 4.87266 14.1727 11.1672C7.8663 17.4617 7.8663 27.6672 14.1727 33.9617C20.4792 40.2562 30.704 40.2562 37.0104 33.9617Z" fill="#948D81"/>
<path d="M35.2029 32.1582C40.5114 26.8597 40.5114 18.2692 35.2029 12.9707C29.8944 7.67224 21.2876 7.67224 15.9791 12.9707C10.6706 18.2692 10.6706 26.8597 15.9791 32.1582C21.2876 37.4567 29.8944 37.4567 35.2029 32.1582Z" fill="#DAD9D7"/>
<path d="M25.5917 36.3777C17.9591 36.3777 11.75 30.1803 11.75 22.5622C11.75 14.9441 17.9591 8.74805 25.5917 8.74805C33.2242 8.74805 39.4333 14.9454 39.4333 22.5635C39.4333 30.1817 33.2229 36.3777 25.5917 36.3777ZM25.5917 9.24362C18.233 9.24362 12.2465 15.2188 12.2465 22.5635C12.2465 29.9083 18.233 35.8835 25.5917 35.8835C32.9503 35.8835 38.9368 29.9083 38.9368 22.5635C38.9368 15.2188 32.949 9.24362 25.5917 9.24362Z" fill="#CABDAF"/>
<path d="M33.1978 29.867C33.8535 29.2651 34.4566 28.5985 34.9342 27.847C35.3727 27.1562 35.7019 26.402 35.9947 25.6385C36.5951 24.075 37.0579 22.4374 37.0903 20.7635C37.1227 19.0896 36.6963 17.3699 35.6668 16.0488C37.205 18.225 37.9969 20.917 37.8809 23.5781C37.7662 26.2391 36.7435 28.853 35.0233 30.8878C34.4377 31.58 33.7712 32.2102 32.9994 32.6869C31.8391 33.4061 25.4303 35.9876 20.0645 33.4505C20.7687 33.3185 21.728 33.7212 22.4823 33.7481C23.7627 33.7926 25.0566 33.6606 26.3073 33.3859C28.8546 32.827 31.2724 31.6325 33.1978 29.867Z" fill="#B6AEA2"/>
<g opacity="0.39">
<path opacity="0.39" d="M13.5513 20.5274C13.3651 21.2627 13.2315 22.033 13.3746 22.779C13.5176 23.5251 13.9831 24.2456 14.6941 24.5149C15.0651 24.655 15.5063 24.6563 15.8355 24.4355C16.069 24.2792 16.2228 24.0288 16.3442 23.7769C16.8717 22.6807 16.919 21.4256 17.1551 20.2311C17.7218 17.3668 19.4677 14.7515 21.8989 13.1261C22.5587 12.6844 24.1859 11.028 22.3577 11.1775C21.532 11.2448 20.5902 11.6596 19.8994 12.1067C18.0024 13.3335 16.2659 14.8539 15.0962 16.8012C14.4 17.9566 13.8819 19.2198 13.5513 20.5274Z" fill="white"/>
</g>
<path d="M26.0879 14.4297L28.5287 19.3679L33.989 20.1598L30.0385 24.0032L30.9708 29.4316L26.0879 26.8689L21.2038 29.4316L22.1374 24.0032L18.1855 20.1598L23.6459 19.3679L26.0879 14.4297Z" fill="#BAB6A4"/>
</g>
<defs>
<clipPath id="clip0">
<rect width="55.2533" height="56" fill="white" transform="translate(0.373047)"/>
</clipPath>
</defs>
</svg>
