<svg xmlns="http://www.w3.org/2000/svg" xmlns:xlink="http://www.w3.org/1999/xlink" width="56" zoomAndPan="magnify" viewBox="0 0 42 42" height="56" preserveAspectRatio="xMidYMid meet" version="1.0"><defs><clipPath id="id1"><path d="M 0.488281 25 L 41.511719 25 L 41.511719 41.023438 L 0.488281 41.023438 Z M 0.488281 25 " clip-rule="nonzero"/></clipPath><clipPath id="id2"><path d="M 4 36 L 11 36 L 11 41.023438 L 4 41.023438 Z M 4 36 " clip-rule="nonzero"/></clipPath><clipPath id="id3"><path d="M 31 36 L 38 36 L 38 41.023438 L 31 41.023438 Z M 31 36 " clip-rule="nonzero"/></clipPath></defs><path fill="#ffffff" d="M 21.949219 26.363281 L 21.949219 1.792969 L 16.804688 1.792969 C 16.804688 1.792969 16.589844 6.289062 12.398438 8.46875 C 8.207031 10.652344 6.480469 10.875 6.480469 10.875 C 6.480469 10.875 5.269531 21.15625 8.121094 26.140625 C 10.972656 31.125 21.949219 26.363281 21.949219 26.363281 Z M 21.949219 26.363281 " fill-opacity="1" fill-rule="nonzero"/><path fill="#008fe5" d="M 21.949219 26.363281 L 21.949219 1.792969 L 16.804688 1.792969 C 16.804688 1.792969 16.589844 6.289062 12.398438 8.46875 C 8.207031 10.652344 6.480469 10.875 6.480469 10.875 C 6.480469 10.875 5.269531 21.15625 8.121094 26.140625 C 10.972656 31.125 21.949219 26.363281 21.949219 26.363281 Z M 21.949219 26.363281 " fill-opacity="0.8" fill-rule="nonzero"/><path fill="#ffffff" d="M 21.949219 14.792969 L 21.949219 1.792969 L 16.804688 1.792969 C 16.804688 1.792969 16.589844 6.289062 12.398438 8.46875 C 8.210938 10.652344 6.480469 10.875 6.480469 10.875 C 6.480469 10.875 5.8125 16.539062 6.636719 21.496094 Z M 21.949219 14.792969 " fill-opacity="1" fill-rule="nonzero"/><path fill="#008fe5" d="M 21.949219 14.792969 L 21.949219 1.792969 L 16.804688 1.792969 C 16.804688 1.792969 16.589844 6.289062 12.398438 8.46875 C 8.210938 10.652344 6.480469 10.875 6.480469 10.875 C 6.480469 10.875 5.8125 16.539062 6.636719 21.496094 Z M 21.949219 14.792969 " fill-opacity="1" fill-rule="nonzero"/><path fill="#00d0ce" d="M 21 40.488281 C 23.367188 40.339844 27.320312 37.742188 29.335938 36.015625 L 12.617188 36.015625 C 14.632812 37.742188 18.632812 40.34375 21 40.488281 Z M 21 40.488281 " fill-opacity="1" fill-rule="nonzero"/><path fill="#00d0ce" d="M 36.792969 9.050781 C 36.335938 9.128906 35.867188 9.179688 35.386719 9.179688 C 30.460938 9.179688 26.472656 5.070312 26.472656 0 L 15.523438 0 C 15.523438 5.070312 11.535156 9.179688 6.613281 9.179688 C 6.132812 9.179688 5.667969 9.128906 5.207031 9.050781 C 4.910156 10.921875 4.75 13.15625 4.75 15.84375 C 4.75 18.246094 5.558594 22.398438 6.394531 25.148438 L 9.097656 25.148438 C 8.214844 22.472656 7.34375 18.320312 7.34375 15.847656 C 7.34375 14.382812 7.390625 13.035156 7.492188 11.8125 C 12.613281 11.414062 16.8125 7.539062 17.859375 2.480469 C 18.761719 2.476562 19.835938 2.476562 21 2.476562 L 21 25.101562 L 35.949219 25.101562 C 36.785156 22.355469 37.246094 18.25 37.246094 15.851562 C 37.246094 13.15625 37.089844 10.921875 36.792969 9.050781 Z M 36.792969 9.050781 " fill-opacity="1" fill-rule="nonzero"/><g clip-path="url(#id1)"><path fill="#ffffff" d="M 41.511719 29.472656 L 37.730469 29.472656 L 37.945312 34.257812 L 37.894531 25.058594 L 4.109375 25.058594 L 4.109375 34.257812 L 4.269531 29.472656 L 0.488281 29.472656 L 2.445312 35.371094 L 0.488281 41.023438 L 10.636719 41.023438 L 10.636719 36.695312 L 4.109375 36.175781 L 37.890625 36.175781 L 31.363281 36.695312 L 31.363281 41.023438 L 41.511719 41.023438 L 39.558594 35.371094 Z M 41.511719 29.472656 " fill-opacity="1" fill-rule="nonzero"/><path fill="#fa7c49" d="M 41.511719 29.472656 L 37.730469 29.472656 L 37.945312 34.257812 L 37.894531 25.058594 L 4.109375 25.058594 L 4.109375 34.257812 L 4.269531 29.472656 L 0.488281 29.472656 L 2.445312 35.371094 L 0.488281 41.023438 L 10.636719 41.023438 L 10.636719 36.695312 L 4.109375 36.175781 L 37.890625 36.175781 L 31.363281 36.695312 L 31.363281 41.023438 L 41.511719 41.023438 L 39.558594 35.371094 Z M 41.511719 29.472656 " fill-opacity="1" fill-rule="nonzero"/></g><g clip-path="url(#id2)"><path fill="#ffffff" d="M 4.113281 36.175781 L 10.628906 36.175781 L 10.628906 41.023438 Z M 4.113281 36.175781 " fill-opacity="1" fill-rule="nonzero"/><path fill="#fa7c49" d="M 4.113281 36.175781 L 10.628906 36.175781 L 10.628906 41.023438 Z M 4.113281 36.175781 " fill-opacity="0.4" fill-rule="nonzero"/></g><g clip-path="url(#id3)"><path fill="#ffffff" d="M 37.632812 36.15625 L 31.28125 36.15625 L 31.28125 41.023438 Z M 37.632812 36.15625 " fill-opacity="1" fill-rule="nonzero"/><path fill="#fa7c49" d="M 37.632812 36.15625 L 31.28125 36.15625 L 31.28125 41.023438 Z M 37.632812 36.15625 " fill-opacity="0.4" fill-rule="nonzero"/></g></svg>