<svg xmlns="http://www.w3.org/2000/svg" xmlns:xlink="http://www.w3.org/1999/xlink" width="41" zoomAndPan="magnify" viewBox="0 0 30.75 37.5" height="50" preserveAspectRatio="xMidYMid meet" version="1.0"><defs><clipPath id="id1"><path d="M 9 3 L 24 3 L 24 10 L 9 10 Z M 9 3 " clip-rule="nonzero"/></clipPath><clipPath id="id2"><path d="M 23.078125 9.003906 C 23.078125 9.003906 21.707031 4.589844 16.738281 3.832031 C 11.773438 3.070312 9.039062 6.871094 9.039062 6.871094 C 9.039062 6.871094 11.886719 4.335938 15.75 5.996094 C 15.75 5.996094 17.664062 6.839844 18.933594 9.003906 Z M 23.078125 9.003906 " clip-rule="nonzero"/></clipPath><clipPath id="id3"><path d="M 13 11 L 24 11 L 24 17 L 13 17 Z M 13 11 " clip-rule="nonzero"/></clipPath><clipPath id="id4"><path d="M 16.992188 11.335938 L 23.078125 11.335938 C 23.078125 11.335938 22.976562 15.558594 19.238281 16.671875 C 15.503906 17.785156 13.863281 15.683594 13.863281 15.683594 C 13.863281 15.683594 17.175781 17.238281 19.269531 13.945312 L 16.980469 13.933594 Z M 16.992188 11.335938 " clip-rule="nonzero"/></clipPath><clipPath id="id5"><path d="M 7 6 L 24 6 L 24 20 L 7 20 Z M 7 6 " clip-rule="nonzero"/></clipPath><clipPath id="id6"><path d="M 16.894531 7.574219 C 16.894531 7.574219 12.554688 3.917969 8.457031 8.4375 C 8.457031 8.4375 5.46875 11.945312 9.042969 16.585938 C 12.613281 21.222656 17.980469 19.410156 17.980469 19.410156 C 17.980469 19.410156 22.46875 18.394531 23.464844 13.105469 C 23.464844 13.105469 22.257812 17.328125 17.769531 17.683594 C 17.769531 17.683594 14.964844 18.339844 12.191406 15.15625 C 12.191406 15.15625 9.933594 12.332031 11.652344 9.414062 C 13.371094 6.5 16.894531 7.574219 16.894531 7.574219 Z M 16.894531 7.574219 " clip-rule="nonzero"/></clipPath><clipPath id="id7"><path d="M 0.078125 24 L 30.425781 24 L 30.425781 37 L 0.078125 37 Z M 0.078125 24 " clip-rule="nonzero"/></clipPath></defs><path fill="rgb(100%, 100%, 100%, 0)" d="M 15.300781 0 L 15.449219 0 C 16.222656 0 16.984375 0.0742188 17.742188 0.226562 C 18.496094 0.375 19.230469 0.597656 19.945312 0.894531 C 20.65625 1.1875 21.332031 1.550781 21.972656 1.980469 C 22.617188 2.40625 23.207031 2.894531 23.753906 3.441406 C 24.300781 3.984375 24.785156 4.578125 25.214844 5.21875 C 25.644531 5.859375 26.003906 6.539062 26.300781 7.25 C 26.59375 7.960938 26.816406 8.695312 26.96875 9.453125 C 27.117188 10.210938 27.195312 10.972656 27.195312 11.746094 C 27.195312 12.515625 27.117188 13.28125 26.96875 14.035156 C 26.816406 14.792969 26.59375 15.527344 26.300781 16.238281 C 26.003906 16.953125 25.644531 17.628906 25.214844 18.269531 C 24.785156 18.910156 24.300781 19.503906 23.753906 20.050781 C 23.207031 20.59375 22.617188 21.082031 21.972656 21.511719 C 21.332031 21.9375 20.65625 22.300781 19.945312 22.59375 C 19.230469 22.890625 18.496094 23.113281 17.742188 23.265625 C 16.984375 23.414062 16.222656 23.488281 15.449219 23.488281 L 15.300781 23.488281 C 14.527344 23.488281 13.765625 23.414062 13.007812 23.265625 C 12.253906 23.113281 11.519531 22.890625 10.804688 22.59375 C 10.09375 22.300781 9.417969 21.9375 8.777344 21.511719 C 8.132812 21.082031 7.542969 20.59375 6.996094 20.050781 C 6.449219 19.503906 5.964844 18.910156 5.535156 18.269531 C 5.105469 17.628906 4.746094 16.953125 4.449219 16.238281 C 4.15625 15.527344 3.933594 14.792969 3.78125 14.035156 C 3.632812 13.28125 3.554688 12.515625 3.554688 11.746094 C 3.554688 10.972656 3.632812 10.210938 3.78125 9.453125 C 3.933594 8.695312 4.15625 7.960938 4.449219 7.25 C 4.746094 6.539062 5.105469 5.859375 5.535156 5.21875 C 5.964844 4.578125 6.449219 3.984375 6.996094 3.441406 C 7.542969 2.894531 8.132812 2.40625 8.777344 1.980469 C 9.417969 1.550781 10.09375 1.1875 10.804688 0.894531 C 11.519531 0.597656 12.253906 0.375 13.007812 0.226562 C 13.765625 0.0742188 14.527344 0 15.300781 0 Z M 15.300781 0 " fill-opacity="1" fill-rule="nonzero"/><g clip-path="url(#id1)"><g clip-path="url(#id2)"><path fill="rgb(100%, 100%, 100%)" d="M 9.039062 3.070312 L 9.039062 9.003906 L 23.078125 9.003906 L 23.078125 3.070312 Z M 9.039062 3.070312 " fill-opacity="1" fill-rule="nonzero"/></g></g><g clip-path="url(#id3)"><g clip-path="url(#id4)"><path fill="rgb(100%, 100%, 100%)" d="M 13.863281 11.335938 L 13.863281 17.785156 L 23.078125 17.785156 L 23.078125 11.335938 Z M 13.863281 11.335938 " fill-opacity="1" fill-rule="nonzero"/></g></g><g clip-path="url(#id5)"><g clip-path="url(#id6)"><path fill="rgb(100%, 100%, 100%)" d="M 5.46875 3.917969 L 5.46875 21.222656 L 23.464844 21.222656 L 23.464844 3.917969 Z M 5.46875 3.917969 " fill-opacity="1" fill-rule="nonzero"/></g></g><g clip-path="url(#id7)"><path fill="rgb(100%, 100%, 100%, 0)" d="M 6.046875 24.980469 L 24.703125 24.980469 C 25.09375 24.980469 25.480469 25.019531 25.867188 25.097656 C 26.25 25.171875 26.625 25.285156 26.984375 25.433594 C 27.347656 25.585938 27.691406 25.769531 28.019531 25.988281 C 28.34375 26.203125 28.644531 26.453125 28.921875 26.730469 C 29.199219 27.007812 29.449219 27.308594 29.664062 27.632812 C 29.882812 27.960938 30.066406 28.304688 30.214844 28.664062 C 30.367188 29.027344 30.480469 29.402344 30.554688 29.785156 C 30.632812 30.171875 30.671875 30.558594 30.671875 30.949219 C 30.671875 31.34375 30.632812 31.730469 30.554688 32.113281 C 30.480469 32.5 30.367188 32.871094 30.214844 33.234375 C 30.066406 33.597656 29.882812 33.941406 29.664062 34.265625 C 29.449219 34.59375 29.199219 34.894531 28.921875 35.171875 C 28.644531 35.449219 28.34375 35.695312 28.019531 35.914062 C 27.691406 36.132812 27.347656 36.316406 26.984375 36.464844 C 26.625 36.613281 26.25 36.726562 25.867188 36.804688 C 25.480469 36.882812 25.09375 36.917969 24.703125 36.917969 L 6.046875 36.917969 C 5.65625 36.917969 5.269531 36.882812 4.882812 36.804688 C 4.5 36.726562 4.125 36.613281 3.765625 36.464844 C 3.402344 36.316406 3.058594 36.132812 2.730469 35.914062 C 2.40625 35.695312 2.105469 35.449219 1.828125 35.171875 C 1.550781 34.894531 1.300781 34.59375 1.085938 34.265625 C 0.867188 33.941406 0.683594 33.597656 0.535156 33.234375 C 0.382812 32.871094 0.269531 32.5 0.195312 32.113281 C 0.117188 31.730469 0.078125 31.34375 0.078125 30.949219 C 0.078125 30.558594 0.117188 30.171875 0.195312 29.785156 C 0.269531 29.402344 0.382812 29.027344 0.535156 28.664062 C 0.683594 28.304688 0.867188 27.960938 1.085938 27.632812 C 1.300781 27.308594 1.550781 27.007812 1.828125 26.730469 C 2.105469 26.453125 2.40625 26.203125 2.730469 25.988281 C 3.058594 25.769531 3.402344 25.585938 3.765625 25.433594 C 4.125 25.285156 4.5 25.171875 4.882812 25.097656 C 5.269531 25.019531 5.65625 24.980469 6.046875 24.980469 Z M 6.046875 24.980469 " fill-opacity="1" fill-rule="nonzero"/></g><path fill="rgb(100%, 100%, 100%)" d="M 3.019531 31.476562 L 3.019531 33.1875 L 2.023438 33.1875 L 2.023438 28.910156 L 4.625 28.910156 L 4.625 29.804688 L 3.019531 29.804688 L 3.019531 30.640625 L 4.566406 30.640625 L 4.566406 31.476562 Z M 6.160156 32.089844 C 6.160156 32.261719 6.191406 32.386719 6.253906 32.472656 C 6.316406 32.558594 6.417969 32.601562 6.566406 32.601562 C 6.71875 32.601562 6.839844 32.558594 6.925781 32.46875 C 7.011719 32.378906 7.054688 32.253906 7.054688 32.089844 L 7.054688 30.378906 L 7.984375 30.378906 L 7.984375 33.1875 L 7.054688 33.1875 L 7.054688 32.765625 C 6.878906 33.089844 6.59375 33.25 6.199219 33.25 C 5.53125 33.25 5.195312 32.894531 5.195312 32.1875 L 5.195312 30.378906 L 6.160156 30.378906 Z M 10.53125 31.476562 C 10.53125 31.3125 10.5 31.183594 10.433594 31.09375 C 10.375 31.007812 10.269531 30.964844 10.121094 30.964844 C 9.972656 30.964844 9.855469 31.007812 9.769531 31.097656 C 9.683594 31.1875 9.640625 31.316406 9.640625 31.476562 L 9.640625 33.1875 L 8.710938 33.1875 L 8.710938 30.378906 L 9.640625 30.378906 L 9.640625 30.800781 C 9.816406 30.476562 10.101562 30.316406 10.496094 30.316406 C 11.164062 30.316406 11.496094 30.671875 11.496094 31.378906 L 11.496094 33.1875 L 10.53125 33.1875 Z M 12.445312 32.859375 C 12.183594 32.597656 12.054688 32.238281 12.054688 31.785156 C 12.054688 31.328125 12.183594 30.96875 12.445312 30.707031 C 12.707031 30.449219 13.019531 30.316406 13.386719 30.316406 C 13.804688 30.316406 14.125 30.488281 14.351562 30.832031 L 14.351562 28.421875 L 15.28125 28.421875 L 15.28125 33.1875 L 14.351562 33.1875 L 14.351562 32.738281 C 14.125 33.078125 13.804688 33.25 13.386719 33.25 C 13.019531 33.25 12.707031 33.121094 12.445312 32.859375 Z M 13.027344 31.785156 C 13.027344 31.996094 13.09375 32.171875 13.222656 32.308594 C 13.347656 32.4375 13.507812 32.503906 13.699219 32.503906 C 13.871094 32.503906 14.019531 32.4375 14.152344 32.308594 C 14.285156 32.175781 14.351562 32 14.351562 31.785156 C 14.351562 31.570312 14.285156 31.398438 14.152344 31.265625 C 14.015625 31.128906 13.867188 31.0625 13.699219 31.0625 C 13.507812 31.0625 13.347656 31.128906 13.222656 31.265625 C 13.09375 31.402344 13.027344 31.574219 13.027344 31.785156 Z M 16.699219 32.347656 C 16.699219 32.546875 16.835938 32.644531 17.105469 32.644531 C 17.503906 32.644531 17.714844 32.460938 17.734375 32.09375 C 17.585938 32.023438 17.410156 31.984375 17.203125 31.984375 C 17.039062 31.984375 16.917969 32.019531 16.835938 32.082031 C 16.746094 32.152344 16.699219 32.238281 16.699219 32.347656 Z M 16.347656 31.246094 L 16.027344 30.621094 C 16.492188 30.40625 16.921875 30.296875 17.3125 30.296875 C 17.703125 30.296875 18.019531 30.378906 18.257812 30.535156 C 18.5 30.695312 18.621094 30.917969 18.621094 31.210938 L 18.621094 33.1875 L 17.734375 33.1875 L 17.734375 32.792969 C 17.65625 32.933594 17.535156 33.046875 17.367188 33.128906 C 17.195312 33.210938 17.003906 33.25 16.792969 33.25 C 16.484375 33.25 16.234375 33.175781 16.046875 33.023438 C 15.863281 32.878906 15.773438 32.671875 15.773438 32.40625 C 15.773438 32.125 15.882812 31.902344 16.109375 31.734375 C 16.332031 31.566406 16.625 31.484375 16.988281 31.484375 C 17.261719 31.484375 17.507812 31.539062 17.734375 31.648438 L 17.734375 31.390625 C 17.734375 31.277344 17.6875 31.183594 17.597656 31.113281 C 17.507812 31.039062 17.390625 31 17.238281 31 C 16.917969 31 16.621094 31.082031 16.347656 31.246094 Z M 19.535156 32.859375 C 19.273438 32.597656 19.144531 32.238281 19.144531 31.785156 C 19.144531 31.328125 19.273438 30.96875 19.535156 30.707031 C 19.796875 30.449219 20.109375 30.316406 20.476562 30.316406 C 20.890625 30.316406 21.214844 30.488281 21.441406 30.832031 L 21.441406 28.421875 L 22.371094 28.421875 L 22.371094 33.1875 L 21.441406 33.1875 L 21.441406 32.738281 C 21.214844 33.078125 20.890625 33.25 20.476562 33.25 C 20.109375 33.25 19.796875 33.121094 19.535156 32.859375 Z M 20.117188 31.785156 C 20.117188 31.996094 20.183594 32.171875 20.3125 32.308594 C 20.4375 32.4375 20.597656 32.503906 20.789062 32.503906 C 20.960938 32.503906 21.109375 32.4375 21.242188 32.308594 C 21.375 32.175781 21.441406 32 21.441406 31.785156 C 21.441406 31.570312 21.375 31.398438 21.242188 31.265625 C 21.105469 31.128906 20.957031 31.0625 20.789062 31.0625 C 20.597656 31.0625 20.4375 31.128906 20.3125 31.265625 C 20.183594 31.402344 20.117188 31.574219 20.117188 31.785156 Z M 23.363281 32.847656 C 23.0625 32.582031 22.910156 32.226562 22.910156 31.785156 C 22.910156 31.339844 23.0625 30.984375 23.363281 30.71875 C 23.667969 30.453125 24.054688 30.316406 24.519531 30.316406 C 24.980469 30.316406 25.367188 30.453125 25.671875 30.71875 C 25.972656 30.984375 26.125 31.339844 26.125 31.785156 C 26.125 32.226562 25.972656 32.582031 25.671875 32.847656 C 25.367188 33.117188 24.980469 33.25 24.519531 33.25 C 24.054688 33.25 23.667969 33.117188 23.363281 32.847656 Z M 23.863281 31.785156 C 23.863281 31.996094 23.925781 32.167969 24.046875 32.296875 C 24.167969 32.421875 24.328125 32.484375 24.519531 32.484375 C 24.710938 32.484375 24.867188 32.421875 24.988281 32.296875 C 25.109375 32.167969 25.171875 31.996094 25.171875 31.785156 C 25.171875 31.566406 25.109375 31.398438 24.980469 31.269531 C 24.851562 31.140625 24.695312 31.074219 24.519531 31.074219 C 24.339844 31.074219 24.183594 31.140625 24.054688 31.269531 C 23.925781 31.398438 23.863281 31.566406 23.863281 31.785156 Z M 28.398438 31.335938 C 28.289062 31.226562 28.167969 31.171875 28.035156 31.171875 C 27.898438 31.171875 27.789062 31.226562 27.707031 31.335938 C 27.625 31.453125 27.585938 31.605469 27.585938 31.800781 L 27.585938 33.1875 L 26.679688 33.1875 L 26.679688 30.378906 L 27.585938 30.378906 L 27.585938 30.734375 C 27.773438 30.453125 28.007812 30.3125 28.292969 30.3125 C 28.390625 30.3125 28.488281 30.332031 28.585938 30.378906 C 28.679688 30.421875 28.75 30.476562 28.800781 30.542969 Z M 28.398438 31.335938 " fill-opacity="1" fill-rule="nonzero"/></svg>