<svg width="56" height="57" viewBox="0 0 56 57" fill="none" xmlns="http://www.w3.org/2000/svg">
<g clip-path="url(#clip0)">
<path d="M26.6826 1.2684C26.6826 1.2684 27.88 1.18962 29.1305 1.41397C30.381 1.63832 31.7546 2.41926 31.7546 2.41926C31.7546 2.41926 31.344 0.790586 31.2978 0.785448C31.2517 0.779454 27.9365 0.867653 27.9365 0.867653L26.6826 1.2684Z" fill="#C1332D"/>
<path d="M29.5623 1.50148C30.7845 1.79176 31.952 2.38175 32.8227 3.28857C33.3051 3.79036 33.7062 4.436 33.6763 5.13217C33.6652 5.39848 33.5908 5.66736 33.6446 5.92853C33.7267 6.33184 34.0894 6.61356 34.4512 6.8088C35.3433 7.29175 36.3919 7.47756 37.3951 7.33028C37.7159 7.28318 38.0383 7.20012 38.3086 7.02116C38.5241 6.87901 38.6969 6.68121 38.8671 6.48683C39.0519 6.27618 39.2358 6.06553 39.4205 5.85403C39.5043 5.75812 39.589 5.66136 39.6429 5.54662C39.7943 5.22808 39.6822 4.84702 39.5223 4.53191C39.1383 3.77409 38.4968 3.16869 37.7758 2.72084C37.0539 2.273 36.2516 1.97244 35.4433 1.71298C33.0117 0.933755 30.4441 0.497045 27.8987 0.696561C27.0349 0.764209 26.0752 0.883234 25.2969 1.28997C25.9375 1.42698 26.6004 1.26942 27.2495 1.26172C28.0261 1.2523 28.8062 1.32166 29.5623 1.50148Z" fill="white"/>
<path d="M29.5623 1.50148C30.7845 1.79176 31.952 2.38175 32.8227 3.28857C33.3051 3.79036 33.7062 4.436 33.6763 5.13217C33.6652 5.39848 33.5908 5.66736 33.6446 5.92853C33.7267 6.33184 34.0894 6.61356 34.4512 6.8088C35.3433 7.29175 36.3919 7.47756 37.3951 7.33028C37.7159 7.28318 38.0383 7.20012 38.3086 7.02116C38.5241 6.87901 38.6969 6.68121 38.8671 6.48683C39.0519 6.27618 39.2358 6.06553 39.4205 5.85403C39.5043 5.75812 39.589 5.66136 39.6429 5.54662C39.7943 5.22808 39.6822 4.84702 39.5223 4.53191C39.1383 3.77409 38.4968 3.16869 37.7758 2.72084C37.0539 2.273 36.2516 1.97244 35.4433 1.71298C33.0117 0.933755 30.4441 0.497045 27.8987 0.696561C27.0349 0.764209 26.0752 0.883234 25.2969 1.28997C25.9375 1.42698 26.6004 1.26942 27.2495 1.26172C28.0261 1.2523 28.8062 1.32166 29.5623 1.50148Z" fill="#008FE5"/>
<path d="M30.9965 32.1474L39.6872 5.43015L33.6949 5.38477L25.0889 32.1474H30.9965Z" fill="white"/>
<path d="M30.9965 32.1474L39.6872 5.43015L33.6949 5.38477L25.0889 32.1474H30.9965Z" fill="#008FE5"/>
<path d="M36.4278 53.1089C40.9948 48.5366 40.9948 41.1235 36.4278 36.5513C31.8608 31.979 24.4563 31.979 19.8893 36.5513C15.3224 41.1235 15.3224 48.5366 19.8893 53.1089C24.4563 57.6811 31.8608 57.6811 36.4278 53.1089Z" fill="#FFCB4A"/>
<path d="M33.816 34.5781C36.9122 36.6846 38.947 40.2391 38.947 44.2688C38.947 50.7346 33.7108 55.9769 27.2524 55.9769C25.1997 55.9769 23.271 55.4468 21.5938 54.5169C23.4652 55.7893 25.724 56.5335 28.1574 56.5335C34.6158 56.5335 39.8519 51.2912 39.8519 44.8254C39.8528 40.4146 37.4152 36.5741 33.816 34.5781Z" fill="#F2AF41"/>
<path d="M33.8007 50.5464C36.9929 47.3505 36.9929 42.169 33.8007 38.9731C30.6086 35.7772 25.433 35.7772 22.2409 38.9731C19.0487 42.169 19.0487 47.3505 22.2409 50.5464C25.433 53.7423 30.6086 53.7423 33.8007 50.5464Z" fill="#FFE878"/>
<path d="M20.9167 45.3381C20.9167 40.8185 24.5765 37.1544 29.0908 37.1544C30.2754 37.1544 31.401 37.407 32.4162 37.8609C31.147 37.0491 29.6391 36.5781 28.0208 36.5781C23.5065 36.5781 19.8467 40.2422 19.8467 44.7618C19.8467 48.0954 21.8378 50.9632 24.6945 52.2391C22.4229 50.785 20.9167 48.2375 20.9167 45.3381Z" fill="#F2AF41"/>
<g opacity="0.26">
<path opacity="0.26" d="M17.5951 42.7874C17.4283 43.5632 17.3419 44.4238 17.749 45.1046C17.8114 45.209 17.8901 45.3109 18.003 45.3563C18.2947 45.4719 18.5701 45.1448 18.665 44.8451C18.872 44.1926 18.7728 43.4887 18.7959 42.8046C18.8412 41.4919 19.351 40.2288 20.0506 39.1182C20.6425 38.1789 21.3687 37.3346 22.1076 36.5099C22.4626 36.1135 22.8321 35.6588 22.0426 35.9063C20.3987 36.4217 19.4322 38.1497 18.7138 39.5977C18.2117 40.609 17.8328 41.6828 17.5951 42.7874Z" fill="white"/>
</g>
<g opacity="0.26">
<path opacity="0.26" d="M17.7751 47.6676C17.9342 47.9425 18.207 48.1626 18.5218 48.2037C18.5765 48.2105 18.6347 48.2122 18.6852 48.1891C18.7399 48.1634 18.7792 48.112 18.8083 48.0589C18.9229 47.8491 18.9178 47.5965 18.8964 47.3585C18.8562 46.9141 18.7775 45.6536 18.0368 45.8291C17.3132 46.0004 17.516 47.2232 17.7751 47.6676Z" fill="white"/>
</g>
<path d="M23.6707 31.7582C23.6792 31.6118 23.6929 31.4568 23.781 31.3395C23.8717 31.2196 24.0239 31.1648 24.1685 31.122C24.9186 30.9028 25.7072 30.854 26.488 30.8214C28.2568 30.7469 30.0281 30.7444 31.7978 30.8146C31.9791 30.8214 32.1681 30.8317 32.3246 30.9225C32.4726 31.0072 32.5744 31.1545 32.6514 31.3061C32.9003 31.7985 32.9328 32.3687 32.9593 32.9202C32.9986 33.7234 33.038 34.5266 33.0773 35.3298C33.0807 35.4035 33.0824 35.484 33.0397 35.5448C32.9815 35.627 32.866 35.6389 32.766 35.6432C32.4401 35.6578 32.1142 35.6715 31.7884 35.686C31.7216 35.6886 31.6489 35.6895 31.5985 35.6458C31.5472 35.6013 31.5378 35.5251 31.5335 35.4574C31.4582 34.2457 31.7199 33.0084 31.4445 31.8267C31.4146 31.6983 31.3701 31.5596 31.2589 31.4876C31.17 31.4302 31.0571 31.4285 30.951 31.4294C29.0095 31.438 27.0688 31.4671 25.1281 31.5167C25.0178 31.5193 24.8989 31.5253 24.8134 31.5955C24.7184 31.6734 24.6945 31.807 24.6782 31.9286C24.5713 32.7472 24.561 33.5778 24.6457 34.399C24.6782 34.7133 24.7227 35.0438 24.6004 35.335C24.4781 35.6261 24.1146 35.8419 23.8392 35.6869C23.4132 35.4463 23.633 34.5155 23.6236 34.1113C23.6074 33.3261 23.6228 32.5409 23.6707 31.7582Z" fill="#FFCB4A"/>
<path d="M25.0888 32.1474L16.4639 5.38477H22.5126L30.9963 32.1474H25.0888Z" fill="white"/>
<path d="M25.0888 32.1474L16.4639 5.38477H22.5126L30.9963 32.1474H25.0888Z" fill="#008FE5" fill-opacity="0.8"/>
<path d="M28.1045 22.771C28.1045 22.771 30.6097 30.9221 30.5584 30.7628C30.507 30.6036 28.5527 21.377 28.5527 21.377L28.1045 22.771Z" fill="white"/>
<path d="M28.1045 22.771C28.1045 22.771 30.6097 30.9221 30.5584 30.7628C30.507 30.6036 28.5527 21.377 28.5527 21.377L28.1045 22.771Z" fill="#005E97"/>
<path d="M23.2615 3.62762C24.1527 2.53413 25.457 1.83539 26.8161 1.46205C28.1752 1.0887 29.843 0.795848 31.2526 0.778722C30.0013 0.595475 28.6524 0.603182 27.4584 0.690524C24.7463 0.888328 22.0529 1.34987 19.4297 2.06745C18.24 2.39284 16.9185 2.90148 16.4755 4.0532C16.1881 4.79817 16.3617 5.66646 16.7868 6.34207C17.2119 7.01769 17.8619 7.52376 18.5496 7.92879C19.2757 8.35608 20.1054 8.69346 20.941 8.58385C21.8904 8.45969 22.6371 7.66676 22.5995 6.71028C22.5516 5.48749 22.4053 4.67744 23.2615 3.62762Z" fill="white"/>
<path d="M23.2615 3.62762C24.1527 2.53413 25.457 1.83539 26.8161 1.46205C28.1752 1.0887 29.843 0.795848 31.2526 0.778722C30.0013 0.595475 28.6524 0.603182 27.4584 0.690524C24.7463 0.888328 22.0529 1.34987 19.4297 2.06745C18.24 2.39284 16.9185 2.90148 16.4755 4.0532C16.1881 4.79817 16.3617 5.66646 16.7868 6.34207C17.2119 7.01769 17.8619 7.52376 18.5496 7.92879C19.2757 8.35608 20.1054 8.69346 20.941 8.58385C21.8904 8.45969 22.6371 7.66676 22.5995 6.71028C22.5516 5.48749 22.4053 4.67744 23.2615 3.62762Z" fill="#008FE5" fill-opacity="0.6"/>
<g opacity="0.3">
<path opacity="0.3" d="M17.7725 4.88128C17.7178 5.44558 17.9017 6.00217 18.0838 6.53907C18.8981 8.94269 19.7123 11.3463 20.5257 13.7499C20.6096 13.9983 20.6985 14.2543 20.879 14.4444C21.0594 14.6345 21.3579 14.7381 21.5897 14.6156C21.9849 13.1377 21.1373 11.6537 20.5009 10.2622C20.1255 9.44105 19.8158 8.5899 19.5746 7.71904C19.3497 6.90471 19.1846 6.05184 19.3086 5.21609C19.4327 4.38035 19.8902 3.55574 20.6438 3.17383C20.489 3.25261 19.8962 3.14215 19.6576 3.20465C19.401 3.2723 19.0546 3.43928 18.816 3.56259C18.2515 3.85715 17.8426 4.16713 17.7725 4.88128Z" fill="white"/>
</g>
<g opacity="0.3">
<path opacity="0.3" d="M21.8592 18.485C22.0577 19.0356 22.3091 19.5673 22.6102 20.0691C22.7171 20.2472 22.8471 20.4348 23.0464 20.4904C23.3346 20.5718 23.6314 20.3235 23.7152 20.0366C23.7999 19.7489 23.7306 19.4423 23.6605 19.1503C23.4937 18.4499 23.3261 17.7494 23.1593 17.049C23.1165 16.87 23.0661 16.6774 22.9224 16.5618C22.6564 16.3468 22.026 16.5138 21.8225 16.7621C21.4667 17.198 21.6933 18.0243 21.8592 18.485Z" fill="white"/>
</g>
</g>
<defs>
<clipPath id="clip0">
<rect width="23.52" height="55.9067" fill="white" transform="translate(16.333 0.626953)"/>
</clipPath>
</defs>
</svg>
