<svg width="56" height="56" viewBox="0 0 56 56" fill="none" xmlns="http://www.w3.org/2000/svg">
<g clip-path="url(#clip0)">
<path d="M40.4436 36.3446C47.3165 29.4611 47.3165 18.3006 40.4436 11.4171C33.5708 4.53353 22.4277 4.53353 15.5548 11.4171C8.68191 18.3006 8.68191 29.4611 15.5548 36.3446C22.4277 43.2282 33.5708 43.2282 40.4436 36.3446Z" fill="#FFCB4A"/>
<path d="M36.5158 8.45117C41.1757 11.6225 44.2377 16.9733 44.2377 23.0415C44.2377 32.7763 36.3582 40.6681 26.6384 40.6681C23.5492 40.6681 20.6459 39.8701 18.123 38.4701C20.9394 40.3861 24.3395 41.5064 28.0004 41.5064C37.7202 41.5064 45.5997 33.6146 45.5997 23.8798C45.5997 17.2389 41.9322 11.457 36.5158 8.45117Z" fill="#F2AF41"/>
<path d="M27.7925 36.096C34.5864 36.096 40.0939 30.5799 40.0939 23.7755C40.0939 16.9711 34.5864 11.4551 27.7925 11.4551C20.9987 11.4551 15.4912 16.9711 15.4912 23.7755C15.4912 30.5799 20.9987 36.096 27.7925 36.096Z" fill="#FFE878"/>
<path d="M17.101 24.6432C17.101 17.839 22.6087 12.3227 29.4023 12.3227C31.185 12.3227 32.8785 12.7027 34.4079 13.3864C32.498 12.1638 30.2284 11.4551 27.7925 11.4551C20.9989 11.4551 15.4912 16.9714 15.4912 23.7755C15.4912 28.7943 18.488 33.1119 22.787 35.0323C19.3685 32.8441 17.101 29.0087 17.101 24.6432Z" fill="#F2AF41"/>
<g opacity="0.26">
<path opacity="0.26" d="M12.1039 20.8038C11.8529 21.9719 11.7224 23.2674 12.3355 24.293C12.429 24.4497 12.5474 24.6043 12.7181 24.6718C13.1572 24.846 13.5725 24.3528 13.7149 23.9021C14.0257 22.9202 13.8768 21.8598 13.9127 20.8299C13.9812 18.854 14.7475 16.9521 15.8008 15.2799C16.691 13.8646 17.7845 12.5941 18.8965 11.3531C19.4313 10.7565 19.9867 10.0706 18.7987 10.444C16.3247 11.2203 14.8703 13.8211 13.7888 16.0017C13.0322 17.5236 12.4616 19.1403 12.1039 20.8038Z" fill="white"/>
</g>
<g opacity="0.26">
<path opacity="0.26" d="M12.3725 28.1558C12.6127 28.5695 13.0225 28.9015 13.4964 28.9625C13.579 28.9734 13.666 28.9755 13.7421 28.9407C13.8247 28.9026 13.8834 28.8253 13.9269 28.7447C14.0986 28.429 14.091 28.048 14.0595 27.6909C13.9986 27.0214 13.8801 25.1239 12.7649 25.3884C11.6779 25.6453 11.9833 27.4852 12.3725 28.1558Z" fill="white"/>
</g>
<path d="M33.5798 30.2079L28.5776 27.5603L23.5644 30.1873L24.5318 24.6035L20.4883 20.6397L26.0895 19.8362L28.6047 14.7598L31.0983 19.8471L36.6951 20.6734L32.6353 24.6209L33.5798 30.2079Z" fill="#FFCB4A"/>
<path d="M30.4776 19.0197L30.7091 19.0535L28.6048 14.7598L28.4961 14.9775L30.4776 19.0197Z" fill="#F2AF41"/>
<path d="M23.9112 23.7761L20.6839 20.6113L20.4883 20.6396L23.8797 23.9633L23.9112 23.7761Z" fill="#F2AF41"/>
<path d="M36.6951 20.6747L35.4179 20.4863L32.0146 23.7948L32.9603 29.3818L27.9569 26.7342L23.784 28.9213L23.5645 30.1885L28.5776 27.5616L33.5799 30.2092L32.6353 24.6222L36.6951 20.6747Z" fill="#F2AF41"/>
<path d="M0 47.0707C2.01743 46.6929 4.10878 46.4338 6.22729 46.2977C5.36206 47.3788 4.97075 48.5709 5.09466 49.7477C5.82076 49.0803 6.55665 48.4065 7.54145 47.8458C8.20559 47.468 8.96539 47.1447 9.74149 46.8366C12.5774 45.7098 17.3808 44.6255 17.5851 44.3544C17.6884 44.2173 15.4383 44.2249 15.4275 44.0768C15.4101 43.8384 15.3014 43.6022 15.109 43.3877C14.5633 42.7781 13.422 42.4014 12.3013 42.1063C11.4437 41.881 9.75128 41.4521 8.83061 41.808C8.49256 41.9387 8.36212 42.1423 7.98385 42.2718C7.51101 42.434 7.0284 42.5843 6.56752 42.7585C4.7577 43.4443 3.16637 44.3011 1.88373 45.2787C1.14894 45.8416 0.515227 46.4414 0 47.0707Z" fill="#EF0A0A"/>
<path d="M10.4431 43.3912C10.3963 43.6002 10.4137 43.8136 10.4963 44.0194C10.5518 44.1587 10.642 44.2992 10.8268 44.3993C11.0931 44.5452 11.4985 44.5789 11.8735 44.5953C13.6823 44.6769 15.4975 44.5474 17.2965 44.4189C17.403 44.4113 17.5204 44.4004 17.5845 44.3536C17.6302 44.3198 17.6378 44.2763 17.6432 44.2338C17.753 43.3433 17.515 42.4397 16.9486 41.6025C16.6823 41.2084 16.3269 40.8165 15.7388 40.5443C14.7551 40.0904 13.2638 40.0664 12.092 40.3582C11.2681 40.5639 10.5561 40.9178 10.1865 41.3685C9.81697 41.8192 9.81806 42.3668 10.2659 42.7957C10.2757 42.8055 10.2942 42.812 10.3137 42.8131L10.4431 43.3912Z" fill="#C1332D"/>
<path d="M2.18476 38.0777C2.18476 38.0777 1.49888 36.2063 16.0796 35.0937C22.3906 34.6114 27.9994 34.7094 27.9994 34.7094V41.5527C27.9994 41.5527 20.5992 41.5647 17.3753 41.9272C10.7175 42.6762 10.8241 44.3669 10.8241 44.3669L2.18476 38.0777Z" fill="#FF4936"/>
<path d="M55.9997 47.0707C53.9823 46.6929 51.8909 46.4338 49.7724 46.2977C50.6376 47.3788 51.029 48.5709 50.905 49.7477C50.1789 49.0803 49.4431 48.4065 48.4583 47.8458C47.7941 47.468 47.0343 47.1447 46.2582 46.8366C43.4223 45.7098 38.6189 44.6255 38.4146 44.3544C38.3113 44.2173 40.5614 44.2249 40.5722 44.0768C40.5896 43.8384 40.6983 43.6022 40.8907 43.3877C41.4364 42.7781 42.5777 42.4014 43.6984 42.1063C44.5571 41.881 46.2484 41.4521 47.1691 41.808C47.5071 41.9387 47.6376 42.1423 48.0159 42.2718C48.4887 42.434 48.9713 42.5843 49.4322 42.7585C51.242 43.4443 52.8333 44.3011 54.116 45.2787C54.8508 45.8416 55.4845 46.4414 55.9997 47.0707Z" fill="#EF0A0A"/>
<path d="M45.5573 43.3912C45.604 43.6002 45.5866 43.8136 45.504 44.0194C45.4486 44.1587 45.3583 44.2992 45.1736 44.3993C44.9072 44.5452 44.5029 44.5789 44.1268 44.5953C42.3181 44.6769 40.5028 44.5474 38.7039 44.4189C38.5973 44.4113 38.4799 44.4004 38.4158 44.3536C38.3702 44.3198 38.3626 44.2763 38.3571 44.2338C38.2473 43.3433 38.4854 42.4397 39.0517 41.6025C39.318 41.2084 39.6734 40.8165 40.2615 40.5443C41.2452 40.0904 42.7366 40.0664 43.9083 40.3582C44.7322 40.5639 45.4442 40.9178 45.8138 41.3685C46.1834 41.8192 46.1823 42.3668 45.7344 42.7957C45.7247 42.8055 45.7062 42.812 45.6866 42.8131L45.5573 43.3912Z" fill="#C1332D"/>
<path d="M53.8156 38.0777C53.8156 38.0777 54.5015 36.2063 39.9208 35.0937C33.6098 34.6114 28.001 34.7094 28.001 34.7094V41.5527C28.001 41.5527 35.4011 41.5647 38.6251 41.9272C45.2829 42.6762 45.1763 44.3669 45.1763 44.3669L53.8156 38.0777Z" fill="#FF4936"/>
</g>
<defs>
<clipPath id="clip0">
<rect width="56" height="43.4933" fill="white" transform="translate(0 6.25391)"/>
</clipPath>
</defs>
</svg>
