<svg width="56" height="56" viewBox="0 0 56 56" fill="none" xmlns="http://www.w3.org/2000/svg">
<path d="M28.0003 51.3327C15.1195 51.3186 4.68114 40.8802 4.66699 27.9994V27.5327C4.9235 14.71 15.481 4.49796 28.3052 4.66811C41.1294 4.83827 51.4123 15.3268 51.3285 28.1518C51.2447 40.9769 40.8257 51.3302 28.0003 51.3327ZM17.2903 27.0427L14.0003 30.3327L23.3337 39.6661L42.0003 20.9994L38.7103 17.6861L23.3337 33.0627L17.2903 27.0427Z" fill="white"/>
<path d="M28.0003 51.3327C15.1195 51.3186 4.68114 40.8802 4.66699 27.9994V27.5327C4.9235 14.71 15.481 4.49796 28.3052 4.66811C41.1294 4.83827 51.4123 15.3268 51.3285 28.1518C51.2447 40.9769 40.8257 51.3302 28.0003 51.3327ZM17.2903 27.0427L14.0003 30.3327L23.3337 39.6661L42.0003 20.9994L38.7103 17.6861L23.3337 33.0627L17.2903 27.0427Z" fill="#00C09E"/>
</svg>
