<svg width="56" height="56" viewBox="0 0 56 56" fill="none" xmlns="http://www.w3.org/2000/svg">
<g clip-path="url(#clip0)">
<path d="M29.7706 26.8164H26.9902V43.6961H29.7706V26.8164Z" fill="#F2AF41"/>
<path d="M40.3508 35.2566L28.3805 29.458L16.7016 35.7975L18.6509 22.892L8.86621 14.0078L22.0414 11.8302L27.6736 0L33.8665 11.5597L47.1329 13.1331L37.7848 22.4541L40.3508 35.2566Z" fill="#FFCB4A"/>
<path d="M16.7012 35.7968C16.7012 35.7968 27.9766 17.7376 27.9997 17.8975C28.0217 18.0575 28.3812 29.4572 28.3812 29.4572L16.7012 35.7968Z" fill="#FFBB43"/>
<path d="M40.3508 35.2578L37.7848 22.4552L27.999 17.9004L40.3508 35.2578Z" fill="#FFBB43"/>
<path d="M47.1329 13.1348L27.999 17.901L37.7847 22.4558L47.1329 13.1348Z" fill="#FFBB43"/>
<path d="M27.6736 0C27.5307 0.300504 27.999 17.8993 27.999 17.8993L34.1754 11.5962L27.6736 0Z" fill="#FFBB43"/>
<path d="M8.86621 14.0059L18.6509 22.89L27.999 17.8974L8.86621 14.0059Z" fill="#FFBB43"/>
<path d="M43.2547 43.6953H12.6914V55.9988H43.2547V43.6953Z" fill="white"/>
<path d="M43.2547 43.6953H12.6914V55.9988H43.2547V43.6953Z" fill="#FA7C49" fill-opacity="0.8"/>
<path d="M36.8626 45.2043C36.0414 47.0094 34.6627 48.2855 32.9224 49.2686C30.3916 50.6971 27.5178 51.4333 24.656 52.0118C20.7125 52.8092 16.7118 53.3361 12.6924 53.5916V55.9999H43.2556V43.6953H37.4662C37.2672 44.2062 37.0825 44.7224 36.8626 45.2043Z" fill="white"/>
<path d="M36.8626 45.2043C36.0414 47.0094 34.6627 48.2855 32.9224 49.2686C30.3916 50.6971 27.5178 51.4333 24.656 52.0118C20.7125 52.8092 16.7118 53.3361 12.6924 53.5916V55.9999H43.2556V43.6953H37.4662C37.2672 44.2062 37.0825 44.7224 36.8626 45.2043Z" fill="#FA7C49"/>
<path d="M36.1319 53.1978H19.8125C18.0897 53.1978 16.6924 51.8338 16.6924 50.152V49.5478C16.6924 47.866 18.0897 46.502 19.8125 46.502H36.1308C37.8536 46.502 39.2509 47.866 39.2509 49.5478V50.152C39.252 51.8348 37.8547 53.1978 36.1319 53.1978Z" fill="#FFCB4A"/>
<g opacity="0.3">
<g opacity="0.3">
<path opacity="0.3" d="M19.7949 53.1978H22.6248C24.5916 50.9655 26.5584 48.7343 28.5252 46.502H25.1721C23.379 48.7343 21.5869 50.9666 19.7949 53.1978Z" fill="white"/>
</g>
<g opacity="0.3">
<path opacity="0.3" d="M34.9579 46.502H31.2903C29.6302 48.7042 28.0129 50.9366 26.4375 53.1979H29.2718C31.1418 50.9441 33.0372 48.7128 34.9579 46.502Z" fill="white"/>
</g>
<g opacity="0.3">
<path opacity="0.3" d="M38.7172 48.7802C38.8272 48.6364 38.9382 48.4915 39.0481 48.3477C38.8502 47.8561 38.5204 47.4301 38.0994 47.1113C36.8768 49.1397 35.6543 51.1692 34.4307 53.1975H35.2156C36.4305 51.7648 37.5749 50.2709 38.7172 48.7802Z" fill="white"/>
</g>
</g>
</g>
<defs>
<clipPath id="clip0">
<rect width="38.2667" height="56" fill="white" transform="translate(8.86621)"/>
</clipPath>
</defs>
</svg>
