<svg width="56" height="56" viewBox="0 0 56 56" fill="none" xmlns="http://www.w3.org/2000/svg">
<g clip-path="url(#clip0)">
<path d="M27.9993 0H9.7998V2.06915C9.7998 2.06915 13.5266 2.00216 15.0003 4.40519C16.4739 6.80821 12.8336 20.8914 15.5203 26.765C18.207 32.6386 28.0003 33.1723 28.0003 33.1723C28.0003 33.1723 37.7936 32.6386 40.4804 26.765C43.1671 20.8914 39.5268 6.80821 41.0004 4.40519C42.4741 2.00216 46.2009 2.06915 46.2009 2.06915V0H27.9993Z" fill="#C99B29"/>
<path d="M37.6151 45.154C37.2021 44.4668 36.362 44.1653 35.5673 44.053C34.7737 43.9406 33.951 43.9633 33.1941 43.7007C32.1303 43.3301 31.3151 42.4193 30.8599 41.3885C30.4047 40.3587 30.2717 39.2145 30.2447 38.0886C30.2112 36.684 30.4804 35.0351 31.7216 34.3739C32.1443 34.148 32.6622 34.0519 32.9671 33.6824C33.5163 33.0168 33.2331 31.5084 32.6546 30.9228C31.8438 30.1016 30.2825 29.6499 29.1949 29.4079C28.81 29.3225 28.398 29.2685 27.9991 29.2815C27.6001 29.2674 27.1882 29.3225 26.8033 29.4079C25.7156 29.6499 24.1533 30.1016 23.3435 30.9228C22.7651 31.5084 22.4829 33.0168 23.0311 33.6824C23.336 34.0519 23.8539 34.148 24.2766 34.3739C25.5178 35.0351 25.787 36.6829 25.7535 38.0886C25.7265 39.2145 25.5935 40.3587 25.1383 41.3885C24.6831 42.4182 23.869 43.3301 22.804 43.7007C22.0472 43.9644 21.2244 43.9406 20.4309 44.053C19.6373 44.1653 18.7972 44.4668 18.3831 45.154C18.0512 45.7061 18.0631 46.3944 18.129 47.0362C19.5627 47.2988 21.019 46.8709 22.4667 46.7034C24.2993 46.4906 26.1524 46.697 27.998 46.7596C29.8436 46.697 31.6978 46.4917 33.5293 46.7034C34.977 46.8709 36.4334 47.2988 37.867 47.0362C37.9351 46.3955 37.947 45.7072 37.6151 45.154Z" fill="#B4750E"/>
<path d="M42.3599 46.3223H13.6406V56.0003H42.3599V46.3223Z" fill="#FF4936"/>
<path d="M40.89 47.8574H15.1094V53.865H40.89V47.8574Z" fill="#D33B2F"/>
<path d="M39.8886 49.459H16.1113V52.3288H39.8886V49.459Z" fill="#FFCB4A"/>
<path d="M46.1998 2.06915V0H43.7272C42.3844 1.17234 40.5269 1.76121 38.7311 2.04538C36.4725 2.40303 34.1404 2.39762 31.964 3.09995C31.5153 3.24473 31.0407 3.44787 30.8093 3.85845C30.6579 4.12534 30.6331 4.44408 30.6417 4.75095C30.7098 7.08266 32.5165 8.95732 33.3641 11.1302C33.8636 12.4117 34.0269 13.7969 34.1447 15.1669C34.2939 16.9001 34.3653 18.7207 33.6258 20.295C33.1198 21.3733 32.2689 22.2507 31.3628 23.0243C28.9789 25.0578 26.0316 26.523 22.907 26.7747C19.9586 27.0113 16.8621 26.0756 14.7549 24.0184C14.9149 25.0492 15.1614 25.9805 15.5204 26.765C18.2071 32.6386 28.0004 33.1723 28.0004 33.1723C28.0004 33.1723 37.7937 32.6386 40.4804 26.765C43.1671 20.8914 39.5268 6.80821 41.0005 4.40519C42.473 2.00216 46.1998 2.06915 46.1998 2.06915Z" fill="#B4750E"/>
<g opacity="0.38">
<path opacity="0.38" d="M22.3004 2.04791C24.5006 2.04575 26.7516 2.03602 28.8231 1.29696C28.9702 1.01063 28.5128 0.810739 28.1906 0.810739C24.2454 0.807497 20.3002 0.845315 16.355 0.925271C15.5279 0.941479 12.453 0.561144 11.907 1.53467C11.6 2.08248 12.0454 1.99712 12.5925 2.05547C13.5526 2.15812 14.5851 2.05331 15.5506 2.05331C17.8016 2.05115 20.0515 2.04899 22.3004 2.04791Z" fill="white"/>
</g>
<g opacity="0.16">
<path opacity="0.16" d="M15.4492 10.8509C16.5369 11.0713 17.4397 11.8709 18.0203 12.8163C18.6008 13.7617 18.9003 14.8498 19.1598 15.9281C19.0593 14.866 19.1144 13.7736 19.4701 12.7687C19.8269 11.7628 20.507 10.8487 21.4454 10.3419C21.04 10.5602 19.6723 8.68987 19.5015 8.40678C19.003 7.5802 18.749 6.66826 18.683 5.71094C18.3684 6.72228 18.377 7.64611 17.7954 8.60451C17.2278 9.53914 16.4158 10.3311 15.4492 10.8509Z" fill="white"/>
</g>
<g opacity="0.38">
<path opacity="0.38" d="M17.1572 10.8318C17.6254 10.9269 18.0135 11.2705 18.2633 11.6767C18.513 12.083 18.6417 12.5509 18.753 13.0155C18.7098 12.5584 18.7336 12.0884 18.8871 11.6562C19.0406 11.224 19.3326 10.8307 19.7369 10.6124C19.5628 10.7064 18.9747 9.90148 18.9012 9.78047C18.6871 9.42498 18.5779 9.03276 18.5487 8.62109C18.4136 9.05653 18.4168 9.45307 18.167 9.86582C17.9227 10.2678 17.5735 10.6092 17.1572 10.8318Z" fill="white"/>
</g>
<path d="M17.9316 10.7256C18.1187 10.7635 18.2733 10.9007 18.3728 11.0628C18.4722 11.2248 18.5241 11.4118 18.5685 11.5976C18.5512 11.415 18.5609 11.2281 18.6214 11.0552C18.6831 10.8823 18.7998 10.7256 18.9609 10.6381C18.8917 10.6759 18.656 10.354 18.6268 10.3053C18.5414 10.1638 18.4982 10.0071 18.4863 9.8418C18.4322 10.0158 18.4333 10.1746 18.3338 10.3388C18.2376 10.5009 18.0981 10.637 17.9316 10.7256Z" fill="white"/>
<g opacity="0.16">
<path opacity="0.16" d="M27.6543 33.1995C28.5419 33.3788 29.2793 34.0315 29.7529 34.804C30.2264 35.5755 30.4708 36.4637 30.6827 37.3443C30.6005 36.4777 30.6448 35.5863 30.9368 34.7651C31.2276 33.9439 31.7822 33.1984 32.5499 32.7846C32.219 32.9628 31.1033 31.4361 30.9638 31.2049C30.5562 30.5306 30.3497 29.7851 30.2956 29.0039C30.0383 29.8294 30.0459 30.5836 29.5712 31.3659C29.1063 32.1298 28.4436 32.7759 27.6543 33.1995Z" fill="white"/>
</g>
<g opacity="0.38">
<path opacity="0.38" d="M29.0488 33.1844C29.4305 33.2622 29.7473 33.5421 29.9516 33.8749C30.1549 34.2066 30.2608 34.5891 30.3516 34.9673C30.316 34.5945 30.3354 34.2109 30.4608 33.8576C30.5863 33.5043 30.8252 33.1834 31.1549 33.0051C31.0122 33.0818 30.5322 32.4248 30.4727 32.3254C30.2976 32.0348 30.2089 31.7149 30.1851 31.3789C30.0749 31.7344 30.0781 32.0585 29.8738 32.3946C29.6737 32.7241 29.3883 33.0018 29.0488 33.1844Z" fill="white"/>
</g>
<path d="M29.6816 33.0976C29.8341 33.129 29.9606 33.2403 30.0417 33.3732C30.1228 33.5061 30.1649 33.6584 30.2017 33.8097C30.1876 33.6606 30.1952 33.5071 30.2449 33.3667C30.2947 33.2262 30.3898 33.0976 30.5217 33.0263C30.4644 33.0566 30.273 32.7951 30.2493 32.7551C30.179 32.6395 30.1433 32.5109 30.1347 32.377C30.0903 32.5185 30.0914 32.6482 30.0103 32.7821C29.9314 32.914 29.8168 33.0252 29.6816 33.0976Z" fill="white"/>
</g>
<defs>
<clipPath id="clip0">
<rect width="36.4" height="56" fill="white" transform="translate(9.7998)"/>
</clipPath>
</defs>
</svg>
