<svg width="56" height="56" viewBox="0 0 56 56" fill="none" xmlns="http://www.w3.org/2000/svg">
<g clip-path="url(#clip0)">
<path d="M46.5496 6.68504C48.8806 7.62073 50.6673 9.80523 51.1226 12.2765C51.5788 14.7478 50.6891 17.426 48.8452 19.1331C47.5446 20.3365 45.8703 21.0363 44.3547 21.9538C42.8392 22.8713 41.3799 24.1555 41.0044 25.8881C40.9282 26.2384 40.8955 26.6087 40.7123 26.9163C40.5291 27.224 40.1273 27.4436 39.809 27.2803C39.4834 27.1133 39.4317 26.6767 39.4299 26.3101C39.4235 24.8816 39.594 23.3251 40.5853 22.296C41.2483 21.608 42.178 21.2641 43.0251 20.823C44.3194 20.1487 49.8928 17.3706 49.1699 12.4716C48.886 10.5431 46.7991 8.69891 44.6822 8.50016C43.5403 8.39306 42.2442 8.66079 41.6746 9.65729C41.3517 10.2218 41.1749 11.0268 40.5355 11.1439C40.1083 11.2219 39.6847 10.8934 39.5342 10.4859C39.3827 10.0793 39.4498 9.62281 39.5768 9.20805C40.4448 6.37738 44.0772 5.69217 46.5496 6.68504Z" fill="#FFCB4A"/>
<path d="M36.0984 47.2745C35.7519 46.8389 35.0472 46.6474 34.3806 46.5766C33.7148 46.5049 33.0246 46.5203 32.3898 46.3533C31.4973 46.1183 30.8134 45.5402 30.4316 44.8876C30.0498 44.2342 29.9382 43.509 29.9155 42.7957C29.8874 41.9045 30.1132 40.8599 31.1544 40.4406C31.5091 40.2972 31.9435 40.2364 32.1993 40.0022C32.66 39.5802 32.4224 38.6236 31.9372 38.2524C31.2569 37.7324 29.9473 37.4456 29.0348 37.2922C28.712 37.2378 28.3664 37.2033 28.0317 37.2124C27.6971 37.2033 27.3515 37.2378 27.0286 37.2922C26.1162 37.4456 24.8056 37.7324 24.1263 38.2524C23.641 38.6236 23.4043 39.5802 23.8642 40.0022C24.1199 40.2373 24.5544 40.2981 24.909 40.4406C25.9502 40.8599 26.1761 41.9045 26.1479 42.7957C26.1253 43.5099 26.0137 44.2351 25.6319 44.8876C25.25 45.5411 24.5671 46.1192 23.6737 46.3533C23.0388 46.5203 22.3486 46.5058 21.6829 46.5766C21.0172 46.6483 20.3124 46.8398 19.9651 47.2745C19.6866 47.6248 19.6966 50.3974 19.7519 50.804C20.9546 50.9701 22.1763 50.6987 23.3907 50.5926C24.9281 50.4582 26.4826 50.5889 28.0308 50.628C29.579 50.5889 31.1345 50.4573 32.6709 50.5926C33.8854 50.6987 35.1071 50.9701 36.3097 50.804C36.3678 50.3974 36.3777 47.6248 36.0984 47.2745Z" fill="#FFCB4A"/>
<path d="M13.0898 0.0040336H13.1678C13.1171 -0.005042 13.0898 0.0040336 13.0898 0.0040336Z" fill="#FFCB4A"/>
<path d="M28.4043 0.00390625H27.6606H13.168C13.4038 0.0465615 14.1393 0.491265 14.874 4.1696C15.7665 8.63298 14.7552 27.62 16.9555 35.033C18.2071 39.2486 25.3251 39.8348 27.6606 39.9138V39.9247C27.6606 39.9247 27.7948 39.9265 28.0324 39.9229C28.2701 39.9265 28.4043 39.9247 28.4043 39.9247V39.9138C30.7398 39.8348 37.8577 39.2486 39.1094 35.033C41.3097 27.62 40.2984 8.63298 41.1909 4.17051C41.9264 0.492173 42.6611 0.0474691 42.8969 0.00481381H28.4043V0.00390625Z" fill="#FFCB4A"/>
<path d="M42.8965 0.0040336H42.9745C42.9745 0.0040336 42.9464 -0.005042 42.8965 0.0040336Z" fill="#FFCB4A"/>
<path d="M49.4473 2.64075H49.5253C49.4745 2.63168 49.4473 2.64075 49.4473 2.64075Z" fill="#FFCB4A"/>
<path d="M36.5736 0.00390625C36.5029 0.302493 36.4312 0.629214 36.3596 0.985885C35.4671 5.44926 36.4784 24.4363 34.2781 31.8492C33.0264 36.0648 25.9085 36.6511 23.573 36.7301V36.741C23.573 36.741 23.4388 36.7428 23.2011 36.7392C22.9635 36.7428 22.8293 36.741 22.8293 36.741V36.7301C21.7228 36.6929 19.5424 36.5413 17.4219 35.9441C19.3528 39.3357 25.582 39.8412 27.7378 39.9138V39.9247C27.7378 39.9247 27.8721 39.9265 28.1097 39.9229C28.3473 39.9265 28.4816 39.9247 28.4816 39.9247V39.9138C30.817 39.8348 37.935 39.2486 39.1866 35.033C41.387 27.62 40.3757 8.63298 41.2681 4.1696C42.0037 0.491265 42.7384 0.0465615 42.9742 0.00390625H36.5736Z" fill="#FFBB43"/>
<path d="M41.98 56.0017H13.7412V51.6227C13.7412 49.9392 15.1053 48.5742 16.7878 48.5742H38.9334C40.6159 48.5742 41.98 49.9392 41.98 51.6227V56.0017Z" fill="#FF4936"/>
<path d="M39.0746 48.5742H34.2676C35.872 48.5742 37.1717 49.8757 37.1717 51.4802V56.0017H41.9787V51.4802C41.9796 49.8757 40.679 48.5742 39.0746 48.5742Z" fill="#D33B2F"/>
<path d="M39.4291 4.86523C39.1035 4.93058 16.8154 4.86523 16.8154 4.86523L39.1035 6.88637L39.4291 4.86523Z" fill="#FFBB43"/>
<path d="M40.0147 8.04688C39.7182 8.11222 19.4209 8.04688 19.4209 8.04688L39.7172 10.068L40.0147 8.04688Z" fill="#FFBB43"/>
<path d="M9.48759 6.64328C7.14034 7.5345 5.31278 9.68542 4.81122 12.1476C4.30966 14.6098 5.14861 17.3044 6.96075 19.0451C8.23869 20.273 9.89936 21.0036 11.3977 21.9493C12.896 22.8949 14.3309 24.2064 14.6746 25.9452C14.7435 26.2965 14.7698 26.6677 14.9476 26.978C15.1254 27.2893 15.5226 27.5162 15.8446 27.3592C16.1738 27.1986 16.2337 26.7629 16.2419 26.3963C16.2754 24.9678 16.133 23.4086 15.1616 22.3613C14.5123 21.6607 13.588 21.2994 12.75 20.8429C11.4693 20.1441 5.94857 17.2626 6.76213 12.3781C7.08229 10.4559 9.2028 8.6508 11.3233 8.49107C12.467 8.40485 13.7586 8.69708 14.3091 9.70357C14.6211 10.2735 14.7834 11.0821 15.4201 11.2119C15.8455 11.2981 16.2754 10.9769 16.4341 10.573C16.5929 10.1691 16.5348 9.71174 16.4151 9.29426C15.597 6.44906 11.9782 5.6967 9.48759 6.64328Z" fill="#FFCB4A"/>
<g opacity="0.3">
<path opacity="0.3" d="M17.9622 26.1819C17.9604 26.6493 17.9613 27.1312 18.1364 27.565C18.3114 27.9988 18.705 28.3782 19.1721 28.39C20.041 28.4118 20.4337 27.3118 20.49 26.4433C20.587 24.9513 20.4537 23.4538 20.4492 21.959C20.441 19.2527 20.8537 16.5654 21.1185 13.8718C21.2446 12.5885 20.8936 10.8169 19.1839 11.0502C17.5632 11.2707 18.0067 13.3926 18.003 14.5488C17.9894 18.425 17.9758 22.303 17.9622 26.1819Z" fill="white"/>
</g>
</g>
<defs>
<clipPath id="clip0">
<rect width="46.5733" height="56" fill="white" transform="translate(4.66699)"/>
</clipPath>
</defs>
</svg>
