<svg width="30" height="24" viewBox="0 0 30 24" fill="none" xmlns="http://www.w3.org/2000/svg">
<path d="M9 24.0007C6.26288 24.0021 3.87178 22.1509 3.1875 19.5007H0V16.5007H3.189C3.96846 13.4819 6.93017 11.5631 10.0039 12.0856C13.0777 12.6081 15.2391 15.3977 14.9773 18.5045C14.7155 21.6113 12.1178 23.9999 9 24.0007ZM9 15.0007C7.36109 15.0024 6.02683 16.319 6.00335 17.9578C5.97986 19.5965 7.27585 20.9508 8.91403 20.9994C10.5522 21.048 11.9262 19.773 12 18.1357V18.7357V18.0007C12 16.3439 10.6569 15.0007 9 15.0007ZM30 19.5007H16.5V16.5007H30V19.5007ZM16.5 12.0007C13.7634 12.0014 11.3731 10.1504 10.689 7.50074H0V4.50074H10.689C11.4685 1.48191 14.4302 -0.436886 17.5039 0.0855831C20.5777 0.608053 22.7391 3.39766 22.4773 6.50449C22.2155 9.61132 19.6178 11.9999 16.5 12.0007ZM16.5 3.00074C14.8611 3.0024 13.5268 4.31901 13.5033 5.95775C13.4799 7.59649 14.7758 8.95079 16.414 8.99942C18.0522 9.04804 19.4262 7.77299 19.5 6.13574V6.73574V6.00074C19.5 4.34389 18.1569 3.00074 16.5 3.00074ZM30 7.50074H24V4.50074H30V7.50074Z" fill="white"/>
<path d="M9 24.0007C6.26288 24.0021 3.87178 22.1509 3.1875 19.5007H0V16.5007H3.189C3.96846 13.4819 6.93017 11.5631 10.0039 12.0856C13.0777 12.6081 15.2391 15.3977 14.9773 18.5045C14.7155 21.6113 12.1178 23.9999 9 24.0007ZM9 15.0007C7.36109 15.0024 6.02683 16.319 6.00335 17.9578C5.97986 19.5965 7.27585 20.9508 8.91403 20.9994C10.5522 21.048 11.9262 19.773 12 18.1357V18.7357V18.0007C12 16.3439 10.6569 15.0007 9 15.0007ZM30 19.5007H16.5V16.5007H30V19.5007ZM16.5 12.0007C13.7634 12.0014 11.3731 10.1504 10.689 7.50074H0V4.50074H10.689C11.4685 1.48191 14.4302 -0.436886 17.5039 0.0855831C20.5777 0.608053 22.7391 3.39766 22.4773 6.50449C22.2155 9.61132 19.6178 11.9999 16.5 12.0007ZM16.5 3.00074C14.8611 3.0024 13.5268 4.31901 13.5033 5.95775C13.4799 7.59649 14.7758 8.95079 16.414 8.99942C18.0522 9.04804 19.4262 7.77299 19.5 6.13574V6.73574V6.00074C19.5 4.34389 18.1569 3.00074 16.5 3.00074ZM30 7.50074H24V4.50074H30V7.50074Z" fill="#008FE5"/>
</svg>
