<svg width="61" height="49" viewBox="0 0 61 49" fill="none" xmlns="http://www.w3.org/2000/svg">
<g clip-path="url(#clip0_18383_130255)">
<path d="M51.1735 47.8822L50.3798 41.4539C50.372 41.061 50.2934 40.6681 50.1362 40.3066L45.6332 31.285C45.6332 31.2771 45.6254 31.2771 45.6254 31.2692C45.0831 30.4362 43.9437 30.2319 43.0792 30.727L34.3877 32.7702L26.8199 35.1828C26.7492 35.2771 20.3366 41.0924 20.3366 41.0924C19.7786 41.6661 19.0164 41.9804 18.2148 41.9804H14.3877C13.3661 41.9804 12.4152 42.507 11.8729 43.3793L7.55859 47.8744" stroke="white" stroke-width="1.8" stroke-miterlimit="10" stroke-linecap="round" stroke-linejoin="round"/>
<path d="M18.2148 41.9877C18.2148 41.9877 21.5783 41.9091 23.0321 42.137C24.486 42.3649 24.7532 43.9759 24.7532 43.9759" stroke="white" stroke-width="1.8" stroke-miterlimit="10" stroke-linecap="round" stroke-linejoin="round"/>
<path d="M53.9395 1.35938V8.40063" stroke="white" stroke-width="1.8" stroke-miterlimit="10" stroke-linecap="round" stroke-linejoin="round"/>
<path d="M44.4473 2.05093C44.4473 2.05093 46.5769 1.36723 49.1938 2.05093C51.8186 2.73462 53.9404 1.35938 53.9404 1.35938" stroke="white" stroke-width="1.8" stroke-miterlimit="10" stroke-linecap="round" stroke-linejoin="round"/>
<path d="M44.4473 9.09194C44.4473 9.09194 46.5769 8.40825 49.1938 9.09194C51.8186 9.77564 53.9404 8.40039 53.9404 8.40039" stroke="white" stroke-width="1.8" stroke-miterlimit="10" stroke-linecap="round" stroke-linejoin="round"/>
<path d="M44.4473 30.1609V0.707031" stroke="white" stroke-width="1.8" stroke-miterlimit="10" stroke-linecap="round" stroke-linejoin="round"/>
<path d="M50.1364 40.2988L37.1855 46.3656" stroke="white" stroke-width="1.8" stroke-miterlimit="10" stroke-linecap="round" stroke-linejoin="round"/>
<path d="M16.5723 19.4428C16.3994 19.4428 16.2266 19.4271 16.0537 19.4035C15.2049 19.2699 14.4505 18.8062 13.9476 18.1068C13.4446 17.4074 13.2403 16.5508 13.3739 15.7021C13.5075 14.8455 13.9712 14.099 14.6706 13.596C15.37 13.0931 16.2187 12.8887 17.0753 13.0223C17.924 13.1559 18.6784 13.6196 19.1814 14.319C19.6843 15.0184 19.8886 15.875 19.755 16.7237C19.6214 17.5724 19.1578 18.319 18.4584 18.8298C17.9004 19.2306 17.2482 19.4428 16.5723 19.4428Z" stroke="white" stroke-width="1.8" stroke-miterlimit="10" stroke-linecap="round" stroke-linejoin="round"/>
<path d="M12.375 42.7886L14.0882 36.8239C14.1196 36.7061 14.1432 36.5882 14.151 36.4703L14.7404 30.4271L17.318 34.9615L16.265 40.156C16.1943 41.0911 16.9015 41.9006 17.8288 41.9713C17.8681 41.9713 17.9153 41.9791 17.9546 41.9791C18.8347 41.9791 19.5813 41.2954 19.6442 40.4074L20.7286 34.8436C20.7444 34.6 20.7129 34.3564 20.6265 34.1285L17.821 28.0538C17.821 28.0459 17.8131 28.0381 17.8053 28.0302L18.709 23.323L20.5872 25.7905C20.9172 26.2306 21.428 26.4585 21.9389 26.4585C22.2768 26.4585 22.6147 26.3564 22.9055 26.152L27.1176 22.5214C27.8878 21.987 28.0764 20.934 27.542 20.1638C27.0076 19.3937 25.9467 19.2051 25.1844 19.7395L22.3003 22.4349L20.65 20.2581C20.4457 19.9909 20.1628 19.7866 19.8406 19.6766L17.9703 19.2051" stroke="white" stroke-width="1.8" stroke-miterlimit="10" stroke-linecap="round" stroke-linejoin="round"/>
<path d="M14.3718 18.5845L12.3993 18.498C11.8413 18.5059 11.3305 18.781 11.0162 19.2367L7.00833 24.502C6.75686 24.8713 6.6547 25.3271 6.74114 25.7751L7.7156 30.1444C7.86492 30.9617 8.58004 31.5275 9.38161 31.5275C9.48378 31.5275 9.5938 31.5197 9.69596 31.4961C10.6154 31.3232 11.2205 30.4352 11.0476 29.5157L10.1989 25.8379L12.1321 23.6061L11.2519 28.3055C11.2205 28.5177 10.7804 36.0619 10.7804 36.0619L8.83152 42.8203C8.57218 43.7161 9.09085 44.6591 9.99458 44.9185" stroke="white" stroke-width="1.8" stroke-miterlimit="10" stroke-linecap="round" stroke-linejoin="round"/>
<path d="M34.0895 9.68996C32.5964 9.68996 31.2762 8.60548 31.0326 7.08092C30.7654 5.39133 31.9206 3.8039 33.6023 3.52886C35.2919 3.26166 36.8793 4.40901 37.1544 6.0986C37.4216 7.78819 36.2664 9.37561 34.5846 9.65066C34.4117 9.67424 34.2467 9.68996 34.0895 9.68996Z" stroke="white" stroke-width="1.8" stroke-miterlimit="10" stroke-linecap="round" stroke-linejoin="round"/>
<path d="M40.0763 30.9706L39.0861 27.5286L39.4476 20.5502C39.5419 20.2359 39.5812 19.9058 39.5183 19.56L38.4338 13.3282L40.4928 15.4421L41.6166 19.5679C41.8209 20.2909 42.4574 20.7781 43.1725 20.8095C43.3454 20.8174 43.5262 20.8017 43.7069 20.7467C44.6107 20.4952 45.1372 19.56 44.8857 18.6563L43.5969 14.004C43.5183 13.7604 43.3847 13.5325 43.204 13.3518L39.4633 9.50894C39.149 9.18674 38.7168 8.99814 38.261 8.99814L36.4063 8.98242C36.3985 8.98242 36.3985 8.98242 36.3906 8.98242" stroke="white" stroke-width="1.8" stroke-miterlimit="10" stroke-linecap="round" stroke-linejoin="round"/>
<path d="M34.3089 32.4564L33.9238 27.2304C33.9238 27.2304 35.8728 21.9416 35.9828 21.9023L35.6841 27.6391C35.6763 27.8277 35.692 28.0163 35.747 28.197L36.8158 31.9063" stroke="white" stroke-width="1.8" stroke-miterlimit="10" stroke-linecap="round" stroke-linejoin="round"/>
<path d="M27.9824 21.1007L31.0394 19.0889C31.4166 18.8453 31.6759 18.4602 31.7702 18.0201L32.2889 15.584L32.9647 19.3482C32.9569 19.3639 32.949 19.3875 32.9412 19.4032L30.6072 26.4995C30.5364 26.7117 30.5129 26.9317 30.5286 27.1518L30.9372 32.7078" stroke="white" stroke-width="1.8" stroke-miterlimit="10" stroke-linecap="round" stroke-linejoin="round"/>
<path d="M32.5637 9.61133L30.8034 10.2086C30.2376 10.3972 29.8132 10.8766 29.6875 11.4659L28.5873 16.6447L25.7504 18.5072C25.3574 18.7665 25.106 19.1516 25.0195 19.5838" stroke="white" stroke-width="1.8" stroke-miterlimit="10" stroke-linecap="round" stroke-linejoin="round"/>
<path d="M42.0334 43.9832L35.3773 40.8477L30.9922 43.9832" stroke="white" stroke-width="1.8" stroke-miterlimit="10" stroke-linecap="round" stroke-linejoin="round"/>
</g>
<defs>
<clipPath id="clip0_18383_130255">
<rect width="48.6444" height="48.5894" fill="white" transform="translate(6.00195)"/>
</clipPath>
</defs>
</svg>
