<?xml version="1.0" encoding="UTF-8"?>
<svg xmlns="http://www.w3.org/2000/svg" xmlns:xlink="http://www.w3.org/1999/xlink" width="32pt" height="32pt" viewBox="0 0 32 32" version="1.1">
<g id="surface1">
<path style=" stroke:none;fill-rule:nonzero;fill:rgb(10.980392%,71.764706%,92.156863%);fill-opacity:1;" d="M 32 16 C 32 24.835938 24.835938 32 16 32 C 7.164062 32 0 24.835938 0 16 C 0 7.164062 7.164062 0 16 0 C 24.835938 0 32 7.164062 32 16 Z M 32 16 "/>
<path style=" stroke:none;fill-rule:nonzero;fill:rgb(100%,100%,100%);fill-opacity:1;" d="M 24.535156 10.265625 C 23.933594 10.601562 23.199219 10.800781 22.535156 10.867188 C 23.265625 10.398438 23.800781 9.667969 24.066406 8.800781 C 23.398438 9.199219 22.667969 9.535156 21.800781 9.734375 C 21.132812 9 20.265625 8.535156 19.265625 8.535156 C 17.332031 8.535156 15.734375 10.199219 15.734375 12.332031 C 15.734375 12.601562 15.734375 12.933594 15.800781 13.199219 C 12.867188 13.066406 10.265625 11.535156 8.535156 9.265625 C 8.199219 9.800781 8.066406 10.464844 8.066406 11.199219 C 8.066406 12.535156 8.667969 13.667969 9.601562 14.332031 C 9 14.332031 8.464844 14.132812 8 13.867188 C 8 13.867188 8 13.933594 8 13.933594 C 8 15.734375 9.199219 17.265625 10.800781 17.667969 C 10.535156 17.734375 10.199219 17.800781 9.867188 17.800781 C 9.667969 17.800781 9.398438 17.800781 9.199219 17.734375 C 9.667969 19.265625 10.933594 20.332031 12.464844 20.332031 C 11.265625 21.332031 9.734375 21.933594 8.132812 21.933594 C 7.867188 21.933594 7.601562 21.933594 7.265625 21.867188 C 8.800781 22.933594 10.667969 23.601562 12.667969 23.601562 C 19.132812 23.601562 22.667969 17.867188 22.667969 12.867188 C 22.667969 12.734375 22.667969 12.535156 22.667969 12.398438 C 23.464844 11.734375 24.066406 11.066406 24.535156 10.265625 Z M 24.535156 10.265625 "/>
</g>
</svg>
