<svg width="32" height="33" viewBox="0 0 32 33" fill="none" xmlns="http://www.w3.org/2000/svg">
<path d="M5.33268 25.7412H2.66602C2.66602 21.3229 6.24774 17.7412 10.666 17.7412C15.0843 17.7412 18.666 21.3229 18.666 25.7412H15.9993C15.9993 22.7957 13.6115 20.4079 10.666 20.4079C7.7205 20.4079 5.33268 22.7957 5.33268 25.7412ZM21.3247 20.9545L17.7167 17.3545L19.5993 15.4639L21.322 17.1865L27.0553 11.4639L28.938 13.3519L21.322 20.9519L21.3247 20.9545ZM10.666 16.4079C7.7205 16.4079 5.33268 14.0201 5.33268 11.0745C5.33268 8.12903 7.7205 5.74121 10.666 5.74121C13.6115 5.74121 15.9993 8.12903 15.9993 11.0745C15.9957 14.0185 13.61 16.4042 10.666 16.4079ZM10.666 8.40788C9.20921 8.40935 8.0232 9.57967 8.00232 11.0363C7.98145 12.493 9.13344 13.6968 10.5896 13.74C12.0458 13.7833 13.2671 12.6499 13.3327 11.1945V11.7279V11.0745C13.3327 9.60178 12.1388 8.40788 10.666 8.40788Z" fill="white"/>
<path d="M5.33268 25.7412H2.66602C2.66602 21.3229 6.24774 17.7412 10.666 17.7412C15.0843 17.7412 18.666 21.3229 18.666 25.7412H15.9993C15.9993 22.7957 13.6115 20.4079 10.666 20.4079C7.7205 20.4079 5.33268 22.7957 5.33268 25.7412ZM21.3247 20.9545L17.7167 17.3545L19.5993 15.4639L21.322 17.1865L27.0553 11.4639L28.938 13.3519L21.322 20.9519L21.3247 20.9545ZM10.666 16.4079C7.7205 16.4079 5.33268 14.0201 5.33268 11.0745C5.33268 8.12903 7.7205 5.74121 10.666 5.74121C13.6115 5.74121 15.9993 8.12903 15.9993 11.0745C15.9957 14.0185 13.61 16.4042 10.666 16.4079ZM10.666 8.40788C9.20921 8.40935 8.0232 9.57967 8.00232 11.0363C7.98145 12.493 9.13344 13.6968 10.5896 13.74C12.0458 13.7833 13.2671 12.6499 13.3327 11.1945V11.7279V11.0745C13.3327 9.60178 12.1388 8.40788 10.666 8.40788Z" fill="#008FE5"/>
</svg>
