<svg width="86" height="86" viewBox="0 0 86 86" fill="none" xmlns="http://www.w3.org/2000/svg">
<path d="M25.1218 0.666016C29.128 0.666016 32.9701 2.25748 35.8029 5.09029C38.6358 7.92311 40.2272 11.7652 40.2272 15.7714C40.2272 19.7776 38.6358 23.6198 35.8029 26.4526C32.9701 29.2854 29.128 30.8769 25.1218 30.8769C21.1156 30.8769 17.2735 29.2854 14.4407 26.4526C11.6078 23.6198 10.0164 19.7776 10.0164 15.7714C10.0164 11.7652 11.6078 7.92311 14.4407 5.09029C17.2735 2.25748 21.1156 0.666016 25.1218 0.666016ZM46.4809 27.0159C44.9332 25.3505 43.8867 23.2823 43.4616 21.0489C43.0365 18.8155 43.2501 16.5075 44.0778 14.39C44.9055 12.2725 46.3138 10.4315 48.1408 9.07837C49.9678 7.72529 52.1395 6.91504 54.4063 6.74073C56.6731 6.56641 58.9431 7.0351 60.9555 8.09294C62.968 9.15078 64.6411 10.7549 65.7829 12.7209C66.9246 14.6869 67.4885 16.9352 67.4099 19.2073C67.3313 21.4795 66.6133 23.6834 65.3385 25.5658C59.0443 24.2201 52.4953 24.7238 46.4809 27.0159ZM26.3725 67.1299H25.4843C9.6901 67.1299 0.953125 61.6798 0.953125 50.671V45.9823C0.953125 43.5786 1.908 41.2733 3.60769 39.5736C5.30738 37.8739 7.61265 36.919 10.0164 36.919H32.7168C27.7966 42.8669 25.11 50.3474 25.1218 58.0666C25.1189 61.1309 25.5398 64.1809 26.3725 67.1299ZM58.3537 85.2564C65.5649 85.2564 72.4807 82.3917 77.5798 77.2927C82.6789 72.1936 85.5435 65.2778 85.5435 58.0666C85.5435 50.8554 82.6789 43.9396 77.5798 38.8406C72.4807 33.7415 65.5649 30.8769 58.3537 30.8769C51.1426 30.8769 44.2267 33.7415 39.1277 38.8406C34.0286 43.9396 31.164 50.8554 31.164 58.0666C31.164 65.2778 34.0286 72.1936 39.1277 77.2927C44.2267 82.3917 51.1426 85.2564 58.3537 85.2564ZM72.577 51.1423L54.4505 69.2688C54.1699 69.5501 53.8365 69.7733 53.4694 69.9257C53.1024 70.0779 52.7089 70.1563 52.3116 70.1563C51.9142 70.1563 51.5207 70.0779 51.1537 69.9257C50.7866 69.7733 50.4533 69.5501 50.1726 69.2688L44.1305 63.2266C43.5632 62.6594 43.2445 61.8899 43.2445 61.0877C43.2445 60.2854 43.5632 59.516 44.1305 58.9488C44.6977 58.3815 45.4671 58.0628 46.2694 58.0628C47.0716 58.0628 47.841 58.3815 48.4083 58.9488L52.3116 62.8581L68.2991 46.8644C68.8664 46.2972 69.6358 45.9785 70.4381 45.9785C71.2403 45.9785 72.0097 46.2972 72.577 46.8644C73.1443 47.4317 73.463 48.2011 73.463 49.0034C73.463 49.8056 73.1443 50.575 72.577 51.1423Z" fill="white"/>
<path d="M25.1218 0.666016C29.128 0.666016 32.9701 2.25748 35.8029 5.09029C38.6358 7.92311 40.2272 11.7652 40.2272 15.7714C40.2272 19.7776 38.6358 23.6198 35.8029 26.4526C32.9701 29.2854 29.128 30.8769 25.1218 30.8769C21.1156 30.8769 17.2735 29.2854 14.4407 26.4526C11.6078 23.6198 10.0164 19.7776 10.0164 15.7714C10.0164 11.7652 11.6078 7.92311 14.4407 5.09029C17.2735 2.25748 21.1156 0.666016 25.1218 0.666016ZM46.4809 27.0159C44.9332 25.3505 43.8867 23.2823 43.4616 21.0489C43.0365 18.8155 43.2501 16.5075 44.0778 14.39C44.9055 12.2725 46.3138 10.4315 48.1408 9.07837C49.9678 7.72529 52.1395 6.91504 54.4063 6.74073C56.6731 6.56641 58.9431 7.0351 60.9555 8.09294C62.968 9.15078 64.6411 10.7549 65.7829 12.7209C66.9246 14.6869 67.4885 16.9352 67.4099 19.2073C67.3313 21.4795 66.6133 23.6834 65.3385 25.5658C59.0443 24.2201 52.4953 24.7238 46.4809 27.0159ZM26.3725 67.1299H25.4843C9.6901 67.1299 0.953125 61.6798 0.953125 50.671V45.9823C0.953125 43.5786 1.908 41.2733 3.60769 39.5736C5.30738 37.8739 7.61265 36.919 10.0164 36.919H32.7168C27.7966 42.8669 25.11 50.3474 25.1218 58.0666C25.1189 61.1309 25.5398 64.1809 26.3725 67.1299ZM58.3537 85.2564C65.5649 85.2564 72.4807 82.3917 77.5798 77.2927C82.6789 72.1936 85.5435 65.2778 85.5435 58.0666C85.5435 50.8554 82.6789 43.9396 77.5798 38.8406C72.4807 33.7415 65.5649 30.8769 58.3537 30.8769C51.1426 30.8769 44.2267 33.7415 39.1277 38.8406C34.0286 43.9396 31.164 50.8554 31.164 58.0666C31.164 65.2778 34.0286 72.1936 39.1277 77.2927C44.2267 82.3917 51.1426 85.2564 58.3537 85.2564ZM72.577 51.1423L54.4505 69.2688C54.1699 69.5501 53.8365 69.7733 53.4694 69.9257C53.1024 70.0779 52.7089 70.1563 52.3116 70.1563C51.9142 70.1563 51.5207 70.0779 51.1537 69.9257C50.7866 69.7733 50.4533 69.5501 50.1726 69.2688L44.1305 63.2266C43.5632 62.6594 43.2445 61.8899 43.2445 61.0877C43.2445 60.2854 43.5632 59.516 44.1305 58.9488C44.6977 58.3815 45.4671 58.0628 46.2694 58.0628C47.0716 58.0628 47.841 58.3815 48.4083 58.9488L52.3116 62.8581L68.2991 46.8644C68.8664 46.2972 69.6358 45.9785 70.4381 45.9785C71.2403 45.9785 72.0097 46.2972 72.577 46.8644C73.1443 47.4317 73.463 48.2011 73.463 49.0034C73.463 49.8056 73.1443 50.575 72.577 51.1423Z" fill="#494949" fill-opacity="0.8"/>
</svg>
