<svg width="44" height="36" viewBox="0 0 44 36" fill="none" xmlns="http://www.w3.org/2000/svg">
<path d="M31.8637 7.60338C30.3307 7.60338 29.0859 6.38067 29.0859 4.87493C29.0859 3.36919 30.3307 2.14648 31.8637 2.14648C33.3966 2.14648 34.6414 3.36919 34.6414 4.87493C34.6414 6.38067 33.3908 7.60338 31.8637 7.60338Z" stroke="white" stroke-width="1.5" stroke-miterlimit="10" stroke-linecap="round" stroke-linejoin="round"/>
<path d="M31.8637 7.60338C30.3307 7.60338 29.0859 6.38067 29.0859 4.87493C29.0859 3.36919 30.3307 2.14648 31.8637 2.14648C33.3966 2.14648 34.6414 3.36919 34.6414 4.87493C34.6414 6.38067 33.3908 7.60338 31.8637 7.60338Z" stroke="#494949" stroke-opacity="0.8" stroke-width="1.5" stroke-miterlimit="10" stroke-linecap="round" stroke-linejoin="round"/>
<path d="M23.6055 14.8661L26.1354 13.949L27.3168 9.15444C27.4378 8.62234 27.8528 8.20345 28.3887 8.06759L30.8322 7.43359" stroke="white" stroke-width="1.5" stroke-miterlimit="10" stroke-linecap="round" stroke-linejoin="round"/>
<path d="M23.6055 14.8661L26.1354 13.949L27.3168 9.15444C27.4378 8.62234 27.8528 8.20345 28.3887 8.06759L30.8322 7.43359" stroke="#494949" stroke-opacity="0.8" stroke-width="1.5" stroke-miterlimit="10" stroke-linecap="round" stroke-linejoin="round"/>
<path d="M29.3324 13.5918L28.854 15.3693C28.7445 15.8504 28.393 16.2467 27.9204 16.4165L24.1457 17.7864C23.9728 17.8486 23.7999 17.8769 23.6328 17.8769" stroke="white" stroke-width="1.5" stroke-miterlimit="10" stroke-linecap="round" stroke-linejoin="round"/>
<path d="M29.3324 13.5918L28.854 15.3693C28.7445 15.8504 28.393 16.2467 27.9204 16.4165L24.1457 17.7864C23.9728 17.8486 23.7999 17.8769 23.6328 17.8769" stroke="#494949" stroke-opacity="0.8" stroke-width="1.5" stroke-miterlimit="10" stroke-linecap="round" stroke-linejoin="round"/>
<path d="M29.4089 10.8809C29.4089 10.8809 29.1899 18.7549 29.1899 18.7719L27.9278 25.4062C27.9221 25.4628 27.9163 25.5194 27.9163 25.5703L27.4668 32.1197C27.4668 32.9292 28.1353 33.5802 28.9536 33.5802C29.7777 33.5802 30.4405 32.9236 30.4405 32.1197L30.89 25.6552L32.129 19.4002L32.3711 25.5647C32.3711 25.593 32.3711 25.6213 32.3711 25.6496L32.786 32.199C32.8263 32.9802 33.4833 33.5859 34.2728 33.5859C34.3016 33.5859 34.3247 33.5859 34.3535 33.5859C35.1776 33.5462 35.8058 32.8556 35.7597 32.0518L35.3447 25.542L35.0393 19.5304" stroke="white" stroke-width="1.5" stroke-miterlimit="10" stroke-linecap="round" stroke-linejoin="round"/>
<path d="M29.4089 10.8809C29.4089 10.8809 29.1899 18.7549 29.1899 18.7719L27.9278 25.4062C27.9221 25.4628 27.9163 25.5194 27.9163 25.5703L27.4668 32.1197C27.4668 32.9292 28.1353 33.5802 28.9536 33.5802C29.7777 33.5802 30.4405 32.9236 30.4405 32.1197L30.89 25.6552L32.129 19.4002L32.3711 25.5647C32.3711 25.593 32.3711 25.6213 32.3711 25.6496L32.786 32.199C32.8263 32.9802 33.4833 33.5859 34.2728 33.5859C34.3016 33.5859 34.3247 33.5859 34.3535 33.5859C35.1776 33.5462 35.8058 32.8556 35.7597 32.0518L35.3447 25.542L35.0393 19.5304" stroke="#494949" stroke-opacity="0.8" stroke-width="1.5" stroke-miterlimit="10" stroke-linecap="round" stroke-linejoin="round"/>
<path d="M33.0391 7.40039L35.886 8.06835C36.3643 8.19289 36.7446 8.53819 36.9118 8.9967L38.3525 14.5668C38.4216 14.7593 38.4505 14.9687 38.4332 15.1725L38.0413 19.2482C37.9779 20.0124 37.3267 20.5898 36.5602 20.5898C36.5199 20.5898 36.4795 20.5898 36.4334 20.5841C35.6151 20.5162 35.0042 19.8086 35.0734 19.0048L35.4364 15.2404L34.5374 10.8477" stroke="white" stroke-width="1.5" stroke-miterlimit="10" stroke-linecap="round" stroke-linejoin="round"/>
<path d="M33.0391 7.40039L35.886 8.06835C36.3643 8.19289 36.7446 8.53819 36.9118 8.9967L38.3525 14.5668C38.4216 14.7593 38.4505 14.9687 38.4332 15.1725L38.0413 19.2482C37.9779 20.0124 37.3267 20.5898 36.5602 20.5898C36.5199 20.5898 36.4795 20.5898 36.4334 20.5841C35.6151 20.5162 35.0042 19.8086 35.0734 19.0048L35.4364 15.2404L34.5374 10.8477" stroke="#494949" stroke-opacity="0.8" stroke-width="1.5" stroke-miterlimit="10" stroke-linecap="round" stroke-linejoin="round"/>
<path d="M15.0183 7.79595C13.4854 7.75633 12.281 6.494 12.3213 4.99392C12.3616 3.48817 13.6468 2.30509 15.1739 2.34472C16.7069 2.39 17.9113 3.64667 17.871 5.14675C17.8307 6.6525 16.5513 7.84124 15.0183 7.79595Z" stroke="white" stroke-width="1.5" stroke-miterlimit="10" stroke-linecap="round" stroke-linejoin="round"/>
<path d="M15.0183 7.79595C13.4854 7.75633 12.281 6.494 12.3213 4.99392C12.3616 3.48817 13.6468 2.30509 15.1739 2.34472C16.7069 2.39 17.9113 3.64667 17.871 5.14675C17.8307 6.6525 16.5513 7.84124 15.0183 7.79595Z" stroke="#494949" stroke-opacity="0.8" stroke-width="1.5" stroke-miterlimit="10" stroke-linecap="round" stroke-linejoin="round"/>
<path d="M16.6895 7.52344L18.8275 8.06686C19.3635 8.20838 19.7726 8.62727 19.8994 9.15371L21.0808 13.9483L24.1006 15.0408C24.8728 15.3182 25.2647 16.1616 24.9823 16.9202C24.7633 17.5089 24.1928 17.8768 23.5877 17.8768C23.4148 17.8768 23.2419 17.8485 23.0748 17.7863L19.3001 16.4164C18.8275 16.2465 18.476 15.8503 18.3665 15.3691L17.7729 10.8802" stroke="white" stroke-width="1.5" stroke-miterlimit="10" stroke-linecap="round" stroke-linejoin="round"/>
<path d="M16.6895 7.52344L18.8275 8.06686C19.3635 8.20838 19.7726 8.62727 19.8994 9.15371L21.0808 13.9483L24.1006 15.0408C24.8728 15.3182 25.2647 16.1616 24.9823 16.9202C24.7633 17.5089 24.1928 17.8768 23.5877 17.8768C23.4148 17.8768 23.2419 17.8485 23.0748 17.7863L19.3001 16.4164C18.8275 16.2465 18.476 15.8503 18.3665 15.3691L17.7729 10.8802" stroke="#494949" stroke-opacity="0.8" stroke-width="1.5" stroke-miterlimit="10" stroke-linecap="round" stroke-linejoin="round"/>
<path d="M12.1424 12.6703C12.1424 12.6703 12.079 18.7668 12.0733 18.9027L11.5892 25.4974L11.1742 32.0411C11.1281 32.845 11.7621 33.5356 12.5804 33.5752C12.6092 33.5752 12.6323 33.5752 12.6611 33.5752C13.4448 33.5752 14.1018 32.9695 14.1479 32.1883L14.5686 25.5993L15.0757 19.3895L16.1361 25.6389L16.4416 32.1204C16.4416 32.9299 17.1101 33.5808 17.9284 33.5808C18.7525 33.5808 19.4152 32.9242 19.4152 32.1204L19.1098 25.571C19.1098 25.5257 19.1098 25.4747 19.104 25.4295L18.0206 18.7951C18.0206 18.7725 18.0091 18.7555 18.0091 18.7329V12.625" stroke="white" stroke-width="1.5" stroke-miterlimit="10" stroke-linecap="round" stroke-linejoin="round"/>
<path d="M12.1424 12.6703C12.1424 12.6703 12.079 18.7668 12.0733 18.9027L11.5892 25.4974L11.1742 32.0411C11.1281 32.845 11.7621 33.5356 12.5804 33.5752C12.6092 33.5752 12.6323 33.5752 12.6611 33.5752C13.4448 33.5752 14.1018 32.9695 14.1479 32.1883L14.5686 25.5993L15.0757 19.3895L16.1361 25.6389L16.4416 32.1204C16.4416 32.9299 17.1101 33.5808 17.9284 33.5808C18.7525 33.5808 19.4152 32.9242 19.4152 32.1204L19.1098 25.571C19.1098 25.5257 19.1098 25.4747 19.104 25.4295L18.0206 18.7951C18.0206 18.7725 18.0091 18.7555 18.0091 18.7329V12.625" stroke="#494949" stroke-opacity="0.8" stroke-width="1.5" stroke-miterlimit="10" stroke-linecap="round" stroke-linejoin="round"/>
<path d="M13.3475 7.52344L11.3247 8.06686C10.8464 8.1914 10.466 8.5367 10.2989 8.99521L9.56701 13.92C9.51514 14.0615 9.48633 14.2087 9.48633 14.3615L9.54396 18.4995C9.52091 19.309 10.1664 19.9826 10.9905 20.0052C11.0077 20.0052 11.0193 20.0052 11.0366 20.0052C11.4169 20.0052 11.7627 19.8637 12.0278 19.6373" stroke="white" stroke-width="1.5" stroke-miterlimit="10" stroke-linecap="round" stroke-linejoin="round"/>
<path d="M13.3475 7.52344L11.3247 8.06686C10.8464 8.1914 10.466 8.5367 10.2989 8.99521L9.56701 13.92C9.51514 14.0615 9.48633 14.2087 9.48633 14.3615L9.54396 18.4995C9.52091 19.309 10.1664 19.9826 10.9905 20.0052C11.0077 20.0052 11.0193 20.0052 11.0366 20.0052C11.4169 20.0052 11.7627 19.8637 12.0278 19.6373" stroke="#494949" stroke-opacity="0.8" stroke-width="1.5" stroke-miterlimit="10" stroke-linecap="round" stroke-linejoin="round"/>
<path d="M12.1426 12.6696V10.8809" stroke="white" stroke-width="1.5" stroke-miterlimit="10" stroke-linecap="round" stroke-linejoin="round"/>
<path d="M12.1426 12.6696V10.8809" stroke="#494949" stroke-opacity="0.8" stroke-width="1.5" stroke-miterlimit="10" stroke-linecap="round" stroke-linejoin="round"/>
<path d="M11.0359 20.0176H9.01307L8.62695 21.9252" stroke="white" stroke-width="1.5" stroke-miterlimit="10" stroke-linecap="round" stroke-linejoin="round"/>
<path d="M11.0359 20.0176H9.01307L8.62695 21.9252" stroke="#494949" stroke-opacity="0.8" stroke-width="1.5" stroke-miterlimit="10" stroke-linecap="round" stroke-linejoin="round"/>
<path d="M11.7792 22.2637H6.21798C5.9356 22.2637 5.70508 22.4901 5.70508 22.7675V27.7092C5.70508 27.9866 5.9356 28.213 6.21798 28.213H11.1683" stroke="white" stroke-width="1.5" stroke-miterlimit="10" stroke-linecap="round" stroke-linejoin="round"/>
<path d="M11.7792 22.2637H6.21798C5.9356 22.2637 5.70508 22.4901 5.70508 22.7675V27.7092C5.70508 27.9866 5.9356 28.213 6.21798 28.213H11.1683" stroke="#494949" stroke-opacity="0.8" stroke-width="1.5" stroke-miterlimit="10" stroke-linecap="round" stroke-linejoin="round"/>
</svg>
