<svg width="82" height="75" viewBox="0 0 82 75" fill="none" xmlns="http://www.w3.org/2000/svg">
<path d="M31.4716 29.9765C38.6788 29.9765 44.5214 24.1339 44.5214 16.9267C44.5214 9.71953 38.6788 3.87695 31.4716 3.87695C24.2644 3.87695 18.4219 9.71953 18.4219 16.9267C18.4219 24.1339 24.2644 29.9765 31.4716 29.9765Z" fill="white"/>
<path d="M31.4716 29.9765C38.6788 29.9765 44.5214 24.1339 44.5214 16.9267C44.5214 9.71953 38.6788 3.87695 31.4716 3.87695C24.2644 3.87695 18.4219 9.71953 18.4219 16.9267C18.4219 24.1339 24.2644 29.9765 31.4716 29.9765Z" fill="#494949" fill-opacity="0.8"/>
<path d="M31.4716 29.9765C38.6788 29.9765 44.5214 24.1339 44.5214 16.9267C44.5214 9.71953 38.6788 3.87695 31.4716 3.87695C24.2644 3.87695 18.4219 9.71953 18.4219 16.9267C18.4219 24.1339 24.2644 29.9765 31.4716 29.9765Z" stroke="white" stroke-width="7" stroke-linecap="round" stroke-linejoin="round"/>
<path d="M31.4716 29.9765C38.6788 29.9765 44.5214 24.1339 44.5214 16.9267C44.5214 9.71953 38.6788 3.87695 31.4716 3.87695C24.2644 3.87695 18.4219 9.71953 18.4219 16.9267C18.4219 24.1339 24.2644 29.9765 31.4716 29.9765Z" stroke="#494949" stroke-opacity="0.8" stroke-width="7" stroke-linecap="round" stroke-linejoin="round"/>
<path d="M55.707 22.5195L66.8925 33.705L78.078 22.5195" fill="white"/>
<path d="M55.707 22.5195L66.8925 33.705L78.078 22.5195" fill="#494949" fill-opacity="0.8"/>
<path d="M55.707 22.5195L66.8925 33.705L78.078 22.5195" stroke="white" stroke-width="7" stroke-linecap="round" stroke-linejoin="round"/>
<path d="M55.707 22.5195L66.8925 33.705L78.078 22.5195" stroke="#494949" stroke-opacity="0.8" stroke-width="7" stroke-linecap="round" stroke-linejoin="round"/>
<path d="M3.50781 68.753V70.9901H59.4353V68.753C59.4353 60.4004 59.4353 56.2241 57.8099 53.0339C56.38 50.2276 54.0983 47.9459 51.2921 46.5161C48.1018 44.8906 43.9255 44.8906 35.5729 44.8906H27.3702C19.0176 44.8906 14.8413 44.8906 11.651 46.5161C8.84475 47.9459 6.56319 50.2276 5.13335 53.0339C3.50781 56.2241 3.50781 60.4004 3.50781 68.753Z" fill="white"/>
<path d="M3.50781 68.753V70.9901H59.4353V68.753C59.4353 60.4004 59.4353 56.2241 57.8099 53.0339C56.38 50.2276 54.0983 47.9459 51.2921 46.5161C48.1018 44.8906 43.9255 44.8906 35.5729 44.8906H27.3702C19.0176 44.8906 14.8413 44.8906 11.651 46.5161C8.84475 47.9459 6.56319 50.2276 5.13335 53.0339C3.50781 56.2241 3.50781 60.4004 3.50781 68.753Z" fill="#494949" fill-opacity="0.8"/>
<path d="M3.50781 68.753V70.9901H59.4353V68.753C59.4353 60.4004 59.4353 56.2241 57.8099 53.0339C56.38 50.2276 54.0983 47.9459 51.2921 46.5161C48.1018 44.8906 43.9255 44.8906 35.5729 44.8906H27.3702C19.0176 44.8906 14.8413 44.8906 11.651 46.5161C8.84475 47.9459 6.56319 50.2276 5.13335 53.0339C3.50781 56.2241 3.50781 60.4004 3.50781 68.753Z" stroke="white" stroke-width="7" stroke-linecap="round" stroke-linejoin="round"/>
<path d="M3.50781 68.753V70.9901H59.4353V68.753C59.4353 60.4004 59.4353 56.2241 57.8099 53.0339C56.38 50.2276 54.0983 47.9459 51.2921 46.5161C48.1018 44.8906 43.9255 44.8906 35.5729 44.8906H27.3702C19.0176 44.8906 14.8413 44.8906 11.651 46.5161C8.84475 47.9459 6.56319 50.2276 5.13335 53.0339C3.50781 56.2241 3.50781 60.4004 3.50781 68.753Z" stroke="#494949" stroke-opacity="0.8" stroke-width="7" stroke-linecap="round" stroke-linejoin="round"/>
</svg>
