<svg width="32" height="33" viewBox="0 0 32 33" fill="none" xmlns="http://www.w3.org/2000/svg">
<path fill-rule="evenodd" clip-rule="evenodd" d="M29.3337 16.0931C29.3337 23.4569 23.3641 29.4264 16.0003 29.4264C8.63653 29.4264 2.66699 23.4569 2.66699 16.0931C2.66699 8.7293 8.63653 2.75977 16.0003 2.75977C23.3641 2.75977 29.3337 8.7293 29.3337 16.0931ZM8.37207 23.7526L9.44922 19.8192C8.78479 18.6679 8.4353 17.362 8.43579 16.0241C8.4375 11.8387 11.8435 8.43356 16.0288 8.43356C18.0598 8.43442 19.9662 9.22494 21.3998 10.6598C22.8333 12.0946 23.6225 14.0018 23.6217 16.0302C23.6199 20.2155 20.2134 23.6211 16.0288 23.6211H16.0255C14.7548 23.6207 13.5062 23.3019 12.3972 22.6971L8.37207 23.7526ZM12.5836 21.3229L12.8142 21.4595C13.783 22.0345 14.8937 22.3386 16.0264 22.3392H16.0288C19.5071 22.3392 22.3382 19.5086 22.3396 16.0297C22.3402 14.3438 21.6845 12.7585 20.4929 11.566C19.3013 10.3735 17.7169 9.7164 16.0311 9.71566C12.5501 9.71566 9.71912 12.5459 9.71778 16.0246C9.71729 17.2167 10.0508 18.3776 10.6826 19.3823L10.8328 19.621L10.1951 21.9492L12.5836 21.3229ZM13.7041 12.523C13.8393 12.5285 13.989 12.5349 14.1311 12.8508C14.2278 13.066 14.3903 13.4665 14.5204 13.7868C14.617 14.0249 14.6957 14.2187 14.7159 14.2591C14.7633 14.3541 14.7949 14.4648 14.7317 14.5915C14.6684 14.718 14.411 15.0536 14.2575 15.2402C14.2494 15.2502 14.241 15.26 14.2326 15.2699C14.1535 15.3627 14.0742 15.4558 14.1742 15.6273C14.2849 15.8172 14.6657 16.4383 15.2297 16.9412C15.8357 17.4816 16.3622 17.7101 16.6294 17.8261C16.6818 17.8488 16.7242 17.8672 16.7553 17.8828C16.945 17.9778 17.0558 17.9619 17.1665 17.8351C17.2772 17.7086 17.6405 17.2814 17.7671 17.0917C17.8935 16.9017 18.02 16.9332 18.1939 16.9966C18.3679 17.0598 19.3006 17.5189 19.4903 17.6138C19.5273 17.6322 19.5618 17.6489 19.5939 17.6644C19.7263 17.7283 19.8157 17.7715 19.854 17.8351C19.9015 17.9145 19.9015 18.2942 19.7433 18.7372C19.5852 19.1802 18.8106 19.6076 18.4627 19.6392C18.4293 19.6422 18.396 19.6461 18.3617 19.6502C18.0403 19.688 17.6346 19.7357 16.1861 19.1644C14.4035 18.4614 13.2283 16.719 12.9859 16.3596C12.966 16.3302 12.9525 16.3101 12.9453 16.3005L12.9434 16.298C12.8417 16.1622 12.1705 15.2658 12.1705 14.3382C12.1705 13.4644 12.6001 13.0064 12.7977 12.7957C12.8112 12.7813 12.8236 12.7681 12.8347 12.756C13.0085 12.5661 13.2141 12.5185 13.3406 12.5185L13.3582 12.5185C13.4786 12.5185 13.5986 12.5185 13.7041 12.523Z" fill="white"/>
<path fill-rule="evenodd" clip-rule="evenodd" d="M29.3337 16.0931C29.3337 23.4569 23.3641 29.4264 16.0003 29.4264C8.63653 29.4264 2.66699 23.4569 2.66699 16.0931C2.66699 8.7293 8.63653 2.75977 16.0003 2.75977C23.3641 2.75977 29.3337 8.7293 29.3337 16.0931ZM8.37207 23.7526L9.44922 19.8192C8.78479 18.6679 8.4353 17.362 8.43579 16.0241C8.4375 11.8387 11.8435 8.43356 16.0288 8.43356C18.0598 8.43442 19.9662 9.22494 21.3998 10.6598C22.8333 12.0946 23.6225 14.0018 23.6217 16.0302C23.6199 20.2155 20.2134 23.6211 16.0288 23.6211H16.0255C14.7548 23.6207 13.5062 23.3019 12.3972 22.6971L8.37207 23.7526ZM12.5836 21.3229L12.8142 21.4595C13.783 22.0345 14.8937 22.3386 16.0264 22.3392H16.0288C19.5071 22.3392 22.3382 19.5086 22.3396 16.0297C22.3402 14.3438 21.6845 12.7585 20.4929 11.566C19.3013 10.3735 17.7169 9.7164 16.0311 9.71566C12.5501 9.71566 9.71912 12.5459 9.71778 16.0246C9.71729 17.2167 10.0508 18.3776 10.6826 19.3823L10.8328 19.621L10.1951 21.9492L12.5836 21.3229ZM13.7041 12.523C13.8393 12.5285 13.989 12.5349 14.1311 12.8508C14.2278 13.066 14.3903 13.4665 14.5204 13.7868C14.617 14.0249 14.6957 14.2187 14.7159 14.2591C14.7633 14.3541 14.7949 14.4648 14.7317 14.5915C14.6684 14.718 14.411 15.0536 14.2575 15.2402C14.2494 15.2502 14.241 15.26 14.2326 15.2699C14.1535 15.3627 14.0742 15.4558 14.1742 15.6273C14.2849 15.8172 14.6657 16.4383 15.2297 16.9412C15.8357 17.4816 16.3622 17.7101 16.6294 17.8261C16.6818 17.8488 16.7242 17.8672 16.7553 17.8828C16.945 17.9778 17.0558 17.9619 17.1665 17.8351C17.2772 17.7086 17.6405 17.2814 17.7671 17.0917C17.8935 16.9017 18.02 16.9332 18.1939 16.9966C18.3679 17.0598 19.3006 17.5189 19.4903 17.6138C19.5273 17.6322 19.5618 17.6489 19.5939 17.6644C19.7263 17.7283 19.8157 17.7715 19.854 17.8351C19.9015 17.9145 19.9015 18.2942 19.7433 18.7372C19.5852 19.1802 18.8106 19.6076 18.4627 19.6392C18.4293 19.6422 18.396 19.6461 18.3617 19.6502C18.0403 19.688 17.6346 19.7357 16.1861 19.1644C14.4035 18.4614 13.2283 16.719 12.9859 16.3596C12.966 16.3302 12.9525 16.3101 12.9453 16.3005L12.9434 16.298C12.8417 16.1622 12.1705 15.2658 12.1705 14.3382C12.1705 13.4644 12.6001 13.0064 12.7977 12.7957C12.8112 12.7813 12.8236 12.7681 12.8347 12.756C13.0085 12.5661 13.2141 12.5185 13.3406 12.5185L13.3582 12.5185C13.4786 12.5185 13.5986 12.5185 13.7041 12.523Z" fill="#00BB2D"/>
</svg>
