<svg width="102" height="103" viewBox="0 0 102 103" fill="none" xmlns="http://www.w3.org/2000/svg">
<g filter="url(#filter0_d_19433_180345)">
<path d="M28.8463 81.4743L30.383 82.2428C36.7866 86.0847 43.9581 87.8776 51.1298 87.8776C73.6693 87.8776 92.1106 69.4363 92.1106 46.8968C92.1106 36.1395 87.7562 25.6381 80.0726 17.9541C72.3886 10.2701 62.1431 5.91602 51.1298 5.91602C28.5904 5.91602 10.1487 24.3574 10.405 47.1531C10.405 54.8368 12.7102 62.2648 16.552 68.6678L17.5764 70.2048L13.4787 85.3165L28.8463 81.4743Z" fill="#00E676"/>
<path d="M84.4249 13.8554C75.7165 4.89104 63.6784 0.0244141 51.3841 0.0244141C25.2591 0.0244141 4.25629 21.2831 4.51222 47.1522C4.51222 55.3484 6.81739 63.2887 10.6596 70.4602L4 94.7926L28.8446 88.3893C35.7601 92.2315 43.4438 94.0244 51.1281 94.0244C76.9972 94.0244 98 72.7653 98 46.8966C98 34.346 93.1334 22.5639 84.4253 13.8554H84.4249ZM51.3841 86.0845C44.4686 86.0845 37.5531 84.2919 31.662 80.706L30.1254 79.9375L15.2699 83.7793L19.1117 69.1802L18.0873 67.6431C6.81739 49.4581 12.1962 25.3813 30.6376 14.1113C49.0789 2.8418 72.8991 8.22064 84.169 26.662C95.4385 45.1033 90.0597 68.9235 71.6187 80.1934C65.7273 84.0352 58.5559 86.0841 51.3841 86.0841V86.0845ZM73.9235 57.6543L71.1061 56.3736C71.1061 56.3736 67.0084 54.5807 64.4469 53.2999C64.1906 53.2999 63.9347 53.0436 63.6784 53.0436C62.9099 53.0436 62.3977 53.2999 61.8855 53.5562C61.8855 53.5562 61.6295 53.8121 58.0436 57.9103C57.7874 58.4225 57.2751 58.6788 56.7629 58.6788H56.5066C56.2507 58.6788 55.7385 58.4225 55.4822 58.1665L54.2015 57.6543C51.3841 56.3736 48.823 54.8366 46.7737 52.7877C46.2615 52.2755 45.493 51.7633 44.9808 51.251C43.1878 49.4581 41.3949 47.4089 40.1145 45.1037L39.8582 44.5915C39.6023 44.3352 39.6023 44.0793 39.346 43.567C39.346 43.0548 39.346 42.5426 39.6023 42.2863C39.6023 42.2863 40.6268 41.0056 41.3949 40.2374C41.9075 39.7248 42.1634 38.9567 42.6756 38.4445C43.1878 37.676 43.4441 36.6515 43.1878 35.883C42.9319 34.6023 39.8582 27.6868 39.0901 26.1501C38.5775 25.3816 38.0657 25.1257 37.2971 24.8694H34.4798C33.9672 24.8694 33.4553 25.1257 32.9427 25.1257L32.6864 25.3816C32.1742 25.6379 31.662 26.1501 31.1498 26.4061C30.6376 26.9186 30.3813 27.4305 29.8691 27.9431C28.0761 30.2482 27.0517 33.0656 27.0517 35.883C27.0517 37.9319 27.5639 39.9811 28.3324 41.7741L28.5887 42.5426C30.8939 47.4089 33.9672 51.7633 38.0657 55.6051L39.0901 56.6295C39.8582 57.398 40.6268 57.9103 41.139 58.6784C46.5178 63.2891 52.6648 66.6187 59.5803 68.4117C60.3488 68.6676 61.3733 68.6676 62.1418 68.9239H64.7029C65.9836 68.9239 67.5202 68.4117 68.5451 67.8994C69.3132 67.3872 69.8254 67.3872 70.3376 66.875L70.8502 66.3624C71.3624 65.8502 71.8747 65.5943 72.3869 65.082C72.8991 64.5698 73.4113 64.0576 73.6676 63.545C74.1798 62.5206 74.4357 61.2399 74.692 59.9595V58.1665C74.692 58.1665 74.4357 57.9103 73.9235 57.6543Z" fill="white"/>
</g>
<defs>
<filter id="filter0_d_19433_180345" x="0" y="0.0244141" width="102" height="102.769" filterUnits="userSpaceOnUse" color-interpolation-filters="sRGB">
<feFlood flood-opacity="0" result="BackgroundImageFix"/>
<feColorMatrix in="SourceAlpha" type="matrix" values="0 0 0 0 0 0 0 0 0 0 0 0 0 0 0 0 0 0 127 0" result="hardAlpha"/>
<feOffset dy="4"/>
<feGaussianBlur stdDeviation="2"/>
<feComposite in2="hardAlpha" operator="out"/>
<feColorMatrix type="matrix" values="0 0 0 0 0 0 0 0 0 0 0 0 0 0 0 0 0 0 0.25 0"/>
<feBlend mode="normal" in2="BackgroundImageFix" result="effect1_dropShadow_19433_180345"/>
<feBlend mode="normal" in="SourceGraphic" in2="effect1_dropShadow_19433_180345" result="shape"/>
</filter>
</defs>
</svg>
