<svg xmlns="http://www.w3.org/2000/svg" xmlns:xlink="http://www.w3.org/1999/xlink" width="1024" zoomAndPan="magnify" viewBox="0 0 768 767.999994" height="1024" preserveAspectRatio="xMidYMid meet" version="1.0"><defs><clipPath id="id1"><path d="M 141.609375 141.609375 L 626.109375 141.609375 L 626.109375 626.109375 L 141.609375 626.109375 Z M 141.609375 141.609375 " clip-rule="nonzero"/></clipPath></defs><g clip-path="url(#id1)"><path fill="#ffffff" d="M 383.859375 141.609375 C 250.066406 141.609375 141.609375 250.066406 141.609375 383.859375 C 141.609375 517.648438 250.066406 626.109375 383.859375 626.109375 C 517.648438 626.109375 626.109375 517.648438 626.109375 383.859375 C 626.109375 250.066406 517.648438 141.609375 383.859375 141.609375 " fill-opacity="1" fill-rule="nonzero"/></g><path fill="#ffffff" d="M 694.332031 374.53125 C 694.332031 545.90625 555.398438 684.832031 384.019531 684.832031 C 212.636719 684.832031 73.707031 545.90625 73.707031 374.53125 C 73.707031 203.15625 212.636719 64.226562 384.019531 64.226562 C 555.398438 64.226562 694.332031 203.15625 694.332031 374.53125 Z M 206.484375 552.789062 L 231.550781 461.246094 C 216.089844 434.453125 207.953125 404.0625 207.964844 372.925781 C 208.007812 275.519531 287.273438 196.273438 384.679688 196.273438 C 431.949219 196.292969 476.320312 214.691406 509.683594 248.082031 C 543.046875 281.472656 561.414062 325.859375 561.394531 373.066406 C 561.351562 470.46875 482.070312 549.726562 384.679688 549.726562 L 384.605469 549.726562 C 355.03125 549.71875 325.972656 542.296875 300.160156 528.222656 Z M 304.5 496.242188 L 309.867188 499.421875 C 332.414062 512.804688 358.265625 519.878906 384.625 519.894531 L 384.679688 519.894531 C 465.632812 519.894531 531.523438 454.019531 531.554688 373.054688 C 531.570312 333.820312 516.308594 296.925781 488.578125 269.171875 C 460.84375 241.417969 423.96875 226.128906 384.734375 226.109375 C 303.71875 226.109375 237.832031 291.976562 237.800781 372.9375 C 237.792969 400.679688 245.554688 427.695312 260.257812 451.078125 L 263.753906 456.632812 L 248.910156 510.816406 Z M 330.578125 291.445312 C 333.722656 291.574219 337.207031 291.722656 340.515625 299.074219 C 342.765625 304.082031 346.546875 313.402344 349.574219 320.855469 C 351.824219 326.398438 353.65625 330.90625 354.125 331.847656 C 355.230469 334.058594 355.964844 336.636719 354.492188 339.585938 C 353.019531 342.527344 347.03125 350.339844 343.457031 354.679688 C 343.269531 354.914062 343.074219 355.140625 342.878906 355.371094 C 341.035156 357.53125 339.191406 359.699219 341.519531 363.691406 C 344.09375 368.109375 352.957031 382.5625 366.082031 394.269531 C 380.1875 406.84375 392.441406 412.164062 398.660156 414.863281 C 399.878906 415.390625 400.867188 415.820312 401.589844 416.179688 C 406.003906 418.390625 408.582031 418.023438 411.160156 415.070312 C 413.734375 412.128906 422.191406 402.183594 425.136719 397.769531 C 428.078125 393.347656 431.023438 394.082031 435.070312 395.558594 C 439.121094 397.027344 460.828125 407.710938 465.242188 409.921875 C 466.105469 410.347656 466.90625 410.738281 467.652344 411.097656 C 470.734375 412.585938 472.816406 413.589844 473.707031 415.070312 C 474.8125 416.917969 474.8125 425.757812 471.128906 436.066406 C 467.453125 446.375 449.421875 456.320312 441.328125 457.058594 C 440.550781 457.128906 439.773438 457.21875 438.976562 457.3125 C 431.496094 458.195312 422.054688 459.304688 388.34375 446.007812 C 346.855469 429.648438 319.503906 389.097656 313.863281 380.734375 C 313.398438 380.046875 313.085938 379.582031 312.917969 379.355469 L 312.875 379.300781 C 310.507812 376.136719 294.886719 355.277344 294.886719 333.6875 C 294.886719 313.351562 304.882812 302.695312 309.484375 297.789062 C 309.796875 297.457031 310.085938 297.148438 310.34375 296.867188 C 314.390625 292.449219 319.175781 291.339844 322.117188 291.339844 L 322.527344 291.339844 C 325.328125 291.339844 328.121094 291.339844 330.578125 291.445312 Z M 330.578125 291.445312 " fill-opacity="1" fill-rule="evenodd"/><path fill="#00bb2d" d="M 694.332031 374.53125 C 694.332031 545.90625 555.398438 684.832031 384.019531 684.832031 C 212.636719 684.832031 73.707031 545.90625 73.707031 374.53125 C 73.707031 203.15625 212.636719 64.226562 384.019531 64.226562 C 555.398438 64.226562 694.332031 203.15625 694.332031 374.53125 Z M 206.484375 552.789062 L 231.550781 461.246094 C 216.089844 434.453125 207.953125 404.0625 207.964844 372.925781 C 208.007812 275.519531 287.273438 196.273438 384.679688 196.273438 C 431.949219 196.292969 476.320312 214.691406 509.683594 248.082031 C 543.046875 281.472656 561.414062 325.859375 561.394531 373.066406 C 561.351562 470.46875 482.070312 549.726562 384.679688 549.726562 L 384.605469 549.726562 C 355.03125 549.71875 325.972656 542.296875 300.160156 528.222656 Z M 304.5 496.242188 L 309.867188 499.421875 C 332.414062 512.804688 358.265625 519.878906 384.625 519.894531 L 384.679688 519.894531 C 465.632812 519.894531 531.523438 454.019531 531.554688 373.054688 C 531.570312 333.820312 516.308594 296.925781 488.578125 269.171875 C 460.84375 241.417969 423.96875 226.128906 384.734375 226.109375 C 303.71875 226.109375 237.832031 291.976562 237.800781 372.9375 C 237.792969 400.679688 245.554688 427.695312 260.257812 451.078125 L 263.753906 456.632812 L 248.910156 510.816406 Z M 330.578125 291.445312 C 333.722656 291.574219 337.207031 291.722656 340.515625 299.074219 C 342.765625 304.082031 346.546875 313.402344 349.574219 320.855469 C 351.824219 326.398438 353.65625 330.90625 354.125 331.847656 C 355.230469 334.058594 355.964844 336.636719 354.492188 339.585938 C 353.019531 342.527344 347.03125 350.339844 343.457031 354.679688 C 343.269531 354.914062 343.074219 355.140625 342.878906 355.371094 C 341.035156 357.53125 339.191406 359.699219 341.519531 363.691406 C 344.09375 368.109375 352.957031 382.5625 366.082031 394.269531 C 380.1875 406.84375 392.441406 412.164062 398.660156 414.863281 C 399.878906 415.390625 400.867188 415.820312 401.589844 416.179688 C 406.003906 418.390625 408.582031 418.023438 411.160156 415.070312 C 413.734375 412.128906 422.191406 402.183594 425.136719 397.769531 C 428.078125 393.347656 431.023438 394.082031 435.070312 395.558594 C 439.121094 397.027344 460.828125 407.710938 465.242188 409.921875 C 466.105469 410.347656 466.90625 410.738281 467.652344 411.097656 C 470.734375 412.585938 472.816406 413.589844 473.707031 415.070312 C 474.8125 416.917969 474.8125 425.757812 471.128906 436.066406 C 467.453125 446.375 449.421875 456.320312 441.328125 457.058594 C 440.550781 457.128906 439.773438 457.21875 438.976562 457.3125 C 431.496094 458.195312 422.054688 459.304688 388.34375 446.007812 C 346.855469 429.648438 319.503906 389.097656 313.863281 380.734375 C 313.398438 380.046875 313.085938 379.582031 312.917969 379.355469 L 312.875 379.300781 C 310.507812 376.136719 294.886719 355.277344 294.886719 333.6875 C 294.886719 313.351562 304.882812 302.695312 309.484375 297.789062 C 309.796875 297.457031 310.085938 297.148438 310.34375 296.867188 C 314.390625 292.449219 319.175781 291.339844 322.117188 291.339844 L 322.527344 291.339844 C 325.328125 291.339844 328.121094 291.339844 330.578125 291.445312 Z M 330.578125 291.445312 " fill-opacity="1" fill-rule="evenodd"/></svg>