<svg width="24" height="24" viewBox="0 0 24 24" fill="none" xmlns="http://www.w3.org/2000/svg">
<path d="M7 13L3 9L7 5" stroke="white" stroke-width="2" stroke-linecap="round" stroke-linejoin="round"/>
<path d="M7 13L3 9L7 5" stroke="#00C09E" stroke-width="2" stroke-linecap="round" stroke-linejoin="round"/>
<path d="M11 18C10.4477 18 10 18.4477 10 19C10 19.5523 10.4477 20 11 20V18ZM3 8C2.44772 8 2 8.44772 2 9C2 9.55228 2.44772 10 3 10V8ZM11 20H16V18H11V20ZM16 8H3V10H16V8ZM22 14C22 10.6863 19.3137 8 16 8V10C18.2091 10 20 11.7909 20 14H22ZM16 20C19.3137 20 22 17.3137 22 14H20C20 16.2091 18.2091 18 16 18V20Z" fill="white"/>
<path d="M11 18C10.4477 18 10 18.4477 10 19C10 19.5523 10.4477 20 11 20V18ZM3 8C2.44772 8 2 8.44772 2 9C2 9.55228 2.44772 10 3 10V8ZM11 20H16V18H11V20ZM16 8H3V10H16V8ZM22 14C22 10.6863 19.3137 8 16 8V10C18.2091 10 20 11.7909 20 14H22ZM16 20C19.3137 20 22 17.3137 22 14H20C20 16.2091 18.2091 18 16 18V20Z" fill="#00C09E"/>
</svg>
