<svg width="1440" height="1047" viewBox="0 0 1440 1047" fill="none" xmlns="http://www.w3.org/2000/svg">
<g opacity="0.3">
<g clip-path="url(#clip0_2272_59941)">
<path d="M2411.69 -406.988C2629.65 -76.2247 1410.49 923.18 992.062 737.734C852.611 675.929 846.469 559.215 853.788 436.935C861.108 314.654 859.758 228.42 590.694 171.24C166.548 110.79 584.927 -497.204 695.486 -600.377C806.045 -703.55 2122.3 -846.167 2411.69 -406.988Z" fill="white"/>
<path d="M2411.69 -406.988C2629.65 -76.2247 1410.49 923.18 992.062 737.734C852.611 675.929 846.469 559.215 853.788 436.935C861.108 314.654 859.758 228.42 590.694 171.24C166.548 110.79 584.927 -497.204 695.486 -600.377C806.045 -703.55 2122.3 -846.167 2411.69 -406.988Z" fill="url(#paint0_linear_2272_59941)"/>
</g>
</g>
<defs>
<linearGradient id="paint0_linear_2272_59941" x1="279.402" y1="-50.7554" x2="1190.16" y2="913.768" gradientUnits="userSpaceOnUse">
<stop stop-color="#008FE5"/>
<stop offset="1" stop-color="#00C09E"/>
</linearGradient>
<clipPath id="clip0_2272_59941">
<rect width="1057" height="765" fill="white" transform="translate(383)"/>
</clipPath>
</defs>
</svg>
