<svg width="51" height="50" viewBox="0 0 51 50" fill="none" xmlns="http://www.w3.org/2000/svg">
<path d="M25.5 43.75C35.8553 43.75 44.25 35.3553 44.25 25C44.25 14.6447 35.8553 6.25 25.5 6.25C15.1447 6.25 6.75 14.6447 6.75 25C6.75 35.3553 15.1447 43.75 25.5 43.75Z" stroke="white" stroke-width="3" stroke-linecap="round" stroke-linejoin="round"/>
<path d="M25.5 43.75C35.8553 43.75 44.25 35.3553 44.25 25C44.25 14.6447 35.8553 6.25 25.5 6.25C15.1447 6.25 6.75 14.6447 6.75 25C6.75 35.3553 15.1447 43.75 25.5 43.75Z" stroke="#008FE5" stroke-width="3" stroke-linecap="round" stroke-linejoin="round"/>
<path d="M36.3677 40.2755C33.6974 37.2933 29.8177 35.4166 25.4997 35.4166C21.1816 35.4166 17.3019 37.2933 14.6317 40.2755" stroke="white" stroke-width="3" stroke-linecap="round" stroke-linejoin="round"/>
<path d="M36.3677 40.2755C33.6974 37.2933 29.8177 35.4166 25.4997 35.4166C21.1816 35.4166 17.3019 37.2933 14.6317 40.2755" stroke="#008FE5" stroke-width="3" stroke-linecap="round" stroke-linejoin="round"/>
<path d="M25.5 29.1666C28.9518 29.1666 31.75 26.3684 31.75 22.9166C31.75 19.4648 28.9518 16.6666 25.5 16.6666C22.0482 16.6666 19.25 19.4648 19.25 22.9166C19.25 26.3684 22.0482 29.1666 25.5 29.1666Z" stroke="white" stroke-width="3" stroke-linecap="round" stroke-linejoin="round"/>
<path d="M25.5 29.1666C28.9518 29.1666 31.75 26.3684 31.75 22.9166C31.75 19.4648 28.9518 16.6666 25.5 16.6666C22.0482 16.6666 19.25 19.4648 19.25 22.9166C19.25 26.3684 22.0482 29.1666 25.5 29.1666Z" stroke="#008FE5" stroke-width="3" stroke-linecap="round" stroke-linejoin="round"/>
</svg>
