<svg width="57" height="57" viewBox="0 0 57 57" fill="none" xmlns="http://www.w3.org/2000/svg">
<path d="M28.5 52.25C15.3892 52.2356 4.7644 41.6108 4.75 28.5V28.025C5.01109 14.9733 15.7571 4.57894 28.8103 4.75213C41.8635 4.92533 52.33 15.6011 52.2447 28.6552C52.1594 41.7093 41.5544 52.2474 28.5 52.25ZM17.5987 27.5263L14.25 30.875L23.75 40.375L42.75 21.375L39.4012 18.0025L23.75 33.6538L17.5987 27.5263Z" fill="white"/>
<path d="M28.5 52.25C15.3892 52.2356 4.7644 41.6108 4.75 28.5V28.025C5.01109 14.9733 15.7571 4.57894 28.8103 4.75213C41.8635 4.92533 52.33 15.6011 52.2447 28.6552C52.1594 41.7093 41.5544 52.2474 28.5 52.25ZM17.5987 27.5263L14.25 30.875L23.75 40.375L42.75 21.375L39.4012 18.0025L23.75 33.6538L17.5987 27.5263Z" fill="url(#paint0_linear)"/>
<defs>
<linearGradient id="paint0_linear" x1="4.75" y1="4.75" x2="52.25" y2="52.2453" gradientUnits="userSpaceOnUse">
<stop stop-color="#008FE5"/>
<stop offset="1" stop-color="#00C09E"/>
</linearGradient>
</defs>
</svg>
