<svg width="28" height="26" viewBox="0 0 28 26" fill="none" xmlns="http://www.w3.org/2000/svg">
<path d="M13.9999 25C13.1399 24.2374 12.1679 23.444 11.1399 22.6H11.1265C7.50654 19.64 3.40387 16.2907 1.59187 12.2774C0.996558 10.9997 0.681073 9.60954 0.666519 8.20003C0.662543 6.26602 1.43823 4.41202 2.81828 3.05706C4.19833 1.7021 6.06625 0.96056 7.99987 1.00003C9.57404 1.00252 11.1143 1.45748 12.4372 2.3107C13.0185 2.68799 13.5444 3.14437 13.9999 3.6667C14.4579 3.14643 14.9839 2.69031 15.5639 2.3107C16.8862 1.45731 18.4261 1.00233 19.9999 1.00003C21.9335 0.96056 23.8014 1.7021 25.1815 3.05706C26.5615 4.41202 27.3372 6.26602 27.3332 8.20003C27.3196 9.61179 27.0041 11.0043 26.4079 12.284C24.5959 16.2974 20.4945 19.6454 16.8745 22.6L16.8612 22.6107C15.8319 23.4494 14.8612 24.2427 14.0012 25.0107L13.9999 25ZM7.99987 3.6667C6.75788 3.65116 5.55996 4.12649 4.66653 4.98937C3.80572 5.83492 3.32461 6.99343 3.33309 8.20003C3.3483 9.22737 3.58097 10.2398 4.01587 11.1707C4.87121 12.9023 6.02535 14.4694 7.4252 15.8C8.74654 17.1334 10.2665 18.424 11.5812 19.5094C11.9452 19.8094 12.3159 20.112 12.6865 20.4147L12.9199 20.6054C13.2759 20.896 13.6439 21.1974 13.9999 21.4934L14.0172 21.4774L14.0252 21.4707H14.0332L14.0452 21.4614H14.0519H14.0585L14.0825 21.4414L14.1372 21.3974L14.1465 21.3894L14.1612 21.3787H14.1692L14.1812 21.368L15.0665 20.6414L15.2985 20.4507C15.6732 20.1454 16.0439 19.8427 16.4079 19.5427C17.7225 18.4574 19.2439 17.168 20.5652 15.828C21.9652 14.4981 23.1194 12.9314 23.9745 11.2C24.4173 10.2611 24.6533 9.23804 24.6666 8.20003C24.6721 6.99715 24.1912 5.84309 23.3332 5.00003C22.4415 4.13326 21.2434 3.65401 19.9999 3.6667C18.4824 3.65381 17.0318 4.28986 16.0132 5.4147L13.9999 7.7347L11.9865 5.4147C10.968 4.28986 9.5173 3.65381 7.99987 3.6667Z" fill="white"/>
<path d="M13.9999 25C13.1399 24.2374 12.1679 23.444 11.1399 22.6H11.1265C7.50654 19.64 3.40387 16.2907 1.59187 12.2774C0.996558 10.9997 0.681073 9.60954 0.666519 8.20003C0.662543 6.26602 1.43823 4.41202 2.81828 3.05706C4.19833 1.7021 6.06625 0.96056 7.99987 1.00003C9.57404 1.00252 11.1143 1.45748 12.4372 2.3107C13.0185 2.68799 13.5444 3.14437 13.9999 3.6667C14.4579 3.14643 14.9839 2.69031 15.5639 2.3107C16.8862 1.45731 18.4261 1.00233 19.9999 1.00003C21.9335 0.96056 23.8014 1.7021 25.1815 3.05706C26.5615 4.41202 27.3372 6.26602 27.3332 8.20003C27.3196 9.61179 27.0041 11.0043 26.4079 12.284C24.5959 16.2974 20.4945 19.6454 16.8745 22.6L16.8612 22.6107C15.8319 23.4494 14.8612 24.2427 14.0012 25.0107L13.9999 25ZM7.99987 3.6667C6.75788 3.65116 5.55996 4.12649 4.66653 4.98937C3.80572 5.83492 3.32461 6.99343 3.33309 8.20003C3.3483 9.22737 3.58097 10.2398 4.01587 11.1707C4.87121 12.9023 6.02535 14.4694 7.4252 15.8C8.74654 17.1334 10.2665 18.424 11.5812 19.5094C11.9452 19.8094 12.3159 20.112 12.6865 20.4147L12.9199 20.6054C13.2759 20.896 13.6439 21.1974 13.9999 21.4934L14.0172 21.4774L14.0252 21.4707H14.0332L14.0452 21.4614H14.0519H14.0585L14.0825 21.4414L14.1372 21.3974L14.1465 21.3894L14.1612 21.3787H14.1692L14.1812 21.368L15.0665 20.6414L15.2985 20.4507C15.6732 20.1454 16.0439 19.8427 16.4079 19.5427C17.7225 18.4574 19.2439 17.168 20.5652 15.828C21.9652 14.4981 23.1194 12.9314 23.9745 11.2C24.4173 10.2611 24.6533 9.23804 24.6666 8.20003C24.6721 6.99715 24.1912 5.84309 23.3332 5.00003C22.4415 4.13326 21.2434 3.65401 19.9999 3.6667C18.4824 3.65381 17.0318 4.28986 16.0132 5.4147L13.9999 7.7347L11.9865 5.4147C10.968 4.28986 9.5173 3.65381 7.99987 3.6667Z" fill="#FA7C49"/>
</svg>
