<svg width="28" height="25" viewBox="0 0 28 25" fill="none" xmlns="http://www.w3.org/2000/svg">
<path d="M0.666504 8.19977C0.666173 6.26689 1.44302 4.41504 2.82226 3.06088C4.20149 1.70672 6.06728 0.963977 7.99984 0.999771C10.2896 0.987611 12.4745 1.95867 13.9998 3.66644C15.5252 1.95867 17.7101 0.987611 19.9998 0.999771C21.9324 0.963977 23.7982 1.70672 25.1774 3.06088C26.5567 4.41504 27.3335 6.26689 27.3332 8.19977C27.3332 15.3411 18.8278 20.7331 13.9998 24.9998C9.1825 20.6971 0.666504 15.3464 0.666504 8.19977Z" fill="white"/>
<path d="M0.666504 8.19977C0.666173 6.26689 1.44302 4.41504 2.82226 3.06088C4.20149 1.70672 6.06728 0.963977 7.99984 0.999771C10.2896 0.987611 12.4745 1.95867 13.9998 3.66644C15.5252 1.95867 17.7101 0.987611 19.9998 0.999771C21.9324 0.963977 23.7982 1.70672 25.1774 3.06088C26.5567 4.41504 27.3335 6.26689 27.3332 8.19977C27.3332 15.3411 18.8278 20.7331 13.9998 24.9998C9.1825 20.6971 0.666504 15.3464 0.666504 8.19977Z" fill="#FA7C49"/>
</svg>
