<svg width="51" height="50" viewBox="0 0 51 50" fill="none" xmlns="http://www.w3.org/2000/svg">
<path d="M21.3333 35.4167C29.3875 35.4167 35.9167 28.8875 35.9167 20.8333C35.9167 12.7792 29.3875 6.25 21.3333 6.25C13.2792 6.25 6.75 12.7792 6.75 20.8333C6.75 28.8875 13.2792 35.4167 21.3333 35.4167Z" stroke="white" stroke-width="3" stroke-linecap="round" stroke-linejoin="round"/>
<path d="M21.3333 35.4167C29.3875 35.4167 35.9167 28.8875 35.9167 20.8333C35.9167 12.7792 29.3875 6.25 21.3333 6.25C13.2792 6.25 6.75 12.7792 6.75 20.8333C6.75 28.8875 13.2792 35.4167 21.3333 35.4167Z" stroke="#008FE5" stroke-width="3" stroke-linecap="round" stroke-linejoin="round"/>
<path d="M31.75 31.25L44.25 43.75" stroke="white" stroke-width="3" stroke-linecap="round" stroke-linejoin="round"/>
<path d="M31.75 31.25L44.25 43.75" stroke="#008FE5" stroke-width="3" stroke-linecap="round" stroke-linejoin="round"/>
</svg>
