<svg width="24" height="24" viewBox="0 0 24 24" fill="none" xmlns="http://www.w3.org/2000/svg">
<g clip-path="url(#clip0_3782_40374)">
<path d="M17.3971 12.8214C17.3971 12.8214 17.2922 12.6048 17.1203 12.2474C16.3322 10.6108 14.1248 6.00182 14.0014 5.48003C13.8531 4.84464 13.816 0.363618 13.816 0.363618C13.816 0.363618 11.0501 -1.6054 10.0024 3.639C8.95179 8.88567 10.3176 9.54226 10.3176 9.54226L9.37402 9.52787L2.72249 8.80766C1.91226 8.71982 1.1805 9.44532 1.08635 10.4276C0.991491 11.4098 1.57206 12.2769 2.38085 12.3648L4.36861 12.5791L4.35934 12.6571L1.85449 12.3852C0.92944 12.286 0.1021 13.0017 0.00866745 13.9824C-0.0847649 14.9646 0.587806 15.8431 1.51286 15.9438L1.72611 15.9666C1.04926 16.0801 0.485815 16.6981 0.403081 17.541C0.309648 18.5232 0.900911 19.3904 1.72183 19.4797L2.24391 19.5365C1.72754 19.738 1.31315 20.3385 1.24112 21.0958C1.14769 22.0781 1.65336 22.9369 2.37301 23.0149L6.52041 23.464C8.10448 23.7419 9.98454 24.0024 11.4902 24.0024C13.7496 24.0024 15.1782 23.57 16.3016 23.2004C16.9092 23.0005 17.4277 22.8187 17.9406 22.7331C18.136 22.7347 18.2116 22.5499 18.2116 22.4211V13.163C18.2109 12.7146 17.3971 12.9517 17.3971 12.8214Z" fill="#008FE5"/>
<path d="M19.6003 23.3919C19.1132 23.3919 18.7188 22.9731 18.7188 22.4559V12.6343C18.7188 12.117 19.1132 11.6982 19.6003 11.6982H23.1186C23.6057 11.6982 24.0001 12.1178 24.0001 12.6343V22.4559C24.0001 22.9731 23.6057 23.3919 23.1186 23.3919H19.6003Z" fill="#008FE5"/>
</g>
<defs>
<clipPath id="clip0_3782_40374">
<rect width="24" height="24" fill="white"/>
</clipPath>
</defs>
</svg>
