<svg width="72" height="73" viewBox="0 0 72 73" fill="none" xmlns="http://www.w3.org/2000/svg">
<path d="M45 66.5H27V60.5H45V66.5ZM45 57.5H27L26.331 51.5C25.9711 49.5154 25.3759 47.5807 24.558 45.737C23.496 44.237 22.389 42.956 21.318 41.705C17.3823 38.0159 15.104 32.8933 15 27.5C15 15.902 24.402 6.5 36 6.5C47.598 6.5 57 15.902 57 27.5C56.8779 32.8604 54.617 37.9493 50.721 41.633L50.67 41.693C49.602 42.944 48.498 44.24 47.457 45.725C46.6398 47.5737 46.0427 49.512 45.678 51.5L45 57.5ZM36 12.5C27.7198 12.5099 21.0099 19.2198 21 27.5C21 32.132 22.932 34.379 25.854 37.784C26.964 39.08 28.224 40.544 29.454 42.257C30.9467 45.1575 31.9666 48.2778 32.475 51.5H39.528C40.0496 48.2871 41.0677 45.1749 42.546 42.275C43.746 40.562 45.003 39.089 46.11 37.793L46.155 37.739C49.071 34.319 51 32.06 51 27.5C50.9901 19.2198 44.2802 12.5099 36 12.5Z" fill="white"/>
<path d="M45 66.5H27V60.5H45V66.5ZM45 57.5H27L26.331 51.5C25.9711 49.5154 25.3759 47.5807 24.558 45.737C23.496 44.237 22.389 42.956 21.318 41.705C17.3823 38.0159 15.104 32.8933 15 27.5C15 15.902 24.402 6.5 36 6.5C47.598 6.5 57 15.902 57 27.5C56.8779 32.8604 54.617 37.9493 50.721 41.633L50.67 41.693C49.602 42.944 48.498 44.24 47.457 45.725C46.6398 47.5737 46.0427 49.512 45.678 51.5L45 57.5ZM36 12.5C27.7198 12.5099 21.0099 19.2198 21 27.5C21 32.132 22.932 34.379 25.854 37.784C26.964 39.08 28.224 40.544 29.454 42.257C30.9467 45.1575 31.9666 48.2778 32.475 51.5H39.528C40.0496 48.2871 41.0677 45.1749 42.546 42.275C43.746 40.562 45.003 39.089 46.11 37.793L46.155 37.739C49.071 34.319 51 32.06 51 27.5C50.9901 19.2198 44.2802 12.5099 36 12.5Z" fill="black" fill-opacity="0.4"/>
</svg>
