<svg width="39" height="39" viewBox="0 0 39 39" fill="none" xmlns="http://www.w3.org/2000/svg">
<path d="M11.4935 15.9461L8.14929 19.2904C6.77781 20.6619 6.00732 22.522 6.00732 24.4615C6.00732 26.4011 6.77781 28.2612 8.14929 29.6327C9.52076 31.0042 11.3809 31.7747 13.3204 31.7747C15.26 31.7747 17.1201 31.0042 18.4916 29.6327L22.9473 25.1745C23.7744 24.3474 24.3909 23.3339 24.7452 22.2191C25.0995 21.1044 25.1813 19.921 24.9835 18.7681C24.7858 17.6153 24.3144 16.5267 23.609 15.5937C22.9035 14.6607 21.9845 13.9106 20.9291 13.4062L19.5007 14.8346C19.3557 14.9799 19.2296 15.1429 19.1253 15.3197C19.9408 15.5541 20.6809 15.9973 21.2725 16.6054C21.8642 17.2135 22.2869 17.9655 22.4989 18.787C22.7108 19.6085 22.7047 20.4711 22.4811 21.2896C22.2576 22.108 21.8242 22.854 21.224 23.4536L16.7707 27.9094C15.856 28.8241 14.6153 29.338 13.3217 29.338C12.028 29.338 10.7873 28.8241 9.8726 27.9094C8.95785 26.9946 8.44395 25.754 8.44395 24.4603C8.44395 23.1667 8.95785 21.926 9.8726 21.0112L11.8055 19.0807C11.5328 18.0588 11.4275 16.9994 11.4935 15.9437V15.9461Z" fill="white"/>
<path d="M11.4935 15.9461L8.14929 19.2904C6.77781 20.6619 6.00732 22.522 6.00732 24.4615C6.00732 26.4011 6.77781 28.2612 8.14929 29.6327C9.52076 31.0042 11.3809 31.7747 13.3204 31.7747C15.26 31.7747 17.1201 31.0042 18.4916 29.6327L22.9473 25.1745C23.7744 24.3474 24.3909 23.3339 24.7452 22.2191C25.0995 21.1044 25.1813 19.921 24.9835 18.7681C24.7858 17.6153 24.3144 16.5267 23.609 15.5937C22.9035 14.6607 21.9845 13.9106 20.9291 13.4062L19.5007 14.8346C19.3557 14.9799 19.2296 15.1429 19.1253 15.3197C19.9408 15.5541 20.6809 15.9973 21.2725 16.6054C21.8642 17.2135 22.2869 17.9655 22.4989 18.787C22.7108 19.6085 22.7047 20.4711 22.4811 21.2896C22.2576 22.108 21.8242 22.854 21.224 23.4536L16.7707 27.9094C15.856 28.8241 14.6153 29.338 13.3217 29.338C12.028 29.338 10.7873 28.8241 9.8726 27.9094C8.95785 26.9946 8.44395 25.754 8.44395 24.4603C8.44395 23.1667 8.95785 21.926 9.8726 21.0112L11.8055 19.0807C11.5328 18.0588 11.4275 16.9994 11.4935 15.9437V15.9461Z" fill="#494949" fill-opacity="0.8"/>
<path d="M13.9227 16.9637L14.3298 16.5566C14.9337 15.9505 15.6871 15.5149 16.5138 15.294C16.7346 14.4674 17.1702 13.7139 17.7764 13.11L18.1834 12.703C16.9573 12.634 15.7335 12.8746 14.6247 13.4025C14.0884 14.5238 13.8544 15.7498 13.9227 16.9613V16.9637Z" fill="white"/>
<path d="M13.9227 16.9637L14.3298 16.5566C14.9337 15.9505 15.6871 15.5149 16.5138 15.294C16.7346 14.4674 17.1702 13.7139 17.7764 13.11L18.1834 12.703C16.9573 12.634 15.7335 12.8746 14.6247 13.4025C14.0884 14.5238 13.8544 15.7498 13.9227 16.9613V16.9637Z" fill="#494949" fill-opacity="0.8"/>
<path d="M16.053 11.3868C15.226 12.2139 14.6095 13.2274 14.2552 14.3421C13.9009 15.4569 13.8191 16.6403 14.0168 17.7932C14.2146 18.946 14.6859 20.0346 15.3914 20.9676C16.0969 21.9006 17.0159 22.6507 18.0713 23.155L19.9603 21.2635C19.1339 21.0418 18.3804 20.6066 17.7755 20.0014C17.1705 19.3962 16.7356 18.6425 16.5142 17.816C16.2929 16.9894 16.293 16.1192 16.5146 15.2927C16.7361 14.4663 17.1713 13.7127 17.7763 13.1076L22.2297 8.6519C23.1444 7.73715 24.3851 7.22325 25.6787 7.22325C26.9724 7.22325 28.213 7.73715 29.1278 8.6519C30.0425 9.56665 30.5564 10.8073 30.5564 12.101C30.5564 13.3946 30.0425 14.6353 29.1278 15.55L27.1948 17.4805C27.4678 18.5043 27.5727 19.5646 27.5068 20.6176L30.8511 17.2733C32.2226 15.9019 32.9931 14.0417 32.9931 12.1022C32.9931 10.1626 32.2226 8.3025 30.8511 6.93103C29.4796 5.55955 27.6195 4.78906 25.6799 4.78906C23.7404 4.78906 21.8803 5.55955 20.5088 6.93103L16.053 11.3868Z" fill="white"/>
<path d="M16.053 11.3868C15.226 12.2139 14.6095 13.2274 14.2552 14.3421C13.9009 15.4569 13.8191 16.6403 14.0168 17.7932C14.2146 18.946 14.6859 20.0346 15.3914 20.9676C16.0969 21.9006 17.0159 22.6507 18.0713 23.155L19.9603 21.2635C19.1339 21.0418 18.3804 20.6066 17.7755 20.0014C17.1705 19.3962 16.7356 18.6425 16.5142 17.816C16.2929 16.9894 16.293 16.1192 16.5146 15.2927C16.7361 14.4663 17.1713 13.7127 17.7763 13.1076L22.2297 8.6519C23.1444 7.73715 24.3851 7.22325 25.6787 7.22325C26.9724 7.22325 28.213 7.73715 29.1278 8.6519C30.0425 9.56665 30.5564 10.8073 30.5564 12.101C30.5564 13.3946 30.0425 14.6353 29.1278 15.55L27.1948 17.4805C27.4678 18.5043 27.5727 19.5646 27.5068 20.6176L30.8511 17.2733C32.2226 15.9019 32.9931 14.0417 32.9931 12.1022C32.9931 10.1626 32.2226 8.3025 30.8511 6.93103C29.4796 5.55955 27.6195 4.78906 25.6799 4.78906C23.7404 4.78906 21.8803 5.55955 20.5088 6.93103L16.053 11.3868Z" fill="#494949" fill-opacity="0.8"/>
<path d="M24.3752 23.1564C24.9053 22.0483 25.1468 20.8241 25.0772 19.5977L24.6701 20.0047C24.0662 20.6108 23.3127 21.0465 22.4861 21.2673C22.2652 22.094 21.8296 22.8474 21.2235 23.4513L20.8164 23.8584C22.0426 23.9273 23.2663 23.6868 24.3752 23.1588V23.1564Z" fill="white"/>
<path d="M24.3752 23.1564C24.9053 22.0483 25.1468 20.8241 25.0772 19.5977L24.6701 20.0047C24.0662 20.6108 23.3127 21.0465 22.4861 21.2673C22.2652 22.094 21.8296 22.8474 21.2235 23.4513L20.8164 23.8584C22.0426 23.9273 23.2663 23.6868 24.3752 23.1588V23.1564Z" fill="#494949" fill-opacity="0.8"/>
</svg>
