<svg width="66" height="46" viewBox="0 0 59 58" fill="none" xmlns="http://www.w3.org/2000/svg">
<g clip-path="url(#clip0_9678_77506)">
<path d="M46.29 10.5494C43.63 10.5494 41.47 8.38942 41.47 5.72942C41.47 3.06942 43.63 0.909424 46.29 0.909424C48.95 0.909424 51.11 3.06942 51.11 5.72942C51.11 8.38942 48.94 10.5494 46.29 10.5494Z" stroke="white" stroke-width="1.8" stroke-miterlimit="10" stroke-linecap="round" stroke-linejoin="round"/>
<path d="M46.29 10.5494C43.63 10.5494 41.47 8.38942 41.47 5.72942C41.47 3.06942 43.63 0.909424 46.29 0.909424C48.95 0.909424 51.11 3.06942 51.11 5.72942C51.11 8.38942 48.94 10.5494 46.29 10.5494Z" stroke="#00C09E" stroke-width="1.8" stroke-miterlimit="10" stroke-linecap="round" stroke-linejoin="round"/>
<path d="M31.96 23.3795L36.35 21.7595L38.4 13.2895C38.61 12.3495 39.33 11.6095 40.26 11.3695L44.5 10.2495" stroke="white" stroke-width="1.8" stroke-miterlimit="10" stroke-linecap="round" stroke-linejoin="round"/>
<path d="M31.96 23.3795L36.35 21.7595L38.4 13.2895C38.61 12.3495 39.33 11.6095 40.26 11.3695L44.5 10.2495" stroke="#00C09E" stroke-width="1.8" stroke-miterlimit="10" stroke-linecap="round" stroke-linejoin="round"/>
<path d="M41.9 21.1294L41.07 24.2694C40.88 25.1194 40.27 25.8194 39.45 26.1194L32.9 28.5394C32.6 28.6494 32.3 28.6994 32.01 28.6994" stroke="white" stroke-width="1.8" stroke-miterlimit="10" stroke-linecap="round" stroke-linejoin="round"/>
<path d="M41.9 21.1294L41.07 24.2694C40.88 25.1194 40.27 25.8194 39.45 26.1194L32.9 28.5394C32.6 28.6494 32.3 28.6994 32.01 28.6994" stroke="#00C09E" stroke-width="1.8" stroke-miterlimit="10" stroke-linecap="round" stroke-linejoin="round"/>
<path d="M42.0299 16.3394C42.0299 16.3394 41.6499 30.2494 41.6499 30.2794L39.4599 41.9994C39.4499 42.0994 39.4399 42.1994 39.4399 42.2894L38.6599 53.8594C38.6599 55.2894 39.8199 56.4394 41.2399 56.4394C42.6699 56.4394 43.8199 55.2794 43.8199 53.8594L44.5999 42.4394L46.7499 31.3894L47.1699 42.2794C47.1699 42.3294 47.1699 42.3794 47.1699 42.4294L47.8899 53.9994C47.9599 55.3794 49.0999 56.4494 50.4699 56.4494C50.5199 56.4494 50.5599 56.4494 50.6099 56.4494C52.0399 56.3794 53.1299 55.1594 53.0499 53.7394L52.3299 42.2394L51.7999 31.6194" stroke="white" stroke-width="1.8" stroke-miterlimit="10" stroke-linecap="round" stroke-linejoin="round"/>
<path d="M42.0299 16.3394C42.0299 16.3394 41.6499 30.2494 41.6499 30.2794L39.4599 41.9994C39.4499 42.0994 39.4399 42.1994 39.4399 42.2894L38.6599 53.8594C38.6599 55.2894 39.8199 56.4394 41.2399 56.4394C42.6699 56.4394 43.8199 55.2794 43.8199 53.8594L44.5999 42.4394L46.7499 31.3894L47.1699 42.2794C47.1699 42.3294 47.1699 42.3794 47.1699 42.4294L47.8899 53.9994C47.9599 55.3794 49.0999 56.4494 50.4699 56.4494C50.5199 56.4494 50.5599 56.4494 50.6099 56.4494C52.0399 56.3794 53.1299 55.1594 53.0499 53.7394L52.3299 42.2394L51.7999 31.6194" stroke="#00C09E" stroke-width="1.8" stroke-miterlimit="10" stroke-linecap="round" stroke-linejoin="round"/>
<path d="M48.3298 10.1895L53.2698 11.3695C54.0998 11.5895 54.7598 12.1995 55.0498 13.0095L57.5498 22.8495C57.6698 23.1895 57.7198 23.5595 57.6898 23.9195L57.0098 31.1195C56.8998 32.4695 55.7698 33.4895 54.4398 33.4895C54.3698 33.4895 54.2998 33.4895 54.2198 33.4795C52.7998 33.3595 51.7398 32.1095 51.8598 30.6895L52.4898 24.0395L50.9298 16.2795" stroke="white" stroke-width="1.8" stroke-miterlimit="10" stroke-linecap="round" stroke-linejoin="round"/>
<path d="M48.3298 10.1895L53.2698 11.3695C54.0998 11.5895 54.7598 12.1995 55.0498 13.0095L57.5498 22.8495C57.6698 23.1895 57.7198 23.5595 57.6898 23.9195L57.0098 31.1195C56.8998 32.4695 55.7698 33.4895 54.4398 33.4895C54.3698 33.4895 54.2998 33.4895 54.2198 33.4795C52.7998 33.3595 51.7398 32.1095 51.8598 30.6895L52.4898 24.0395L50.9298 16.2795" stroke="#00C09E" stroke-width="1.8" stroke-miterlimit="10" stroke-linecap="round" stroke-linejoin="round"/>
<path d="M17.0599 10.8895C14.3999 10.8195 12.3099 8.58952 12.3799 5.93952C12.4499 3.27952 14.6799 1.18952 17.3299 1.25952C19.9899 1.33952 22.0799 3.55952 22.0099 6.20952C21.9399 8.86952 19.7199 10.9695 17.0599 10.8895Z" stroke="white" stroke-width="1.8" stroke-miterlimit="10" stroke-linecap="round" stroke-linejoin="round"/>
<path d="M17.0599 10.8895C14.3999 10.8195 12.3099 8.58952 12.3799 5.93952C12.4499 3.27952 14.6799 1.18952 17.3299 1.25952C19.9899 1.33952 22.0799 3.55952 22.0099 6.20952C21.9399 8.86952 19.7199 10.9695 17.0599 10.8895Z" stroke="#00C09E" stroke-width="1.8" stroke-miterlimit="10" stroke-linecap="round" stroke-linejoin="round"/>
<path d="M19.96 10.4094L23.67 11.3694C24.6 11.6194 25.31 12.3594 25.53 13.2894L27.58 21.7594L32.82 23.6894C34.16 24.1794 34.84 25.6694 34.35 27.0094C33.97 28.0494 32.98 28.6994 31.93 28.6994C31.63 28.6994 31.33 28.6494 31.04 28.5394L24.49 26.1194C23.67 25.8194 23.06 25.1194 22.87 24.2694L21.84 16.3394" stroke="white" stroke-width="1.8" stroke-miterlimit="10" stroke-linecap="round" stroke-linejoin="round"/>
<path d="M19.96 10.4094L23.67 11.3694C24.6 11.6194 25.31 12.3594 25.53 13.2894L27.58 21.7594L32.82 23.6894C34.16 24.1794 34.84 25.6694 34.35 27.0094C33.97 28.0494 32.98 28.6994 31.93 28.6994C31.63 28.6994 31.33 28.6494 31.04 28.5394L24.49 26.1194C23.67 25.8194 23.06 25.1194 22.87 24.2694L21.84 16.3394" stroke="#00C09E" stroke-width="1.8" stroke-miterlimit="10" stroke-linecap="round" stroke-linejoin="round"/>
<path d="M12.0698 19.4994C12.0698 19.4994 11.9598 30.2694 11.9498 30.5094L11.1098 42.1594L10.3898 53.7194C10.3098 55.1394 11.4098 56.3594 12.8298 56.4294C12.8798 56.4294 12.9198 56.4294 12.9698 56.4294C14.3298 56.4294 15.4698 55.3594 15.5498 53.9794L16.2798 42.3394L17.1598 31.3694L18.9998 42.4094L19.5298 53.8594C19.5298 55.2894 20.6898 56.4394 22.1098 56.4394C23.5398 56.4394 24.6898 55.2794 24.6898 53.8594L24.1598 42.2894C24.1598 42.2094 24.1598 42.1194 24.1498 42.0394L22.2698 30.3194C22.2698 30.2794 22.2498 30.2494 22.2498 30.2094V19.4194" stroke="white" stroke-width="1.8" stroke-miterlimit="10" stroke-linecap="round" stroke-linejoin="round"/>
<path d="M12.0698 19.4994C12.0698 19.4994 11.9598 30.2694 11.9498 30.5094L11.1098 42.1594L10.3898 53.7194C10.3098 55.1394 11.4098 56.3594 12.8298 56.4294C12.8798 56.4294 12.9198 56.4294 12.9698 56.4294C14.3298 56.4294 15.4698 55.3594 15.5498 53.9794L16.2798 42.3394L17.1598 31.3694L18.9998 42.4094L19.5298 53.8594C19.5298 55.2894 20.6898 56.4394 22.1098 56.4394C23.5398 56.4394 24.6898 55.2794 24.6898 53.8594L24.1598 42.2894C24.1598 42.2094 24.1598 42.1194 24.1498 42.0394L22.2698 30.3194C22.2698 30.2794 22.2498 30.2494 22.2498 30.2094V19.4194" stroke="#00C09E" stroke-width="1.8" stroke-miterlimit="10" stroke-linecap="round" stroke-linejoin="round"/>
<path d="M14.16 10.4094L10.65 11.3694C9.81996 11.5894 9.15996 12.1994 8.86996 13.0094L7.59996 21.7094C7.50996 21.9594 7.45996 22.2194 7.45996 22.4894L7.55996 29.7994C7.51996 31.2294 8.63996 32.4194 10.07 32.4594C10.1 32.4594 10.12 32.4594 10.15 32.4594C10.81 32.4594 11.41 32.2094 11.87 31.8094" stroke="white" stroke-width="1.8" stroke-miterlimit="10" stroke-linecap="round" stroke-linejoin="round"/>
<path d="M14.16 10.4094L10.65 11.3694C9.81996 11.5894 9.15996 12.1994 8.86996 13.0094L7.59996 21.7094C7.50996 21.9594 7.45996 22.2194 7.45996 22.4894L7.55996 29.7994C7.51996 31.2294 8.63996 32.4194 10.07 32.4594C10.1 32.4594 10.12 32.4594 10.15 32.4594C10.81 32.4594 11.41 32.2094 11.87 31.8094" stroke="#00C09E" stroke-width="1.8" stroke-miterlimit="10" stroke-linecap="round" stroke-linejoin="round"/>
<path d="M12.0698 19.4994V16.3394" stroke="white" stroke-width="1.8" stroke-miterlimit="10" stroke-linecap="round" stroke-linejoin="round"/>
<path d="M12.0698 19.4994V16.3394" stroke="#00C09E" stroke-width="1.8" stroke-miterlimit="10" stroke-linecap="round" stroke-linejoin="round"/>
<path d="M10.15 32.4795H6.63997L5.96997 35.8495" stroke="white" stroke-width="1.8" stroke-miterlimit="10" stroke-linecap="round" stroke-linejoin="round"/>
<path d="M10.15 32.4795H6.63997L5.96997 35.8495" stroke="#00C09E" stroke-width="1.8" stroke-miterlimit="10" stroke-linecap="round" stroke-linejoin="round"/>
<path d="M11.4399 36.4495H1.7899C1.2999 36.4495 0.899902 36.8495 0.899902 37.3395V46.0695C0.899902 46.5595 1.2999 46.9595 1.7899 46.9595H10.3799" stroke="white" stroke-width="1.8" stroke-miterlimit="10" stroke-linecap="round" stroke-linejoin="round"/>
<path d="M11.4399 36.4495H1.7899C1.2999 36.4495 0.899902 36.8495 0.899902 37.3395V46.0695C0.899902 46.5595 1.2999 46.9595 1.7899 46.9595H10.3799" stroke="#00C09E" stroke-width="1.8" stroke-miterlimit="10" stroke-linecap="round" stroke-linejoin="round"/>
</g>
<defs>
<clipPath id="clip0_9678_77506">
<rect width="58.58" height="57.32" fill="white" transform="translate(0 0.0195312)"/>
</clipPath>
</defs>
</svg>
