<svg width="59" height="54" viewBox="0 0 59 54" fill="none" xmlns="http://www.w3.org/2000/svg">
<g clip-path="url(#clip0)">
<path d="M6.42852 12.4095C6.42852 14.8394 8.23304 16.816 10.4506 16.816H39.9535C42.1711 16.816 43.9756 14.8394 43.9756 12.4095V4.4065C43.9756 1.97661 42.1711 0 39.9535 0L10.4506 0C8.23304 0 6.42852 1.97661 6.42852 4.4065V12.4095ZM10.4506 2.19953L39.9535 2.19953C40.9898 2.19953 41.8305 3.18784 41.8305 4.4065V12.4095C41.8305 13.6282 40.9898 14.6165 39.9535 14.6165L10.4506 14.6165C9.41431 14.6165 8.57365 13.6282 8.57365 12.4095V4.4065C8.57365 3.18784 9.41431 2.19953 10.4506 2.19953Z" fill="white"/>
<path d="M6.42852 12.4095C6.42852 14.8394 8.23304 16.816 10.4506 16.816H39.9535C42.1711 16.816 43.9756 14.8394 43.9756 12.4095V4.4065C43.9756 1.97661 42.1711 0 39.9535 0L10.4506 0C8.23304 0 6.42852 1.97661 6.42852 4.4065V12.4095ZM10.4506 2.19953L39.9535 2.19953C40.9898 2.19953 41.8305 3.18784 41.8305 4.4065V12.4095C41.8305 13.6282 40.9898 14.6165 39.9535 14.6165L10.4506 14.6165C9.41431 14.6165 8.57365 13.6282 8.57365 12.4095V4.4065C8.57365 3.18784 9.41431 2.19953 10.4506 2.19953Z" fill="#00C09E"/>
<path d="M58.8828 41.583C58.8828 39.1531 56.5203 37.1765 53.6214 37.1765H11.6971C8.7983 37.1765 6.43576 39.1531 6.43576 41.583V49.586C6.43576 52.0159 8.7983 53.9925 11.6971 53.9925H53.6214C56.5203 53.9925 58.8828 52.0159 58.8828 49.586V41.583ZM53.6214 51.8004H11.6971C10.0086 51.8004 8.58089 50.7898 8.58089 49.586V41.583C8.58089 40.3866 10.0086 39.376 11.6971 39.376H53.6214C55.31 39.376 56.7377 40.3866 56.7377 41.583V49.586C56.7377 50.7898 55.31 51.8004 53.6214 51.8004Z" fill="white"/>
<path d="M58.8828 41.583C58.8828 39.1531 56.5203 37.1765 53.6214 37.1765H11.6971C8.7983 37.1765 6.43576 39.1531 6.43576 41.583V49.586C6.43576 52.0159 8.7983 53.9925 11.6971 53.9925H53.6214C56.5203 53.9925 58.8828 52.0159 58.8828 49.586V41.583ZM53.6214 51.8004H11.6971C10.0086 51.8004 8.58089 50.7898 8.58089 49.586V41.583C8.58089 40.3866 10.0086 39.376 11.6971 39.376H53.6214C55.31 39.376 56.7377 40.3866 56.7377 41.583V49.586C56.7377 50.7898 55.31 51.8004 53.6214 51.8004Z" fill="#00C09E"/>
<path d="M6.42869 22.731V30.734C6.42869 33.2085 7.7549 35.1405 9.45071 35.1405H28.9526C30.6484 35.1405 31.9746 33.2085 31.9746 30.734V22.731C31.9746 20.2565 30.6484 18.3245 28.9526 18.3245H9.45071C7.76215 18.3245 6.42869 20.2639 6.42869 22.731ZM28.9526 20.524C29.2207 20.524 29.8295 21.3563 29.8295 22.731V30.734C29.8295 32.1087 29.2207 32.941 28.9526 32.941H9.45071C9.18257 32.941 8.57382 32.1087 8.57382 30.734V22.731C8.57382 21.3563 9.18257 20.524 9.45071 20.524H28.9526Z" fill="white"/>
<path d="M6.42869 22.731V30.734C6.42869 33.2085 7.7549 35.1405 9.45071 35.1405H28.9526C30.6484 35.1405 31.9746 33.2085 31.9746 30.734V22.731C31.9746 20.2565 30.6484 18.3245 28.9526 18.3245H9.45071C7.76215 18.3245 6.42869 20.2639 6.42869 22.731ZM28.9526 20.524C29.2207 20.524 29.8295 21.3563 29.8295 22.731V30.734C29.8295 32.1087 29.2207 32.941 28.9526 32.941H9.45071C9.18257 32.941 8.57382 32.1087 8.57382 30.734V22.731C8.57382 21.3563 9.18257 20.524 9.45071 20.524H28.9526Z" fill="#00C09E"/>
<path d="M2.55118 1.92456C1.46412 1.92456 0.587223 2.91286 0.587223 4.13152L0.587223 50.6932C0.587223 51.9119 1.46412 52.9002 2.55118 52.9002C3.63099 52.9002 4.51514 51.9119 4.51514 50.6932L4.51514 4.13152C4.51514 2.91286 3.63099 1.92456 2.55118 1.92456Z" fill="white"/>
<path d="M2.55118 1.92456C1.46412 1.92456 0.587223 2.91286 0.587223 4.13152L0.587223 50.6932C0.587223 51.9119 1.46412 52.9002 2.55118 52.9002C3.63099 52.9002 4.51514 51.9119 4.51514 50.6932L4.51514 4.13152C4.51514 2.91286 3.63099 1.92456 2.55118 1.92456Z" fill="#00C09E"/>
</g>
<defs>
<clipPath id="clip0">
<rect width="54" height="58.2954" fill="white" transform="translate(58.8828) rotate(90)"/>
</clipPath>
</defs>
</svg>
