<svg width="72" height="73" viewBox="0 0 72 73" fill="none" xmlns="http://www.w3.org/2000/svg">
<path d="M18 18.5H24V24.5H18V18.5Z" fill="white"/>
<path d="M18 18.5H24V24.5H18V18.5Z" fill="black" fill-opacity="0.4"/>
<path d="M9 33.5V9.5H33V33.5H9ZM15 15.5V27.5H27V15.5H15Z" fill="white"/>
<path d="M9 33.5V9.5H33V33.5H9ZM15 15.5V27.5H27V15.5H15Z" fill="black" fill-opacity="0.4"/>
<path d="M39 39.5H48V45.5H39V39.5Z" fill="white"/>
<path d="M39 39.5H48V45.5H39V39.5Z" fill="black" fill-opacity="0.4"/>
<path d="M48 45.5H54V39.5H63V48.5H54V51.5H57V54.5H63V63.5H57V57.5H51V63.5H39V51.5H45V57.5H48V45.5Z" fill="white"/>
<path d="M48 45.5H54V39.5H63V48.5H54V51.5H57V54.5H63V63.5H57V57.5H51V63.5H39V51.5H45V57.5H48V45.5Z" fill="black" fill-opacity="0.4"/>
<path d="M54 18.5H48V24.5H54V18.5Z" fill="white"/>
<path d="M54 18.5H48V24.5H54V18.5Z" fill="black" fill-opacity="0.4"/>
<path d="M39 9.5V33.5H63V9.5H39ZM57 15.5V27.5H45V15.5H57Z" fill="white"/>
<path d="M39 9.5V33.5H63V9.5H39ZM57 15.5V27.5H45V15.5H57Z" fill="black" fill-opacity="0.4"/>
<path d="M18 48.5H24V54.5H18V48.5Z" fill="white"/>
<path d="M18 48.5H24V54.5H18V48.5Z" fill="black" fill-opacity="0.4"/>
<path d="M9 63.5V39.5H33V63.5H9ZM15 45.5V57.5H27V45.5H15Z" fill="white"/>
<path d="M9 63.5V39.5H33V63.5H9ZM15 45.5V57.5H27V45.5H15Z" fill="black" fill-opacity="0.4"/>
</svg>
