<svg width="50" height="58" viewBox="0 0 50 58" fill="none" xmlns="http://www.w3.org/2000/svg">
<path d="M6.83452 12.8622C6.57291 14.3665 3.7886 40.9296 25.2689 50.2355C46.7492 40.9296 43.9649 14.3665 43.7033 12.8622C43.7033 12.8622 31.0711 10.0592 25.2689 7.25623C19.476 10.0592 6.83452 12.8622 6.83452 12.8622Z" stroke="white" stroke-width="3" stroke-miterlimit="10" stroke-linecap="round" stroke-linejoin="round"/>
<path d="M6.83452 12.8622C6.57291 14.3665 3.7886 40.9296 25.2689 50.2355C46.7492 40.9296 43.9649 14.3665 43.7033 12.8622C43.7033 12.8622 31.0711 10.0592 25.2689 7.25623C19.476 10.0592 6.83452 12.8622 6.83452 12.8622Z" stroke="#008FE5" stroke-width="3" stroke-miterlimit="10" stroke-linecap="round" stroke-linejoin="round"/>
<path d="M38.3487 18.468C38.1992 25.2793 36.3118 37.818 25.268 43.994C18.326 40.1165 15.0091 33.7257 13.4581 27.8113" stroke="white" stroke-width="3" stroke-miterlimit="10" stroke-linecap="round" stroke-linejoin="round"/>
<path d="M38.3487 18.468C38.1992 25.2793 36.3118 37.818 25.268 43.994C18.326 40.1165 15.0091 33.7257 13.4581 27.8113" stroke="#008FE5" stroke-width="3" stroke-miterlimit="10" stroke-linecap="round" stroke-linejoin="round"/>
<path d="M12.4416 22.2053C12.236 20.3647 12.18 18.7016 12.1893 17.3468C15.8519 16.4311 21.1682 14.9736 25.2699 13.3572C27.83 14.3663 30.8666 15.3099 33.6789 16.1041" stroke="white" stroke-width="3" stroke-miterlimit="10" stroke-linecap="round" stroke-linejoin="round"/>
<path d="M12.4416 22.2053C12.236 20.3647 12.18 18.7016 12.1893 17.3468C15.8519 16.4311 21.1682 14.9736 25.2699 13.3572C27.83 14.3663 30.8666 15.3099 33.6789 16.1041" stroke="#008FE5" stroke-width="3" stroke-miterlimit="10" stroke-linecap="round" stroke-linejoin="round"/>
<path d="M21.0636 27.8113L23.8666 30.6143L29.4726 25.0083" stroke="white" stroke-width="3" stroke-miterlimit="10" stroke-linecap="round" stroke-linejoin="round"/>
<path d="M21.0636 27.8113L23.8666 30.6143L29.4726 25.0083" stroke="#008FE5" stroke-width="3" stroke-miterlimit="10" stroke-linecap="round" stroke-linejoin="round"/>
</svg>
