<svg width="56" height="56" viewBox="0 0 56 56" fill="none" xmlns="http://www.w3.org/2000/svg">
<g clip-path="url(#clip0)">
<path d="M28.0003 25.0671C26.6107 25.0671 25.4795 23.9359 25.4795 22.5463C25.4795 21.1566 26.6107 20.0254 28.0003 20.0254C29.3899 20.0254 30.5211 21.1566 30.5211 22.5463C30.5211 23.9372 29.3899 25.0671 28.0003 25.0671ZM28.0003 20.9953C27.1448 20.9953 26.4494 21.6908 26.4494 22.5463C26.4494 23.4017 27.1448 24.0972 28.0003 24.0972C28.8557 24.0972 29.5512 23.4017 29.5512 22.5463C29.5512 21.692 28.8557 20.9953 28.0003 20.9953Z" fill="#FFCB4A"/>
<path d="M28.0004 22.3088L11.2002 39.1094L28.0004 55.91L44.8006 39.1094L28.0004 22.3088Z" fill="#FFCB4A"/>
<path d="M43.8807 38.1855L27.6236 54.4431L11.743 38.5622L11.2002 39.105L28.0002 55.9054L44.8002 39.105L43.8807 38.1855Z" fill="#F2AF41"/>
<path d="M27.9994 25.8899L14.7842 39.1055L27.9994 52.3211L41.2147 39.1055L27.9994 25.8899Z" fill="#FFE878"/>
<path d="M14.7842 39.1067L27.9999 52.3228C28.2596 52.2292 41.2156 39.1067 41.2156 39.1067L27.9999 25.8906L40.0402 39.1067L27.9999 51.0513L14.7842 39.1067Z" fill="#F2AF41"/>
<g opacity="0.47">
<path opacity="0.47" d="M27.5465 27.8993C23.9992 31.2892 20.4519 34.6803 16.9045 38.0702C16.7543 38.2142 16.5968 38.368 16.5377 38.5674C16.3802 39.0979 16.9685 39.5448 17.4966 39.7085C17.6664 39.7614 17.8449 39.8033 18.0197 39.7725C18.3865 39.7072 18.6179 39.3527 18.8111 39.0339C20.6303 36.0453 23.0785 33.4986 25.5058 30.979C26.088 30.3746 26.6935 29.7543 27.4677 29.4293C27.8136 29.2841 28.2013 29.1942 28.4684 28.9308C29.1294 28.2809 28.3244 27.1558 27.5465 27.8993Z" fill="white"/>
</g>
<g opacity="0.47">
<path opacity="0.47" d="M23.8771 27.1956C21.8536 29.2622 19.8042 31.3129 17.7807 33.3808L17.409 33.8153C16.9572 34.1476 16.6483 34.672 16.5781 35.2284C17.2871 35.1939 17.8336 34.6166 18.3063 34.0861C20.3138 31.8336 22.453 29.6967 24.708 27.6916C25.0169 27.4171 26.2687 26.4533 25.6102 26.0238C25.0723 25.6705 24.2033 26.862 23.8771 27.1956Z" fill="white"/>
</g>
<path d="M27.9098 22.0721C27.2132 22.0721 26.6494 21.5071 26.6494 20.8116V16.5749C26.6494 15.8782 27.2144 15.3145 27.9098 15.3145C28.6065 15.3145 29.1702 15.8794 29.1702 16.5749V20.8116C29.1702 21.5083 28.6053 22.0721 27.9098 22.0721Z" fill="#F2AF41"/>
<path d="M43.2147 14.082H12.6426V16.5487H43.2147V14.082Z" fill="#FFCB4A"/>
<path d="M43.2147 0.1875H12.6426V2.65421H43.2147V0.1875Z" fill="#FFCB4A"/>
<path d="M41.8054 2.54883H14.0508V14.0835H41.8054V2.54883Z" fill="white"/>
<path d="M41.8054 2.54883H14.0508V14.0835H41.8054V2.54883Z" fill="url(#paint0_linear)"/>
<path d="M14.0508 2.54883V3.74895C14.0508 3.74895 25.483 3.13596 32.6921 5.55097C39.9013 7.96598 41.8054 12.1104 41.8054 12.1104V2.54883H14.0508Z" fill="white"/>
<path d="M14.0508 2.54883V3.74895C14.0508 3.74895 25.483 3.13596 32.6921 5.55097C39.9013 7.96598 41.8054 12.1104 41.8054 12.1104V2.54883H14.0508Z" fill="#FB6B60"/>
<path d="M43.2147 15.6094H12.6426V16.5522H43.2147V15.6094Z" fill="#F2AF41"/>
<path d="M43.2147 1.70898H12.6426V2.65185H43.2147V1.70898Z" fill="#F2AF41"/>
</g>
<defs>
<linearGradient id="paint0_linear" x1="14.0508" y1="2.54883" x2="22.2262" y2="22.2205" gradientUnits="userSpaceOnUse">
<stop stop-color="#008FE5"/>
<stop offset="1" stop-color="#00C09E"/>
</linearGradient>
<clipPath id="clip0">
<rect width="33.6" height="55.72" fill="white" transform="translate(11.2002 0.1875)"/>
</clipPath>
</defs>
</svg>
