<svg width="32" height="32" viewBox="0 0 32 32" fill="none" xmlns="http://www.w3.org/2000/svg">
<g clip-path="url(#clip0)">
<path d="M16.7391 20.5636V1.39844H12.7283C12.7283 1.39844 12.5593 4.90521 9.29078 6.60655C6.02225 8.30789 4.67368 8.482 4.67368 8.482C4.67368 8.482 3.72932 16.5023 5.95427 20.3895C8.17739 24.2786 16.7391 20.5636 16.7391 20.5636Z" fill="white"/>
<path d="M16.7391 20.5636V1.39844H12.7283C12.7283 1.39844 12.5593 4.90521 9.29078 6.60655C6.02225 8.30789 4.67368 8.482 4.67368 8.482C4.67368 8.482 3.72932 16.5023 5.95427 20.3895C8.17739 24.2786 16.7391 20.5636 16.7391 20.5636Z" fill="#008FE5" fill-opacity="0.8"/>
<path d="M16.7396 11.5403V1.39844H12.7288C12.7288 1.39844 12.5597 4.90521 9.29121 6.60655C6.02267 8.30789 4.67411 8.482 4.67411 8.482C4.67411 8.482 4.15415 12.9009 4.7972 16.7692L16.7396 11.5403Z" fill="white"/>
<path d="M16.7396 11.5403V1.39844H12.7288C12.7288 1.39844 12.5597 4.90521 9.29121 6.60655C6.02267 8.30789 4.67411 8.482 4.67411 8.482C4.67411 8.482 4.15415 12.9009 4.7972 16.7692L16.7396 11.5403Z" fill="#008FE5"/>
<path d="M16.0007 31.5816C17.8472 31.468 20.9301 29.4393 22.5029 28.0938H9.45996C11.0327 29.4393 14.1524 31.4699 16.0007 31.5816Z" fill="#00D0CE"/>
<path d="M28.3196 7.06086C27.9614 7.11952 27.5957 7.15926 27.2209 7.15926C23.381 7.15926 20.2686 3.95529 20.2686 0H11.7289C11.7289 3.95529 8.61658 7.15926 4.77849 7.15926C4.40368 7.15926 4.0399 7.12141 3.67979 7.06086C3.44829 8.51807 3.3252 10.2629 3.3252 12.3598C3.3252 14.2315 3.95538 17.4733 4.60762 19.6175H6.71499C6.02601 17.5301 5.34621 14.2901 5.34621 12.3617C5.34621 11.2205 5.38479 10.1683 5.46196 9.2145C9.45805 8.90224 12.7321 5.88184 13.5515 1.93601C14.2534 1.93223 15.093 1.93223 16.0006 1.93223V19.5815H27.66C28.3123 17.4373 28.6742 14.2353 28.6742 12.3636C28.6742 10.2629 28.5511 8.51807 28.3196 7.06086Z" fill="#00D0CE"/>
<path d="M32 22.9912H29.0512L29.2184 26.7232L29.1779 19.5469H2.82575V26.7232L2.94884 22.9912H0L1.52678 27.5899L0 31.9994H7.91686V28.6251L2.82575 28.2182H29.1761L24.0831 28.6251V31.9994H32L30.4751 27.5899L32 22.9912Z" fill="white"/>
<path d="M32 22.9912H29.0512L29.2184 26.7232L29.1779 19.5469H2.82575V26.7232L2.94884 22.9912H0L1.52678 27.5899L0 31.9994H7.91686V28.6251L2.82575 28.2182H29.1761L24.0831 28.6251V31.9994H32L30.4751 27.5899L32 22.9912Z" fill="#FA7C49"/>
<path d="M2.82617 28.2188H7.90994V31.9999L2.82617 28.2188Z" fill="white"/>
<path d="M2.82617 28.2188H7.90994V31.9999L2.82617 28.2188Z" fill="#FA7C49" fill-opacity="0.4"/>
<path d="M28.9738 28.2031H24.0205V32.0013L28.9738 28.2031Z" fill="white"/>
<path d="M28.9738 28.2031H24.0205V32.0013L28.9738 28.2031Z" fill="#FA7C49" fill-opacity="0.4"/>
</g>
<defs>
<clipPath id="clip0">
<rect width="32" height="32" fill="white"/>
</clipPath>
</defs>
</svg>
