<svg width="56" height="56" viewBox="0 0 56 56" fill="none" xmlns="http://www.w3.org/2000/svg">
<g clip-path="url(#clip0)">
<path d="M3.91992 51.7478C9.33258 52.4689 14.6787 53.693 19.8669 55.3992C19.5994 52.3135 20.7516 49.3009 21.8829 46.4177C23.8925 41.2979 25.9607 36.0776 29.4995 31.8683C30.533 30.639 31.7361 29.3979 31.9566 27.8068C32.2111 25.9739 31.0393 24.2037 29.57 23.0815C27.4117 21.4315 24.5071 20.8894 21.8725 21.4642C19.1127 22.0651 18.2501 23.9019 16.5342 25.9177C12.5361 30.6155 9.30126 35.9613 6.97726 41.6768C5.65411 44.9297 4.62586 48.3054 3.91992 51.7478Z" fill="#E41D1A"/>
<path d="M29.6258 23.0909C29.2761 22.8231 28.9042 22.5879 28.5193 22.3789C28.3927 22.392 28.2648 22.4076 28.1383 22.4351C26.6311 22.7486 25.535 24.0145 24.5759 25.2203C22.0392 28.4079 19.6369 31.7053 17.4552 35.1463C14.0012 40.594 11.0808 46.431 9.21484 52.6194C10.8564 52.9394 12.4888 53.3052 14.1095 53.7181C15.2317 44.4178 19.3199 35.4899 25.6551 28.5908C27.1818 26.9291 28.856 25.3679 30.7533 24.1621C30.4166 23.7637 30.033 23.4018 29.6258 23.0909Z" fill="#FF4936"/>
<path d="M51.9866 51.2967C46.6326 52.3745 41.3805 53.9513 36.3162 55.9984C36.3789 52.9009 35.0296 49.972 33.7104 47.1698C31.3655 42.1937 28.9567 37.1223 25.1477 33.1573C24.036 31.9999 22.752 30.8411 22.4271 29.2669C22.0526 27.4536 23.103 25.6116 24.4953 24.3927C26.5388 22.6029 29.4017 21.87 32.0688 22.2672C34.8626 22.6839 35.8452 24.4593 37.6903 26.3562C41.9912 30.7784 45.5718 35.8982 48.269 41.4464C49.8048 44.6079 51.0549 47.9079 51.9866 51.2967Z" fill="#E41D1A"/>
<path d="M24.4401 24.4088C24.7715 24.1188 25.1265 23.8588 25.497 23.625C25.6249 23.6289 25.7528 23.6368 25.8807 23.655C27.4048 23.868 28.5831 25.0581 29.6192 26.1973C32.3607 29.2085 34.977 32.34 37.3819 35.6295C41.1896 40.8368 44.4896 46.4674 46.7614 52.5173C45.1447 52.9458 43.5396 53.4187 41.9503 53.9386C40.2148 44.7325 35.5446 36.0959 28.7671 29.6331C27.1334 28.0759 25.36 26.6297 23.3857 25.5519C23.695 25.1326 24.0538 24.7459 24.4401 24.4088Z" fill="#FF4936"/>
<path d="M38.1348 38.1249C35.9844 36.9517 33.3276 38.3051 33.0118 40.7364C32.563 44.1852 27.8993 44.9234 26.4091 41.7815C25.3587 39.5671 22.4149 39.0994 20.7316 40.8788C18.3423 43.4053 14.1367 41.2576 14.7761 37.8388C15.2263 35.4285 13.1189 33.3173 10.7127 33.768C7.29651 34.4056 5.1552 30.1937 7.68015 27.8043C9.46001 26.1204 8.99417 23.1719 6.78239 22.1189C3.64415 20.6244 4.38401 15.9566 7.83021 15.5085C10.2586 15.1924 11.6131 12.5339 10.4413 10.3809C8.77886 7.32526 12.1181 3.98481 15.1689 5.65046C17.3193 6.82361 19.9748 5.47018 20.2918 3.03897C20.7407 -0.409912 25.4044 -1.14803 26.8946 1.99386C27.945 4.2082 30.8888 4.67589 32.5721 2.89658C34.9613 0.370006 39.167 2.51772 38.5276 5.93656C38.0774 8.34686 40.1848 10.458 42.591 10.0073C46.0072 9.36977 48.1485 13.5816 45.6235 15.971C43.8437 17.6549 44.3095 20.6035 46.5213 21.6564C49.6595 23.1509 48.9197 27.8187 45.4735 28.2668C43.0451 28.5829 41.6906 31.2415 42.8624 33.3944C44.5248 36.4488 41.1856 39.7905 38.1348 38.1249Z" fill="#C99B29"/>
<path d="M38.5277 5.93465C38.7626 4.68181 38.345 3.60011 37.6064 2.85547C37.7578 3.35974 37.797 3.9228 37.6834 4.52504C37.4603 5.71909 37.8648 6.83867 38.623 7.61075C38.4611 7.09211 38.4181 6.52252 38.5277 5.93465Z" fill="#B4750E"/>
<path d="M44.781 14.562C43.3078 15.9559 43.3743 18.216 44.6962 19.5498C44.3204 18.3414 44.597 16.9448 45.6253 15.9703C47.2068 14.4731 46.9575 12.2627 45.7114 10.9746C46.0924 12.1517 45.8745 13.5273 44.781 14.562Z" fill="#B4750E"/>
<path d="M6.78162 22.1196C7.16265 22.3012 7.49017 22.5389 7.7642 22.8172C7.49017 21.9367 6.86905 21.1554 5.93736 20.7113C5.5459 20.5245 5.21446 20.288 4.94043 20.0176C5.2001 20.8772 5.80165 21.6532 6.78162 22.1196Z" fill="#B4750E"/>
<path d="M9.86769 32.358C8.59152 32.5971 7.49281 32.1568 6.74902 31.3887C7.24749 32.9302 8.77551 34.1282 10.712 33.7663C11.9268 33.539 13.0647 33.9649 13.8371 34.7526C13.3348 33.1432 11.688 32.0184 9.86769 32.358Z" fill="#B4750E"/>
<path d="M47.5199 22.3496C48.0915 24.2452 47.0019 26.5484 44.6309 26.8567C42.2025 27.1728 40.8481 29.8313 42.0199 31.9843C43.681 35.04 40.3418 38.3804 37.291 36.7148C35.1405 35.5416 32.4838 36.895 32.168 39.3262C31.7191 42.7751 27.0555 43.5133 25.5653 40.3714C24.5149 38.157 21.5711 37.6893 19.8878 39.4686C18.3741 41.069 16.1323 40.7933 14.8535 39.5065C15.5634 41.8672 18.7629 42.958 20.732 40.8769C22.4153 39.0963 25.3604 39.564 26.4096 41.7797C27.8997 44.9215 32.5634 44.1847 33.0123 40.7345C33.3293 38.3033 35.9861 36.9499 38.1352 38.1231C41.186 39.7887 44.5252 36.4469 42.8641 33.3926C41.6936 31.2396 43.0468 28.5811 45.4752 28.265C48.4908 27.8744 49.4342 24.2504 47.5199 22.3496Z" fill="#B4750E"/>
<path d="M26.6523 37.5245C35.278 37.5245 42.2705 30.5239 42.2705 21.8882C42.2705 13.2525 35.278 6.25195 26.6523 6.25195C18.0267 6.25195 11.0342 13.2525 11.0342 21.8882C11.0342 30.5239 18.0267 37.5245 26.6523 37.5245Z" fill="#B4750E"/>
<path d="M26.6526 35.0505C33.9133 35.0505 39.7992 29.1576 39.7992 21.8885C39.7992 14.6194 33.9133 8.72656 26.6526 8.72656C19.3918 8.72656 13.5059 14.6194 13.5059 21.8885C13.5059 29.1576 19.3918 35.0505 26.6526 35.0505Z" fill="#906600"/>
<path d="M26.6524 35.2897C19.2707 35.2897 13.2656 29.2776 13.2656 21.8873C13.2656 14.4971 19.2707 8.48633 26.6524 8.48633C34.0341 8.48633 40.0392 14.4984 40.0392 21.8886C40.0392 29.2789 34.0328 35.2897 26.6524 35.2897ZM26.6524 8.96708C19.5356 8.96708 13.7458 14.7636 13.7458 21.8886C13.7458 29.0137 19.5356 34.8102 26.6524 34.8102C33.7693 34.8102 39.559 29.0137 39.559 21.8886C39.559 14.7636 33.7693 8.96708 26.6524 8.96708Z" fill="#8A4800"/>
<path d="M33.3736 28.0794C34.0078 27.4955 34.5911 26.8488 35.053 26.1198C35.4771 25.4496 35.7955 24.7181 36.0786 23.9773C36.6593 22.4606 37.1069 20.872 37.1382 19.2495C37.1695 17.6256 36.7572 15.9574 35.7615 14.6758C37.2491 16.7869 38.0151 19.3984 37.9028 21.9799C37.7919 24.5613 36.8028 27.097 35.1391 29.071C34.5728 29.7425 33.9282 30.3539 33.1818 30.8163C32.0596 31.5139 25.8614 34.0183 20.6719 31.5571C21.353 31.429 22.2821 31.8196 23.0102 31.8458C24.2486 31.8889 25.4999 31.7609 26.7096 31.4943C29.1732 30.9509 31.5115 29.7921 33.3736 28.0794Z" fill="#B4750E"/>
<g opacity="0.39">
<path opacity="0.39" d="M15.0074 19.9116C14.8273 20.6249 14.6981 21.3721 14.8365 22.0959C14.9748 22.8196 15.425 23.5185 16.1126 23.7798C16.4715 23.9157 16.8982 23.917 17.2166 23.7027C17.4423 23.5512 17.5911 23.3082 17.7085 23.0639C18.2187 22.0005 18.2644 20.7829 18.4927 19.6242C19.0408 16.8455 20.7293 14.3084 23.0807 12.7316C23.7188 12.3031 25.2925 10.6962 23.5244 10.8413C22.7258 10.9066 21.815 11.3089 21.1469 11.7427C19.3122 12.9328 17.6328 14.4077 16.5015 16.2968C15.8282 17.4177 15.3271 18.6431 15.0074 19.9116Z" fill="white"/>
</g>
</g>
<defs>
<clipPath id="clip0">
<rect width="48.0667" height="56" fill="white" transform="translate(3.91992)"/>
</clipPath>
</defs>
</svg>
