<svg width="74" height="46" viewBox="0 0 74 46" fill="none" xmlns="http://www.w3.org/2000/svg">
<g clip-path="url(#clip0_9678_77400)">
<path d="M23.9798 16.3999L18.7598 24.9899" stroke="white" stroke-width="1.8" stroke-miterlimit="10" stroke-linecap="round" stroke-linejoin="round"/>
<path d="M23.9798 16.3999L18.7598 24.9899" stroke="#008FE5" stroke-width="1.8" stroke-miterlimit="10" stroke-linecap="round" stroke-linejoin="round"/>
<path d="M10.5201 34.11L4.69007 39.05C3.36007 39.87 2.96007 41.62 3.78007 42.94C4.40007 43.94 5.53007 44.41 6.62007 44.24C6.98007 44.18 7.34007 44.05 7.67007 43.85L15.3101 37.57C16.0301 37.19 21.7901 30.98 21.7901 30.98L26.3001 34.77L22.0701 39.96C21.0901 41.18 21.2801 42.96 22.5001 43.94C22.5801 44 22.6601 44.06 22.7401 44.11C23.9001 44.86 25.4501 44.66 26.3801 43.63L27.2501 42.7" stroke="white" stroke-width="1.8" stroke-miterlimit="10" stroke-linecap="round" stroke-linejoin="round"/>
<path d="M10.5201 34.11L4.69007 39.05C3.36007 39.87 2.96007 41.62 3.78007 42.94C4.40007 43.94 5.53007 44.41 6.62007 44.24C6.98007 44.18 7.34007 44.05 7.67007 43.85L15.3101 37.57C16.0301 37.19 21.7901 30.98 21.7901 30.98L26.3001 34.77L22.0701 39.96C21.0901 41.18 21.2801 42.96 22.5001 43.94C22.5801 44 22.6601 44.06 22.7401 44.11C23.9001 44.86 25.4501 44.66 26.3801 43.63L27.2501 42.7" stroke="#008FE5" stroke-width="1.8" stroke-miterlimit="10" stroke-linecap="round" stroke-linejoin="round"/>
<path d="M18.7598 24.99L16.3198 28.19" stroke="white" stroke-width="1.8" stroke-miterlimit="10" stroke-linecap="round" stroke-linejoin="round"/>
<path d="M18.7598 24.99L16.3198 28.19" stroke="#008FE5" stroke-width="1.8" stroke-miterlimit="10" stroke-linecap="round" stroke-linejoin="round"/>
<path d="M24.1298 16.2099L18.6998 16.8899L15.1498 21.2699C14.4898 22.1199 13.3598 22.3999 12.4098 22.0199C12.2098 21.9399 12.0098 21.8299 11.8298 21.6899C10.7998 20.8899 10.6098 19.3999 11.4098 18.3699L15.6698 13.0699C16.1198 12.4899 16.8098 12.1499 17.5398 12.1599L25.1498 11.4699C25.7498 11.3799 26.3598 11.5299 26.8598 11.8799L29.0598 13.5699" stroke="white" stroke-width="1.8" stroke-miterlimit="10" stroke-linecap="round" stroke-linejoin="round"/>
<path d="M24.1298 16.2099L18.6998 16.8899L15.1498 21.2699C14.4898 22.1199 13.3598 22.3999 12.4098 22.0199C12.2098 21.9399 12.0098 21.8299 11.8298 21.6899C10.7998 20.8899 10.6098 19.3999 11.4098 18.3699L15.6698 13.0699C16.1198 12.4899 16.8098 12.1499 17.5398 12.1599L25.1498 11.4699C25.7498 11.3799 26.3598 11.5299 26.8598 11.8799L29.0598 13.5699" stroke="#008FE5" stroke-width="1.8" stroke-miterlimit="10" stroke-linecap="round" stroke-linejoin="round"/>
<path d="M14.5098 21.8398L13.0298 26.3098" stroke="white" stroke-width="1.8" stroke-miterlimit="10" stroke-linecap="round" stroke-linejoin="round"/>
<path d="M14.5098 21.8398L13.0298 26.3098" stroke="#008FE5" stroke-width="1.8" stroke-miterlimit="10" stroke-linecap="round" stroke-linejoin="round"/>
<path d="M7.58008 23.27L10.9001 20" stroke="white" stroke-width="1.8" stroke-miterlimit="10" stroke-linecap="round" stroke-linejoin="round"/>
<path d="M7.58008 23.27L10.9001 20" stroke="#008FE5" stroke-width="1.8" stroke-miterlimit="10" stroke-linecap="round" stroke-linejoin="round"/>
<path d="M11.6099 34.6499L1.40989 28.9599C0.92989 28.6899 0.75989 28.0799 1.01989 27.5999L4.00989 22.4199C4.27989 21.9399 4.88989 21.7699 5.36989 22.0299L15.5699 27.7199C16.0499 27.9899 16.2199 28.5999 15.9599 29.0799L12.9699 34.2599C12.7099 34.7399 12.0999 34.9199 11.6099 34.6499Z" stroke="white" stroke-width="1.8" stroke-miterlimit="10" stroke-linecap="round" stroke-linejoin="round"/>
<path d="M11.6099 34.6499L1.40989 28.9599C0.92989 28.6899 0.75989 28.0799 1.01989 27.5999L4.00989 22.4199C4.27989 21.9399 4.88989 21.7699 5.36989 22.0299L15.5699 27.7199C16.0499 27.9899 16.2199 28.5999 15.9599 29.0799L12.9699 34.2599C12.7099 34.7399 12.0999 34.9199 11.6099 34.6499Z" stroke="#008FE5" stroke-width="1.8" stroke-miterlimit="10" stroke-linecap="round" stroke-linejoin="round"/>
<path d="M52.8101 24.5899L58.5101 16.1299" stroke="white" stroke-width="1.8" stroke-miterlimit="10" stroke-linecap="round" stroke-linejoin="round"/>
<path d="M52.8101 24.5899L58.5101 16.1299" stroke="#008FE5" stroke-width="1.8" stroke-miterlimit="10" stroke-linecap="round" stroke-linejoin="round"/>
<path d="M50.13 12.8398L44.25 22.4998" stroke="white" stroke-width="1.8" stroke-miterlimit="10" stroke-linecap="round" stroke-linejoin="round"/>
<path d="M50.13 12.8398L44.25 22.4998" stroke="#008FE5" stroke-width="1.8" stroke-miterlimit="10" stroke-linecap="round" stroke-linejoin="round"/>
<path d="M34.9698 32.7799L28.3998 38.3399C26.8998 39.3799 26.4498 41.2299 27.3698 42.7199C28.0698 43.8399 29.3498 44.3799 30.5698 44.1899C30.9798 44.1299 31.3798 43.9799 31.7498 43.7499L40.3498 36.6899C41.1598 36.2599 47.6398 29.2699 47.6398 29.2699L53.0898 33.8499L48.4098 39.7599C47.4198 41.2099 47.7898 43.1899 49.2398 44.1899C49.3298 44.2499 49.4298 44.3099 49.5198 44.3599C50.9398 45.1299 52.7298 44.7099 53.6598 43.3599L59.9498 34.2799C60.3698 33.2899 60.2698 32.1499 59.6698 31.2499L52.7898 24.6099" stroke="white" stroke-width="1.8" stroke-miterlimit="10" stroke-linecap="round" stroke-linejoin="round"/>
<path d="M34.9698 32.7799L28.3998 38.3399C26.8998 39.3799 26.4498 41.2299 27.3698 42.7199C28.0698 43.8399 29.3498 44.3799 30.5698 44.1899C30.9798 44.1299 31.3798 43.9799 31.7498 43.7499L40.3498 36.6899C41.1598 36.2599 47.6398 29.2699 47.6398 29.2699L53.0898 33.8499L48.4098 39.7599C47.4198 41.2099 47.7898 43.1899 49.2398 44.1899C49.3298 44.2499 49.4298 44.3099 49.5198 44.3599C50.9398 45.1299 52.7298 44.7099 53.6598 43.3599L59.9498 34.2799C60.3698 33.2899 60.2698 32.1499 59.6698 31.2499L52.7898 24.6099" stroke="#008FE5" stroke-width="1.8" stroke-miterlimit="10" stroke-linecap="round" stroke-linejoin="round"/>
<path d="M44.2498 22.5L41.3198 26.17" stroke="white" stroke-width="1.8" stroke-miterlimit="10" stroke-linecap="round" stroke-linejoin="round"/>
<path d="M44.2498 22.5L41.3198 26.17" stroke="#008FE5" stroke-width="1.8" stroke-miterlimit="10" stroke-linecap="round" stroke-linejoin="round"/>
<path d="M50.2897 12.6198L44.1797 13.3798L39.7597 18.8398C39.0197 19.7998 37.7497 20.1098 36.6697 19.6798C36.4397 19.5898 36.2197 19.4698 36.0197 19.3098C34.8597 18.4098 34.6497 16.7298 35.5497 15.5698L40.7697 9.07981C41.2797 8.42981 42.0497 8.04981 42.8797 8.04981L51.4497 7.27981C52.1297 7.17981 52.8097 7.34981 53.3697 7.73981L54.8997 8.81981" stroke="white" stroke-width="1.8" stroke-miterlimit="10" stroke-linecap="round" stroke-linejoin="round"/>
<path d="M50.2897 12.6198L44.1797 13.3798L39.7597 18.8398C39.0197 19.7998 37.7497 20.1098 36.6697 19.6798C36.4397 19.5898 36.2197 19.4698 36.0197 19.3098C34.8597 18.4098 34.6497 16.7298 35.5497 15.5698L40.7697 9.07981C41.2797 8.42981 42.0497 8.04981 42.8797 8.04981L51.4497 7.27981C52.1297 7.17981 52.8097 7.34981 53.3697 7.73981L54.8997 8.81981" stroke="#008FE5" stroke-width="1.8" stroke-miterlimit="10" stroke-linecap="round" stroke-linejoin="round"/>
<path d="M58.48 11.21L60.95 12.91C61.33 13.24 64.16 14.69 64.16 14.69L67.96 10C68.93 8.89 70.61 8.76999 71.72 9.73999C72.83 10.71 72.95 12.39 71.98 13.5L66.36 20.1C65.99 20.52 65.51 20.81 64.98 20.94C64.79 20.99 64.6 21.01 64.41 21.01C63.19 21.01 57.52 17.61 57.52 17.61" stroke="white" stroke-width="1.8" stroke-miterlimit="10" stroke-linecap="round" stroke-linejoin="round"/>
<path d="M58.48 11.21L60.95 12.91C61.33 13.24 64.16 14.69 64.16 14.69L67.96 10C68.93 8.89 70.61 8.76999 71.72 9.73999C72.83 10.71 72.95 12.39 71.98 13.5L66.36 20.1C65.99 20.52 65.51 20.81 64.98 20.94C64.79 20.99 64.6 21.01 64.41 21.01C63.19 21.01 57.52 17.61 57.52 17.61" stroke="#008FE5" stroke-width="1.8" stroke-miterlimit="10" stroke-linecap="round" stroke-linejoin="round"/>
<path d="M39.0401 19.49L37.8101 24.15" stroke="white" stroke-width="1.8" stroke-miterlimit="10" stroke-linecap="round" stroke-linejoin="round"/>
<path d="M39.0401 19.49L37.8101 24.15" stroke="#008FE5" stroke-width="1.8" stroke-miterlimit="10" stroke-linecap="round" stroke-linejoin="round"/>
<path d="M31.6699 20.7299L34.9699 17.4199" stroke="white" stroke-width="1.8" stroke-miterlimit="10" stroke-linecap="round" stroke-linejoin="round"/>
<path d="M31.6699 20.7299L34.9699 17.4199" stroke="#008FE5" stroke-width="1.8" stroke-miterlimit="10" stroke-linecap="round" stroke-linejoin="round"/>
<path d="M36.2101 33.38L24.7201 26.98C24.1801 26.68 23.9801 25.99 24.2901 25.45L27.4701 19.67C27.7701 19.13 28.4601 18.93 29.0001 19.24L40.4901 25.64C41.0301 25.94 41.2301 26.63 40.9201 27.17L37.7401 32.95C37.4401 33.49 36.7501 33.68 36.2101 33.38Z" stroke="white" stroke-width="1.8" stroke-miterlimit="10" stroke-linecap="round" stroke-linejoin="round"/>
<path d="M36.2101 33.38L24.7201 26.98C24.1801 26.68 23.9801 25.99 24.2901 25.45L27.4701 19.67C27.7701 19.13 28.4601 18.93 29.0001 19.24L40.4901 25.64C41.0301 25.94 41.2301 26.63 40.9201 27.17L37.7401 32.95C37.4401 33.49 36.7501 33.68 36.2101 33.38Z" stroke="#008FE5" stroke-width="1.8" stroke-miterlimit="10" stroke-linecap="round" stroke-linejoin="round"/>
<path d="M59.5501 11.2999C56.6801 11.2999 54.3501 8.9699 54.3501 6.0999C54.3501 3.2299 56.6801 0.899902 59.5501 0.899902C62.4201 0.899902 64.7501 3.2299 64.7501 6.0999C64.7501 8.9699 62.4201 11.2999 59.5501 11.2999Z" stroke="white" stroke-width="1.8" stroke-miterlimit="10" stroke-linecap="round" stroke-linejoin="round"/>
<path d="M59.5501 11.2999C56.6801 11.2999 54.3501 8.9699 54.3501 6.0999C54.3501 3.2299 56.6801 0.899902 59.5501 0.899902C62.4201 0.899902 64.7501 3.2299 64.7501 6.0999C64.7501 8.9699 62.4201 11.2999 59.5501 11.2999Z" stroke="#008FE5" stroke-width="1.8" stroke-miterlimit="10" stroke-linecap="round" stroke-linejoin="round"/>
<path d="M32.5401 15.1298C29.9701 15.1298 27.8701 13.0398 27.8701 10.4598C27.8701 7.8898 29.9601 5.78979 32.5401 5.78979C35.1101 5.78979 37.2101 7.8798 37.2101 10.4598C37.2101 13.0398 35.1201 15.1298 32.5401 15.1298Z" stroke="white" stroke-width="1.8" stroke-miterlimit="10" stroke-linecap="round" stroke-linejoin="round"/>
<path d="M32.5401 15.1298C29.9701 15.1298 27.8701 13.0398 27.8701 10.4598C27.8701 7.8898 29.9601 5.78979 32.5401 5.78979C35.1101 5.78979 37.2101 7.8798 37.2101 10.4598C37.2101 13.0398 35.1201 15.1298 32.5401 15.1298Z" stroke="#008FE5" stroke-width="1.8" stroke-miterlimit="10" stroke-linecap="round" stroke-linejoin="round"/>
</g>
<defs>
<clipPath id="clip0_9678_77400">
<rect width="73.53" height="45.63" fill="white"/>
</clipPath>
</defs>
</svg>
