<svg width="25" height="24" viewBox="0 0 25 24" fill="none" xmlns="http://www.w3.org/2000/svg">
<path d="M12.5001 22C10.9882 22.0043 9.49532 21.6622 8.1361 21C7.63865 20.758 7.16203 20.4754 6.7111 20.155L6.5741 20.055C5.33392 19.1396 4.31997 17.9522 3.6101 16.584C2.87584 15.1679 2.49501 13.5952 2.50005 12C2.50005 6.47715 6.97725 2 12.5001 2C18.0229 2 22.5001 6.47715 22.5001 12C22.5051 13.5944 22.1247 15.1664 21.3911 16.582C20.6822 17.9494 19.6697 19.1364 18.4311 20.052C17.9639 20.394 17.468 20.6951 16.9491 20.952L16.8691 20.992C15.509 21.6577 14.0144 22.0026 12.5001 22ZM12.5001 17C11.0016 16.9971 9.62776 17.834 8.9431 19.167C11.1845 20.2772 13.8157 20.2772 16.0571 19.167V19.162C15.3716 17.8305 13.9977 16.9954 12.5001 17ZM12.5001 15C14.6662 15.0028 16.6635 16.1701 17.7291 18.056L17.7441 18.043L17.7581 18.031L17.7411 18.046L17.7311 18.054C20.2601 15.8691 21.1644 12.3423 19.9987 9.21011C18.8331 6.07788 15.8432 4.00032 12.5011 4.00032C9.15901 4.00032 6.16909 6.07788 5.00345 9.21011C3.83781 12.3423 4.7421 15.8691 7.2711 18.054C8.33736 16.169 10.3345 15.0026 12.5001 15ZM12.5001 14C10.291 14 8.5001 12.2091 8.5001 10C8.5001 7.79086 10.291 6 12.5001 6C14.7092 6 16.5001 7.79086 16.5001 10C16.5001 11.0609 16.0787 12.0783 15.3285 12.8284C14.5784 13.5786 13.561 14 12.5001 14ZM12.5001 8C11.3955 8 10.5001 8.89543 10.5001 10C10.5001 11.1046 11.3955 12 12.5001 12C13.6047 12 14.5001 11.1046 14.5001 10C14.5001 8.89543 13.6047 8 12.5001 8Z" fill="white"/>
<path d="M12.5001 22C10.9882 22.0043 9.49532 21.6622 8.1361 21C7.63865 20.758 7.16203 20.4754 6.7111 20.155L6.5741 20.055C5.33392 19.1396 4.31997 17.9522 3.6101 16.584C2.87584 15.1679 2.49501 13.5952 2.50005 12C2.50005 6.47715 6.97725 2 12.5001 2C18.0229 2 22.5001 6.47715 22.5001 12C22.5051 13.5944 22.1247 15.1664 21.3911 16.582C20.6822 17.9494 19.6697 19.1364 18.4311 20.052C17.9639 20.394 17.468 20.6951 16.9491 20.952L16.8691 20.992C15.509 21.6577 14.0144 22.0026 12.5001 22ZM12.5001 17C11.0016 16.9971 9.62776 17.834 8.9431 19.167C11.1845 20.2772 13.8157 20.2772 16.0571 19.167V19.162C15.3716 17.8305 13.9977 16.9954 12.5001 17ZM12.5001 15C14.6662 15.0028 16.6635 16.1701 17.7291 18.056L17.7441 18.043L17.7581 18.031L17.7411 18.046L17.7311 18.054C20.2601 15.8691 21.1644 12.3423 19.9987 9.21011C18.8331 6.07788 15.8432 4.00032 12.5011 4.00032C9.15901 4.00032 6.16909 6.07788 5.00345 9.21011C3.83781 12.3423 4.7421 15.8691 7.2711 18.054C8.33736 16.169 10.3345 15.0026 12.5001 15ZM12.5001 14C10.291 14 8.5001 12.2091 8.5001 10C8.5001 7.79086 10.291 6 12.5001 6C14.7092 6 16.5001 7.79086 16.5001 10C16.5001 11.0609 16.0787 12.0783 15.3285 12.8284C14.5784 13.5786 13.561 14 12.5001 14ZM12.5001 8C11.3955 8 10.5001 8.89543 10.5001 10C10.5001 11.1046 11.3955 12 12.5001 12C13.6047 12 14.5001 11.1046 14.5001 10C14.5001 8.89543 13.6047 8 12.5001 8Z" fill="#008FE5"/>
</svg>
